<svg width="24" height="24" viewBox="0 0 24 24" fill="none" xmlns="http://www.w3.org/2000/svg">
<mask id="path-1-outside-1_0_1" maskUnits="userSpaceOnUse" x="1.99969" y="1" width="21" height="21" fill="black">
<rect fill="black" x="1.99969" y="1" width="21" height="21"/>
<path d="M18.9997 4C18.9997 4.55228 19.4474 5 19.9997 5C20.552 5 20.9997 4.55228 20.9997 4C20.9997 3.44772 20.552 3 19.9997 3C19.4474 3 18.9997 3.44772 18.9997 4Z"/>
</mask>
<path d="M14.9997 3.75C15.4139 3.75 15.7497 3.41421 15.7497 3C15.7497 2.58579 15.4139 2.25 14.9997 2.25V3.75ZM21.7497 9C21.7497 8.58578 21.4139 8.25 20.9997 8.25C20.5855 8.25 20.2497 8.58578 20.2497 9H21.7497ZM5.06077 20.0451L4.61993 20.6518L4.61993 20.6518L5.06077 20.0451ZM3.95461 18.9389L4.56137 18.4981L4.56137 18.4981L3.95461 18.9389ZM18.9386 20.0451L19.3795 20.6518L19.3795 20.6518L18.9386 20.0451ZM20.0448 18.9389L20.6515 19.3798L20.6515 19.3798L20.0448 18.9389ZM3.95461 5.06107L3.34785 4.62023L3.34785 4.62023L3.95461 5.06107ZM5.06077 3.95491L4.61993 3.34815L4.61993 3.34815L5.06077 3.95491ZM6.32634 14.5268C6.14392 14.8987 6.29751 15.3481 6.66939 15.5305C7.04128 15.7129 7.49063 15.5593 7.67304 15.1874L6.32634 14.5268ZM8.46003 11.8801L9.13338 12.2104L9.13338 12.2104L8.46003 11.8801ZM15.5394 12.1199L16.2127 12.4502L16.2127 12.4502L15.5394 12.1199ZM17.673 9.47315C17.8555 9.10127 17.7019 8.65192 17.33 8.4695C16.9581 8.28708 16.5088 8.44067 16.3263 8.81256L17.673 9.47315ZM11.9997 12L11.3055 12.284L11.3055 12.284L11.9997 12ZM11.9997 3.75H14.9997V2.25H11.9997V3.75ZM20.2497 9V12H21.7497V9H20.2497ZM11.9997 20.25C10.1081 20.25 8.74969 20.249 7.69774 20.135C6.65983 20.0225 6.00961 19.8074 5.50161 19.4383L4.61993 20.6518C5.42625 21.2377 6.37063 21.5 7.53617 21.6263C8.68767 21.751 10.1415 21.75 11.9997 21.75V20.25ZM2.2497 12C2.2497 13.8582 2.24867 15.312 2.37342 16.4635C2.4997 17.6291 2.76202 18.5734 3.34785 19.3798L4.56137 18.4981C4.19229 17.9901 3.97715 17.3399 3.8647 16.3019C3.75072 15.25 3.74969 13.8916 3.74969 12H2.2497ZM5.50161 19.4383C5.1408 19.1762 4.82351 18.8589 4.56137 18.4981L3.34785 19.3798C3.7025 19.8679 4.13178 20.2972 4.61993 20.6518L5.50161 19.4383ZM11.9997 21.75C13.8579 21.75 15.3117 21.751 16.4632 21.6263C17.6287 21.5 18.5731 21.2377 19.3795 20.6518L18.4978 19.4383C17.9898 19.8074 17.3396 20.0225 16.3016 20.135C15.2497 20.249 13.8913 20.25 11.9997 20.25V21.75ZM20.2497 12C20.2497 13.8916 20.2487 15.25 20.1347 16.3019C20.0222 17.3399 19.8071 17.9901 19.438 18.4981L20.6515 19.3798C21.2374 18.5734 21.4997 17.6291 21.626 16.4635C21.7507 15.312 21.7497 13.8582 21.7497 12H20.2497ZM19.3795 20.6518C19.8676 20.2972 20.2969 19.8679 20.6515 19.3798L19.438 18.4981C19.1759 18.8589 18.8586 19.1762 18.4978 19.4383L19.3795 20.6518ZM3.74969 12C3.74969 10.1084 3.75072 8.74999 3.8647 7.69804C3.97715 6.66013 4.19229 6.00992 4.56137 5.50191L3.34785 4.62023C2.76202 5.42656 2.4997 6.37094 2.37342 7.53647C2.24867 8.68797 2.2497 10.1418 2.2497 12H3.74969ZM11.9997 2.25C10.1415 2.25 8.68767 2.24897 7.53617 2.37373C6.37063 2.50001 5.42625 2.76232 4.61993 3.34815L5.50161 4.56168C6.00961 4.19259 6.65983 3.97745 7.69774 3.865C8.74969 3.75103 10.1081 3.75 11.9997 3.75V2.25ZM4.56137 5.50191C4.82351 5.14111 5.1408 4.82382 5.50161 4.56168L4.61993 3.34815C4.13178 3.70281 3.7025 4.13209 3.34785 4.62023L4.56137 5.50191ZM7.67304 15.1874L9.13338 12.2104L7.78667 11.5498L6.32634 14.5268L7.67304 15.1874ZM16.2127 12.4502L17.673 9.47315L16.3263 8.81256L14.866 11.7896L16.2127 12.4502ZM11.3055 12.284C12.1847 14.433 15.1901 14.5348 16.2127 12.4502L14.866 11.7896C14.4134 12.7124 13.083 12.6673 12.6939 11.716L11.3055 12.284ZM9.13338 12.2104C9.58602 11.2876 10.9164 11.3327 11.3055 12.284L12.6939 11.716C11.8147 9.56698 8.80924 9.46517 7.78667 11.5498L9.13338 12.2104ZM17.4997 4C17.4997 5.38071 18.619 6.5 19.9997 6.5V3.5C20.2758 3.5 20.4997 3.72386 20.4997 4H17.4997ZM19.9997 6.5C21.3804 6.5 22.4997 5.38071 22.4997 4H19.4997C19.4997 3.72386 19.7235 3.5 19.9997 3.5V6.5ZM22.4997 4C22.4997 2.61929 21.3804 1.5 19.9997 1.5V4.5C19.7235 4.5 19.4997 4.27614 19.4997 4H22.4997ZM19.9997 1.5C18.619 1.5 17.4997 2.61929 17.4997 4H20.4997C20.4997 4.27614 20.2758 4.5 19.9997 4.5V1.5Z" fill="black" mask="url(#path-1-outside-1_0_1)"/>
</svg>
