<svg width="24" height="24" viewBox="0 0 24 24" fill="none" xmlns="http://www.w3.org/2000/svg">
<path d="M7.00027 14.8578L8.4606 11.8807C9.19821 10.377 11.3661 10.4505 12.0003 12.0006C12.6344 13.5508 14.8023 13.6242 15.5399 12.1206L17.0003 9.1435M12.0003 21.5269C9.45299 21.5269 8.17935 21.5269 7.10482 20.9757C6.95766 20.9002 6.81433 20.8174 6.67538 20.7278C5.66073 20.0728 5.02391 18.9698 3.75027 16.7638C2.47663 14.5578 1.83981 13.4548 1.77992 12.2486C1.77172 12.0834 1.77172 11.9179 1.77992 11.7527C1.83981 10.5465 2.47663 9.44351 3.75027 7.2375C5.02391 5.03149 5.66073 3.92849 6.67538 3.27353C6.81433 3.18384 6.95766 3.10109 7.10482 3.0256C8.17935 2.47437 9.45299 2.47437 12.0003 2.47437C14.5475 2.47437 15.8212 2.47437 16.8957 3.0256C17.0429 3.10109 17.1862 3.18384 17.3252 3.27353C18.3398 3.92849 18.9766 5.03149 20.2503 7.2375C21.5239 9.44351 22.1607 10.5465 22.2206 11.7527C22.2288 11.9179 22.2288 12.0834 22.2206 12.2486C22.1607 13.4548 21.5239 14.5578 20.2503 16.7638C18.9766 18.9698 18.3398 20.0728 17.3252 20.7277C17.1862 20.8174 17.0429 20.9002 16.8957 20.9757C15.8212 21.5269 14.5475 21.5269 12.0003 21.5269Z" stroke="black" stroke-width="1.5" stroke-linecap="round"/>
</svg>
