<svg width="24" height="24" viewBox="0 0 24 24" fill="none" xmlns="http://www.w3.org/2000/svg">
<path d="M5.06132 20.0451L5.50216 19.4383L5.06132 20.0451ZM3.95516 18.9389L4.56192 18.4981L3.95516 18.9389ZM20.0453 18.9389L19.4386 18.4981L20.0453 18.9389ZM18.9392 20.0451L18.4983 19.4383L18.9392 20.0451ZM18.9392 3.95491L18.4983 4.56168L18.9392 3.95491ZM20.0453 5.06107L19.4386 5.50191L20.0453 5.06107ZM5.06132 3.95491L5.50216 4.56168L5.06132 3.95491ZM3.95516 5.06107L4.56192 5.50191L3.95516 5.06107ZM6.32689 14.5268C6.14447 14.8987 6.29806 15.3481 6.66994 15.5305C7.04182 15.7129 7.49117 15.5593 7.67359 15.1874L6.32689 14.5268ZM8.46057 11.8801L9.13393 12.2104L9.13393 12.2104L8.46057 11.8801ZM15.5399 12.1199L16.2133 12.4502L16.2133 12.4502L15.5399 12.1199ZM17.6736 9.47315C17.856 9.10127 17.7024 8.65192 17.3305 8.4695C16.9587 8.28708 16.5093 8.44067 16.3269 8.81256L17.6736 9.47315ZM12.0002 12L11.3061 12.284L11.3061 12.284L12.0002 12ZM12.0002 20.25C10.1087 20.25 8.75023 20.249 7.69829 20.135C6.66038 20.0225 6.01016 19.8074 5.50216 19.4383L4.62048 20.6518C5.4268 21.2377 6.37118 21.5 7.53672 21.6263C8.68822 21.751 10.1421 21.75 12.0002 21.75V20.25ZM2.25024 12C2.25024 13.8582 2.24921 15.312 2.37397 16.4635C2.50025 17.6291 2.76257 18.5734 3.3484 19.3798L4.56192 18.4981C4.19283 17.9901 3.9777 17.3399 3.86524 16.3019C3.75127 15.25 3.75024 13.8916 3.75024 12H2.25024ZM5.50216 19.4383C5.14135 19.1762 4.82406 18.8589 4.56192 18.4981L3.3484 19.3798C3.70305 19.8679 4.13233 20.2972 4.62048 20.6518L5.50216 19.4383ZM20.2502 12C20.2502 13.8916 20.2492 15.25 20.1352 16.3019C20.0228 17.3399 19.8076 17.9901 19.4386 18.4981L20.6521 19.3798C21.2379 18.5734 21.5002 17.6291 21.6265 16.4635C21.7513 15.312 21.7502 13.8582 21.7502 12H20.2502ZM12.0002 21.75C13.8584 21.75 15.3123 21.751 16.4638 21.6263C17.6293 21.5 18.5737 21.2377 19.38 20.6518L18.4983 19.4383C17.9903 19.8074 17.3401 20.0225 16.3022 20.135C15.2502 20.249 13.8918 20.25 12.0002 20.25V21.75ZM19.4386 18.4981C19.1764 18.8589 18.8591 19.1762 18.4983 19.4383L19.38 20.6518C19.8681 20.2972 20.2974 19.8679 20.6521 19.3798L19.4386 18.4981ZM12.0002 3.75C13.8918 3.75 15.2502 3.75103 16.3022 3.865C17.3401 3.97745 17.9903 4.19259 18.4983 4.56168L19.38 3.34815C18.5737 2.76232 17.6293 2.50001 16.4638 2.37373C15.3123 2.24897 13.8584 2.25 12.0002 2.25V3.75ZM21.7502 12C21.7502 10.1418 21.7513 8.68797 21.6265 7.53647C21.5002 6.37094 21.2379 5.42656 20.6521 4.62023L19.4386 5.50191C19.8076 6.00992 20.0228 6.66013 20.1352 7.69804C20.2492 8.74999 20.2502 10.1084 20.2502 12H21.7502ZM18.4983 4.56168C18.8591 4.82382 19.1764 5.14111 19.4386 5.50191L20.6521 4.62023C20.2974 4.13209 19.8681 3.70281 19.38 3.34815L18.4983 4.56168ZM12.0002 2.25C10.1421 2.25 8.68822 2.24897 7.53672 2.37373C6.37118 2.50001 5.4268 2.76232 4.62048 3.34815L5.50216 4.56168C6.01016 4.19259 6.66038 3.97745 7.69829 3.865C8.75023 3.75103 10.1087 3.75 12.0002 3.75V2.25ZM3.75024 12C3.75024 10.1084 3.75127 8.74999 3.86524 7.69804C3.9777 6.66013 4.19283 6.00992 4.56192 5.50191L3.3484 4.62023C2.76257 5.42656 2.50025 6.37094 2.37397 7.53647C2.24921 8.68797 2.25024 10.1418 2.25024 12H3.75024ZM4.62048 3.34815C4.13233 3.70281 3.70305 4.13209 3.3484 4.62023L4.56192 5.50191C4.82406 5.14111 5.14135 4.82382 5.50216 4.56168L4.62048 3.34815ZM7.67359 15.1874L9.13393 12.2104L7.78722 11.5498L6.32689 14.5268L7.67359 15.1874ZM16.2133 12.4502L17.6736 9.47315L16.3269 8.81256L14.8666 11.7896L16.2133 12.4502ZM11.3061 12.284C12.1852 14.433 15.1907 14.5348 16.2133 12.4502L14.8666 11.7896C14.4139 12.7124 13.0836 12.6673 12.6944 11.716L11.3061 12.284ZM9.13393 12.2104C9.58657 11.2876 10.9169 11.3327 11.3061 12.284L12.6944 11.716C11.8152 9.56698 8.80979 9.46517 7.78722 11.5498L9.13393 12.2104Z" fill="black"/>
</svg>
