<svg width="24" height="24" viewBox="0 0 24 24" fill="none" xmlns="http://www.w3.org/2000/svg">
<path d="M6.99865 14.8568L8.45898 11.8798C9.19658 10.3761 11.3645 10.4495 11.9986 11.9997C12.6328 13.5498 14.8007 13.6233 15.5383 12.1196L16.9986 9.14255M21.5249 11.9997C21.5249 14.547 21.5249 15.8206 20.9737 16.8951C20.8982 17.0423 20.8154 17.1856 20.7258 17.3246C20.0708 18.3392 18.9678 18.976 16.7618 20.2497C14.5558 21.5233 13.4528 22.1601 12.2466 22.22C12.0814 22.2282 11.9159 22.2282 11.7507 22.22C10.5445 22.1601 9.44152 21.5233 7.23551 20.2497C5.0295 18.976 3.92649 18.3392 3.27154 17.3246C3.18184 17.1856 3.09909 17.0423 3.0236 16.8951C2.47237 15.8206 2.47237 14.547 2.47237 11.9997C2.47237 9.45241 2.47237 8.17877 3.0236 7.10424C3.09909 6.95708 3.18184 6.81375 3.27153 6.6748C3.92649 5.66015 5.02949 5.02333 7.2355 3.74969C9.44151 2.47605 10.5445 1.83923 11.7507 1.77934C11.9159 1.77114 12.0814 1.77114 12.2466 1.77934C13.4528 1.83923 14.5558 2.47605 16.7618 3.74969C18.9678 5.02333 20.0708 5.66015 20.7258 6.67479C20.8154 6.81375 20.8982 6.95708 20.9737 7.10424C21.5249 8.17877 21.5249 9.45241 21.5249 11.9997Z" stroke="black" stroke-width="1.5" stroke-linecap="round"/>
</svg>
