<svg width="24" height="24" viewBox="0 0 24 24" fill="none" xmlns="http://www.w3.org/2000/svg">
<path d="M5.061 20.0448L5.50184 19.4381L5.061 20.0448ZM3.95484 18.9387L4.5616 18.4978L3.95484 18.9387ZM20.045 18.9387L19.4382 18.4978L20.045 18.9387ZM18.9388 20.0448L18.498 19.4381L18.9388 20.0448ZM18.9388 3.95467L18.498 4.56143L18.9388 3.95467ZM20.045 5.06083L19.4382 5.50167L20.045 5.06083ZM5.061 3.95467L5.50184 4.56143L5.061 3.95467ZM3.95484 5.06083L4.5616 5.50167L3.95484 5.06083ZM8.99992 11.2498C8.58571 11.2498 8.24992 11.5855 8.24992 11.9998C8.24992 12.414 8.58571 12.7498 8.99992 12.7498V11.2498ZM14.9999 12.7498C15.4141 12.7498 15.7499 12.414 15.7499 11.9998C15.7499 11.5855 15.4141 11.2498 14.9999 11.2498V12.7498ZM11.2499 14.9998C11.2499 15.414 11.5857 15.7498 11.9999 15.7498C12.4141 15.7498 12.7499 15.414 12.7499 14.9998H11.2499ZM12.7499 8.99975C12.7499 8.58554 12.4141 8.24975 11.9999 8.24975C11.5857 8.24975 11.2499 8.58554 11.2499 8.99975H12.7499ZM11.9999 20.2497C10.1083 20.2497 8.74991 20.2487 7.69797 20.1347C6.66006 20.0223 6.00984 19.8072 5.50184 19.4381L4.62016 20.6516C5.42648 21.2374 6.37086 21.4997 7.5364 21.626C8.6879 21.7508 10.1418 21.7497 11.9999 21.7497V20.2497ZM2.24992 11.9998C2.24992 13.8579 2.24889 15.3118 2.37365 16.4633C2.49993 17.6288 2.76225 18.5732 3.34808 19.3795L4.5616 18.4978C4.19251 17.9898 3.97737 17.3396 3.86492 16.3017C3.75095 15.2498 3.74992 13.8913 3.74992 11.9998H2.24992ZM5.50184 19.4381C5.14103 19.1759 4.82374 18.8586 4.5616 18.4978L3.34808 19.3795C3.70273 19.8677 4.13201 20.2969 4.62016 20.6516L5.50184 19.4381ZM20.2499 11.9998C20.2499 13.8913 20.2489 15.2498 20.1349 16.3017C20.0225 17.3396 19.8073 17.9898 19.4382 18.4978L20.6518 19.3795C21.2376 18.5732 21.4999 17.6288 21.6262 16.4633C21.7509 15.3118 21.7499 13.8579 21.7499 11.9998H20.2499ZM11.9999 21.7497C13.8581 21.7497 15.3119 21.7508 16.4634 21.626C17.629 21.4997 18.5734 21.2374 19.3797 20.6516L18.498 19.4381C17.99 19.8072 17.3398 20.0223 16.3019 20.1347C15.2499 20.2487 13.8915 20.2497 11.9999 20.2497V21.7497ZM19.4382 18.4978C19.1761 18.8586 18.8588 19.1759 18.498 19.4381L19.3797 20.6516C19.8678 20.2969 20.2971 19.8677 20.6518 19.3795L19.4382 18.4978ZM11.9999 3.74976C13.8915 3.74976 15.2499 3.75079 16.3019 3.86476C17.3398 3.97721 17.99 4.19235 18.498 4.56143L19.3797 3.34791C18.5734 2.76208 17.629 2.49976 16.4634 2.37348C15.3119 2.24873 13.8581 2.24976 11.9999 2.24976V3.74976ZM21.7499 11.9998C21.7499 10.1416 21.7509 8.68773 21.6262 7.53623C21.4999 6.37069 21.2376 5.42631 20.6518 4.61999L19.4382 5.50167C19.8073 6.00967 20.0225 6.65989 20.1349 7.6978C20.2489 8.74975 20.2499 10.1082 20.2499 11.9998H21.7499ZM18.498 4.56143C18.8588 4.82357 19.1761 5.14087 19.4382 5.50167L20.6518 4.61999C20.2971 4.13184 19.8678 3.70256 19.3797 3.34791L18.498 4.56143ZM11.9999 2.24976C10.1418 2.24976 8.6879 2.24873 7.5364 2.37348C6.37086 2.49976 5.42648 2.76208 4.62016 3.34791L5.50184 4.56143C6.00984 4.19235 6.66006 3.97721 7.69797 3.86476C8.74991 3.75079 10.1083 3.74976 11.9999 3.74976V2.24976ZM3.74992 11.9998C3.74992 10.1082 3.75095 8.74975 3.86492 7.6978C3.97737 6.65989 4.19251 6.00967 4.5616 5.50167L3.34808 4.61999C2.76225 5.42631 2.49993 6.37069 2.37365 7.53623C2.24889 8.68773 2.24992 10.1416 2.24992 11.9998H3.74992ZM4.62016 3.34791C4.13201 3.70257 3.70273 4.13185 3.34808 4.61999L4.5616 5.50167C4.82374 5.14087 5.14103 4.82357 5.50184 4.56143L4.62016 3.34791ZM8.99992 12.7498H14.9999V11.2498H8.99992V12.7498ZM12.7499 14.9998V8.99975H11.2499V14.9998H12.7499Z" fill="black"/>
</svg>
