<svg width="24" height="24" viewBox="0 0 24 24" fill="none" xmlns="http://www.w3.org/2000/svg">
<path d="M13.9996 6.24975C13.5854 6.24975 13.2496 6.58554 13.2496 6.99975C13.2496 7.41397 13.5854 7.74975 13.9996 7.74975V6.24975ZM19.9996 7.74975C20.4138 7.74975 20.7496 7.41397 20.7496 6.99975C20.7496 6.58554 20.4138 6.24975 19.9996 6.24975V7.74975ZM16.2496 9.99975C16.2496 10.414 16.5854 10.7498 16.9996 10.7498C17.4138 10.7498 17.7496 10.414 17.7496 9.99975H16.2496ZM17.7496 3.99976C17.7496 3.58554 17.4138 3.24976 16.9996 3.24976C16.5854 3.24976 16.2496 3.58554 16.2496 3.99976H17.7496ZM6.9996 9.24975C6.5234 9.24975 6.20381 9.24935 5.95634 9.23246C5.71562 9.21604 5.5984 9.18656 5.52125 9.1546L4.94722 10.5404C5.23761 10.6607 5.53714 10.7073 5.85424 10.729C6.1646 10.7502 6.54392 10.7498 6.9996 10.7498V9.24975ZM3.2496 6.99975C3.2496 7.45543 3.2492 7.83476 3.27037 8.14512C3.29201 8.46222 3.33865 8.76174 3.45893 9.05213L4.84475 8.47811C4.8128 8.40096 4.78332 8.28374 4.76689 8.04301C4.75001 7.79555 4.7496 7.47596 4.7496 6.99975H3.2496ZM5.52125 9.1546C5.21496 9.02774 4.97162 8.78439 4.84475 8.47811L3.45893 9.05213C3.73804 9.72596 4.2734 10.2613 4.94722 10.5404L5.52125 9.1546ZM9.2496 6.99975C9.2496 7.47596 9.24919 7.79555 9.23231 8.04301C9.21589 8.28374 9.18641 8.40096 9.15445 8.47811L10.5403 9.05213C10.6606 8.76174 10.7072 8.46222 10.7288 8.14512C10.75 7.83476 10.7496 7.45543 10.7496 6.99975H9.2496ZM6.9996 10.7498C7.45528 10.7498 7.8346 10.7502 8.14497 10.729C8.46207 10.7073 8.76159 10.6607 9.05198 10.5404L8.47796 9.1546C8.4008 9.18656 8.28359 9.21604 8.04286 9.23246C7.7954 9.24935 7.47581 9.24975 6.9996 9.24975V10.7498ZM9.15445 8.47811C9.02758 8.78439 8.78424 9.02774 8.47796 9.1546L9.05198 10.5404C9.72581 10.2613 10.2612 9.72596 10.5403 9.05213L9.15445 8.47811ZM6.9996 4.74976C7.47581 4.74976 7.7954 4.75016 8.04286 4.76705C8.28359 4.78347 8.4008 4.81295 8.47796 4.84491L9.05198 3.45909C8.76159 3.3388 8.46207 3.29216 8.14497 3.27053C7.8346 3.24935 7.45528 3.24976 6.9996 3.24976V4.74976ZM10.7496 6.99975C10.7496 6.54407 10.75 6.16475 10.7288 5.85439C10.7072 5.53729 10.6606 5.23776 10.5403 4.94738L9.15445 5.5214C9.18641 5.59855 9.21589 5.71577 9.23231 5.9565C9.24919 6.20396 9.2496 6.52355 9.2496 6.99975H10.7496ZM8.47796 4.84491C8.78424 4.97177 9.02758 5.21512 9.15445 5.5214L10.5403 4.94738C10.2612 4.27355 9.72581 3.7382 9.05198 3.45909L8.47796 4.84491ZM6.9996 3.24976C6.54392 3.24976 6.1646 3.24935 5.85424 3.27053C5.53714 3.29216 5.23761 3.3388 4.94722 3.45909L5.52125 4.84491C5.5984 4.81295 5.71562 4.78347 5.95634 4.76705C6.20381 4.75016 6.5234 4.74976 6.9996 4.74976V3.24976ZM4.7496 6.99975C4.7496 6.52355 4.75001 6.20396 4.76689 5.9565C4.78332 5.71577 4.8128 5.59855 4.84475 5.5214L3.45893 4.94738C3.33865 5.23776 3.29201 5.53729 3.27037 5.85439C3.2492 6.16475 3.2496 6.54407 3.2496 6.99975H4.7496ZM4.94722 3.45909C4.2734 3.7382 3.73804 4.27355 3.45893 4.94738L4.84475 5.5214C4.97162 5.21512 5.21496 4.97177 5.52125 4.84491L4.94722 3.45909ZM13.9996 7.74975H19.9996V6.24975H13.9996V7.74975ZM17.7496 9.99975V3.99976H16.2496V9.99975H17.7496ZM6.9996 19.2497C6.5234 19.2497 6.20381 19.2493 5.95634 19.2325C5.71562 19.216 5.5984 19.1866 5.52125 19.1546L4.94722 20.5404C5.23761 20.6607 5.53714 20.7073 5.85424 20.729C6.1646 20.7502 6.54392 20.7497 6.9996 20.7497V19.2497ZM3.2496 16.9998C3.2496 17.4554 3.2492 17.8348 3.27037 18.1451C3.29201 18.4622 3.33865 18.7617 3.45893 19.0521L4.84475 18.4781C4.8128 18.401 4.78332 18.2837 4.76689 18.043C4.75001 17.7955 4.7496 17.476 4.7496 16.9998H3.2496ZM5.52125 19.1546C5.21496 19.0277 4.97162 18.7844 4.84475 18.4781L3.45893 19.0521C3.73804 19.726 4.2734 20.2613 4.94722 20.5404L5.52125 19.1546ZM9.2496 16.9998C9.2496 17.476 9.24919 17.7955 9.23231 18.043C9.21589 18.2837 9.18641 18.401 9.15445 18.4781L10.5403 19.0521C10.6606 18.7617 10.7072 18.4622 10.7288 18.1451C10.75 17.8348 10.7496 17.4554 10.7496 16.9998H9.2496ZM6.9996 20.7497C7.45528 20.7497 7.8346 20.7502 8.14497 20.729C8.46207 20.7073 8.76159 20.6607 9.05198 20.5404L8.47796 19.1546C8.4008 19.1866 8.28359 19.216 8.04286 19.2325C7.7954 19.2493 7.47581 19.2497 6.9996 19.2497V20.7497ZM9.15445 18.4781C9.02758 18.7844 8.78424 19.0277 8.47796 19.1546L9.05198 20.5404C9.72581 20.2613 10.2612 19.726 10.5403 19.0521L9.15445 18.4781ZM6.9996 14.7498C7.47581 14.7498 7.7954 14.7502 8.04286 14.767C8.28359 14.7835 8.4008 14.8129 8.47796 14.8449L9.05198 13.4591C8.76159 13.3388 8.46207 13.2922 8.14497 13.2705C7.8346 13.2493 7.45528 13.2498 6.9996 13.2498V14.7498ZM10.7496 16.9998C10.7496 16.5441 10.75 16.1647 10.7288 15.8544C10.7072 15.5373 10.6606 15.2378 10.5403 14.9474L9.15445 15.5214C9.18641 15.5986 9.21589 15.7158 9.23231 15.9565C9.24919 16.204 9.2496 16.5235 9.2496 16.9998H10.7496ZM8.47796 14.8449C8.78424 14.9718 9.02758 15.2151 9.15445 15.5214L10.5403 14.9474C10.2612 14.2735 9.72581 13.7382 9.05198 13.4591L8.47796 14.8449ZM6.9996 13.2498C6.54392 13.2498 6.1646 13.2493 5.85424 13.2705C5.53714 13.2922 5.23761 13.3388 4.94722 13.4591L5.52125 14.8449C5.5984 14.8129 5.71562 14.7835 5.95634 14.767C6.20381 14.7502 6.5234 14.7498 6.9996 14.7498V13.2498ZM4.7496 16.9998C4.7496 16.5235 4.75001 16.204 4.76689 15.9565C4.78332 15.7158 4.8128 15.5986 4.84475 15.5214L3.45893 14.9474C3.33865 15.2378 3.29201 15.5373 3.27037 15.8544C3.2492 16.1647 3.2496 16.5441 3.2496 16.9998H4.7496ZM4.94722 13.4591C4.2734 13.7382 3.73804 14.2735 3.45893 14.9474L4.84475 15.5214C4.97162 15.2151 5.21496 14.9718 5.52125 14.8449L4.94722 13.4591ZM16.9996 19.2497C16.5234 19.2497 16.2038 19.2493 15.9563 19.2325C15.7156 19.216 15.5984 19.1866 15.5212 19.1546L14.9472 20.5404C15.2376 20.6607 15.5371 20.7073 15.8542 20.729C16.1646 20.7502 16.5439 20.7497 16.9996 20.7497V19.2497ZM13.2496 16.9998C13.2496 17.4554 13.2492 17.8348 13.2704 18.1451C13.292 18.4622 13.3386 18.7617 13.4589 19.0521L14.8447 18.4781C14.8128 18.401 14.7833 18.2837 14.7669 18.043C14.75 17.7955 14.7496 17.476 14.7496 16.9998H13.2496ZM15.5212 19.1546C15.215 19.0277 14.9716 18.7844 14.8447 18.4781L13.4589 19.0521C13.738 19.726 14.2734 20.2613 14.9472 20.5404L15.5212 19.1546ZM19.2496 16.9998C19.2496 17.476 19.2492 17.7955 19.2323 18.043C19.2159 18.2837 19.1864 18.401 19.1544 18.4781L20.5403 19.0521C20.6605 18.7617 20.7072 18.4622 20.7288 18.1451C20.75 17.8348 20.7496 17.4554 20.7496 16.9998H19.2496ZM16.9996 20.7497C17.4553 20.7497 17.8346 20.7502 18.145 20.729C18.4621 20.7073 18.7616 20.6607 19.052 20.5404L18.478 19.1546C18.4008 19.1866 18.2836 19.216 18.0429 19.2325C17.7954 19.2493 17.4758 19.2497 16.9996 19.2497V20.7497ZM19.1544 18.4781C19.0276 18.7844 18.7842 19.0277 18.478 19.1546L19.052 20.5404C19.7258 20.2613 20.2612 19.726 20.5403 19.0521L19.1544 18.4781ZM16.9996 14.7498C17.4758 14.7498 17.7954 14.7502 18.0429 14.767C18.2836 14.7835 18.4008 14.8129 18.478 14.8449L19.052 13.4591C18.7616 13.3388 18.4621 13.2922 18.145 13.2705C17.8346 13.2493 17.4553 13.2498 16.9996 13.2498V14.7498ZM20.7496 16.9998C20.7496 16.5441 20.75 16.1647 20.7288 15.8544C20.7072 15.5373 20.6605 15.2378 20.5403 14.9474L19.1544 15.5214C19.1864 15.5986 19.2159 15.7158 19.2323 15.9565C19.2492 16.204 19.2496 16.5235 19.2496 16.9998H20.7496ZM18.478 14.8449C18.7842 14.9718 19.0276 15.2151 19.1544 15.5214L20.5403 14.9474C20.2612 14.2735 19.7258 13.7382 19.052 13.4591L18.478 14.8449ZM16.9996 13.2498C16.5439 13.2498 16.1646 13.2493 15.8542 13.2705C15.5371 13.2922 15.2376 13.3388 14.9472 13.4591L15.5212 14.8449C15.5984 14.8129 15.7156 14.7835 15.9563 14.767C16.2038 14.7502 16.5234 14.7498 16.9996 14.7498V13.2498ZM14.7496 16.9998C14.7496 16.5235 14.75 16.204 14.7669 15.9565C14.7833 15.7158 14.8128 15.5986 14.8447 15.5214L13.4589 14.9474C13.3386 15.2378 13.292 15.5373 13.2704 15.8544C13.2492 16.1647 13.2496 16.5441 13.2496 16.9998H14.7496ZM14.9472 13.4591C14.2734 13.7382 13.738 14.2735 13.4589 14.9474L14.8447 15.5214C14.9716 15.2151 15.215 14.9718 15.5212 14.8449L14.9472 13.4591Z" fill="black"/>
</svg>
