<svg width="24" height="24" viewBox="0 0 24 24" fill="none" xmlns="http://www.w3.org/2000/svg">
<path d="M18.9999 8.74902C19.4142 8.74902 19.7499 8.41324 19.7499 7.99902C19.7499 7.58481 19.4142 7.24902 18.9999 7.24902V8.74902ZM6.78948 5.39687L6.26152 4.86418L6.26152 4.86418L6.78948 5.39687ZM8.72781 4.53171C9.02201 4.24013 9.02413 3.76526 8.73255 3.47106C8.44096 3.17687 7.96609 3.17475 7.6719 3.46633L8.72781 4.53171ZM17.4107 18.6012L17.9386 19.1339L17.9386 19.1339L17.4107 18.6012ZM15.4723 19.4663C15.1781 19.7579 15.176 20.2328 15.4676 20.527C15.7592 20.8212 16.2341 20.8233 16.5282 20.5317L15.4723 19.4663ZM19.1844 16.2497L19.9284 16.3445L19.9284 16.3445L19.1844 16.2497ZM4.99996 15.249C4.58574 15.249 4.24996 15.5848 4.24996 15.999C4.24996 16.4132 4.58574 16.749 4.99996 16.749V15.249ZM19.1902 16.199L18.444 16.1234L18.444 16.1234L19.1902 16.199ZM5.25129 8.74902H18.9999V7.24902H5.25129V8.74902ZM7.31744 5.92956L8.72781 4.53171L7.6719 3.46633L6.26152 4.86418L7.31744 5.92956ZM6.26152 4.86418C5.71167 5.40914 5.25347 5.86167 4.92855 6.26626C4.59412 6.68269 4.33975 7.12033 4.27179 7.65353L5.75975 7.84318C5.77838 7.69702 5.84849 7.5163 6.09808 7.20551C6.35718 6.88288 6.74254 6.49935 7.31744 5.92956L6.26152 4.86418ZM16.8827 18.0685L15.4723 19.4663L16.5282 20.5317L17.9386 19.1339L16.8827 18.0685ZM17.9386 19.1339C18.4885 18.5889 18.9467 18.1364 19.2716 17.7318C19.606 17.3154 19.8604 16.8777 19.9284 16.3445L18.4404 16.1549C18.4218 16.301 18.3517 16.4817 18.1021 16.7925C17.843 17.1152 17.4576 17.4987 16.8827 18.0685L17.9386 19.1339ZM18.444 16.1234C18.4429 16.1339 18.4417 16.1444 18.4404 16.1549L19.9284 16.3445C19.9313 16.3213 19.934 16.298 19.9363 16.2747L18.444 16.1234ZM18.9999 15.249H4.99996V16.749H18.9999V15.249ZM19.9363 16.2747C19.9975 15.6718 19.5019 15.249 19 15.249L18.9999 16.749C18.7192 16.749 18.4052 16.506 18.444 16.1234L19.9363 16.2747ZM5.25129 7.24902C5.49654 7.24902 5.80758 7.46796 5.75975 7.84318L4.27179 7.65353C4.18886 8.30414 4.72842 8.74902 5.25129 8.74902V7.24902Z" fill="black"/>
</svg>
