<svg width="24" height="24" viewBox="0 0 24 24" fill="none" xmlns="http://www.w3.org/2000/svg">
<path d="M8.74899 4.99917C8.74899 4.58496 8.4132 4.24917 7.99899 4.24917C7.58478 4.24917 7.24899 4.58496 7.24899 4.99917L8.74899 4.99917ZM5.39684 17.2096L4.86415 17.7376L4.86415 17.7376L5.39684 17.2096ZM4.53168 15.2713C4.2401 14.9771 3.76523 14.975 3.47103 15.2666C3.17684 15.5582 3.17472 16.033 3.4663 16.3272L4.53168 15.2713ZM18.6011 6.58845L19.1338 6.06049L19.1338 6.06049L18.6011 6.58845ZM19.4663 8.52679C19.7579 8.82098 20.2327 8.8231 20.5269 8.53152C20.8211 8.23993 20.8233 7.76507 20.5317 7.47087L19.4663 8.52679ZM16.2497 4.81474L16.3445 4.07076L16.3445 4.07076L16.2497 4.81474ZM15.249 18.9992C15.249 19.4134 15.5848 19.7492 15.999 19.7492C16.4132 19.7492 16.749 19.4134 16.749 18.9992H15.249ZM16.199 4.80894L16.1233 5.55512L16.199 4.80894ZM7.99899 18.7478L7.24899 18.7478L7.99899 18.7478ZM8.74899 18.7478L8.74899 4.99917L7.24899 4.99917L7.24899 18.7478L8.74899 18.7478ZM5.92953 16.6817L4.53168 15.2713L3.4663 16.3272L4.86415 17.7376L5.92953 16.6817ZM4.86415 17.7376C5.40911 18.2874 5.86164 18.7456 6.26623 19.0706C6.68266 19.405 7.1203 19.6594 7.6535 19.7273L7.84315 18.2394C7.69699 18.2207 7.51627 18.1506 7.20548 17.901C6.88285 17.6419 6.49932 17.2566 5.92953 16.6817L4.86415 17.7376ZM18.0684 7.11641L19.4663 8.52679L20.5317 7.47087L19.1338 6.06049L18.0684 7.11641ZM19.1338 6.06049C18.5889 5.51065 18.1363 5.05244 17.7317 4.72752C17.3153 4.39309 16.8777 4.13872 16.3445 4.07076L16.1548 5.55872C16.301 5.57735 16.4817 5.64746 16.7925 5.89706C17.1151 6.15615 17.4987 6.54151 18.0684 7.11641L19.1338 6.06049ZM16.1233 5.55512C16.1338 5.55618 16.1443 5.55738 16.1548 5.55872L16.3445 4.07076C16.3212 4.0678 16.298 4.06513 16.2747 4.06277L16.1233 5.55512ZM15.249 4.99917V18.9992H16.749V4.99917H15.249ZM16.2747 4.06277C15.6718 4.00164 15.249 4.49718 15.249 4.99916L16.749 4.99918C16.749 5.27987 16.506 5.59392 16.1233 5.55512L16.2747 4.06277ZM7.24899 18.7478C7.24899 18.5026 7.46793 18.1915 7.84315 18.2394L7.6535 19.7273C8.30411 19.8103 8.74899 19.2707 8.74899 18.7478L7.24899 18.7478Z" fill="black"/>
</svg>
