<svg width="24" height="24" viewBox="0 0 24 24" fill="none" xmlns="http://www.w3.org/2000/svg">
<g clip-path="url(#clip0_0_1)">
<path d="M13.6326 14.5216L14.5816 10.9799C15.1057 9.02388 13.9449 7.01331 11.9889 6.48919C10.0329 5.96507 8.02229 7.12587 7.49817 9.08191L5.12567 17.9362C4.60155 19.8923 5.76235 21.9028 7.71839 22.427C8.61661 22.6676 9.52633 22.553 10.2983 22.1693C10.7721 21.9337 11.194 21.5969 11.5296 21.1785M11.0399 10.0309L10.0909 13.5726C9.56678 15.5287 10.7276 17.5393 12.6836 18.0634C14.6397 18.5875 16.6502 17.4267 17.1743 15.4707L19.5469 6.61633C20.071 4.66029 18.9102 2.64972 16.9541 2.1256C16.0559 1.88493 15.1462 1.99955 14.3742 2.38331C13.9004 2.61883 13.4785 2.95571 13.143 3.37404" stroke="black" stroke-width="1.5" stroke-linecap="round"/>
</g>
<defs>
<clipPath id="clip0_0_1">
<rect width="24" height="24" fill="black" transform="translate(-0.00012207 -0.000488281)"/>
</clipPath>
</defs>
</svg>
