<svg width="24" height="24" viewBox="0 0 24 24" fill="none" xmlns="http://www.w3.org/2000/svg">
<g clip-path="url(#clip0_0_1)">
<path d="M5.36194 13.942L6.05768 13.662L6.05768 13.662L5.36194 13.942ZM9.16775 17.1664L8.86801 17.8539L9.16775 17.1664ZM6.43482 15.5802L6.96962 15.0544L6.43482 15.5802ZM18.6384 13.942L17.9427 13.662L18.6384 13.942ZM14.8326 17.1664L15.1323 17.8539L14.8326 17.1664ZM17.5655 15.5802L18.1003 16.106L18.1003 16.106L17.5655 15.5802ZM18.7555 5.45473L18.0422 5.68649L18.7555 5.45473ZM15.5453 2.24453L15.3135 2.95783L15.5453 2.24453ZM5.2449 5.45473L5.95819 5.68649L5.2449 5.45473ZM8.4551 2.24453L8.68686 2.95783L8.4551 2.24453ZM2.33272 11.607L1.87713 12.2028L1.88778 12.211L1.89871 12.2187L2.33272 11.607ZM21.6678 11.607L22.1018 12.2187L22.1127 12.211L22.1234 12.2028L21.6678 11.607ZM11.2502 21.9998C11.2502 22.414 11.586 22.7498 12.0002 22.7498C12.4144 22.7498 12.7502 22.414 12.7502 21.9998H11.2502ZM16.0002 22.7498C16.4144 22.7498 16.7502 22.414 16.7502 21.9998C16.7502 21.5856 16.4144 21.2498 16.0002 21.2498V22.7498ZM8.00018 21.2498C7.58597 21.2498 7.25018 21.5856 7.25018 21.9998C7.25018 22.414 7.58597 22.7498 8.00018 22.7498V21.2498ZM18.8865 5.99981L18.1469 6.12441L18.8865 5.99981ZM19.2174 13.3457L19.6514 13.9573L19.2174 13.3457ZM4.78869 13.3497L4.35469 13.9613L4.78869 13.3497ZM18.2502 8.99981V10.3002H19.7502V8.99981H18.2502ZM5.75018 10.3002V8.99981H4.25018V10.3002H5.75018ZM14.5329 16.4789C14.0067 16.7083 13.5001 16.905 13.0504 17.0432C12.5898 17.1847 12.2362 17.2498 12.0002 17.2498V18.7498C12.4584 18.7498 12.9797 18.6341 13.4911 18.477C14.0134 18.3165 14.576 18.0964 15.1323 17.8539L14.5329 16.4789ZM12.0002 17.2498C11.7641 17.2498 11.4106 17.1847 10.9499 17.0432C10.5002 16.905 9.99368 16.7083 9.46749 16.4789L8.86801 17.8539C9.42436 18.0964 9.98693 18.3165 10.5093 18.477C11.0206 18.6341 11.542 18.7498 12.0002 18.7498V17.2498ZM9.46749 16.4789C8.07103 15.87 7.52909 15.6234 6.96962 15.0544L5.90001 16.106C6.69881 16.9185 7.52607 17.2688 8.86801 17.8539L9.46749 16.4789ZM4.66621 14.2221C4.92169 14.8568 5.42039 15.6182 5.90001 16.106L6.96962 15.0544C6.62863 14.7076 6.23932 14.1131 6.05768 13.662L4.66621 14.2221ZM15.1323 17.8539C16.4743 17.2688 17.3016 16.9185 18.1003 16.106L17.0307 15.0544C16.4713 15.6234 15.9293 15.87 14.5329 16.4789L15.1323 17.8539ZM17.9427 13.662C17.761 14.1131 17.3717 14.7076 17.0307 15.0544L18.1003 16.106C18.58 15.6182 19.0787 14.8568 19.3341 14.2221L17.9427 13.662ZM12.0002 2.74982C13.9198 2.74982 14.7018 2.75907 15.3135 2.95783L15.777 1.53124C14.8824 1.24056 13.8031 1.24982 12.0002 1.24982V2.74982ZM19.4688 5.22297C18.9 3.47245 17.5275 2.10002 15.777 1.53124L15.3135 2.95783C16.6074 3.37823 17.6218 4.39263 18.0422 5.68649L19.4688 5.22297ZM12.0002 1.24982C10.1973 1.24982 9.11795 1.24056 8.22333 1.53124L8.68686 2.95783C9.29857 2.75907 10.0805 2.74982 12.0002 2.74982V1.24982ZM5.95819 5.68649C6.37859 4.39263 7.393 3.37823 8.68686 2.95783L8.22333 1.53124C6.47281 2.10002 5.10038 3.47245 4.53161 5.22297L5.95819 5.68649ZM5.2227 12.738L2.76672 10.9954L1.89871 12.2187L4.35469 13.9613L5.2227 12.738ZM2.78831 11.0113C0.984232 9.63169 1.95984 6.74981 4.23095 6.74981V5.24982C0.525412 5.24982 -1.06639 9.95189 1.87713 12.2028L2.78831 11.0113ZM4.23095 6.74981H5.00032V5.24982H4.23095V6.74981ZM19.6514 13.9573L22.1018 12.2187L21.2338 10.9954L18.7834 12.734L19.6514 13.9573ZM22.1234 12.2028C25.0669 9.95189 23.4751 5.24982 19.7695 5.24982V6.74981C22.0407 6.74981 23.0163 9.63169 21.2122 11.0113L22.1234 12.2028ZM19.7695 5.24982H19.0002V6.74981H19.7695V5.24982ZM11.2502 17.9998V21.9998H12.7502V17.9998H11.2502ZM16.0002 21.2498H8.00018V22.7498H16.0002V21.2498ZM5.75018 8.99981C5.75018 7.52796 5.7528 6.72201 5.85348 6.12441L4.37432 5.87522C4.24756 6.62761 4.25018 7.58834 4.25018 8.99981H5.75018ZM5.85348 6.12441C5.88131 5.95916 5.9159 5.81667 5.95819 5.68649L4.53161 5.22297C4.46356 5.43239 4.41268 5.64753 4.37432 5.87522L5.85348 6.12441ZM5.00032 6.74981H5.1139V5.24982H5.00032V6.74981ZM4.25018 10.3002C4.25018 11.8533 4.24288 12.8825 4.52264 13.813L5.95912 13.3812C5.75748 12.7104 5.75018 11.9402 5.75018 10.3002H4.25018ZM4.52264 13.813C4.5642 13.9513 4.61183 14.0871 4.66621 14.2221L6.05768 13.662C6.02018 13.5688 5.98759 13.4758 5.95912 13.3812L4.52264 13.813ZM18.2502 10.3002C18.2502 11.9473 18.2427 12.7172 18.0387 13.3894L19.4741 13.825C19.7576 12.8909 19.7502 11.8598 19.7502 10.3002H18.2502ZM18.0387 13.3894C18.0109 13.4812 17.9791 13.5715 17.9427 13.662L19.3341 14.2221C19.387 14.091 19.4334 13.9591 19.4741 13.825L18.0387 13.3894ZM19.7502 8.99981C19.7502 7.58834 19.7528 6.62761 19.626 5.87522L18.1469 6.12441C18.2476 6.72201 18.2502 7.52796 18.2502 8.99981H19.7502ZM19.626 5.87522C19.5877 5.64753 19.5368 5.43239 19.4688 5.22297L18.0422 5.68649C18.0845 5.81667 18.119 5.95916 18.1469 6.12441L19.626 5.87522ZM19.0002 5.24982H18.8865V6.74981H19.0002V5.24982ZM18.7834 12.734C18.6802 12.8072 18.5698 12.8698 18.454 12.9209L19.0588 14.2935C19.2672 14.2017 19.4657 14.0891 19.6514 13.9573L18.7834 12.734ZM4.35469 13.9613C4.54282 14.0948 4.74586 14.2059 4.95971 14.2924L5.52205 12.9018C5.41624 12.859 5.31578 12.804 5.2227 12.738L4.35469 13.9613Z" fill="black"/>
</g>
<defs>
<clipPath id="clip0_0_1">
<rect width="24" height="24" fill="black" transform="translate(0 -0.000183105)"/>
</clipPath>
</defs>
</svg>
