<svg width="24" height="24" viewBox="0 0 24 24" fill="none" xmlns="http://www.w3.org/2000/svg">
<path d="M10.6898 5.98291L9.97434 5.75787L10.6898 5.98291ZM8.57018 9.54L9.02038 8.94015L8.57018 9.54ZM9.07055 11.1308L9.78599 11.3558L9.07055 11.1308ZM11.1901 12.7216L10.7399 12.1217L10.7399 12.1217L11.1901 12.7216ZM12.8094 12.7216L13.2596 12.1217L12.8094 12.7216ZM14.929 11.1308L14.2135 11.3558L14.2135 11.3558L14.929 11.1308ZM15.4293 9.54L14.9791 8.94015L15.4293 9.54ZM13.3097 5.98291L14.0252 5.75787L13.3097 5.98291ZM9.87263 17.8307L9.22311 17.4557L9.22311 17.4557L9.87263 17.8307ZM8.11608 20.8732L8.7656 21.2482L8.7656 21.2482L8.11608 20.8732ZM1.83018 17.244L1.18066 16.869L1.18066 16.869L1.83018 17.244ZM3.58674 14.2016L4.23625 14.5766L4.23625 14.5766L3.58674 14.2016ZM6.23268 20.7119L5.523 20.9545L5.523 20.9545L6.23268 20.7119ZM5.98884 19.9986L6.69852 19.756L6.69852 19.756L5.98884 19.9986ZM3.65123 18.649L3.50649 17.9131L3.50649 17.9131L3.65123 18.649ZM2.91156 18.7944L3.0563 19.5303L3.0563 19.5303L2.91156 18.7944ZM5.24181 18.5932L5.61681 17.9437L5.61681 17.9437L5.24181 18.5932ZM1.27746 18.805L0.66231 19.234L1.27746 18.805ZM10.3798 16.9317L9.78066 16.4806L9.74466 16.5284L9.7167 16.5813L10.3798 16.9317ZM13.8486 17.8307L14.4981 17.4557L14.4981 17.4557L13.8486 17.8307ZM15.6051 20.8732L16.2546 20.4982L15.6051 20.8732ZM21.891 17.244L22.5405 16.869L22.5405 16.869L21.891 17.244ZM20.1345 14.2016L19.4849 14.5766L19.4849 14.5766L20.1345 14.2016ZM17.4885 20.7119L18.1982 20.9545L18.1982 20.9545L17.4885 20.7119ZM17.7324 19.9986L17.0227 19.756L17.0227 19.756L17.7324 19.9986ZM20.07 18.649L20.2147 17.9131L20.2147 17.9131L20.07 18.649ZM20.8096 18.7944L20.6649 19.5303L20.6649 19.5303L20.8096 18.7944ZM22.4437 18.805L23.0589 19.234L23.0589 19.234L22.4437 18.805ZM13.337 16.9234H12.587V17.109L12.6735 17.2731L13.337 16.9234ZM4.82723 12.547L4.15521 12.88L4.82723 12.547ZM10.4426 16.8483L10.5878 16.1125L10.4426 16.8483ZM13.337 16.8885L13.2126 16.1489L13.337 16.8885ZM19.1123 12.6656L18.4459 12.3215L18.4459 12.3215L19.1123 12.6656ZM4.48122 12.7985L5.04483 13.2933L4.48122 12.7985ZM4.74976 8.99975C4.74976 4.99569 7.9957 1.74976 11.9998 1.74976V0.249756C7.16727 0.249756 3.24976 4.16726 3.24976 8.99975H4.74976ZM11.9998 1.74976C16.0038 1.74976 19.2498 4.99569 19.2498 8.99975H20.7498C20.7498 4.16726 16.8322 0.249756 11.9998 0.249756V1.74976ZM9.3798 7.71607C10.3173 7.71607 11.1266 7.09375 11.4052 6.20795L9.97434 5.75787C9.88416 6.04456 9.6357 6.21607 9.3798 6.21607V7.71607ZM9.02038 8.94015C8.76904 8.75152 8.69671 8.45577 8.78526 8.17426C8.87327 7.89446 9.08973 7.71607 9.3798 7.71607V6.21607C7.27074 6.21607 6.50766 8.92979 8.11999 10.1399L9.02038 8.94015ZM9.78599 11.3558C10.0635 10.4737 9.76372 9.49804 9.02038 8.94015L8.11999 10.1399C8.34216 10.3066 8.44643 10.6154 8.35511 10.9057L9.78599 11.3558ZM10.7399 12.1217C10.4974 12.3038 10.2326 12.2804 10.0211 12.1217C9.80615 11.9604 9.68355 11.6815 9.78599 11.3558L8.35511 10.9057C8.04522 11.8909 8.44268 12.8125 9.12072 13.3214C9.80228 13.8329 10.8034 13.9495 11.6403 13.3214L10.7399 12.1217ZM13.2596 12.1217C12.5101 11.5592 11.4895 11.5592 10.7399 12.1217L11.6403 13.3214C11.8564 13.1593 12.1432 13.1593 12.3592 13.3214L13.2596 12.1217ZM14.2135 11.3558C14.316 11.6815 14.1934 11.9604 13.9784 12.1217C13.7669 12.2804 13.5022 12.3038 13.2596 12.1217L12.3592 13.3214C13.1961 13.9495 14.1972 13.8329 14.8788 13.3214C15.5568 12.8125 15.9543 11.8909 15.6444 10.9057L14.2135 11.3558ZM14.9791 8.94015C14.2358 9.49804 13.936 10.4737 14.2135 11.3558L15.6444 10.9057C15.5531 10.6154 15.6574 10.3066 15.8795 10.1399L14.9791 8.94015ZM14.6197 7.71607C14.9098 7.71607 15.1263 7.89446 15.2143 8.17426C15.3028 8.45577 15.2305 8.75152 14.9791 8.94015L15.8795 10.1399C17.4919 8.92979 16.7288 6.21607 14.6197 6.21607V7.71607ZM12.5943 6.20795C12.8729 7.09375 13.6822 7.71607 14.6197 7.71607V6.21607C14.3638 6.21607 14.1154 6.04456 14.0252 5.75787L12.5943 6.20795ZM14.0252 5.75787C13.3927 3.74705 10.6068 3.74705 9.97434 5.75787L11.4052 6.20795C11.5974 5.59702 12.4021 5.59702 12.5943 6.20795L14.0252 5.75787ZM9.22311 17.4557L7.46656 20.4982L8.7656 21.2482L10.5222 18.2057L9.22311 17.4557ZM2.4797 17.619L4.23625 14.5766L2.93722 13.8266L1.18066 16.869L2.4797 17.619ZM6.94236 20.4693L6.69852 19.756L5.27916 20.2412L5.523 20.9545L6.94236 20.4693ZM3.50649 17.9131L2.76681 18.0585L3.0563 19.5303L3.79598 19.3849L3.50649 17.9131ZM6.69852 19.756C6.56656 19.37 6.44617 19.0135 6.3099 18.7349C6.16451 18.4377 5.96176 18.1429 5.61681 17.9437L4.86681 19.2428C4.86808 19.2435 4.86859 19.2439 4.86946 19.2446C4.87049 19.2455 4.87446 19.249 4.88137 19.2574C4.89641 19.2756 4.92362 19.3146 4.96246 19.394C5.04751 19.5679 5.13455 19.8181 5.27916 20.2412L6.69852 19.756ZM3.79598 19.3849C4.23464 19.2986 4.4949 19.2488 4.688 19.2355C4.7762 19.2295 4.82355 19.2335 4.84685 19.2375C4.85755 19.2393 4.86258 19.2409 4.86387 19.2414C4.86495 19.2418 4.86553 19.242 4.86681 19.2428L5.61681 17.9437C5.27185 17.7446 4.91518 17.7164 4.58509 17.7391C4.27568 17.7603 3.90675 17.8343 3.50649 17.9131L3.79598 19.3849ZM1.18066 16.869C0.945359 17.2766 0.725436 17.6538 0.600655 17.964C0.482922 18.2567 0.334649 18.7642 0.66231 19.234L1.89262 18.3759C2.02961 18.5723 1.9099 18.7286 1.99229 18.5238C2.06764 18.3364 2.21941 18.0698 2.4797 17.619L1.18066 16.869ZM2.76681 18.0585C2.26049 18.1581 1.96457 18.2143 1.76791 18.2241C1.55476 18.2347 1.75148 18.1736 1.89262 18.3759L0.66231 19.234C0.994122 19.7098 1.52675 19.738 1.8424 19.7223C2.17456 19.7058 2.60034 19.62 3.0563 19.5303L2.76681 18.0585ZM7.46656 20.4982C7.20627 20.949 7.05128 21.2137 6.92673 21.3727C6.79053 21.5464 6.866 21.3646 7.1046 21.3851L6.97661 22.8796C7.54729 22.9285 7.91271 22.5463 8.10732 22.298C8.31359 22.0348 8.53029 21.6557 8.7656 21.2482L7.46656 20.4982ZM5.523 20.9545C5.67331 21.3942 5.81196 21.8058 5.96373 22.1017C6.10797 22.3829 6.39871 22.8301 6.97661 22.8796L7.1046 21.3851C7.35042 21.4061 7.39581 21.6071 7.29841 21.4172C7.20855 21.242 7.10927 20.9576 6.94236 20.4693L5.523 20.9545ZM4.23625 14.5766C4.66346 13.8366 4.85946 13.5045 5.04483 13.2933L3.91762 12.3037C3.60979 12.6543 3.3281 13.1495 2.93722 13.8266L4.23625 14.5766ZM10.5222 18.2057C10.7322 17.8419 10.907 17.5393 11.043 17.282L9.7167 16.5813C9.5969 16.8081 9.43841 17.0828 9.22311 17.4557L10.5222 18.2057ZM13.199 18.2057L14.9556 21.2482L16.2546 20.4982L14.4981 17.4557L13.199 18.2057ZM22.5405 16.869L20.784 13.8266L19.4849 14.5766L21.2415 17.619L22.5405 16.869ZM18.1982 20.9545L18.442 20.2412L17.0227 19.756L16.7788 20.4693L18.1982 20.9545ZM19.9252 19.3849L20.6649 19.5303L20.9544 18.0585L20.2147 17.9131L19.9252 19.3849ZM18.442 20.2412C18.5867 19.8181 18.6737 19.5679 18.7587 19.394C18.7976 19.3146 18.8248 19.2756 18.8398 19.2574C18.8467 19.249 18.8507 19.2455 18.8517 19.2446C18.8526 19.2439 18.8531 19.2435 18.8544 19.2428L18.1044 17.9437C17.7594 18.1429 17.5567 18.4377 17.4113 18.7349C17.275 19.0135 17.1546 19.37 17.0227 19.756L18.442 20.2412ZM20.2147 17.9131C19.8144 17.8343 19.4455 17.7603 19.1361 17.7391C18.806 17.7164 18.4493 17.7446 18.1044 17.9437L18.8544 19.2428C18.8557 19.242 18.8562 19.2418 18.8573 19.2414C18.8586 19.2409 18.8636 19.2393 18.8743 19.2375C18.8976 19.2335 18.945 19.2295 19.0332 19.2355C19.2263 19.2488 19.4866 19.2986 19.9252 19.3849L20.2147 17.9131ZM21.2415 17.619C21.5018 18.0698 21.6536 18.3364 21.7289 18.5238C21.8113 18.7286 21.6916 18.5723 21.8286 18.3759L23.0589 19.234C23.3865 18.7642 23.2383 18.2567 23.1205 17.964C22.9958 17.6538 22.7758 17.2766 22.5405 16.869L21.2415 17.619ZM20.6649 19.5303C21.1209 19.62 21.5466 19.7058 21.8788 19.7223C22.1945 19.738 22.7271 19.7098 23.0589 19.234L21.8286 18.3759C21.9697 18.1736 22.1664 18.2347 21.9533 18.2241C21.7566 18.2143 21.4607 18.1581 20.9544 18.0585L20.6649 19.5303ZM14.9556 21.2482C15.1909 21.6557 15.4076 22.0348 15.6139 22.298C15.8085 22.5463 16.1739 22.9285 16.7446 22.8796L16.6166 21.3851C16.8552 21.3646 16.9307 21.5464 16.7945 21.3727C16.6699 21.2137 16.5149 20.949 16.2546 20.4982L14.9556 21.2482ZM16.7788 20.4693C16.6119 20.9576 16.5126 21.242 16.4228 21.4172C16.3254 21.6071 16.3708 21.4061 16.6166 21.3851L16.7446 22.8796C17.3225 22.8301 17.6132 22.3829 17.7575 22.1017C17.9092 21.8058 18.0479 21.3942 18.1982 20.9545L16.7788 20.4693ZM14.4981 17.4557C14.2803 17.0785 14.1207 16.8018 14.0005 16.5738L12.6735 17.2731C12.8102 17.5325 12.9867 17.8379 13.199 18.2057L14.4981 17.4557ZM5.49925 12.214C5.01969 11.2462 4.74976 10.1556 4.74976 8.99975H3.24976C3.24976 10.3917 3.57535 11.7098 4.15521 12.88L5.49925 12.214ZM11.9998 16.2498C11.5159 16.2498 11.0439 16.2025 10.5878 16.1125L10.2974 17.5841C10.8487 17.6929 11.4179 17.7497 11.9998 17.7497V16.2498ZM10.5878 16.1125C8.35266 15.6715 6.48394 14.2012 5.49925 12.214L4.15521 12.88C5.34238 15.2759 7.59517 17.051 10.2974 17.5841L10.5878 16.1125ZM10.979 17.3828L11.0418 17.2994L9.84343 16.3972L9.78066 16.4806L10.979 17.3828ZM13.2126 16.1489C12.8187 16.2152 12.4135 16.2498 11.9998 16.2498V17.7497C12.4973 17.7497 12.9857 17.7081 13.4615 17.6281L13.2126 16.1489ZM14.087 16.9234V16.8885H12.587V16.9234H14.087ZM19.2498 8.99975C19.2498 10.1985 18.9594 11.3272 18.4459 12.3215L19.7787 13.0098C20.3995 11.8077 20.7498 10.4435 20.7498 8.99975H19.2498ZM18.4459 12.3215C17.4176 14.3125 15.4947 15.7648 13.2126 16.1489L13.4615 17.6281C16.2209 17.1637 18.5392 15.4098 19.7787 13.0098L18.4459 12.3215ZM20.784 13.8266C20.3323 13.0442 20.0249 12.496 19.6273 12.1204L18.5973 13.2109C18.7952 13.3978 18.979 13.7003 19.4849 14.5766L20.784 13.8266ZM5.04483 13.2933C5.05108 13.2862 5.07873 13.2595 5.16051 13.2189L4.49394 11.8752C4.31775 11.9626 4.10136 12.0944 3.91762 12.3037L5.04483 13.2933Z" fill="black"/>
</svg>
