<svg width="24" height="24" viewBox="0 0 24 24" fill="none" xmlns="http://www.w3.org/2000/svg">
<g clip-path="url(#clip0_0_1)">
<path d="M11.0172 7.73718L11.7326 7.96222L11.0172 7.73718ZM9.42751 10.405L9.8777 9.80515L9.8777 9.80515L9.42751 10.405ZM9.80279 11.5981L10.5182 11.8231L9.80279 11.5981ZM11.3925 12.7912L10.9423 12.1913L10.9423 12.1913L11.3925 12.7912ZM12.6069 12.7912L13.0571 12.1913L13.0571 12.1913L12.6069 12.7912ZM14.1966 11.5981L13.4812 11.8231L14.1966 11.5981ZM14.5719 10.405L14.1217 9.80515L14.1217 9.80515L14.5719 10.405ZM12.9822 7.73718L13.6976 7.51214L13.6976 7.51214L12.9822 7.73718ZM5.36156 13.942L6.0573 13.662L6.0573 13.662L5.36156 13.942ZM9.16737 17.1664L8.86763 17.8539L9.16737 17.1664ZM6.43443 15.5802L6.96924 15.0544L6.43443 15.5802ZM18.638 13.942L17.9423 13.662L18.638 13.942ZM14.8322 17.1664L15.132 17.8539L14.8322 17.1664ZM17.5652 15.5802L18.1 16.106L18.1 16.106L17.5652 15.5802ZM18.7551 5.45473L18.0418 5.68649L18.7551 5.45473ZM15.5449 2.24453L15.3131 2.95783L15.5449 2.24453ZM5.24452 5.45473L5.95781 5.68649L5.24452 5.45473ZM8.45471 2.24453L8.68648 2.95783L8.45471 2.24453ZM2.33234 11.607L1.87675 12.2028L1.8874 12.211L1.89833 12.2187L2.33234 11.607ZM21.6674 11.607L22.1014 12.2187L22.1123 12.211L22.123 12.2028L21.6674 11.607ZM11.2498 21.9998C11.2498 22.414 11.5856 22.7498 11.9998 22.7498C12.414 22.7498 12.7498 22.414 12.7498 21.9998H11.2498ZM15.9998 22.7498C16.414 22.7498 16.7498 22.414 16.7498 21.9998C16.7498 21.5856 16.414 21.2498 15.9998 21.2498V22.7498ZM7.9998 21.2498C7.58559 21.2498 7.2498 21.5856 7.2498 21.9998C7.2498 22.414 7.58559 22.7498 7.9998 22.7498V21.2498ZM5.2405 13.5971L5.95874 13.3812L5.2405 13.5971ZM18.8861 5.99981L18.1465 6.12441L18.8861 5.99981ZM19.217 13.3457L18.783 12.734L18.783 12.734L19.217 13.3457ZM4.78831 13.3497L4.35431 13.9613L4.35431 13.9613L4.78831 13.3497ZM10.0347 9.22455C10.8231 9.22455 11.5001 8.70146 11.7326 7.96222L10.3018 7.51214C10.2577 7.65227 10.1414 7.72455 10.0347 7.72455V9.22455ZM9.8777 9.80515C9.7613 9.71779 9.72177 9.58291 9.76767 9.43695C9.79041 9.36468 9.83015 9.31009 9.87198 9.27666C9.90867 9.24735 9.95789 9.22455 10.0347 9.22455V7.72455C8.25924 7.72455 7.63486 9.99733 8.97731 11.0049L9.8777 9.80515ZM10.5182 11.8231C10.7496 11.0875 10.5004 10.2725 9.8777 9.80515L8.97731 11.0049C9.0788 11.081 9.13256 11.2293 9.08734 11.373L10.5182 11.8231ZM10.9423 12.1913C10.8752 12.2417 10.822 12.2509 10.7823 12.2497C10.7363 12.2483 10.6812 12.231 10.6283 12.1913C10.5249 12.1138 10.4673 11.9849 10.5182 11.8231L9.08734 11.373C8.829 12.1944 9.16145 12.9659 9.72786 13.391C10.2978 13.8188 11.1407 13.9179 11.8427 13.391L10.9423 12.1913ZM13.0571 12.1913C12.4283 11.7194 11.5711 11.7194 10.9423 12.1913L11.8427 13.391C11.938 13.3195 12.0614 13.3195 12.1567 13.391L13.0571 12.1913ZM13.4812 11.8231C13.5321 11.9849 13.4745 12.1138 13.3711 12.1913C13.3182 12.231 13.263 12.2483 13.217 12.2497C13.1774 12.2509 13.1242 12.2417 13.0571 12.1913L12.1567 13.391C12.8587 13.9179 13.7016 13.8188 14.2715 13.391C14.8379 12.9659 15.1704 12.1944 14.912 11.373L13.4812 11.8231ZM14.1217 9.80515C13.499 10.2725 13.2498 11.0875 13.4812 11.8231L14.912 11.373C14.8668 11.2293 14.9206 11.081 15.0221 11.0049L14.1217 9.80515ZM13.9647 9.22455C14.0415 9.22455 14.0907 9.24735 14.1274 9.27666C14.1692 9.31009 14.209 9.36468 14.2317 9.43695C14.2776 9.58291 14.2381 9.71779 14.1217 9.80515L15.0221 11.0049C16.3645 9.99733 15.7401 7.72455 13.9647 7.72455V9.22455ZM12.2667 7.96222C12.4993 8.70146 13.1763 9.22455 13.9647 9.22455V7.72455C13.8579 7.72455 13.7417 7.65227 13.6976 7.51214L12.2667 7.96222ZM13.6976 7.51214C13.1682 5.82904 10.8312 5.82904 10.3018 7.51214L11.7326 7.96222C11.8217 7.67901 12.1777 7.67901 12.2667 7.96222L13.6976 7.51214ZM18.2498 8.99981V10.3002H19.7498V8.99981H18.2498ZM5.7498 10.3002V8.99981H4.2498V10.3002H5.7498ZM14.5325 16.4789C14.0063 16.7083 13.4998 16.905 13.0501 17.0432C12.5894 17.1847 12.2358 17.2498 11.9998 17.2498V18.7498C12.458 18.7498 12.9793 18.6341 13.4907 18.477C14.013 18.3165 14.5756 18.0964 15.132 17.8539L14.5325 16.4789ZM11.9998 17.2498C11.7638 17.2498 11.4102 17.1847 10.9495 17.0432C10.4998 16.905 9.9933 16.7083 9.46711 16.4789L8.86763 17.8539C9.42398 18.0964 9.98655 18.3165 10.5089 18.477C11.0202 18.6341 11.5416 18.7498 11.9998 18.7498V17.2498ZM9.46711 16.4789C8.07065 15.87 7.52871 15.6234 6.96924 15.0544L5.89963 16.106C6.69843 16.9185 7.52569 17.2688 8.86763 17.8539L9.46711 16.4789ZM4.66583 14.2221C4.92131 14.8568 5.42001 15.6182 5.89963 16.106L6.96924 15.0544C6.62825 14.7076 6.23894 14.1131 6.0573 13.662L4.66583 14.2221ZM15.132 17.8539C16.4739 17.2688 17.3012 16.9185 18.1 16.106L17.0304 15.0544C16.4709 15.6234 15.9289 15.87 14.5325 16.4789L15.132 17.8539ZM17.9423 13.662C17.7607 14.1131 17.3713 14.7076 17.0304 15.0544L18.1 16.106C18.5796 15.6182 19.0783 14.8568 19.3338 14.2221L17.9423 13.662ZM11.9998 2.74982C13.9195 2.74982 14.7014 2.75907 15.3131 2.95783L15.7766 1.53124C14.882 1.24056 13.8027 1.24982 11.9998 1.24982V2.74982ZM19.4684 5.22297C18.8996 3.47245 17.5272 2.10002 15.7766 1.53124L15.3131 2.95783C16.607 3.37823 17.6214 4.39263 18.0418 5.68649L19.4684 5.22297ZM11.9998 1.24982C10.1969 1.24982 9.11757 1.24056 8.22295 1.53124L8.68648 2.95783C9.29819 2.75907 10.0801 2.74982 11.9998 2.74982V1.24982ZM5.95781 5.68649C6.37821 4.39263 7.39262 3.37823 8.68648 2.95783L8.22295 1.53124C6.47243 2.10002 5.1 3.47245 4.53123 5.22297L5.95781 5.68649ZM5.22231 12.738L2.76634 10.9954L1.89833 12.2187L4.35431 13.9613L5.22231 12.738ZM2.78792 11.0113C0.98385 9.63169 1.95946 6.74981 4.23057 6.74981V5.24982C0.52503 5.24982 -1.06677 9.95189 1.87675 12.2028L2.78792 11.0113ZM19.651 13.9573L22.1014 12.2187L21.2334 10.9954L18.783 12.734L19.651 13.9573ZM22.123 12.2028C25.0665 9.95189 23.4747 5.24982 19.7692 5.24982V6.74981C22.0403 6.74981 23.0159 9.63169 21.2118 11.0113L22.123 12.2028ZM11.2498 17.9998V21.9998H12.7498V17.9998H11.2498ZM15.9998 21.2498H7.9998V22.7498H15.9998V21.2498ZM5.7498 8.99981C5.7498 7.52796 5.75242 6.72201 5.85309 6.12441L4.37394 5.87522C4.24718 6.62761 4.2498 7.58834 4.2498 8.99981H5.7498ZM5.85309 6.12441C5.88093 5.95916 5.91551 5.81667 5.95781 5.68649L4.53123 5.22297C4.46318 5.43239 4.4123 5.64753 4.37394 5.87522L5.85309 6.12441ZM4.2498 10.3002C4.2498 11.8533 4.2425 12.8825 4.52226 13.813L5.95874 13.3812C5.7571 12.7104 5.7498 11.9402 5.7498 10.3002H4.2498ZM4.52226 13.813C4.56382 13.9513 4.61144 14.0871 4.66583 14.2221L6.0573 13.662C6.0198 13.5688 5.98721 13.4758 5.95874 13.3812L4.52226 13.813ZM18.2498 10.3002C18.2498 11.9473 18.2424 12.7172 18.0384 13.3894L19.4737 13.825C19.7572 12.8909 19.7498 11.8598 19.7498 10.3002H18.2498ZM18.0384 13.3894C18.0105 13.4812 17.9787 13.5715 17.9423 13.662L19.3338 14.2221C19.3866 14.091 19.433 13.9591 19.4737 13.825L18.0384 13.3894ZM19.7498 8.99981C19.7498 7.58834 19.7524 6.62761 19.6257 5.87522L18.1465 6.12441C18.2472 6.72201 18.2498 7.52796 18.2498 8.99981H19.7498ZM19.6257 5.87522C19.5873 5.64753 19.5364 5.43239 19.4684 5.22297L18.0418 5.68649C18.0841 5.81667 18.1187 5.95916 18.1465 6.12441L19.6257 5.87522ZM18.783 12.734C18.6798 12.8072 18.5695 12.8698 18.4536 12.9209L19.0584 14.2935C19.2668 14.2017 19.4653 14.0891 19.651 13.9573L18.783 12.734ZM4.35431 13.9613C4.54243 14.0948 4.74548 14.2059 4.95933 14.2924L5.52167 12.9018C5.41586 12.859 5.3154 12.804 5.22231 12.738L4.35431 13.9613ZM4.23057 6.74981H5.11352V5.24982H4.23057V6.74981ZM19.7692 5.24982H18.8861V6.74981H19.7692V5.24982Z" fill="black"/>
</g>
<defs>
<clipPath id="clip0_0_1">
<rect width="24" height="24" fill="black" transform="translate(-0.000244141 -0.000183105)"/>
</clipPath>
</defs>
</svg>
