<svg width="24" height="24" viewBox="0 0 24 24" fill="none" xmlns="http://www.w3.org/2000/svg">
<g clip-path="url(#clip0_0_1)">
<path d="M9.87202 17.8307L9.2225 17.4557L9.2225 17.4557L9.87202 17.8307ZM8.11547 20.8732L8.76499 21.2482L8.76499 21.2482L8.11547 20.8732ZM1.82957 17.244L1.18005 16.869L1.18005 16.869L1.82957 17.244ZM3.58613 14.2016L4.23564 14.5766L4.23564 14.5766L3.58613 14.2016ZM6.23207 20.7119L5.52239 20.9545L5.52239 20.9545L6.23207 20.7119ZM5.98823 19.9986L6.69791 19.756L6.69791 19.756L5.98823 19.9986ZM3.65062 18.649L3.50588 17.9131L3.50588 17.9131L3.65062 18.649ZM2.91094 18.7944L3.05569 19.5303L3.05569 19.5303L2.91094 18.7944ZM5.2412 18.5932L5.6162 17.9437L5.6162 17.9437L5.2412 18.5932ZM1.27685 18.805L0.6617 19.234L1.27685 18.805ZM10.3792 16.9317L9.78005 16.4806L9.74405 16.5284L9.71609 16.5813L10.3792 16.9317ZM13.848 17.8307L14.4975 17.4557L14.4975 17.4557L13.848 17.8307ZM15.6045 20.8732L16.254 20.4982L15.6045 20.8732ZM21.8904 17.244L22.5399 16.869L22.5399 16.869L21.8904 17.244ZM20.1339 14.2016L19.4843 14.5766L19.4843 14.5766L20.1339 14.2016ZM17.4879 20.7119L18.1976 20.9545L18.1976 20.9545L17.4879 20.7119ZM17.7318 19.9986L17.0221 19.756L17.0221 19.756L17.7318 19.9986ZM20.0694 18.649L20.2141 17.9131L20.2141 17.9131L20.0694 18.649ZM20.809 18.7944L20.6643 19.5303L20.6643 19.5303L20.809 18.7944ZM22.4431 18.805L23.0583 19.234L23.0583 19.234L22.4431 18.805ZM13.3364 16.9234H12.5864V17.109L12.6729 17.2731L13.3364 16.9234ZM4.82662 12.547L4.1546 12.88L4.82662 12.547ZM10.442 16.8483L10.5872 16.1125L10.442 16.8483ZM13.3364 16.8885L13.2119 16.1489L13.3364 16.8885ZM19.1117 12.6656L18.4453 12.3215L18.4453 12.3215L19.1117 12.6656ZM4.48061 12.7985L5.04422 13.2933L4.48061 12.7985ZM4.74915 8.99975C4.74915 4.99569 7.99509 1.74976 11.9991 1.74976V0.249756C7.16666 0.249756 3.24915 4.16726 3.24915 8.99975H4.74915ZM11.9991 1.74976C16.0032 1.74976 19.2491 4.99569 19.2491 8.99975H20.7491C20.7491 4.16726 16.8316 0.249756 11.9991 0.249756V1.74976ZM9.2225 17.4557L7.46595 20.4982L8.76499 21.2482L10.5215 18.2057L9.2225 17.4557ZM2.47909 17.619L4.23564 14.5766L2.93661 13.8266L1.18005 16.869L2.47909 17.619ZM6.94175 20.4693L6.69791 19.756L5.27855 20.2412L5.52239 20.9545L6.94175 20.4693ZM3.50588 17.9131L2.7662 18.0585L3.05569 19.5303L3.79537 19.3849L3.50588 17.9131ZM6.69791 19.756C6.56595 19.37 6.44556 19.0135 6.30929 18.7349C6.1639 18.4377 5.96115 18.1429 5.6162 17.9437L4.8662 19.2428C4.86747 19.2435 4.86798 19.2439 4.86885 19.2446C4.86988 19.2455 4.87385 19.249 4.88076 19.2574C4.8958 19.2756 4.92301 19.3146 4.96185 19.394C5.0469 19.5679 5.13394 19.8181 5.27855 20.2412L6.69791 19.756ZM3.79536 19.3849C4.23403 19.2986 4.49429 19.2488 4.68739 19.2355C4.77559 19.2295 4.82294 19.2335 4.84624 19.2375C4.85694 19.2393 4.86197 19.2409 4.86326 19.2414C4.86434 19.2418 4.86492 19.242 4.8662 19.2428L5.6162 17.9437C5.27124 17.7446 4.91457 17.7164 4.58448 17.7391C4.27507 17.7603 3.90614 17.8343 3.50588 17.9131L3.79536 19.3849ZM1.18005 16.869C0.944749 17.2766 0.724826 17.6538 0.600045 17.964C0.482312 18.2567 0.334039 18.7642 0.6617 19.234L1.89201 18.3759C2.029 18.5723 1.90929 18.7286 1.99168 18.5238C2.06703 18.3364 2.2188 18.0698 2.47909 17.619L1.18005 16.869ZM2.7662 18.0585C2.25988 18.1581 1.96396 18.2143 1.7673 18.2241C1.55415 18.2347 1.75087 18.1736 1.89201 18.3759L0.6617 19.234C0.993512 19.7098 1.52614 19.738 1.84179 19.7223C2.17395 19.7058 2.59973 19.62 3.05569 19.5303L2.7662 18.0585ZM7.46595 20.4982C7.20566 20.949 7.05067 21.2137 6.92612 21.3727C6.78992 21.5464 6.86539 21.3646 7.10399 21.3851L6.976 22.8796C7.54668 22.9285 7.9121 22.5463 8.10671 22.298C8.31298 22.0348 8.52968 21.6557 8.76499 21.2482L7.46595 20.4982ZM5.52239 20.9545C5.6727 21.3942 5.81135 21.8058 5.96312 22.1017C6.10736 22.3829 6.3981 22.8301 6.976 22.8796L7.10399 21.3851C7.34981 21.4061 7.3952 21.6071 7.2978 21.4172C7.20794 21.242 7.10866 20.9576 6.94175 20.4693L5.52239 20.9545ZM4.23564 14.5766C4.66285 13.8366 4.85885 13.5045 5.04422 13.2933L3.91701 12.3037C3.60918 12.6543 3.32749 13.1495 2.93661 13.8266L4.23564 14.5766ZM10.5215 18.2057C10.7316 17.8419 10.9064 17.5393 11.0424 17.282L9.71609 16.5813C9.59629 16.8081 9.4378 17.0828 9.2225 17.4557L10.5215 18.2057ZM13.1984 18.2057L14.955 21.2482L16.254 20.4982L14.4975 17.4557L13.1984 18.2057ZM22.5399 16.869L20.7834 13.8266L19.4843 14.5766L21.2409 17.619L22.5399 16.869ZM18.1976 20.9545L18.4414 20.2412L17.0221 19.756L16.7782 20.4693L18.1976 20.9545ZM19.9246 19.3849L20.6643 19.5303L20.9538 18.0585L20.2141 17.9131L19.9246 19.3849ZM18.4414 20.2412C18.586 19.8181 18.6731 19.5679 18.7581 19.394C18.797 19.3146 18.8242 19.2756 18.8392 19.2574C18.8461 19.249 18.8501 19.2455 18.8511 19.2446C18.852 19.2439 18.8525 19.2435 18.8538 19.2428L18.1038 17.9437C17.7588 18.1429 17.5561 18.4377 17.4107 18.7349C17.2744 19.0135 17.154 19.37 17.0221 19.756L18.4414 20.2412ZM20.2141 17.9131C19.8138 17.8343 19.4449 17.7603 19.1355 17.7391C18.8054 17.7164 18.4487 17.7446 18.1038 17.9437L18.8538 19.2428C18.8551 19.242 18.8556 19.2418 18.8567 19.2414C18.858 19.2409 18.863 19.2393 18.8737 19.2375C18.897 19.2335 18.9444 19.2295 19.0326 19.2355C19.2257 19.2488 19.4859 19.2986 19.9246 19.3849L20.2141 17.9131ZM21.2409 17.619C21.5012 18.0698 21.6529 18.3364 21.7283 18.5238C21.8107 18.7286 21.691 18.5723 21.828 18.3759L23.0583 19.234C23.3859 18.7642 23.2377 18.2567 23.1199 17.964C22.9952 17.6538 22.7752 17.2766 22.5399 16.869L21.2409 17.619ZM20.6643 19.5303C21.1202 19.62 21.546 19.7058 21.8782 19.7223C22.1938 19.738 22.7265 19.7098 23.0583 19.234L21.828 18.3759C21.9691 18.1736 22.1658 18.2347 21.9527 18.2241C21.756 18.2143 21.4601 18.1581 20.9538 18.0585L20.6643 19.5303ZM14.955 21.2482C15.1903 21.6557 15.407 22.0348 15.6133 22.298C15.8079 22.5463 16.1733 22.9285 16.744 22.8796L16.616 21.3851C16.8546 21.3646 16.9301 21.5464 16.7939 21.3727C16.6693 21.2137 16.5143 20.949 16.254 20.4982L14.955 21.2482ZM16.7782 20.4693C16.6113 20.9576 16.512 21.242 16.4222 21.4172C16.3248 21.6071 16.3702 21.4061 16.616 21.3851L16.744 22.8796C17.3219 22.8301 17.6126 22.3829 17.7569 22.1017C17.9086 21.8058 18.0473 21.3942 18.1976 20.9545L16.7782 20.4693ZM14.4975 17.4557C14.2797 17.0785 14.1201 16.8018 13.9999 16.5738L12.6729 17.2731C12.8096 17.5325 12.9861 17.8379 13.1984 18.2057L14.4975 17.4557ZM5.49864 12.214C5.01908 11.2462 4.74915 10.1556 4.74915 8.99975H3.24915C3.24915 10.3917 3.57474 11.7098 4.1546 12.88L5.49864 12.214ZM11.9991 16.2498C11.5153 16.2498 11.0433 16.2025 10.5872 16.1125L10.2968 17.5841C10.8481 17.6929 11.4173 17.7497 11.9991 17.7497V16.2498ZM10.5872 16.1125C8.35205 15.6715 6.48332 14.2012 5.49864 12.214L4.1546 12.88C5.34177 15.2759 7.59456 17.051 10.2968 17.5841L10.5872 16.1125ZM10.9784 17.3828L11.0412 17.2994L9.84282 16.3972L9.78005 16.4806L10.9784 17.3828ZM13.2119 16.1489C12.8181 16.2152 12.4129 16.2498 11.9991 16.2498V17.7497C12.4967 17.7497 12.9851 17.7081 13.4609 17.6281L13.2119 16.1489ZM14.0864 16.9234V16.8885H12.5864V16.9234H14.0864ZM19.2491 8.99975C19.2491 10.1985 18.9588 11.3272 18.4453 12.3215L19.7781 13.0098C20.3989 11.8077 20.7491 10.4435 20.7491 8.99975H19.2491ZM18.4453 12.3215C17.417 14.3125 15.4941 15.7648 13.2119 16.1489L13.4609 17.6281C16.2202 17.1637 18.5386 15.4098 19.7781 13.0098L18.4453 12.3215ZM20.7834 13.8266C20.3317 13.0442 20.0243 12.496 19.6267 12.1204L18.5967 13.2109C18.7946 13.3978 18.9784 13.7003 19.4843 14.5766L20.7834 13.8266ZM5.04422 13.2933C5.05047 13.2862 5.07812 13.2595 5.1599 13.2189L4.49333 11.8752C4.31714 11.9626 4.10075 12.0944 3.91701 12.3037L5.04422 13.2933Z" fill="black"/>
</g>
<defs>
<clipPath id="clip0_0_1">
<rect width="24" height="24" fill="black" transform="translate(-0.00012207)"/>
</clipPath>
</defs>
</svg>
