<svg width="24" height="24" viewBox="0 0 24 24" fill="none" xmlns="http://www.w3.org/2000/svg">
<g clip-path="url(#clip0_0_1)">
<path d="M10.6899 5.98291L9.97442 5.75787L9.97442 5.75787L10.6899 5.98291ZM8.57027 9.54L9.02047 8.94015L8.57027 9.54ZM9.07064 11.1308L9.78608 11.3558L9.07064 11.1308ZM11.1902 12.7216L10.74 12.1217L10.74 12.1217L11.1902 12.7216ZM12.8095 12.7216L13.2597 12.1217L12.8095 12.7216ZM14.9291 11.1308L14.2136 11.3558L14.2136 11.3558L14.9291 11.1308ZM15.4294 9.54L14.9792 8.94015L15.4294 9.54ZM13.3098 5.98291L14.0253 5.75787L14.0253 5.75787L13.3098 5.98291ZM15.1699 21.6441L14.6897 22.2202L14.6897 22.2202L15.1699 21.6441ZM14.2311 20.8616L14.7113 20.2855L14.7113 20.2855L14.2311 20.8616ZM9.76856 20.8616L9.28836 20.2855L9.28836 20.2855L9.76856 20.8616ZM8.82977 21.6441L9.30997 22.2202L9.30997 22.2202L8.82977 21.6441ZM17.9995 14.3123L17.2496 14.2996L17.2495 14.3067L17.2495 14.3139L17.9995 14.3123ZM17.9998 14.2914L17.4375 13.7951L17.9998 14.2914ZM6.00025 14.2919L6.56251 13.7955L6.00025 14.2919ZM9.37988 7.71607C10.3174 7.71607 11.1267 7.09375 11.4053 6.20795L9.97442 5.75787C9.88425 6.04456 9.63578 6.21607 9.37988 6.21607V7.71607ZM9.02047 8.94015C8.76913 8.75152 8.6968 8.45577 8.78534 8.17426C8.87335 7.89446 9.08982 7.71607 9.37988 7.71607V6.21607C7.27082 6.21607 6.50775 8.92979 8.12007 10.1399L9.02047 8.94015ZM9.78608 11.3558C10.0636 10.4737 9.76381 9.49804 9.02047 8.94015L8.12007 10.1399C8.34225 10.3066 8.44651 10.6154 8.35519 10.9057L9.78608 11.3558ZM10.74 12.1217C10.4975 12.3038 10.2327 12.2804 10.0212 12.1217C9.80624 11.9604 9.68364 11.6815 9.78608 11.3558L8.35519 10.9057C8.04531 11.8909 8.44277 12.8125 9.12081 13.3214C9.80236 13.8329 10.8035 13.9495 11.6404 13.3214L10.74 12.1217ZM13.2597 12.1217C12.5101 11.5592 11.4895 11.5592 10.74 12.1217L11.6404 13.3214C11.8564 13.1593 12.1432 13.1593 12.3593 13.3214L13.2597 12.1217ZM14.2136 11.3558C14.316 11.6815 14.1935 11.9604 13.9785 12.1217C13.767 12.2804 13.5022 12.3038 13.2597 12.1217L12.3593 13.3214C13.1962 13.9495 14.1973 13.8329 14.8789 13.3214C15.5569 12.8125 15.9544 11.8909 15.6445 10.9057L14.2136 11.3558ZM14.9792 8.94015C14.2359 9.49804 13.9361 10.4737 14.2136 11.3558L15.6445 10.9057C15.5532 10.6154 15.6574 10.3066 15.8796 10.1399L14.9792 8.94015ZM14.6198 7.71607C14.9099 7.71607 15.1263 7.89446 15.2143 8.17426C15.3029 8.45577 15.2306 8.75152 14.9792 8.94015L15.8796 10.1399C17.4919 8.92979 16.7289 6.21607 14.6198 6.21607V7.71607ZM12.5944 6.20795C12.873 7.09375 13.6823 7.71607 14.6198 7.71607V6.21607C14.3639 6.21607 14.1154 6.04456 14.0253 5.75787L12.5944 6.20795ZM14.0253 5.75787C13.3928 3.74705 10.6069 3.74705 9.97442 5.75787L11.4053 6.20795C11.5975 5.59702 12.4022 5.59702 12.5944 6.20795L14.0253 5.75787ZM4.74985 8.99975C4.74985 4.99569 7.99578 1.74976 11.9998 1.74976V0.249756C7.16735 0.249756 3.24985 4.16726 3.24985 8.99975H4.74985ZM11.9998 1.74976C16.0039 1.74976 19.2498 4.99569 19.2498 8.99975H20.7498C20.7498 4.16726 16.8323 0.249756 11.9998 0.249756V1.74976ZM17.2498 14.8343V20.3784H18.7498V14.8343H17.2498ZM6.74985 20.3784V14.8343H5.24985V20.3784H6.74985ZM15.6501 21.068L14.7113 20.2855L13.7509 21.4378L14.6897 22.2202L15.6501 21.068ZM9.28836 20.2855L8.34958 21.068L9.30997 22.2202L10.2488 21.4378L9.28836 20.2855ZM14.7113 20.2855C14.1937 19.854 13.7531 19.4851 13.3593 19.2322C12.9475 18.9677 12.514 18.7804 11.9998 18.7804V20.2804C12.1198 20.2804 12.2697 20.3151 12.5487 20.4943C12.8458 20.6851 13.2039 20.9818 13.7509 21.4378L14.7113 20.2855ZM10.2488 21.4378C10.7958 20.9818 11.1539 20.6851 11.451 20.4943C11.73 20.3151 11.8798 20.2804 11.9998 20.2804V18.7804C11.4857 18.7804 11.0522 18.9677 10.6404 19.2322C10.2465 19.4851 9.80603 19.854 9.28836 20.2855L10.2488 21.4378ZM5.24985 20.3784C5.24985 21.1344 5.24781 21.789 5.3204 22.2765C5.39165 22.7551 5.57426 23.356 6.19262 23.6326L6.80503 22.2633C6.92441 22.3167 6.85753 22.4149 6.80404 22.0556C6.75188 21.7053 6.74985 21.1867 6.74985 20.3784H5.24985ZM8.34958 21.068C7.71965 21.5931 7.31073 21.9314 6.99995 22.1229C6.6782 22.3212 6.69509 22.2141 6.80503 22.2633L6.19262 23.6326C6.80155 23.9049 7.37325 23.6549 7.7869 23.3999C8.21152 23.1383 8.71859 22.7132 9.30997 22.2202L8.34958 21.068ZM17.2498 20.3784C17.2498 21.1867 17.2478 21.7053 17.1956 22.0556C17.1422 22.4149 17.0753 22.3167 17.1947 22.2633L17.8071 23.6326C18.4254 23.356 18.608 22.7551 18.6793 22.2765C18.7519 21.789 18.7498 21.1344 18.7498 20.3784H17.2498ZM14.6897 22.2202C15.2811 22.7132 15.7882 23.1383 16.2128 23.3999C16.6264 23.6549 17.1981 23.9049 17.8071 23.6326L17.1947 22.2633C17.3046 22.2141 17.3215 22.3212 16.9997 22.1229C16.689 21.9314 16.28 21.5931 15.6501 21.068L14.6897 22.2202ZM18.7498 14.8343C18.7498 14.6498 18.7498 14.4753 18.7495 14.3107L17.2495 14.3139C17.2498 14.4767 17.2498 14.6495 17.2498 14.8343H18.7498ZM19.2498 8.99975C19.2498 10.8389 18.566 12.5166 17.4375 13.7951L18.5621 14.7877C19.9232 13.2457 20.7498 11.2183 20.7498 8.99975H19.2498ZM17.4375 13.7951C16.108 15.3015 14.1651 16.2498 11.9998 16.2498V17.7497C14.6133 17.7497 16.9599 16.603 18.5621 14.7877L17.4375 13.7951ZM18.7494 14.325L18.7497 14.3041L17.2499 14.2787L17.2496 14.2996L18.7494 14.325ZM6.74985 14.8343C6.74985 14.6418 6.74985 14.4623 6.75024 14.2936L5.25025 14.2901C5.24985 14.4608 5.24985 14.6422 5.24985 14.8343H6.74985ZM11.9998 16.2498C9.83477 16.2498 7.89206 15.3017 6.56251 13.7955L5.43798 14.7882C7.04019 16.6032 9.38659 17.7497 11.9998 17.7497V16.2498ZM6.56251 13.7955C5.43386 12.517 4.74985 10.8391 4.74985 8.99975H3.24985C3.24985 11.2186 4.0767 13.2461 5.43798 14.7882L6.56251 13.7955Z" fill="black"/>
</g>
<defs>
<clipPath id="clip0_0_1">
<rect width="24" height="24" fill="black" transform="translate(-0.000244141)"/>
</clipPath>
</defs>
</svg>
