<svg width="24" height="24" viewBox="0 0 24 24" fill="none" xmlns="http://www.w3.org/2000/svg">
<g clip-path="url(#clip0_0_1)">
<path d="M15.17 21.6441L14.6898 22.2202L14.6898 22.2202L15.17 21.6441ZM14.2312 20.8616L14.7114 20.2855L14.7114 20.2855L14.2312 20.8616ZM9.76867 20.8616L9.28847 20.2855L9.28847 20.2855L9.76867 20.8616ZM8.82988 21.6441L9.31008 22.2202L9.31008 22.2202L8.82988 21.6441ZM17.9996 14.3123L17.2497 14.2996L17.2496 14.3067L17.2496 14.3139L17.9996 14.3123ZM17.9999 14.2914L17.4376 13.7951L17.9999 14.2914ZM6.00035 14.2919L6.56262 13.7955L6.00035 14.2919ZM4.74995 8.99975C4.74995 4.99569 7.99589 1.74976 12 1.74976V0.249756C7.16746 0.249756 3.24995 4.16726 3.24995 8.99975H4.74995ZM12 1.74976C16.004 1.74976 19.2499 4.99569 19.2499 8.99975H20.7499C20.7499 4.16726 16.8324 0.249756 12 0.249756V1.74976ZM17.2499 14.8343V20.3784H18.7499V14.8343H17.2499ZM6.74995 20.3784V14.8343H5.24995V20.3784H6.74995ZM15.6502 21.068L14.7114 20.2855L13.751 21.4378L14.6898 22.2202L15.6502 21.068ZM9.28847 20.2855L8.34968 21.068L9.31008 22.2202L10.2489 21.4378L9.28847 20.2855ZM14.7114 20.2855C14.1938 19.854 13.7533 19.4851 13.3594 19.2322C12.9476 18.9677 12.5141 18.7804 12 18.7804V20.2804C12.12 20.2804 12.2698 20.3151 12.5488 20.4943C12.8459 20.6851 13.204 20.9818 13.751 21.4378L14.7114 20.2855ZM10.2489 21.4378C10.7959 20.9818 11.154 20.6851 11.4511 20.4943C11.7301 20.3151 11.88 20.2804 12 20.2804V18.7804C11.4858 18.7804 11.0523 18.9677 10.6405 19.2322C10.2466 19.4851 9.80614 19.854 9.28847 20.2855L10.2489 21.4378ZM5.24995 20.3784C5.24995 21.1344 5.24792 21.789 5.3205 22.2765C5.39176 22.7551 5.57437 23.356 6.19272 23.6326L6.80514 22.2633C6.92452 22.3167 6.85764 22.4149 6.80415 22.0556C6.75199 21.7053 6.74995 21.1867 6.74995 20.3784H5.24995ZM8.34968 21.068C7.71975 21.5931 7.31084 21.9314 7.00006 22.1229C6.67831 22.3212 6.69519 22.2141 6.80514 22.2633L6.19272 23.6326C6.80165 23.9049 7.37336 23.6549 7.78701 23.3999C8.21162 23.1383 8.7187 22.7132 9.31008 22.2202L8.34968 21.068ZM17.2499 20.3784C17.2499 21.1867 17.2479 21.7053 17.1958 22.0556C17.1423 22.4149 17.0754 22.3167 17.1948 22.2633L17.8072 23.6326C18.4255 23.356 18.6081 22.7551 18.6794 22.2765C18.752 21.789 18.7499 21.1344 18.7499 20.3784H17.2499ZM14.6898 22.2202C15.2812 22.7132 15.7883 23.1383 16.2129 23.3999C16.6265 23.6549 17.1982 23.9049 17.8072 23.6326L17.1948 22.2633C17.3047 22.2141 17.3216 22.3212 16.9998 22.1229C16.6891 21.9314 16.2801 21.5931 15.6502 21.068L14.6898 22.2202ZM18.7499 14.8343C18.7499 14.6498 18.7499 14.4753 18.7496 14.3107L17.2496 14.3139C17.2499 14.4767 17.2499 14.6495 17.2499 14.8343H18.7499ZM19.2499 8.99975C19.2499 10.8389 18.5661 12.5166 17.4376 13.7951L18.5623 14.7877C19.9233 13.2457 20.7499 11.2183 20.7499 8.99975H19.2499ZM17.4376 13.7951C16.1081 15.3015 14.1652 16.2498 12 16.2498V17.7497C14.6134 17.7497 16.96 16.603 18.5623 14.7877L17.4376 13.7951ZM18.7495 14.325L18.7498 14.3041L17.2501 14.2787L17.2497 14.2996L18.7495 14.325ZM6.74995 14.8343C6.74995 14.6418 6.74995 14.4623 6.75035 14.2936L5.25036 14.2901C5.24995 14.4608 5.24995 14.6422 5.24995 14.8343H6.74995ZM12 16.2498C9.83487 16.2498 7.89217 15.3017 6.56262 13.7955L5.43809 14.7882C7.04029 16.6032 9.38669 17.7497 12 17.7497V16.2498ZM6.56262 13.7955C5.43397 12.517 4.74995 10.8391 4.74995 8.99975H3.24995C3.24995 11.2186 4.07681 13.2461 5.43809 14.7882L6.56262 13.7955Z" fill="black"/>
</g>
<defs>
<clipPath id="clip0_0_1">
<rect width="24" height="24" fill="black"/>
</clipPath>
</defs>
</svg>
