<svg width="24" height="24" viewBox="0 0 24 24" fill="none" xmlns="http://www.w3.org/2000/svg">
<path d="M2.74944 11.9998C2.74944 11.5856 2.41366 11.2498 1.99944 11.2498C1.58523 11.2498 1.24944 11.5856 1.24944 11.9998H2.74944ZM5.99847 3.99982L6.44897 4.59944L6.44897 4.59944L5.99847 3.99982ZM3.99944 5.99884L4.54649 6.51191L4.57448 6.48206L4.59906 6.44935L3.99944 5.99884ZM4.01213 1.00316C4.01398 0.588954 3.67969 0.251673 3.26548 0.249825C2.85127 0.247977 2.51399 0.582261 2.51215 0.996471L4.01213 1.00316ZM3.25328 2.98553L2.50329 2.98218L2.50329 2.98218L3.25328 2.98553ZM6.93328 6.66553L6.93662 7.41552L6.93662 7.41552L6.93328 6.66553ZM8.92234 7.40666C9.33654 7.40481 9.67083 7.06753 9.66898 6.65332C9.66713 6.23911 9.32985 5.90483 8.91564 5.90668L8.92234 7.40666ZM3.66183 5.90248L3.0687 6.3615L3.0687 6.36151L3.66183 5.90248ZM4.01632 6.25698L3.5573 6.85011L3.5573 6.85011L4.01632 6.25698ZM14.7594 9.74981C15.1737 9.74981 15.5094 9.41403 15.5094 8.99981C15.5094 8.5856 15.1737 8.24981 14.7594 8.24981V9.74981ZM8.99944 16.2498C8.58523 16.2498 8.24944 16.5856 8.24944 16.9998C8.24944 17.414 8.58523 17.7498 8.99944 17.7498V16.2498ZM1.24944 11.9998C1.24944 17.9369 6.06238 22.7498 11.9994 22.7498V21.2498C6.89081 21.2498 2.74944 17.1084 2.74944 11.9998H1.24944ZM11.9994 22.7498C17.9365 22.7498 22.7494 17.9369 22.7494 11.9998H21.2494C21.2494 17.1084 17.1081 21.2498 11.9994 21.2498V22.7498ZM22.7494 11.9998C22.7494 6.06275 17.9365 1.24982 11.9994 1.24982V2.74982C17.1081 2.74982 21.2494 6.89118 21.2494 11.9998H22.7494ZM11.9994 1.24982C9.57978 1.24982 7.34488 2.05014 5.54796 3.4002L6.44897 4.59944C7.99503 3.43785 9.9158 2.74982 11.9994 2.74982V1.24982ZM5.54796 3.4002C4.73463 4.01127 4.01089 4.735 3.39982 5.54834L4.59906 6.44935C5.12526 5.74898 5.7486 5.12564 6.44897 4.59944L5.54796 3.4002ZM2.51215 0.996471L2.50329 2.98218L4.00327 2.98887L4.01213 1.00316L2.51215 0.996471ZM6.93662 7.41552L8.92234 7.40666L8.91564 5.90668L6.92993 5.91554L6.93662 7.41552ZM2.50329 2.98218C2.49983 3.75633 2.49582 4.40032 2.55216 4.91616C2.61014 5.44709 2.73973 5.93642 3.0687 6.3615L4.25495 5.44347C4.16478 5.32694 4.08656 5.14958 4.04329 4.75332C3.99837 4.34198 3.99966 3.79829 4.00327 2.98887L2.50329 2.98218ZM6.92993 5.91554C6.12051 5.91915 5.57683 5.92044 5.16548 5.87552C4.76923 5.83224 4.59186 5.75403 4.47534 5.66385L3.5573 6.85011C3.98238 7.17908 4.47171 7.30867 5.00264 7.36665C5.51849 7.42298 6.16248 7.41897 6.93662 7.41552L6.92993 5.91554ZM14.7594 8.24981H10.9994V9.74981H14.7594V8.24981ZM8.24944 10.9998V11.9998H9.74944V10.9998H8.24944ZM9.99944 13.7498H13.9994V12.2498H9.99944V13.7498ZM14.2494 13.9998V14.9998H15.7494V13.9998H14.2494ZM12.9994 16.2498H8.99944V17.7498H12.9994V16.2498ZM14.2494 14.9998C14.2494 15.6902 13.6898 16.2498 12.9994 16.2498V17.7498C14.5182 17.7498 15.7494 16.5186 15.7494 14.9998H14.2494ZM13.9994 13.7498C14.1375 13.7498 14.2494 13.8617 14.2494 13.9998H15.7494C15.7494 13.0333 14.9659 12.2498 13.9994 12.2498V13.7498ZM8.24944 11.9998C8.24944 12.9663 9.03294 13.7498 9.99944 13.7498V12.2498C9.86137 12.2498 9.74944 12.1379 9.74944 11.9998H8.24944ZM10.9994 8.24981C9.48066 8.24981 8.24944 9.48103 8.24944 10.9998H9.74944C9.74944 10.3095 10.3091 9.74981 10.9994 9.74981V8.24981ZM3.0687 6.36151C3.15698 6.47558 3.25406 6.58237 3.35901 6.68093L4.3859 5.58754C4.33857 5.54309 4.29478 5.49493 4.25495 5.44346L3.0687 6.36151ZM3.35901 6.68093C3.42232 6.74039 3.48849 6.79685 3.5573 6.85011L4.47534 5.66385C4.44429 5.63983 4.41445 5.61436 4.3859 5.58754L3.35901 6.68093ZM3.45239 5.48577L3.32541 5.62117L4.4195 6.64731L4.54649 6.51191L3.45239 5.48577Z" fill="black"/>
</svg>
