<svg width="24" height="24" viewBox="0 0 24 24" fill="none" xmlns="http://www.w3.org/2000/svg">
<g clip-path="url(#clip0_0_1)">
<path d="M16.0525 16.0811C13.7726 14.7418 12.6327 14.0722 12.2501 13.1979C11.9164 12.4353 11.9164 11.5645 12.2501 10.8019C12.6327 9.92759 13.7726 9.25793 16.0525 7.91861C18.3324 6.57928 19.4723 5.90962 20.4077 6.00966C21.2236 6.09691 21.9648 6.53233 22.447 7.20766C22.9999 7.9819 22.9999 9.32123 22.9999 11.9999C22.9999 14.6785 22.9999 16.0178 22.447 16.7921C21.9648 17.4674 21.2236 17.9028 20.4077 17.9901C19.4723 18.0901 18.3324 17.4205 16.0525 16.0811Z" stroke="black" stroke-width="1.5"/>
<path d="M5.05249 16.0811C2.77262 14.7418 1.63268 14.0722 1.25013 13.1979C0.916442 12.4353 0.916442 11.5645 1.25013 10.8019C1.63268 9.92759 2.77262 9.25793 5.05249 7.91861C7.33237 6.57928 8.4723 5.90962 9.40771 6.00966C10.2236 6.09691 10.9648 6.53233 11.447 7.20766C11.9999 7.9819 11.9999 9.32123 11.9999 11.9999C11.9999 14.6785 11.9999 16.0178 11.447 16.7921C10.9648 17.4674 10.2236 17.9028 9.4077 17.9901C8.4723 18.0901 7.33236 17.4205 5.05249 16.0811Z" stroke="black" stroke-width="1.5"/>
</g>
<defs>
<clipPath id="clip0_0_1">
<rect width="24" height="24" fill="black" transform="translate(-0.000244141 -0.000366211)"/>
</clipPath>
</defs>
</svg>
