<svg width="24" height="24" viewBox="0 0 24 24" fill="none" xmlns="http://www.w3.org/2000/svg">
<path d="M6.46963 10.4695C6.17674 10.7624 6.17674 11.2373 6.46963 11.5301C6.76253 11.823 7.2374 11.823 7.53029 11.5301L6.46963 10.4695ZM8.24996 15.9998C8.24996 16.414 8.58575 16.7498 8.99996 16.7498C9.41418 16.7498 9.74996 16.414 9.74996 15.9998H8.24996ZM2.74997 11.9998C2.74997 11.5856 2.41418 11.2498 1.99997 11.2498C1.58575 11.2498 1.24997 11.5856 1.24997 11.9998H2.74997ZM5.99899 3.99982L6.44949 4.59944L6.4495 4.59944L5.99899 3.99982ZM3.99996 5.99884L4.54797 6.51089L4.57543 6.4815L4.59958 6.44935L3.99996 5.99884ZM4.01265 1.00316C4.0145 0.588954 3.68022 0.251673 3.26601 0.249825C2.8518 0.247977 2.51452 0.582261 2.51267 0.996471L4.01265 1.00316ZM3.2538 2.98553L2.50381 2.98218L2.50381 2.98218L3.2538 2.98553ZM6.9338 6.66553L6.93715 7.41552L6.93715 7.41552L6.9338 6.66553ZM8.92286 7.40666C9.33707 7.40481 9.67135 7.06753 9.6695 6.65332C9.66766 6.23911 9.33037 5.90483 8.91617 5.90668L8.92286 7.40666ZM3.66235 5.90248L3.06922 6.3615L3.06922 6.36151L3.66235 5.90248ZM4.01684 6.25698L3.55782 6.85011L3.55783 6.85011L4.01684 6.25698ZM16.25 11.9998V13.9998H17.75V11.9998H16.25ZM13.75 13.9998V11.9998H12.25V13.9998H13.75ZM15 15.2498C14.3096 15.2498 13.75 14.6902 13.75 13.9998H12.25C12.25 15.5186 13.4812 16.7498 15 16.7498V15.2498ZM16.25 13.9998C16.25 14.6902 15.6903 15.2498 15 15.2498V16.7498C16.5187 16.7498 17.75 15.5186 17.75 13.9998H16.25ZM15 10.7498C15.6903 10.7498 16.25 11.3095 16.25 11.9998H17.75C17.75 10.481 16.5187 9.24981 15 9.24981V10.7498ZM15 9.24981C13.4812 9.24981 12.25 10.481 12.25 11.9998H13.75C13.75 11.3095 14.3096 10.7498 15 10.7498V9.24981ZM1.24997 11.9998C1.24997 17.9369 6.0629 22.7498 12 22.7498V21.2498C6.89133 21.2498 2.74997 17.1084 2.74997 11.9998H1.24997ZM12 22.7498C17.937 22.7498 22.75 17.9369 22.75 11.9998H21.25C21.25 17.1084 17.1086 21.2498 12 21.2498V22.7498ZM22.75 11.9998C22.75 6.06275 17.937 1.24982 12 1.24982V2.74982C17.1086 2.74982 21.25 6.89118 21.25 11.9998H22.75ZM12 1.24982C9.5803 1.24982 7.3454 2.05014 5.54848 3.4002L6.4495 4.59944C7.99555 3.43785 9.91632 2.74982 12 2.74982V1.24982ZM5.54848 3.4002C4.73515 4.01127 4.01141 4.735 3.40034 5.54834L4.59958 6.44935C5.12579 5.74898 5.74912 5.12564 6.44949 4.59944L5.54848 3.4002ZM2.51267 0.996471L2.50381 2.98218L4.00379 2.98887L4.01265 1.00316L2.51267 0.996471ZM6.93715 7.41552L8.92286 7.40666L8.91617 5.90668L6.93045 5.91554L6.93715 7.41552ZM2.50381 2.98218C2.50035 3.75633 2.49635 4.40032 2.55268 4.91616C2.61066 5.44709 2.74025 5.93642 3.06922 6.3615L4.25548 5.44347C4.1653 5.32694 4.08709 5.14958 4.04381 4.75332C3.99889 4.34198 4.00018 3.79829 4.00379 2.98887L2.50381 2.98218ZM6.93045 5.91554C6.12104 5.91915 5.57735 5.92044 5.16601 5.87552C4.76975 5.83224 4.59239 5.75403 4.47586 5.66385L3.55783 6.85011C3.98291 7.17908 4.47224 7.30867 5.00317 7.36665C5.51901 7.42298 6.163 7.41897 6.93715 7.41552L6.93045 5.91554ZM7.46963 9.46948L6.46963 10.4695L7.53029 11.5301L8.53029 10.5301L7.46963 9.46948ZM8.24996 11.9998V15.9998H9.74996V11.9998H8.24996ZM8.24996 10.414V10.4998H9.74996V10.414H8.24996ZM8.24996 10.4998V11.9998H9.74996V10.4998H8.24996ZM3.06922 6.36151C3.1576 6.4757 3.2548 6.58261 3.35988 6.68126L4.38658 5.58769C4.33919 5.5432 4.29535 5.49499 4.25548 5.44346L3.06922 6.36151ZM3.35988 6.68126C3.42309 6.7406 3.48914 6.79695 3.55782 6.85011L4.47587 5.66385C4.44487 5.63987 4.41508 5.61445 4.38658 5.58769L3.35988 6.68126ZM3.45196 5.4868L3.32523 5.62243L4.42124 6.64652L4.54797 6.51089L3.45196 5.4868ZM8.53029 10.5301C8.51189 10.5485 8.47949 10.5676 8.43991 10.5745C8.40444 10.5806 8.37425 10.5752 8.35133 10.5657C8.32842 10.5562 8.30328 10.5387 8.28254 10.5093C8.2594 10.4764 8.24996 10.44 8.24996 10.414H9.74996C9.74996 9.22397 8.31113 8.62799 7.46963 9.46948L8.53029 10.5301Z" fill="black"/>
</svg>
