<svg width="24" height="24" viewBox="0 0 24 24" fill="none" xmlns="http://www.w3.org/2000/svg">
<path d="M6.21729 17.9386L6.09997 18.6793L6.21729 17.9386ZM2.06102 13.7823L1.32026 13.8996L2.06102 13.7823ZM17.9379 13.7823L17.1971 13.665L17.9379 13.7823ZM13.7816 17.9386L13.6643 17.1978L13.7816 17.9386ZM13.7816 6.06168L13.6643 6.80245L13.7816 6.06168ZM17.9379 10.2179L18.6787 10.1006L17.9379 10.2179ZM6.21729 6.06168L6.09997 5.32091L6.09997 5.32091L6.21729 6.06168ZM2.06102 10.2179L1.32026 10.1006L2.06102 10.2179ZM9.97723 9.43968C10.22 9.10406 10.1447 8.63519 9.8091 8.39243C9.47348 8.14967 9.00461 8.22494 8.76185 8.56056L9.97723 9.43968ZM8.81761 9.76317L8.20992 9.32361L8.20992 9.32361L8.81761 9.76317ZM11.1441 14.3165L10.5436 13.8671L10.5436 13.8671L11.1441 14.3165ZM10.032 14.5507C9.78375 14.8823 9.85135 15.3523 10.183 15.6005C10.5146 15.8488 10.9846 15.7812 11.2328 15.4495L10.032 14.5507ZM9.98777 12.0304L9.98576 12.7804L9.98576 12.7804L9.98777 12.0304ZM11.7256 12.2617L11.2179 12.8137L11.2179 12.8137L11.7256 12.2617ZM11.9965 12.7974L12.7422 12.7168L12.7422 12.7168L11.9965 12.7974ZM8.00303 11.2727L8.74777 11.184L8.74777 11.184L8.00303 11.2727ZM8.27643 11.8024L8.78111 11.2476L8.78111 11.2476L8.27643 11.8024ZM7.99946 6.75012H11.9995V5.25012H7.99946V6.75012ZM11.9995 17.2501H7.99946V18.7501H11.9995V17.2501ZM7.99946 17.2501C7.0418 17.2501 6.65029 17.2478 6.33462 17.1978L6.09997 18.6793C6.56162 18.7524 7.09912 18.7501 7.99946 18.7501V17.2501ZM1.24947 12.0001C1.24947 12.9005 1.24714 13.438 1.32026 13.8996L2.80179 13.665C2.75179 13.3493 2.74947 12.9578 2.74947 12.0001H1.24947ZM6.33462 17.1978C4.51607 16.9098 3.08982 15.4835 2.80179 13.665L1.32026 13.8996C1.70994 16.36 3.63958 18.2896 6.09997 18.6793L6.33462 17.1978ZM17.2495 12.0001C17.2495 12.9578 17.2471 13.3493 17.1971 13.665L18.6787 13.8996C18.7518 13.438 18.7495 12.9005 18.7495 12.0001H17.2495ZM11.9995 18.7501C12.8998 18.7501 13.4373 18.7524 13.899 18.6793L13.6643 17.1978C13.3486 17.2478 12.9571 17.2501 11.9995 17.2501V18.7501ZM11.9995 6.75012C12.9571 6.75012 13.3486 6.75245 13.6643 6.80245L13.899 5.32091C13.4373 5.24779 12.8998 5.25012 11.9995 5.25012V6.75012ZM18.7495 12.0001C18.7495 11.0998 18.7518 10.5623 18.6787 10.1006L17.1971 10.3353C17.2471 10.6509 17.2495 11.0425 17.2495 12.0001H18.7495ZM7.99946 5.25012C7.09912 5.25012 6.56162 5.24779 6.09997 5.32091L6.33462 6.80245C6.65029 6.75245 7.0418 6.75012 7.99946 6.75012V5.25012ZM2.74947 12.0001C2.74947 11.0425 2.75179 10.6509 2.80179 10.3353L1.32026 10.1006C1.24714 10.5623 1.24947 11.0998 1.24947 12.0001H2.74947ZM6.09997 5.32091C3.63958 5.7106 1.70994 7.64024 1.32026 10.1006L2.80179 10.3353C3.08982 8.51673 4.51607 7.09048 6.33462 6.80245L6.09997 5.32091ZM17.9995 9.75012H18.9995V8.25012H17.9995V9.75012ZM20.2495 11.0001V13.0001H21.7495V11.0001H20.2495ZM18.9995 14.2501H17.9995V15.7501H18.9995V14.2501ZM20.2495 13.0001C20.2495 13.6905 19.6898 14.2501 18.9995 14.2501V15.7501C20.5182 15.7501 21.7495 14.5189 21.7495 13.0001H20.2495ZM18.9995 9.75012C19.6898 9.75012 20.2495 10.3098 20.2495 11.0001H21.7495C21.7495 9.48134 20.5182 8.25012 18.9995 8.25012V9.75012ZM8.76185 8.56056L8.20992 9.32361L9.4253 10.2027L9.97723 9.43968L8.76185 8.56056ZM10.5436 13.8671L10.032 14.5507L11.2328 15.4495L11.7445 14.766L10.5436 13.8671ZM9.98576 12.7804C10.4994 12.7818 10.8266 12.7836 11.0591 12.8078C11.303 12.8332 11.2806 12.8714 11.2179 12.8137L12.2333 11.7097C11.9235 11.4247 11.5291 11.3486 11.2143 11.3159C10.8881 11.2819 10.4699 11.2817 9.98978 11.2804L9.98576 12.7804ZM11.7445 14.766C12.0304 14.3839 12.2809 14.0509 12.449 13.7707C12.6112 13.5003 12.7877 13.1378 12.7422 12.7168L11.2509 12.878C11.2413 12.7892 11.2877 12.7907 11.1627 12.999C11.0437 13.1975 10.8499 13.4579 10.5436 13.8671L11.7445 14.766ZM11.2179 12.8137C11.2372 12.8315 11.2484 12.8545 11.2509 12.878L12.7422 12.7168C12.7004 12.33 12.519 11.9725 12.2333 11.7097L11.2179 12.8137ZM8.20992 9.32361C7.93527 9.70331 7.69402 10.0352 7.53273 10.3144C7.37651 10.5849 7.20876 10.9454 7.2583 11.3614L8.74777 11.184C8.7581 11.2708 8.71304 11.27 8.83162 11.0647C8.94512 10.8682 9.13076 10.6099 9.4253 10.2027L8.20992 9.32361ZM9.98978 11.2804C9.48471 11.2791 9.16402 11.2773 8.936 11.2535C8.69785 11.2287 8.71941 11.1915 8.78111 11.2476L7.77175 12.3572C8.07978 12.6374 8.46868 12.7129 8.78046 12.7454C9.10235 12.779 9.51416 12.7792 9.98576 12.7804L9.98978 11.2804ZM7.2583 11.3614C7.30396 11.7448 7.48677 12.098 7.77175 12.3572L8.78111 11.2476C8.76176 11.23 8.75054 11.2072 8.74777 11.184L7.2583 11.3614ZM13.6643 6.80245C15.1199 7.03299 16.3246 7.99292 16.895 9.30006L18.2698 8.70018C17.4984 6.9322 15.8691 5.63295 13.899 5.32091L13.6643 6.80245ZM16.895 9.30006C17.0369 9.62529 17.1396 9.97223 17.1971 10.3353L18.6787 10.1006C18.601 9.61045 18.4621 9.14086 18.2698 8.70018L16.895 9.30006ZM17.9995 8.25012H17.5824V9.75012H17.9995V8.25012ZM17.1971 13.665C17.1396 14.028 17.0369 14.375 16.895 14.7002L18.2698 15.3001C18.4621 14.8594 18.601 14.3898 18.6787 13.8996L17.1971 13.665ZM16.895 14.7002C16.3246 16.0073 15.1199 16.9672 13.6643 17.1978L13.899 18.6793C15.8691 18.3673 17.4984 17.068 18.2698 15.3001L16.895 14.7002ZM17.9995 14.2501H17.5824V15.7501H17.9995V14.2501Z" fill="black"/>
</svg>
