<svg width="24" height="24" viewBox="0 0 24 24" fill="none" xmlns="http://www.w3.org/2000/svg">
<path d="M6.21779 17.9381L6.10047 18.6788L6.21779 17.9381ZM2.06153 13.7818L1.32076 13.8991L2.06153 13.7818ZM17.9384 13.7818L17.1976 13.6645L17.9384 13.7818ZM13.7821 17.9381L13.6648 17.1973L13.7821 17.9381ZM13.7821 6.06119L13.6648 6.80196L13.7821 6.06119ZM17.9384 10.2175L18.6792 10.1001L17.9384 10.2175ZM6.21779 6.06119L6.10047 5.32043L6.10047 5.32043L6.21779 6.06119ZM2.06153 10.2175L1.32076 10.1001L2.06153 10.2175ZM6.67079 9.66422C6.48555 9.29374 6.03504 9.14357 5.66456 9.32881C5.29407 9.51405 5.14391 9.96456 5.32915 10.335L6.67079 9.66422ZM6.10554 10.2108L6.77636 9.87537L6.77636 9.87537L6.10554 10.2108ZM6.10554 13.7885L6.77636 14.1239L6.77636 14.1239L6.10554 13.7885ZM5.32915 13.6642C5.14391 14.0347 5.29407 14.4852 5.66456 14.6704C6.03504 14.8557 6.48555 14.7055 6.67079 14.335L5.32915 13.6642ZM10.6708 9.66422C10.4855 9.29374 10.035 9.14357 9.66456 9.32881C9.29407 9.51405 9.1439 9.96456 9.32915 10.335L10.6708 9.66422ZM10.1055 10.2108L9.43472 10.5462L9.43472 10.5462L10.1055 10.2108ZM10.1055 13.7885L9.43472 13.4531L9.43472 13.4531L10.1055 13.7885ZM9.32915 13.6642C9.1439 14.0347 9.29407 14.4852 9.66456 14.6704C10.035 14.8557 10.4855 14.7055 10.6708 14.335L9.32915 13.6642ZM7.99997 6.74963H12V5.24963H7.99997V6.74963ZM12 17.2496H7.99997V18.7496H12V17.2496ZM7.99997 17.2496C7.0423 17.2496 6.65079 17.2473 6.33512 17.1973L6.10047 18.6788C6.56213 18.752 7.09962 18.7496 7.99997 18.7496V17.2496ZM1.24997 11.9996C1.24997 12.9 1.24764 13.4375 1.32076 13.8991L2.80229 13.6645C2.7523 13.3488 2.74997 12.9573 2.74997 11.9996H1.24997ZM6.33512 17.1973C4.51658 16.9093 3.09032 15.483 2.80229 13.6645L1.32076 13.8991C1.71045 16.3595 3.64009 18.2891 6.10047 18.6788L6.33512 17.1973ZM17.25 11.9996C17.25 12.9573 17.2476 13.3488 17.1976 13.6645L18.6792 13.8991C18.7523 13.4375 18.75 12.9 18.75 11.9996H17.25ZM12 18.7496C12.9003 18.7496 13.4378 18.752 13.8995 18.6788L13.6648 17.1973C13.3491 17.2473 12.9576 17.2496 12 17.2496V18.7496ZM12 6.74963C12.9576 6.74963 13.3491 6.75196 13.6648 6.80196L13.8995 5.32043C13.4378 5.24731 12.9003 5.24963 12 5.24963V6.74963ZM18.75 11.9996C18.75 11.0993 18.7523 10.5618 18.6792 10.1001L17.1976 10.3348C17.2476 10.6505 17.25 11.042 17.25 11.9996H18.75ZM7.99997 5.24963C7.09962 5.24963 6.56213 5.24731 6.10047 5.32043L6.33512 6.80196C6.65079 6.75196 7.0423 6.74963 7.99997 6.74963V5.24963ZM2.74997 11.9996C2.74997 11.042 2.7523 10.6505 2.80229 10.3348L1.32076 10.1001C1.24764 10.5618 1.24997 11.0993 1.24997 11.9996H2.74997ZM6.10047 5.32043C3.64009 5.71011 1.71045 7.63975 1.32076 10.1001L2.80229 10.3348C3.09032 8.51624 4.51658 7.08999 6.33512 6.80196L6.10047 5.32043ZM5.32915 10.335L5.43472 10.5462L6.77636 9.87537L6.67079 9.66422L5.32915 10.335ZM5.43472 13.4531L5.32915 13.6642L6.67079 14.335L6.77636 14.1239L5.43472 13.4531ZM5.43472 10.5462C5.8922 11.4612 5.8922 12.5381 5.43472 13.4531L6.77636 14.1239C7.44499 12.7866 7.44499 11.2126 6.77636 9.87537L5.43472 10.5462ZM9.32915 10.335L9.43472 10.5462L10.7764 9.87537L10.6708 9.66422L9.32915 10.335ZM9.43472 13.4531L9.32915 13.6642L10.6708 14.335L10.7764 14.1239L9.43472 13.4531ZM9.43472 10.5462C9.8922 11.4612 9.8922 12.5381 9.43472 13.4531L10.7764 14.1239C11.445 12.7866 11.445 11.2126 10.7764 9.87537L9.43472 10.5462ZM18 9.74963H19V8.24963H18V9.74963ZM20.25 10.9996V12.9996H21.75V10.9996H20.25ZM19 14.2496H18V15.7496H19V14.2496ZM20.25 12.9996C20.25 13.69 19.6903 14.2496 19 14.2496V15.7496C20.5187 15.7496 21.75 14.5184 21.75 12.9996H20.25ZM19 9.74963C19.6903 9.74963 20.25 10.3093 20.25 10.9996H21.75C21.75 9.48085 20.5187 8.24963 19 8.24963V9.74963ZM13.6648 6.80196C15.1204 7.0325 16.3252 7.99243 16.8955 9.29958L18.2703 8.69969C17.4989 6.93171 15.8696 5.63246 13.8995 5.32043L13.6648 6.80196ZM16.8955 9.29958C17.0374 9.6248 17.1401 9.97174 17.1976 10.3348L18.6792 10.1001C18.6015 9.60996 18.4626 9.14037 18.2703 8.69969L16.8955 9.29958ZM18 8.24963H17.5829V9.74963H18V8.24963ZM17.1976 13.6645C17.1401 14.0275 17.0374 14.3745 16.8955 14.6997L18.2703 15.2996C18.4626 14.8589 18.6015 14.3893 18.6792 13.8991L17.1976 13.6645ZM16.8955 14.6997C16.3252 16.0068 15.1204 16.9668 13.6648 17.1973L13.8995 18.6788C15.8696 18.3668 17.4989 17.0675 18.2703 15.2996L16.8955 14.6997ZM18 14.2496H17.5829V15.7496H18V14.2496Z" fill="black"/>
</svg>
