<svg width="24" height="24" viewBox="0 0 24 24" fill="none" xmlns="http://www.w3.org/2000/svg">
<path d="M6.21795 17.9381L6.10062 18.6788L6.21795 17.9381ZM2.06168 13.7818L1.32091 13.8991L2.06168 13.7818ZM17.9386 13.7818L17.1978 13.6645L17.9386 13.7818ZM13.7823 17.9381L13.665 17.1973L13.7823 17.9381ZM13.7823 6.06119L13.665 6.80196L13.7823 6.06119ZM17.9386 10.2175L18.6793 10.1001L17.9386 10.2175ZM6.21795 6.06119L6.10062 5.32043L6.10062 5.32043L6.21795 6.06119ZM2.06168 10.2175L1.32091 10.1001L2.06168 10.2175ZM6.67094 9.66422C6.4857 9.29374 6.03519 9.14357 5.66471 9.32881C5.29423 9.51405 5.14406 9.96456 5.3293 10.335L6.67094 9.66422ZM6.10569 10.2108L6.77651 9.87537L6.77651 9.87537L6.10569 10.2108ZM6.10569 13.7885L6.77651 14.1239L6.77651 14.1239L6.10569 13.7885ZM5.3293 13.6642C5.14406 14.0347 5.29423 14.4852 5.66471 14.6704C6.03519 14.8557 6.4857 14.7055 6.67094 14.335L5.3293 13.6642ZM8.00012 6.74963H12.0001V5.24963H8.00012V6.74963ZM12.0001 17.2496H8.00012V18.7496H12.0001V17.2496ZM8.00012 17.2496C7.04245 17.2496 6.65094 17.2473 6.33527 17.1973L6.10062 18.6788C6.56228 18.752 7.09977 18.7496 8.00012 18.7496V17.2496ZM1.25012 11.9996C1.25012 12.9 1.24779 13.4375 1.32091 13.8991L2.80245 13.6645C2.75245 13.3488 2.75012 12.9573 2.75012 11.9996H1.25012ZM6.33527 17.1973C4.51673 16.9093 3.09048 15.483 2.80245 13.6645L1.32091 13.8991C1.7106 16.3595 3.64024 18.2891 6.10062 18.6788L6.33527 17.1973ZM17.2501 11.9996C17.2501 12.9573 17.2478 13.3488 17.1978 13.6645L18.6793 13.8991C18.7524 13.4375 18.7501 12.9 18.7501 11.9996H17.2501ZM12.0001 18.7496C12.9005 18.7496 13.438 18.752 13.8996 18.6788L13.665 17.1973C13.3493 17.2473 12.9578 17.2496 12.0001 17.2496V18.7496ZM12.0001 6.74963C12.9578 6.74963 13.3493 6.75196 13.665 6.80196L13.8996 5.32043C13.438 5.24731 12.9005 5.24963 12.0001 5.24963V6.74963ZM18.7501 11.9996C18.7501 11.0993 18.7524 10.5618 18.6793 10.1001L17.1978 10.3348C17.2478 10.6505 17.2501 11.042 17.2501 11.9996H18.7501ZM8.00012 5.24963C7.09977 5.24963 6.56228 5.24731 6.10062 5.32043L6.33527 6.80196C6.65094 6.75196 7.04245 6.74963 8.00012 6.74963V5.24963ZM2.75012 11.9996C2.75012 11.042 2.75245 10.6505 2.80245 10.3348L1.32091 10.1001C1.24779 10.5618 1.25012 11.0993 1.25012 11.9996H2.75012ZM6.10062 5.32043C3.64024 5.71011 1.7106 7.63975 1.32091 10.1001L2.80245 10.3348C3.09048 8.51624 4.51673 7.08999 6.33527 6.80196L6.10062 5.32043ZM5.3293 10.335L5.43487 10.5462L6.77651 9.87537L6.67094 9.66422L5.3293 10.335ZM5.43487 13.4531L5.3293 13.6642L6.67094 14.335L6.77651 14.1239L5.43487 13.4531ZM5.43487 10.5462C5.89236 11.4612 5.89236 12.5381 5.43487 13.4531L6.77651 14.1239C7.44514 12.7866 7.44514 11.2126 6.77651 9.87537L5.43487 10.5462ZM18.0001 9.74963H19.0001V8.24963H18.0001V9.74963ZM20.2501 10.9996V12.9996H21.7501V10.9996H20.2501ZM19.0001 14.2496H18.0001V15.7496H19.0001V14.2496ZM20.2501 12.9996C20.2501 13.69 19.6905 14.2496 19.0001 14.2496V15.7496C20.5189 15.7496 21.7501 14.5184 21.7501 12.9996H20.2501ZM19.0001 9.74963C19.6905 9.74963 20.2501 10.3093 20.2501 10.9996H21.7501C21.7501 9.48085 20.5189 8.24963 19.0001 8.24963V9.74963ZM13.665 6.80196C15.1205 7.0325 16.3253 7.99243 16.8957 9.29958L18.2705 8.69969C17.499 6.93171 15.8697 5.63246 13.8996 5.32043L13.665 6.80196ZM16.8957 9.29958C17.0376 9.6248 17.1403 9.97174 17.1978 10.3348L18.6793 10.1001C18.6017 9.60996 18.4628 9.14037 18.2705 8.69969L16.8957 9.29958ZM18.0001 8.24963H17.5831V9.74963H18.0001V8.24963ZM17.1978 13.6645C17.1403 14.0275 17.0376 14.3745 16.8957 14.6997L18.2705 15.2996C18.4628 14.8589 18.6017 14.3893 18.6793 13.8991L17.1978 13.6645ZM16.8957 14.6997C16.3253 16.0068 15.1205 16.9668 13.665 17.1973L13.8996 18.6788C15.8697 18.3668 17.499 17.0675 18.2705 15.2996L16.8957 14.6997ZM18.0001 14.2496H17.5831V15.7496H18.0001V14.2496Z" fill="black"/>
</svg>
