<svg width="24" height="24" viewBox="0 0 24 24" fill="none" xmlns="http://www.w3.org/2000/svg">
<path d="M6.67085 9.66471C6.48561 9.29423 6.0351 9.14406 5.66462 9.3293C5.29413 9.51454 5.14397 9.96505 5.32921 10.3355L6.67085 9.66471ZM6.1056 10.2113L6.77642 9.87586L6.77642 9.87586L6.1056 10.2113ZM6.1056 13.789L6.77642 14.1244L6.77642 14.1244L6.1056 13.789ZM5.32921 13.6647C5.14397 14.0352 5.29413 14.4857 5.66462 14.6709C6.0351 14.8562 6.48561 14.706 6.67085 14.3355L5.32921 13.6647ZM10.6708 9.66471C10.4856 9.29423 10.0351 9.14406 9.66462 9.3293C9.29413 9.51454 9.14396 9.96505 9.32921 10.3355L10.6708 9.66471ZM10.1056 10.2113L9.43478 10.5467L9.43478 10.5467L10.1056 10.2113ZM10.1056 13.789L9.43478 13.4536L9.43478 13.4536L10.1056 13.789ZM9.32921 13.6647C9.14396 14.0352 9.29413 14.4857 9.66462 14.6709C10.0351 14.8562 10.4856 14.706 10.6708 14.3355L9.32921 13.6647ZM14.6708 9.66471C14.4856 9.29423 14.0351 9.14406 13.6646 9.3293C13.2941 9.51454 13.144 9.96505 13.3292 10.3355L14.6708 9.66471ZM14.1056 10.2113L13.4348 10.5467L13.4348 10.5467L14.1056 10.2113ZM14.1056 13.789L13.4348 13.4536L13.4348 13.4536L14.1056 13.789ZM13.3292 13.6647C13.144 14.0352 13.2941 14.4857 13.6646 14.6709C14.0351 14.8562 14.4856 14.706 14.6708 14.3355L13.3292 13.6647ZM6.21786 17.9386L6.10053 18.6793L6.21786 17.9386ZM2.06159 13.7823L1.32082 13.8996L2.06159 13.7823ZM17.9385 13.7823L17.1977 13.665L17.9385 13.7823ZM13.7822 17.9386L13.6649 17.1978L13.7822 17.9386ZM13.7822 6.06168L13.6649 6.80245L13.7822 6.06168ZM17.9385 10.2179L18.6792 10.1006L17.9385 10.2179ZM6.21786 6.06168L6.10053 5.32091L6.10053 5.32091L6.21786 6.06168ZM2.06159 10.2179L1.32082 10.1006L2.06159 10.2179ZM5.32921 10.3355L5.43478 10.5467L6.77642 9.87586L6.67085 9.66471L5.32921 10.3355ZM5.43478 13.4536L5.32921 13.6647L6.67085 14.3355L6.77642 14.1244L5.43478 13.4536ZM5.43478 10.5467C5.89226 11.4616 5.89226 12.5386 5.43478 13.4536L6.77642 14.1244C7.44505 12.7871 7.44505 11.2131 6.77642 9.87586L5.43478 10.5467ZM9.32921 10.3355L9.43478 10.5467L10.7764 9.87586L10.6708 9.66471L9.32921 10.3355ZM9.43478 13.4536L9.32921 13.6647L10.6708 14.3355L10.7764 14.1244L9.43478 13.4536ZM9.43478 10.5467C9.89226 11.4616 9.89226 12.5386 9.43478 13.4536L10.7764 14.1244C11.445 12.7871 11.445 11.2131 10.7764 9.87586L9.43478 10.5467ZM13.3292 10.3355L13.4348 10.5467L14.7764 9.87586L14.6708 9.66471L13.3292 10.3355ZM13.4348 13.4536L13.3292 13.6647L14.6708 14.3355L14.7764 14.1244L13.4348 13.4536ZM13.4348 10.5467C13.8923 11.4616 13.8923 12.5386 13.4348 13.4536L14.7764 14.1244C15.445 12.7871 15.445 11.2131 14.7764 9.87586L13.4348 10.5467ZM8.00003 6.75012H12V5.25012H8.00003V6.75012ZM12 17.2501H8.00003V18.7501H12V17.2501ZM8.00003 17.2501C7.04236 17.2501 6.65085 17.2478 6.33518 17.1978L6.10053 18.6793C6.56219 18.7524 7.09968 18.7501 8.00003 18.7501V17.2501ZM1.25003 12.0001C1.25003 12.9005 1.2477 13.438 1.32082 13.8996L2.80235 13.665C2.75236 13.3493 2.75003 12.9578 2.75003 12.0001H1.25003ZM6.33518 17.1978C4.51664 16.9098 3.09038 15.4835 2.80235 13.665L1.32082 13.8996C1.71051 16.36 3.64015 18.2896 6.10053 18.6793L6.33518 17.1978ZM17.25 12.0001C17.25 12.9578 17.2477 13.3493 17.1977 13.665L18.6792 13.8996C18.7523 13.438 18.75 12.9005 18.75 12.0001H17.25ZM12 18.7501C12.9004 18.7501 13.4379 18.7524 13.8995 18.6793L13.6649 17.1978C13.3492 17.2478 12.9577 17.2501 12 17.2501V18.7501ZM12 6.75012C12.9577 6.75012 13.3492 6.75245 13.6649 6.80245L13.8995 5.32091C13.4379 5.24779 12.9004 5.25012 12 5.25012V6.75012ZM18.75 12.0001C18.75 11.0998 18.7523 10.5623 18.6792 10.1006L17.1977 10.3353C17.2477 10.6509 17.25 11.0425 17.25 12.0001H18.75ZM8.00003 5.25012C7.09968 5.25012 6.56219 5.24779 6.10053 5.32091L6.33518 6.80245C6.65085 6.75245 7.04236 6.75012 8.00003 6.75012V5.25012ZM2.75003 12.0001C2.75003 11.0425 2.75236 10.6509 2.80235 10.3353L1.32082 10.1006C1.2477 10.5623 1.25003 11.0998 1.25003 12.0001H2.75003ZM6.10053 5.32091C3.64015 5.7106 1.71051 7.64024 1.32082 10.1006L2.80235 10.3353C3.09038 8.51673 4.51664 7.09048 6.33518 6.80245L6.10053 5.32091ZM20.25 11.0001V13.0001H21.75V11.0001H20.25ZM20.25 13.0001C20.25 13.6905 19.6904 14.2501 19 14.2501V15.7501C20.5188 15.7501 21.75 14.5189 21.75 13.0001H20.25ZM19 9.75012C19.6904 9.75012 20.25 10.3098 20.25 11.0001H21.75C21.75 9.48134 20.5188 8.25012 19 8.25012V9.75012ZM13.6649 6.80245C15.1205 7.03299 16.3252 7.99292 16.8956 9.30006L18.2704 8.70018C17.499 6.9322 15.8696 5.63295 13.8995 5.32091L13.6649 6.80245ZM16.8956 9.30006C17.0375 9.62529 17.1402 9.97223 17.1977 10.3353L18.6792 10.1006C18.6016 9.61045 18.4627 9.14086 18.2704 8.70018L16.8956 9.30006ZM17.1977 13.665C17.1402 14.028 17.0375 14.375 16.8956 14.7002L18.2704 15.3001C18.4627 14.8594 18.6016 14.3898 18.6792 13.8996L17.1977 13.665ZM16.8956 14.7002C16.3252 16.0073 15.1205 16.9672 13.6649 17.1978L13.8995 18.6793C15.8696 18.3673 17.499 17.068 18.2704 15.3001L16.8956 14.7002ZM17.583 9.75012H19V8.25012H17.583V9.75012ZM19 14.2501H17.583V15.7501H19V14.2501Z" fill="black"/>
</svg>
