<svg width="24" height="24" viewBox="0 0 24 24" fill="none" xmlns="http://www.w3.org/2000/svg">
<mask id="path-1-inside-1_0_1" fill="black">
<path d="M4.99979 10C4.99979 8.13872 4.99979 7.20808 5.2445 6.45491C5.73909 4.93272 6.93251 3.73931 8.4547 3.24472C9.20786 3 10.1385 3 11.9998 3C13.8611 3 14.7917 3 15.5449 3.24472C17.0671 3.73931 18.2605 4.93272 18.7551 6.45491C18.9998 7.20808 18.9998 8.13872 18.9998 10V17.3874C18.9998 19.3045 18.9998 20.263 18.6578 20.77C18.2401 21.3893 17.512 21.7242 16.7699 21.6383C16.1625 21.568 15.4347 20.9442 13.9791 19.6965C13.3384 19.1473 13.018 18.8727 12.6661 18.7484C12.2349 18.5961 11.7646 18.5961 11.3335 18.7484C10.9816 18.8727 10.6612 19.1473 10.0205 19.6965C8.56489 20.9442 7.83709 21.568 7.22965 21.6383C6.48757 21.7242 5.75949 21.3893 5.34174 20.77C4.99979 20.263 4.99979 19.3045 4.99979 17.3874V10Z"/>
</mask>
<path d="M15.2498 10C15.2498 10.4142 15.5856 10.75 15.9998 10.75C16.414 10.75 16.7498 10.4142 16.7498 10L15.2498 10ZM11.9998 5.25C11.5856 5.25 11.2498 5.58579 11.2498 6C11.2498 6.41421 11.5856 6.75 11.9998 6.75L11.9998 5.25ZM16.7498 10C16.7498 7.37665 14.6231 5.25 11.9998 5.25L11.9998 6.75C13.7947 6.75 15.2498 8.20507 15.2498 10L16.7498 10ZM13.9791 19.6965L14.9553 18.5577L13.9791 19.6965ZM12.6661 18.7484L12.1664 20.1627L12.6661 18.7484ZM10.0205 19.6965L10.9967 20.8354L10.0205 19.6965ZM11.3335 18.7484L11.8332 20.1627L11.3335 18.7484ZM5.34174 20.77L4.09821 21.6088L4.09821 21.6088L5.34174 20.77ZM7.22965 21.6383L7.05725 20.1482L7.22965 21.6383ZM18.6578 20.77L19.9014 21.6088L19.9014 21.6088L18.6578 20.77ZM16.7699 21.6383L16.9423 20.1482L16.7699 21.6383ZM15.5449 3.24472L15.0813 4.6713L15.5449 3.24472ZM18.7551 6.45491L17.3285 6.91844L18.7551 6.45491ZM8.4547 3.24472L8.91823 4.6713L8.4547 3.24472ZM5.2445 6.45491L6.67109 6.91844L5.2445 6.45491ZM17.4998 10V17.3874H20.4998V10H17.4998ZM6.49979 17.3874V10H3.49979V17.3874H6.49979ZM14.9553 18.5577C14.4147 18.0943 13.8468 17.5747 13.1658 17.3341L12.1664 20.1627C12.1424 20.1542 12.1725 20.1571 12.3154 20.264C12.4707 20.3802 12.6676 20.548 13.0029 20.8354L14.9553 18.5577ZM10.9967 20.8354C11.3319 20.548 11.5289 20.3802 11.6842 20.264C11.827 20.1571 11.8572 20.1542 11.8332 20.1627L10.8337 17.3341C10.1527 17.5747 9.5849 18.0943 9.04429 18.5577L10.9967 20.8354ZM13.1658 17.3341C12.4113 17.0675 11.5882 17.0675 10.8337 17.3341L11.8332 20.1627C11.941 20.1246 12.0586 20.1246 12.1664 20.1627L13.1658 17.3341ZM3.49979 17.3874C3.49979 18.3201 3.49867 19.1096 3.54716 19.7253C3.59325 20.3103 3.69668 21.0136 4.09821 21.6088L6.58527 19.9312C6.64485 20.0195 6.57731 19.99 6.5379 19.4897C6.50091 19.0201 6.49979 18.3718 6.49979 17.3874H3.49979ZM9.04429 18.5577C8.29687 19.1983 7.8039 19.6194 7.42327 19.8969C7.01778 20.1926 6.95142 20.1605 7.05725 20.1482L7.40205 23.1284C8.11532 23.0458 8.71658 22.6667 9.19075 22.321C9.68977 21.9571 10.2885 21.4424 10.9967 20.8354L9.04429 18.5577ZM4.09821 21.6088C4.82928 22.6926 6.10341 23.2786 7.40205 23.1284L7.05725 20.1482C6.87173 20.1697 6.68971 20.086 6.58527 19.9312L4.09821 21.6088ZM17.4998 17.3874C17.4998 18.3718 17.4987 19.0201 17.4617 19.4897C17.4223 19.99 17.3547 20.0195 17.4143 19.9312L19.9014 21.6088C20.3029 21.0136 20.4063 20.3103 20.4524 19.7253C20.5009 19.1096 20.4998 18.3201 20.4998 17.3874H17.4998ZM13.0029 20.8354C13.7111 21.4424 14.3098 21.9571 14.8088 22.321C15.283 22.6667 15.8843 23.0458 16.5975 23.1284L16.9423 20.1482C17.0481 20.1605 16.9818 20.1926 16.5763 19.8969C16.1957 19.6194 15.7027 19.1983 14.9553 18.5577L13.0029 20.8354ZM17.4143 19.9312C17.3099 20.086 17.1278 20.1697 16.9423 20.1482L16.5975 23.1284C17.8962 23.2786 19.1703 22.6926 19.9014 21.6088L17.4143 19.9312ZM11.9998 4.5C13.9778 4.5 14.6111 4.51851 15.0813 4.6713L16.0084 1.81813C14.9723 1.48149 13.7443 1.5 11.9998 1.5V4.5ZM20.4998 10C20.4998 8.25547 20.5183 7.02746 20.1816 5.99139L17.3285 6.91844C17.4813 7.3887 17.4998 8.02197 17.4998 10H20.4998ZM15.0813 4.6713C16.1469 5.01751 16.9823 5.85291 17.3285 6.91844L20.1816 5.99139C19.5387 4.01254 17.9872 2.4611 16.0084 1.81813L15.0813 4.6713ZM11.9998 1.5C10.2553 1.5 9.02724 1.48149 7.99117 1.81813L8.91823 4.6713C9.38848 4.51851 10.0218 4.5 11.9998 4.5V1.5ZM6.49979 10C6.49979 8.02197 6.51829 7.3887 6.67109 6.91844L3.81792 5.99139C3.48128 7.02746 3.49979 8.25547 3.49979 10H6.49979ZM7.99117 1.81813C6.01233 2.4611 4.46089 4.01254 3.81792 5.99139L6.67109 6.91844C7.0173 5.85291 7.85269 5.01751 8.91823 4.6713L7.99117 1.81813Z" fill="black" mask="url(#path-1-inside-1_0_1)"/>
</svg>
