<svg width="24" height="24" viewBox="0 0 24 24" fill="none" xmlns="http://www.w3.org/2000/svg">
<path d="M13.979 19.6965L14.4671 19.1271L13.979 19.6965ZM12.666 18.7484L12.4162 19.4556L12.666 18.7484ZM10.0204 19.6965L10.5085 20.266L10.0204 19.6965ZM11.3334 18.7484L11.5833 19.4556L11.3334 18.7484ZM5.34168 20.77L4.71991 21.1894L4.71991 21.1894L5.34168 20.77ZM7.22959 21.6383L7.14339 20.8933L7.22959 21.6383ZM18.6578 20.77L19.2795 21.1894L19.2795 21.1894L18.6578 20.77ZM16.7699 21.6383L16.8561 20.8933L16.7699 21.6383ZM15.5448 3.24472L15.313 3.95801L15.5448 3.24472ZM18.755 6.45491L18.0417 6.68668L18.755 6.45491ZM8.45464 3.24472L8.6864 3.95801L8.45464 3.24472ZM5.24444 6.45491L5.95773 6.68668L5.24444 6.45491ZM8.99972 8.25C8.58551 8.25 8.24972 8.58578 8.24972 9C8.24972 9.41421 8.58551 9.75 8.99972 9.75V8.25ZM14.9997 9.75C15.4139 9.75 15.7497 9.41421 15.7497 9C15.7497 8.58578 15.4139 8.25 14.9997 8.25V9.75ZM18.2497 10V17.3874H19.7497V10H18.2497ZM5.74973 17.3874V10H4.24973V17.3874H5.74973ZM14.4671 19.1271C13.8765 18.6208 13.4324 18.2237 12.9159 18.0413L12.4162 19.4556C12.6035 19.5218 12.8001 19.6739 13.4909 20.266L14.4671 19.1271ZM10.5085 20.266C11.1993 19.6739 11.3959 19.5218 11.5833 19.4556L11.0835 18.0413C10.5671 18.2237 10.123 18.6208 9.53232 19.1271L10.5085 20.266ZM12.9159 18.0413C12.3231 17.8318 11.6764 17.8318 11.0835 18.0413L11.5833 19.4556C11.8527 19.3603 12.1467 19.3603 12.4162 19.4556L12.9159 18.0413ZM4.24973 17.3874C4.24973 18.333 4.24917 19.0872 4.29479 19.6664C4.3392 20.2302 4.43366 20.765 4.71991 21.1894L5.96345 20.3506C5.90775 20.268 5.83123 20.0701 5.79015 19.5486C5.75029 19.0425 5.74973 18.3588 5.74973 17.3874H4.24973ZM9.53232 19.1271C8.79471 19.7593 8.2753 20.2038 7.86508 20.5029C7.44242 20.8111 7.24234 20.8818 7.14339 20.8933L7.31579 22.3833C7.82428 22.3245 8.29182 22.0482 8.74882 21.7149C9.21824 21.3727 9.79053 20.8814 10.5085 20.266L9.53232 19.1271ZM4.71991 21.1894C5.29432 22.0409 6.29543 22.5014 7.31579 22.3833L7.14339 20.8933C6.67959 20.9469 6.22454 20.7376 5.96345 20.3506L4.71991 21.1894ZM18.2497 17.3874C18.2497 18.3588 18.2492 19.0425 18.2093 19.5486C18.1682 20.0701 18.0917 20.268 18.036 20.3506L19.2795 21.1894C19.5658 20.765 19.6602 20.2302 19.7047 19.6664C19.7503 19.0872 19.7497 18.333 19.7497 17.3874H18.2497ZM13.4909 20.266C14.2089 20.8814 14.7812 21.3727 15.2506 21.7149C15.7076 22.0482 16.1752 22.3245 16.6837 22.3833L16.8561 20.8933C16.7571 20.8818 16.557 20.8111 16.1344 20.5029C15.7241 20.2038 15.2047 19.7593 14.4671 19.1271L13.4909 20.266ZM18.036 20.3506C17.7749 20.7376 17.3199 20.9469 16.8561 20.8933L16.6837 22.3833C17.704 22.5014 18.7051 22.0409 19.2795 21.1894L18.036 20.3506ZM11.9997 3.75C13.9194 3.75 14.7013 3.75925 15.313 3.95801L15.7766 2.53143C14.882 2.24075 13.8026 2.25 11.9997 2.25V3.75ZM19.7497 10C19.7497 8.19709 19.759 7.11777 19.4683 6.22315L18.0417 6.68668C18.2405 7.29839 18.2497 8.08034 18.2497 10H19.7497ZM15.313 3.95801C16.6069 4.37841 17.6213 5.39282 18.0417 6.68668L19.4683 6.22315C18.8995 4.47263 17.5271 3.1002 15.7766 2.53143L15.313 3.95801ZM11.9997 2.25C10.1968 2.25 9.11749 2.24075 8.22288 2.53143L8.6864 3.95801C9.29811 3.75925 10.0801 3.75 11.9997 3.75V2.25ZM5.74973 10C5.74973 8.08034 5.75898 7.29839 5.95773 6.68668L4.53115 6.22315C4.24047 7.11777 4.24973 8.19709 4.24973 10H5.74973ZM8.22288 2.53143C6.47236 3.1002 5.09993 4.47263 4.53115 6.22315L5.95773 6.68668C6.37814 5.39282 7.39254 4.37841 8.6864 3.95801L8.22288 2.53143ZM8.99972 9.75H14.9997V8.25H8.99972V9.75Z" fill="black"/>
</svg>
