<svg width="24" height="24" viewBox="0 0 24 24" fill="none" xmlns="http://www.w3.org/2000/svg">
<path d="M4.99951 10.0001C4.99951 8.13884 4.99951 7.2082 5.24423 6.45504C5.73882 4.93285 6.93224 3.73943 8.45443 3.24484C9.20759 3.00012 10.1382 3.00012 11.9995 3.00012C13.8608 3.00012 14.7914 3.00012 15.5446 3.24484C17.0668 3.73943 18.2602 4.93285 18.7548 6.45504C18.9995 7.2082 18.9995 8.13884 18.9995 10.0001V17.3875C18.9995 19.3046 18.9995 20.2632 18.6576 20.7701C18.2398 21.3894 17.5117 21.7243 16.7696 21.6384C16.1622 21.5681 15.4344 20.9443 13.9788 19.6967C13.3381 19.1475 13.0177 18.8729 12.6658 18.7485C12.2347 18.5962 11.7643 18.5962 11.3332 18.7485C10.9813 18.8729 10.6609 19.1475 10.0202 19.6967C8.56461 20.9443 7.83681 21.5681 7.22938 21.6384C6.48729 21.7243 5.75922 21.3894 5.34147 20.7701C4.99951 20.2632 4.99951 19.3046 4.99951 17.3875V10.0001Z" stroke="black" stroke-width="1.5"/>
</svg>
