<svg width="24" height="24" viewBox="0 0 24 24" fill="none" xmlns="http://www.w3.org/2000/svg">
<path d="M1.72764 1.81808C1.62717 1.41624 1.21996 1.17193 0.81812 1.2724C0.416276 1.37287 0.171965 1.78007 0.272435 2.18192L1.72764 1.81808ZM5.76568 16.7854L6.2165 16.186L5.76568 16.7854ZM3.02133 10.2517L3.75067 10.0769L3.02133 10.2517ZM5.58577 16.6435L6.06358 16.0654L6.06358 16.0654L5.58577 16.6435ZM22.0192 10.7425L22.7486 10.9173L22.0192 10.7425ZM19.8898 16.3575L19.3644 15.8223L19.3644 15.8223L19.8898 16.3575ZM19.0404 17.0273L19.4384 17.663L19.0404 17.0273ZM21.9421 6.75597L22.4569 6.21052L21.9421 6.75597ZM22.3039 7.21465L22.9543 6.8412L22.3039 7.21465ZM14.0001 10.25C13.5859 10.25 13.2501 10.5858 13.2501 11C13.2501 11.4142 13.5859 11.75 14.0001 11.75L14.0001 10.25ZM17.0001 13.25C16.5859 13.25 16.2501 13.5858 16.2501 14C16.2501 14.4142 16.5859 14.75 17.0001 14.75V13.25ZM2.05277 6.96053H18.445V5.46053H2.05277V6.96053ZM13.0838 17.0395H12.5791V18.5395H13.0838V17.0395ZM3.75067 10.0769L2.78212 6.03572L1.32343 6.38533L2.29198 10.4265L3.75067 10.0769ZM2.78038 6.02861L1.72764 1.81808L0.272435 2.18192L1.32517 6.39244L2.78038 6.02861ZM12.5791 17.0395C10.7352 17.0395 9.41666 17.0383 8.38999 16.919C7.3823 16.8019 6.73804 16.5783 6.2165 16.186L5.31486 17.3848C6.12832 17.9966 7.06463 18.275 8.21682 18.4089C9.35004 18.5406 10.7707 18.5395 12.5791 18.5395V17.0395ZM2.29198 10.4265C2.71347 12.1852 3.04343 13.5669 3.43563 14.6383C3.83439 15.7275 4.32339 16.5731 5.10797 17.2216L6.06358 16.0654C5.56056 15.6496 5.19295 15.0752 4.8442 14.1226C4.48888 13.152 4.18042 11.87 3.75067 10.0769L2.29198 10.4265ZM6.2165 16.186C6.16461 16.147 6.11362 16.1067 6.06358 16.0654L5.10797 17.2216C5.17568 17.2775 5.24466 17.332 5.31486 17.3848L6.2165 16.186ZM13.0838 18.5395C14.6483 18.5395 15.8775 18.5404 16.8659 18.4404C17.8695 18.3389 18.6953 18.1283 19.4384 17.663L18.6424 16.3917C18.1683 16.6885 17.5955 16.859 16.715 16.948C15.8194 17.0386 14.6788 17.0395 13.0838 17.0395V18.5395ZM19.3644 15.8223C19.145 16.0376 18.9029 16.2285 18.6424 16.3917L19.4384 17.663C19.7909 17.4423 20.1184 17.184 20.4152 16.8927L19.3644 15.8223ZM18.445 6.96053C19.4375 6.96053 20.1131 6.96185 20.6158 7.02318C21.1061 7.08301 21.3071 7.18794 21.4274 7.30143L22.4569 6.21052C21.9992 5.77856 21.4247 5.61076 20.7975 5.53423C20.1826 5.4592 19.3986 5.46053 18.445 5.46053V6.96053ZM22.7486 10.9173C22.9708 9.99004 23.1548 9.22794 23.2252 8.61254C23.2969 7.98475 23.2676 7.38698 22.9543 6.8412L21.6534 7.5881C21.7358 7.7315 21.791 7.95145 21.7349 8.44219C21.6774 8.94532 21.5212 9.60257 21.2899 10.5677L22.7486 10.9173ZM21.4274 7.30143C21.5163 7.38541 21.5925 7.482 21.6534 7.5881L22.9543 6.8412C22.8202 6.60776 22.6526 6.39527 22.4569 6.21052L21.4274 7.30143ZM21.0001 13.25H17.0001V14.75H21.0001V13.25ZM21.9575 10.25L14.0001 10.25L14.0001 11.75L21.9575 11.75L21.9575 10.25ZM21.2899 10.5677C21.269 10.6548 21.2485 10.7405 21.2282 10.8251L22.6868 11.1749C22.7071 11.0903 22.7277 11.0044 22.7486 10.9173L21.2899 10.5677ZM21.2282 10.8251C20.9306 12.0658 20.699 13.0133 20.4567 13.7717L21.8855 14.2283C22.148 13.4067 22.3926 12.4015 22.6868 11.1749L21.2282 10.8251ZM20.4567 13.7717C20.131 14.791 19.8104 15.3844 19.3644 15.8223L20.4152 16.8927C21.114 16.2067 21.5286 15.3453 21.8855 14.2283L20.4567 13.7717ZM21.0001 14.75H21.1711V13.25H21.0001V14.75Z" fill="black"/>
<path d="M10.4738 20.9473C10.4738 21.5287 10.0025 22 9.42119 22C8.83984 22 8.36856 21.5287 8.36856 20.9473C8.36856 20.366 8.83984 19.8947 9.42119 19.8947C10.0025 19.8947 10.4738 20.366 10.4738 20.9473Z" fill="black"/>
<path d="M16.7896 20.9473C16.7896 21.5287 16.3183 22 15.737 22C15.1556 22 14.6844 21.5287 14.6844 20.9473C14.6844 20.366 15.1556 19.8947 15.737 19.8947C16.3183 19.8947 16.7896 20.366 16.7896 20.9473Z" fill="black"/>
</svg>
