<svg width="24" height="24" viewBox="0 0 24 24" fill="none" xmlns="http://www.w3.org/2000/svg">
<path d="M5.061 21.0441L5.50184 20.4373L5.061 21.0441ZM3.95484 19.9379L4.5616 19.4971L3.95484 19.9379ZM20.045 19.9379L19.4382 19.4971L20.045 19.9379ZM18.9388 21.0441L19.3797 21.6509L18.9388 21.0441ZM18.9388 4.95394L19.3797 4.34717L18.9388 4.95394ZM20.045 6.0601L19.4382 6.50093L20.045 6.0601ZM5.061 4.95394L5.50184 5.5607L5.50184 5.5607L5.061 4.95394ZM3.95484 6.0601L4.5616 6.50093L3.95484 6.0601ZM19.2177 16.0606L19.1004 15.3198L19.1004 15.3198L19.2177 16.0606ZM15.0615 20.2168L14.3207 20.0995L14.3207 20.0995L15.0615 20.2168ZM14.2499 4.99902C14.2499 5.41324 14.5857 5.74902 14.9999 5.74902C15.4141 5.74902 15.7499 5.41324 15.7499 4.99902H14.2499ZM15.7499 1.99902C15.7499 1.58481 15.4141 1.24902 14.9999 1.24902C14.5857 1.24902 14.2499 1.58481 14.2499 1.99902H15.7499ZM8.24992 4.99902C8.24992 5.41324 8.58571 5.74902 8.99992 5.74902C9.41413 5.74902 9.74992 5.41324 9.74992 4.99902H8.24992ZM9.74992 1.99902C9.74992 1.58481 9.41413 1.24902 8.99992 1.24902C8.58571 1.24902 8.24992 1.58481 8.24992 1.99902H9.74992ZM20.971 15.999L21.7206 16.0247L20.971 15.999ZM14.9999 21.9701L15.0256 22.7196L14.9999 21.9701ZM11.9999 21.249C10.1083 21.249 8.74991 21.248 7.69797 21.134C6.66006 21.0216 6.00984 20.8064 5.50184 20.4373L4.62016 21.6509C5.42648 22.2367 6.37086 22.499 7.5364 22.6253C8.6879 22.75 10.1418 22.749 11.9999 22.749V21.249ZM2.24992 12.999C2.24992 14.8572 2.24889 16.311 2.37365 17.4625C2.49993 18.6281 2.76225 19.5725 3.34808 20.3788L4.5616 19.4971C4.19251 18.9891 3.97737 18.3389 3.86492 17.301C3.75095 16.249 3.74992 14.8906 3.74992 12.999H2.24992ZM5.50184 20.4373C5.14103 20.1752 4.82374 19.8579 4.5616 19.4971L3.34808 20.3788C3.70273 20.8669 4.13201 21.2962 4.62016 21.6509L5.50184 20.4373ZM19.4382 19.4971C19.1761 19.8579 18.8588 20.1752 18.498 20.4373L19.3797 21.6509C19.8678 21.2962 20.2971 20.8669 20.6518 20.3788L19.4382 19.4971ZM21.7499 12.999C21.7499 11.1409 21.7509 9.687 21.6262 8.5355C21.4999 7.36996 21.2376 6.42558 20.6518 5.61926L19.4382 6.50093C19.8073 7.00894 20.0225 7.65915 20.1349 8.69706C20.2489 9.74901 20.2499 11.1074 20.2499 12.999H21.7499ZM18.498 5.5607C18.8588 5.82284 19.1761 6.14013 19.4382 6.50093L20.6518 5.61926C20.2971 5.13111 19.8678 4.70183 19.3797 4.34717L18.498 5.5607ZM3.74992 12.999C3.74992 11.1074 3.75095 9.74901 3.86492 8.69707C3.97737 7.65915 4.19251 7.00894 4.5616 6.50093L3.34808 5.61926C2.76225 6.42558 2.49993 7.36996 2.37365 8.5355C2.24889 9.687 2.24992 11.1409 2.24992 12.999H3.74992ZM4.62016 4.34717C4.13201 4.70183 3.70273 5.13111 3.34808 5.61926L4.5616 6.50093C4.82374 6.14013 5.14103 5.82284 5.50184 5.5607L4.62016 4.34717ZM19.1004 15.3198C16.64 15.7095 14.7104 17.6391 14.3207 20.0995L15.8022 20.3342C16.0903 18.5156 17.5165 17.0894 19.3351 16.8013L19.1004 15.3198ZM9.74992 4.99902V4.02795H8.24992V4.99902H9.74992ZM9.74992 4.02795V1.99902H8.24992V4.02795H9.74992ZM11.9999 3.24902C10.8351 3.24902 9.83417 3.24893 8.97424 3.27839L9.0256 4.77751C9.85437 4.74912 10.8268 4.74902 11.9999 4.74902V3.24902ZM8.97424 3.27839C7.1008 3.34258 5.72382 3.54532 4.62016 4.34717L5.50184 5.5607C6.20738 5.04809 7.17068 4.84106 9.0256 4.77751L8.97424 3.27839ZM15.7499 4.99902V4.02795H14.2499V4.99902H15.7499ZM15.7499 4.02795V1.99902H14.2499V4.02795H15.7499ZM11.9999 4.74902C13.173 4.74902 14.1455 4.74912 14.9742 4.77751L15.0256 3.27839C14.1657 3.24893 13.1647 3.24902 11.9999 3.24902V4.74902ZM14.9742 4.77751C16.8292 4.84106 17.7925 5.04809 18.498 5.5607L19.3797 4.34717C18.276 3.54532 16.899 3.34258 15.0256 3.27839L14.9742 4.77751ZM20.971 15.249C20.0887 15.249 19.5578 15.2474 19.1004 15.3198L19.3351 16.8013C19.6469 16.7519 20.0337 16.749 20.971 16.749L20.971 15.249ZM20.2499 12.999C20.2499 14.1721 20.2498 15.1446 20.2214 15.9733L21.7206 16.0247C21.75 15.1648 21.7499 14.1638 21.7499 12.999H20.2499ZM20.2214 15.9733C20.1579 17.8283 19.9509 18.7916 19.4382 19.4971L20.6518 20.3788C21.4536 19.2751 21.6564 17.8981 21.7206 16.0247L20.2214 15.9733ZM15.7499 21.9701C15.7499 21.0328 15.7528 20.646 15.8022 20.3342L14.3207 20.0995C14.2483 20.5569 14.2499 21.0878 14.2499 21.9701L15.7499 21.9701ZM11.9999 22.749C13.1647 22.749 14.1657 22.7491 15.0256 22.7196L14.9742 21.2205C14.1455 21.2489 13.173 21.249 11.9999 21.249V22.749ZM15.0256 22.7196C16.899 22.6555 18.276 22.4527 19.3797 21.6509L18.498 20.4373C17.7925 20.9499 16.8292 21.157 14.9742 21.2205L15.0256 22.7196Z" fill="black"/>
<path d="M7.99968 8.9989C7.99968 9.55119 7.55196 9.9989 6.99968 9.9989C6.44739 9.9989 5.99968 9.55119 5.99968 8.9989C5.99968 8.44662 6.44739 7.9989 6.99968 7.9989C7.55196 7.9989 7.99968 8.44662 7.99968 8.9989Z" fill="black"/>
<path d="M7.99968 12.9989C7.99968 13.5512 7.55196 13.9989 6.99968 13.9989C6.44739 13.9989 5.99968 13.5512 5.99968 12.9989C5.99968 12.4466 6.44739 11.9989 6.99968 11.9989C7.55196 11.9989 7.99968 12.4466 7.99968 12.9989Z" fill="black"/>
<path d="M12.9997 8.9989C12.9997 9.55119 12.552 9.9989 11.9997 9.9989C11.4474 9.9989 10.9997 9.55119 10.9997 8.9989C10.9997 8.44662 11.4474 7.9989 11.9997 7.9989C12.552 7.9989 12.9997 8.44662 12.9997 8.9989Z" fill="black"/>
<path d="M12.9997 12.9989C12.9997 13.5512 12.552 13.9989 11.9997 13.9989C11.4474 13.9989 10.9997 13.5512 10.9997 12.9989C10.9997 12.4466 11.4474 11.9989 11.9997 11.9989C12.552 11.9989 12.9997 12.4466 12.9997 12.9989Z" fill="black"/>
<path d="M12.9997 16.9989C12.9997 17.5512 12.552 17.9989 11.9997 17.9989C11.4474 17.9989 10.9997 17.5512 10.9997 16.9989C10.9997 16.4466 11.4474 15.9989 11.9997 15.9989C12.552 15.9989 12.9997 16.4466 12.9997 16.9989Z" fill="black"/>
<path d="M17.9997 8.9989C17.9997 9.55119 17.552 9.9989 16.9997 9.9989C16.4474 9.9989 15.9997 9.55119 15.9997 8.9989C15.9997 8.44662 16.4474 7.9989 16.9997 7.9989C17.552 7.9989 17.9997 8.44662 17.9997 8.9989Z" fill="black"/>
<path d="M17.9997 12.9989C17.9997 13.5512 17.552 13.9989 16.9997 13.9989C16.4474 13.9989 15.9997 13.5512 15.9997 12.9989C15.9997 12.4466 16.4474 11.9989 16.9997 11.9989C17.552 11.9989 17.9997 12.4466 17.9997 12.9989Z" fill="black"/>
<path d="M7.99968 16.9989C7.99968 17.5512 7.55196 17.9989 6.99968 17.9989C6.44739 17.9989 5.99968 17.5512 5.99968 16.9989C5.99968 16.4466 6.44739 15.9989 6.99968 15.9989C7.55196 15.9989 7.99968 16.4466 7.99968 16.9989Z" fill="black"/>
</svg>
