<svg width="24" height="24" viewBox="0 0 24 24" fill="none" xmlns="http://www.w3.org/2000/svg">
<path d="M5.06136 21.0441L5.5022 20.4373L5.06136 21.0441ZM3.9552 19.9379L4.56197 19.4971L3.9552 19.9379ZM20.0454 19.9379L19.4386 19.4971L20.0454 19.9379ZM18.9392 21.0441L19.38 21.6509L18.9392 21.0441ZM18.9392 4.95394L19.38 4.34717L18.9392 4.95394ZM20.0454 6.0601L19.4386 6.50093L19.4386 6.50093L20.0454 6.0601ZM5.06136 4.95394L5.5022 5.5607L5.5022 5.5607L5.06136 4.95394ZM3.9552 6.0601L4.56197 6.50093L4.56197 6.50093L3.9552 6.0601ZM19.2181 16.0606L19.1008 15.3198L19.1008 15.3198L19.2181 16.0606ZM15.0618 20.2168L14.3211 20.0995L14.3211 20.0995L15.0618 20.2168ZM9.00029 13.249C8.58607 13.249 8.25029 13.5848 8.25029 13.999C8.25029 14.4132 8.58607 14.749 9.00029 14.749V13.249ZM15.0003 14.749C15.4145 14.749 15.7503 14.4132 15.7503 13.999C15.7503 13.5848 15.4145 13.249 15.0003 13.249V14.749ZM14.2503 4.99902C14.2503 5.41324 14.5861 5.74902 15.0003 5.74902C15.4145 5.74902 15.7503 5.41324 15.7503 4.99902H14.2503ZM15.7503 1.99902C15.7503 1.58481 15.4145 1.24902 15.0003 1.24902C14.5861 1.24902 14.2503 1.58481 14.2503 1.99902H15.7503ZM8.25029 4.99902C8.25029 5.41324 8.58607 5.74902 9.00029 5.74902C9.4145 5.74902 9.75029 5.41324 9.75029 4.99902H8.25029ZM9.75029 1.99902C9.75029 1.58481 9.4145 1.24902 9.00029 1.24902C8.58607 1.24902 8.25029 1.58481 8.25029 1.99902H9.75029ZM20.9714 15.999L21.7209 16.0247L20.9714 15.999ZM3.02922 9.99902L2.27966 9.97334L3.02922 9.99902ZM20.9714 9.99902L21.7209 9.97334L20.9714 9.99902ZM12.0003 21.249C10.1087 21.249 8.75028 21.248 7.69833 21.134C6.66042 21.0216 6.01021 20.8064 5.5022 20.4373L4.62052 21.6509C5.42685 22.2367 6.37123 22.499 7.53676 22.6253C8.68826 22.75 10.1421 22.749 12.0003 22.749V21.249ZM2.25029 12.999C2.25029 14.8572 2.24926 16.311 2.37402 17.4625C2.5003 18.6281 2.76261 19.5725 3.34844 20.3788L4.56197 19.4971C4.19288 18.9891 3.97774 18.3389 3.86529 17.301C3.75132 16.249 3.75029 14.8906 3.75029 12.999H2.25029ZM5.5022 20.4373C5.1414 20.1752 4.82411 19.8579 4.56197 19.4971L3.34844 20.3788C3.7031 20.8669 4.13238 21.2962 4.62052 21.6509L5.5022 20.4373ZM19.4386 19.4971C19.1765 19.8579 18.8592 20.1752 18.4984 20.4373L19.38 21.6509C19.8682 21.2962 20.2975 20.8669 20.6521 20.3788L19.4386 19.4971ZM18.4984 5.5607C18.8592 5.82284 19.1765 6.14013 19.4386 6.50093L20.6521 5.61926C20.2975 5.13111 19.8682 4.70183 19.38 4.34717L18.4984 5.5607ZM4.62052 4.34717C4.13238 4.70183 3.7031 5.13111 3.34844 5.61926L4.56197 6.50093C4.82411 6.14013 5.1414 5.82284 5.5022 5.5607L4.62052 4.34717ZM19.1008 15.3198C16.6404 15.7095 14.7108 17.6391 14.3211 20.0995L15.8026 20.3342C16.0906 18.5156 17.5169 17.0894 19.3354 16.8013L19.1008 15.3198ZM9.00029 14.749H15.0003V13.249H9.00029V14.749ZM20.9713 15.249C20.0891 15.249 19.5581 15.2474 19.1008 15.3198L19.3354 16.8013C19.6473 16.7519 20.0341 16.749 20.9714 16.749L20.9713 15.249ZM20.2503 12.999C20.2503 14.1721 20.2502 15.1446 20.2218 15.9733L21.7209 16.0247C21.7504 15.1648 21.7503 14.1638 21.7503 12.999H20.2503ZM20.2218 15.9733C20.1582 17.8283 19.9512 18.7916 19.4386 19.4971L20.6521 20.3788C21.454 19.2751 21.6567 17.8981 21.7209 16.0247L20.2218 15.9733ZM15.7503 21.9701C15.7503 21.0328 15.7532 20.646 15.8026 20.3342L14.3211 20.0995C14.2486 20.5569 14.2503 21.0878 14.2503 21.9701L15.7503 21.9701ZM12.0003 22.749C13.1651 22.749 14.166 22.7491 15.026 22.7196L14.9746 21.2205C14.1458 21.2489 13.1734 21.249 12.0003 21.249V22.749ZM15.026 22.7196C16.8994 22.6555 18.2764 22.4527 19.38 21.6509L18.4984 20.4373C17.7928 20.9499 16.8295 21.157 14.9746 21.2205L15.026 22.7196ZM3.75029 12.999C3.75029 11.8259 3.75038 10.8535 3.77878 10.0247L2.27966 9.97334C2.2502 10.8333 2.25029 11.8342 2.25029 12.999H3.75029ZM3.77878 10.0247C3.84233 8.16978 4.04936 7.20648 4.56197 6.50093L3.34844 5.61926C2.54659 6.72292 2.34385 8.09989 2.27966 9.97334L3.77878 10.0247ZM3.02922 10.749H20.9714V9.24902H3.02922V10.749ZM21.7503 12.999C21.7503 11.8342 21.7504 10.8333 21.7209 9.97334L20.2218 10.0247C20.2502 10.8535 20.2503 11.8259 20.2503 12.999H21.7503ZM21.7209 9.97334C21.6567 8.0999 21.454 6.72292 20.6521 5.61926L19.4386 6.50093C19.9512 7.20648 20.1582 8.16977 20.2218 10.0247L21.7209 9.97334ZM15.7503 4.99902V4.02795H14.2503V4.99902H15.7503ZM15.7503 4.02795V1.99902H14.2503V4.02795H15.7503ZM12.0003 4.74902C13.1734 4.74902 14.1458 4.74912 14.9746 4.77751L15.026 3.27839C14.166 3.24893 13.1651 3.24902 12.0003 3.24902V4.74902ZM14.9746 4.77751C16.8295 4.84106 17.7928 5.04809 18.4984 5.5607L19.38 4.34717C18.2764 3.54532 16.8994 3.34258 15.026 3.27839L14.9746 4.77751ZM9.75029 4.99902V4.02795H8.25029V4.99902H9.75029ZM9.75029 4.02795V1.99902H8.25029V4.02795H9.75029ZM12.0003 3.24902C10.8355 3.24902 9.83453 3.24893 8.97461 3.27839L9.02597 4.77751C9.85474 4.74912 10.8272 4.74902 12.0003 4.74902V3.24902ZM8.97461 3.27839C7.10116 3.34258 5.72418 3.54532 4.62052 4.34717L5.5022 5.5607C6.20775 5.04809 7.17104 4.84106 9.02597 4.77751L8.97461 3.27839Z" fill="black"/>
</svg>
