<svg width="24" height="24" viewBox="0 0 24 24" fill="none" xmlns="http://www.w3.org/2000/svg">
<path d="M8.63234 2.99321L8.13407 2.43265L8.13407 2.43265L8.63234 2.99321ZM15.3676 2.99321L15.8659 2.43265L15.8659 2.43265L15.3676 2.99321ZM15.1518 2.80143L14.6536 3.36198L14.6536 3.36198L15.1518 2.80143ZM8.84809 2.80143L9.34637 3.36198L9.34637 3.36198L8.84809 2.80143ZM4.06104 21.0448L4.50188 20.4381L4.06104 21.0448ZM2.95488 19.9387L3.56164 19.4978L2.95488 19.9387ZM21.045 19.9387L20.4383 19.4978L21.045 19.9387ZM19.9389 21.0448L19.498 20.4381L19.9389 21.0448ZM21.25 7.98469V12.9998H22.75V7.98469H21.25ZM13 21.2498H11V22.7498H13V21.2498ZM2.74997 12.9998V7.98469H1.24997V12.9998H2.74997ZM14.6536 3.36198L14.8693 3.55376L15.8659 2.43265L15.6501 2.24087L14.6536 3.36198ZM9.13061 3.55377L9.34637 3.36198L8.34982 2.24087L8.13407 2.43265L9.13061 3.55377ZM5.9849 4.74976C7.14455 4.74976 8.26388 4.3242 9.13061 3.55376L8.13407 2.43265C7.54191 2.95901 6.77718 3.24976 5.9849 3.24976V4.74976ZM14.8693 3.55376C15.736 4.3242 16.8554 4.74976 18.015 4.74976V3.24976C17.2227 3.24976 16.458 2.95901 15.8659 2.43265L14.8693 3.55376ZM15.6501 2.24087C13.5684 0.390495 10.4315 0.390495 8.34982 2.24087L9.34637 3.36198C10.8597 2.01679 13.1402 2.01679 14.6536 3.36198L15.6501 2.24087ZM11 21.2498C9.10839 21.2498 7.74996 21.2487 6.69801 21.1348C5.6601 21.0223 5.00988 20.8072 4.50188 20.4381L3.6202 21.6516C4.42652 22.2374 5.3709 22.4997 6.53644 22.626C7.68794 22.7508 9.1418 22.7498 11 22.7498V21.2498ZM1.24997 12.9998C1.24997 14.8579 1.24894 16.3118 1.37369 17.4633C1.49997 18.6288 1.76229 19.5732 2.34812 20.3795L3.56164 19.4978C3.19256 18.9898 2.97742 18.3396 2.86497 17.3017C2.75099 16.2498 2.74997 14.8913 2.74997 12.9998H1.24997ZM4.50188 20.4381C4.14108 20.1759 3.82378 19.8586 3.56164 19.4978L2.34812 20.3795C2.70278 20.8677 3.13206 21.2969 3.6202 21.6516L4.50188 20.4381ZM21.25 12.9998C21.25 14.8913 21.2489 16.2498 21.135 17.3017C21.0225 18.3396 20.8074 18.9898 20.4383 19.4978L21.6518 20.3795C22.2376 19.5732 22.5 18.6288 22.6262 17.4633C22.751 16.3118 22.75 14.8579 22.75 12.9998H21.25ZM13 22.7498C14.8581 22.7498 16.312 22.7508 17.4635 22.626C18.629 22.4997 19.5734 22.2374 20.3797 21.6516L19.498 20.4381C18.99 20.8072 18.3398 21.0223 17.3019 21.1348C16.25 21.2487 14.8915 21.2498 13 21.2498V22.7498ZM20.4383 19.4978C20.1761 19.8586 19.8588 20.1759 19.498 20.4381L20.3797 21.6516C20.8679 21.2969 21.2971 20.8677 21.6518 20.3795L20.4383 19.4978ZM22.75 7.98469C22.75 5.36966 20.6301 3.24976 18.015 3.24976V4.74976C19.8016 4.74976 21.25 6.19809 21.25 7.98469H22.75ZM2.74997 7.98469C2.74997 6.19809 4.19829 4.74976 5.9849 4.74976V3.24976C3.36987 3.24976 1.24997 5.36967 1.24997 7.98469H2.74997ZM7.24996 12.9998C7.24996 15.6231 9.37661 17.7498 12 17.7498V16.2498C10.205 16.2498 8.74996 14.7947 8.74996 12.9998H7.24996ZM12 17.7498C14.6233 17.7498 16.75 15.6231 16.75 12.9998H15.25C15.25 14.7947 13.7949 16.2498 12 16.2498V17.7498ZM16.75 12.9998C16.75 10.3764 14.6233 8.24976 12 8.24976V9.74976C13.7949 9.74976 15.25 11.2048 15.25 12.9998H16.75ZM12 8.24976C9.37661 8.24976 7.24996 10.3764 7.24996 12.9998H8.74996C8.74996 11.2048 10.205 9.74976 12 9.74976V8.24976Z" fill="black"/>
<path d="M17.0002 8.00006C17.0002 8.55262 17.4481 9.00055 18.0007 9.00055C18.5532 9.00055 19.0012 8.55262 19.0012 8.00006C19.0012 7.44751 18.5532 6.99957 18.0007 6.99957C17.4481 6.99957 17.0002 7.44751 17.0002 8.00006Z" fill="black"/>
</svg>
