<svg width="24" height="24" viewBox="0 0 24 24" fill="none" xmlns="http://www.w3.org/2000/svg">
<path d="M4.38729 20.7628L4.77917 20.1233L4.77917 20.1233L4.38729 20.7628ZM2.73659 19.1121L3.37607 18.7202L3.37607 18.7202L2.73659 19.1121ZM21.263 19.1121L20.6235 18.7202L20.6235 18.7202L21.263 19.1121ZM19.6123 20.7628L19.2204 20.1233L19.2204 20.1233L19.6123 20.7628ZM21.2498 8.42814V12.9996H22.7498V8.42814H21.2498ZM13.4998 20.7496H10.4998V22.2496H13.4998V20.7496ZM2.74979 12.9996V8.42814H1.24979V12.9996H2.74979ZM15.7498 2.74957V2.92814H17.2498V2.74957H15.7498ZM8.24978 2.92814V2.74957H6.74978V2.92814H8.24978ZM8.24978 2.74957C8.24978 2.19729 8.6975 1.74957 9.24978 1.74957V0.249573C7.86907 0.249573 6.74978 1.36886 6.74978 2.74957H8.24978ZM14.7498 1.74957C15.3021 1.74957 15.7498 2.19729 15.7498 2.74957H17.2498C17.2498 1.36886 16.1305 0.249573 14.7498 0.249573V1.74957ZM5.92836 5.24957C7.21044 5.24957 8.24978 4.21023 8.24978 2.92814H6.74978C6.74978 3.38181 6.38202 3.74957 5.92836 3.74957V5.24957ZM10.4998 20.7496C8.84855 20.7496 7.66278 20.7488 6.73787 20.6608C5.82412 20.574 5.24269 20.4073 4.77917 20.1233L3.99542 21.4022C4.73424 21.855 5.57234 22.0568 6.59589 22.1541C7.60828 22.2504 8.87759 22.2496 10.4998 22.2496V20.7496ZM1.24979 12.9996C1.24979 14.6218 1.249 15.8911 1.34525 16.9035C1.44257 17.927 1.64436 18.7651 2.09711 19.5039L3.37607 18.7202C3.09202 18.2567 2.9254 17.6752 2.83852 16.7615C2.75058 15.8366 2.74979 14.6508 2.74979 12.9996H1.24979ZM4.77917 20.1233C4.20731 19.7728 3.7265 19.292 3.37607 18.7202L2.09711 19.5039C2.57123 20.2776 3.22173 20.9281 3.99542 21.4022L4.77917 20.1233ZM21.2498 12.9996C21.2498 14.6508 21.249 15.8366 21.161 16.7615C21.0742 17.6752 20.9075 18.2567 20.6235 18.7202L21.9025 19.5039C22.3552 18.7651 22.557 17.927 22.6543 16.9035C22.7506 15.8911 22.7498 14.6218 22.7498 12.9996H21.2498ZM13.4998 22.2496C15.122 22.2496 16.3913 22.2504 17.4037 22.1541C18.4272 22.0568 19.2653 21.855 20.0041 21.4022L19.2204 20.1233C18.7569 20.4073 18.1754 20.574 17.2617 20.6608C16.3368 20.7488 15.151 20.7496 13.4998 20.7496V22.2496ZM20.6235 18.7202C20.2731 19.292 19.7923 19.7729 19.2204 20.1233L20.0041 21.4022C20.7778 20.9281 21.4283 20.2776 21.9025 19.5039L20.6235 18.7202ZM22.7498 8.42814C22.7498 5.84424 20.6551 3.74957 18.0712 3.74957V5.24957C19.8267 5.24957 21.2498 6.67267 21.2498 8.42814H22.7498ZM18.0712 3.74957C17.6175 3.74957 17.2498 3.38181 17.2498 2.92814H15.7498C15.7498 4.21023 16.7891 5.24957 18.0712 5.24957V3.74957ZM2.74979 8.42814C2.74979 6.67267 4.17288 5.24957 5.92836 5.24957V3.74957C3.34445 3.74957 1.24979 5.84424 1.24979 8.42814H2.74979ZM7.24978 12.4996C7.24978 15.1229 9.37643 17.2496 11.9998 17.2496V15.7496C10.2049 15.7496 8.74978 14.2945 8.74978 12.4996H7.24978ZM11.9998 17.2496C14.6231 17.2496 16.7498 15.1229 16.7498 12.4996H15.2498C15.2498 14.2945 13.7947 15.7496 11.9998 15.7496V17.2496ZM16.7498 12.4996C16.7498 9.87622 14.6231 7.74957 11.9998 7.74957V9.24957C13.7947 9.24957 15.2498 10.7046 15.2498 12.4996H16.7498ZM11.9998 7.74957C9.37643 7.74957 7.24978 9.87622 7.24978 12.4996H8.74978C8.74978 10.7046 10.2049 9.24957 11.9998 9.24957V7.74957ZM9.24978 1.74957H14.7498V0.249573H9.24978V1.74957Z" fill="black"/>
<path d="M17.0001 8.50018C17.0001 9.05274 17.448 9.50067 18.0005 9.50067C18.5531 9.50067 19.001 9.05274 19.001 8.50018C19.001 7.94763 18.5531 7.49969 18.0005 7.49969C17.448 7.49969 17.0001 7.94763 17.0001 8.50018Z" fill="black"/>
</svg>
