<svg width="24" height="24" viewBox="0 0 24 24" fill="none" xmlns="http://www.w3.org/2000/svg">
<g clip-path="url(#clip0_0_1)">
<path d="M1.99942 22.7497L21.9994 2.74969" stroke="black" stroke-width="1.5" stroke-linecap="round"/>
<path d="M8.24948 3.49963C8.24948 2.94735 8.6972 2.49963 9.24948 2.49963H14.7495C15.3018 2.49963 15.7495 2.94735 15.7495 3.49963V3.6782C15.7495 4.96029 16.7888 5.99963 18.0709 5.99963C18.3496 5.99963 18.62 6.03551 18.8776 6.1029C19.1999 6.18722 19.5554 6.13306 19.791 5.89746C20.1553 5.53316 20.0801 4.92028 19.5929 4.75276C19.1157 4.5887 18.6037 4.49963 18.0709 4.49963C17.6172 4.49963 17.2495 4.13187 17.2495 3.6782V3.49963C17.2495 2.11892 16.1302 0.999634 14.7495 0.999634H9.24948C7.86877 0.999634 6.74948 2.11892 6.74948 3.49963V3.6782C6.74948 4.13187 6.38171 4.49963 5.92805 4.49963C3.34415 4.49963 1.24948 6.5943 1.24948 9.1782V13.789C1.24948 15.3924 1.24947 16.6493 1.34495 17.6535C1.44227 18.6771 1.64405 19.5152 2.0968 20.254C2.40711 20.7604 2.79298 21.214 3.23949 21.5999C3.5046 21.829 3.89778 21.7907 4.14556 21.5429L4.78277 20.9057C4.79224 20.8962 4.79029 20.8803 4.77886 20.8733C4.207 20.5229 3.7262 20.0421 3.37576 19.4702C3.09171 19.0067 2.92509 18.4253 2.83821 17.5115C2.75027 16.5866 2.74948 15.4009 2.74948 13.7496V9.1782C2.74948 7.42273 4.17258 5.99963 5.92805 5.99963C7.21014 5.99963 8.24948 4.96029 8.24948 3.6782V3.49963Z" fill="black"/>
<path d="M6.73757 21.4109C6.54476 21.3926 6.35228 21.4575 6.21533 21.5944L6.14761 21.6622C5.70371 22.1061 5.90968 22.8358 6.53434 22.8982C6.55468 22.9002 6.5751 22.9022 6.59559 22.9042C7.59976 22.9996 8.8567 22.9996 10.46 22.9996H13.5388C15.1422 22.9996 16.3992 22.9996 17.4034 22.9042C18.4269 22.8068 19.265 22.6051 20.0038 22.1523C20.7775 21.6782 21.428 21.0277 21.9022 20.254C22.3549 19.5152 22.5567 18.6771 22.654 17.6535C22.7495 16.6494 22.7495 15.3924 22.7495 13.7891V9.1782C22.7495 8.32748 22.5224 7.5298 22.1256 6.84244C21.9016 6.45446 21.3758 6.43402 21.059 6.75079C20.7861 7.02364 20.7693 7.45368 20.9366 7.80137C21.1371 8.21794 21.2495 8.68495 21.2495 9.1782V13.7496C21.2495 15.4009 21.2487 16.5866 21.1607 17.5115C21.0739 18.4253 20.9072 19.0067 20.6232 19.4702C20.2728 20.0421 19.792 20.5229 19.2201 20.8733C18.7566 21.1574 18.1751 21.324 17.2614 21.4109C16.3365 21.4988 15.1507 21.4996 13.4995 21.4996H10.4995C8.84824 21.4996 7.66248 21.4988 6.73757 21.4109Z" fill="black"/>
<path d="M15.5035 12.3062C15.9241 11.8856 16.6314 12.0357 16.7088 12.6255C16.7356 12.8297 16.7495 13.0381 16.7495 13.2496C16.7495 15.873 14.6228 17.9996 11.9995 17.9996C11.7879 17.9996 11.5796 17.9858 11.3753 17.959C10.7855 17.8816 10.6355 17.1743 11.0561 16.7537C11.2529 16.5569 11.5344 16.4785 11.8123 16.4943C11.8742 16.4978 11.9366 16.4996 11.9995 16.4996C13.7944 16.4996 15.2495 15.0446 15.2495 13.2496C15.2495 13.1868 15.2477 13.1244 15.2442 13.0624C15.2284 12.7846 15.3068 12.503 15.5035 12.3062Z" fill="black"/>
<path d="M15.0813 10.6071C15.3566 10.3318 15.3745 9.88479 15.0782 9.63231C14.2491 8.92596 13.1741 8.49963 11.9995 8.49963C9.37613 8.49963 7.24948 10.6263 7.24948 13.2496C7.24948 14.4242 7.67581 15.4992 8.38216 16.3283C8.63464 16.6247 9.08166 16.6068 9.35695 16.3315C9.66503 16.0234 9.6327 15.519 9.37534 15.1674C8.98182 14.6298 8.74948 13.9669 8.74948 13.2496C8.74948 11.4547 10.2046 9.99963 11.9995 9.99963C12.7167 9.99963 13.3797 10.232 13.9172 10.6255C14.2688 10.8829 14.7733 10.9152 15.0813 10.6071Z" fill="black"/>
</g>
<defs>
<clipPath id="clip0_0_1">
<rect width="24" height="24" fill="black" transform="translate(-0.000244141 -0.000305176)"/>
</clipPath>
</defs>
</svg>
