<svg width="24" height="24" viewBox="0 0 24 24" fill="none" xmlns="http://www.w3.org/2000/svg">
<path d="M2.00046 22.1462L22.0004 2.14618" stroke="black" stroke-width="1.5" stroke-linecap="round"/>
<path d="M15.6504 2.38735C13.5687 0.536979 10.4318 0.536979 8.35012 2.38735L8.13436 2.57914C7.5422 3.1055 6.77747 3.39625 5.98519 3.39625C3.37016 3.39625 1.25026 5.51615 1.25026 8.13118V13.1915C1.25025 15.028 1.25024 16.4676 1.37399 17.6098C1.50027 18.7753 1.76258 19.7197 2.34841 20.526C2.6462 20.9359 2.99659 21.3042 3.39026 21.6218C3.41398 21.6409 3.44839 21.6375 3.46993 21.6159L3.558 21.5279C4.05343 21.0324 3.97376 20.2112 3.56194 19.6443C3.19285 19.1363 2.97771 18.4861 2.86526 17.4482C2.75129 16.3963 2.75026 15.0378 2.75026 13.1462V8.13118C2.75026 6.34458 4.19859 4.89625 5.98519 4.89625C7.14484 4.89625 8.26417 4.47068 9.13091 3.70025L9.34666 3.50847C10.86 2.16327 13.1405 2.16327 14.6539 3.50847L14.8696 3.70025C15.7363 4.47068 16.8557 4.89625 18.0153 4.89625C18.4179 4.89625 18.8034 4.9698 19.159 5.10421C19.4964 5.23178 19.8906 5.19529 20.1457 4.94018C20.4844 4.60149 20.4397 4.03492 20.0052 3.8334C19.4002 3.55284 18.726 3.39625 18.0153 3.39625C17.223 3.39625 16.4583 3.1055 15.8662 2.57914L15.6504 2.38735Z" fill="black"/>
<path d="M22.3131 6.14136C22.1116 5.70683 21.545 5.66215 21.2063 6.00084C20.9512 6.25595 20.9147 6.65008 21.0423 6.98756C21.1767 7.34312 21.2503 7.72856 21.2503 8.13118V13.1462C21.2503 15.0378 21.2492 16.3963 21.1353 17.4482C21.0228 18.4861 20.8077 19.1363 20.4386 19.6443C20.1764 20.0051 19.8591 20.3224 19.4983 20.5846C18.9903 20.9537 18.3401 21.1688 17.3022 21.2812C16.2503 21.3952 14.8918 21.3962 13.0003 21.3962H11.0003C9.10869 21.3962 7.75025 21.3952 6.6983 21.2812C6.61315 21.272 6.53061 21.2621 6.45054 21.2515C6.18238 21.2158 5.90921 21.298 5.71793 21.4892C5.29183 21.9153 5.46544 22.6206 6.06119 22.7111C6.21555 22.7346 6.37398 22.7549 6.53673 22.7725C7.67885 22.8963 9.11842 22.8963 10.9549 22.8962H13.0455C14.882 22.8963 16.3217 22.8963 17.4638 22.7725C18.6293 22.6462 19.5737 22.3839 20.38 21.7981C20.8682 21.4434 21.2974 21.0142 21.6521 20.526C22.2379 19.7197 22.5002 18.7753 22.6265 17.6098C22.7503 16.4677 22.7503 15.0281 22.7503 13.1916V8.13118C22.7503 7.42046 22.5937 6.74631 22.3131 6.14136Z" fill="black"/>
<path d="M10.6211 16.586C10.2316 16.9756 10.3397 17.6322 10.8751 17.7622C11.2358 17.8498 11.6126 17.8962 12.0003 17.8962C14.6236 17.8962 16.7503 15.7696 16.7503 13.1462C16.7503 12.7586 16.7038 12.3818 16.6162 12.0211C16.4862 11.4857 15.8296 11.3776 15.4401 11.7671C15.2227 11.9845 15.1553 12.3048 15.2059 12.608C15.2351 12.7831 15.2503 12.9629 15.2503 13.1462C15.2503 14.9412 13.7952 16.3962 12.0003 16.3962C11.8169 16.3962 11.6371 16.3811 11.462 16.3519C11.1588 16.3013 10.8385 16.3687 10.6211 16.586Z" fill="black"/>
<path d="M14.7923 10.2935C14.5015 10.5843 14.0342 10.5781 13.6825 10.365C13.1918 10.0675 12.616 9.89625 12.0003 9.89625C10.2053 9.89625 8.75026 11.3513 8.75026 13.1462C8.75026 13.762 8.9215 14.3378 9.21896 14.8285C9.43212 15.1802 9.43831 15.6475 9.14753 15.9383C8.85216 16.2337 8.36688 16.2343 8.125 15.8937C7.57413 15.1181 7.25026 14.17 7.25026 13.1462C7.25026 10.5229 9.37691 8.39625 12.0003 8.39625C13.024 8.39625 13.9721 8.72012 14.7477 9.27099C15.0883 9.51287 15.0877 9.99815 14.7923 10.2935Z" fill="black"/>
</svg>
