<svg width="24" height="24" viewBox="0 0 24 24" fill="none" xmlns="http://www.w3.org/2000/svg">
<path d="M3.99963 6.99975C3.99963 6.06787 3.99963 5.60193 4.15187 5.23439C4.35486 4.74433 4.74421 4.35498 5.23427 4.152C5.60181 3.99976 6.06775 3.99976 6.99963 3.99976C7.93152 3.99976 8.39746 3.99976 8.765 4.152C9.25505 4.35498 9.6444 4.74433 9.84739 5.23439C9.99963 5.60193 9.99963 6.06787 9.99963 6.99975C9.99963 7.93164 9.99963 8.39758 9.84739 8.76512C9.6444 9.25518 9.25505 9.64452 8.765 9.84751C8.39746 9.99975 7.93152 9.99975 6.99963 9.99975C6.06775 9.99975 5.60181 9.99975 5.23427 9.84751C4.74421 9.64452 4.35486 9.25518 4.15187 8.76512C3.99963 8.39758 3.99963 7.93164 3.99963 6.99975Z" stroke="black" stroke-width="1.5"/>
<path d="M13.9996 6.99975C13.9996 6.06787 13.9996 5.60193 14.1519 5.23439C14.3549 4.74433 14.7442 4.35498 15.2343 4.152C15.6018 3.99976 16.0677 3.99976 16.9996 3.99976C17.9315 3.99976 18.3975 3.99976 18.765 4.152C19.2551 4.35498 19.6444 4.74433 19.8474 5.23439C19.9996 5.60193 19.9996 6.06787 19.9996 6.99975C19.9996 7.93164 19.9996 8.39758 19.8474 8.76512C19.6444 9.25518 19.2551 9.64452 18.765 9.84751C18.3975 9.99975 17.9315 9.99975 16.9996 9.99975C16.0677 9.99975 15.6018 9.99975 15.2343 9.84751C14.7442 9.64452 14.3549 9.25518 14.1519 8.76512C13.9996 8.39758 13.9996 7.93164 13.9996 6.99975Z" stroke="black" stroke-width="1.5"/>
<path d="M3.99963 16.9998C3.99963 16.0679 3.99963 15.6019 4.15187 15.2344C4.35486 14.7443 4.74421 14.355 5.23427 14.152C5.60181 13.9998 6.06775 13.9998 6.99963 13.9998C7.93152 13.9998 8.39746 13.9998 8.765 14.152C9.25505 14.355 9.6444 14.7443 9.84739 15.2344C9.99963 15.6019 9.99963 16.0679 9.99963 16.9998C9.99963 17.9316 9.99963 18.3976 9.84739 18.7651C9.6444 19.2552 9.25505 19.6445 8.765 19.8475C8.39746 19.9997 7.93152 19.9997 6.99963 19.9997C6.06775 19.9997 5.60181 19.9997 5.23427 19.8475C4.74421 19.6445 4.35486 19.2552 4.15187 18.7651C3.99963 18.3976 3.99963 17.9316 3.99963 16.9998Z" stroke="black" stroke-width="1.5"/>
<path d="M13.9996 16.9998C13.9996 16.0679 13.9996 15.6019 14.1519 15.2344C14.3549 14.7443 14.7442 14.355 15.2343 14.152C15.6018 13.9998 16.0677 13.9998 16.9996 13.9998C17.9315 13.9998 18.3975 13.9998 18.765 14.152C19.2551 14.355 19.6444 14.7443 19.8474 15.2344C19.9996 15.6019 19.9996 16.0679 19.9996 16.9998C19.9996 17.9316 19.9996 18.3976 19.8474 18.7651C19.6444 19.2552 19.2551 19.6445 18.765 19.8475C18.3975 19.9997 17.9315 19.9997 16.9996 19.9997C16.0677 19.9997 15.6018 19.9997 15.2343 19.8475C14.7442 19.6445 14.3549 19.2552 14.1519 18.7651C13.9996 18.3976 13.9996 17.9316 13.9996 16.9998Z" stroke="black" stroke-width="1.5"/>
</svg>
