<svg width="24" height="24" viewBox="0 0 24 24" fill="none" xmlns="http://www.w3.org/2000/svg">
<path d="M5.06132 20.045L5.35521 19.6404L5.06132 20.045ZM3.95516 18.9388L4.35967 18.6449L3.95516 18.9388ZM20.0453 18.9388L19.6408 18.6449L20.0453 18.9388ZM18.9392 20.045L18.6453 19.6404L18.9392 20.045ZM18.9392 3.95479L18.6453 4.3593L18.9392 3.95479ZM20.0453 5.06095L19.6408 5.35484L20.0453 5.06095ZM5.06132 3.95479L5.35521 4.3593L5.06132 3.95479ZM3.95516 5.06095L4.35967 5.35484L3.95516 5.06095ZM16.5002 10.9999C16.5002 10.7237 16.2764 10.4999 16.0002 10.4999C15.7241 10.4999 15.5002 10.7237 15.5002 10.9999H16.5002ZM15.5002 16.9999C15.5002 17.276 15.7241 17.4999 16.0002 17.4999C16.2764 17.4999 16.5002 17.276 16.5002 16.9999H15.5002ZM12.5002 6.99988C12.5002 6.72373 12.2764 6.49988 12.0002 6.49988C11.7241 6.49988 11.5002 6.72373 11.5002 6.99988H12.5002ZM11.5002 16.9999C11.5002 17.276 11.7241 17.4999 12.0002 17.4999C12.2764 17.4999 12.5002 17.276 12.5002 16.9999H11.5002ZM8.50024 12.9999C8.50024 12.7237 8.27638 12.4999 8.00024 12.4999C7.7241 12.4999 7.50024 12.7237 7.50024 12.9999H8.50024ZM7.50024 16.9999C7.50024 17.276 7.7241 17.4999 8.00024 17.4999C8.27638 17.4999 8.50024 17.276 8.50024 16.9999H7.50024ZM12.0002 20.4999C10.1142 20.4999 8.7399 20.4992 7.67136 20.3834C6.61218 20.2687 5.91293 20.0457 5.35521 19.6404L4.76742 20.4495C5.52403 20.9992 6.41938 21.2536 7.56365 21.3776C8.69855 21.5006 10.1365 21.4999 12.0002 21.4999V20.4999ZM2.50024 11.9999C2.50024 13.8636 2.49956 15.3016 2.62252 16.4365C2.74649 17.5807 3.00095 18.4761 3.55065 19.2327L4.35967 18.6449C3.95446 18.0872 3.73145 17.3879 3.6167 16.3288C3.50093 15.2602 3.50024 13.8859 3.50024 11.9999H2.50024ZM5.35521 19.6404C4.97318 19.3629 4.63723 19.0269 4.35967 18.6449L3.55065 19.2327C3.88989 19.6996 4.3005 20.1102 4.76742 20.4495L5.35521 19.6404ZM20.5002 11.9999C20.5002 13.8859 20.4996 15.2602 20.3838 16.3288C20.269 17.3879 20.046 18.0872 19.6408 18.6449L20.4498 19.2327C20.9995 18.4761 21.254 17.5807 21.378 16.4365C21.5009 15.3016 21.5002 13.8636 21.5002 11.9999H20.5002ZM12.0002 21.4999C13.864 21.4999 15.3019 21.5006 16.4368 21.3776C17.5811 21.2536 18.4765 20.9992 19.2331 20.4495L18.6453 19.6404C18.0875 20.0457 17.3883 20.2687 16.3291 20.3834C15.2606 20.4992 13.8862 20.4999 12.0002 20.4999V21.4999ZM19.6408 18.6449C19.3633 19.0269 19.0273 19.3629 18.6453 19.6404L19.2331 20.4495C19.7 20.1102 20.1106 19.6996 20.4498 19.2327L19.6408 18.6449ZM12.0002 3.49988C13.8862 3.49988 15.2606 3.50056 16.3291 3.61633C17.3883 3.73109 18.0875 3.95409 18.6453 4.3593L19.2331 3.55028C18.4765 3.00058 17.5811 2.74612 16.4368 2.62215C15.3019 2.49919 13.864 2.49988 12.0002 2.49988V3.49988ZM21.5002 11.9999C21.5002 10.1361 21.5009 8.69819 21.378 7.56328C21.254 6.41901 20.9995 5.52366 20.4498 4.76706L19.6408 5.35484C20.046 5.91257 20.269 6.61181 20.3838 7.67099C20.4996 8.73953 20.5002 10.1139 20.5002 11.9999H21.5002ZM18.6453 4.3593C19.0273 4.63686 19.3633 4.97282 19.6408 5.35484L20.4498 4.76706C20.1106 4.30014 19.7 3.88952 19.2331 3.55028L18.6453 4.3593ZM12.0002 2.49988C10.1365 2.49988 8.69855 2.49919 7.56365 2.62215C6.41938 2.74612 5.52403 3.00058 4.76742 3.55028L5.35521 4.3593C5.91293 3.95409 6.61218 3.73109 7.67136 3.61633C8.7399 3.50056 10.1142 3.49988 12.0002 3.49988V2.49988ZM3.50024 11.9999C3.50024 10.1139 3.50093 8.73953 3.6167 7.67099C3.73145 6.61181 3.95446 5.91257 4.35967 5.35484L3.55065 4.76706C3.00095 5.52366 2.74649 6.41901 2.62252 7.56328C2.49956 8.69819 2.50024 10.1361 2.50024 11.9999H3.50024ZM4.76742 3.55028C4.3005 3.88952 3.88989 4.30014 3.55065 4.76706L4.35967 5.35484C4.63723 4.97282 4.97318 4.63686 5.35521 4.3593L4.76742 3.55028ZM15.5002 10.9999V16.9999H16.5002V10.9999H15.5002ZM11.5002 6.99988V16.9999H12.5002V6.99988H11.5002ZM7.50024 12.9999V16.9999H8.50024V12.9999H7.50024Z" fill="black"/>
</svg>
