<svg width="24" height="24" viewBox="0 0 24 24" fill="none" xmlns="http://www.w3.org/2000/svg">
<path d="M5.06136 20.0448L5.5022 19.4381L5.06136 20.0448ZM3.9552 18.9387L4.56197 18.4978L3.9552 18.9387ZM20.0454 18.9387L19.4386 18.4978L20.0454 18.9387ZM18.9392 20.0448L18.4984 19.4381L18.9392 20.0448ZM18.9392 3.95467L18.4984 4.56143L18.9392 3.95467ZM20.0454 5.06083L19.4386 5.50167L20.0454 5.06083ZM5.06136 3.95467L5.5022 4.56143L5.06136 3.95467ZM3.9552 5.06083L4.56197 5.50167L3.9552 5.06083ZM10.4093 9.59074C10.1164 9.29785 9.64153 9.29785 9.34864 9.59074C9.05574 9.88364 9.05574 10.3585 9.34864 10.6514L10.4093 9.59074ZM13.5913 14.894C13.8842 15.1869 14.359 15.1869 14.6519 14.894C14.9448 14.6011 14.9448 14.1263 14.6519 13.8334L13.5913 14.894ZM9.34864 13.8334C9.05574 14.1263 9.05574 14.6011 9.34864 14.894C9.64153 15.1869 10.1164 15.1869 10.4093 14.894L9.34864 13.8334ZM14.6519 10.6514C14.9448 10.3585 14.9448 9.88364 14.6519 9.59074C14.359 9.29785 13.8842 9.29785 13.5913 9.59074L14.6519 10.6514ZM12.0003 20.2497C10.1087 20.2497 8.75028 20.2487 7.69833 20.1347C6.66042 20.0223 6.01021 19.8072 5.5022 19.4381L4.62052 20.6516C5.42685 21.2374 6.37123 21.4997 7.53676 21.626C8.68826 21.7508 10.1421 21.7497 12.0003 21.7497V20.2497ZM2.25029 11.9998C2.25029 13.8579 2.24926 15.3118 2.37402 16.4633C2.5003 17.6288 2.76261 18.5732 3.34844 19.3795L4.56197 18.4978C4.19288 17.9898 3.97774 17.3396 3.86529 16.3017C3.75132 15.2498 3.75029 13.8913 3.75029 11.9998H2.25029ZM5.5022 19.4381C5.1414 19.1759 4.82411 18.8586 4.56197 18.4978L3.34844 19.3795C3.7031 19.8677 4.13238 20.2969 4.62052 20.6516L5.5022 19.4381ZM20.2503 11.9998C20.2503 13.8913 20.2493 15.2498 20.1353 16.3017C20.0228 17.3396 19.8077 17.9898 19.4386 18.4978L20.6521 19.3795C21.238 18.5732 21.5003 17.6288 21.6266 16.4633C21.7513 15.3118 21.7503 13.8579 21.7503 11.9998H20.2503ZM12.0003 21.7497C13.8584 21.7497 15.3123 21.7508 16.4638 21.626C17.6293 21.4997 18.5737 21.2374 19.38 20.6516L18.4984 19.4381C17.9904 19.8072 17.3402 20.0223 16.3022 20.1347C15.2503 20.2487 13.8919 20.2497 12.0003 20.2497V21.7497ZM19.4386 18.4978C19.1765 18.8586 18.8592 19.1759 18.4984 19.4381L19.38 20.6516C19.8682 20.2969 20.2975 19.8677 20.6521 19.3795L19.4386 18.4978ZM12.0003 3.74976C13.8919 3.74976 15.2503 3.75079 16.3022 3.86476C17.3401 3.97721 17.9904 4.19235 18.4984 4.56143L19.38 3.34791C18.5737 2.76208 17.6293 2.49976 16.4638 2.37348C15.3123 2.24873 13.8584 2.24976 12.0003 2.24976V3.74976ZM21.7503 11.9998C21.7503 10.1416 21.7513 8.68773 21.6266 7.53623C21.5003 6.37069 21.238 5.42631 20.6521 4.61999L19.4386 5.50167C19.8077 6.00967 20.0228 6.65989 20.1353 7.6978C20.2493 8.74975 20.2503 10.1082 20.2503 11.9998H21.7503ZM18.4984 4.56143C18.8592 4.82357 19.1765 5.14087 19.4386 5.50167L20.6521 4.61999C20.2975 4.13184 19.8682 3.70256 19.38 3.34791L18.4984 4.56143ZM12.0003 2.24976C10.1421 2.24976 8.68826 2.24873 7.53676 2.37348C6.37123 2.49976 5.42685 2.76208 4.62052 3.34791L5.5022 4.56143C6.01021 4.19235 6.66042 3.97721 7.69833 3.86476C8.75028 3.75079 10.1087 3.74976 12.0003 3.74976V2.24976ZM3.75029 11.9998C3.75029 10.1082 3.75132 8.74975 3.86529 7.6978C3.97774 6.65989 4.19288 6.00967 4.56197 5.50167L3.34844 4.61999C2.76261 5.42631 2.5003 6.37069 2.37402 7.53623C2.24926 8.68773 2.25029 10.1416 2.25029 11.9998H3.75029ZM4.62052 3.34791C4.13238 3.70257 3.7031 4.13185 3.34844 4.61999L4.56197 5.50167C4.82411 5.14087 5.1414 4.82357 5.5022 4.56143L4.62052 3.34791ZM9.34864 10.6514L13.5913 14.894L14.6519 13.8334L10.4093 9.59074L9.34864 10.6514ZM10.4093 14.894L14.6519 10.6514L13.5913 9.59074L9.34864 13.8334L10.4093 14.894Z" fill="black"/>
</svg>
