<svg width="24" height="24" viewBox="0 0 24 24" fill="none" xmlns="http://www.w3.org/2000/svg">
<path d="M10.4087 9.59086C10.1158 9.29797 9.64091 9.29797 9.34801 9.59086C9.05512 9.88376 9.05512 10.3586 9.34801 10.6515L10.4087 9.59086ZM13.5907 14.8942C13.8835 15.1871 14.3584 15.1871 14.6513 14.8942C14.9442 14.6013 14.9442 14.1264 14.6513 13.8335L13.5907 14.8942ZM9.34801 13.8335C9.05512 14.1264 9.05512 14.6013 9.34801 14.8942C9.64091 15.1871 10.1158 15.1871 10.4087 14.8942L9.34801 13.8335ZM14.6513 10.6515C14.9442 10.3586 14.9442 9.88376 14.6513 9.59086C14.3584 9.29797 13.8835 9.29797 13.5907 9.59086L14.6513 10.6515ZM9.34801 10.6515L13.5907 14.8942L14.6513 13.8335L10.4087 9.59086L9.34801 10.6515ZM10.4087 14.8942L14.6513 10.6515L13.5907 9.59086L9.34801 13.8335L10.4087 14.8942ZM21.2497 11.9999C21.2497 17.1085 17.1083 21.2499 11.9997 21.2499V22.7499C17.9367 22.7499 22.7497 17.9369 22.7497 11.9999H21.2497ZM11.9997 21.2499C6.89103 21.2499 2.74967 17.1085 2.74967 11.9999H1.24967C1.24967 17.9369 6.0626 22.7499 11.9997 22.7499V21.2499ZM2.74967 11.9999C2.74967 6.89124 6.89103 2.74988 11.9997 2.74988V1.24988C6.0626 1.24988 1.24967 6.06281 1.24967 11.9999H2.74967ZM11.9997 2.74988C17.1083 2.74988 21.2497 6.89124 21.2497 11.9999H22.7497C22.7497 6.06281 17.9367 1.24988 11.9997 1.24988V2.74988Z" fill="black"/>
</svg>
