<svg width="24" height="24" viewBox="0 0 24 24" fill="none" xmlns="http://www.w3.org/2000/svg">
<path d="M13.7256 12.063L10.9033 17.3636C10.7644 17.6245 10.695 17.7549 10.6183 17.8805C10.4779 18.1105 10.319 18.3289 10.1434 18.5333C10.0475 18.6449 9.94481 18.7512 9.7394 18.9636C7.91176 20.8538 6.99794 21.7989 6.44133 21.9372C5.39678 22.1969 4.33407 21.5833 4.03668 20.5489C3.87821 19.9977 4.23977 18.7337 4.96289 16.2059C5.04416 15.9218 5.0848 15.7797 5.13352 15.6409C5.22276 15.3865 5.33243 15.1398 5.46144 14.9031C5.53187 14.774 5.61009 14.6486 5.76654 14.3979L8.94589 9.30347M5.81658 4.89719C6.30904 4.27295 7.12872 4.00634 7.89418 4.22142L8.89714 4.50323C9.46256 4.6621 9.74527 4.74153 10.031 4.7387C10.1475 4.73755 10.2636 4.72622 10.3781 4.70486C10.659 4.65244 10.9234 4.51866 11.4524 4.2511C13.3485 3.29197 14.2965 2.81241 15.0814 3.06776C15.3074 3.14127 15.5184 3.25446 15.7047 3.40203C16.3517 3.91461 16.4755 4.95943 16.7231 7.04908L16.7722 7.46345C16.8402 8.0374 16.8742 8.32437 16.984 8.58486C17.0145 8.65734 17.0493 8.72796 17.0882 8.79634C17.2278 9.04211 17.4346 9.24396 17.8482 9.64766L18.6526 10.4328C19.2216 10.9882 19.4006 11.8313 19.1062 12.5699C18.662 13.6844 17.3327 14.1456 16.2938 13.5458L6.3777 7.8207C5.33875 7.22087 5.07353 5.83904 5.81658 4.89719Z" stroke="black" stroke-width="1.5"/>
</svg>
