<svg width="24" height="24" viewBox="0 0 24 24" fill="none" xmlns="http://www.w3.org/2000/svg">
<path d="M1.99997 3.06775C1.58576 3.06775 1.24997 3.40354 1.24997 3.81775C1.24997 4.23197 1.58576 4.56775 1.99997 4.56775V3.06775ZM22 20.9314C22.4142 20.9314 22.75 20.5956 22.75 20.1814C22.75 19.7672 22.4142 19.4314 22 19.4314V20.9314ZM4.56815 1.99957C4.56815 1.58536 4.23236 1.24957 3.81815 1.24957C3.40394 1.24957 3.06815 1.58536 3.06815 1.99957H4.56815ZM19.4318 21.9996C19.4318 22.4138 19.7676 22.7496 20.1819 22.7496C20.5961 22.7496 20.9318 22.4138 20.9318 21.9995L19.4318 21.9996ZM3.81815 4.56775H10.1818V3.06775H3.81815V4.56775ZM19.4318 13.8177V20.1814H20.9318V13.8177H19.4318ZM20.1818 19.4314H13.8181V20.9314H20.1818V19.4314ZM4.56815 10.1814V3.81775H3.06815V10.1814H4.56815ZM13.8181 19.4314C11.4399 19.4314 9.7317 19.4298 8.43172 19.255C7.15332 19.0831 6.3826 18.7562 5.81295 18.1866L4.75229 19.2472C5.6471 20.1421 6.78712 20.5474 8.23185 20.7416C9.65501 20.933 11.4823 20.9314 13.8181 20.9314V19.4314ZM3.06815 10.1814C3.06815 12.5172 3.06656 14.3445 3.2579 15.7677C3.45214 17.2124 3.85748 18.3524 4.75229 19.2472L5.81295 18.1866C5.24329 17.6169 4.9164 16.8462 4.74452 15.5678C4.56974 14.2678 4.56815 12.5596 4.56815 10.1814H3.06815ZM10.1818 4.56775C12.56 4.56775 14.2682 4.56935 15.5682 4.74412C16.8466 4.916 17.6173 5.24289 18.187 5.81255L19.2476 4.75189C18.3528 3.85708 17.2128 3.45174 15.7681 3.2575C14.3449 3.06616 12.5176 3.06775 10.1818 3.06775V4.56775ZM20.9318 13.8177C20.9318 11.4819 20.9334 9.65462 20.742 8.23146C20.5478 6.78672 20.1425 5.6467 19.2476 4.75189L18.187 5.81255C18.7566 6.3822 19.0835 7.15293 19.2554 8.43133C19.4302 9.73131 19.4318 11.4395 19.4318 13.8177H20.9318ZM1.99997 4.56775H3.81815V3.06775H1.99997V4.56775ZM22 19.4314H20.1818V20.9314H22V19.4314ZM3.06815 1.99957V3.81775H4.56815V1.99957H3.06815ZM20.9318 21.9995L20.9318 20.1814L19.4318 20.1814L19.4318 21.9996L20.9318 21.9995Z" fill="black"/>
</svg>
