<svg width="24" height="24" viewBox="0 0 24 24" fill="none" xmlns="http://www.w3.org/2000/svg">
<path d="M2.00003 3.06769C1.58582 3.06769 1.25003 3.40348 1.25003 3.81769C1.25003 4.23191 1.58582 4.56769 2.00003 4.56769V3.06769ZM22 20.9313C22.4142 20.9313 22.75 20.5955 22.75 20.1813C22.75 19.7671 22.4142 19.4313 22 19.4313V20.9313ZM4.56821 1.99951C4.56821 1.5853 4.23242 1.24951 3.81821 1.24951C3.404 1.24951 3.06821 1.5853 3.06821 1.99951H4.56821ZM19.4319 21.9995C19.4319 22.4137 19.7677 22.7495 20.1819 22.7495C20.5961 22.7495 20.9319 22.4137 20.9319 21.9995L19.4319 21.9995ZM5.50003 18.4995L6.03036 19.0298L6.03036 19.0298L5.50003 18.4995ZM22.0304 3.02984C22.3232 2.73695 22.3232 2.26207 22.0304 1.96918C21.7375 1.67629 21.2626 1.67629 20.9697 1.96918L22.0304 3.02984ZM3.81821 4.56769H10.1818V3.06769H3.81821V4.56769ZM19.4318 13.8177V20.1813H20.9318V13.8177H19.4318ZM20.1818 19.4313H13.8182V20.9313H20.1818V19.4313ZM4.56821 10.1813V3.81769H3.06821V10.1813H4.56821ZM13.8182 19.4313C11.44 19.4313 9.73176 19.4297 8.43178 19.255C7.15338 19.0831 6.38266 18.7562 5.81301 18.1865L4.75235 19.2472C5.64716 20.142 6.78718 20.5473 8.23191 20.7416C9.65507 20.9329 11.4824 20.9313 13.8182 20.9313V19.4313ZM3.06821 10.1813C3.06821 12.5171 3.06662 14.3445 3.25796 15.7676C3.4522 17.2124 3.85754 18.3524 4.75235 19.2472L5.81301 18.1865C5.24335 17.6169 4.91646 16.8461 4.74458 15.5677C4.5698 14.2678 4.56821 12.5595 4.56821 10.1813H3.06821ZM10.1818 4.56769C12.5601 4.56769 14.2683 4.56929 15.5683 4.74406C16.8467 4.91594 17.6174 5.24283 18.187 5.81249L19.2477 4.75183C18.3529 3.85702 17.2129 3.45168 15.7681 3.25744C14.345 3.0661 12.5177 3.06769 10.1818 3.06769V4.56769ZM20.9318 13.8177C20.9318 11.4819 20.9334 9.65456 20.7421 8.2314C20.5479 6.78666 20.1425 5.64664 19.2477 4.75183L18.187 5.81249C18.7567 6.38214 19.0836 7.15286 19.2555 8.43127C19.4302 9.73125 19.4318 11.4395 19.4318 13.8177H20.9318ZM2.00003 4.56769H3.81821V3.06769H2.00003V4.56769ZM22 19.4313H20.1818V20.9313H22V19.4313ZM3.06821 1.99951V3.81769H4.56821V1.99951H3.06821ZM20.9319 21.9995L20.9318 20.1813L19.4318 20.1813L19.4319 21.9995L20.9319 21.9995ZM6.03036 19.0298L22.0304 3.02984L20.9697 1.96918L4.9697 17.9692L6.03036 19.0298ZM4.9697 17.9692L4.75235 18.1865L5.81301 19.2472L6.03036 19.0298L4.9697 17.9692Z" fill="black"/>
</svg>
