<svg width="24" height="24" viewBox="0 0 24 24" fill="none" xmlns="http://www.w3.org/2000/svg">
<path d="M2.00012 3.06775C1.58591 3.06775 1.25012 3.40354 1.25012 3.81775C1.25012 4.23197 1.58591 4.56775 2.00012 4.56775V3.06775ZM22.0001 20.9314C22.4143 20.9314 22.7501 20.5956 22.7501 20.1814C22.7501 19.7672 22.4143 19.4314 22.0001 19.4314V20.9314ZM4.5683 1.99957C4.5683 1.58536 4.23252 1.24957 3.8183 1.24957C3.40409 1.24957 3.0683 1.58536 3.0683 1.99957H4.5683ZM19.432 21.9996C19.432 22.4138 19.7678 22.7496 20.182 22.7496C20.5962 22.7496 20.932 22.4138 20.932 21.9995L19.432 21.9996ZM3.8183 4.56775H10.1819V3.06775H3.8183V4.56775ZM19.4319 13.8177V20.1814H20.9319V13.8177H19.4319ZM20.1819 19.4314H13.8183V20.9314H20.1819V19.4314ZM4.5683 10.1814V3.81775H3.0683V10.1814H4.5683ZM13.8183 19.4314C11.4401 19.4314 9.73185 19.4298 8.43188 19.255C7.15347 19.0831 6.38275 18.7562 5.8131 18.1866L4.75244 19.2472C5.64725 20.1421 6.78727 20.5474 8.232 20.7416C9.65516 20.933 11.4825 20.9314 13.8183 20.9314V19.4314ZM3.0683 10.1814C3.0683 12.5172 3.06671 14.3445 3.25805 15.7677C3.45229 17.2124 3.85763 18.3524 4.75244 19.2472L5.8131 18.1866C5.24344 17.6169 4.91655 16.8462 4.74467 15.5678C4.5699 14.2678 4.5683 12.5596 4.5683 10.1814H3.0683ZM10.1819 4.56775C12.5602 4.56775 14.2684 4.56935 15.5684 4.74412C16.8468 4.916 17.6175 5.24289 18.1871 5.81255L19.2478 4.75189C18.353 3.85708 17.213 3.45174 15.7682 3.2575C14.3451 3.06616 12.5178 3.06775 10.1819 3.06775V4.56775ZM20.9319 13.8177C20.9319 11.4819 20.9335 9.65462 20.7422 8.23146C20.5479 6.78672 20.1426 5.6467 19.2478 4.75189L18.1871 5.81255C18.7568 6.3822 19.0837 7.15293 19.2556 8.43133C19.4303 9.73131 19.4319 11.4395 19.4319 13.8177H20.9319ZM2.00012 4.56775H3.8183V3.06775H2.00012V4.56775ZM22.0001 19.4314H20.1819V20.9314H22.0001V19.4314ZM3.0683 1.99957V3.81775H4.5683V1.99957H3.0683ZM20.932 21.9995L20.9319 20.1814L19.4319 20.1814L19.432 21.9996L20.932 21.9995ZM13.2501 11.9996C13.2501 12.6899 12.6905 13.2496 12.0001 13.2496V14.7496C13.5189 14.7496 14.7501 13.5184 14.7501 11.9996H13.2501ZM12.0001 13.2496C11.3098 13.2496 10.7501 12.6899 10.7501 11.9996H9.25012C9.25012 13.5184 10.4813 14.7496 12.0001 14.7496V13.2496ZM10.7501 11.9996C10.7501 11.3092 11.3098 10.7496 12.0001 10.7496V9.24957C10.4813 9.24957 9.25012 10.4808 9.25012 11.9996H10.7501ZM12.0001 10.7496C12.6905 10.7496 13.2501 11.3092 13.2501 11.9996H14.7501C14.7501 10.4808 13.5189 9.24957 12.0001 9.24957V10.7496Z" fill="black"/>
</svg>
