<svg width="24" height="24" viewBox="0 0 24 24" fill="none" xmlns="http://www.w3.org/2000/svg">
<path d="M8.68454 20.9595L8.58967 21.7034L8.68454 20.9595ZM4.25937 16.0677L4.99916 15.9444L4.99916 15.9444L4.25937 16.0677ZM4.52862 17.4389L5.24688 17.223L5.24688 17.223L4.52862 17.4389ZM15.9034 16.0677L16.6431 16.191L16.6431 16.191L15.9034 16.0677ZM15.6341 17.4389L14.9158 17.223L15.6341 17.4389ZM11.4782 20.9595L11.5731 21.7034L11.4782 20.9595ZM13.6971 3.23565L13.9248 2.52106L13.6971 3.23565ZM16.7662 10.8908L16.0264 10.7675L16.0264 10.7675L16.7662 10.8908ZM17.1278 7.28543L17.8701 7.17829L17.1278 7.28543ZM6.46561 3.23565L6.2379 2.52106L6.46561 3.23565ZM3.39656 10.8908L2.65676 11.0141L2.65676 11.0141L3.39656 10.8908ZM3.03494 7.28543L2.29263 7.17829L3.03494 7.28543ZM6.38464 16.0387C6.45657 16.4466 6.84557 16.719 7.25349 16.6471C7.66141 16.5752 7.93378 16.1862 7.86186 15.7782L6.38464 16.0387ZM6.81997 9.86939C6.74804 9.46147 6.35905 9.1891 5.95113 9.26103C5.54321 9.33295 5.27083 9.72195 5.34276 10.1299L6.81997 9.86939ZM16.0264 10.7675L15.1636 15.9444L16.6431 16.191L17.506 11.0141L16.0264 10.7675ZM4.99916 15.9444L4.13635 10.7675L2.65676 11.0141L3.51957 16.191L4.99916 15.9444ZM10.0814 20.2496C9.33821 20.2496 9.03546 20.2481 8.7794 20.2155L8.58967 21.7034C8.96352 21.7511 9.38202 21.7496 10.0814 21.7496V20.2496ZM3.51957 16.191C3.63454 16.8808 3.70188 17.2938 3.81036 17.6548L5.24688 17.223C5.17257 16.9758 5.12134 16.6774 4.99916 15.9444L3.51957 16.191ZM8.7794 20.2155C7.11424 20.0032 5.73007 18.8306 5.24688 17.223L3.81036 17.6548C4.4641 19.8297 6.3368 21.4162 8.58967 21.7034L8.7794 20.2155ZM15.1636 15.9444C15.0414 16.6774 14.9901 16.9758 14.9158 17.223L16.3524 17.6548C16.4608 17.2938 16.5282 16.8808 16.6431 16.191L15.1636 15.9444ZM10.0814 21.7496C10.7807 21.7496 11.1992 21.7511 11.5731 21.7034L11.3833 20.2155C11.1273 20.2481 10.8245 20.2496 10.0814 20.2496V21.7496ZM14.9158 17.223C14.4326 18.8306 13.0485 20.0032 11.3833 20.2155L11.5731 21.7034C13.8259 21.4162 15.6986 19.8297 16.3524 17.6548L14.9158 17.223ZM10.0814 3.74963C12.0588 3.74963 12.8685 3.75878 13.4694 3.95025L13.9248 2.52106C13.0443 2.24049 11.9373 2.24963 10.0814 2.24963V3.74963ZM17.506 11.0141C17.8111 9.18337 18.0021 8.09292 17.8701 7.17829L16.3855 7.39256C16.4756 8.01674 16.3515 8.81692 16.0264 10.7675L17.506 11.0141ZM13.4694 3.95025C15.0205 4.4445 16.1529 5.78133 16.3855 7.39256L17.8701 7.17829C17.5555 4.9984 16.0233 3.18975 13.9248 2.52106L13.4694 3.95025ZM10.0814 2.24963C8.2254 2.24963 7.11838 2.24049 6.2379 2.52106L6.69332 3.95025C7.2942 3.75878 8.10389 3.74963 10.0814 3.74963V2.24963ZM4.13635 10.7675C3.81126 8.81692 3.68716 8.01674 3.77725 7.39256L2.29263 7.17829C2.16063 8.09292 2.35164 9.18337 2.65676 11.0141L4.13635 10.7675ZM6.2379 2.52106C4.13939 3.18975 2.60723 4.9984 2.29263 7.17829L3.77725 7.39256C4.00978 5.78133 5.14224 4.4445 6.69332 3.95025L6.2379 2.52106ZM19.3314 11.9996C19.3314 13.2423 18.324 14.2496 17.0814 14.2496V15.7496C19.1524 15.7496 20.8314 14.0707 20.8314 11.9996H19.3314ZM17.0814 9.74963C18.324 9.74963 19.3314 10.757 19.3314 11.9996H20.8314C20.8314 9.92856 19.1524 8.24963 17.0814 8.24963V9.74963ZM17.0814 14.2496C16.817 14.2496 16.5649 14.2044 16.3313 14.1218L15.8314 15.5361C16.2234 15.6746 16.6444 15.7496 17.0814 15.7496V14.2496ZM7.86186 15.7782L6.81997 9.86939L5.34276 10.1299L6.38464 16.0387L7.86186 15.7782Z" fill="black"/>
</svg>
