<svg width="24" height="24" viewBox="0 0 24 24" fill="none" xmlns="http://www.w3.org/2000/svg">
<path d="M13.0013 16C13.0013 16.5526 12.5533 17.0005 12.0008 17.0005C11.4482 17.0005 11.0003 16.5526 11.0003 16C11.0003 15.4474 11.4482 14.9995 12.0008 14.9995C12.5533 14.9995 13.0013 15.4474 13.0013 16Z" fill="black"/>
<path d="M12.7498 7C12.7498 6.58578 12.414 6.25 11.9998 6.25C11.5856 6.25 11.2498 6.58578 11.2498 7H12.7498ZM11.2498 13C11.2498 13.4142 11.5856 13.75 11.9998 13.75C12.414 13.75 12.7498 13.4142 12.7498 13H11.2498ZM11.2498 7V13H12.7498V7H11.2498ZM21.2498 12C21.2498 17.1086 17.1084 21.25 11.9998 21.25V22.75C17.9368 22.75 22.7498 17.9371 22.7498 12H21.2498ZM11.9998 21.25C6.89115 21.25 2.74979 17.1086 2.74979 12H1.24979C1.24979 17.9371 6.06272 22.75 11.9998 22.75V21.25ZM2.74979 12C2.74979 6.89136 6.89115 2.75 11.9998 2.75V1.25C6.06272 1.25 1.24979 6.06294 1.24979 12H2.74979ZM11.9998 2.75C17.1084 2.75 21.2498 6.89136 21.2498 12H22.7498C22.7498 6.06294 17.9368 1.25 11.9998 1.25V2.75Z" fill="black"/>
</svg>
