<svg width="24" height="24" viewBox="0 0 24 24" fill="none" xmlns="http://www.w3.org/2000/svg">
<path d="M11.9995 7V13M11.9995 21C7.45238 21 5.1788 21 3.86447 20.0451C2.71806 19.2122 1.97891 17.9319 1.83079 16.5226C1.66097 14.9069 2.79776 12.938 5.07135 9C7.34493 5.06204 8.48172 3.09306 9.96587 2.43227C11.2604 1.85591 12.7387 1.85591 14.0332 2.43227C15.5174 3.09306 16.6542 5.06204 18.9277 9C21.2013 12.938 22.3381 14.9069 22.1683 16.5226C22.0202 17.9319 21.281 19.2122 20.1346 20.0451C18.8203 21 16.5467 21 11.9995 21Z" stroke="black" stroke-width="1.5" stroke-linecap="round"/>
<path d="M13.0005 16C13.0005 16.5526 12.5525 17.0005 12 17.0005C11.4474 17.0005 10.9995 16.5526 10.9995 16C10.9995 15.4474 11.4474 14.9995 12 14.9995C12.5525 14.9995 13.0005 15.4474 13.0005 16Z" fill="black"/>
</svg>
