<svg width="24" height="24" viewBox="0 0 24 24" fill="none" xmlns="http://www.w3.org/2000/svg">
<path d="M18.5173 12.7795L19.2601 12.8829L19.2601 12.8829L18.5173 12.7795ZM18.2549 14.6645L18.9978 14.7679L18.9978 14.7679L18.2549 14.6645ZM5.74522 14.6645L6.48806 14.5611L6.48806 14.5611L5.74522 14.6645ZM5.48288 12.7795L4.74004 12.8829L4.74004 12.8829L5.48288 12.7795ZM9.18373 21.7368L8.89214 22.4278L8.89214 22.4278L9.18373 21.7368ZM6.47517 18.5603L7.17915 18.3017L7.17915 18.3017L6.47517 18.5603ZM17.525 18.5603L18.229 18.819L18.229 18.819L17.525 18.5603ZM14.8164 21.7368L14.5248 21.0458L14.5248 21.0458L14.8164 21.7368ZM5.74672 8.92906C5.70754 8.5167 5.3415 8.21418 4.92914 8.25336C4.51679 8.29254 4.21427 8.65858 4.25345 9.07094L5.74672 8.92906ZM19.7467 9.07094C19.7859 8.65858 19.4834 8.29254 19.071 8.25336C18.6587 8.21418 18.2926 8.5167 18.2534 8.92906L19.7467 9.07094ZM20.0001 7.75C20.4143 7.75 20.7501 7.41421 20.7501 7C20.7501 6.58578 20.4143 6.25 20.0001 6.25V7.75ZM4.00008 6.25C3.58587 6.25 3.25008 6.58578 3.25008 7C3.25008 7.41421 3.58587 7.75 4.00008 7.75V6.25ZM16.0001 7V7.75H16.7501V7H16.0001ZM8.00008 7H7.25008V7.75H8.00008V7ZM17.7744 12.6761L17.5121 14.5611L18.9978 14.7679L19.2601 12.8829L17.7744 12.6761ZM6.48806 14.5611L6.22573 12.6761L4.74004 12.8829L5.00238 14.7679L6.48806 14.5611ZM12.0001 21.25C10.4709 21.25 9.92552 21.2358 9.47532 21.0458L8.89214 22.4278C9.68923 22.7642 10.6057 22.75 12.0001 22.75V21.25ZM5.00238 14.7679C5.28208 16.7777 5.43415 17.9017 5.77118 18.819L7.17915 18.3017C6.91164 17.5736 6.77859 16.6487 6.48806 14.5611L5.00238 14.7679ZM9.47532 21.0458C8.55288 20.6566 7.69504 19.7058 7.17915 18.3017L5.77118 18.819C6.38579 20.4918 7.48214 21.8328 8.89214 22.4278L9.47532 21.0458ZM17.5121 14.5611C17.2216 16.6487 17.0885 17.5736 16.821 18.3017L18.229 18.819C18.566 17.9017 18.7181 16.7777 18.9978 14.7679L17.5121 14.5611ZM12.0001 22.75C13.3945 22.75 14.3109 22.7642 15.108 22.4278L14.5248 21.0458C14.0746 21.2358 13.5292 21.25 12.0001 21.25V22.75ZM16.821 18.3017C16.3051 19.7058 15.4473 20.6566 14.5248 21.0458L15.108 22.4278C16.518 21.8328 17.6144 20.4918 18.229 18.819L16.821 18.3017ZM6.22573 12.6761C6.0036 11.08 5.83774 9.88702 5.74672 8.92906L4.25345 9.07094C4.34827 10.069 4.5197 11.2995 4.74004 12.8829L6.22573 12.6761ZM19.2601 12.8829C19.4805 11.2995 19.6519 10.069 19.7467 9.07094L18.2534 8.92906C18.1624 9.88702 17.9966 11.08 17.7744 12.6761L19.2601 12.8829ZM20.0001 6.25H4.00008V7.75H20.0001V6.25ZM15.2501 6V7H16.7501V6H15.2501ZM16.0001 6.25H8.00008V7.75H16.0001V6.25ZM8.75008 7V6H7.25008V7H8.75008ZM12.0001 2.75C13.795 2.75 15.2501 4.20507 15.2501 6H16.7501C16.7501 3.37665 14.6234 1.25 12.0001 1.25V2.75ZM12.0001 1.25C9.37673 1.25 7.25008 3.37665 7.25008 6H8.75008C8.75008 4.20507 10.2052 2.75 12.0001 2.75V1.25Z" fill="black"/>
</svg>
