<svg width="24" height="24" viewBox="0 0 24 24" fill="none" xmlns="http://www.w3.org/2000/svg">
<path d="M18.5171 12.7794L19.26 12.8827L19.26 12.8827L18.5171 12.7794ZM18.2548 14.6644L18.9976 14.7678L18.9976 14.7678L18.2548 14.6644ZM5.74506 14.6644L6.4879 14.561L6.4879 14.561L5.74506 14.6644ZM5.48272 12.7794L4.73988 12.8828L4.73988 12.8828L5.48272 12.7794ZM9.18357 21.7367L8.89198 22.4277L8.89198 22.4277L9.18357 21.7367ZM6.47501 18.5602L7.17899 18.3015L7.17899 18.3015L6.47501 18.5602ZM17.5248 18.5602L18.2288 18.8188L18.2288 18.8188L17.5248 18.5602ZM14.8163 21.7367L14.5247 21.0457L14.5247 21.0457L14.8163 21.7367ZM5.74656 8.92893C5.70738 8.51658 5.34134 8.21406 4.92898 8.25324C4.51663 8.29242 4.21411 8.65846 4.25329 9.07081L5.74656 8.92893ZM19.7466 9.07082C19.7857 8.65846 19.4832 8.29242 19.0709 8.25324C18.6585 8.21406 18.2925 8.51658 18.2533 8.92893L19.7466 9.07082ZM19.9999 7.74988C20.4141 7.74988 20.7499 7.41409 20.7499 6.99988C20.7499 6.58566 20.4141 6.24988 19.9999 6.24988V7.74988ZM3.99992 6.24988C3.58571 6.24988 3.24992 6.58566 3.24992 6.99988C3.24992 7.41409 3.58571 7.74988 3.99992 7.74988V6.24988ZM9.24992 17.9999C9.24992 18.4141 9.58571 18.7499 9.99992 18.7499C10.4141 18.7499 10.7499 18.4141 10.7499 17.9999H9.24992ZM10.7499 9.99987C10.7499 9.58566 10.4141 9.24987 9.99992 9.24987C9.58571 9.24987 9.24992 9.58566 9.24992 9.99987H10.7499ZM13.2499 17.9999C13.2499 18.4141 13.5857 18.7499 13.9999 18.7499C14.4141 18.7499 14.7499 18.4141 14.7499 17.9999H13.2499ZM14.7499 9.99987C14.7499 9.58566 14.4141 9.24987 13.9999 9.24987C13.5857 9.24987 13.2499 9.58566 13.2499 9.99987H14.7499ZM15.9999 6.99988V7.74988H16.7499V6.99988H15.9999ZM7.99992 6.99988H7.24992V7.74988H7.99992V6.99988ZM17.7743 12.676L17.5119 14.561L18.9976 14.7678L19.26 12.8827L17.7743 12.676ZM6.4879 14.561L6.22556 12.676L4.73988 12.8828L5.00222 14.7678L6.4879 14.561ZM11.9999 21.2499C10.4708 21.2499 9.92536 21.2357 9.47516 21.0457L8.89198 22.4277C9.68907 22.7641 10.6055 22.7499 11.9999 22.7499V21.2499ZM5.00222 14.7678C5.28192 16.7776 5.43399 17.9015 5.77102 18.8188L7.17899 18.3015C6.91148 17.5734 6.77843 16.6486 6.4879 14.561L5.00222 14.7678ZM9.47516 21.0457C8.55272 20.6564 7.69488 19.7057 7.17899 18.3015L5.77102 18.8188C6.38563 20.4917 7.48198 21.8327 8.89198 22.4277L9.47516 21.0457ZM17.5119 14.561C17.2214 16.6486 17.0884 17.5734 16.8208 18.3015L18.2288 18.8188C18.5659 17.9015 18.7179 16.7776 18.9976 14.7678L17.5119 14.561ZM11.9999 22.7499C13.3943 22.7499 14.3108 22.7641 15.1079 22.4277L14.5247 21.0457C14.0745 21.2357 13.5291 21.2499 11.9999 21.2499V22.7499ZM16.8208 18.3015C16.305 19.7057 15.4471 20.6564 14.5247 21.0457L15.1079 22.4277C16.5179 21.8327 17.6142 20.4917 18.2288 18.8188L16.8208 18.3015ZM6.22556 12.676C6.00344 11.0799 5.83758 9.8869 5.74656 8.92893L4.25329 9.07081C4.34811 10.0688 4.51954 11.2994 4.73988 12.8828L6.22556 12.676ZM19.26 12.8827C19.4803 11.2994 19.6517 10.0688 19.7466 9.07082L18.2533 8.92893C18.1623 9.8869 17.9964 11.0799 17.7743 12.676L19.26 12.8827ZM19.9999 6.24988H3.99992V7.74988H19.9999V6.24988ZM10.7499 17.9999V9.99987H9.24992V17.9999H10.7499ZM14.7499 17.9999V9.99987H13.2499V17.9999H14.7499ZM15.2499 5.99988V6.99988H16.7499V5.99988H15.2499ZM15.9999 6.24988H7.99992V7.74988H15.9999V6.24988ZM8.74992 6.99988V5.99988H7.24992V6.99988H8.74992ZM11.9999 2.74988C13.7948 2.74988 15.2499 4.20495 15.2499 5.99988H16.7499C16.7499 3.37652 14.6233 1.24988 11.9999 1.24988V2.74988ZM11.9999 1.24988C9.37657 1.24988 7.24992 3.37652 7.24992 5.99988H8.74992C8.74992 4.20495 10.205 2.74988 11.9999 2.74988V1.24988Z" fill="black"/>
</svg>
