<svg width="24" height="24" viewBox="0 0 24 24" fill="none" xmlns="http://www.w3.org/2000/svg">
<path d="M7.23732 3.75018C9.44333 2.47654 10.5463 1.83972 11.7525 1.77983C11.9177 1.77163 12.0832 1.77163 12.2484 1.77983C13.4546 1.83972 14.5576 2.47654 16.7636 3.75018C18.9696 5.02382 20.0726 5.66064 20.7276 6.67528C20.8173 6.81424 20.9 6.95756 20.9755 7.10472C21.5267 8.17925 21.5267 9.4529 21.5267 12.0002C21.5267 14.5475 21.5267 15.8211 20.9755 16.8956C20.9 17.0428 20.8173 17.1861 20.7276 17.3251C20.0726 18.3397 18.9696 18.9765 16.7636 20.2502C14.5576 21.5238 13.4546 22.1606 12.2484 22.2205C12.0832 22.2287 11.9177 22.2287 11.7525 22.2205C10.5463 22.1606 9.44333 21.5238 7.23732 20.2502C5.03131 18.9765 3.92831 18.3397 3.27335 17.3251C3.18365 17.1861 3.10091 17.0428 3.02541 16.8956C2.47418 15.8211 2.47418 14.5475 2.47418 12.0002C2.47418 9.4529 2.47418 8.17925 3.02541 7.10472C3.10091 6.95756 3.18365 6.81424 3.27335 6.67528C3.92831 5.66064 5.03131 5.02382 7.23732 3.75018Z" stroke="black" stroke-width="1.5"/>
<path d="M10.0164 11.1041C10.2195 10.6109 10.6111 10.2193 11.1043 10.0162L13.7811 8.91398C14.6031 8.57554 15.425 9.39747 15.0866 10.2194L13.9843 12.8963C13.7813 13.3894 13.3896 13.7811 12.8965 13.9841L10.2196 15.0864C9.39765 15.4248 8.57572 14.6029 8.91416 13.781L10.0164 11.1041Z" stroke="black" stroke-width="1.5"/>
</svg>
