<svg width="24" height="24" viewBox="0 0 24 24" fill="none" xmlns="http://www.w3.org/2000/svg">
<path d="M20.2498 7.23799C21.5234 9.444 22.1603 10.547 22.2202 11.7532C22.2284 11.9184 22.2284 12.0839 22.2202 12.2491C22.1603 13.4553 21.5234 14.5583 20.2498 16.7643C18.9762 18.9703 18.3393 20.0733 17.3247 20.7282C17.1857 20.8179 17.0424 20.9007 16.8953 20.9762C15.8207 21.5274 14.5471 21.5274 11.9998 21.5274C9.45253 21.5274 8.17889 21.5274 7.10436 20.9762C6.9572 20.9007 6.81388 20.8179 6.67492 20.7282C5.66027 20.0733 5.02345 18.9703 3.74981 16.7643C2.47617 14.5583 1.83935 13.4553 1.77947 12.2491C1.77127 12.0839 1.77127 11.9184 1.77947 11.7532C1.83935 10.547 2.47617 9.444 3.74981 7.23799C5.02345 5.03198 5.66027 3.92898 6.67492 3.27402C6.81388 3.18432 6.9572 3.10158 7.10436 3.02608C8.17889 2.47485 9.45253 2.47485 11.9998 2.47485C14.5471 2.47485 15.8207 2.47485 16.8953 3.02608C17.0424 3.10158 17.1857 3.18432 17.3247 3.27402C18.3393 3.92898 18.9762 5.03198 20.2498 7.23799Z" stroke="black" stroke-width="1.5"/>
<path d="M10.0159 11.105C10.2189 10.6119 10.6105 10.2202 11.1037 10.0172L13.7806 8.91493C14.6025 8.57649 15.4245 9.39842 15.086 10.2204L13.9838 12.8972C13.7807 13.3904 13.3891 13.782 12.8959 13.9851L10.219 15.0873C9.3971 15.4258 8.57517 14.6038 8.91361 13.7819L10.0159 11.105Z" stroke="black" stroke-width="1.5"/>
</svg>
