<svg width="24" height="24" viewBox="0 0 24 24" fill="none" xmlns="http://www.w3.org/2000/svg">
<path d="M2.99976 14.4993C2.99976 15.88 4.11904 16.9993 5.49976 16.9993C6.88047 16.9993 7.99975 15.88 7.99975 14.4993V6.49933C7.99975 5.11862 6.88047 3.99933 5.49976 3.99933C4.11904 3.99933 2.99976 5.11862 2.99976 6.49933V14.4993Z" stroke="black" stroke-width="1.5"/>
<path d="M11.5752 19.8094L9.34463 16.1848C8.74576 15.2116 8.44633 14.725 8.26526 14.1918C8.21003 14.0291 8.16322 13.8637 8.12501 13.6963C7.99975 13.1472 7.99975 12.5759 7.99975 11.4332V7.99933C7.99975 5.79019 9.79061 3.99933 11.9998 3.99933H14.9096C16.8034 3.99933 18.5348 5.06934 19.3817 6.76326L20.5302 9.06029C21.6648 11.3295 20.0147 13.9993 17.4777 13.9993H16.788C15.059 13.9993 13.7368 15.5405 13.9998 17.2493L14.2428 18.8291C14.3779 19.7073 13.6984 20.4993 12.8099 20.4993C12.3064 20.4993 11.839 20.2381 11.5752 19.8094Z" stroke="black" stroke-width="1.5"/>
</svg>
