<svg width="24" height="24" viewBox="0 0 24 24" fill="none" xmlns="http://www.w3.org/2000/svg">
<g clip-path="url(#clip0_0_1)">
<path d="M3.72953 18.4547L4.07002 17.7864L3.72953 18.4547ZM1.54445 16.2696L2.2127 15.9291L1.54445 16.2696ZM22.4545 16.2696L21.7863 15.9291L22.4545 16.2696ZM20.2694 18.4547L19.9289 17.7864L20.2694 18.4547ZM20.2694 3.5446L19.9289 4.21286L20.2694 3.5446ZM22.4545 5.72968L21.7863 6.07017L22.4545 5.72968ZM3.72953 3.5446L4.07002 4.21286L3.72953 3.5446ZM1.54445 5.72968L2.2127 6.07017L1.54445 5.72968ZM7.81758 22.272C7.41573 22.3725 7.17141 22.7797 7.27187 23.1815C7.37233 23.5834 7.77953 23.8277 8.18138 23.7272L7.81758 22.272ZM9.57412 22.606L9.39222 21.8784L9.39222 21.8784L9.57412 22.606ZM14.4248 22.606L14.6067 21.8784L14.6067 21.8784L14.4248 22.606ZM15.8176 23.7272C16.2194 23.8277 16.6266 23.5834 16.7271 23.1815C16.8275 22.7797 16.5832 22.3725 16.1814 22.272L15.8176 23.7272ZM12.7495 18.9996C12.7495 18.5854 12.4137 18.2496 11.9995 18.2496C11.5853 18.2496 11.2495 18.5854 11.2495 18.9996H12.7495ZM11.9995 22.3074L11.9995 23.0574L11.9995 22.3074ZM8.99948 3.74963H14.9995V2.24963H8.99948V3.74963ZM14.9995 18.2496H8.99948V19.7496H14.9995V18.2496ZM8.99948 18.2496C7.58697 18.2496 6.5727 18.249 5.77656 18.184C4.98918 18.1197 4.48145 17.996 4.07002 17.7864L3.38903 19.1229C4.04716 19.4582 4.77427 19.6071 5.65441 19.679C6.5258 19.7502 7.61172 19.7496 8.99948 19.7496V18.2496ZM0.249481 10.9996C0.249481 12.3874 0.248897 13.4733 0.320092 14.3447C0.392003 15.2248 0.540859 15.9519 0.876193 16.6101L2.2127 15.9291C2.00307 15.5177 1.87944 15.0099 1.81511 14.2225C1.75006 13.4264 1.74948 12.4121 1.74948 10.9996H0.249481ZM4.07002 17.7864C3.27033 17.3789 2.62016 16.7288 2.2127 15.9291L0.876193 16.6101C1.42746 17.692 2.3071 18.5716 3.38903 19.1229L4.07002 17.7864ZM22.2495 10.9996C22.2495 12.4121 22.2489 13.4264 22.1838 14.2225C22.1195 15.0099 21.9959 15.5177 21.7863 15.9291L23.1228 16.6101C23.4581 15.9519 23.6069 15.2248 23.6789 14.3447C23.7501 13.4733 23.7495 12.3874 23.7495 10.9996H22.2495ZM14.9995 19.7496C16.3872 19.7496 17.4732 19.7502 18.3445 19.679C19.2247 19.6071 19.9518 19.4582 20.6099 19.1229L19.9289 17.7864C19.5175 17.996 19.0098 18.1197 18.2224 18.184C17.4263 18.249 16.412 18.2496 14.9995 18.2496V19.7496ZM21.7863 15.9291C21.3788 16.7288 20.7286 17.3789 19.9289 17.7864L20.6099 19.1229C21.6919 18.5716 22.5715 17.692 23.1228 16.6101L21.7863 15.9291ZM14.9995 3.74963C16.412 3.74963 17.4263 3.75022 18.2224 3.81526C19.0098 3.8796 19.5175 4.00322 19.9289 4.21286L20.6099 2.87635C19.9518 2.54101 19.2247 2.39216 18.3445 2.32025C17.4732 2.24905 16.3872 2.24963 14.9995 2.24963V3.74963ZM23.7495 10.9996C23.7495 9.61188 23.7501 8.52595 23.6789 7.65457C23.6069 6.77443 23.4581 6.04732 23.1228 5.38919L21.7863 6.07017C21.9959 6.4816 22.1195 6.98934 22.1838 7.77672C22.2489 8.57285 22.2495 9.58712 22.2495 10.9996H23.7495ZM19.9289 4.21286C20.7286 4.62032 21.3788 5.27048 21.7863 6.07017L23.1228 5.38919C22.5715 4.30726 21.6919 3.42762 20.6099 2.87635L19.9289 4.21286ZM8.99948 2.24963C7.61172 2.24963 6.5258 2.24905 5.65441 2.32025C4.77427 2.39216 4.04716 2.54101 3.38903 2.87635L4.07002 4.21286C4.48145 4.00322 4.98918 3.8796 5.77656 3.81526C6.5727 3.75022 7.58697 3.74963 8.99948 3.74963V2.24963ZM1.74948 10.9996C1.74948 9.58712 1.75006 8.57285 1.81511 7.77672C1.87944 6.98934 2.00307 6.4816 2.2127 6.07017L0.876193 5.38919C0.540859 6.04732 0.392003 6.77443 0.320092 7.65457C0.248897 8.52595 0.249481 9.61188 0.249481 10.9996H1.74948ZM3.38903 2.87635C2.3071 3.42762 1.42746 4.30726 0.876193 5.38919L2.2127 6.07017C2.62016 5.27048 3.27033 4.62032 4.07002 4.21286L3.38903 2.87635ZM8.18138 23.7272L9.75602 23.3336L9.39222 21.8784L7.81758 22.272L8.18138 23.7272ZM14.2429 23.3336L15.8176 23.7272L16.1814 22.272L14.6067 21.8784L14.2429 23.3336ZM12.7495 21.9996V18.9996H11.2495V21.9996H12.7495ZM9.75602 23.3336C10.4925 23.1494 11.246 23.0574 11.9995 23.0574L11.9995 21.5574C11.1238 21.5574 10.2481 21.6644 9.39222 21.8784L9.75602 23.3336ZM11.9995 23.0574C12.753 23.0574 13.5064 23.1494 14.2429 23.3336L14.6067 21.8784C13.7508 21.6644 12.8751 21.5574 11.9995 21.5574L11.9995 23.0574ZM11.2495 21.9996V22.3074H12.7495V21.9996H11.2495Z" fill="black"/>
</g>
<defs>
<clipPath id="clip0_0_1">
<rect width="24" height="24" fill="black" transform="translate(0.000244141 -0.000244141)"/>
</clipPath>
</defs>
</svg>
