<svg width="24" height="24" viewBox="0 0 24 24" fill="none" xmlns="http://www.w3.org/2000/svg">
<g clip-path="url(#clip0_0_1)">
<path d="M3.73037 18.4547L4.07086 17.7864L3.73037 18.4547ZM1.54529 16.2696L2.21354 15.9291L1.54529 16.2696ZM22.4553 16.2696L21.7871 15.9291L22.4553 16.2696ZM20.2703 18.4547L19.9298 17.7864L20.2703 18.4547ZM20.2703 3.5446L19.9298 4.21286L20.2703 3.5446ZM22.4553 5.72968L21.7871 6.07017L22.4553 5.72968ZM3.73037 3.5446L4.07086 4.21286L3.73037 3.5446ZM1.54529 5.72968L2.21354 6.07017L1.54529 5.72968ZM7.81842 22.272C7.41657 22.3725 7.17225 22.7797 7.27271 23.1815C7.37317 23.5834 7.78037 23.8277 8.18222 23.7272L7.81842 22.272ZM9.57496 22.606L9.39306 21.8784L9.39306 21.8784L9.57496 22.606ZM14.4257 22.606L14.6076 21.8784L14.6076 21.8784L14.4257 22.606ZM15.8184 23.7272C16.2203 23.8277 16.6275 23.5834 16.7279 23.1815C16.8284 22.7797 16.5841 22.3725 16.1822 22.272L15.8184 23.7272ZM12.7503 18.9996C12.7503 18.5854 12.4145 18.2496 12.0003 18.2496C11.5861 18.2496 11.2503 18.5854 11.2503 18.9996H12.7503ZM12.0003 15.2496C11.5861 15.2496 11.2503 15.5854 11.2503 15.9996C11.2503 16.4138 11.5861 16.7496 12.0003 16.7496L12.0003 15.2496ZM18.0003 16.7496C18.4145 16.7496 18.7503 16.4138 18.7503 15.9996C18.7503 15.5854 18.4145 15.2496 18.0003 15.2496L18.0003 16.7496ZM12.0003 22.3074L12.0003 23.0574L12.0003 22.3074ZM9.00032 3.74963H15.0003V2.24963H9.00032V3.74963ZM15.0003 18.2496H9.00032V19.7496H15.0003V18.2496ZM9.00032 18.2496C7.58781 18.2496 6.57354 18.249 5.7774 18.184C4.99002 18.1197 4.48229 17.996 4.07086 17.7864L3.38987 19.1229C4.048 19.4582 4.77511 19.6071 5.65525 19.679C6.52664 19.7502 7.61256 19.7496 9.00032 19.7496V18.2496ZM0.250321 10.9996C0.250321 12.3874 0.249737 13.4733 0.320932 14.3447C0.392843 15.2248 0.541699 15.9519 0.877033 16.6101L2.21354 15.9291C2.00391 15.5177 1.88028 15.0099 1.81595 14.2225C1.7509 13.4264 1.75032 12.4121 1.75032 10.9996H0.250321ZM4.07086 17.7864C3.27117 17.3789 2.621 16.7288 2.21354 15.9291L0.877033 16.6101C1.4283 17.692 2.30794 18.5716 3.38987 19.1229L4.07086 17.7864ZM22.2503 10.9996C22.2503 12.4121 22.2497 13.4264 22.1847 14.2225C22.1204 15.0099 21.9967 15.5177 21.7871 15.9291L23.1236 16.6101C23.4589 15.9519 23.6078 15.2248 23.6797 14.3447C23.7509 13.4733 23.7503 12.3874 23.7503 10.9996H22.2503ZM15.0003 19.7496C16.3881 19.7496 17.474 19.7502 18.3454 19.679C19.2255 19.6071 19.9526 19.4582 20.6108 19.1229L19.9298 17.7864C19.5183 17.996 19.0106 18.1197 18.2232 18.184C17.4271 18.249 16.4128 18.2496 15.0003 18.2496V19.7496ZM21.7871 15.9291C21.3796 16.7288 20.7295 17.3789 19.9298 17.7864L20.6108 19.1229C21.6927 18.5716 22.5723 17.692 23.1236 16.6101L21.7871 15.9291ZM15.0003 3.74963C16.4128 3.74963 17.4271 3.75022 18.2232 3.81526C19.0106 3.8796 19.5183 4.00322 19.9298 4.21286L20.6108 2.87635C19.9526 2.54101 19.2255 2.39216 18.3454 2.32025C17.474 2.24905 16.3881 2.24963 15.0003 2.24963V3.74963ZM23.7503 10.9996C23.7503 9.61188 23.7509 8.52595 23.6797 7.65457C23.6078 6.77443 23.4589 6.04732 23.1236 5.38919L21.7871 6.07017C21.9967 6.4816 22.1204 6.98934 22.1847 7.77672C22.2497 8.57285 22.2503 9.58712 22.2503 10.9996H23.7503ZM19.9298 4.21286C20.7295 4.62032 21.3796 5.27048 21.7871 6.07017L23.1236 5.38919C22.5723 4.30726 21.6927 3.42762 20.6108 2.87635L19.9298 4.21286ZM9.00032 2.24963C7.61256 2.24963 6.52664 2.24905 5.65525 2.32025C4.77511 2.39216 4.048 2.54101 3.38987 2.87635L4.07086 4.21286C4.48229 4.00322 4.99002 3.8796 5.7774 3.81526C6.57354 3.75022 7.58781 3.74963 9.00032 3.74963V2.24963ZM1.75032 10.9996C1.75032 9.58712 1.7509 8.57285 1.81595 7.77672C1.88028 6.98934 2.00391 6.4816 2.21354 6.07017L0.877033 5.38919C0.541699 6.04732 0.392843 6.77443 0.320932 7.65457C0.249737 8.52595 0.250321 9.61188 0.250321 10.9996H1.75032ZM3.38987 2.87635C2.30794 3.42762 1.4283 4.30726 0.877033 5.38919L2.21354 6.07017C2.621 5.27048 3.27117 4.62032 4.07086 4.21286L3.38987 2.87635ZM8.18222 23.7272L9.75686 23.3336L9.39306 21.8784L7.81842 22.272L8.18222 23.7272ZM14.2438 23.3336L15.8184 23.7272L16.1822 22.272L14.6076 21.8784L14.2438 23.3336ZM12.7503 21.9996V18.9996H11.2503V21.9996H12.7503ZM12.0003 16.7496L18.0003 16.7496L18.0003 15.2496L12.0003 15.2496L12.0003 16.7496ZM9.75686 23.3336C10.4933 23.1494 11.2468 23.0574 12.0003 23.0574L12.0003 21.5574C11.1246 21.5574 10.249 21.6644 9.39306 21.8784L9.75686 23.3336ZM12.0003 23.0574C12.7538 23.0574 13.5073 23.1494 14.2438 23.3336L14.6076 21.8784C13.7517 21.6644 12.876 21.5574 12.0003 21.5574L12.0003 23.0574ZM11.2503 21.9996V22.3074H12.7503V21.9996H11.2503Z" fill="black"/>
<path d="M8.00134 16.0005C8.00134 16.553 7.55341 17.001 7.00085 17.001C6.4483 17.001 6.00037 16.553 6.00037 16.0005C6.00037 15.4479 6.4483 15 7.00085 15C7.55341 15 8.00134 15.4479 8.00134 16.0005Z" fill="black"/>
</g>
<defs>
<clipPath id="clip0_0_1">
<rect width="24" height="24" fill="black" transform="translate(0 -0.000244141)"/>
</clipPath>
</defs>
</svg>
