<svg width="24" height="24" viewBox="0 0 24 24" fill="none" xmlns="http://www.w3.org/2000/svg">
<g clip-path="url(#clip0_0_1)">
<path d="M18.4702 18.3816L18.5715 17.6385L18.4702 18.3816ZM5.52974 18.3816L5.42841 17.6385L5.52974 18.3816ZM4.04343 2.44595L4.1776 3.18386L4.1776 3.18386L4.04343 2.44595ZM19.9565 2.44595L19.8223 3.18386L19.8223 3.18386L19.9565 2.44595ZM7.81805 22.2717C7.4162 22.3722 7.17188 22.7794 7.27235 23.1812C7.37281 23.5831 7.78001 23.8274 8.18185 23.7269L7.81805 22.2717ZM9.5746 22.6057L9.39269 21.878L9.39269 21.878L9.5746 22.6057ZM14.4253 22.6057L14.6072 21.878L14.6072 21.878L14.4253 22.6057ZM15.818 23.7269C16.2199 23.8274 16.6271 23.5831 16.7276 23.1812C16.828 22.7794 16.5837 22.3722 16.1819 22.2717L15.818 23.7269ZM12 22.3071L12 23.0571L12 22.3071ZM22.2499 6.09269V14.4276H23.7499V6.09269H22.2499ZM1.74995 14.4276V6.09269H0.249955V14.4276H1.74995ZM4.1776 3.18386C9.3501 2.2434 14.6498 2.2434 19.8223 3.18386L20.0906 1.70805C14.7407 0.735337 9.2592 0.735337 3.90927 1.70805L4.1776 3.18386ZM0.249955 14.4276C0.249955 17.3003 2.78468 19.5129 5.63108 19.1247L5.42841 17.6385C3.48266 17.9038 1.74995 16.3914 1.74995 14.4276H0.249955ZM22.2499 14.4276C22.2499 16.3914 20.5172 17.9038 18.5715 17.6385L18.3688 19.1247C21.2152 19.5129 23.7499 17.3003 23.7499 14.4276H22.2499ZM23.7499 6.09269C23.7499 3.93891 22.2097 2.09333 20.0906 1.70805L19.8223 3.18386C21.2281 3.43946 22.2499 4.66384 22.2499 6.09269H23.7499ZM1.74995 6.09269C1.74995 4.66384 2.7718 3.43946 4.1776 3.18386L3.90927 1.70805C1.79024 2.09333 0.249955 3.93892 0.249955 6.09269H1.74995ZM8.18185 23.7269L9.7565 23.3333L9.39269 21.878L7.81805 22.2717L8.18185 23.7269ZM14.2434 23.3333L15.818 23.7269L16.1819 22.2717L14.6072 21.878L14.2434 23.3333ZM12.7499 21.9993V18.9993H11.25V21.9993H12.7499ZM18.5715 17.6385C16.3911 17.3412 14.1955 17.1925 12 17.1925L12 18.6925C14.1278 18.6925 16.2556 18.8366 18.3688 19.1247L18.5715 17.6385ZM12 17.1925C9.80439 17.1925 7.60883 17.3412 5.42841 17.6385L5.63108 19.1247C7.74426 18.8366 9.8721 18.6925 12 18.6925L12 17.1925ZM12.7499 18.9993V17.9425H11.25V18.9993H12.7499ZM9.7565 23.3333C10.493 23.1491 11.2465 23.0571 12 23.0571L12 21.5571C11.1243 21.5571 10.2486 21.6641 9.39269 21.878L9.7565 23.3333ZM12 23.0571C12.7534 23.0571 13.5069 23.1491 14.2434 23.3333L14.6072 21.878C13.7513 21.6641 12.8756 21.5571 12 21.5571L12 23.0571ZM11.25 21.9993V22.3071H12.7499V21.9993H11.25Z" fill="black"/>
</g>
<defs>
<clipPath id="clip0_0_1">
<rect width="24" height="24" fill="black" transform="translate(-0.000244141 -0.000244141)"/>
</clipPath>
</defs>
</svg>
