<svg width="24" height="24" viewBox="0 0 24 24" fill="none" xmlns="http://www.w3.org/2000/svg">
<g clip-path="url(#clip0_0_1)">
<path d="M18.6873 3.46304L19.0027 2.78255L18.6873 3.46304ZM20.8259 5.35096L21.4621 4.95366L21.4621 4.95366L20.8259 5.35096ZM3.17214 5.35096L2.53602 4.95366L2.53602 4.95366L3.17214 5.35096ZM5.31075 3.46304L4.99542 2.78255L5.31075 3.46304ZM4.22842 18.3669L4.5936 17.7118L4.5936 17.7118L4.22842 18.3669ZM2.02745 15.8737L1.33212 16.1548L2.02745 15.8737ZM19.7697 18.3669L19.4045 17.7118L19.4045 17.7118L19.7697 18.3669ZM21.9706 15.8737L22.666 16.1548L21.9706 15.8737ZM7.81714 22.272C7.4153 22.3725 7.17098 22.7797 7.27144 23.1815C7.3719 23.5834 7.7791 23.8277 8.18095 23.7272L7.81714 22.272ZM9.57369 22.606L9.39179 21.8784L9.39179 21.8784L9.57369 22.606ZM14.4244 22.606L14.6063 21.8784L14.6063 21.8784L14.4244 22.606ZM15.8171 23.7272C16.219 23.8277 16.6262 23.5834 16.7266 23.1815C16.8271 22.7797 16.5828 22.3725 16.1809 22.272L15.8171 23.7272ZM12.749 18.9996C12.749 18.5854 12.4133 18.2496 11.999 18.2496C11.5848 18.2496 11.249 18.5854 11.249 18.9996H12.749ZM11.999 22.3074L11.999 23.0574L11.999 22.3074ZM13.9368 18.2496H10.0613V19.7496H13.9368V18.2496ZM10.0613 3.74963H13.9368V2.24963H10.0613V3.74963ZM13.9368 3.74963C15.1985 3.74963 16.1024 3.75015 16.8169 3.80533C17.5222 3.85979 17.9855 3.96444 18.372 4.14353L19.0027 2.78255C18.3891 2.49823 17.7274 2.37118 16.9324 2.30979C16.1468 2.24912 15.1754 2.24963 13.9368 2.24963V3.74963ZM22.6192 9.91433C22.4656 8.68527 22.3456 7.72132 22.188 6.94928C22.0284 6.16807 21.8203 5.52721 21.4621 4.95366L20.1898 5.74826C20.4155 6.10954 20.5768 6.55636 20.7183 7.24938C20.8617 7.95156 20.9743 8.84839 21.1308 10.1004L22.6192 9.91433ZM18.372 4.14353C19.1209 4.49056 19.7526 5.04818 20.1898 5.74826L21.4621 4.95366C20.8705 4.00648 20.0159 3.25207 19.0027 2.78255L18.372 4.14353ZM2.86729 10.1004C3.02379 8.84839 3.13642 7.95156 3.2798 7.24938C3.42131 6.55636 3.58262 6.10954 3.80826 5.74826L2.53602 4.95366C2.1778 5.52721 1.96964 6.16807 1.81012 6.94928C1.65248 7.72132 1.53251 8.68527 1.37887 9.91433L2.86729 10.1004ZM10.0613 2.24963C8.82268 2.24963 7.8513 2.24912 7.06566 2.30979C6.2707 2.37118 5.60897 2.49823 4.99542 2.78255L5.62608 4.14353C6.01255 3.96444 6.47593 3.85979 7.18115 3.80533C7.89569 3.75015 8.79957 3.74963 10.0613 3.74963V2.24963ZM3.80826 5.74826C4.24551 5.04818 4.87716 4.49056 5.62608 4.14353L4.99542 2.78255C3.98218 3.25207 3.12759 4.00648 2.53602 4.95366L3.80826 5.74826ZM10.0613 18.2496C8.48223 18.2496 7.3454 18.249 6.45995 18.1733C5.58206 18.0982 5.02783 17.9539 4.5936 17.7118L3.86324 19.022C4.56406 19.4127 5.36032 19.5847 6.33214 19.6678C7.2964 19.7503 8.50848 19.7496 10.0613 19.7496V18.2496ZM1.37887 9.91433C1.18627 11.4552 1.03529 12.6578 0.997515 13.6248C0.959442 14.5995 1.03139 15.4109 1.33212 16.1548L2.72277 15.5926C2.53644 15.1317 2.46198 14.5638 2.49637 13.6834C2.53106 12.7954 2.67143 11.6673 2.86729 10.1004L1.37887 9.91433ZM4.5936 17.7118C3.74644 17.2396 3.0863 16.4918 2.72277 15.5926L1.33212 16.1548C1.82395 17.3713 2.71709 18.3831 3.86324 19.022L4.5936 17.7118ZM13.9368 19.7496C15.4896 19.7496 16.7017 19.7503 17.6659 19.6678C18.6378 19.5847 19.434 19.4127 20.1348 19.022L19.4045 17.7118C18.9703 17.9539 18.416 18.0982 17.5381 18.1733C16.6527 18.249 15.5159 18.2496 13.9368 18.2496V19.7496ZM21.1308 10.1004C21.3267 11.6673 21.467 12.7954 21.5017 13.6834C21.5361 14.5638 21.4616 15.1317 21.2753 15.5926L22.666 16.1548C22.9667 15.4109 23.0386 14.5995 23.0006 13.6248C22.9628 12.6578 22.8118 11.4552 22.6192 9.91433L21.1308 10.1004ZM20.1348 19.022C21.281 18.3831 22.1741 17.3713 22.666 16.1548L21.2753 15.5926C20.9118 16.4918 20.2516 17.2396 19.4045 17.7118L20.1348 19.022ZM8.18095 23.7272L9.75559 23.3336L9.39179 21.8784L7.81714 22.272L8.18095 23.7272ZM14.2425 23.3336L15.8171 23.7272L16.1809 22.272L14.6063 21.8784L14.2425 23.3336ZM12.749 21.9996V18.9996H11.249V21.9996H12.749ZM9.75559 23.3336C10.4921 23.1494 11.2456 23.0574 11.999 23.0574L11.999 21.5574C11.1234 21.5574 10.2477 21.6644 9.39179 21.8784L9.75559 23.3336ZM11.999 23.0574C12.7525 23.0574 13.506 23.1494 14.2425 23.3336L14.6063 21.8784C13.7504 21.6644 12.8747 21.5574 11.999 21.5574L11.999 23.0574ZM11.249 21.9996V22.3074H12.749V21.9996H11.249Z" fill="black"/>
</g>
<defs>
<clipPath id="clip0_0_1">
<rect width="24" height="24" fill="black" transform="translate(-0.000244141 -0.000244141)"/>
</clipPath>
</defs>
</svg>
