<svg width="24" height="24" viewBox="0 0 24 24" fill="none" xmlns="http://www.w3.org/2000/svg">
<path d="M7.99995 9.24969C7.58574 9.24969 7.24995 9.58548 7.24995 9.99969C7.24995 10.4139 7.58574 10.7497 7.99995 10.7497V9.24969ZM15.9999 10.7497C16.4142 10.7497 16.7499 10.4139 16.7499 9.99969C16.7499 9.58548 16.4142 9.24969 15.9999 9.24969V10.7497ZM7.99995 13.2497C7.58574 13.2497 7.24995 13.5855 7.24995 13.9997C7.24995 14.4139 7.58574 14.7497 7.99995 14.7497V13.2497ZM15.9999 14.7497C16.4142 14.7497 16.7499 14.4139 16.7499 13.9997C16.7499 13.5855 16.4142 13.2497 15.9999 13.2497V14.7497ZM7.99995 17.2497C7.58574 17.2497 7.24995 17.5855 7.24995 17.9997C7.24995 18.4139 7.58574 18.7497 7.99995 18.7497V17.2497ZM11 18.7497C11.4142 18.7497 11.75 18.4139 11.75 17.9997C11.75 17.5855 11.4142 17.2497 11 17.2497V18.7497ZM5.06103 21.0448L5.50187 20.438L5.06103 21.0448ZM3.95487 19.9386L4.56163 19.4978L3.95487 19.9386ZM20.045 19.9386L19.4383 19.4978L20.045 19.9386ZM18.9389 21.0448L18.498 20.438L18.9389 21.0448ZM18.9389 2.95461L19.3797 2.34785L18.9389 2.95461ZM20.045 4.06077L19.4383 4.50161L20.045 4.06077ZM5.06103 2.95461L5.50187 3.56137L5.06103 2.95461ZM3.95487 4.06077L4.56163 4.50161L3.95487 4.06077ZM13.1461 6.595L13.2634 7.33577L13.2634 7.33577L13.1461 6.595ZM11.5817 6.595L11.4644 7.33577L11.4644 7.33577L11.5817 6.595ZM7.99995 10.7497H15.9999V9.24969H7.99995V10.7497ZM7.99995 14.7497H15.9999V13.2497H7.99995V14.7497ZM7.99995 18.7497H11V17.2497H7.99995V18.7497ZM20.2499 10.9997V12.9997H21.7499V10.9997H20.2499ZM3.74995 12.9997V10.9997H2.24995V12.9997H3.74995ZM12 21.2497C10.1084 21.2497 8.74994 21.2487 7.698 21.1347C6.66009 21.0222 6.00987 20.8071 5.50187 20.438L4.62019 21.6515C5.42651 22.2374 6.37089 22.4997 7.53643 22.626C8.68793 22.7507 10.1418 22.7497 12 22.7497V21.2497ZM2.24995 12.9997C2.24995 14.8578 2.24893 16.3117 2.37368 17.4632C2.49996 18.6287 2.76228 19.5731 3.34811 20.3795L4.56163 19.4978C4.19254 18.9898 3.97741 18.3396 3.86495 17.3016C3.75098 16.2497 3.74995 14.8913 3.74995 12.9997H2.24995ZM5.50187 20.438C5.14106 20.1759 4.82377 19.8586 4.56163 19.4978L3.34811 20.3795C3.70276 20.8676 4.13204 21.2969 4.62019 21.6515L5.50187 20.438ZM20.2499 12.9997C20.2499 14.8913 20.2489 16.2497 20.1349 17.3016C20.0225 18.3396 19.8074 18.9898 19.4383 19.4978L20.6518 20.3795C21.2376 19.5731 21.4999 18.6287 21.6262 17.4632C21.751 16.3117 21.7499 14.8578 21.7499 12.9997H20.2499ZM12 22.7497C13.8581 22.7497 15.312 22.7507 16.4635 22.626C17.629 22.4997 18.5734 22.2374 19.3797 21.6515L18.498 20.438C17.99 20.8071 17.3398 21.0222 16.3019 21.1347C15.25 21.2487 13.8915 21.2497 12 21.2497V22.7497ZM19.4383 19.4978C19.1761 19.8586 18.8588 20.1759 18.498 20.438L19.3797 21.6515C19.8679 21.2969 20.2971 20.8676 20.6518 20.3795L19.4383 19.4978ZM21.7499 10.9997C21.7499 9.14153 21.751 7.68767 21.6262 6.53617C21.4999 5.37063 21.2376 4.42625 20.6518 3.61993L19.4383 4.50161C19.8074 5.00961 20.0225 5.65983 20.1349 6.69774C20.2489 7.74968 20.2499 9.10812 20.2499 10.9997H21.7499ZM18.498 3.56137C18.8588 3.82351 19.1761 4.1408 19.4383 4.50161L20.6518 3.61993C20.2971 3.13178 19.8679 2.7025 19.3797 2.34785L18.498 3.56137ZM3.74995 10.9997C3.74995 9.10812 3.75098 7.74968 3.86495 6.69774C3.97741 5.65983 4.19254 5.00961 4.56163 4.50161L3.34811 3.61993C2.76228 4.42625 2.49996 5.37063 2.37368 6.53617C2.24893 7.68767 2.24995 9.14153 2.24995 10.9997H3.74995ZM4.62019 2.34785C4.13204 2.7025 3.70276 3.13178 3.34811 3.61993L4.56163 4.50161C4.82377 4.1408 5.14106 3.82351 5.50187 3.56137L4.62019 2.34785ZM13.0288 5.85424C12.5883 5.924 12.1396 5.924 11.6991 5.85424L11.4644 7.33577C12.0604 7.43016 12.6675 7.43016 13.2634 7.33577L13.0288 5.85424ZM17.9103 2.12053C16.6701 3.35984 15.7663 4.24975 14.9856 4.86459C14.216 5.47064 13.6261 5.75962 13.0288 5.85424L13.2634 7.33577C14.2116 7.18559 15.0379 6.73271 15.9136 6.04303C16.7782 5.36214 17.7488 4.40247 18.9706 3.18157L17.9103 2.12053ZM12 2.74969C13.6617 2.74969 14.9148 2.75022 15.9148 2.82881C16.9124 2.9072 17.5844 3.05932 18.1027 3.32072L18.7781 1.98137C18.0048 1.59142 17.1069 1.41787 16.0324 1.33342C14.9602 1.24917 13.639 1.2497 12 1.2497V2.74969ZM18.1027 3.32072C18.2431 3.39149 18.3739 3.4712 18.498 3.56137L19.3797 2.34785C19.1891 2.20936 18.9891 2.08778 18.7781 1.98137L18.1027 3.32072ZM5.54185 2.96622C6.83241 4.25672 7.8454 5.26811 8.73837 5.98281C9.64238 6.70635 10.489 7.18128 11.4644 7.33577L11.6991 5.85424C11.0845 5.7569 10.4781 5.45394 9.67567 4.81171C8.8622 4.16064 7.91539 3.21838 6.60249 1.90554L5.54185 2.96622ZM12 1.2497C10.5637 1.2497 9.37364 1.24943 8.38479 1.30542C7.39666 1.36137 6.55628 1.47546 5.82754 1.7269L6.3168 3.14486C6.85222 2.96012 7.53182 2.85612 8.46959 2.80302C9.40663 2.74996 10.5484 2.74969 12 2.74969V1.2497ZM5.82754 1.7269C5.38694 1.87893 4.98785 2.08073 4.62019 2.34785L5.50187 3.56137C5.73843 3.3895 6.00279 3.25321 6.3168 3.14486L5.82754 1.7269Z" fill="black"/>
</svg>
