<svg width="24" height="24" viewBox="0 0 24 24" fill="none" xmlns="http://www.w3.org/2000/svg">
<path d="M8.00009 17.2497C7.58588 17.2497 7.25009 17.5855 7.25009 17.9997C7.25009 18.4139 7.58588 18.7497 8.00009 18.7497V17.2497ZM16.0001 18.7497C16.4143 18.7497 16.7501 18.4139 16.7501 17.9997C16.7501 17.5855 16.4143 17.2497 16.0001 17.2497V18.7497ZM10.0001 13.2497C9.58588 13.2497 9.25009 13.5855 9.25009 13.9997C9.25009 14.4139 9.58588 14.7497 10.0001 14.7497V13.2497ZM14.0001 14.7497C14.4143 14.7497 14.7501 14.4139 14.7501 13.9997C14.7501 13.5855 14.4143 13.2497 14.0001 13.2497V14.7497ZM8.00009 9.24969C7.58588 9.24969 7.25009 9.58548 7.25009 9.99969C7.25009 10.4139 7.58588 10.7497 8.00009 10.7497V9.24969ZM16.0001 10.7497C16.4143 10.7497 16.7501 10.4139 16.7501 9.99969C16.7501 9.58548 16.4143 9.24969 16.0001 9.24969V10.7497ZM5.06116 21.0448L5.502 20.438L5.06116 21.0448ZM3.95501 19.9386L4.56177 19.4978L3.95501 19.9386ZM20.0452 19.9386L19.4384 19.4978L20.0452 19.9386ZM18.939 21.0448L18.4982 20.438L18.939 21.0448ZM18.939 2.95461L19.3798 2.34785L18.939 2.95461ZM20.0452 4.06077L19.4384 4.50161L20.0452 4.06077ZM5.06116 2.95461L5.502 3.56137L5.06116 2.95461ZM3.95501 4.06077L4.56177 4.50161L3.95501 4.06077ZM13.1462 6.595L13.2636 7.33577L13.2636 7.33577L13.1462 6.595ZM11.5819 6.595L11.4646 7.33577L11.4646 7.33577L11.5819 6.595ZM8.00009 18.7497H16.0001V17.2497H8.00009V18.7497ZM10.0001 14.7497H14.0001V13.2497H10.0001V14.7497ZM8.00009 10.7497H16.0001V9.24969H8.00009V10.7497ZM20.2501 10.9997V12.9997H21.7501V10.9997H20.2501ZM3.75009 12.9997V10.9997H2.25009V12.9997H3.75009ZM12.0001 21.2497C10.1085 21.2497 8.75008 21.2487 7.69813 21.1347C6.66022 21.0222 6.01001 20.8071 5.502 20.438L4.62033 21.6515C5.42665 22.2374 6.37103 22.4997 7.53657 22.626C8.68807 22.7507 10.1419 22.7497 12.0001 22.7497V21.2497ZM2.25009 12.9997C2.25009 14.8578 2.24906 16.3117 2.37382 17.4632C2.5001 18.6287 2.76242 19.5731 3.34824 20.3795L4.56177 19.4978C4.19268 18.9898 3.97754 18.3396 3.86509 17.3016C3.75112 16.2497 3.75009 14.8913 3.75009 12.9997H2.25009ZM5.502 20.438C5.1412 20.1759 4.82391 19.8586 4.56177 19.4978L3.34824 20.3795C3.7029 20.8676 4.13218 21.2969 4.62033 21.6515L5.502 20.438ZM20.2501 12.9997C20.2501 14.8913 20.2491 16.2497 20.1351 17.3016C20.0226 18.3396 19.8075 18.9898 19.4384 19.4978L20.6519 20.3795C21.2378 19.5731 21.5001 18.6287 21.6264 17.4632C21.7511 16.3117 21.7501 14.8578 21.7501 12.9997H20.2501ZM12.0001 22.7497C13.8582 22.7497 15.3121 22.7507 16.4636 22.626C17.6291 22.4997 18.5735 22.2374 19.3798 21.6515L18.4982 20.438C17.9902 20.8071 17.34 21.0222 16.302 21.1347C15.2501 21.2487 13.8917 21.2497 12.0001 21.2497V22.7497ZM19.4384 19.4978C19.1763 19.8586 18.859 20.1759 18.4982 20.438L19.3798 21.6515C19.868 21.2969 20.2973 20.8676 20.6519 20.3795L19.4384 19.4978ZM21.7501 10.9997C21.7501 9.14153 21.7511 7.68767 21.6264 6.53617C21.5001 5.37063 21.2378 4.42625 20.6519 3.61993L19.4384 4.50161C19.8075 5.00961 20.0226 5.65983 20.1351 6.69774C20.2491 7.74968 20.2501 9.10812 20.2501 10.9997H21.7501ZM18.4982 3.56137C18.859 3.82351 19.1763 4.1408 19.4384 4.50161L20.6519 3.61993C20.2973 3.13178 19.868 2.7025 19.3798 2.34785L18.4982 3.56137ZM3.75009 10.9997C3.75009 9.10812 3.75112 7.74968 3.86509 6.69774C3.97754 5.65983 4.19268 5.00961 4.56177 4.50161L3.34824 3.61993C2.76242 4.42625 2.5001 5.37063 2.37382 6.53617C2.24906 7.68767 2.25009 9.14153 2.25009 10.9997H3.75009ZM4.62033 2.34785C4.13218 2.7025 3.7029 3.13178 3.34824 3.61993L4.56177 4.50161C4.82391 4.1408 5.1412 3.82351 5.502 3.56137L4.62033 2.34785ZM13.0289 5.85424C12.5884 5.924 12.1397 5.924 11.6992 5.85424L11.4646 7.33577C12.0605 7.43016 12.6676 7.43016 13.2636 7.33577L13.0289 5.85424ZM17.9104 2.12053C16.6702 3.35984 15.7664 4.24975 14.9857 4.86459C14.2162 5.47064 13.6263 5.75962 13.0289 5.85424L13.2636 7.33577C14.2117 7.18559 15.038 6.73271 15.9138 6.04303C16.7783 5.36214 17.7489 4.40247 18.9707 3.18157L17.9104 2.12053ZM12.0001 2.74969C13.6618 2.74969 14.915 2.75022 15.915 2.82881C16.9125 2.9072 17.5845 3.05932 18.1029 3.32072L18.7783 1.98137C18.0049 1.59142 17.1071 1.41787 16.0325 1.33342C14.9604 1.24917 13.6392 1.2497 12.0001 1.2497V2.74969ZM18.1029 3.32072C18.2432 3.39149 18.3741 3.4712 18.4982 3.56137L19.3798 2.34785C19.1892 2.20936 18.9893 2.08778 18.7783 1.98137L18.1029 3.32072ZM5.54199 2.96622C6.83255 4.25672 7.84554 5.26811 8.7385 5.98281C9.64252 6.70635 10.4891 7.18128 11.4646 7.33577L11.6992 5.85424C11.0847 5.7569 10.4782 5.45394 9.67581 4.81171C8.86234 4.16064 7.91552 3.21838 6.60263 1.90554L5.54199 2.96622ZM12.0001 1.2497C10.5638 1.2497 9.37378 1.24943 8.38493 1.30542C7.3968 1.36137 6.55642 1.47546 5.82768 1.7269L6.31694 3.14486C6.85236 2.96012 7.53196 2.85612 8.46972 2.80302C9.40677 2.74996 10.5486 2.74969 12.0001 2.74969V1.2497ZM5.82768 1.7269C5.38708 1.87893 4.98798 2.08073 4.62033 2.34785L5.502 3.56137C5.73857 3.3895 6.00293 3.25321 6.31694 3.14486L5.82768 1.7269Z" fill="black"/>
</svg>
