<svg width="24" height="24" viewBox="0 0 24 24" fill="none" xmlns="http://www.w3.org/2000/svg">
<path d="M19.2181 16.0611L19.1008 15.3204L19.1008 15.3204L19.2181 16.0611ZM15.0618 20.2174L14.3211 20.1001L14.3211 20.1001L15.0618 20.2174ZM5.06135 21.0446L5.50219 20.4379L5.06135 21.0446ZM3.95519 19.9385L4.56195 19.4977L3.95519 19.9385ZM20.0454 19.9385L20.6521 20.3793L20.0454 19.9385ZM18.9392 21.0446L18.4984 20.4379L18.9392 21.0446ZM18.9392 2.95449L18.4984 3.56125L18.9392 2.95449ZM20.0454 4.06065L19.4386 4.50148L20.0454 4.06065ZM5.06135 2.95449L5.50219 3.56125L5.06135 2.95449ZM3.95519 4.06065L4.56195 4.50148L3.95519 4.06065ZM20.9713 15.9996L21.7209 16.0252L20.9713 15.9996ZM15.0003 21.9706L15.026 22.7202L15.0003 21.9706ZM8.00027 15.2496C7.58606 15.2496 7.25027 15.5854 7.25027 15.9996C7.25027 16.4138 7.58606 16.7496 8.00027 16.7496V15.2496ZM11.0003 16.7496C11.4145 16.7496 11.7503 16.4138 11.7503 15.9996C11.7503 15.5854 11.4145 15.2496 11.0003 15.2496V16.7496ZM8.00027 11.2496C7.58606 11.2496 7.25027 11.5854 7.25027 11.9996C7.25027 12.4138 7.58606 12.7496 8.00027 12.7496V11.2496ZM16.0003 12.7496C16.4145 12.7496 16.7503 12.4138 16.7503 11.9996C16.7503 11.5854 16.4145 11.2496 16.0003 11.2496V12.7496ZM8.00027 7.24957C7.58606 7.24957 7.25027 7.58536 7.25027 7.99957C7.25027 8.41378 7.58606 8.74957 8.00027 8.74957V7.24957ZM11.0003 8.74957C11.4145 8.74957 11.7503 8.41378 11.7503 7.99957C11.7503 7.58536 11.4145 7.24957 11.0003 7.24957V8.74957ZM19.1008 15.3204C16.6404 15.71 14.7107 17.6397 14.3211 20.1001L15.8026 20.3347C16.0906 18.5162 17.5169 17.0899 19.3354 16.8019L19.1008 15.3204ZM20.2503 10.9996V12.9996H21.7503V10.9996H20.2503ZM3.75027 12.9996V10.9996H2.25027V12.9996H3.75027ZM12.0003 21.2496C10.1087 21.2496 8.75026 21.2485 7.69832 21.1346C6.66041 21.0221 6.01019 20.807 5.50219 20.4379L4.62051 21.6514C5.42683 22.2372 6.37121 22.4996 7.53675 22.6258C8.68825 22.7506 10.1421 22.7496 12.0003 22.7496V21.2496ZM2.25027 12.9996C2.25027 14.8577 2.24925 16.3116 2.374 17.4631C2.50028 18.6286 2.7626 19.573 3.34843 20.3793L4.56195 19.4977C4.19287 18.9896 3.97773 18.3394 3.86528 17.3015C3.7513 16.2496 3.75027 14.8911 3.75027 12.9996H2.25027ZM5.50219 20.4379C5.14138 20.1757 4.82409 19.8585 4.56195 19.4977L3.34843 20.3793C3.70308 20.8675 4.13236 21.2968 4.62051 21.6514L5.50219 20.4379ZM19.4386 19.4977C19.1765 19.8585 18.8592 20.1757 18.4984 20.4379L19.38 21.6514C19.8682 21.2968 20.2975 20.8675 20.6521 20.3793L19.4386 19.4977ZM12.0003 2.74957C13.8918 2.74957 15.2503 2.7506 16.3022 2.86457C17.3401 2.97702 17.9904 3.19216 18.4984 3.56125L19.38 2.34772C18.5737 1.7619 17.6293 1.49958 16.4638 1.3733C15.3123 1.24854 13.8584 1.24957 12.0003 1.24957V2.74957ZM21.7503 10.9996C21.7503 9.14141 21.7513 7.68755 21.6265 6.53605C21.5003 5.37051 21.2379 4.42613 20.6521 3.61981L19.4386 4.50148C19.8077 5.00949 20.0228 5.6597 20.1353 6.69762C20.2492 7.74956 20.2503 9.108 20.2503 10.9996H21.7503ZM18.4984 3.56125C18.8592 3.82339 19.1765 4.14068 19.4386 4.50148L20.6521 3.61981C20.2975 3.13166 19.8682 2.70238 19.38 2.34772L18.4984 3.56125ZM12.0003 1.24957C10.1421 1.24957 8.68825 1.24854 7.53675 1.3733C6.37121 1.49958 5.42683 1.7619 4.62051 2.34772L5.50219 3.56125C6.01019 3.19216 6.66041 2.97702 7.69832 2.86457C8.75026 2.7506 10.1087 2.74957 12.0003 2.74957V1.24957ZM3.75027 10.9996C3.75027 9.108 3.7513 7.74956 3.86528 6.69762C3.97773 5.6597 4.19287 5.00949 4.56195 4.50148L3.34843 3.61981C2.7626 4.42613 2.50028 5.37051 2.374 6.53605C2.24925 7.68755 2.25027 9.14141 2.25027 10.9996H3.75027ZM4.62051 2.34772C4.13236 2.70238 3.70308 3.13166 3.34843 3.61981L4.56195 4.50148C4.82409 4.14068 5.14138 3.82339 5.50219 3.56125L4.62051 2.34772ZM20.2503 12.9996C20.2503 14.1726 20.2502 15.1451 20.2218 15.9739L21.7209 16.0252C21.7504 15.1653 21.7503 14.1643 21.7503 12.9996H20.2503ZM20.2218 15.9739C20.1582 17.8288 19.9512 18.7921 19.4386 19.4977L20.6521 20.3793C21.454 19.2757 21.6567 17.8987 21.7209 16.0252L20.2218 15.9739ZM20.9713 15.2496C20.0891 15.2496 19.5581 15.2479 19.1008 15.3204L19.3354 16.8019C19.6473 16.7525 20.0341 16.7496 20.9713 16.7496L20.9713 15.2496ZM12.0003 22.7496C13.165 22.7496 14.166 22.7497 15.026 22.7202L14.9746 21.2211C14.1458 21.2495 13.1734 21.2496 12.0003 21.2496V22.7496ZM15.026 22.7202C16.8994 22.656 18.2764 22.4533 19.38 21.6514L18.4984 20.4379C17.7928 20.9505 16.8295 21.1575 14.9746 21.2211L15.026 22.7202ZM15.7503 21.9706C15.7503 21.0334 15.7532 20.6466 15.8026 20.3347L14.3211 20.1001C14.2486 20.5574 14.2503 21.0884 14.2503 21.9706L15.7503 21.9706ZM8.00027 16.7496H11.0003V15.2496H8.00027V16.7496ZM8.00027 12.7496H16.0003V11.2496H8.00027V12.7496ZM8.00027 8.74957H11.0003V7.24957H8.00027V8.74957Z" fill="black"/>
</svg>
