<svg width="24" height="24" viewBox="0 0 24 24" fill="none" xmlns="http://www.w3.org/2000/svg">
<path d="M8.00027 17.2497C7.58606 17.2497 7.25027 17.5855 7.25027 17.9997C7.25027 18.4139 7.58606 18.7497 8.00027 18.7497V17.2497ZM16.0003 18.7497C16.4145 18.7497 16.7503 18.4139 16.7503 17.9997C16.7503 17.5855 16.4145 17.2497 16.0003 17.2497V18.7497ZM8.00027 13.2497C7.58606 13.2497 7.25027 13.5855 7.25027 13.9997C7.25027 14.4139 7.58606 14.7497 8.00027 14.7497V13.2497ZM16.0003 14.7497C16.4145 14.7497 16.7503 14.4139 16.7503 13.9997C16.7503 13.5855 16.4145 13.2497 16.0003 13.2497V14.7497ZM13.0003 9.24969C12.5861 9.24969 12.2503 9.58548 12.2503 9.99969C12.2503 10.4139 12.5861 10.7497 13.0003 10.7497V9.24969ZM16.0003 10.7497C16.4145 10.7497 16.7503 10.4139 16.7503 9.99969C16.7503 9.58548 16.4145 9.24969 16.0003 9.24969V10.7497ZM5.06135 21.0448L5.50219 20.438L5.06135 21.0448ZM3.95519 19.9386L4.56195 19.4978L3.95519 19.9386ZM20.0454 19.9386L19.4386 19.4978L20.0454 19.9386ZM18.9392 21.0448L18.4984 20.438L18.9392 21.0448ZM18.9392 2.95461L19.38 2.34785L18.9392 2.95461ZM20.0454 4.06077L19.4386 4.50161L20.0454 4.06077ZM5.06135 2.95461L5.50219 3.56137L5.06135 2.95461ZM3.95519 4.06077L4.56195 4.50161L3.95519 4.06077ZM13.1464 6.595L13.2637 7.33577L13.2637 7.33577L13.1464 6.595ZM11.5821 6.595L11.4647 7.33577L11.4647 7.33577L11.5821 6.595ZM8.00027 18.7497H16.0003V17.2497H8.00027V18.7497ZM8.00027 14.7497H16.0003V13.2497H8.00027V14.7497ZM13.0003 10.7497H16.0003V9.24969H13.0003V10.7497ZM20.2503 10.9997V12.9997H21.7503V10.9997H20.2503ZM3.75027 12.9997V10.9997H2.25027V12.9997H3.75027ZM12.0003 21.2497C10.1087 21.2497 8.75026 21.2487 7.69832 21.1347C6.66041 21.0222 6.01019 20.8071 5.50219 20.438L4.62051 21.6515C5.42683 22.2374 6.37121 22.4997 7.53675 22.626C8.68825 22.7507 10.1421 22.7497 12.0003 22.7497V21.2497ZM2.25027 12.9997C2.25027 14.8578 2.24925 16.3117 2.374 17.4632C2.50028 18.6287 2.7626 19.5731 3.34843 20.3795L4.56195 19.4978C4.19287 18.9898 3.97773 18.3396 3.86528 17.3016C3.7513 16.2497 3.75027 14.8913 3.75027 12.9997H2.25027ZM5.50219 20.438C5.14138 20.1759 4.82409 19.8586 4.56195 19.4978L3.34843 20.3795C3.70308 20.8676 4.13236 21.2969 4.62051 21.6515L5.50219 20.438ZM20.2503 12.9997C20.2503 14.8913 20.2492 16.2497 20.1353 17.3016C20.0228 18.3396 19.8077 18.9898 19.4386 19.4978L20.6521 20.3795C21.2379 19.5731 21.5003 18.6287 21.6265 17.4632C21.7513 16.3117 21.7503 14.8578 21.7503 12.9997H20.2503ZM12.0003 22.7497C13.8584 22.7497 15.3123 22.7507 16.4638 22.626C17.6293 22.4997 18.5737 22.2374 19.38 21.6515L18.4984 20.438C17.9904 20.8071 17.3401 21.0222 16.3022 21.1347C15.2503 21.2487 13.8918 21.2497 12.0003 21.2497V22.7497ZM19.4386 19.4978C19.1765 19.8586 18.8592 20.1759 18.4984 20.438L19.38 21.6515C19.8682 21.2969 20.2975 20.8676 20.6521 20.3795L19.4386 19.4978ZM21.7503 10.9997C21.7503 9.14153 21.7513 7.68767 21.6265 6.53617C21.5003 5.37063 21.2379 4.42625 20.6521 3.61993L19.4386 4.50161C19.8077 5.00961 20.0228 5.65983 20.1353 6.69774C20.2492 7.74968 20.2503 9.10812 20.2503 10.9997H21.7503ZM18.4984 3.56137C18.8592 3.82351 19.1765 4.1408 19.4386 4.50161L20.6521 3.61993C20.2975 3.13178 19.8682 2.7025 19.38 2.34785L18.4984 3.56137ZM3.75027 10.9997C3.75027 9.10812 3.7513 7.74968 3.86528 6.69774C3.97773 5.65983 4.19287 5.00961 4.56195 4.50161L3.34843 3.61993C2.7626 4.42625 2.50028 5.37063 2.374 6.53617C2.24925 7.68767 2.25027 9.14153 2.25027 10.9997H3.75027ZM4.62051 2.34785C4.13236 2.7025 3.70308 3.13178 3.34843 3.61993L4.56195 4.50161C4.82409 4.1408 5.14138 3.82351 5.50219 3.56137L4.62051 2.34785ZM13.0291 5.85424C12.5886 5.924 12.1399 5.924 11.6994 5.85424L11.4647 7.33577C12.0607 7.43016 12.6678 7.43016 13.2637 7.33577L13.0291 5.85424ZM17.9106 2.12053C16.6704 3.35984 15.7666 4.24975 14.9859 4.86459C14.2163 5.47064 13.6265 5.75962 13.0291 5.85424L13.2637 7.33577C14.2119 7.18559 15.0382 6.73271 15.9139 6.04303C16.7785 5.36214 17.7491 4.40247 18.9709 3.18157L17.9106 2.12053ZM12.0003 2.74969C13.662 2.74969 14.9152 2.75022 15.9152 2.82881C16.9127 2.9072 17.5847 3.05932 18.1031 3.32072L18.7784 1.98137C18.0051 1.59142 17.1073 1.41787 16.0327 1.33342C14.9606 1.24917 13.6393 1.2497 12.0003 1.2497V2.74969ZM18.1031 3.32072C18.2434 3.39149 18.3742 3.4712 18.4984 3.56137L19.38 2.34785C19.1894 2.20936 18.9895 2.08778 18.7784 1.98137L18.1031 3.32072ZM5.54218 2.96622C6.83273 4.25672 7.84572 5.26811 8.73869 5.98281C9.6427 6.70635 10.4893 7.18128 11.4647 7.33577L11.6994 5.85424C11.0849 5.7569 10.4784 5.45394 9.67599 4.81171C8.86252 4.16064 7.91571 3.21838 6.60281 1.90554L5.54218 2.96622ZM12.0003 1.2497C10.564 1.2497 9.37396 1.24943 8.38511 1.30542C7.39698 1.36137 6.5566 1.47546 5.82786 1.7269L6.31712 3.14486C6.85254 2.96012 7.53214 2.85612 8.46991 2.80302C9.40695 2.74996 10.5487 2.74969 12.0003 2.74969V1.2497ZM5.82786 1.7269C5.38726 1.87893 4.98817 2.08073 4.62051 2.34785L5.50219 3.56137C5.73875 3.3895 6.00311 3.25321 6.31712 3.14486L5.82786 1.7269Z" fill="black"/>
</svg>
