<svg width="24" height="24" viewBox="0 0 24 24" fill="none" xmlns="http://www.w3.org/2000/svg">
<path d="M19.2179 8.9379L19.1006 9.67866L19.1006 9.67866L19.2179 8.9379ZM15.0616 4.78163L14.3209 4.89896L14.3209 4.89896L15.0616 4.78163ZM5.06116 20.0445L5.502 19.4378L5.06116 20.0445ZM3.95501 18.9384L4.56177 18.4975L3.95501 18.9384ZM20.0452 18.9384L19.4384 18.4975L20.0452 18.9384ZM18.939 20.0445L18.4982 19.4378L18.939 20.0445ZM18.939 3.95437L19.3798 3.34761L18.939 3.95437ZM20.0452 5.06053L20.6519 4.61969L20.0452 5.06053ZM5.06116 3.95437L5.502 4.56114L5.06116 3.95437ZM3.95501 5.06053L4.56177 5.50137L3.95501 5.06053ZM15.0001 3.02839L15.0258 2.27883L15.0001 3.02839ZM20.9712 8.99946L21.7207 8.97377L20.9712 8.99946ZM9.4091 10.5904C9.11621 10.2976 8.64133 10.2976 8.34844 10.5904C8.05555 10.8833 8.05555 11.3582 8.34844 11.6511L9.4091 10.5904ZM12.5911 15.8937C12.884 16.1866 13.3588 16.1866 13.6517 15.8937C13.9446 15.6009 13.9446 15.126 13.6517 14.8331L12.5911 15.8937ZM8.34844 14.8331C8.05555 15.126 8.05555 15.6009 8.34844 15.8937C8.64133 16.1866 9.11621 16.1866 9.4091 15.8937L8.34844 14.8331ZM13.6517 11.6511C13.9446 11.3582 13.9446 10.8833 13.6517 10.5904C13.3588 10.2976 12.884 10.2976 12.5911 10.5904L13.6517 11.6511ZM19.3352 8.19713C17.5167 7.9091 16.0904 6.48285 15.8024 4.6643L14.3209 4.89896C14.7106 7.35934 16.6402 9.28898 19.1006 9.67866L19.3352 8.19713ZM12.0001 20.2495C10.1085 20.2495 8.75008 20.2484 7.69813 20.1345C6.66022 20.022 6.01001 19.8069 5.502 19.4378L4.62033 20.6513C5.42665 21.2371 6.37103 21.4994 7.53657 21.6257C8.68807 21.7505 10.1419 21.7495 12.0001 21.7495V20.2495ZM2.25009 11.9995C2.25009 13.8576 2.24906 15.3115 2.37382 16.463C2.5001 17.6285 2.76242 18.5729 3.34824 19.3792L4.56177 18.4975C4.19268 17.9895 3.97754 17.3393 3.86509 16.3014C3.75112 15.2495 3.75009 13.891 3.75009 11.9995H2.25009ZM5.502 19.4378C5.1412 19.1756 4.82391 18.8583 4.56177 18.4975L3.34824 19.3792C3.7029 19.8674 4.13218 20.2966 4.62033 20.6513L5.502 19.4378ZM20.2501 11.9995C20.2501 13.891 20.2491 15.2495 20.1351 16.3014C20.0226 17.3393 19.8075 17.9895 19.4384 18.4975L20.6519 19.3792C21.2378 18.5729 21.5001 17.6285 21.6264 16.463C21.7511 15.3115 21.7501 13.8576 21.7501 11.9995H20.2501ZM12.0001 21.7495C13.8582 21.7495 15.3121 21.7505 16.4636 21.6257C17.6291 21.4994 18.5735 21.2371 19.3798 20.6513L18.4982 19.4378C17.9902 19.8069 17.34 20.022 16.302 20.1345C15.2501 20.2484 13.8917 20.2495 12.0001 20.2495V21.7495ZM19.4384 18.4975C19.1763 18.8583 18.859 19.1756 18.4982 19.4378L19.3798 20.6513C19.868 20.2966 20.2973 19.8674 20.6519 19.3792L19.4384 18.4975ZM18.4982 4.56114C18.859 4.82327 19.1763 5.14057 19.4384 5.50137L20.6519 4.61969C20.2973 4.13155 19.868 3.70227 19.3798 3.34761L18.4982 4.56114ZM12.0001 2.24946C10.1419 2.24946 8.68807 2.24843 7.53657 2.37319C6.37103 2.49946 5.42665 2.76178 4.62033 3.34761L5.502 4.56114C6.01001 4.19205 6.66022 3.97691 7.69813 3.86446C8.75008 3.75049 10.1085 3.74946 12.0001 3.74946V2.24946ZM3.75009 11.9995C3.75009 10.1079 3.75112 8.74945 3.86509 7.6975C3.97754 6.65959 4.19268 6.00937 4.56177 5.50137L3.34824 4.61969C2.76242 5.42602 2.5001 6.3704 2.37382 7.53593C2.24906 8.68743 2.25009 10.1413 2.25009 11.9995H3.75009ZM4.62033 3.34761C4.13218 3.70227 3.7029 4.13155 3.34824 4.61969L4.56177 5.50137C4.82391 5.14057 5.1412 4.82327 5.502 4.56114L4.62033 3.34761ZM12.0001 3.74946C13.1732 3.74946 14.1456 3.74955 14.9744 3.77795L15.0258 2.27883C14.1658 2.24936 13.1649 2.24946 12.0001 2.24946V3.74946ZM14.9744 3.77795C16.8293 3.8415 17.7926 4.04852 18.4982 4.56114L19.3798 3.34761C18.2762 2.54575 16.8992 2.34301 15.0258 2.27883L14.9744 3.77795ZM14.2501 3.02839C14.2501 3.91066 14.2484 4.4416 14.3209 4.89896L15.8024 4.6643C15.753 4.35244 15.7501 3.96563 15.7501 3.02838L14.2501 3.02839ZM21.7501 11.9995C21.7501 10.8347 21.7502 9.8337 21.7207 8.97377L20.2216 9.02514C20.25 9.8539 20.2501 10.8264 20.2501 11.9995H21.7501ZM21.7207 8.97377C21.6565 7.10033 21.4538 5.72335 20.6519 4.61969L19.4384 5.50137C19.951 6.20692 20.158 7.17021 20.2216 9.02514L21.7207 8.97377ZM20.9712 8.24946C20.0339 8.24945 19.6471 8.24653 19.3352 8.19713L19.1006 9.67866C19.5579 9.7511 20.0889 9.74945 20.9711 9.74946L20.9712 8.24946ZM8.34844 11.6511L12.5911 15.8937L13.6517 14.8331L9.4091 10.5904L8.34844 11.6511ZM9.4091 15.8937L13.6517 11.6511L12.5911 10.5904L8.34844 14.8331L9.4091 15.8937Z" fill="black"/>
</svg>
