<svg width="24" height="24" viewBox="0 0 24 24" fill="none" xmlns="http://www.w3.org/2000/svg">
<path d="M5.06066 21.0448L5.5015 20.438L5.06066 21.0448ZM3.9545 19.9386L4.56127 19.4978L3.9545 19.9386ZM20.0447 19.9386L19.4379 19.4978L20.0447 19.9386ZM18.9385 21.0448L18.4977 20.438L18.9385 21.0448ZM18.9385 2.95461L19.3793 2.34785L18.9385 2.95461ZM20.0447 4.06077L19.4379 4.50161L20.0447 4.06077ZM5.06066 2.95461L5.5015 3.56137L5.06066 2.95461ZM3.9545 4.06077L4.56127 4.50161L3.9545 4.06077ZM13.1457 6.595L13.263 7.33577L13.263 7.33577L13.1457 6.595ZM11.5814 6.595L11.4641 7.33577L11.4641 7.33577L11.5814 6.595ZM7.99959 17.2497C7.58537 17.2497 7.24959 17.5855 7.24959 17.9997C7.24959 18.4139 7.58537 18.7497 7.99959 18.7497V17.2497ZM15.9996 18.7497C16.4138 18.7497 16.7496 18.4139 16.7496 17.9997C16.7496 17.5855 16.4138 17.2497 15.9996 17.2497V18.7497ZM7.99959 13.2497C7.58537 13.2497 7.24959 13.5855 7.24959 13.9997C7.24959 14.4139 7.58537 14.7497 7.99959 14.7497V13.2497ZM15.9996 14.7497C16.4138 14.7497 16.7496 14.4139 16.7496 13.9997C16.7496 13.5855 16.4138 13.2497 15.9996 13.2497V14.7497ZM7.99959 9.24969C7.58537 9.24969 7.24959 9.58548 7.24959 9.99969C7.24959 10.4139 7.58537 10.7497 7.99959 10.7497V9.24969ZM10.9996 10.7497C11.4138 10.7497 11.7496 10.4139 11.7496 9.99969C11.7496 9.58548 11.4138 9.24969 10.9996 9.24969V10.7497ZM20.2496 10.9997V12.9997H21.7496V10.9997H20.2496ZM3.74959 12.9997V10.9997H2.24959V12.9997H3.74959ZM11.9996 21.2497C10.108 21.2497 8.74958 21.2487 7.69763 21.1347C6.65972 21.0222 6.0095 20.8071 5.5015 20.438L4.61982 21.6515C5.42615 22.2374 6.37053 22.4997 7.53606 22.626C8.68756 22.7507 10.1414 22.7497 11.9996 22.7497V21.2497ZM2.24959 12.9997C2.24959 14.8578 2.24856 16.3117 2.37332 17.4632C2.49959 18.6287 2.76191 19.5731 3.34774 20.3795L4.56127 19.4978C4.19218 18.9898 3.97704 18.3396 3.86459 17.3016C3.75062 16.2497 3.74959 14.8913 3.74959 12.9997H2.24959ZM5.5015 20.438C5.1407 20.1759 4.8234 19.8586 4.56127 19.4978L3.34774 20.3795C3.7024 20.8676 4.13168 21.2969 4.61982 21.6515L5.5015 20.438ZM20.2496 12.9997C20.2496 14.8913 20.2486 16.2497 20.1346 17.3016C20.0221 18.3396 19.807 18.9898 19.4379 19.4978L20.6514 20.3795C21.2373 19.5731 21.4996 18.6287 21.6259 17.4632C21.7506 16.3117 21.7496 14.8578 21.7496 12.9997H20.2496ZM11.9996 22.7497C13.8577 22.7497 15.3116 22.7507 16.4631 22.626C17.6286 22.4997 18.573 22.2374 19.3793 21.6515L18.4977 20.438C17.9897 20.8071 17.3394 21.0222 16.3015 21.1347C15.2496 21.2487 13.8912 21.2497 11.9996 21.2497V22.7497ZM19.4379 19.4978C19.1758 19.8586 18.8585 20.1759 18.4977 20.438L19.3793 21.6515C19.8675 21.2969 20.2968 20.8676 20.6514 20.3795L19.4379 19.4978ZM21.7496 10.9997C21.7496 9.14153 21.7506 7.68767 21.6259 6.53617C21.4996 5.37063 21.2373 4.42625 20.6514 3.61993L19.4379 4.50161C19.807 5.00961 20.0221 5.65983 20.1346 6.69774C20.2486 7.74968 20.2496 9.10812 20.2496 10.9997H21.7496ZM18.4977 3.56137C18.8585 3.82351 19.1758 4.1408 19.4379 4.50161L20.6514 3.61993C20.2968 3.13178 19.8675 2.7025 19.3793 2.34785L18.4977 3.56137ZM3.74959 10.9997C3.74959 9.10812 3.75062 7.74968 3.86459 6.69774C3.97704 5.65983 4.19218 5.00961 4.56127 4.50161L3.34774 3.61993C2.76191 4.42625 2.49959 5.37063 2.37332 6.53617C2.24856 7.68767 2.24959 9.14153 2.24959 10.9997H3.74959ZM4.61982 2.34785C4.13168 2.7025 3.7024 3.13178 3.34774 3.61993L4.56127 4.50161C4.8234 4.1408 5.1407 3.82351 5.5015 3.56137L4.61982 2.34785ZM13.0284 5.85424C12.5879 5.924 12.1392 5.924 11.6987 5.85424L11.4641 7.33577C12.06 7.43016 12.6671 7.43016 13.263 7.33577L13.0284 5.85424ZM17.9099 2.12053C16.6697 3.35984 15.7659 4.24975 14.9852 4.86459C14.2157 5.47064 13.6258 5.75962 13.0284 5.85424L13.263 7.33577C14.2112 7.18559 15.0375 6.73271 15.9133 6.04303C16.7778 5.36214 17.7484 4.40247 18.9702 3.18157L17.9099 2.12053ZM11.9996 2.74969C13.6613 2.74969 14.9145 2.75022 15.9145 2.82881C16.912 2.9072 17.584 3.05932 18.1024 3.32072L18.7778 1.98137C18.0044 1.59142 17.1066 1.41787 16.032 1.33342C14.9599 1.24917 13.6386 1.2497 11.9996 1.2497V2.74969ZM18.1024 3.32072C18.2427 3.39149 18.3736 3.4712 18.4977 3.56137L19.3793 2.34785C19.1887 2.20936 18.9888 2.08778 18.7778 1.98137L18.1024 3.32072ZM5.54149 2.96622C6.83204 4.25672 7.84504 5.26811 8.738 5.98281C9.64202 6.70635 10.4886 7.18128 11.4641 7.33577L11.6987 5.85424C11.0842 5.7569 10.4777 5.45394 9.6753 4.81171C8.86183 4.16064 7.91502 3.21838 6.60213 1.90554L5.54149 2.96622ZM11.9996 1.2497C10.5633 1.2497 9.37328 1.24943 8.38442 1.30542C7.3963 1.36137 6.55591 1.47546 5.82718 1.7269L6.31644 3.14486C6.85186 2.96012 7.53145 2.85612 8.46922 2.80302C9.40626 2.74996 10.5481 2.74969 11.9996 2.74969V1.2497ZM5.82718 1.7269C5.38658 1.87893 4.98748 2.08073 4.61982 2.34785L5.5015 3.56137C5.73807 3.3895 6.00242 3.25321 6.31644 3.14486L5.82718 1.7269ZM7.99959 18.7497H15.9996V17.2497H7.99959V18.7497ZM7.99959 14.7497H15.9996V13.2497H7.99959V14.7497ZM7.99959 10.7497H10.9996V9.24969H7.99959V10.7497Z" fill="black"/>
</svg>
