<svg width="24" height="24" viewBox="0 0 24 24" fill="none" xmlns="http://www.w3.org/2000/svg">
<path d="M4.78213 7.93792L4.89945 8.67869L4.89945 8.67869L4.78213 7.93792ZM8.93839 3.78166L9.67916 3.89898L9.67916 3.89898L8.93839 3.78166ZM18.9389 21.0446L18.498 20.4378L18.9389 21.0446ZM20.045 19.9384L19.4383 19.4976L20.045 19.9384ZM3.95487 19.9384L4.56163 19.4976L3.95487 19.9384ZM5.06103 21.0446L5.50187 20.4378L5.06103 21.0446ZM5.06103 2.9544L4.62019 2.34764L5.06103 2.9544ZM3.95487 4.06056L3.34811 3.61972L3.95487 4.06056ZM18.9389 2.9544L18.498 3.56116L18.9389 2.9544ZM20.045 4.06056L19.4383 4.5014L20.045 4.06056ZM8.99995 2.02841L8.97427 1.27885L8.99995 2.02841ZM3.02888 7.99948L2.27932 7.9738L3.02888 7.99948ZM8.99995 12.2495C8.58574 12.2495 8.24995 12.5853 8.24995 12.9995C8.24995 13.4137 8.58574 13.7495 8.99995 13.7495V12.2495ZM14.9999 13.7495C15.4142 13.7495 15.7499 13.4137 15.7499 12.9995C15.7499 12.5853 15.4142 12.2495 14.9999 12.2495V13.7495ZM11.25 15.9995C11.25 16.4137 11.5857 16.7495 12 16.7495C12.4142 16.7495 12.75 16.4137 12.75 15.9995H11.25ZM12.75 9.99948C12.75 9.58527 12.4142 9.24948 12 9.24948C11.5857 9.24948 11.25 9.58527 11.25 9.99948H12.75ZM4.89945 8.67869C7.35983 8.289 9.28947 6.35936 9.67916 3.89898L8.19763 3.66433C7.9096 5.48287 6.48334 6.90913 4.6648 7.19716L4.89945 8.67869ZM2.24995 10.9995V12.9995H3.74995V10.9995H2.24995ZM21.7499 12.9995V10.9995H20.2499V12.9995H21.7499ZM12 22.7495C13.8581 22.7495 15.312 22.7505 16.4635 22.6257C17.629 22.4995 18.5734 22.2372 19.3797 21.6513L18.498 20.4378C17.99 20.8069 17.3398 21.022 16.3019 21.1345C15.25 21.2484 13.8915 21.2495 12 21.2495V22.7495ZM20.2499 12.9995C20.2499 14.8911 20.2489 16.2495 20.1349 17.3014C20.0225 18.3393 19.8074 18.9896 19.4383 19.4976L20.6518 20.3792C21.2376 19.5729 21.4999 18.6285 21.6262 17.463C21.751 16.3115 21.7499 14.8576 21.7499 12.9995H20.2499ZM19.3797 21.6513C19.8679 21.2967 20.2971 20.8674 20.6518 20.3792L19.4383 19.4976C19.1761 19.8584 18.8588 20.1757 18.498 20.4378L19.3797 21.6513ZM2.24995 12.9995C2.24995 14.8576 2.24892 16.3115 2.37368 17.463C2.49996 18.6285 2.76228 19.5729 3.34811 20.3792L4.56163 19.4976C4.19254 18.9896 3.9774 18.3393 3.86495 17.3014C3.75098 16.2495 3.74995 14.8911 3.74995 12.9995H2.24995ZM12 21.2495C10.1084 21.2495 8.74994 21.2484 7.698 21.1345C6.66009 21.022 6.00987 20.8069 5.50187 20.4378L4.62019 21.6513C5.42651 22.2372 6.37089 22.4995 7.53643 22.6257C8.68793 22.7505 10.1418 22.7495 12 22.7495V21.2495ZM3.34811 20.3792C3.70276 20.8674 4.13205 21.2967 4.62019 21.6513L5.50187 20.4378C5.14106 20.1757 4.82377 19.8584 4.56163 19.4976L3.34811 20.3792ZM4.62019 2.34764C4.13205 2.70229 3.70276 3.13157 3.34811 3.61972L4.56163 4.5014C4.82377 4.14059 5.14106 3.8233 5.50187 3.56116L4.62019 2.34764ZM12 2.74948C13.8915 2.74948 15.25 2.75051 16.3019 2.86449C17.3398 2.97694 17.99 3.19208 18.498 3.56116L19.3797 2.34764C18.5734 1.76181 17.629 1.49949 16.4635 1.37321C15.312 1.24846 13.8581 1.24949 12 1.24949V2.74948ZM21.7499 10.9995C21.7499 9.14132 21.751 7.68746 21.6262 6.53596C21.4999 5.37042 21.2376 4.42604 20.6518 3.61972L19.4383 4.5014C19.8074 5.0094 20.0225 5.65962 20.1349 6.69753C20.2489 7.74947 20.2499 9.10791 20.2499 10.9995H21.7499ZM18.498 3.56116C18.8588 3.8233 19.1761 4.14059 19.4383 4.5014L20.6518 3.61972C20.2971 3.13157 19.8679 2.70229 19.3797 2.34764L18.498 3.56116ZM12 1.24949C10.8352 1.24949 9.8342 1.24939 8.97427 1.27885L9.02563 2.77797C9.8544 2.74958 10.8269 2.74948 12 2.74948V1.24949ZM8.97427 1.27885C7.10083 1.34304 5.72385 1.54578 4.62019 2.34764L5.50187 3.56116C6.20741 3.04855 7.17071 2.84153 9.02563 2.77797L8.97427 1.27885ZM8.24995 2.02841C8.24995 2.96566 8.24702 3.35247 8.19763 3.66433L9.67916 3.89898C9.7516 3.44163 9.74994 2.91069 9.74995 2.02842L8.24995 2.02841ZM3.74995 10.9995C3.74995 9.82641 3.75005 8.85393 3.77844 8.02516L2.27932 7.9738C2.24986 8.83373 2.24995 9.83471 2.24995 10.9995H3.74995ZM3.77844 8.02516C3.84199 6.17024 4.04902 5.20694 4.56163 4.5014L3.34811 3.61972C2.54625 4.72338 2.34351 6.10036 2.27932 7.9738L3.77844 8.02516ZM3.02889 8.74948C3.91116 8.74948 4.4421 8.75113 4.89945 8.67869L4.6648 7.19716C4.35294 7.24655 3.96613 7.24948 3.02888 7.24948L3.02889 8.74948ZM8.99995 13.7495H14.9999V12.2495H8.99995V13.7495ZM12.75 15.9995V9.99948H11.25V15.9995H12.75Z" fill="black"/>
</svg>
