<svg width="24" height="24" viewBox="0 0 24 24" fill="none" xmlns="http://www.w3.org/2000/svg">
<path d="M5.061 21.0448L5.50184 20.438L5.061 21.0448ZM3.95484 19.9386L4.5616 19.4978L3.95484 19.9386ZM20.045 19.9386L19.4382 19.4978L20.045 19.9386ZM18.9388 21.0448L18.498 20.438L18.9388 21.0448ZM18.9388 2.95461L19.3797 2.34785L18.9388 2.95461ZM20.045 4.06077L19.4382 4.50161L20.045 4.06077ZM5.061 2.95461L5.50184 3.56137L5.061 2.95461ZM3.95484 4.06077L4.5616 4.50161L3.95484 4.06077ZM13.1461 6.595L13.2634 7.33577L13.2634 7.33577L13.1461 6.595ZM11.5817 6.595L11.4644 7.33577L11.4644 7.33577L11.5817 6.595ZM7.99992 15.2497C7.58571 15.2497 7.24992 15.5855 7.24992 15.9997C7.24992 16.4139 7.58571 16.7497 7.99992 16.7497V15.2497ZM15.9999 16.7497C16.4141 16.7497 16.7499 16.4139 16.7499 15.9997C16.7499 15.5855 16.4141 15.2497 15.9999 15.2497V16.7497ZM9.99992 11.2497C9.58571 11.2497 9.24992 11.5855 9.24992 11.9997C9.24992 12.4139 9.58571 12.7497 9.99992 12.7497V11.2497ZM13.9999 12.7497C14.4141 12.7497 14.7499 12.4139 14.7499 11.9997C14.7499 11.5855 14.4141 11.2497 13.9999 11.2497V12.7497ZM20.2499 10.9997V12.9997H21.7499V10.9997H20.2499ZM3.74992 12.9997V10.9997H2.24992V12.9997H3.74992ZM11.9999 21.2497C10.1083 21.2497 8.74991 21.2487 7.69797 21.1347C6.66006 21.0222 6.00984 20.8071 5.50184 20.438L4.62016 21.6515C5.42648 22.2374 6.37086 22.4997 7.5364 22.626C8.6879 22.7507 10.1418 22.7497 11.9999 22.7497V21.2497ZM2.24992 12.9997C2.24992 14.8578 2.24889 16.3117 2.37365 17.4632C2.49993 18.6287 2.76225 19.5731 3.34808 20.3795L4.5616 19.4978C4.19251 18.9898 3.97737 18.3396 3.86492 17.3016C3.75095 16.2497 3.74992 14.8913 3.74992 12.9997H2.24992ZM5.50184 20.438C5.14103 20.1759 4.82374 19.8586 4.5616 19.4978L3.34808 20.3795C3.70273 20.8676 4.13201 21.2969 4.62016 21.6515L5.50184 20.438ZM20.2499 12.9997C20.2499 14.8913 20.2489 16.2497 20.1349 17.3016C20.0225 18.3396 19.8073 18.9898 19.4382 19.4978L20.6518 20.3795C21.2376 19.5731 21.4999 18.6287 21.6262 17.4632C21.7509 16.3117 21.7499 14.8578 21.7499 12.9997H20.2499ZM11.9999 22.7497C13.8581 22.7497 15.3119 22.7507 16.4634 22.626C17.629 22.4997 18.5734 22.2374 19.3797 21.6515L18.498 20.438C17.99 20.8071 17.3398 21.0222 16.3019 21.1347C15.2499 21.2487 13.8915 21.2497 11.9999 21.2497V22.7497ZM19.4382 19.4978C19.1761 19.8586 18.8588 20.1759 18.498 20.438L19.3797 21.6515C19.8678 21.2969 20.2971 20.8676 20.6518 20.3795L19.4382 19.4978ZM21.7499 10.9997C21.7499 9.14153 21.7509 7.68767 21.6262 6.53617C21.4999 5.37063 21.2376 4.42625 20.6518 3.61993L19.4382 4.50161C19.8073 5.00961 20.0225 5.65983 20.1349 6.69774C20.2489 7.74968 20.2499 9.10812 20.2499 10.9997H21.7499ZM18.498 3.56137C18.8588 3.82351 19.1761 4.1408 19.4382 4.50161L20.6518 3.61993C20.2971 3.13178 19.8678 2.7025 19.3797 2.34785L18.498 3.56137ZM3.74992 10.9997C3.74992 9.10812 3.75095 7.74968 3.86492 6.69774C3.97737 5.65983 4.19251 5.00961 4.5616 4.50161L3.34808 3.61993C2.76225 4.42625 2.49993 5.37063 2.37365 6.53617C2.24889 7.68767 2.24992 9.14153 2.24992 10.9997H3.74992ZM4.62016 2.34785C4.13201 2.7025 3.70273 3.13178 3.34808 3.61993L4.5616 4.50161C4.82374 4.1408 5.14103 3.82351 5.50184 3.56137L4.62016 2.34785ZM13.0287 5.85424C12.5882 5.924 12.1395 5.924 11.699 5.85424L11.4644 7.33577C12.0603 7.43016 12.6674 7.43016 13.2634 7.33577L13.0287 5.85424ZM17.9103 2.12053C16.6701 3.35984 15.7663 4.24975 14.9855 4.86459C14.216 5.47064 13.6261 5.75962 13.0287 5.85424L13.2634 7.33577C14.2115 7.18559 15.0379 6.73271 15.9136 6.04303C16.7782 5.36214 17.7488 4.40247 18.9705 3.18157L17.9103 2.12053ZM11.9999 2.74969C13.6616 2.74969 14.9148 2.75022 15.9148 2.82881C16.9123 2.9072 17.5843 3.05932 18.1027 3.32072L18.7781 1.98137C18.0048 1.59142 17.1069 1.41787 16.0323 1.33342C14.9602 1.24917 13.639 1.2497 11.9999 1.2497V2.74969ZM18.1027 3.32072C18.2431 3.39149 18.3739 3.4712 18.498 3.56137L19.3797 2.34785C19.1891 2.20936 18.9891 2.08778 18.7781 1.98137L18.1027 3.32072ZM5.54182 2.96622C6.83238 4.25672 7.84537 5.26811 8.73834 5.98281C9.64235 6.70635 10.489 7.18128 11.4644 7.33577L11.699 5.85424C11.0845 5.7569 10.4781 5.45394 9.67564 4.81171C8.86217 4.16064 7.91536 3.21838 6.60246 1.90554L5.54182 2.96622ZM11.9999 1.2497C10.5636 1.2497 9.37361 1.24943 8.38476 1.30542C7.39663 1.36137 6.55625 1.47546 5.82751 1.7269L6.31677 3.14486C6.85219 2.96012 7.53179 2.85612 8.46956 2.80302C9.4066 2.74996 10.5484 2.74969 11.9999 2.74969V1.2497ZM5.82751 1.7269C5.38691 1.87893 4.98782 2.08073 4.62016 2.34785L5.50184 3.56137C5.7384 3.3895 6.00276 3.25321 6.31677 3.14486L5.82751 1.7269ZM7.99992 16.7497H15.9999V15.2497H7.99992V16.7497ZM9.99992 12.7497H13.9999V11.2497H9.99992V12.7497Z" fill="black"/>
</svg>
