<svg width="24" height="24" viewBox="0 0 24 24" fill="none" xmlns="http://www.w3.org/2000/svg">
<path d="M19.2177 15.0611L19.1004 14.3203L19.1004 14.3203L19.2177 15.0611ZM15.0615 19.2173L14.3207 19.1L14.3207 19.1L15.0615 19.2173ZM5.061 20.0446L5.50184 19.4378L5.061 20.0446ZM3.95484 18.9384L4.5616 18.4976L3.95484 18.9384ZM20.045 18.9384L20.6518 19.3793L20.045 18.9384ZM18.9388 20.0446L19.3797 20.6513L18.9388 20.0446ZM18.9388 3.95441L18.498 4.56117L18.9388 3.95441ZM20.045 5.06057L19.4382 5.50141L20.045 5.06057ZM5.061 3.95441L5.50184 4.56117L5.061 3.95441ZM3.95484 5.06057L4.5616 5.50141L3.95484 5.06057ZM20.971 14.9995L21.7205 15.0252L20.971 14.9995ZM14.9999 20.9706L15.0256 21.7201L14.9999 20.9706ZM7.99992 11.2495C7.58571 11.2495 7.24992 11.5853 7.24992 11.9995C7.24992 12.4137 7.58571 12.7495 7.99992 12.7495V11.2495ZM15.9999 12.7495C16.4141 12.7495 16.7499 12.4137 16.7499 11.9995C16.7499 11.5853 16.4141 11.2495 15.9999 11.2495V12.7495ZM9.99992 7.24949C9.58571 7.24949 9.24992 7.58528 9.24992 7.99949C9.24992 8.41371 9.58571 8.74949 9.99992 8.74949V7.24949ZM13.9999 8.74949C14.4141 8.74949 14.7499 8.41371 14.7499 7.99949C14.7499 7.58528 14.4141 7.24949 13.9999 7.24949V8.74949ZM19.1004 14.3203C16.64 14.71 14.7104 16.6396 14.3207 19.1L15.8022 19.3346C16.0903 17.5161 17.5165 16.0898 19.3351 15.8018L19.1004 14.3203ZM11.9999 20.2495C10.1083 20.2495 8.74991 20.2485 7.69797 20.1345C6.66006 20.022 6.00984 19.8069 5.50184 19.4378L4.62016 20.6513C5.42648 21.2372 6.37086 21.4995 7.5364 21.6258C8.6879 21.7505 10.1418 21.7495 11.9999 21.7495V20.2495ZM2.24992 11.9995C2.24992 13.8577 2.24889 15.3115 2.37365 16.463C2.49993 17.6286 2.76225 18.5729 3.34808 19.3793L4.5616 18.4976C4.19251 17.9896 3.97737 17.3394 3.86492 16.3014C3.75095 15.2495 3.74992 13.8911 3.74992 11.9995H2.24992ZM5.50184 19.4378C5.14103 19.1757 4.82374 18.8584 4.5616 18.4976L3.34808 19.3793C3.70273 19.8674 4.13201 20.2967 4.62016 20.6513L5.50184 19.4378ZM19.4382 18.4976C19.1761 18.8584 18.8588 19.1757 18.498 19.4378L19.3797 20.6513C19.8678 20.2967 20.2971 19.8674 20.6518 19.3793L19.4382 18.4976ZM11.9999 3.7495C13.8915 3.7495 15.2499 3.75053 16.3019 3.8645C17.3398 3.97695 17.99 4.19209 18.498 4.56117L19.3797 3.34765C18.5734 2.76182 17.629 2.4995 16.4634 2.37322C15.3119 2.24847 13.8581 2.2495 11.9999 2.2495V3.7495ZM21.7499 11.9995C21.7499 10.1413 21.7509 8.68747 21.6262 7.53597C21.4999 6.37043 21.2376 5.42605 20.6518 4.61973L19.4382 5.50141C19.8073 6.00941 20.0225 6.65963 20.1349 7.69754C20.2489 8.74949 20.2499 10.1079 20.2499 11.9995H21.7499ZM18.498 4.56117C18.8588 4.82331 19.1761 5.14061 19.4382 5.50141L20.6518 4.61973C20.2971 4.13159 19.8678 3.70231 19.3797 3.34765L18.498 4.56117ZM11.9999 2.2495C10.1418 2.2495 8.6879 2.24847 7.5364 2.37322C6.37086 2.4995 5.42648 2.76182 4.62016 3.34765L5.50184 4.56117C6.00984 4.19209 6.66006 3.97695 7.69797 3.8645C8.74991 3.75053 10.1083 3.7495 11.9999 3.7495V2.2495ZM3.74992 11.9995C3.74992 10.1079 3.75095 8.74949 3.86492 7.69754C3.97737 6.65963 4.19251 6.00941 4.5616 5.50141L3.34808 4.61973C2.76225 5.42605 2.49993 6.37043 2.37365 7.53597C2.24889 8.68747 2.24992 10.1413 2.24992 11.9995H3.74992ZM4.62016 3.34765C4.13201 3.70231 3.70273 4.13159 3.34808 4.61973L4.5616 5.50141C4.82374 5.14061 5.14103 4.82331 5.50184 4.56117L4.62016 3.34765ZM20.2499 11.9995C20.2499 13.1726 20.2498 14.145 20.2214 14.9738L21.7205 15.0252C21.75 14.1652 21.7499 13.1643 21.7499 11.9995H20.2499ZM20.2214 14.9738C20.1579 16.8287 19.9509 17.792 19.4382 18.4976L20.6518 19.3793C21.4536 18.2756 21.6564 16.8986 21.7205 15.0252L20.2214 14.9738ZM20.971 14.2495C20.0887 14.2495 19.5578 14.2478 19.1004 14.3203L19.3351 15.8018C19.6469 15.7524 20.0337 15.7495 20.971 15.7495L20.971 14.2495ZM11.9999 21.7495C13.1647 21.7495 14.1657 21.7496 15.0256 21.7201L14.9742 20.221C14.1455 20.2494 13.173 20.2495 11.9999 20.2495V21.7495ZM15.0256 21.7201C16.899 21.6559 18.276 21.4532 19.3797 20.6513L18.498 19.4378C17.7925 19.9504 16.8292 20.1574 14.9742 20.221L15.0256 21.7201ZM15.7499 20.9706C15.7499 20.0333 15.7528 19.6465 15.8022 19.3346L14.3207 19.1C14.2483 19.5573 14.2499 20.0883 14.2499 20.9706L15.7499 20.9706ZM7.99992 12.7495H15.9999V11.2495H7.99992V12.7495ZM9.99992 8.74949H13.9999V7.24949H9.99992V8.74949Z" fill="black"/>
</svg>
