<svg width="24" height="24" viewBox="0 0 24 24" fill="none" xmlns="http://www.w3.org/2000/svg">
<path d="M4.78187 15.061L4.89919 14.3202L4.89919 14.3202L4.78187 15.061ZM8.93813 19.2173L9.6789 19.1L9.6789 19.1L8.93813 19.2173ZM5.06077 20.0445L4.61993 20.6513L5.06077 20.0445ZM3.95461 18.9384L4.56137 18.4975L3.95461 18.9384ZM20.0448 18.9384L19.438 18.4975L20.0448 18.9384ZM18.9386 20.0445L18.4978 19.4378L18.9386 20.0445ZM18.9386 3.95437L18.4978 4.56114L18.9386 3.95437ZM20.0448 5.06053L19.438 5.50137L20.0448 5.06053ZM5.06077 3.95437L5.50161 4.56114L5.06077 3.95437ZM3.95461 5.06053L4.56137 5.50137L3.95461 5.06053ZM3.02862 14.9995L2.27906 15.0251L3.02862 14.9995ZM8.99969 20.9705L8.97401 21.7201L8.99969 20.9705ZM12.9997 11.2495C12.5855 11.2495 12.2497 11.5852 12.2497 11.9995C12.2497 12.4137 12.5855 12.7495 12.9997 12.7495V11.2495ZM15.9997 12.7495C16.4139 12.7495 16.7497 12.4137 16.7497 11.9995C16.7497 11.5852 16.4139 11.2495 15.9997 11.2495V12.7495ZM7.99969 7.24946C7.58548 7.24946 7.24969 7.58524 7.24969 7.99946C7.24969 8.41367 7.58548 8.74946 7.99969 8.74946L7.99969 7.24946ZM15.9997 8.74946C16.4139 8.74946 16.7497 8.41367 16.7497 7.99946C16.7497 7.58524 16.4139 7.24946 15.9997 7.24946L15.9997 8.74946ZM4.66454 15.8018C6.48308 16.0898 7.90934 17.5161 8.19737 19.3346L9.6789 19.1C9.28921 16.6396 7.35957 14.7099 4.89919 14.3202L4.66454 15.8018ZM5.50161 19.4378C5.1408 19.1756 4.82351 18.8583 4.56137 18.4975L3.34785 19.3792C3.7025 19.8674 4.13178 20.2966 4.61993 20.6513L5.50161 19.4378ZM20.2497 11.9995C20.2497 13.891 20.2487 15.2495 20.1347 16.3014C20.0222 17.3393 19.8071 17.9895 19.438 18.4975L20.6515 19.3792C21.2374 18.5729 21.4997 17.6285 21.626 16.463C21.7507 15.3115 21.7497 13.8576 21.7497 11.9995H20.2497ZM11.9997 21.7495C13.8579 21.7495 15.3117 21.7505 16.4632 21.6257C17.6287 21.4994 18.5731 21.2371 19.3795 20.6513L18.4978 19.4378C17.9898 19.8069 17.3396 20.022 16.3016 20.1345C15.2497 20.2484 13.8913 20.2495 11.9997 20.2495V21.7495ZM19.438 18.4975C19.1759 18.8583 18.8586 19.1756 18.4978 19.4378L19.3795 20.6513C19.8676 20.2966 20.2969 19.8674 20.6515 19.3792L19.438 18.4975ZM11.9997 3.74946C13.8913 3.74946 15.2497 3.75049 16.3016 3.86446C17.3396 3.97691 17.9898 4.19205 18.4978 4.56114L19.3795 3.34761C18.5731 2.76178 17.6287 2.49946 16.4632 2.37319C15.3117 2.24843 13.8579 2.24946 11.9997 2.24946V3.74946ZM21.7497 11.9995C21.7497 10.1413 21.7507 8.68743 21.626 7.53593C21.4997 6.3704 21.2374 5.42602 20.6515 4.61969L19.438 5.50137C19.8071 6.00937 20.0222 6.65959 20.1347 7.6975C20.2487 8.74945 20.2497 10.1079 20.2497 11.9995H21.7497ZM18.4978 4.56114C18.8586 4.82327 19.1759 5.14057 19.438 5.50137L20.6515 4.61969C20.2969 4.13155 19.8676 3.70227 19.3795 3.34761L18.4978 4.56114ZM11.9997 2.24946C10.1415 2.24946 8.68767 2.24843 7.53617 2.37319C6.37063 2.49946 5.42625 2.76178 4.61993 3.34761L5.50161 4.56114C6.00961 4.19205 6.65983 3.97691 7.69774 3.86446C8.74969 3.75049 10.1081 3.74946 11.9997 3.74946V2.24946ZM3.74969 11.9995C3.74969 10.1079 3.75072 8.74945 3.8647 7.6975C3.97715 6.65959 4.19229 6.00937 4.56137 5.50137L3.34785 4.61969C2.76202 5.42602 2.4997 6.3704 2.37342 7.53593C2.24867 8.68743 2.2497 10.1413 2.2497 11.9995H3.74969ZM4.61993 3.34761C4.13178 3.70227 3.7025 4.13155 3.34785 4.61969L4.56137 5.50137C4.82351 5.14057 5.1408 4.82327 5.50161 4.56114L4.61993 3.34761ZM2.2497 11.9995C2.2497 13.1642 2.2496 14.1652 2.27906 15.0251L3.77818 14.9738C3.74979 14.145 3.74969 13.1725 3.74969 11.9995H2.2497ZM2.27906 15.0251C2.34325 16.8986 2.54599 18.2756 3.34785 19.3792L4.56137 18.4975C4.04876 17.792 3.84174 16.8287 3.77818 14.9738L2.27906 15.0251ZM3.02862 15.7495C3.96587 15.7495 4.35268 15.7524 4.66454 15.8018L4.89919 14.3202C4.44184 14.2478 3.9109 14.2495 3.02863 14.2495L3.02862 15.7495ZM11.9997 20.2495C10.8266 20.2495 9.85414 20.2494 9.02537 20.221L8.97401 21.7201C9.83394 21.7495 10.8349 21.7495 11.9997 21.7495V20.2495ZM9.02537 20.221C7.17045 20.1574 6.20715 19.9504 5.50161 19.4378L4.61993 20.6513C5.72359 21.4532 7.10057 21.6559 8.97401 21.7201L9.02537 20.221ZM9.74969 20.9705C9.74969 20.0882 9.75134 19.5573 9.6789 19.1L8.19737 19.3346C8.24676 19.6465 8.24969 20.0333 8.24969 20.9705L9.74969 20.9705ZM12.9997 12.7495H15.9997V11.2495H12.9997V12.7495ZM7.99969 8.74946L15.9997 8.74946L15.9997 7.24946L7.99969 7.24946L7.99969 8.74946Z" fill="black"/>
</svg>
