<svg width="24" height="24" viewBox="0 0 24 24" fill="none" xmlns="http://www.w3.org/2000/svg">
<path d="M19.2177 7.93789L19.1004 8.67865L19.1004 8.67865L19.2177 7.93789ZM15.0615 3.78162L14.3207 3.89894L14.3207 3.89894L15.0615 3.78162ZM5.061 21.0445L5.50184 20.4378L5.061 21.0445ZM3.95484 19.9384L4.5616 19.4975L3.95484 19.9384ZM20.045 19.9384L19.4382 19.4975L20.045 19.9384ZM18.9388 21.0445L18.498 20.4378L18.9388 21.0445ZM18.9388 2.95436L19.3797 2.3476L18.9388 2.95436ZM20.045 4.06052L20.6518 3.61968L20.045 4.06052ZM5.061 2.95436L5.50184 3.56112L5.061 2.95436ZM3.95484 4.06052L4.5616 4.50136L3.95484 4.06052ZM14.9999 2.02838L15.0256 1.27882L14.9999 2.02838ZM20.971 7.99944L21.7205 7.97376L20.971 7.99944ZM7.99992 13.2494C7.58571 13.2494 7.24992 13.5852 7.24992 13.9994C7.24992 14.4137 7.58571 14.7494 7.99992 14.7494V13.2494ZM15.9999 14.7494C16.4141 14.7494 16.7499 14.4137 16.7499 13.9994C16.7499 13.5852 16.4141 13.2494 15.9999 13.2494V14.7494ZM7.99992 9.24944C7.58571 9.24944 7.24992 9.58523 7.24992 9.99944C7.24992 10.4137 7.58571 10.7494 7.99992 10.7494V9.24944ZM10.9999 10.7494C11.4141 10.7494 11.7499 10.4137 11.7499 9.99944C11.7499 9.58523 11.4141 9.24944 10.9999 9.24944V10.7494ZM19.3351 7.19712C17.5165 6.90909 16.0903 5.48284 15.8022 3.66429L14.3207 3.89894C14.7104 6.35932 16.64 8.28897 19.1004 8.67865L19.3351 7.19712ZM20.2499 10.9994V12.9994H21.7499V10.9994H20.2499ZM3.74992 12.9994V10.9994H2.24992V12.9994H3.74992ZM11.9999 21.2494C10.1083 21.2494 8.74991 21.2484 7.69797 21.1344C6.66006 21.022 6.00984 20.8068 5.50184 20.4378L4.62016 21.6513C5.42648 22.2371 6.37086 22.4994 7.5364 22.6257C8.6879 22.7505 10.1418 22.7494 11.9999 22.7494V21.2494ZM2.24992 12.9994C2.24992 14.8576 2.24889 16.3115 2.37365 17.463C2.49993 18.6285 2.76225 19.5729 3.34808 20.3792L4.5616 19.4975C4.19251 18.9895 3.97737 18.3393 3.86492 17.3014C3.75095 16.2494 3.74992 14.891 3.74992 12.9994H2.24992ZM5.50184 20.4378C5.14103 20.1756 4.82374 19.8583 4.5616 19.4975L3.34808 20.3792C3.70273 20.8673 4.13201 21.2966 4.62016 21.6513L5.50184 20.4378ZM20.2499 12.9994C20.2499 14.891 20.2489 16.2494 20.1349 17.3014C20.0225 18.3393 19.8073 18.9895 19.4382 19.4975L20.6518 20.3792C21.2376 19.5729 21.4999 18.6285 21.6262 17.463C21.7509 16.3115 21.7499 14.8576 21.7499 12.9994H20.2499ZM11.9999 22.7494C13.8581 22.7494 15.3119 22.7505 16.4634 22.6257C17.629 22.4994 18.5734 22.2371 19.3797 21.6513L18.498 20.4378C17.99 20.8068 17.3398 21.022 16.3019 21.1344C15.2499 21.2484 13.8915 21.2494 11.9999 21.2494V22.7494ZM19.4382 19.4975C19.1761 19.8583 18.8588 20.1756 18.498 20.4378L19.3797 21.6513C19.8678 21.2966 20.2971 20.8673 20.6518 20.3792L19.4382 19.4975ZM18.498 3.56112C18.8588 3.82326 19.1761 4.14056 19.4382 4.50136L20.6518 3.61968C20.2971 3.13154 19.8678 2.70226 19.3797 2.3476L18.498 3.56112ZM11.9999 1.24945C10.1418 1.24945 8.6879 1.24842 7.5364 1.37317C6.37086 1.49945 5.42648 1.76177 4.62016 2.3476L5.50184 3.56112C6.00984 3.19204 6.66006 2.9769 7.69797 2.86445C8.74991 2.75048 10.1083 2.74945 11.9999 2.74945V1.24945ZM3.74992 10.9994C3.74992 9.10787 3.75095 7.74944 3.86492 6.69749C3.97737 5.65958 4.19251 5.00936 4.5616 4.50136L3.34808 3.61968C2.76225 4.426 2.49993 5.37038 2.37365 6.53592C2.24889 7.68742 2.24992 9.14128 2.24992 10.9994H3.74992ZM4.62016 2.3476C4.13201 2.70226 3.70273 3.13154 3.34808 3.61968L4.5616 4.50136C4.82374 4.14056 5.14103 3.82326 5.50184 3.56112L4.62016 2.3476ZM11.9999 2.74945C13.173 2.74945 14.1455 2.74954 14.9742 2.77794L15.0256 1.27882C14.1657 1.24935 13.1647 1.24945 11.9999 1.24945V2.74945ZM14.9742 2.77794C16.8292 2.84149 17.7925 3.04851 18.498 3.56112L19.3797 2.3476C18.276 1.54574 16.899 1.343 15.0256 1.27882L14.9742 2.77794ZM14.2499 2.02838C14.2499 2.91065 14.2483 3.44159 14.3207 3.89894L15.8022 3.66429C15.7528 3.35243 15.7499 2.96562 15.7499 2.02837L14.2499 2.02838ZM21.7499 10.9994C21.7499 9.83467 21.75 8.83369 21.7205 7.97376L20.2214 8.02512C20.2498 8.85389 20.2499 9.82637 20.2499 10.9994H21.7499ZM21.7205 7.97376C21.6564 6.10032 21.4536 4.72334 20.6518 3.61968L19.4382 4.50136C19.9509 5.20691 20.1579 6.1702 20.2214 8.02512L21.7205 7.97376ZM20.971 7.24944C20.0337 7.24944 19.6469 7.24651 19.3351 7.19712L19.1004 8.67865C19.5578 8.75109 20.0887 8.74944 20.971 8.74944L20.971 7.24944ZM7.99992 14.7494H15.9999V13.2494H7.99992V14.7494ZM7.99992 10.7494H10.9999V9.24944H7.99992V10.7494Z" fill="black"/>
</svg>
