<svg width="24" height="24" viewBox="0 0 24 24" fill="none" xmlns="http://www.w3.org/2000/svg">
<path d="M19.2181 8.9379L19.1008 9.67866L19.1008 9.67866L19.2181 8.9379ZM15.0618 4.78163L14.3211 4.89896L14.3211 4.89896L15.0618 4.78163ZM5.06135 20.0445L5.50219 19.4378L5.06135 20.0445ZM3.95519 18.9384L4.56195 18.4975L3.95519 18.9384ZM20.0454 18.9384L19.4386 18.4975L20.0454 18.9384ZM18.9392 20.0445L18.4984 19.4378L18.9392 20.0445ZM18.9392 3.95437L19.38 3.34761L18.9392 3.95437ZM20.0454 5.06053L20.6521 4.61969L20.0454 5.06053ZM5.06135 3.95437L5.50219 4.56114L5.06135 3.95437ZM3.95519 5.06053L4.56195 5.50137L3.95519 5.06053ZM15.0003 3.02839L15.026 2.27883L15.0003 3.02839ZM20.9713 8.99946L21.7209 8.97377L20.9713 8.99946ZM8.00027 15.2495C7.58606 15.2495 7.25027 15.5852 7.25027 15.9995C7.25027 16.4137 7.58606 16.7495 8.00027 16.7495V15.2495ZM11.0003 16.7495C11.4145 16.7495 11.7503 16.4137 11.7503 15.9995C11.7503 15.5852 11.4145 15.2495 11.0003 15.2495V16.7495ZM8.00027 11.2495C7.58606 11.2495 7.25027 11.5852 7.25027 11.9995C7.25027 12.4137 7.58606 12.7495 8.00027 12.7495V11.2495ZM16.0003 12.7495C16.4145 12.7495 16.7503 12.4137 16.7503 11.9995C16.7503 11.5852 16.4145 11.2495 16.0003 11.2495V12.7495ZM8.00027 7.24946C7.58606 7.24946 7.25027 7.58524 7.25027 7.99946C7.25027 8.41367 7.58606 8.74946 8.00027 8.74946V7.24946ZM11.0003 8.74946C11.4145 8.74946 11.7503 8.41367 11.7503 7.99946C11.7503 7.58524 11.4145 7.24946 11.0003 7.24946V8.74946ZM19.3354 8.19713C17.5169 7.9091 16.0906 6.48285 15.8026 4.6643L14.3211 4.89896C14.7107 7.35934 16.6404 9.28898 19.1008 9.67866L19.3354 8.19713ZM12.0003 20.2495C10.1087 20.2495 8.75026 20.2484 7.69832 20.1345C6.66041 20.022 6.01019 19.8069 5.50219 19.4378L4.62051 20.6513C5.42683 21.2371 6.37121 21.4994 7.53675 21.6257C8.68825 21.7505 10.1421 21.7495 12.0003 21.7495V20.2495ZM2.25027 11.9995C2.25027 13.8576 2.24925 15.3115 2.374 16.463C2.50028 17.6285 2.7626 18.5729 3.34843 19.3792L4.56195 18.4975C4.19287 17.9895 3.97773 17.3393 3.86528 16.3014C3.7513 15.2495 3.75027 13.891 3.75027 11.9995H2.25027ZM5.50219 19.4378C5.14138 19.1756 4.82409 18.8583 4.56195 18.4975L3.34843 19.3792C3.70308 19.8674 4.13236 20.2966 4.62051 20.6513L5.50219 19.4378ZM20.2503 11.9995C20.2503 13.891 20.2492 15.2495 20.1353 16.3014C20.0228 17.3393 19.8077 17.9895 19.4386 18.4975L20.6521 19.3792C21.2379 18.5729 21.5003 17.6285 21.6265 16.463C21.7513 15.3115 21.7503 13.8576 21.7503 11.9995H20.2503ZM12.0003 21.7495C13.8584 21.7495 15.3123 21.7505 16.4638 21.6257C17.6293 21.4994 18.5737 21.2371 19.38 20.6513L18.4984 19.4378C17.9904 19.8069 17.3401 20.022 16.3022 20.1345C15.2503 20.2484 13.8918 20.2495 12.0003 20.2495V21.7495ZM19.4386 18.4975C19.1765 18.8583 18.8592 19.1756 18.4984 19.4378L19.38 20.6513C19.8682 20.2966 20.2975 19.8674 20.6521 19.3792L19.4386 18.4975ZM18.4984 4.56114C18.8592 4.82327 19.1765 5.14057 19.4386 5.50137L20.6521 4.61969C20.2975 4.13155 19.8682 3.70227 19.38 3.34761L18.4984 4.56114ZM12.0003 2.24946C10.1421 2.24946 8.68825 2.24843 7.53675 2.37319C6.37121 2.49946 5.42683 2.76178 4.62051 3.34761L5.50219 4.56114C6.01019 4.19205 6.66041 3.97691 7.69832 3.86446C8.75026 3.75049 10.1087 3.74946 12.0003 3.74946V2.24946ZM3.75027 11.9995C3.75027 10.1079 3.7513 8.74945 3.86528 7.6975C3.97773 6.65959 4.19287 6.00937 4.56195 5.50137L3.34843 4.61969C2.7626 5.42602 2.50028 6.3704 2.374 7.53593C2.24925 8.68743 2.25027 10.1413 2.25027 11.9995H3.75027ZM4.62051 3.34761C4.13236 3.70227 3.70308 4.13155 3.34843 4.61969L4.56195 5.50137C4.82409 5.14057 5.14138 4.82327 5.50219 4.56114L4.62051 3.34761ZM12.0003 3.74946C13.1733 3.74946 14.1458 3.74955 14.9746 3.77795L15.026 2.27883C14.166 2.24936 13.165 2.24946 12.0003 2.24946V3.74946ZM14.9746 3.77795C16.8295 3.8415 17.7928 4.04852 18.4984 4.56114L19.38 3.34761C18.2764 2.54575 16.8994 2.34301 15.026 2.27883L14.9746 3.77795ZM14.2503 3.02839C14.2503 3.91066 14.2486 4.4416 14.3211 4.89896L15.8026 4.6643C15.7532 4.35244 15.7503 3.96563 15.7503 3.02838L14.2503 3.02839ZM21.7503 11.9995C21.7503 10.8347 21.7504 9.8337 21.7209 8.97377L20.2218 9.02514C20.2502 9.8539 20.2503 10.8264 20.2503 11.9995H21.7503ZM21.7209 8.97377C21.6567 7.10033 21.454 5.72335 20.6521 4.61969L19.4386 5.50137C19.9512 6.20692 20.1582 7.17021 20.2218 9.02514L21.7209 8.97377ZM20.9713 8.24946C20.0341 8.24945 19.6473 8.24653 19.3354 8.19713L19.1008 9.67866C19.5581 9.7511 20.0891 9.74945 20.9713 9.74946L20.9713 8.24946ZM8.00027 16.7495H11.0003V15.2495H8.00027V16.7495ZM8.00027 12.7495H16.0003V11.2495H8.00027V12.7495ZM8.00027 8.74946H11.0003V7.24946H8.00027V8.74946Z" fill="black"/>
</svg>
