<svg width="24" height="24" viewBox="0 0 24 24" fill="none" xmlns="http://www.w3.org/2000/svg">
<path d="M4.78242 15.061L4.89974 14.3202L4.89974 14.3202L4.78242 15.061ZM8.93868 19.2173L9.67945 19.1L9.67945 19.1L8.93868 19.2173ZM5.06132 20.0445L4.62048 20.6513L5.06132 20.0445ZM3.95516 18.9384L4.56192 18.4975L3.95516 18.9384ZM20.0453 18.9384L19.4386 18.4975L20.0453 18.9384ZM18.9392 20.0445L18.4983 19.4378L18.9392 20.0445ZM18.9392 3.95437L18.4983 4.56114L18.9392 3.95437ZM20.0453 5.06053L19.4386 5.50137L20.0453 5.06053ZM5.06132 3.95437L5.50216 4.56114L5.06132 3.95437ZM3.95516 5.06053L4.56192 5.50137L3.95516 5.06053ZM3.02917 14.9995L2.27961 15.0251L3.02917 14.9995ZM9.00024 20.9705L8.97456 21.7201L9.00024 20.9705ZM8.00024 11.2495C7.58603 11.2495 7.25024 11.5852 7.25024 11.9995C7.25024 12.4137 7.58603 12.7495 8.00024 12.7495V11.2495ZM16.0002 12.7495C16.4145 12.7495 16.7502 12.4137 16.7502 11.9995C16.7502 11.5852 16.4145 11.2495 16.0002 11.2495V12.7495ZM10.0002 7.24946C9.58603 7.24946 9.25024 7.58524 9.25024 7.99946C9.25024 8.41367 9.58603 8.74946 10.0002 8.74946V7.24946ZM14.0002 8.74946C14.4145 8.74946 14.7502 8.41367 14.7502 7.99946C14.7502 7.58524 14.4145 7.24946 14.0002 7.24946V8.74946ZM4.66509 15.8018C6.48363 16.0898 7.90989 17.5161 8.19792 19.3346L9.67945 19.1C9.28976 16.6396 7.36012 14.7099 4.89974 14.3202L4.66509 15.8018ZM5.50216 19.4378C5.14135 19.1756 4.82406 18.8583 4.56192 18.4975L3.3484 19.3792C3.70305 19.8674 4.13233 20.2966 4.62048 20.6513L5.50216 19.4378ZM20.2502 11.9995C20.2502 13.891 20.2492 15.2495 20.1352 16.3014C20.0228 17.3393 19.8076 17.9895 19.4386 18.4975L20.6521 19.3792C21.2379 18.5729 21.5002 17.6285 21.6265 16.463C21.7513 15.3115 21.7502 13.8576 21.7502 11.9995H20.2502ZM12.0002 21.7495C13.8584 21.7495 15.3123 21.7505 16.4638 21.6257C17.6293 21.4994 18.5737 21.2371 19.38 20.6513L18.4983 19.4378C17.9903 19.8069 17.3401 20.022 16.3022 20.1345C15.2502 20.2484 13.8918 20.2495 12.0002 20.2495V21.7495ZM19.4386 18.4975C19.1764 18.8583 18.8591 19.1756 18.4983 19.4378L19.38 20.6513C19.8681 20.2966 20.2974 19.8674 20.6521 19.3792L19.4386 18.4975ZM12.0002 3.74946C13.8918 3.74946 15.2502 3.75049 16.3022 3.86446C17.3401 3.97691 17.9903 4.19205 18.4983 4.56114L19.38 3.34761C18.5737 2.76178 17.6293 2.49946 16.4638 2.37319C15.3123 2.24843 13.8584 2.24946 12.0002 2.24946V3.74946ZM21.7502 11.9995C21.7502 10.1413 21.7513 8.68743 21.6265 7.53593C21.5002 6.3704 21.2379 5.42602 20.6521 4.61969L19.4386 5.50137C19.8076 6.00937 20.0228 6.65959 20.1352 7.6975C20.2492 8.74945 20.2502 10.1079 20.2502 11.9995H21.7502ZM18.4983 4.56114C18.8591 4.82327 19.1764 5.14057 19.4386 5.50137L20.6521 4.61969C20.2974 4.13155 19.8681 3.70227 19.38 3.34761L18.4983 4.56114ZM12.0002 2.24946C10.1421 2.24946 8.68822 2.24843 7.53672 2.37319C6.37118 2.49946 5.4268 2.76178 4.62048 3.34761L5.50216 4.56114C6.01016 4.19205 6.66038 3.97691 7.69829 3.86446C8.75023 3.75049 10.1087 3.74946 12.0002 3.74946V2.24946ZM3.75024 11.9995C3.75024 10.1079 3.75127 8.74945 3.86524 7.6975C3.9777 6.65959 4.19283 6.00937 4.56192 5.50137L3.3484 4.61969C2.76257 5.42602 2.50025 6.3704 2.37397 7.53593C2.24921 8.68743 2.25024 10.1413 2.25024 11.9995H3.75024ZM4.62048 3.34761C4.13233 3.70227 3.70305 4.13155 3.3484 4.61969L4.56192 5.50137C4.82406 5.14057 5.14135 4.82327 5.50216 4.56114L4.62048 3.34761ZM2.25024 11.9995C2.25024 13.1642 2.25015 14.1652 2.27961 15.0251L3.77873 14.9738C3.75034 14.145 3.75024 13.1725 3.75024 11.9995H2.25024ZM2.27961 15.0251C2.3438 16.8986 2.54654 18.2756 3.3484 19.3792L4.56192 18.4975C4.04931 17.792 3.84228 16.8287 3.77873 14.9738L2.27961 15.0251ZM3.02917 15.7495C3.96642 15.7495 4.35323 15.7524 4.66509 15.8018L4.89974 14.3202C4.44239 14.2478 3.91145 14.2495 3.02918 14.2495L3.02917 15.7495ZM12.0002 20.2495C10.8272 20.2495 9.85469 20.2494 9.02592 20.221L8.97456 21.7201C9.83449 21.7495 10.8355 21.7495 12.0002 21.7495V20.2495ZM9.02592 20.221C7.171 20.1574 6.2077 19.9504 5.50216 19.4378L4.62048 20.6513C5.72414 21.4532 7.10112 21.6559 8.97456 21.7201L9.02592 20.221ZM9.75024 20.9705C9.75023 20.0882 9.75189 19.5573 9.67945 19.1L8.19792 19.3346C8.24731 19.6465 8.25024 20.0333 8.25024 20.9705L9.75024 20.9705ZM8.00024 12.7495H16.0002V11.2495H8.00024V12.7495ZM10.0002 8.74946H14.0002V7.24946H10.0002V8.74946Z" fill="black"/>
</svg>
