<svg width="24" height="24" viewBox="0 0 24 24" fill="none" xmlns="http://www.w3.org/2000/svg">
<path d="M4.78226 8.9379L4.89959 9.67867L4.89959 9.67867L4.78226 8.9379ZM8.93853 4.78163L9.6793 4.89896L9.6793 4.89896L8.93853 4.78163ZM18.939 20.0445L18.4982 19.4378L18.939 20.0445ZM20.0452 18.9384L19.4384 18.4975L20.0452 18.9384ZM3.95501 18.9384L4.56177 18.4975L3.95501 18.9384ZM5.06116 20.0445L5.502 19.4378L5.06116 20.0445ZM5.06116 3.95438L4.62033 3.34761L5.06116 3.95438ZM3.95501 5.06054L3.34824 4.6197L3.95501 5.06054ZM18.939 3.95438L18.4982 4.56114L18.939 3.95438ZM20.0452 5.06054L19.4384 5.50137L20.0452 5.06054ZM9.00009 3.02839L8.97441 2.27883L9.00009 3.02839ZM3.02902 8.99946L2.27946 8.97378L3.02902 8.99946ZM8.00009 13.2495C7.58588 13.2495 7.25009 13.5852 7.25009 13.9995C7.25009 14.4137 7.58588 14.7495 8.00009 14.7495V13.2495ZM16.0001 14.7495C16.4143 14.7495 16.7501 14.4137 16.7501 13.9995C16.7501 13.5852 16.4143 13.2495 16.0001 13.2495V14.7495ZM13.0001 9.24946C12.5859 9.24946 12.2501 9.58525 12.2501 9.99946C12.2501 10.4137 12.5859 10.7495 13.0001 10.7495V9.24946ZM16.0001 10.7495C16.4143 10.7495 16.7501 10.4137 16.7501 9.99946C16.7501 9.58525 16.4143 9.24946 16.0001 9.24946V10.7495ZM4.89959 9.67867C7.35997 9.28898 9.28961 7.35934 9.6793 4.89896L8.19776 4.66431C7.90974 6.48285 6.48348 7.90911 4.66494 8.19714L4.89959 9.67867ZM12.0001 21.7495C13.8582 21.7495 15.3121 21.7505 16.4636 21.6257C17.6291 21.4994 18.5735 21.2371 19.3799 20.6513L18.4982 19.4378C17.9902 19.8069 17.34 20.022 16.302 20.1345C15.2501 20.2484 13.8917 20.2495 12.0001 20.2495V21.7495ZM20.2501 11.9995C20.2501 13.891 20.2491 15.2495 20.1351 16.3014C20.0226 17.3393 19.8075 17.9895 19.4384 18.4975L20.6519 19.3792C21.2378 18.5729 21.5001 17.6285 21.6264 16.463C21.7511 15.3115 21.7501 13.8576 21.7501 11.9995H20.2501ZM19.3799 20.6513C19.868 20.2966 20.2973 19.8674 20.6519 19.3792L19.4384 18.4975C19.1763 18.8583 18.859 19.1756 18.4982 19.4378L19.3799 20.6513ZM2.25009 11.9995C2.25009 13.8576 2.24906 15.3115 2.37382 16.463C2.5001 17.6285 2.76241 18.5729 3.34824 19.3792L4.56177 18.4975C4.19268 17.9895 3.97754 17.3393 3.86509 16.3014C3.75112 15.2495 3.75009 13.891 3.75009 11.9995H2.25009ZM12.0001 20.2495C10.1085 20.2495 8.75008 20.2484 7.69813 20.1345C6.66022 20.022 6.01001 19.8069 5.502 19.4378L4.62033 20.6513C5.42665 21.2371 6.37103 21.4994 7.53657 21.6257C8.68807 21.7505 10.1419 21.7495 12.0001 21.7495V20.2495ZM3.34824 19.3792C3.7029 19.8674 4.13218 20.2966 4.62033 20.6513L5.502 19.4378C5.1412 19.1756 4.82391 18.8583 4.56177 18.4975L3.34824 19.3792ZM4.62033 3.34761C4.13218 3.70227 3.7029 4.13155 3.34824 4.6197L4.56177 5.50137C4.82391 5.14057 5.1412 4.82328 5.502 4.56114L4.62033 3.34761ZM12.0001 3.74946C13.8917 3.74946 15.2501 3.75049 16.302 3.86446C17.34 3.97691 17.9902 4.19205 18.4982 4.56114L19.3799 3.34761C18.5735 2.76179 17.6291 2.49947 16.4636 2.37319C15.3121 2.24843 13.8582 2.24946 12.0001 2.24946V3.74946ZM21.7501 11.9995C21.7501 10.1413 21.7511 8.68744 21.6264 7.53594C21.5001 6.3704 21.2378 5.42602 20.6519 4.6197L19.4384 5.50137C19.8075 6.00938 20.0226 6.65959 20.1351 7.6975C20.2491 8.74945 20.2501 10.1079 20.2501 11.9995H21.7501ZM18.4982 4.56114C18.859 4.82328 19.1763 5.14057 19.4384 5.50137L20.6519 4.6197C20.2973 4.13155 19.868 3.70227 19.3799 3.34761L18.4982 4.56114ZM12.0001 2.24946C10.8353 2.24946 9.83433 2.24937 8.97441 2.27883L9.02577 3.77795C9.85454 3.74956 10.827 3.74946 12.0001 3.74946V2.24946ZM8.97441 2.27883C7.10096 2.34302 5.72399 2.54576 4.62033 3.34761L5.502 4.56114C6.20755 4.04853 7.17084 3.8415 9.02577 3.77795L8.97441 2.27883ZM8.25009 3.02839C8.25008 3.96564 8.24716 4.35244 8.19776 4.66431L9.6793 4.89896C9.75173 4.44161 9.75008 3.91067 9.75009 3.0284L8.25009 3.02839ZM3.75009 11.9995C3.75009 10.8264 3.75019 9.85391 3.77858 9.02514L2.27946 8.97378C2.25 9.8337 2.25009 10.8347 2.25009 11.9995H3.75009ZM3.77858 9.02514C3.84213 7.17021 4.04916 6.20692 4.56177 5.50137L3.34824 4.6197C2.54639 5.72336 2.34365 7.10034 2.27946 8.97378L3.77858 9.02514ZM3.02903 9.74946C3.9113 9.74945 4.44224 9.7511 4.89959 9.67867L4.66494 8.19714C4.35307 8.24653 3.96627 8.24945 3.02901 8.24946L3.02903 9.74946ZM8.00009 14.7495H16.0001V13.2495H8.00009V14.7495ZM13.0001 10.7495H16.0001V9.24946H13.0001V10.7495Z" fill="black"/>
</svg>
