<svg width="24" height="24" viewBox="0 0 24 24" fill="none" xmlns="http://www.w3.org/2000/svg">
<path d="M7.99969 17.2495C7.58548 17.2495 7.24969 17.5853 7.24969 17.9995C7.24969 18.4137 7.58548 18.7495 7.99969 18.7495V17.2495ZM15.9997 18.7495C16.4139 18.7495 16.7497 18.4137 16.7497 17.9995C16.7497 17.5853 16.4139 17.2495 15.9997 17.2495V18.7495ZM12.9997 13.2495C12.5855 13.2495 12.2497 13.5853 12.2497 13.9995C12.2497 14.4137 12.5855 14.7495 12.9997 14.7495V13.2495ZM15.9997 14.7495C16.4139 14.7495 16.7497 14.4137 16.7497 13.9995C16.7497 13.5853 16.4139 13.2495 15.9997 13.2495V14.7495ZM7.99969 9.24954C7.58548 9.24954 7.24969 9.58533 7.24969 9.99954C7.24969 10.4138 7.58548 10.7495 7.99969 10.7495V9.24954ZM15.9997 10.7495C16.4139 10.7495 16.7497 10.4138 16.7497 9.99954C16.7497 9.58533 16.4139 9.24954 15.9997 9.24954V10.7495ZM5.06077 21.0446L5.50161 20.4379L5.06077 21.0446ZM3.95461 19.9385L4.56137 19.4976L3.95461 19.9385ZM20.0448 19.9385L19.438 19.4976L20.0448 19.9385ZM18.9386 21.0446L18.4978 20.4379L18.9386 21.0446ZM18.9386 2.95446L19.3795 2.34769L18.9386 2.95446ZM20.0448 4.06062L19.438 4.50145L20.0448 4.06062ZM5.06077 2.95446L5.50161 3.56122L5.06077 2.95446ZM3.95461 4.06062L4.56137 4.50145L3.95461 4.06062ZM13.1458 6.59485L13.2632 7.33562L13.2632 7.33562L13.1458 6.59485ZM11.5815 6.59485L11.4642 7.33562L11.4642 7.33562L11.5815 6.59485ZM7.99969 18.7495H15.9997V17.2495H7.99969V18.7495ZM12.9997 14.7495H15.9997V13.2495H12.9997V14.7495ZM7.99969 10.7495H15.9997V9.24954H7.99969V10.7495ZM20.2497 10.9995V12.9995H21.7497V10.9995H20.2497ZM3.74969 12.9995V10.9995H2.2497V12.9995H3.74969ZM11.9997 21.2495C10.1081 21.2495 8.74968 21.2485 7.69774 21.1345C6.65983 21.0221 6.00961 20.8069 5.50161 20.4379L4.61993 21.6514C5.42625 22.2372 6.37063 22.4995 7.53617 22.6258C8.68767 22.7506 10.1415 22.7495 11.9997 22.7495V21.2495ZM2.2497 12.9995C2.2497 14.8577 2.24867 16.3116 2.37342 17.4631C2.4997 18.6286 2.76202 19.573 3.34785 20.3793L4.56137 19.4976C4.19229 18.9896 3.97715 18.3394 3.8647 17.3015C3.75072 16.2495 3.74969 14.8911 3.74969 12.9995H2.2497ZM5.50161 20.4379C5.1408 20.1757 4.82351 19.8584 4.56137 19.4976L3.34785 20.3793C3.7025 20.8674 4.13178 21.2967 4.61993 21.6514L5.50161 20.4379ZM20.2497 12.9995C20.2497 14.8911 20.2487 16.2495 20.1347 17.3015C20.0222 18.3394 19.8071 18.9896 19.438 19.4976L20.6515 20.3793C21.2374 19.573 21.4997 18.6286 21.626 17.4631C21.7507 16.3116 21.7497 14.8577 21.7497 12.9995H20.2497ZM11.9997 22.7495C13.8579 22.7495 15.3117 22.7506 16.4632 22.6258C17.6287 22.4995 18.5731 22.2372 19.3795 21.6514L18.4978 20.4379C17.9898 20.8069 17.3396 21.0221 16.3016 21.1345C15.2497 21.2485 13.8913 21.2495 11.9997 21.2495V22.7495ZM19.438 19.4976C19.1759 19.8584 18.8586 20.1757 18.4978 20.4379L19.3795 21.6514C19.8676 21.2967 20.2969 20.8674 20.6515 20.3793L19.438 19.4976ZM21.7497 10.9995C21.7497 9.14138 21.7507 7.68752 21.626 6.53602C21.4997 5.37048 21.2374 4.4261 20.6515 3.61978L19.438 4.50145C19.8071 5.00946 20.0222 5.65967 20.1347 6.69758C20.2487 7.74953 20.2497 9.10797 20.2497 10.9995H21.7497ZM18.4978 3.56122C18.8586 3.82336 19.1759 4.14065 19.438 4.50145L20.6515 3.61978C20.2969 3.13163 19.8676 2.70235 19.3795 2.34769L18.4978 3.56122ZM3.74969 10.9995C3.74969 9.10797 3.75072 7.74953 3.8647 6.69758C3.97715 5.65967 4.19229 5.00946 4.56137 4.50145L3.34785 3.61978C2.76202 4.4261 2.4997 5.37048 2.37342 6.53602C2.24867 7.68752 2.2497 9.14138 2.2497 10.9995H3.74969ZM4.61993 2.34769C4.13178 2.70235 3.7025 3.13163 3.34785 3.61978L4.56137 4.50145C4.82351 4.14065 5.1408 3.82336 5.50161 3.56122L4.61993 2.34769ZM13.0285 5.85408C12.588 5.92385 12.1393 5.92385 11.6988 5.85408L11.4642 7.33562C12.0601 7.43001 12.6672 7.43001 13.2632 7.33562L13.0285 5.85408ZM17.91 2.12038C16.6698 3.35969 15.766 4.2496 14.9853 4.86444C14.2158 5.47049 13.6259 5.75947 13.0285 5.85408L13.2632 7.33562C14.2113 7.18544 15.0376 6.73255 15.9134 6.04287C16.7779 5.36199 17.7485 4.40231 18.9703 3.18142L17.91 2.12038ZM11.9997 2.74954C13.6614 2.74954 14.9146 2.75007 15.9146 2.82866C16.9121 2.90705 17.5841 3.05917 18.1025 3.32057L18.7779 1.98122C18.0045 1.59127 17.1067 1.41771 16.0321 1.33327C14.96 1.24901 13.6388 1.24954 11.9997 1.24954V2.74954ZM18.1025 3.32057C18.2428 3.39134 18.3737 3.47104 18.4978 3.56122L19.3795 2.34769C19.1888 2.20921 18.9889 2.08763 18.7779 1.98122L18.1025 3.32057ZM5.5416 2.96607C6.83215 4.25657 7.84514 5.26796 8.73811 5.98265C9.64212 6.7062 10.4887 7.18112 11.4642 7.33562L11.6988 5.85408C11.0843 5.75675 10.4778 5.45379 9.67541 4.81156C8.86194 4.16049 7.91513 3.21823 6.60223 1.90539L5.5416 2.96607ZM11.9997 1.24954C10.5634 1.24954 9.37338 1.24928 8.38453 1.30527C7.3964 1.36121 6.55602 1.4753 5.82728 1.72675L6.31654 3.14471C6.85196 2.95997 7.53156 2.85596 8.46933 2.80287C9.40637 2.74981 10.5482 2.74954 11.9997 2.74954V1.24954ZM5.82728 1.72675C5.38668 1.87877 4.98759 2.08058 4.61993 2.34769L5.50161 3.56122C5.73817 3.38934 6.00253 3.25306 6.31654 3.14471L5.82728 1.72675Z" fill="black"/>
</svg>
