<svg width="24" height="24" viewBox="0 0 24 24" fill="none" xmlns="http://www.w3.org/2000/svg">
<path d="M5.06066 21.0446L5.5015 20.4379L5.06066 21.0446ZM3.9545 19.9385L4.56127 19.4976L3.9545 19.9385ZM20.0447 19.9385L19.4379 19.4976L20.0447 19.9385ZM18.9385 21.0446L18.4977 20.4379L18.9385 21.0446ZM18.9385 2.95446L18.4977 3.56122L18.9385 2.95446ZM20.0447 4.06062L19.4379 4.50145L20.0447 4.06062ZM5.06066 2.95446L5.5015 3.56122L5.06066 2.95446ZM3.9545 4.06062L4.56127 4.50145L3.9545 4.06062ZM12.9996 15.2495C12.5854 15.2495 12.2496 15.5853 12.2496 15.9995C12.2496 16.4137 12.5854 16.7495 12.9996 16.7495V15.2495ZM15.9996 16.7495C16.4138 16.7495 16.7496 16.4137 16.7496 15.9995C16.7496 15.5853 16.4138 15.2495 15.9996 15.2495V16.7495ZM7.99959 11.2495C7.58537 11.2495 7.24959 11.5853 7.24959 11.9995C7.24959 12.4138 7.58537 12.7495 7.99959 12.7495V11.2495ZM15.9996 12.7495C16.4138 12.7495 16.7496 12.4138 16.7496 11.9995C16.7496 11.5853 16.4138 11.2495 15.9996 11.2495V12.7495ZM12.9996 7.24954C12.5854 7.24954 12.2496 7.58533 12.2496 7.99954C12.2496 8.41375 12.5854 8.74954 12.9996 8.74954V7.24954ZM15.9996 8.74954C16.4138 8.74954 16.7496 8.41375 16.7496 7.99954C16.7496 7.58533 16.4138 7.24954 15.9996 7.24954V8.74954ZM20.2496 10.9995V12.9995H21.7496V10.9995H20.2496ZM3.74959 12.9995V10.9995H2.24959V12.9995H3.74959ZM11.9996 21.2495C10.108 21.2495 8.74958 21.2485 7.69763 21.1345C6.65972 21.0221 6.0095 20.8069 5.5015 20.4379L4.61982 21.6514C5.42615 22.2372 6.37053 22.4995 7.53606 22.6258C8.68756 22.7506 10.1414 22.7495 11.9996 22.7495V21.2495ZM2.24959 12.9995C2.24959 14.8577 2.24856 16.3116 2.37332 17.4631C2.49959 18.6286 2.76191 19.573 3.34774 20.3793L4.56127 19.4976C4.19218 18.9896 3.97704 18.3394 3.86459 17.3015C3.75062 16.2495 3.74959 14.8911 3.74959 12.9995H2.24959ZM5.5015 20.4379C5.1407 20.1757 4.8234 19.8584 4.56127 19.4976L3.34774 20.3793C3.7024 20.8674 4.13168 21.2967 4.61982 21.6514L5.5015 20.4379ZM20.2496 12.9995C20.2496 14.8911 20.2486 16.2495 20.1346 17.3015C20.0221 18.3394 19.807 18.9896 19.4379 19.4976L20.6514 20.3793C21.2373 19.573 21.4996 18.6286 21.6259 17.4631C21.7506 16.3116 21.7496 14.8577 21.7496 12.9995H20.2496ZM11.9996 22.7495C13.8577 22.7495 15.3116 22.7506 16.4631 22.6258C17.6286 22.4995 18.573 22.2372 19.3793 21.6514L18.4977 20.4379C17.9897 20.8069 17.3394 21.0221 16.3015 21.1345C15.2496 21.2485 13.8912 21.2495 11.9996 21.2495V22.7495ZM19.4379 19.4976C19.1758 19.8584 18.8585 20.1757 18.4977 20.4379L19.3793 21.6514C19.8675 21.2967 20.2968 20.8674 20.6514 20.3793L19.4379 19.4976ZM11.9996 2.74954C13.8912 2.74954 15.2496 2.75057 16.3015 2.86454C17.3394 2.97699 17.9897 3.19213 18.4977 3.56122L19.3793 2.34769C18.573 1.76187 17.6286 1.49955 16.4631 1.37327C15.3116 1.24851 13.8577 1.24954 11.9996 1.24954V2.74954ZM21.7496 10.9995C21.7496 9.14138 21.7506 7.68752 21.6259 6.53602C21.4996 5.37048 21.2373 4.4261 20.6514 3.61978L19.4379 4.50145C19.807 5.00946 20.0221 5.65967 20.1346 6.69758C20.2486 7.74953 20.2496 9.10797 20.2496 10.9995H21.7496ZM18.4977 3.56122C18.8585 3.82336 19.1758 4.14065 19.4379 4.50145L20.6514 3.61978C20.2968 3.13163 19.8675 2.70235 19.3793 2.34769L18.4977 3.56122ZM11.9996 1.24954C10.1414 1.24954 8.68756 1.24851 7.53606 1.37327C6.37053 1.49955 5.42615 1.76187 4.61982 2.34769L5.5015 3.56122C6.0095 3.19213 6.65972 2.97699 7.69763 2.86454C8.74958 2.75057 10.108 2.74954 11.9996 2.74954V1.24954ZM3.74959 10.9995C3.74959 9.10797 3.75062 7.74953 3.86459 6.69758C3.97704 5.65967 4.19218 5.00946 4.56127 4.50145L3.34774 3.61978C2.76191 4.4261 2.49959 5.37048 2.37332 6.53602C2.24856 7.68752 2.24959 9.14138 2.24959 10.9995H3.74959ZM4.61982 2.34769C4.13168 2.70235 3.7024 3.13163 3.34774 3.61978L4.56127 4.50145C4.8234 4.14065 5.1407 3.82336 5.5015 3.56122L4.61982 2.34769ZM12.9996 16.7495H15.9996V15.2495H12.9996V16.7495ZM7.99959 12.7495H15.9996V11.2495H7.99959V12.7495ZM12.9996 8.74954H15.9996V7.24954H12.9996V8.74954Z" fill="black"/>
</svg>
