<svg width="24" height="24" viewBox="0 0 24 24" fill="none" xmlns="http://www.w3.org/2000/svg">
<path d="M4.78246 8.9379L4.89979 9.67866L4.89979 9.67866L4.78246 8.9379ZM8.93873 4.78163L9.67949 4.89896L9.67949 4.89896L8.93873 4.78163ZM18.9392 20.0445L18.4984 19.4378L18.9392 20.0445ZM20.0454 18.9384L19.4386 18.4975L20.0454 18.9384ZM3.9552 18.9384L4.56197 18.4975L3.9552 18.9384ZM5.06136 20.0445L5.5022 19.4378L5.06136 20.0445ZM5.06136 3.95437L4.62052 3.34761L5.06136 3.95437ZM3.9552 5.06053L3.34844 4.61969L3.9552 5.06053ZM18.9392 3.95437L18.4984 4.56114L18.9392 3.95437ZM20.0454 5.06053L19.4386 5.50137L20.0454 5.06053ZM9.00029 3.02839L8.97461 2.27883L9.00029 3.02839ZM3.02922 8.99946L2.27966 8.97377L3.02922 8.99946ZM11.4093 10.5904C11.1164 10.2976 10.6415 10.2976 10.3486 10.5904C10.0557 10.8833 10.0557 11.3582 10.3486 11.6511L11.4093 10.5904ZM14.5913 15.8937C14.8842 16.1866 15.359 16.1866 15.6519 15.8937C15.9448 15.6009 15.9448 15.126 15.6519 14.8331L14.5913 15.8937ZM10.3486 14.8331C10.0557 15.126 10.0557 15.6009 10.3486 15.8937C10.6415 16.1866 11.1164 16.1866 11.4093 15.8937L10.3486 14.8331ZM15.6519 11.6511C15.9448 11.3582 15.9448 10.8833 15.6519 10.5904C15.359 10.2976 14.8842 10.2976 14.5913 10.5904L15.6519 11.6511ZM4.89979 9.67866C7.36017 9.28898 9.28981 7.35934 9.67949 4.89896L8.19796 4.6643C7.90993 6.48285 6.48368 7.9091 4.66514 8.19713L4.89979 9.67866ZM12.0003 21.7495C13.8584 21.7495 15.3123 21.7505 16.4638 21.6257C17.6293 21.4994 18.5737 21.2371 19.38 20.6513L18.4984 19.4378C17.9904 19.8069 17.3402 20.022 16.3022 20.1345C15.2503 20.2484 13.8919 20.2495 12.0003 20.2495V21.7495ZM20.2503 11.9995C20.2503 13.891 20.2493 15.2495 20.1353 16.3014C20.0228 17.3393 19.8077 17.9895 19.4386 18.4975L20.6521 19.3792C21.238 18.5729 21.5003 17.6285 21.6266 16.463C21.7513 15.3115 21.7503 13.8576 21.7503 11.9995H20.2503ZM19.38 20.6513C19.8682 20.2966 20.2975 19.8674 20.6521 19.3792L19.4386 18.4975C19.1765 18.8583 18.8592 19.1756 18.4984 19.4378L19.38 20.6513ZM2.25029 11.9995C2.25029 13.8576 2.24926 15.3115 2.37402 16.463C2.5003 17.6285 2.76261 18.5729 3.34844 19.3792L4.56197 18.4975C4.19288 17.9895 3.97774 17.3393 3.86529 16.3014C3.75132 15.2495 3.75029 13.891 3.75029 11.9995H2.25029ZM12.0003 20.2495C10.1087 20.2495 8.75028 20.2484 7.69833 20.1345C6.66042 20.022 6.01021 19.8069 5.5022 19.4378L4.62052 20.6513C5.42685 21.2371 6.37123 21.4994 7.53676 21.6257C8.68826 21.7505 10.1421 21.7495 12.0003 21.7495V20.2495ZM3.34844 19.3792C3.7031 19.8674 4.13238 20.2966 4.62052 20.6513L5.5022 19.4378C5.1414 19.1756 4.8241 18.8583 4.56197 18.4975L3.34844 19.3792ZM4.62052 3.34761C4.13238 3.70227 3.7031 4.13155 3.34844 4.61969L4.56197 5.50137C4.8241 5.14057 5.1414 4.82327 5.5022 4.56114L4.62052 3.34761ZM12.0003 3.74946C13.8919 3.74946 15.2503 3.75049 16.3022 3.86446C17.3402 3.97691 17.9904 4.19205 18.4984 4.56114L19.38 3.34761C18.5737 2.76178 17.6293 2.49946 16.4638 2.37319C15.3123 2.24843 13.8584 2.24946 12.0003 2.24946V3.74946ZM21.7503 11.9995C21.7503 10.1413 21.7513 8.68743 21.6266 7.53593C21.5003 6.3704 21.238 5.42602 20.6521 4.61969L19.4386 5.50137C19.8077 6.00937 20.0228 6.65959 20.1353 7.6975C20.2493 8.74945 20.2503 10.1079 20.2503 11.9995H21.7503ZM18.4984 4.56114C18.8592 4.82327 19.1765 5.14057 19.4386 5.50137L20.6521 4.61969C20.2975 4.13155 19.8682 3.70227 19.38 3.34761L18.4984 4.56114ZM12.0003 2.24946C10.8355 2.24946 9.83453 2.24936 8.97461 2.27883L9.02597 3.77795C9.85474 3.74955 10.8272 3.74946 12.0003 3.74946V2.24946ZM8.97461 2.27883C7.10116 2.34301 5.72418 2.54575 4.62052 3.34761L5.5022 4.56114C6.20775 4.04852 7.17104 3.8415 9.02597 3.77795L8.97461 2.27883ZM8.25029 3.02838C8.25028 3.96563 8.24736 4.35244 8.19796 4.6643L9.67949 4.89896C9.75193 4.4416 9.75028 3.91066 9.75029 3.02839L8.25029 3.02838ZM3.75029 11.9995C3.75029 10.8264 3.75038 9.8539 3.77878 9.02514L2.27966 8.97377C2.2502 9.8337 2.25029 10.8347 2.25029 11.9995H3.75029ZM3.77878 9.02514C3.84233 7.17021 4.04936 6.20692 4.56197 5.50137L3.34844 4.61969C2.54659 5.72335 2.34385 7.10033 2.27966 8.97377L3.77878 9.02514ZM3.02922 9.74946C3.9115 9.74945 4.44244 9.7511 4.89979 9.67866L4.66514 8.19713C4.35327 8.24653 3.96647 8.24945 3.02921 8.24946L3.02922 9.74946ZM10.3486 11.6511L14.5913 15.8937L15.6519 14.8331L11.4093 10.5904L10.3486 11.6511ZM11.4093 15.8937L15.6519 11.6511L14.5913 10.5904L10.3486 14.8331L11.4093 15.8937Z" fill="black"/>
</svg>
