<svg width="24" height="24" viewBox="0 0 24 24" fill="none" xmlns="http://www.w3.org/2000/svg">
<path d="M4.78242 8.9379L4.89974 9.67866L4.89974 9.67866L4.78242 8.9379ZM8.93868 4.78163L9.67945 4.89896L9.67945 4.89896L8.93868 4.78163ZM18.9392 20.0445L18.4983 19.4378L18.9392 20.0445ZM20.0453 18.9384L19.4386 18.4975L20.0453 18.9384ZM3.95516 18.9384L4.56192 18.4975L3.95516 18.9384ZM5.06132 20.0445L5.50216 19.4378L5.06132 20.0445ZM5.06132 3.95437L4.62048 3.34761L5.06132 3.95437ZM3.95516 5.06053L3.3484 4.61969L3.95516 5.06053ZM18.9392 3.95437L18.4983 4.56114L18.9392 3.95437ZM20.0453 5.06053L19.4386 5.50137L20.0453 5.06053ZM9.00024 3.02839L8.97456 2.27883L9.00024 3.02839ZM3.02917 8.99946L2.27961 8.97377L3.02917 8.99946ZM10.0002 13.2495C9.58603 13.2495 9.25024 13.5852 9.25024 13.9995C9.25024 14.4137 9.58603 14.7495 10.0002 14.7495V13.2495ZM16.0002 14.7495C16.4145 14.7495 16.7502 14.4137 16.7502 13.9995C16.7502 13.5852 16.4145 13.2495 16.0002 13.2495V14.7495ZM4.89974 9.67866C7.36012 9.28898 9.28976 7.35934 9.67945 4.89896L8.19792 4.6643C7.90989 6.48285 6.48363 7.9091 4.66509 8.19713L4.89974 9.67866ZM12.0002 21.7495C13.8584 21.7495 15.3123 21.7505 16.4638 21.6257C17.6293 21.4994 18.5737 21.2371 19.38 20.6513L18.4983 19.4378C17.9903 19.8069 17.3401 20.022 16.3022 20.1345C15.2502 20.2484 13.8918 20.2495 12.0002 20.2495V21.7495ZM20.2502 11.9995C20.2502 13.891 20.2492 15.2495 20.1352 16.3014C20.0228 17.3393 19.8076 17.9895 19.4386 18.4975L20.6521 19.3792C21.2379 18.5729 21.5002 17.6285 21.6265 16.463C21.7513 15.3115 21.7502 13.8576 21.7502 11.9995H20.2502ZM19.38 20.6513C19.8681 20.2966 20.2974 19.8674 20.6521 19.3792L19.4386 18.4975C19.1764 18.8583 18.8591 19.1756 18.4983 19.4378L19.38 20.6513ZM2.25024 11.9995C2.25024 13.8576 2.24921 15.3115 2.37397 16.463C2.50025 17.6285 2.76257 18.5729 3.3484 19.3792L4.56192 18.4975C4.19283 17.9895 3.97769 17.3393 3.86524 16.3014C3.75127 15.2495 3.75024 13.891 3.75024 11.9995H2.25024ZM12.0002 20.2495C10.1087 20.2495 8.75023 20.2484 7.69829 20.1345C6.66038 20.022 6.01016 19.8069 5.50216 19.4378L4.62048 20.6513C5.4268 21.2371 6.37118 21.4994 7.53672 21.6257C8.68822 21.7505 10.1421 21.7495 12.0002 21.7495V20.2495ZM3.3484 19.3792C3.70305 19.8674 4.13233 20.2966 4.62048 20.6513L5.50216 19.4378C5.14135 19.1756 4.82406 18.8583 4.56192 18.4975L3.3484 19.3792ZM4.62048 3.34761C4.13234 3.70227 3.70305 4.13155 3.3484 4.61969L4.56192 5.50137C4.82406 5.14057 5.14135 4.82327 5.50216 4.56114L4.62048 3.34761ZM12.0002 3.74946C13.8918 3.74946 15.2502 3.75049 16.3022 3.86446C17.3401 3.97691 17.9903 4.19205 18.4983 4.56114L19.38 3.34761C18.5737 2.76178 17.6293 2.49946 16.4638 2.37319C15.3123 2.24843 13.8584 2.24946 12.0002 2.24946V3.74946ZM21.7502 11.9995C21.7502 10.1413 21.7513 8.68743 21.6265 7.53593C21.5002 6.3704 21.2379 5.42602 20.6521 4.61969L19.4386 5.50137C19.8076 6.00937 20.0228 6.65959 20.1352 7.6975C20.2492 8.74945 20.2502 10.1079 20.2502 11.9995H21.7502ZM18.4983 4.56114C18.8591 4.82327 19.1764 5.14057 19.4386 5.50137L20.6521 4.61969C20.2974 4.13155 19.8681 3.70227 19.38 3.34761L18.4983 4.56114ZM12.0002 2.24946C10.8355 2.24946 9.83449 2.24936 8.97456 2.27883L9.02592 3.77795C9.85469 3.74955 10.8272 3.74946 12.0002 3.74946V2.24946ZM8.97456 2.27883C7.10112 2.34301 5.72414 2.54575 4.62048 3.34761L5.50216 4.56114C6.2077 4.04852 7.171 3.8415 9.02592 3.77795L8.97456 2.27883ZM8.25024 3.02838C8.25024 3.96563 8.24731 4.35244 8.19792 4.6643L9.67945 4.89896C9.75189 4.4416 9.75023 3.91066 9.75024 3.02839L8.25024 3.02838ZM3.75024 11.9995C3.75024 10.8264 3.75034 9.8539 3.77873 9.02514L2.27961 8.97377C2.25015 9.8337 2.25024 10.8347 2.25024 11.9995H3.75024ZM3.77873 9.02514C3.84228 7.17021 4.04931 6.20692 4.56192 5.50137L3.3484 4.61969C2.54654 5.72335 2.3438 7.10033 2.27961 8.97377L3.77873 9.02514ZM3.02918 9.74946C3.91145 9.74945 4.44239 9.7511 4.89974 9.67866L4.66509 8.19713C4.35323 8.24653 3.96642 8.24945 3.02917 8.24946L3.02918 9.74946ZM10.0002 14.7495H16.0002V13.2495H10.0002V14.7495Z" fill="black"/>
</svg>
