<svg width="24" height="24" viewBox="0 0 24 24" fill="none" xmlns="http://www.w3.org/2000/svg">
<path d="M19.2181 8.93794L19.1007 9.67871L19.1007 9.67871L19.2181 8.93794ZM15.0618 4.78168L14.321 4.899L14.321 4.899L15.0618 4.78168ZM5.06132 20.0446L5.50216 19.4378L5.06132 20.0446ZM3.95516 18.9384L4.56192 18.4976L3.95516 18.9384ZM20.0453 18.9384L19.4386 18.4976L20.0453 18.9384ZM18.9392 20.0446L18.4983 19.4378L18.9392 20.0446ZM18.9392 3.95442L19.38 3.34766L18.9392 3.95442ZM20.0453 5.06058L20.6521 4.61974L20.0453 5.06058ZM5.06132 3.95442L5.50216 4.56118L5.06132 3.95442ZM3.95516 5.06058L4.56192 5.50142L3.95516 5.06058ZM15.0002 3.02843L15.0259 2.27887L15.0002 3.02843ZM20.9713 8.9995L21.7209 8.97382L20.9713 8.9995ZM11.7502 8.9995C11.7502 8.58529 11.4145 8.2495 11.0002 8.2495C10.586 8.2495 10.2502 8.58529 10.2502 8.9995H11.7502ZM15.5329 14.3275C15.8245 14.0333 15.8224 13.5584 15.5282 13.2668C15.234 12.9752 14.7591 12.9773 14.4675 13.2715L15.5329 14.3275ZM13.6024 15.2099L14.1351 15.7378L14.1351 15.7378L13.6024 15.2099ZM8.39809 15.2099L8.93078 14.6819L8.93078 14.6819L8.39809 15.2099ZM7.53293 13.2715C7.24135 12.9773 6.76648 12.9752 6.47228 13.2668C6.17809 13.5584 6.17597 14.0333 6.46755 14.3275L7.53293 13.2715ZM11.2509 16.9836L11.3457 17.7276L11.3457 17.7276L11.2509 16.9836ZM10.7496 16.9836L10.6547 17.7276L10.6547 17.7276L10.7496 16.9836ZM11.0002 16.9995L11.0002 17.7495L11.0002 16.9995ZM19.3354 8.19718C17.5168 7.90915 16.0906 6.48289 15.8026 4.66435L14.321 4.899C14.7107 7.35938 16.6404 9.28902 19.1007 9.67871L19.3354 8.19718ZM12.0002 20.2495C10.1087 20.2495 8.75023 20.2485 7.69829 20.1345C6.66038 20.022 6.01016 19.8069 5.50216 19.4378L4.62048 20.6513C5.4268 21.2372 6.37118 21.4995 7.53672 21.6258C8.68822 21.7505 10.1421 21.7495 12.0002 21.7495V20.2495ZM2.25024 11.9995C2.25024 13.8577 2.24921 15.3115 2.37397 16.463C2.50025 17.6286 2.76257 18.5729 3.3484 19.3793L4.56192 18.4976C4.19283 17.9896 3.9777 17.3394 3.86524 16.3015C3.75127 15.2495 3.75024 13.8911 3.75024 11.9995H2.25024ZM5.50216 19.4378C5.14135 19.1757 4.82406 18.8584 4.56192 18.4976L3.3484 19.3793C3.70305 19.8674 4.13233 20.2967 4.62048 20.6513L5.50216 19.4378ZM20.2502 11.9995C20.2502 13.8911 20.2492 15.2495 20.1352 16.3015C20.0228 17.3394 19.8076 17.9896 19.4386 18.4976L20.6521 19.3793C21.2379 18.5729 21.5002 17.6286 21.6265 16.463C21.7513 15.3115 21.7502 13.8577 21.7502 11.9995H20.2502ZM12.0002 21.7495C13.8584 21.7495 15.3123 21.7505 16.4638 21.6258C17.6293 21.4995 18.5737 21.2372 19.38 20.6513L18.4983 19.4378C17.9903 19.8069 17.3401 20.022 16.3022 20.1345C15.2502 20.2485 13.8918 20.2495 12.0002 20.2495V21.7495ZM19.4386 18.4976C19.1764 18.8584 18.8591 19.1757 18.4983 19.4378L19.38 20.6513C19.8681 20.2967 20.2974 19.8674 20.6521 19.3793L19.4386 18.4976ZM18.4983 4.56118C18.8591 4.82332 19.1764 5.14061 19.4386 5.50142L20.6521 4.61974C20.2974 4.13159 19.8681 3.70231 19.38 3.34766L18.4983 4.56118ZM12.0002 2.2495C10.1421 2.2495 8.68822 2.24847 7.53672 2.37323C6.37118 2.49951 5.4268 2.76183 4.62048 3.34766L5.50216 4.56118C6.01016 4.19209 6.66038 3.97696 7.69829 3.8645C8.75023 3.75053 10.1087 3.7495 12.0002 3.7495V2.2495ZM3.75024 11.9995C3.75024 10.1079 3.75127 8.74949 3.86524 7.69755C3.9777 6.65964 4.19283 6.00942 4.56192 5.50142L3.3484 4.61974C2.76257 5.42606 2.50025 6.37044 2.37397 7.53598C2.24921 8.68748 2.25024 10.1413 2.25024 11.9995H3.75024ZM4.62048 3.34766C4.13233 3.70231 3.70305 4.13159 3.3484 4.61974L4.56192 5.50142C4.82406 5.14061 5.14135 4.82332 5.50216 4.56118L4.62048 3.34766ZM12.0002 3.7495C13.1733 3.7495 14.1458 3.7496 14.9746 3.77799L15.0259 2.27887C14.166 2.24941 13.165 2.2495 12.0002 2.2495V3.7495ZM14.9746 3.77799C16.8295 3.84154 17.7928 4.04857 18.4983 4.56118L19.38 3.34766C18.2763 2.5458 16.8994 2.34306 15.0259 2.27887L14.9746 3.77799ZM14.2502 3.02844C14.2502 3.91071 14.2486 4.44165 14.321 4.899L15.8026 4.66435C15.7532 4.35249 15.7502 3.96568 15.7502 3.02843L14.2502 3.02844ZM21.7502 11.9995C21.7502 10.8347 21.7503 9.83375 21.7209 8.97382L20.2217 9.02518C20.2501 9.85395 20.2502 10.8264 20.2502 11.9995H21.7502ZM21.7209 8.97382C21.6567 7.10038 21.4539 5.7234 20.6521 4.61974L19.4386 5.50142C19.9512 6.20696 20.1582 7.17026 20.2217 9.02518L21.7209 8.97382ZM20.9713 8.2495C20.0341 8.24949 19.6473 8.24657 19.3354 8.19718L19.1007 9.67871C19.5581 9.75115 20.089 9.74949 20.9713 9.7495L20.9713 8.2495ZM10.2502 8.9995V16.1995H11.7502V8.9995H10.2502ZM14.4675 13.2715L13.0697 14.6819L14.1351 15.7378L15.5329 14.3275L14.4675 13.2715ZM8.93078 14.6819L7.53293 13.2715L6.46755 14.3275L7.8654 15.7378L8.93078 14.6819ZM13.0697 14.6819C12.4999 15.2568 12.1164 15.6422 11.7938 15.9013C11.483 16.1509 11.3022 16.221 11.1561 16.2396L11.3457 17.7276C11.8789 17.6596 12.3166 17.4052 12.733 17.0708C13.1376 16.7459 13.5901 16.2877 14.1351 15.7378L13.0697 14.6819ZM7.8654 15.7378C8.41036 16.2877 8.86289 16.7459 9.26748 17.0708C9.68391 17.4052 10.1216 17.6596 10.6547 17.7276L10.8444 16.2396C10.6982 16.221 10.5175 16.1509 10.2067 15.9013C9.8841 15.6422 9.50057 15.2568 8.93078 14.6819L7.8654 15.7378ZM11.1561 16.2396C11.1043 16.2462 11.0523 16.2495 11.0002 16.2495L11.0002 17.7495C11.1156 17.7495 11.231 17.7422 11.3457 17.7276L11.1561 16.2396ZM11.0002 16.2495C10.9482 16.2495 10.8961 16.2462 10.8444 16.2396L10.6547 17.7276C10.7695 17.7422 10.8848 17.7495 11.0002 17.7495L11.0002 16.2495ZM10.2502 16.1995V16.9995H11.7502V16.1995H10.2502Z" fill="black"/>
</svg>
