<svg width="24" height="24" viewBox="0 0 24 24" fill="none" xmlns="http://www.w3.org/2000/svg">
<path d="M5.061 21.0446L5.50184 20.4379L5.061 21.0446ZM3.95484 19.9385L4.5616 19.4976L3.95484 19.9385ZM20.045 19.9385L19.4382 19.4976L20.045 19.9385ZM18.9388 21.0446L18.498 20.4379L18.9388 21.0446ZM18.9388 2.95446L18.498 3.56122L18.9388 2.95446ZM20.045 4.06062L19.4382 4.50145L20.045 4.06062ZM5.061 2.95446L5.50184 3.56122L5.061 2.95446ZM3.95484 4.06062L4.5616 4.50145L3.95484 4.06062ZM7.99992 15.2495C7.58571 15.2495 7.24992 15.5853 7.24992 15.9995C7.24992 16.4137 7.58571 16.7495 7.99992 16.7495V15.2495ZM10.9999 16.7495C11.4141 16.7495 11.7499 16.4137 11.7499 15.9995C11.7499 15.5853 11.4141 15.2495 10.9999 15.2495V16.7495ZM7.99992 11.2495C7.58571 11.2495 7.24992 11.5853 7.24992 11.9995C7.24992 12.4138 7.58571 12.7495 7.99992 12.7495V11.2495ZM15.9999 12.7495C16.4141 12.7495 16.7499 12.4138 16.7499 11.9995C16.7499 11.5853 16.4141 11.2495 15.9999 11.2495V12.7495ZM7.99992 7.24954C7.58571 7.24954 7.24992 7.58533 7.24992 7.99954C7.24992 8.41375 7.58571 8.74954 7.99992 8.74954V7.24954ZM10.9999 8.74954C11.4141 8.74954 11.7499 8.41375 11.7499 7.99954C11.7499 7.58533 11.4141 7.24954 10.9999 7.24954V8.74954ZM20.2499 10.9995V12.9995H21.7499V10.9995H20.2499ZM3.74992 12.9995V10.9995H2.24992V12.9995H3.74992ZM11.9999 21.2495C10.1083 21.2495 8.74991 21.2485 7.69797 21.1345C6.66006 21.0221 6.00984 20.8069 5.50184 20.4379L4.62016 21.6514C5.42648 22.2372 6.37086 22.4995 7.5364 22.6258C8.6879 22.7506 10.1418 22.7495 11.9999 22.7495V21.2495ZM2.24992 12.9995C2.24992 14.8577 2.24889 16.3116 2.37365 17.4631C2.49993 18.6286 2.76225 19.573 3.34808 20.3793L4.5616 19.4976C4.19251 18.9896 3.97737 18.3394 3.86492 17.3015C3.75095 16.2495 3.74992 14.8911 3.74992 12.9995H2.24992ZM5.50184 20.4379C5.14103 20.1757 4.82374 19.8584 4.5616 19.4976L3.34808 20.3793C3.70273 20.8674 4.13201 21.2967 4.62016 21.6514L5.50184 20.4379ZM20.2499 12.9995C20.2499 14.8911 20.2489 16.2495 20.1349 17.3015C20.0225 18.3394 19.8073 18.9896 19.4382 19.4976L20.6518 20.3793C21.2376 19.573 21.4999 18.6286 21.6262 17.4631C21.7509 16.3116 21.7499 14.8577 21.7499 12.9995H20.2499ZM11.9999 22.7495C13.8581 22.7495 15.3119 22.7506 16.4634 22.6258C17.629 22.4995 18.5734 22.2372 19.3797 21.6514L18.498 20.4379C17.99 20.8069 17.3398 21.0221 16.3019 21.1345C15.2499 21.2485 13.8915 21.2495 11.9999 21.2495V22.7495ZM19.4382 19.4976C19.1761 19.8584 18.8588 20.1757 18.498 20.4379L19.3797 21.6514C19.8678 21.2967 20.2971 20.8674 20.6518 20.3793L19.4382 19.4976ZM11.9999 2.74954C13.8915 2.74954 15.2499 2.75057 16.3019 2.86454C17.3398 2.97699 17.99 3.19213 18.498 3.56122L19.3797 2.34769C18.5734 1.76187 17.629 1.49955 16.4634 1.37327C15.3119 1.24851 13.8581 1.24954 11.9999 1.24954V2.74954ZM21.7499 10.9995C21.7499 9.14138 21.7509 7.68752 21.6262 6.53602C21.4999 5.37048 21.2376 4.4261 20.6518 3.61978L19.4382 4.50145C19.8073 5.00946 20.0225 5.65967 20.1349 6.69758C20.2489 7.74953 20.2499 9.10797 20.2499 10.9995H21.7499ZM18.498 3.56122C18.8588 3.82336 19.1761 4.14065 19.4382 4.50145L20.6518 3.61978C20.2971 3.13163 19.8678 2.70235 19.3797 2.34769L18.498 3.56122ZM11.9999 1.24954C10.1418 1.24954 8.6879 1.24851 7.5364 1.37327C6.37086 1.49955 5.42648 1.76187 4.62016 2.34769L5.50184 3.56122C6.00984 3.19213 6.66006 2.97699 7.69797 2.86454C8.74991 2.75057 10.1083 2.74954 11.9999 2.74954V1.24954ZM3.74992 10.9995C3.74992 9.10797 3.75095 7.74953 3.86492 6.69758C3.97737 5.65967 4.19251 5.00946 4.5616 4.50145L3.34808 3.61978C2.76225 4.4261 2.49993 5.37048 2.37365 6.53602C2.24889 7.68752 2.24992 9.14138 2.24992 10.9995H3.74992ZM4.62016 2.34769C4.13201 2.70235 3.70273 3.13163 3.34808 3.61978L4.5616 4.50145C4.82374 4.14065 5.14103 3.82336 5.50184 3.56122L4.62016 2.34769ZM7.99992 16.7495H10.9999V15.2495H7.99992V16.7495ZM7.99992 12.7495H15.9999V11.2495H7.99992V12.7495ZM7.99992 8.74954H10.9999V7.24954H7.99992V8.74954Z" fill="black"/>
</svg>
