<svg width="24" height="24" viewBox="0 0 24 24" fill="none" xmlns="http://www.w3.org/2000/svg">
<path d="M5.06053 21.0448L5.50137 20.438L5.06053 21.0448ZM3.95437 19.9386L4.56114 19.4978L3.95437 19.9386ZM20.0445 19.9386L19.4378 19.4978L20.0445 19.9386ZM18.9384 21.0448L18.4975 20.438L18.9384 21.0448ZM18.9384 2.95461L19.3792 2.34785L18.9384 2.95461ZM20.0445 4.06077L19.4378 4.50161L20.0445 4.06077ZM5.06053 2.95461L5.50137 3.56137L5.06053 2.95461ZM3.95437 4.06077L4.56114 4.50161L3.95437 4.06077ZM13.1456 6.595L13.2629 7.33577L13.2629 7.33577L13.1456 6.595ZM11.5813 6.595L11.4639 7.33577L11.4639 7.33577L11.5813 6.595ZM7.99946 17.2497C7.58524 17.2497 7.24946 17.5855 7.24946 17.9997C7.24946 18.4139 7.58524 18.7497 7.99946 18.7497V17.2497ZM10.9995 18.7497C11.4137 18.7497 11.7495 18.4139 11.7495 17.9997C11.7495 17.5855 11.4137 17.2497 10.9995 17.2497V18.7497ZM7.99946 13.2497C7.58524 13.2497 7.24946 13.5855 7.24946 13.9997C7.24946 14.4139 7.58524 14.7497 7.99946 14.7497V13.2497ZM15.9995 14.7497C16.4137 14.7497 16.7495 14.4139 16.7495 13.9997C16.7495 13.5855 16.4137 13.2497 15.9995 13.2497V14.7497ZM7.99946 9.24969C7.58524 9.24969 7.24946 9.58548 7.24946 9.99969C7.24946 10.4139 7.58524 10.7497 7.99946 10.7497V9.24969ZM10.9995 10.7497C11.4137 10.7497 11.7495 10.4139 11.7495 9.99969C11.7495 9.58548 11.4137 9.24969 10.9995 9.24969V10.7497ZM20.2495 10.9997V12.9997H21.7495V10.9997H20.2495ZM3.74946 12.9997V10.9997H2.24946V12.9997H3.74946ZM11.9995 21.2497C10.1079 21.2497 8.74945 21.2487 7.6975 21.1347C6.65959 21.0222 6.00937 20.8071 5.50137 20.438L4.61969 21.6515C5.42602 22.2374 6.3704 22.4997 7.53593 22.626C8.68743 22.7507 10.1413 22.7497 11.9995 22.7497V21.2497ZM2.24946 12.9997C2.24946 14.8578 2.24843 16.3117 2.37319 17.4632C2.49946 18.6287 2.76178 19.5731 3.34761 20.3795L4.56114 19.4978C4.19205 18.9898 3.97691 18.3396 3.86446 17.3016C3.75049 16.2497 3.74946 14.8913 3.74946 12.9997H2.24946ZM5.50137 20.438C5.14057 20.1759 4.82327 19.8586 4.56114 19.4978L3.34761 20.3795C3.70227 20.8676 4.13155 21.2969 4.61969 21.6515L5.50137 20.438ZM20.2495 12.9997C20.2495 14.8913 20.2484 16.2497 20.1345 17.3016C20.022 18.3396 19.8069 18.9898 19.4378 19.4978L20.6513 20.3795C21.2371 19.5731 21.4994 18.6287 21.6257 17.4632C21.7505 16.3117 21.7495 14.8578 21.7495 12.9997H20.2495ZM11.9995 22.7497C13.8576 22.7497 15.3115 22.7507 16.463 22.626C17.6285 22.4997 18.5729 22.2374 19.3792 21.6515L18.4975 20.438C17.9895 20.8071 17.3393 21.0222 16.3014 21.1347C15.2495 21.2487 13.891 21.2497 11.9995 21.2497V22.7497ZM19.4378 19.4978C19.1756 19.8586 18.8583 20.1759 18.4975 20.438L19.3792 21.6515C19.8674 21.2969 20.2966 20.8676 20.6513 20.3795L19.4378 19.4978ZM21.7495 10.9997C21.7495 9.14153 21.7505 7.68767 21.6257 6.53617C21.4994 5.37063 21.2371 4.42625 20.6513 3.61993L19.4378 4.50161C19.8069 5.00961 20.022 5.65983 20.1345 6.69774C20.2484 7.74968 20.2495 9.10812 20.2495 10.9997H21.7495ZM18.4975 3.56137C18.8583 3.82351 19.1756 4.1408 19.4378 4.50161L20.6513 3.61993C20.2966 3.13178 19.8674 2.7025 19.3792 2.34785L18.4975 3.56137ZM3.74946 10.9997C3.74946 9.10812 3.75049 7.74968 3.86446 6.69774C3.97691 5.65983 4.19205 5.00961 4.56114 4.50161L3.34761 3.61993C2.76178 4.42625 2.49946 5.37063 2.37319 6.53617C2.24843 7.68767 2.24946 9.14153 2.24946 10.9997H3.74946ZM4.61969 2.34785C4.13155 2.7025 3.70227 3.13178 3.34761 3.61993L4.56114 4.50161C4.82327 4.1408 5.14057 3.82351 5.50137 3.56137L4.61969 2.34785ZM13.0283 5.85424C12.5878 5.924 12.1391 5.924 11.6986 5.85424L11.4639 7.33577C12.0599 7.43016 12.667 7.43016 13.2629 7.33577L13.0283 5.85424ZM17.9098 2.12053C16.6696 3.35984 15.7658 4.24975 14.9851 4.86459C14.2155 5.47064 13.6256 5.75962 13.0283 5.85424L13.2629 7.33577C14.2111 7.18559 15.0374 6.73271 15.9131 6.04303C16.7777 5.36214 17.7483 4.40247 18.9701 3.18157L17.9098 2.12053ZM11.9995 2.74969C13.6612 2.74969 14.9143 2.75022 15.9143 2.82881C16.9119 2.9072 17.5839 3.05932 18.1022 3.32072L18.7776 1.98137C18.0043 1.59142 17.1065 1.41787 16.0319 1.33342C14.9597 1.24917 13.6385 1.2497 11.9995 1.2497V2.74969ZM18.1022 3.32072C18.2426 3.39149 18.3734 3.4712 18.4975 3.56137L19.3792 2.34785C19.1886 2.20936 18.9886 2.08778 18.7776 1.98137L18.1022 3.32072ZM5.54136 2.96622C6.83192 4.25672 7.84491 5.26811 8.73787 5.98281C9.64189 6.70635 10.4885 7.18128 11.4639 7.33577L11.6986 5.85424C11.084 5.7569 10.4776 5.45394 9.67517 4.81171C8.8617 4.16064 7.91489 3.21838 6.602 1.90554L5.54136 2.96622ZM11.9995 1.2497C10.5632 1.2497 9.37315 1.24943 8.38429 1.30542C7.39617 1.36137 6.55578 1.47546 5.82705 1.7269L6.31631 3.14486C6.85173 2.96012 7.53132 2.85612 8.46909 2.80302C9.40613 2.74996 10.5479 2.74969 11.9995 2.74969V1.2497ZM5.82705 1.7269C5.38645 1.87893 4.98735 2.08073 4.61969 2.34785L5.50137 3.56137C5.73794 3.3895 6.0023 3.25321 6.31631 3.14486L5.82705 1.7269ZM7.99946 18.7497H10.9995V17.2497H7.99946V18.7497ZM7.99946 14.7497H15.9995V13.2497H7.99946V14.7497ZM7.99946 10.7497H10.9995V9.24969H7.99946V10.7497Z" fill="black"/>
</svg>
