<svg width="24" height="24" viewBox="0 0 24 24" fill="none" xmlns="http://www.w3.org/2000/svg">
<path d="M19.2174 16.0611L19.1001 15.3203L19.1001 15.3203L19.2174 16.0611ZM15.0611 20.2173L14.3204 20.1L14.3204 20.1L15.0611 20.2173ZM5.06066 21.0446L5.5015 20.4378L5.06066 21.0446ZM3.9545 19.9384L4.56127 19.4976L3.9545 19.9384ZM20.0447 19.9384L20.6514 20.3793L20.0447 19.9384ZM18.9385 21.0446L18.4977 20.4378L18.9385 21.0446ZM18.9385 2.95443L18.4977 3.56119L18.9385 2.95443ZM20.0447 4.06058L19.4379 4.50142L20.0447 4.06058ZM5.06066 2.95443L5.5015 3.56119L5.06066 2.95443ZM3.9545 4.06058L4.56127 4.50142L3.9545 4.06058ZM20.9707 15.9995L21.7202 16.0252L20.9707 15.9995ZM14.9996 21.9706L15.0253 22.7201L14.9996 21.9706ZM7.99959 11.2495C7.58537 11.2495 7.24959 11.5853 7.24959 11.9995C7.24959 12.4137 7.58537 12.7495 7.99959 12.7495V11.2495ZM15.9996 12.7495C16.4138 12.7495 16.7496 12.4137 16.7496 11.9995C16.7496 11.5853 16.4138 11.2495 15.9996 11.2495V12.7495ZM9.99959 7.24951C9.58537 7.24951 9.24959 7.5853 9.24959 7.99951C9.24959 8.41372 9.58537 8.74951 9.99959 8.74951V7.24951ZM13.9996 8.74951C14.4138 8.74951 14.7496 8.41372 14.7496 7.99951C14.7496 7.5853 14.4138 7.24951 13.9996 7.24951V8.74951ZM19.1001 15.3203C16.6397 15.71 14.7101 17.6396 14.3204 20.1L15.8019 20.3347C16.0899 18.5161 17.5162 17.0899 19.3347 16.8018L19.1001 15.3203ZM20.2496 10.9995V12.9995H21.7496V10.9995H20.2496ZM3.74959 12.9995V10.9995H2.24959V12.9995H3.74959ZM11.9996 21.2495C10.108 21.2495 8.74958 21.2485 7.69763 21.1345C6.65972 21.0221 6.0095 20.8069 5.5015 20.4378L4.61982 21.6514C5.42615 22.2372 6.37053 22.4995 7.53606 22.6258C8.68756 22.7505 10.1414 22.7495 11.9996 22.7495V21.2495ZM2.24959 12.9995C2.24959 14.8577 2.24856 16.3115 2.37332 17.463C2.49959 18.6286 2.76191 19.5729 3.34774 20.3793L4.56127 19.4976C4.19218 18.9896 3.97704 18.3394 3.86459 17.3015C3.75062 16.2495 3.74959 14.8911 3.74959 12.9995H2.24959ZM5.5015 20.4378C5.1407 20.1757 4.8234 19.8584 4.56127 19.4976L3.34774 20.3793C3.7024 20.8674 4.13168 21.2967 4.61982 21.6514L5.5015 20.4378ZM19.4379 19.4976C19.1758 19.8584 18.8585 20.1757 18.4977 20.4378L19.3793 21.6514C19.8675 21.2967 20.2968 20.8674 20.6514 20.3793L19.4379 19.4976ZM11.9996 2.74951C13.8912 2.74951 15.2496 2.75054 16.3015 2.86451C17.3394 2.97696 17.9897 3.1921 18.4977 3.56119L19.3793 2.34766C18.573 1.76184 17.6286 1.49952 16.4631 1.37324C15.3116 1.24848 13.8577 1.24951 11.9996 1.24951V2.74951ZM21.7496 10.9995C21.7496 9.14135 21.7506 7.68749 21.6259 6.53599C21.4996 5.37045 21.2373 4.42607 20.6514 3.61975L19.4379 4.50142C19.807 5.00943 20.0221 5.65964 20.1346 6.69755C20.2486 7.7495 20.2496 9.10794 20.2496 10.9995H21.7496ZM18.4977 3.56119C18.8585 3.82333 19.1758 4.14062 19.4379 4.50142L20.6514 3.61975C20.2968 3.1316 19.8675 2.70232 19.3793 2.34766L18.4977 3.56119ZM11.9996 1.24951C10.1414 1.24951 8.68756 1.24848 7.53606 1.37324C6.37053 1.49952 5.42615 1.76184 4.61982 2.34766L5.5015 3.56119C6.0095 3.1921 6.65972 2.97696 7.69763 2.86451C8.74958 2.75054 10.108 2.74951 11.9996 2.74951V1.24951ZM3.74959 10.9995C3.74959 9.10794 3.75062 7.7495 3.86459 6.69755C3.97704 5.65964 4.19218 5.00943 4.56127 4.50142L3.34774 3.61975C2.76191 4.42607 2.49959 5.37045 2.37332 6.53599C2.24856 7.68749 2.24959 9.14135 2.24959 10.9995H3.74959ZM4.61982 2.34766C4.13168 2.70232 3.7024 3.1316 3.34774 3.61975L4.56127 4.50142C4.8234 4.14062 5.1407 3.82333 5.5015 3.56119L4.61982 2.34766ZM20.2496 12.9995C20.2496 14.1726 20.2495 15.1451 20.2211 15.9738L21.7202 16.0252C21.7497 15.1653 21.7496 14.1643 21.7496 12.9995H20.2496ZM20.2211 15.9738C20.1575 17.8288 19.9505 18.792 19.4379 19.4976L20.6514 20.3793C21.4533 19.2756 21.656 17.8986 21.7202 16.0252L20.2211 15.9738ZM20.9706 15.2495C20.0884 15.2495 19.5574 15.2479 19.1001 15.3203L19.3347 16.8018C19.6466 16.7524 20.0334 16.7495 20.9707 16.7495L20.9706 15.2495ZM11.9996 22.7495C13.1644 22.7495 14.1653 22.7496 15.0253 22.7201L14.9739 21.221C14.1451 21.2494 13.1727 21.2495 11.9996 21.2495V22.7495ZM15.0253 22.7201C16.8987 22.6559 18.2757 22.4532 19.3793 21.6514L18.4977 20.4378C17.7921 20.9504 16.8288 21.1575 14.9739 21.221L15.0253 22.7201ZM15.7496 21.9706C15.7496 21.0333 15.7525 20.6465 15.8019 20.3347L14.3204 20.1C14.2479 20.5574 14.2496 21.0883 14.2496 21.9706L15.7496 21.9706ZM7.99959 12.7495H15.9996V11.2495H7.99959V12.7495ZM9.99959 8.74951H13.9996V7.24951H9.99959V8.74951Z" fill="black"/>
</svg>
