<svg width="24" height="24" viewBox="0 0 24 24" fill="none" xmlns="http://www.w3.org/2000/svg">
<path d="M19.2178 7.93789L19.1004 8.67865L19.1004 8.67865L19.2178 7.93789ZM15.0615 3.78162L14.3207 3.89894L14.3207 3.89894L15.0615 3.78162ZM5.06103 21.0445L5.50187 20.4378L5.06103 21.0445ZM3.95487 19.9384L4.56163 19.4975L3.95487 19.9384ZM20.045 19.9384L19.4383 19.4975L20.045 19.9384ZM18.9389 21.0445L18.498 20.4378L18.9389 21.0445ZM18.9389 2.95436L19.3797 2.3476L18.9389 2.95436ZM20.045 4.06052L20.6518 3.61968L20.045 4.06052ZM5.06103 2.95436L5.50187 3.56112L5.06103 2.95436ZM3.95487 4.06052L4.56163 4.50136L3.95487 4.06052ZM14.9999 2.02838L15.0256 1.27882L14.9999 2.02838ZM20.971 7.99944L21.7206 7.97376L20.971 7.99944ZM11.25 16.9994C11.25 17.4137 11.5857 17.7494 12 17.7494C12.4142 17.7494 12.75 17.4137 12.75 16.9994H11.25ZM7.46726 11.6715C7.17568 11.9657 7.1778 12.4405 7.47199 12.7321C7.76619 13.0237 8.24106 13.0216 8.53264 12.7274L7.46726 11.6715ZM9.3978 10.7891L9.93049 11.317L9.93049 11.317L9.3978 10.7891ZM14.6021 10.7891L14.0694 11.317L14.0694 11.317L14.6021 10.7891ZM15.4673 12.7274C15.7588 13.0216 16.2337 13.0237 16.5279 12.7321C16.8221 12.4405 16.8242 11.9657 16.5326 11.6715L15.4673 12.7274ZM11.7493 9.01535L11.6545 8.27137L11.6545 8.27137L11.7493 9.01535ZM12.2506 9.01535L12.3454 8.27137L12.3454 8.27137L12.2506 9.01535ZM12 8.99944L12 8.24944L12 8.99944ZM19.3351 7.19712C17.5166 6.90909 16.0903 5.48284 15.8023 3.66429L14.3207 3.89894C14.7104 6.35932 16.6401 8.28897 19.1004 8.67865L19.3351 7.19712ZM20.2499 10.9994V12.9994H21.7499V10.9994H20.2499ZM3.74995 12.9994V10.9994H2.24995V12.9994H3.74995ZM12 21.2494C10.1084 21.2494 8.74994 21.2484 7.698 21.1344C6.66009 21.022 6.00987 20.8068 5.50187 20.4378L4.62019 21.6513C5.42651 22.2371 6.37089 22.4994 7.53643 22.6257C8.68793 22.7505 10.1418 22.7494 12 22.7494V21.2494ZM2.24995 12.9994C2.24995 14.8576 2.24893 16.3115 2.37368 17.463C2.49996 18.6285 2.76228 19.5729 3.34811 20.3792L4.56163 19.4975C4.19254 18.9895 3.97741 18.3393 3.86495 17.3014C3.75098 16.2494 3.74995 14.891 3.74995 12.9994H2.24995ZM5.50187 20.4378C5.14106 20.1756 4.82377 19.8583 4.56163 19.4975L3.34811 20.3792C3.70276 20.8673 4.13204 21.2966 4.62019 21.6513L5.50187 20.4378ZM20.2499 12.9994C20.2499 14.891 20.2489 16.2494 20.1349 17.3014C20.0225 18.3393 19.8074 18.9895 19.4383 19.4975L20.6518 20.3792C21.2376 19.5729 21.4999 18.6285 21.6262 17.463C21.751 16.3115 21.7499 14.8576 21.7499 12.9994H20.2499ZM12 22.7494C13.8581 22.7494 15.312 22.7505 16.4635 22.6257C17.629 22.4994 18.5734 22.2371 19.3797 21.6513L18.498 20.4378C17.99 20.8068 17.3398 21.022 16.3019 21.1344C15.25 21.2484 13.8915 21.2494 12 21.2494V22.7494ZM19.4383 19.4975C19.1761 19.8583 18.8588 20.1756 18.498 20.4378L19.3797 21.6513C19.8679 21.2966 20.2971 20.8673 20.6518 20.3792L19.4383 19.4975ZM18.498 3.56112C18.8588 3.82326 19.1761 4.14056 19.4383 4.50136L20.6518 3.61968C20.2971 3.13154 19.8679 2.70226 19.3797 2.3476L18.498 3.56112ZM12 1.24945C10.1418 1.24945 8.68793 1.24842 7.53643 1.37317C6.37089 1.49945 5.42651 1.76177 4.62019 2.3476L5.50187 3.56112C6.00987 3.19204 6.66009 2.9769 7.698 2.86445C8.74994 2.75048 10.1084 2.74945 12 2.74945V1.24945ZM3.74995 10.9994C3.74995 9.10787 3.75098 7.74944 3.86495 6.69749C3.97741 5.65958 4.19254 5.00936 4.56163 4.50136L3.34811 3.61968C2.76228 4.426 2.49996 5.37038 2.37368 6.53592C2.24893 7.68742 2.24995 9.14128 2.24995 10.9994H3.74995ZM4.62019 2.3476C4.13204 2.70226 3.70276 3.13154 3.34811 3.61968L4.56163 4.50136C4.82377 4.14056 5.14106 3.82326 5.50187 3.56112L4.62019 2.3476ZM12 2.74945C13.173 2.74945 14.1455 2.74954 14.9743 2.77794L15.0256 1.27882C14.1657 1.24935 13.1647 1.24945 12 1.24945V2.74945ZM14.9743 2.77794C16.8292 2.84149 17.7925 3.04851 18.498 3.56112L19.3797 2.3476C18.2761 1.54574 16.8991 1.343 15.0256 1.27882L14.9743 2.77794ZM14.2499 2.02838C14.25 2.91065 14.2483 3.44159 14.3207 3.89894L15.8023 3.66429C15.7529 3.35243 15.75 2.96562 15.7499 2.02837L14.2499 2.02838ZM21.7499 10.9994C21.7499 9.83467 21.75 8.83369 21.7206 7.97376L20.2215 8.02512C20.2499 8.85389 20.2499 9.82637 20.2499 10.9994H21.7499ZM21.7206 7.97376C21.6564 6.10032 21.4537 4.72334 20.6518 3.61968L19.4383 4.50136C19.9509 5.20691 20.1579 6.1702 20.2215 8.02512L21.7206 7.97376ZM20.971 7.24944C20.0338 7.24944 19.647 7.24651 19.3351 7.19712L19.1004 8.67865C19.5578 8.75109 20.0887 8.74944 20.971 8.74944L20.971 7.24944ZM12.75 16.9994V9.79944H11.25V16.9994H12.75ZM8.53264 12.7274L9.93049 11.317L8.86511 10.2611L7.46726 11.6715L8.53264 12.7274ZM14.0694 11.317L15.4673 12.7274L16.5326 11.6715L15.1348 10.2611L14.0694 11.317ZM9.93049 11.317C10.5003 10.7421 10.8838 10.3568 11.2064 10.0977C11.5172 9.84808 11.698 9.77796 11.8441 9.75934L11.6545 8.27137C11.1213 8.33934 10.6836 8.59371 10.2672 8.92813C9.8626 9.25306 9.41007 9.71126 8.86511 10.2611L9.93049 11.317ZM15.1348 10.2611C14.5898 9.71126 14.1373 9.25306 13.7327 8.92814C13.3163 8.59371 12.8786 8.33934 12.3454 8.27137L12.1558 9.75934C12.3019 9.77796 12.4827 9.84808 12.7935 10.0977C13.1161 10.3568 13.4996 10.7421 14.0694 11.317L15.1348 10.2611ZM11.8441 9.75934C11.8959 9.75274 11.9479 9.74944 12 9.74944L12 8.24944C11.8846 8.24944 11.7692 8.25675 11.6545 8.27137L11.8441 9.75934ZM12 9.74944C12.052 9.74944 12.104 9.75274 12.1558 9.75934L12.3454 8.27137C12.2307 8.25675 12.1153 8.24944 12 8.24944L12 9.74944ZM12.75 9.79944V8.99944H11.25V9.79944H12.75Z" fill="black"/>
</svg>
