<svg width="24" height="24" viewBox="0 0 24 24" fill="none" xmlns="http://www.w3.org/2000/svg">
<path d="M19.2181 7.93789L19.1008 8.67865L19.1008 8.67865L19.2181 7.93789ZM15.0618 3.78162L14.3211 3.89894L14.3211 3.89894L15.0618 3.78162ZM5.06135 21.0445L5.50219 20.4378L5.06135 21.0445ZM3.95519 19.9384L4.56195 19.4975L3.95519 19.9384ZM20.0454 19.9384L19.4386 19.4975L20.0454 19.9384ZM18.9392 21.0445L18.4984 20.4378L18.9392 21.0445ZM18.9392 2.95436L19.38 2.3476L18.9392 2.95436ZM20.0454 4.06052L20.6521 3.61968L20.0454 4.06052ZM5.06135 2.95436L5.50219 3.56112L5.06135 2.95436ZM3.95519 4.06052L4.56195 4.50136L3.95519 4.06052ZM15.0003 2.02838L15.026 1.27882L15.0003 2.02838ZM20.9713 7.99944L21.7209 7.97376L20.9713 7.99944ZM10.4093 10.5904C10.1164 10.2975 9.64151 10.2975 9.34862 10.5904C9.05573 10.8833 9.05573 11.3582 9.34862 11.6511L10.4093 10.5904ZM13.5913 15.8937C13.8842 16.1866 14.359 16.1866 14.6519 15.8937C14.9448 15.6008 14.9448 15.126 14.6519 14.8331L13.5913 15.8937ZM9.34862 14.8331C9.05573 15.126 9.05573 15.6008 9.34862 15.8937C9.64151 16.1866 10.1164 16.1866 10.4093 15.8937L9.34862 14.8331ZM14.6519 11.6511C14.9448 11.3582 14.9448 10.8833 14.6519 10.5904C14.359 10.2975 13.8842 10.2975 13.5913 10.5904L14.6519 11.6511ZM19.3354 7.19712C17.5169 6.90909 16.0906 5.48284 15.8026 3.66429L14.3211 3.89894C14.7107 6.35932 16.6404 8.28897 19.1008 8.67865L19.3354 7.19712ZM20.2503 10.9994V12.9994H21.7503V10.9994H20.2503ZM3.75027 12.9994V10.9994H2.25027V12.9994H3.75027ZM12.0003 21.2494C10.1087 21.2494 8.75026 21.2484 7.69832 21.1344C6.66041 21.022 6.01019 20.8068 5.50219 20.4378L4.62051 21.6513C5.42683 22.2371 6.37121 22.4994 7.53675 22.6257C8.68825 22.7505 10.1421 22.7494 12.0003 22.7494V21.2494ZM2.25027 12.9994C2.25027 14.8576 2.24925 16.3115 2.374 17.463C2.50028 18.6285 2.7626 19.5729 3.34843 20.3792L4.56195 19.4975C4.19287 18.9895 3.97773 18.3393 3.86528 17.3014C3.7513 16.2494 3.75027 14.891 3.75027 12.9994H2.25027ZM5.50219 20.4378C5.14138 20.1756 4.82409 19.8583 4.56195 19.4975L3.34843 20.3792C3.70308 20.8673 4.13236 21.2966 4.62051 21.6513L5.50219 20.4378ZM20.2503 12.9994C20.2503 14.891 20.2492 16.2494 20.1353 17.3014C20.0228 18.3393 19.8077 18.9895 19.4386 19.4975L20.6521 20.3792C21.2379 19.5729 21.5003 18.6285 21.6265 17.463C21.7513 16.3115 21.7503 14.8576 21.7503 12.9994H20.2503ZM12.0003 22.7494C13.8584 22.7494 15.3123 22.7505 16.4638 22.6257C17.6293 22.4994 18.5737 22.2371 19.38 21.6513L18.4984 20.4378C17.9904 20.8068 17.3401 21.022 16.3022 21.1344C15.2503 21.2484 13.8918 21.2494 12.0003 21.2494V22.7494ZM19.4386 19.4975C19.1765 19.8583 18.8592 20.1756 18.4984 20.4378L19.38 21.6513C19.8682 21.2966 20.2975 20.8673 20.6521 20.3792L19.4386 19.4975ZM18.4984 3.56112C18.8592 3.82326 19.1765 4.14056 19.4386 4.50136L20.6521 3.61968C20.2975 3.13154 19.8682 2.70226 19.38 2.3476L18.4984 3.56112ZM12.0003 1.24945C10.1421 1.24945 8.68825 1.24842 7.53675 1.37317C6.37121 1.49945 5.42683 1.76177 4.62051 2.3476L5.50219 3.56112C6.01019 3.19204 6.66041 2.9769 7.69832 2.86445C8.75026 2.75048 10.1087 2.74945 12.0003 2.74945V1.24945ZM3.75027 10.9994C3.75027 9.10787 3.7513 7.74944 3.86528 6.69749C3.97773 5.65958 4.19287 5.00936 4.56195 4.50136L3.34843 3.61968C2.7626 4.426 2.50028 5.37038 2.374 6.53592C2.24925 7.68742 2.25027 9.14128 2.25027 10.9994H3.75027ZM4.62051 2.3476C4.13236 2.70226 3.70308 3.13154 3.34843 3.61968L4.56195 4.50136C4.82409 4.14056 5.14138 3.82326 5.50219 3.56112L4.62051 2.3476ZM12.0003 2.74945C13.1733 2.74945 14.1458 2.74954 14.9746 2.77794L15.026 1.27882C14.166 1.24935 13.165 1.24945 12.0003 1.24945V2.74945ZM14.9746 2.77794C16.8295 2.84149 17.7928 3.04851 18.4984 3.56112L19.38 2.3476C18.2764 1.54574 16.8994 1.343 15.026 1.27882L14.9746 2.77794ZM14.2503 2.02838C14.2503 2.91065 14.2486 3.44159 14.3211 3.89894L15.8026 3.66429C15.7532 3.35243 15.7503 2.96562 15.7503 2.02837L14.2503 2.02838ZM21.7503 10.9994C21.7503 9.83467 21.7504 8.83369 21.7209 7.97376L20.2218 8.02512C20.2502 8.85389 20.2503 9.82637 20.2503 10.9994H21.7503ZM21.7209 7.97376C21.6567 6.10032 21.454 4.72334 20.6521 3.61968L19.4386 4.50136C19.9512 5.20691 20.1582 6.1702 20.2218 8.02512L21.7209 7.97376ZM20.9713 7.24944C20.0341 7.24944 19.6473 7.24651 19.3354 7.19712L19.1008 8.67865C19.5581 8.75109 20.0891 8.74944 20.9713 8.74944L20.9713 7.24944ZM9.34862 11.6511L13.5913 15.8937L14.6519 14.8331L10.4093 10.5904L9.34862 11.6511ZM10.4093 15.8937L14.6519 11.6511L13.5913 10.5904L9.34862 14.8331L10.4093 15.8937Z" fill="black"/>
</svg>
