<svg width="24" height="24" viewBox="0 0 24 24" fill="none" xmlns="http://www.w3.org/2000/svg">
<path d="M5.06077 21.0448L5.50161 20.438L5.06077 21.0448ZM3.95461 19.9386L4.56137 19.4978L3.95461 19.9386ZM20.0448 19.9386L19.438 19.4978L20.0448 19.9386ZM18.9386 21.0448L18.4978 20.438L18.9386 21.0448ZM18.9386 2.95461L19.3795 2.34785L18.9386 2.95461ZM20.0448 4.06077L19.438 4.50161L20.0448 4.06077ZM5.06077 2.95461L5.50161 3.56137L5.06077 2.95461ZM3.95461 4.06077L4.56137 4.50161L3.95461 4.06077ZM13.1458 6.595L13.2632 7.33577L13.2632 7.33577L13.1458 6.595ZM11.5815 6.595L11.4642 7.33577L11.4642 7.33577L11.5815 6.595ZM7.99969 17.2497C7.58548 17.2497 7.24969 17.5855 7.24969 17.9997C7.24969 18.4139 7.58548 18.7497 7.99969 18.7497V17.2497ZM15.9997 18.7497C16.4139 18.7497 16.7497 18.4139 16.7497 17.9997C16.7497 17.5855 16.4139 17.2497 15.9997 17.2497V18.7497ZM7.99969 13.2497C7.58548 13.2497 7.24969 13.5855 7.24969 13.9997C7.24969 14.4139 7.58548 14.7497 7.99969 14.7497V13.2497ZM15.9997 14.7497C16.4139 14.7497 16.7497 14.4139 16.7497 13.9997C16.7497 13.5855 16.4139 13.2497 15.9997 13.2497V14.7497ZM7.99969 9.24969C7.58548 9.24969 7.24969 9.58548 7.24969 9.99969C7.24969 10.4139 7.58548 10.7497 7.99969 10.7497V9.24969ZM15.9997 10.7497C16.4139 10.7497 16.7497 10.4139 16.7497 9.99969C16.7497 9.58548 16.4139 9.24969 15.9997 9.24969V10.7497ZM20.2497 10.9997V12.9997H21.7497V10.9997H20.2497ZM3.74969 12.9997V10.9997H2.2497V12.9997H3.74969ZM11.9997 21.2497C10.1081 21.2497 8.74968 21.2487 7.69774 21.1347C6.65983 21.0222 6.00961 20.8071 5.50161 20.438L4.61993 21.6515C5.42625 22.2374 6.37063 22.4997 7.53617 22.626C8.68767 22.7507 10.1415 22.7497 11.9997 22.7497V21.2497ZM2.2497 12.9997C2.2497 14.8578 2.24867 16.3117 2.37342 17.4632C2.4997 18.6287 2.76202 19.5731 3.34785 20.3795L4.56137 19.4978C4.19229 18.9898 3.97715 18.3396 3.8647 17.3016C3.75072 16.2497 3.74969 14.8913 3.74969 12.9997H2.2497ZM5.50161 20.438C5.1408 20.1759 4.82351 19.8586 4.56137 19.4978L3.34785 20.3795C3.7025 20.8676 4.13178 21.2969 4.61993 21.6515L5.50161 20.438ZM20.2497 12.9997C20.2497 14.8913 20.2487 16.2497 20.1347 17.3016C20.0222 18.3396 19.8071 18.9898 19.438 19.4978L20.6515 20.3795C21.2374 19.5731 21.4997 18.6287 21.626 17.4632C21.7507 16.3117 21.7497 14.8578 21.7497 12.9997H20.2497ZM11.9997 22.7497C13.8579 22.7497 15.3117 22.7507 16.4632 22.626C17.6287 22.4997 18.5731 22.2374 19.3795 21.6515L18.4978 20.438C17.9898 20.8071 17.3396 21.0222 16.3016 21.1347C15.2497 21.2487 13.8913 21.2497 11.9997 21.2497V22.7497ZM19.438 19.4978C19.1759 19.8586 18.8586 20.1759 18.4978 20.438L19.3795 21.6515C19.8676 21.2969 20.2969 20.8676 20.6515 20.3795L19.438 19.4978ZM21.7497 10.9997C21.7497 9.14153 21.7507 7.68767 21.626 6.53617C21.4997 5.37063 21.2374 4.42625 20.6515 3.61993L19.438 4.50161C19.8071 5.00961 20.0222 5.65983 20.1347 6.69774C20.2487 7.74968 20.2497 9.10812 20.2497 10.9997H21.7497ZM18.4978 3.56137C18.8586 3.82351 19.1759 4.1408 19.438 4.50161L20.6515 3.61993C20.2969 3.13178 19.8676 2.7025 19.3795 2.34785L18.4978 3.56137ZM3.74969 10.9997C3.74969 9.10812 3.75072 7.74968 3.8647 6.69774C3.97715 5.65983 4.19229 5.00961 4.56137 4.50161L3.34785 3.61993C2.76202 4.42625 2.4997 5.37063 2.37342 6.53617C2.24867 7.68767 2.2497 9.14153 2.2497 10.9997H3.74969ZM4.61993 2.34785C4.13178 2.7025 3.7025 3.13178 3.34785 3.61993L4.56137 4.50161C4.82351 4.1408 5.1408 3.82351 5.50161 3.56137L4.61993 2.34785ZM13.0285 5.85424C12.588 5.924 12.1393 5.924 11.6988 5.85424L11.4642 7.33577C12.0601 7.43016 12.6672 7.43016 13.2632 7.33577L13.0285 5.85424ZM17.91 2.12053C16.6698 3.35984 15.766 4.24975 14.9853 4.86459C14.2158 5.47064 13.6259 5.75962 13.0285 5.85424L13.2632 7.33577C14.2113 7.18559 15.0376 6.73271 15.9134 6.04303C16.7779 5.36214 17.7485 4.40247 18.9703 3.18157L17.91 2.12053ZM11.9997 2.74969C13.6614 2.74969 14.9146 2.75022 15.9146 2.82881C16.9121 2.9072 17.5841 3.05932 18.1025 3.32072L18.7779 1.98137C18.0045 1.59142 17.1067 1.41787 16.0321 1.33342C14.96 1.24917 13.6388 1.2497 11.9997 1.2497V2.74969ZM18.1025 3.32072C18.2428 3.39149 18.3737 3.4712 18.4978 3.56137L19.3795 2.34785C19.1888 2.20936 18.9889 2.08778 18.7779 1.98137L18.1025 3.32072ZM5.5416 2.96622C6.83215 4.25672 7.84514 5.26811 8.73811 5.98281C9.64212 6.70635 10.4887 7.18128 11.4642 7.33577L11.6988 5.85424C11.0843 5.7569 10.4778 5.45394 9.67541 4.81171C8.86194 4.16064 7.91513 3.21838 6.60223 1.90554L5.5416 2.96622ZM11.9997 1.2497C10.5634 1.2497 9.37338 1.24943 8.38453 1.30542C7.3964 1.36137 6.55602 1.47546 5.82728 1.7269L6.31654 3.14486C6.85196 2.96012 7.53156 2.85612 8.46933 2.80302C9.40637 2.74996 10.5482 2.74969 11.9997 2.74969V1.2497ZM5.82728 1.7269C5.38668 1.87893 4.98759 2.08073 4.61993 2.34785L5.50161 3.56137C5.73817 3.3895 6.00253 3.25321 6.31654 3.14486L5.82728 1.7269ZM7.99969 18.7497H15.9997V17.2497H7.99969V18.7497ZM7.99969 14.7497H15.9997V13.2497H7.99969V14.7497ZM7.99969 10.7497H15.9997V9.24969H7.99969V10.7497Z" fill="black"/>
</svg>
