<svg width="24" height="24" viewBox="0 0 24 24" fill="none" xmlns="http://www.w3.org/2000/svg">
<path d="M19.2173 16.0611L19.1 15.3203L19.1 15.3203L19.2173 16.0611ZM15.061 20.2173L14.3202 20.1L14.3202 20.1L15.061 20.2173ZM5.06053 21.0446L5.50137 20.4378L5.06053 21.0446ZM3.95437 19.9384L4.56114 19.4976L3.95437 19.9384ZM20.0445 19.9384L20.6513 20.3793L20.0445 19.9384ZM18.9384 21.0446L18.4975 20.4378L18.9384 21.0446ZM18.9384 2.95443L18.4975 3.56119L18.9384 2.95443ZM20.0445 4.06058L19.4378 4.50142L20.0445 4.06058ZM5.06053 2.95443L5.50137 3.56119L5.06053 2.95443ZM3.95437 4.06058L4.56114 4.50142L3.95437 4.06058ZM20.9705 15.9995L21.7201 16.0252L20.9705 15.9995ZM14.9995 21.9706L15.0251 22.7201L14.9995 21.9706ZM7.99946 11.2495C7.58524 11.2495 7.24946 11.5853 7.24946 11.9995C7.24946 12.4137 7.58524 12.7495 7.99946 12.7495L7.99946 11.2495ZM15.9995 12.7495C16.4137 12.7495 16.7495 12.4137 16.7495 11.9995C16.7495 11.5853 16.4137 11.2495 15.9995 11.2495L15.9995 12.7495ZM7.99946 7.24951C7.58524 7.24951 7.24946 7.5853 7.24946 7.99951C7.24946 8.41372 7.58524 8.74951 7.99946 8.74951L7.99946 7.24951ZM10.9995 8.74951C11.4137 8.74951 11.7495 8.41372 11.7495 7.99951C11.7495 7.5853 11.4137 7.24951 10.9995 7.24951L10.9995 8.74951ZM19.1 15.3203C16.6396 15.71 14.7099 17.6396 14.3202 20.1L15.8018 20.3347C16.0898 18.5161 17.5161 17.0899 19.3346 16.8018L19.1 15.3203ZM20.2495 10.9995V12.9995H21.7495V10.9995H20.2495ZM3.74946 12.9995V10.9995H2.24946V12.9995H3.74946ZM11.9995 21.2495C10.1079 21.2495 8.74945 21.2485 7.6975 21.1345C6.65959 21.0221 6.00937 20.8069 5.50137 20.4378L4.61969 21.6514C5.42602 22.2372 6.3704 22.4995 7.53593 22.6258C8.68743 22.7505 10.1413 22.7495 11.9995 22.7495V21.2495ZM2.24946 12.9995C2.24946 14.8577 2.24843 16.3115 2.37319 17.463C2.49946 18.6286 2.76178 19.5729 3.34761 20.3793L4.56114 19.4976C4.19205 18.9896 3.97691 18.3394 3.86446 17.3015C3.75049 16.2495 3.74946 14.8911 3.74946 12.9995H2.24946ZM5.50137 20.4378C5.14057 20.1757 4.82327 19.8584 4.56114 19.4976L3.34761 20.3793C3.70227 20.8674 4.13155 21.2967 4.61969 21.6514L5.50137 20.4378ZM19.4378 19.4976C19.1756 19.8584 18.8583 20.1757 18.4975 20.4378L19.3792 21.6514C19.8674 21.2967 20.2966 20.8674 20.6513 20.3793L19.4378 19.4976ZM11.9995 2.74951C13.891 2.74951 15.2495 2.75054 16.3014 2.86451C17.3393 2.97696 17.9895 3.1921 18.4975 3.56119L19.3792 2.34766C18.5729 1.76184 17.6285 1.49952 16.463 1.37324C15.3115 1.24848 13.8576 1.24951 11.9995 1.24951V2.74951ZM21.7495 10.9995C21.7495 9.14135 21.7505 7.68749 21.6257 6.53599C21.4994 5.37045 21.2371 4.42607 20.6513 3.61975L19.4378 4.50142C19.8069 5.00943 20.022 5.65964 20.1345 6.69755C20.2484 7.7495 20.2495 9.10794 20.2495 10.9995H21.7495ZM18.4975 3.56119C18.8583 3.82333 19.1756 4.14062 19.4378 4.50142L20.6513 3.61975C20.2966 3.1316 19.8674 2.70232 19.3792 2.34766L18.4975 3.56119ZM11.9995 1.24951C10.1413 1.24951 8.68743 1.24848 7.53593 1.37324C6.3704 1.49952 5.42602 1.76184 4.61969 2.34766L5.50137 3.56119C6.00937 3.1921 6.65959 2.97696 7.6975 2.86451C8.74945 2.75054 10.1079 2.74951 11.9995 2.74951V1.24951ZM3.74946 10.9995C3.74946 9.10794 3.75049 7.7495 3.86446 6.69755C3.97691 5.65964 4.19205 5.00943 4.56114 4.50142L3.34761 3.61975C2.76178 4.42607 2.49946 5.37045 2.37319 6.53599C2.24843 7.68749 2.24946 9.14135 2.24946 10.9995H3.74946ZM4.61969 2.34766C4.13155 2.70232 3.70227 3.1316 3.34761 3.61975L4.56114 4.50142C4.82327 4.14062 5.14057 3.82333 5.50137 3.56119L4.61969 2.34766ZM20.2495 12.9995C20.2495 14.1726 20.2494 15.1451 20.221 15.9738L21.7201 16.0252C21.7495 15.1653 21.7495 14.1643 21.7495 12.9995H20.2495ZM20.221 15.9738C20.1574 17.8288 19.9504 18.792 19.4378 19.4976L20.6513 20.3793C21.4532 19.2756 21.6559 17.8986 21.7201 16.0252L20.221 15.9738ZM20.9705 15.2495C20.0882 15.2495 19.5573 15.2479 19.1 15.3203L19.3346 16.8018C19.6465 16.7524 20.0333 16.7495 20.9705 16.7495L20.9705 15.2495ZM11.9995 22.7495C13.1642 22.7495 14.1652 22.7496 15.0251 22.7201L14.9738 21.221C14.145 21.2494 13.1725 21.2495 11.9995 21.2495V22.7495ZM15.0251 22.7201C16.8986 22.6559 18.2756 22.4532 19.3792 21.6514L18.4975 20.4378C17.792 20.9504 16.8287 21.1575 14.9738 21.221L15.0251 22.7201ZM15.7495 21.9706C15.7495 21.0333 15.7524 20.6465 15.8018 20.3347L14.3202 20.1C14.2478 20.5574 14.2495 21.0883 14.2495 21.9706L15.7495 21.9706ZM7.99946 12.7495L15.9995 12.7495L15.9995 11.2495L7.99946 11.2495L7.99946 12.7495ZM7.99946 8.74951L10.9995 8.74951L10.9995 7.24951L7.99946 7.24951L7.99946 8.74951Z" fill="black"/>
</svg>
