<svg width="24" height="24" viewBox="0 0 24 24" fill="none" xmlns="http://www.w3.org/2000/svg">
<path d="M4.7821 8.9379L4.89942 9.67866L4.89942 9.67866L4.7821 8.9379ZM8.93836 4.78163L9.67913 4.89896L9.67913 4.89896L8.93836 4.78163ZM18.9388 20.0445L18.498 19.4378L18.9388 20.0445ZM20.045 18.9384L19.4382 18.4975L20.045 18.9384ZM3.95484 18.9384L4.5616 18.4975L3.95484 18.9384ZM5.061 20.0445L5.50184 19.4378L5.061 20.0445ZM5.061 3.95437L4.62016 3.34761L5.061 3.95437ZM3.95484 5.06053L3.34807 4.61969L3.95484 5.06053ZM18.9388 3.95437L18.498 4.56114L18.9388 3.95437ZM20.045 5.06053L19.4382 5.50137L20.045 5.06053ZM8.99992 3.02839L8.97424 2.27883L8.99992 3.02839ZM3.02885 8.99946L2.27929 8.97377L3.02885 8.99946ZM13.7499 8.99946C13.7499 8.58524 13.4141 8.24946 12.9999 8.24946C12.5857 8.24946 12.2499 8.58524 12.2499 8.99946H13.7499ZM17.5326 14.3274C17.8242 14.0332 17.8221 13.5583 17.5279 13.2668C17.2337 12.9752 16.7588 12.9773 16.4672 13.2715L17.5326 14.3274ZM15.6021 15.2098L16.1348 15.7378L16.1348 15.7378L15.6021 15.2098ZM10.3978 15.2098L10.9305 14.6819L10.9305 14.6819L10.3978 15.2098ZM9.53261 13.2715C9.24103 12.9773 8.76616 12.9752 8.47196 13.2668C8.17776 13.5583 8.17565 14.0332 8.46723 14.3274L9.53261 13.2715ZM13.2506 16.9835L13.3454 17.7275L13.3454 17.7275L13.2506 16.9835ZM12.7493 16.9835L12.6544 17.7275L12.6544 17.7275L12.7493 16.9835ZM4.89942 9.67866C7.3598 9.28898 9.28944 7.35934 9.67913 4.89896L8.1976 4.6643C7.90957 6.48285 6.48331 7.9091 4.66477 8.19713L4.89942 9.67866ZM11.9999 21.7495C13.8581 21.7495 15.3119 21.7505 16.4634 21.6257C17.629 21.4994 18.5734 21.2371 19.3797 20.6513L18.498 19.4378C17.99 19.8069 17.3398 20.022 16.3019 20.1345C15.2499 20.2484 13.8915 20.2495 11.9999 20.2495V21.7495ZM20.2499 11.9995C20.2499 13.891 20.2489 15.2495 20.1349 16.3014C20.0225 17.3393 19.8073 17.9895 19.4382 18.4975L20.6518 19.3792C21.2376 18.5729 21.4999 17.6285 21.6262 16.463C21.7509 15.3115 21.7499 13.8576 21.7499 11.9995H20.2499ZM19.3797 20.6513C19.8678 20.2966 20.2971 19.8674 20.6518 19.3792L19.4382 18.4975C19.1761 18.8583 18.8588 19.1756 18.498 19.4378L19.3797 20.6513ZM2.24992 11.9995C2.24992 13.8576 2.24889 15.3115 2.37365 16.463C2.49993 17.6285 2.76225 18.5729 3.34807 19.3792L4.5616 18.4975C4.19251 17.9895 3.97737 17.3393 3.86492 16.3014C3.75095 15.2495 3.74992 13.891 3.74992 11.9995H2.24992ZM11.9999 20.2495C10.1083 20.2495 8.74991 20.2484 7.69797 20.1345C6.66006 20.022 6.00984 19.8069 5.50184 19.4378L4.62016 20.6513C5.42648 21.2371 6.37086 21.4994 7.5364 21.6257C8.6879 21.7505 10.1418 21.7495 11.9999 21.7495V20.2495ZM3.34807 19.3792C3.70273 19.8674 4.13201 20.2966 4.62016 20.6513L5.50184 19.4378C5.14103 19.1756 4.82374 18.8583 4.5616 18.4975L3.34807 19.3792ZM4.62016 3.34761C4.13201 3.70227 3.70273 4.13155 3.34807 4.61969L4.5616 5.50137C4.82374 5.14057 5.14103 4.82327 5.50184 4.56114L4.62016 3.34761ZM11.9999 3.74946C13.8915 3.74946 15.2499 3.75049 16.3019 3.86446C17.3398 3.97691 17.99 4.19205 18.498 4.56114L19.3797 3.34761C18.5734 2.76178 17.629 2.49946 16.4634 2.37319C15.3119 2.24843 13.8581 2.24946 11.9999 2.24946V3.74946ZM21.7499 11.9995C21.7499 10.1413 21.7509 8.68743 21.6262 7.53593C21.4999 6.3704 21.2376 5.42602 20.6518 4.61969L19.4382 5.50137C19.8073 6.00937 20.0225 6.65959 20.1349 7.6975C20.2489 8.74945 20.2499 10.1079 20.2499 11.9995H21.7499ZM18.498 4.56114C18.8588 4.82327 19.1761 5.14057 19.4382 5.50137L20.6518 4.61969C20.2971 4.13155 19.8678 3.70227 19.3797 3.34761L18.498 4.56114ZM11.9999 2.24946C10.8351 2.24946 9.83417 2.24936 8.97424 2.27883L9.0256 3.77795C9.85437 3.74955 10.8268 3.74946 11.9999 3.74946V2.24946ZM8.97424 2.27883C7.1008 2.34301 5.72382 2.54575 4.62016 3.34761L5.50184 4.56114C6.20738 4.04852 7.17068 3.8415 9.0256 3.77795L8.97424 2.27883ZM8.24992 3.02838C8.24991 3.96563 8.24699 4.35244 8.1976 4.6643L9.67913 4.89896C9.75157 4.4416 9.74991 3.91066 9.74992 3.02839L8.24992 3.02838ZM3.74992 11.9995C3.74992 10.8264 3.75002 9.8539 3.77841 9.02514L2.27929 8.97377C2.24983 9.8337 2.24992 10.8347 2.24992 11.9995H3.74992ZM3.77841 9.02514C3.84196 7.17021 4.04899 6.20692 4.5616 5.50137L3.34807 4.61969C2.54622 5.72335 2.34348 7.10033 2.27929 8.97377L3.77841 9.02514ZM3.02886 9.74946C3.91113 9.74945 4.44207 9.7511 4.89942 9.67866L4.66477 8.19713C4.35291 8.24653 3.9661 8.24945 3.02885 8.24946L3.02886 9.74946ZM12.2499 8.99946V16.1995H13.7499V8.99946H12.2499ZM16.4672 13.2715L15.0694 14.6819L16.1348 15.7378L17.5326 14.3274L16.4672 13.2715ZM10.9305 14.6819L9.53261 13.2715L8.46723 14.3274L9.86508 15.7378L10.9305 14.6819ZM15.0694 14.6819C14.4996 15.2568 14.1161 15.6421 13.7934 15.9012C13.4826 16.1508 13.3019 16.2209 13.1558 16.2396L13.3454 17.7275C13.8786 17.6596 14.3163 17.4052 14.7327 17.0708C15.1373 16.7458 15.5898 16.2876 16.1348 15.7378L15.0694 14.6819ZM9.86508 15.7378C10.41 16.2876 10.8626 16.7458 11.2672 17.0708C11.6836 17.4052 12.1212 17.6596 12.6544 17.7275L12.8441 16.2396C12.6979 16.2209 12.5172 16.1508 12.2064 15.9012C11.8838 15.6421 11.5002 15.2568 10.9305 14.6819L9.86508 15.7378ZM13.1558 16.2396C13.104 16.2462 13.052 16.2495 12.9999 16.2495L12.9999 17.7495C13.1153 17.7495 13.2307 17.7421 13.3454 17.7275L13.1558 16.2396ZM12.9999 16.2495C12.9479 16.2495 12.8958 16.2462 12.8441 16.2396L12.6544 17.7275C12.7691 17.7421 12.8845 17.7495 12.9999 17.7495L12.9999 16.2495ZM12.2499 16.1995V16.9995H13.7499V16.1995H12.2499Z" fill="black"/>
</svg>
