<svg width="24" height="24" viewBox="0 0 24 24" fill="none" xmlns="http://www.w3.org/2000/svg">
<path d="M4.78245 7.93792L4.89977 8.67869L4.89977 8.67869L4.78245 7.93792ZM8.93871 3.78166L9.67948 3.89898L9.67948 3.89898L8.93871 3.78166ZM18.9392 21.0446L18.4984 20.4378L18.9392 21.0446ZM20.0454 19.9384L19.4386 19.4976L20.0454 19.9384ZM3.95519 19.9384L4.56195 19.4976L3.95519 19.9384ZM5.06135 21.0446L5.50219 20.4378L5.06135 21.0446ZM5.06135 2.9544L4.62051 2.34764L5.06135 2.9544ZM3.95519 4.06056L3.34843 3.61972L3.95519 4.06056ZM18.9392 2.9544L18.4984 3.56116L18.9392 2.9544ZM20.0454 4.06056L19.4386 4.5014L20.0454 4.06056ZM9.00027 2.02841L8.97459 1.27885L9.00027 2.02841ZM3.0292 7.99948L2.27964 7.9738L3.0292 7.99948ZM8.00027 13.2495C7.58606 13.2495 7.25027 13.5853 7.25027 13.9995C7.25027 14.4137 7.58606 14.7495 8.00027 14.7495V13.2495ZM16.0003 14.7495C16.4145 14.7495 16.7503 14.4137 16.7503 13.9995C16.7503 13.5853 16.4145 13.2495 16.0003 13.2495V14.7495ZM13.0003 9.24948C12.5861 9.24948 12.2503 9.58527 12.2503 9.99948C12.2503 10.4137 12.5861 10.7495 13.0003 10.7495V9.24948ZM16.0003 10.7495C16.4145 10.7495 16.7503 10.4137 16.7503 9.99948C16.7503 9.58527 16.4145 9.24948 16.0003 9.24948V10.7495ZM4.89977 8.67869C7.36015 8.289 9.28979 6.35936 9.67948 3.89898L8.19795 3.66433C7.90992 5.48287 6.48366 6.90913 4.66512 7.19716L4.89977 8.67869ZM2.25027 10.9995V12.9995H3.75027V10.9995H2.25027ZM21.7503 12.9995V10.9995H20.2503V12.9995H21.7503ZM12.0003 22.7495C13.8584 22.7495 15.3123 22.7505 16.4638 22.6257C17.6293 22.4995 18.5737 22.2372 19.38 21.6513L18.4984 20.4378C17.9904 20.8069 17.3401 21.022 16.3022 21.1345C15.2503 21.2484 13.8918 21.2495 12.0003 21.2495V22.7495ZM20.2503 12.9995C20.2503 14.8911 20.2492 16.2495 20.1353 17.3014C20.0228 18.3393 19.8077 18.9896 19.4386 19.4976L20.6521 20.3792C21.2379 19.5729 21.5003 18.6285 21.6265 17.463C21.7513 16.3115 21.7503 14.8576 21.7503 12.9995H20.2503ZM19.38 21.6513C19.8682 21.2967 20.2975 20.8674 20.6521 20.3792L19.4386 19.4976C19.1765 19.8584 18.8592 20.1757 18.4984 20.4378L19.38 21.6513ZM2.25027 12.9995C2.25027 14.8576 2.24925 16.3115 2.374 17.463C2.50028 18.6285 2.7626 19.5729 3.34843 20.3792L4.56195 19.4976C4.19286 18.9896 3.97773 18.3393 3.86527 17.3014C3.7513 16.2495 3.75027 14.8911 3.75027 12.9995H2.25027ZM12.0003 21.2495C10.1087 21.2495 8.75026 21.2484 7.69832 21.1345C6.66041 21.022 6.01019 20.8069 5.50219 20.4378L4.62051 21.6513C5.42683 22.2372 6.37121 22.4995 7.53675 22.6257C8.68825 22.7505 10.1421 22.7495 12.0003 22.7495V21.2495ZM3.34843 20.3792C3.70308 20.8674 4.13237 21.2967 4.62051 21.6513L5.50219 20.4378C5.14138 20.1757 4.82409 19.8584 4.56195 19.4976L3.34843 20.3792ZM4.62051 2.34764C4.13237 2.70229 3.70308 3.13157 3.34843 3.61972L4.56195 4.5014C4.82409 4.14059 5.14138 3.8233 5.50219 3.56116L4.62051 2.34764ZM12.0003 2.74948C13.8918 2.74948 15.2503 2.75051 16.3022 2.86449C17.3401 2.97694 17.9904 3.19208 18.4984 3.56116L19.38 2.34764C18.5737 1.76181 17.6293 1.49949 16.4638 1.37321C15.3123 1.24846 13.8584 1.24949 12.0003 1.24949V2.74948ZM21.7503 10.9995C21.7503 9.14132 21.7513 7.68746 21.6265 6.53596C21.5003 5.37042 21.2379 4.42604 20.6521 3.61972L19.4386 4.5014C19.8077 5.0094 20.0228 5.65962 20.1353 6.69753C20.2492 7.74947 20.2503 9.10791 20.2503 10.9995H21.7503ZM18.4984 3.56116C18.8592 3.8233 19.1765 4.14059 19.4386 4.5014L20.6521 3.61972C20.2975 3.13157 19.8682 2.70229 19.38 2.34764L18.4984 3.56116ZM12.0003 1.24949C10.8355 1.24949 9.83452 1.24939 8.97459 1.27885L9.02595 2.77797C9.85472 2.74958 10.8272 2.74948 12.0003 2.74948V1.24949ZM8.97459 1.27885C7.10115 1.34304 5.72417 1.54578 4.62051 2.34764L5.50219 3.56116C6.20774 3.04855 7.17103 2.84153 9.02595 2.77797L8.97459 1.27885ZM8.25027 2.02841C8.25027 2.96566 8.24734 3.35247 8.19795 3.66433L9.67948 3.89898C9.75192 3.44163 9.75027 2.91069 9.75027 2.02842L8.25027 2.02841ZM3.75027 10.9995C3.75027 9.82641 3.75037 8.85393 3.77876 8.02516L2.27964 7.9738C2.25018 8.83373 2.25027 9.83471 2.25027 10.9995H3.75027ZM3.77876 8.02516C3.84232 6.17024 4.04934 5.20694 4.56195 4.5014L3.34843 3.61972C2.54657 4.72338 2.34383 6.10036 2.27964 7.9738L3.77876 8.02516ZM3.02921 8.74948C3.91148 8.74948 4.44242 8.75113 4.89977 8.67869L4.66512 7.19716C4.35326 7.24655 3.96645 7.24948 3.0292 7.24948L3.02921 8.74948ZM8.00027 14.7495H16.0003V13.2495H8.00027V14.7495ZM13.0003 10.7495H16.0003V9.24948H13.0003V10.7495Z" fill="black"/>
</svg>
