<svg width="24" height="24" viewBox="0 0 24 24" fill="none" xmlns="http://www.w3.org/2000/svg">
<path d="M4.78187 8.93794L4.89919 9.6787L4.89919 9.6787L4.78187 8.93794ZM8.93813 4.78167L9.6789 4.89899L9.6789 4.89899L8.93813 4.78167ZM18.9386 20.0446L18.4978 19.4378L18.9386 20.0446ZM20.0448 18.9384L19.438 18.4976L20.0448 18.9384ZM3.95461 18.9384L4.56137 18.4976L3.95461 18.9384ZM5.06077 20.0446L5.50161 19.4378L5.06077 20.0446ZM5.06077 3.95441L4.61993 3.34765L5.06077 3.95441ZM3.95461 5.06057L3.34785 4.61973L3.95461 5.06057ZM18.9386 3.95441L18.4978 4.56117L18.9386 3.95441ZM20.0448 5.06057L19.438 5.50141L20.0448 5.06057ZM8.99969 3.02842L8.97401 2.27886L8.99969 3.02842ZM3.02862 8.99949L2.27906 8.97381L3.02862 8.99949ZM9.99969 12.2495C9.58548 12.2495 9.24969 12.5853 9.24969 12.9995C9.24969 13.4137 9.58548 13.7495 9.99969 13.7495V12.2495ZM15.9997 13.7495C16.4139 13.7495 16.7497 13.4137 16.7497 12.9995C16.7497 12.5853 16.4139 12.2495 15.9997 12.2495V13.7495ZM12.2497 15.9995C12.2497 16.4137 12.5855 16.7495 12.9997 16.7495C13.4139 16.7495 13.7497 16.4137 13.7497 15.9995H12.2497ZM13.7497 9.99949C13.7497 9.58528 13.4139 9.24949 12.9997 9.24949C12.5855 9.24949 12.2497 9.58528 12.2497 9.99949H13.7497ZM4.89919 9.6787C7.35957 9.28902 9.28921 7.35937 9.6789 4.89899L8.19737 4.66434C7.90934 6.48288 6.48308 7.90914 4.66454 8.19717L4.89919 9.6787ZM11.9997 21.7495C13.8579 21.7495 15.3117 21.7505 16.4632 21.6258C17.6288 21.4995 18.5731 21.2372 19.3795 20.6513L18.4978 19.4378C17.9898 19.8069 17.3396 20.022 16.3016 20.1345C15.2497 20.2485 13.8913 20.2495 11.9997 20.2495V21.7495ZM20.2497 11.9995C20.2497 13.8911 20.2487 15.2495 20.1347 16.3014C20.0222 17.3394 19.8071 17.9896 19.438 18.4976L20.6515 19.3793C21.2374 18.5729 21.4997 17.6286 21.626 16.463C21.7507 15.3115 21.7497 13.8577 21.7497 11.9995H20.2497ZM19.3795 20.6513C19.8676 20.2967 20.2969 19.8674 20.6515 19.3793L19.438 18.4976C19.1759 18.8584 18.8586 19.1757 18.4978 19.4378L19.3795 20.6513ZM2.2497 11.9995C2.2497 13.8577 2.24867 15.3115 2.37342 16.463C2.4997 17.6286 2.76202 18.5729 3.34785 19.3793L4.56137 18.4976C4.19228 17.9896 3.97715 17.3394 3.86469 16.3014C3.75072 15.2495 3.74969 13.8911 3.74969 11.9995H2.2497ZM11.9997 20.2495C10.1081 20.2495 8.74969 20.2485 7.69774 20.1345C6.65983 20.022 6.00961 19.8069 5.50161 19.4378L4.61993 20.6513C5.42625 21.2372 6.37063 21.4995 7.53617 21.6258C8.68767 21.7505 10.1415 21.7495 11.9997 21.7495V20.2495ZM3.34785 19.3793C3.7025 19.8674 4.13179 20.2967 4.61993 20.6513L5.50161 19.4378C5.1408 19.1757 4.82351 18.8584 4.56137 18.4976L3.34785 19.3793ZM4.61993 3.34765C4.13179 3.70231 3.7025 4.13159 3.34785 4.61973L4.56137 5.50141C4.82351 5.14061 5.1408 4.82331 5.50161 4.56117L4.61993 3.34765ZM11.9997 3.7495C13.8913 3.7495 15.2497 3.75053 16.3016 3.8645C17.3396 3.97695 17.9898 4.19209 18.4978 4.56117L19.3795 3.34765C18.5731 2.76182 17.6288 2.4995 16.4632 2.37322C15.3117 2.24847 13.8579 2.2495 11.9997 2.2495V3.7495ZM21.7497 11.9995C21.7497 10.1413 21.7507 8.68747 21.626 7.53597C21.4997 6.37043 21.2374 5.42605 20.6515 4.61973L19.438 5.50141C19.8071 6.00941 20.0222 6.65963 20.1347 7.69754C20.2487 8.74949 20.2497 10.1079 20.2497 11.9995H21.7497ZM18.4978 4.56117C18.8586 4.82331 19.1759 5.14061 19.438 5.50141L20.6515 4.61973C20.2969 4.13159 19.8676 3.70231 19.3795 3.34765L18.4978 4.56117ZM11.9997 2.2495C10.8349 2.2495 9.83394 2.2494 8.97401 2.27886L9.02537 3.77798C9.85414 3.74959 10.8266 3.7495 11.9997 3.7495V2.2495ZM8.97401 2.27886C7.10057 2.34305 5.72359 2.54579 4.61993 3.34765L5.50161 4.56117C6.20716 4.04856 7.17045 3.84154 9.02537 3.77798L8.97401 2.27886ZM8.24969 3.02842C8.24969 3.96567 8.24676 4.35248 8.19737 4.66434L9.6789 4.89899C9.75134 4.44164 9.74969 3.9107 9.74969 3.02843L8.24969 3.02842ZM3.74969 11.9995C3.74969 10.8264 3.74979 9.85394 3.77818 9.02517L2.27906 8.97381C2.2496 9.83374 2.2497 10.8347 2.2497 11.9995H3.74969ZM3.77818 9.02517C3.84174 7.17025 4.04876 6.20696 4.56137 5.50141L3.34785 4.61973C2.54599 5.72339 2.34325 7.10037 2.27906 8.97381L3.77818 9.02517ZM3.02863 9.74949C3.9109 9.74949 4.44184 9.75114 4.89919 9.6787L4.66454 8.19717C4.35268 8.24656 3.96587 8.24949 3.02862 8.24949L3.02863 9.74949ZM9.99969 13.7495H15.9997V12.2495H9.99969V13.7495ZM13.7497 15.9995V9.99949H12.2497V15.9995H13.7497Z" fill="black"/>
</svg>
