<svg width="24" height="24" viewBox="0 0 24 24" fill="none" xmlns="http://www.w3.org/2000/svg">
<path d="M19.2178 8.9379L19.1004 9.67866L19.1004 9.67866L19.2178 8.9379ZM15.0615 4.78163L14.3207 4.89896L14.3207 4.89896L15.0615 4.78163ZM5.06103 20.0445L5.50187 19.4378L5.06103 20.0445ZM3.95487 18.9384L4.56163 18.4975L3.95487 18.9384ZM20.045 18.9384L19.4383 18.4975L20.045 18.9384ZM18.9389 20.0445L18.498 19.4378L18.9389 20.0445ZM18.9389 3.95437L19.3797 3.34761L18.9389 3.95437ZM20.045 5.06053L20.6518 4.61969L20.045 5.06053ZM5.06103 3.95437L5.50187 4.56114L5.06103 3.95437ZM3.95487 5.06053L4.56163 5.50137L3.95487 5.06053ZM14.9999 3.02839L15.0256 2.27883L14.9999 3.02839ZM20.971 8.99946L21.7206 8.97377L20.971 8.99946ZM7.99995 13.2495C7.58574 13.2495 7.24995 13.5852 7.24995 13.9995C7.24995 14.4137 7.58574 14.7495 7.99995 14.7495V13.2495ZM13.9999 14.7495C14.4142 14.7495 14.7499 14.4137 14.7499 13.9995C14.7499 13.5852 14.4142 13.2495 13.9999 13.2495V14.7495ZM19.3351 8.19713C17.5166 7.9091 16.0903 6.48285 15.8023 4.6643L14.3207 4.89896C14.7104 7.35934 16.6401 9.28898 19.1004 9.67866L19.3351 8.19713ZM12 20.2495C10.1084 20.2495 8.74994 20.2484 7.698 20.1345C6.66009 20.022 6.00987 19.8069 5.50187 19.4378L4.62019 20.6513C5.42651 21.2371 6.37089 21.4994 7.53643 21.6257C8.68793 21.7505 10.1418 21.7495 12 21.7495V20.2495ZM2.24995 11.9995C2.24995 13.8576 2.24893 15.3115 2.37368 16.463C2.49996 17.6285 2.76228 18.5729 3.34811 19.3792L4.56163 18.4975C4.19254 17.9895 3.97741 17.3393 3.86495 16.3014C3.75098 15.2495 3.74995 13.891 3.74995 11.9995H2.24995ZM5.50187 19.4378C5.14106 19.1756 4.82377 18.8583 4.56163 18.4975L3.34811 19.3792C3.70276 19.8674 4.13204 20.2966 4.62019 20.6513L5.50187 19.4378ZM20.2499 11.9995C20.2499 13.891 20.2489 15.2495 20.1349 16.3014C20.0225 17.3393 19.8074 17.9895 19.4383 18.4975L20.6518 19.3792C21.2376 18.5729 21.4999 17.6285 21.6262 16.463C21.751 15.3115 21.7499 13.8576 21.7499 11.9995H20.2499ZM12 21.7495C13.8581 21.7495 15.312 21.7505 16.4635 21.6257C17.629 21.4994 18.5734 21.2371 19.3797 20.6513L18.498 19.4378C17.99 19.8069 17.3398 20.022 16.3019 20.1345C15.25 20.2484 13.8915 20.2495 12 20.2495V21.7495ZM19.4383 18.4975C19.1761 18.8583 18.8588 19.1756 18.498 19.4378L19.3797 20.6513C19.8679 20.2966 20.2971 19.8674 20.6518 19.3792L19.4383 18.4975ZM18.498 4.56114C18.8588 4.82327 19.1761 5.14057 19.4383 5.50137L20.6518 4.61969C20.2971 4.13155 19.8679 3.70227 19.3797 3.34761L18.498 4.56114ZM12 2.24946C10.1418 2.24946 8.68793 2.24843 7.53643 2.37319C6.37089 2.49946 5.42651 2.76178 4.62019 3.34761L5.50187 4.56114C6.00987 4.19205 6.66009 3.97691 7.698 3.86446C8.74994 3.75049 10.1084 3.74946 12 3.74946V2.24946ZM3.74995 11.9995C3.74995 10.1079 3.75098 8.74945 3.86495 7.6975C3.97741 6.65959 4.19254 6.00937 4.56163 5.50137L3.34811 4.61969C2.76228 5.42602 2.49996 6.3704 2.37368 7.53593C2.24893 8.68743 2.24995 10.1413 2.24995 11.9995H3.74995ZM4.62019 3.34761C4.13204 3.70227 3.70276 4.13155 3.34811 4.61969L4.56163 5.50137C4.82377 5.14057 5.14106 4.82327 5.50187 4.56114L4.62019 3.34761ZM12 3.74946C13.173 3.74946 14.1455 3.74955 14.9743 3.77795L15.0256 2.27883C14.1657 2.24936 13.1647 2.24946 12 2.24946V3.74946ZM14.9743 3.77795C16.8292 3.8415 17.7925 4.04852 18.498 4.56114L19.3797 3.34761C18.2761 2.54575 16.8991 2.34301 15.0256 2.27883L14.9743 3.77795ZM14.2499 3.02839C14.25 3.91066 14.2483 4.4416 14.3207 4.89896L15.8023 4.6643C15.7529 4.35244 15.75 3.96563 15.7499 3.02838L14.2499 3.02839ZM21.7499 11.9995C21.7499 10.8347 21.75 9.8337 21.7206 8.97377L20.2215 9.02514C20.2499 9.8539 20.2499 10.8264 20.2499 11.9995H21.7499ZM21.7206 8.97377C21.6564 7.10033 21.4537 5.72335 20.6518 4.61969L19.4383 5.50137C19.9509 6.20692 20.1579 7.17021 20.2215 9.02514L21.7206 8.97377ZM20.971 8.24946C20.0338 8.24945 19.647 8.24653 19.3351 8.19713L19.1004 9.67866C19.5578 9.7511 20.0887 9.74945 20.971 9.74946L20.971 8.24946ZM7.99995 14.7495H13.9999V13.2495H7.99995V14.7495Z" fill="black"/>
</svg>
