<svg width="24" height="24" viewBox="0 0 24 24" fill="none" xmlns="http://www.w3.org/2000/svg">
<path d="M5.06116 21.0446L5.502 20.4379L5.06116 21.0446ZM3.95501 19.9385L4.56177 19.4976L3.95501 19.9385ZM20.0452 19.9385L19.4384 19.4976L20.0452 19.9385ZM18.939 21.0446L18.4982 20.4379L18.939 21.0446ZM18.939 2.95446L18.4982 3.56122L18.939 2.95446ZM20.0452 4.06062L19.4384 4.50145L20.0452 4.06062ZM5.06116 2.95446L5.502 3.56122L5.06116 2.95446ZM3.95501 4.06062L4.56177 4.50145L3.95501 4.06062ZM8.00009 7.24954C7.58588 7.24954 7.25009 7.58533 7.25009 7.99954C7.25009 8.41375 7.58588 8.74954 8.00009 8.74954V7.24954ZM16.0001 8.74954C16.4143 8.74954 16.7501 8.41375 16.7501 7.99954C16.7501 7.58533 16.4143 7.24954 16.0001 7.24954V8.74954ZM8.00009 11.2495C7.58588 11.2495 7.25009 11.5853 7.25009 11.9995C7.25009 12.4138 7.58588 12.7495 8.00009 12.7495V11.2495ZM16.0001 12.7495C16.4143 12.7495 16.7501 12.4138 16.7501 11.9995C16.7501 11.5853 16.4143 11.2495 16.0001 11.2495V12.7495ZM13.0001 15.2495C12.5859 15.2495 12.2501 15.5853 12.2501 15.9995C12.2501 16.4137 12.5859 16.7495 13.0001 16.7495V15.2495ZM16.0001 16.7495C16.4143 16.7495 16.7501 16.4137 16.7501 15.9995C16.7501 15.5853 16.4143 15.2495 16.0001 15.2495V16.7495ZM20.2501 10.9995V12.9995H21.7501V10.9995H20.2501ZM3.75009 12.9995V10.9995H2.25009V12.9995H3.75009ZM12.0001 21.2495C10.1085 21.2495 8.75008 21.2485 7.69813 21.1345C6.66022 21.0221 6.01001 20.8069 5.502 20.4379L4.62033 21.6514C5.42665 22.2372 6.37103 22.4995 7.53657 22.6258C8.68807 22.7506 10.1419 22.7495 12.0001 22.7495V21.2495ZM2.25009 12.9995C2.25009 14.8577 2.24906 16.3116 2.37382 17.4631C2.5001 18.6286 2.76242 19.573 3.34824 20.3793L4.56177 19.4976C4.19268 18.9896 3.97754 18.3394 3.86509 17.3015C3.75112 16.2495 3.75009 14.8911 3.75009 12.9995H2.25009ZM5.502 20.4379C5.1412 20.1757 4.82391 19.8584 4.56177 19.4976L3.34824 20.3793C3.7029 20.8674 4.13218 21.2967 4.62033 21.6514L5.502 20.4379ZM20.2501 12.9995C20.2501 14.8911 20.2491 16.2495 20.1351 17.3015C20.0226 18.3394 19.8075 18.9896 19.4384 19.4976L20.6519 20.3793C21.2378 19.573 21.5001 18.6286 21.6264 17.4631C21.7511 16.3116 21.7501 14.8577 21.7501 12.9995H20.2501ZM12.0001 22.7495C13.8582 22.7495 15.3121 22.7506 16.4636 22.6258C17.6291 22.4995 18.5735 22.2372 19.3798 21.6514L18.4982 20.4379C17.9902 20.8069 17.34 21.0221 16.302 21.1345C15.2501 21.2485 13.8917 21.2495 12.0001 21.2495V22.7495ZM19.4384 19.4976C19.1763 19.8584 18.859 20.1757 18.4982 20.4379L19.3798 21.6514C19.868 21.2967 20.2973 20.8674 20.6519 20.3793L19.4384 19.4976ZM12.0001 2.74954C13.8917 2.74954 15.2501 2.75057 16.302 2.86454C17.34 2.97699 17.9902 3.19213 18.4982 3.56122L19.3798 2.34769C18.5735 1.76187 17.6291 1.49955 16.4636 1.37327C15.3121 1.24851 13.8582 1.24954 12.0001 1.24954V2.74954ZM21.7501 10.9995C21.7501 9.14138 21.7511 7.68752 21.6264 6.53602C21.5001 5.37048 21.2378 4.4261 20.6519 3.61978L19.4384 4.50145C19.8075 5.00946 20.0226 5.65967 20.1351 6.69758C20.2491 7.74953 20.2501 9.10797 20.2501 10.9995H21.7501ZM18.4982 3.56122C18.859 3.82336 19.1763 4.14065 19.4384 4.50145L20.6519 3.61978C20.2973 3.13163 19.868 2.70235 19.3798 2.34769L18.4982 3.56122ZM12.0001 1.24954C10.1419 1.24954 8.68807 1.24851 7.53657 1.37327C6.37103 1.49955 5.42665 1.76187 4.62033 2.34769L5.502 3.56122C6.01001 3.19213 6.66022 2.97699 7.69813 2.86454C8.75008 2.75057 10.1085 2.74954 12.0001 2.74954V1.24954ZM3.75009 10.9995C3.75009 9.10797 3.75112 7.74953 3.86509 6.69758C3.97754 5.65967 4.19268 5.00946 4.56177 4.50145L3.34824 3.61978C2.76242 4.4261 2.5001 5.37048 2.37382 6.53602C2.24906 7.68752 2.25009 9.14138 2.25009 10.9995H3.75009ZM4.62033 2.34769C4.13218 2.70235 3.7029 3.13163 3.34824 3.61978L4.56177 4.50145C4.82391 4.14065 5.1412 3.82336 5.502 3.56122L4.62033 2.34769ZM8.00009 8.74954H16.0001V7.24954H8.00009V8.74954ZM8.00009 12.7495H16.0001V11.2495H8.00009V12.7495ZM13.0001 16.7495H16.0001V15.2495H13.0001V16.7495Z" fill="black"/>
</svg>
