<svg width="24" height="24" viewBox="0 0 24 24" fill="none" xmlns="http://www.w3.org/2000/svg">
<path d="M4.78242 7.93785L4.89974 8.67862L4.89974 8.67862L4.78242 7.93785ZM8.93868 3.78158L9.67945 3.89891L9.67945 3.89891L8.93868 3.78158ZM18.9392 21.0445L18.4983 20.4377L18.9392 21.0445ZM20.0453 19.9383L19.4386 19.4975L20.0453 19.9383ZM3.95516 19.9383L4.56192 19.4975L3.95516 19.9383ZM5.06132 21.0445L5.50216 20.4377L5.06132 21.0445ZM5.06132 2.95433L4.62048 2.34756L5.06132 2.95433ZM3.95516 4.06049L3.3484 3.61965L3.95516 4.06049ZM18.9392 2.95433L18.4983 3.56109L18.9392 2.95433ZM20.0453 4.06049L19.4386 4.50132L20.0453 4.06049ZM9.00024 2.02834L8.97456 1.27878L9.00024 2.02834ZM3.02917 7.99941L2.27961 7.97373L3.02917 7.99941ZM11.2502 16.9994C11.2502 17.4136 11.586 17.7494 12.0002 17.7494C12.4145 17.7494 12.7502 17.4136 12.7502 16.9994H11.2502ZM7.46755 11.6714C7.17597 11.9656 7.17809 12.4405 7.47228 12.7321C7.76648 13.0237 8.24135 13.0216 8.53293 12.7274L7.46755 11.6714ZM9.39809 10.789L9.93078 11.317L9.93078 11.317L9.39809 10.789ZM14.6024 10.789L14.0697 11.317L14.0697 11.317L14.6024 10.789ZM15.4675 12.7274C15.7591 13.0216 16.234 13.0237 16.5282 12.7321C16.8224 12.4405 16.8245 11.9656 16.5329 11.6714L15.4675 12.7274ZM11.7496 9.01532L11.6547 8.27134L11.6547 8.27134L11.7496 9.01532ZM12.2509 9.01532L12.3457 8.27134L12.3457 8.27134L12.2509 9.01532ZM12.0002 8.99941L12.0002 8.24941L12.0002 8.99941ZM4.89974 8.67862C7.36012 8.28893 9.28976 6.35929 9.67945 3.89891L8.19792 3.66426C7.90989 5.4828 6.48363 6.90906 4.66509 7.19709L4.89974 8.67862ZM2.25024 10.9994V12.9994H3.75024V10.9994H2.25024ZM21.7502 12.9994V10.9994H20.2502V12.9994H21.7502ZM12.0002 22.7494C13.8584 22.7494 15.3123 22.7504 16.4638 22.6257C17.6293 22.4994 18.5737 22.2371 19.38 21.6513L18.4983 20.4377C17.9903 20.8068 17.3401 21.022 16.3022 21.1344C15.2502 21.2484 13.8918 21.2494 12.0002 21.2494V22.7494ZM20.2502 12.9994C20.2502 14.891 20.2492 16.2494 20.1352 17.3014C20.0228 18.3393 19.8076 18.9895 19.4386 19.4975L20.6521 20.3792C21.2379 19.5728 21.5002 18.6285 21.6265 17.4629C21.7513 16.3114 21.7502 14.8576 21.7502 12.9994H20.2502ZM19.38 21.6513C19.8681 21.2966 20.2974 20.8673 20.6521 20.3792L19.4386 19.4975C19.1764 19.8583 18.8591 20.1756 18.4983 20.4377L19.38 21.6513ZM2.25024 12.9994C2.25024 14.8576 2.24921 16.3114 2.37397 17.4629C2.50025 18.6285 2.76257 19.5728 3.3484 20.3792L4.56192 19.4975C4.19283 18.9895 3.97769 18.3393 3.86524 17.3014C3.75127 16.2494 3.75024 14.891 3.75024 12.9994H2.25024ZM12.0002 21.2494C10.1087 21.2494 8.75023 21.2484 7.69829 21.1344C6.66038 21.022 6.01016 20.8068 5.50216 20.4377L4.62048 21.6513C5.4268 22.2371 6.37118 22.4994 7.53672 22.6257C8.68822 22.7504 10.1421 22.7494 12.0002 22.7494V21.2494ZM3.3484 20.3792C3.70305 20.8673 4.13233 21.2966 4.62048 21.6513L5.50216 20.4377C5.14135 20.1756 4.82406 19.8583 4.56192 19.4975L3.3484 20.3792ZM4.62048 2.34756C4.13234 2.70222 3.70305 3.1315 3.3484 3.61965L4.56192 4.50132C4.82406 4.14052 5.14135 3.82323 5.50216 3.56109L4.62048 2.34756ZM12.0002 2.74941C13.8918 2.74941 15.2502 2.75044 16.3022 2.86441C17.3401 2.97686 17.9903 3.192 18.4983 3.56109L19.38 2.34756C18.5737 1.76174 17.6293 1.49942 16.4638 1.37314C15.3123 1.24838 13.8584 1.24941 12.0002 1.24941V2.74941ZM21.7502 10.9994C21.7502 9.14125 21.7513 7.68739 21.6265 6.53589C21.5002 5.37035 21.2379 4.42597 20.6521 3.61965L19.4386 4.50132C19.8076 5.00933 20.0228 5.65954 20.1352 6.69746C20.2492 7.7494 20.2502 9.10784 20.2502 10.9994H21.7502ZM18.4983 3.56109C18.8591 3.82323 19.1764 4.14052 19.4386 4.50132L20.6521 3.61965C20.2974 3.1315 19.8681 2.70222 19.38 2.34756L18.4983 3.56109ZM12.0002 1.24941C10.8355 1.24941 9.83449 1.24932 8.97456 1.27878L9.02592 2.7779C9.85469 2.74951 10.8272 2.74941 12.0002 2.74941V1.24941ZM8.97456 1.27878C7.10112 1.34297 5.72414 1.54571 4.62048 2.34756L5.50216 3.56109C6.2077 3.04848 7.171 2.84145 9.02592 2.7779L8.97456 1.27878ZM8.25024 2.02834C8.25024 2.96559 8.24731 3.35239 8.19792 3.66426L9.67945 3.89891C9.75189 3.44156 9.75023 2.91062 9.75024 2.02835L8.25024 2.02834ZM3.75024 10.9994C3.75024 9.82633 3.75034 8.85386 3.77873 8.02509L2.27961 7.97373C2.25015 8.83365 2.25024 9.83463 2.25024 10.9994H3.75024ZM3.77873 8.02509C3.84228 6.17016 4.04931 5.20687 4.56192 4.50132L3.3484 3.61965C2.54654 4.72331 2.3438 6.10029 2.27961 7.97373L3.77873 8.02509ZM3.02918 8.74941C3.91145 8.7494 4.44239 8.75105 4.89974 8.67862L4.66509 7.19709C4.35323 7.24648 3.96642 7.2494 3.02917 7.24941L3.02918 8.74941ZM12.7502 16.9994V9.79941H11.2502V16.9994H12.7502ZM8.53293 12.7274L9.93078 11.317L8.8654 10.2611L7.46755 11.6714L8.53293 12.7274ZM14.0697 11.317L15.4675 12.7274L16.5329 11.6714L15.1351 10.2611L14.0697 11.317ZM9.93078 11.317C10.5006 10.7421 10.8841 10.3567 11.2067 10.0976C11.5175 9.84804 11.6982 9.77793 11.8444 9.7593L11.6547 8.27134C11.1216 8.3393 10.6839 8.59367 10.2675 8.9281C9.86289 9.25302 9.41036 9.71123 8.8654 10.2611L9.93078 11.317ZM15.1351 10.2611C14.5901 9.71123 14.1376 9.25302 13.733 8.9281C13.3166 8.59367 12.8789 8.3393 12.3457 8.27134L12.1561 9.7593C12.3022 9.77793 12.483 9.84804 12.7938 10.0976C13.1164 10.3567 13.4999 10.7421 14.0697 11.317L15.1351 10.2611ZM11.8444 9.7593C11.8961 9.75271 11.9482 9.74941 12.0002 9.74941L12.0002 8.24941C11.8848 8.24941 11.7694 8.25672 11.6547 8.27134L11.8444 9.7593ZM12.0002 9.74941C12.0523 9.74941 12.1043 9.75271 12.1561 9.7593L12.3457 8.27134C12.231 8.25672 12.1156 8.24941 12.0002 8.24941L12.0002 9.74941ZM12.7502 9.79941V8.99941H11.2502V9.79941H12.7502Z" fill="black"/>
</svg>
