<svg width="24" height="24" viewBox="0 0 24 24" fill="none" xmlns="http://www.w3.org/2000/svg">
<path d="M5.06132 21.0446L5.50216 20.4378L5.06132 21.0446ZM3.95516 19.9384L4.56192 19.4976L3.95516 19.9384ZM20.0453 19.9384L19.4386 19.4976L20.0453 19.9384ZM18.9392 21.0446L18.4983 20.4378L18.9392 21.0446ZM18.9392 2.95443L18.4983 3.56119L18.9392 2.95443ZM20.0453 4.06058L19.4386 4.50142L20.0453 4.06058ZM5.06132 2.95443L5.50216 3.56119L5.06132 2.95443ZM3.95516 4.06058L4.56192 4.50142L3.95516 4.06058ZM8.00024 15.2495C7.58603 15.2495 7.25024 15.5853 7.25024 15.9995C7.25024 16.4137 7.58603 16.7495 8.00024 16.7495V15.2495ZM16.0002 16.7495C16.4145 16.7495 16.7502 16.4137 16.7502 15.9995C16.7502 15.5853 16.4145 15.2495 16.0002 15.2495V16.7495ZM13.0002 11.2495C12.586 11.2495 12.2502 11.5853 12.2502 11.9995C12.2502 12.4137 12.586 12.7495 13.0002 12.7495V11.2495ZM16.0002 12.7495C16.4145 12.7495 16.7502 12.4137 16.7502 11.9995C16.7502 11.5853 16.4145 11.2495 16.0002 11.2495V12.7495ZM8.00024 7.24951C7.58603 7.24951 7.25024 7.5853 7.25024 7.99951C7.25024 8.41372 7.58603 8.74951 8.00024 8.74951V7.24951ZM16.0002 8.74951C16.4145 8.74951 16.7502 8.41372 16.7502 7.99951C16.7502 7.5853 16.4145 7.24951 16.0002 7.24951V8.74951ZM20.2502 10.9995V12.9995H21.7502V10.9995H20.2502ZM3.75024 12.9995V10.9995H2.25024V12.9995H3.75024ZM12.0002 21.2495C10.1087 21.2495 8.75023 21.2485 7.69829 21.1345C6.66038 21.0221 6.01016 20.8069 5.50216 20.4378L4.62048 21.6514C5.4268 22.2372 6.37118 22.4995 7.53672 22.6258C8.68822 22.7505 10.1421 22.7495 12.0002 22.7495V21.2495ZM2.25024 12.9995C2.25024 14.8577 2.24921 16.3115 2.37397 17.463C2.50025 18.6286 2.76257 19.5729 3.3484 20.3793L4.56192 19.4976C4.19283 18.9896 3.9777 18.3394 3.86524 17.3015C3.75127 16.2495 3.75024 14.8911 3.75024 12.9995H2.25024ZM5.50216 20.4378C5.14135 20.1757 4.82406 19.8584 4.56192 19.4976L3.3484 20.3793C3.70305 20.8674 4.13233 21.2967 4.62048 21.6514L5.50216 20.4378ZM20.2502 12.9995C20.2502 14.8911 20.2492 16.2495 20.1352 17.3015C20.0228 18.3394 19.8076 18.9896 19.4386 19.4976L20.6521 20.3793C21.2379 19.5729 21.5002 18.6286 21.6265 17.463C21.7513 16.3115 21.7502 14.8577 21.7502 12.9995H20.2502ZM12.0002 22.7495C13.8584 22.7495 15.3123 22.7505 16.4638 22.6258C17.6293 22.4995 18.5737 22.2372 19.38 21.6514L18.4983 20.4378C17.9903 20.8069 17.3401 21.0221 16.3022 21.1345C15.2502 21.2485 13.8918 21.2495 12.0002 21.2495V22.7495ZM19.4386 19.4976C19.1764 19.8584 18.8591 20.1757 18.4983 20.4378L19.38 21.6514C19.8681 21.2967 20.2974 20.8674 20.6521 20.3793L19.4386 19.4976ZM12.0002 2.74951C13.8918 2.74951 15.2502 2.75054 16.3022 2.86451C17.3401 2.97696 17.9903 3.1921 18.4983 3.56119L19.38 2.34766C18.5737 1.76184 17.6293 1.49952 16.4638 1.37324C15.3123 1.24848 13.8584 1.24951 12.0002 1.24951V2.74951ZM21.7502 10.9995C21.7502 9.14135 21.7513 7.68749 21.6265 6.53599C21.5002 5.37045 21.2379 4.42607 20.6521 3.61975L19.4386 4.50142C19.8076 5.00943 20.0228 5.65964 20.1352 6.69755C20.2492 7.7495 20.2502 9.10794 20.2502 10.9995H21.7502ZM18.4983 3.56119C18.8591 3.82333 19.1764 4.14062 19.4386 4.50142L20.6521 3.61975C20.2974 3.1316 19.8681 2.70232 19.38 2.34766L18.4983 3.56119ZM12.0002 1.24951C10.1421 1.24951 8.68822 1.24848 7.53672 1.37324C6.37118 1.49952 5.4268 1.76184 4.62048 2.34766L5.50216 3.56119C6.01016 3.1921 6.66038 2.97696 7.69829 2.86451C8.75023 2.75054 10.1087 2.74951 12.0002 2.74951V1.24951ZM3.75024 10.9995C3.75024 9.10794 3.75127 7.7495 3.86524 6.69755C3.9777 5.65964 4.19283 5.00943 4.56192 4.50142L3.3484 3.61975C2.76257 4.42607 2.50025 5.37045 2.37397 6.53599C2.24921 7.68749 2.25024 9.14135 2.25024 10.9995H3.75024ZM4.62048 2.34766C4.13233 2.70232 3.70305 3.1316 3.3484 3.61975L4.56192 4.50142C4.82406 4.14062 5.14135 3.82333 5.50216 3.56119L4.62048 2.34766ZM8.00024 16.7495H16.0002V15.2495H8.00024V16.7495ZM13.0002 12.7495H16.0002V11.2495H13.0002V12.7495ZM8.00024 8.74951H16.0002V7.24951H8.00024V8.74951Z" fill="black"/>
</svg>
