<svg width="24" height="24" viewBox="0 0 24 24" fill="none" xmlns="http://www.w3.org/2000/svg">
<path d="M4.78187 16.061L4.8992 15.3202L4.8992 15.3202L4.78187 16.061ZM8.93814 20.2172L9.67891 20.0999L9.67891 20.0999L8.93814 20.2172ZM5.06078 21.0445L4.61994 21.6512L5.06078 21.0445ZM3.95462 19.9383L3.34785 20.3792L3.95462 19.9383ZM20.0448 19.9383L19.438 19.4975L20.0448 19.9383ZM18.9386 21.0445L18.4978 20.4377L18.9386 21.0445ZM18.9386 2.95432L18.4978 3.56108L18.9386 2.95432ZM20.0448 4.06048L19.438 4.50132L20.0448 4.06048ZM5.06078 2.95432L5.50161 3.56108L5.06078 2.95432ZM3.95462 4.06048L4.56138 4.50132L3.95462 4.06048ZM3.02863 15.9994L2.27907 16.0251L3.02863 15.9994ZM8.9997 21.9705L8.97402 22.72L8.9997 21.9705ZM7.9997 11.2494C7.58549 11.2494 7.2497 11.5852 7.2497 11.9994C7.2497 12.4136 7.58549 12.7494 7.9997 12.7494V11.2494ZM15.9997 12.7494C16.4139 12.7494 16.7497 12.4136 16.7497 11.9994C16.7497 11.5852 16.4139 11.2494 15.9997 11.2494V12.7494ZM9.9997 7.2494C9.58549 7.2494 9.2497 7.58519 9.2497 7.9994C9.2497 8.41362 9.58549 8.7494 9.9997 8.7494V7.2494ZM13.9997 8.7494C14.4139 8.7494 14.7497 8.41362 14.7497 7.9994C14.7497 7.58519 14.4139 7.2494 13.9997 7.2494V8.7494ZM4.66455 16.8017C6.48309 17.0898 7.90935 18.516 8.19738 20.3345L9.67891 20.0999C9.28922 17.6395 7.35958 15.7099 4.8992 15.3202L4.66455 16.8017ZM20.2497 10.9994V12.9994H21.7497V10.9994H20.2497ZM3.7497 12.9994V10.9994H2.2497V12.9994H3.7497ZM5.50161 20.4377C5.14081 20.1756 4.82352 19.8583 4.56138 19.4975L3.34785 20.3792C3.70251 20.8673 4.13179 21.2966 4.61994 21.6512L5.50161 20.4377ZM20.2497 12.9994C20.2497 14.891 20.2487 16.2494 20.1347 17.3014C20.0222 18.3393 19.8071 18.9895 19.438 19.4975L20.6515 20.3792C21.2374 19.5728 21.4997 18.6285 21.626 17.4629C21.7507 16.3114 21.7497 14.8576 21.7497 12.9994H20.2497ZM11.9997 22.7494C13.8579 22.7494 15.3117 22.7504 16.4632 22.6257C17.6288 22.4994 18.5731 22.2371 19.3795 21.6512L18.4978 20.4377C17.9898 20.8068 17.3396 21.0219 16.3017 21.1344C15.2497 21.2484 13.8913 21.2494 11.9997 21.2494V22.7494ZM19.438 19.4975C19.1759 19.8583 18.8586 20.1756 18.4978 20.4377L19.3795 21.6512C19.8676 21.2966 20.2969 20.8673 20.6515 20.3792L19.438 19.4975ZM11.9997 2.7494C13.8913 2.7494 15.2497 2.75043 16.3017 2.86441C17.3396 2.97686 17.9898 3.192 18.4978 3.56108L19.3795 2.34756C18.5731 1.76173 17.6288 1.49941 16.4632 1.37313C15.3117 1.24838 13.8579 1.24941 11.9997 1.24941V2.7494ZM21.7497 10.9994C21.7497 9.14124 21.7507 7.68738 21.626 6.53588C21.4997 5.37034 21.2374 4.42596 20.6515 3.61964L19.438 4.50132C19.8071 5.00932 20.0222 5.65954 20.1347 6.69745C20.2487 7.74939 20.2497 9.10783 20.2497 10.9994H21.7497ZM18.4978 3.56108C18.8586 3.82322 19.1759 4.14051 19.438 4.50132L20.6515 3.61964C20.2969 3.13149 19.8676 2.70221 19.3795 2.34756L18.4978 3.56108ZM11.9997 1.24941C10.1415 1.24941 8.68768 1.24838 7.53618 1.37313C6.37064 1.49941 5.42626 1.76173 4.61994 2.34756L5.50161 3.56108C6.00962 3.192 6.65983 2.97686 7.69775 2.86441C8.74969 2.75043 10.1081 2.7494 11.9997 2.7494V1.24941ZM3.7497 10.9994C3.7497 9.10783 3.75073 7.74939 3.8647 6.69745C3.97715 5.65954 4.19229 5.00932 4.56138 4.50132L3.34785 3.61964C2.76203 4.42596 2.49971 5.37034 2.37343 6.53588C2.24867 7.68738 2.2497 9.14124 2.2497 10.9994H3.7497ZM4.61994 2.34756C4.13179 2.70221 3.70251 3.13149 3.34785 3.61964L4.56138 4.50132C4.82352 4.14051 5.14081 3.82322 5.50161 3.56108L4.61994 2.34756ZM2.2497 12.9994C2.2497 14.1642 2.24961 15.1652 2.27907 16.0251L3.77819 15.9737C3.7498 15.145 3.7497 14.1725 3.7497 12.9994H2.2497ZM2.27907 16.0251C2.34326 17.8985 2.546 19.2755 3.34785 20.3792L4.56138 19.4975C4.04877 18.7919 3.84174 17.8286 3.77819 15.9737L2.27907 16.0251ZM3.02863 16.7494C3.96588 16.7494 4.35268 16.7523 4.66455 16.8017L4.8992 15.3202C4.44185 15.2478 3.91091 15.2494 3.02864 15.2494L3.02863 16.7494ZM11.9997 21.2494C10.8266 21.2494 9.85415 21.2493 9.02538 21.2209L8.97402 22.72C9.83394 22.7495 10.8349 22.7494 11.9997 22.7494V21.2494ZM9.02538 21.2209C7.17045 21.1574 6.20716 20.9503 5.50161 20.4377L4.61994 21.6512C5.7236 22.4531 7.10058 22.6558 8.97402 22.72L9.02538 21.2209ZM9.7497 21.9705C9.74969 21.0882 9.75135 20.5572 9.67891 20.0999L8.19738 20.3345C8.24677 20.6464 8.24969 21.0332 8.2497 21.9705L9.7497 21.9705ZM7.9997 12.7494H15.9997V11.2494H7.9997V12.7494ZM9.9997 8.7494H13.9997V7.2494H9.9997V8.7494Z" fill="black"/>
</svg>
