<svg width="24" height="24" viewBox="0 0 24 24" fill="none" xmlns="http://www.w3.org/2000/svg">
<path d="M19.2175 7.93789L19.1002 8.67865L19.1002 8.67865L19.2175 7.93789ZM15.0613 3.78162L14.3205 3.89894L14.3205 3.89894L15.0613 3.78162ZM5.06078 21.0445L5.50161 20.4378L5.06078 21.0445ZM3.95462 19.9384L4.56138 19.4975L3.95462 19.9384ZM20.0448 19.9384L19.438 19.4975L20.0448 19.9384ZM18.9386 21.0445L18.4978 20.4378L18.9386 21.0445ZM18.9386 2.95436L19.3795 2.3476L18.9386 2.95436ZM20.0448 4.06052L20.6515 3.61968L20.0448 4.06052ZM5.06078 2.95436L5.50161 3.56112L5.06078 2.95436ZM3.95462 4.06052L4.56138 4.50136L3.95462 4.06052ZM14.9997 2.02838L15.0254 1.27882L14.9997 2.02838ZM20.9708 7.99944L21.7203 7.97376L20.9708 7.99944ZM8.9997 12.2494C8.58549 12.2494 8.2497 12.5852 8.2497 12.9994C8.2497 13.4137 8.58549 13.7494 8.9997 13.7494V12.2494ZM14.9997 13.7494C15.4139 13.7494 15.7497 13.4137 15.7497 12.9994C15.7497 12.5852 15.4139 12.2494 14.9997 12.2494V13.7494ZM19.3348 7.19712C17.5163 6.90909 16.0901 5.48284 15.802 3.66429L14.3205 3.89894C14.7102 6.35932 16.6398 8.28897 19.1002 8.67865L19.3348 7.19712ZM20.2497 10.9994V12.9994H21.7497V10.9994H20.2497ZM3.7497 12.9994V10.9994H2.2497V12.9994H3.7497ZM11.9997 21.2494C10.1081 21.2494 8.74969 21.2484 7.69775 21.1344C6.65983 21.022 6.00962 20.8068 5.50161 20.4378L4.61994 21.6513C5.42626 22.2371 6.37064 22.4994 7.53618 22.6257C8.68768 22.7505 10.1415 22.7494 11.9997 22.7494V21.2494ZM2.2497 12.9994C2.2497 14.8576 2.24867 16.3115 2.37343 17.463C2.49971 18.6285 2.76203 19.5729 3.34785 20.3792L4.56138 19.4975C4.19229 18.9895 3.97715 18.3393 3.8647 17.3014C3.75073 16.2494 3.7497 14.891 3.7497 12.9994H2.2497ZM5.50161 20.4378C5.14081 20.1756 4.82352 19.8583 4.56138 19.4975L3.34785 20.3792C3.70251 20.8673 4.13179 21.2966 4.61994 21.6513L5.50161 20.4378ZM20.2497 12.9994C20.2497 14.891 20.2487 16.2494 20.1347 17.3014C20.0222 18.3393 19.8071 18.9895 19.438 19.4975L20.6515 20.3792C21.2374 19.5729 21.4997 18.6285 21.626 17.463C21.7507 16.3115 21.7497 14.8576 21.7497 12.9994H20.2497ZM11.9997 22.7494C13.8579 22.7494 15.3117 22.7505 16.4632 22.6257C17.6288 22.4994 18.5731 22.2371 19.3795 21.6513L18.4978 20.4378C17.9898 20.8068 17.3396 21.022 16.3017 21.1344C15.2497 21.2484 13.8913 21.2494 11.9997 21.2494V22.7494ZM19.438 19.4975C19.1759 19.8583 18.8586 20.1756 18.4978 20.4378L19.3795 21.6513C19.8676 21.2966 20.2969 20.8673 20.6515 20.3792L19.438 19.4975ZM18.4978 3.56112C18.8586 3.82326 19.1759 4.14056 19.438 4.50136L20.6515 3.61968C20.2969 3.13154 19.8676 2.70226 19.3795 2.3476L18.4978 3.56112ZM11.9997 1.24945C10.1415 1.24945 8.68768 1.24842 7.53618 1.37317C6.37064 1.49945 5.42626 1.76177 4.61994 2.3476L5.50161 3.56112C6.00962 3.19204 6.65983 2.9769 7.69775 2.86445C8.74969 2.75048 10.1081 2.74945 11.9997 2.74945V1.24945ZM3.7497 10.9994C3.7497 9.10787 3.75073 7.74944 3.8647 6.69749C3.97715 5.65958 4.19229 5.00936 4.56138 4.50136L3.34785 3.61968C2.76203 4.426 2.49971 5.37038 2.37343 6.53592C2.24867 7.68742 2.2497 9.14128 2.2497 10.9994H3.7497ZM4.61994 2.3476C4.13179 2.70226 3.70251 3.13154 3.34785 3.61968L4.56138 4.50136C4.82352 4.14056 5.14081 3.82326 5.50161 3.56112L4.61994 2.3476ZM11.9997 2.74945C13.1728 2.74945 14.1452 2.74954 14.974 2.77794L15.0254 1.27882C14.1655 1.24935 13.1645 1.24945 11.9997 1.24945V2.74945ZM14.974 2.77794C16.8289 2.84149 17.7922 3.04851 18.4978 3.56112L19.3795 2.3476C18.2758 1.54574 16.8988 1.343 15.0254 1.27882L14.974 2.77794ZM14.2497 2.02838C14.2497 2.91065 14.2481 3.44159 14.3205 3.89894L15.802 3.66429C15.7526 3.35243 15.7497 2.96562 15.7497 2.02837L14.2497 2.02838ZM21.7497 10.9994C21.7497 9.83467 21.7498 8.83369 21.7203 7.97376L20.2212 8.02512C20.2496 8.85389 20.2497 9.82637 20.2497 10.9994H21.7497ZM21.7203 7.97376C21.6561 6.10032 21.4534 4.72334 20.6515 3.61968L19.438 4.50136C19.9506 5.20691 20.1577 6.1702 20.2212 8.02512L21.7203 7.97376ZM20.9708 7.24944C20.0335 7.24944 19.6467 7.24651 19.3348 7.19712L19.1002 8.67865C19.5575 8.75109 20.0885 8.74944 20.9708 8.74944L20.9708 7.24944ZM8.9997 13.7494H14.9997V12.2494H8.9997V13.7494Z" fill="black"/>
</svg>
