<svg width="24" height="24" viewBox="0 0 24 24" fill="none" xmlns="http://www.w3.org/2000/svg">
<path d="M5.06078 21.0448L5.50161 20.438L5.06078 21.0448ZM3.95462 19.9386L4.56138 19.4978L3.95462 19.9386ZM20.0448 19.9386L19.438 19.4978L20.0448 19.9386ZM18.9386 21.0448L18.4978 20.438L18.9386 21.0448ZM18.9386 2.95461L19.3795 2.34785L18.9386 2.95461ZM20.0448 4.06077L19.438 4.50161L20.0448 4.06077ZM5.06078 2.95461L5.50161 3.56137L5.06078 2.95461ZM3.95462 4.06077L4.56138 4.50161L3.95462 4.06077ZM13.1458 6.595L13.2632 7.33577L13.2632 7.33577L13.1458 6.595ZM11.5815 6.595L11.4642 7.33577L11.4642 7.33577L11.5815 6.595ZM12.9997 15.2497C12.5855 15.2497 12.2497 15.5855 12.2497 15.9997C12.2497 16.4139 12.5855 16.7497 12.9997 16.7497V15.2497ZM15.9997 16.7497C16.4139 16.7497 16.7497 16.4139 16.7497 15.9997C16.7497 15.5855 16.4139 15.2497 15.9997 15.2497V16.7497ZM7.9997 11.2497C7.58549 11.2497 7.2497 11.5855 7.2497 11.9997C7.2497 12.4139 7.58549 12.7497 7.9997 12.7497L7.9997 11.2497ZM15.9997 12.7497C16.4139 12.7497 16.7497 12.4139 16.7497 11.9997C16.7497 11.5855 16.4139 11.2497 15.9997 11.2497L15.9997 12.7497ZM20.2497 10.9997V12.9997H21.7497V10.9997H20.2497ZM3.7497 12.9997V10.9997H2.2497V12.9997H3.7497ZM11.9997 21.2497C10.1081 21.2497 8.74969 21.2487 7.69775 21.1347C6.65983 21.0222 6.00962 20.8071 5.50161 20.438L4.61994 21.6515C5.42626 22.2374 6.37064 22.4997 7.53618 22.626C8.68768 22.7507 10.1415 22.7497 11.9997 22.7497V21.2497ZM2.2497 12.9997C2.2497 14.8578 2.24867 16.3117 2.37343 17.4632C2.49971 18.6287 2.76203 19.5731 3.34785 20.3795L4.56138 19.4978C4.19229 18.9898 3.97715 18.3396 3.8647 17.3016C3.75073 16.2497 3.7497 14.8913 3.7497 12.9997H2.2497ZM5.50161 20.438C5.14081 20.1759 4.82352 19.8586 4.56138 19.4978L3.34785 20.3795C3.70251 20.8676 4.13179 21.2969 4.61994 21.6515L5.50161 20.438ZM20.2497 12.9997C20.2497 14.8913 20.2487 16.2497 20.1347 17.3016C20.0222 18.3396 19.8071 18.9898 19.438 19.4978L20.6515 20.3795C21.2374 19.5731 21.4997 18.6287 21.626 17.4632C21.7507 16.3117 21.7497 14.8578 21.7497 12.9997H20.2497ZM11.9997 22.7497C13.8579 22.7497 15.3117 22.7507 16.4632 22.626C17.6288 22.4997 18.5731 22.2374 19.3795 21.6515L18.4978 20.438C17.9898 20.8071 17.3396 21.0222 16.3017 21.1347C15.2497 21.2487 13.8913 21.2497 11.9997 21.2497V22.7497ZM19.438 19.4978C19.1759 19.8586 18.8586 20.1759 18.4978 20.438L19.3795 21.6515C19.8676 21.2969 20.2969 20.8676 20.6515 20.3795L19.438 19.4978ZM21.7497 10.9997C21.7497 9.14153 21.7507 7.68767 21.626 6.53617C21.4997 5.37063 21.2374 4.42625 20.6515 3.61993L19.438 4.50161C19.8071 5.00961 20.0222 5.65983 20.1347 6.69774C20.2487 7.74968 20.2497 9.10812 20.2497 10.9997H21.7497ZM18.4978 3.56137C18.8586 3.82351 19.1759 4.1408 19.438 4.50161L20.6515 3.61993C20.2969 3.13178 19.8676 2.7025 19.3795 2.34785L18.4978 3.56137ZM3.7497 10.9997C3.7497 9.10812 3.75073 7.74968 3.8647 6.69774C3.97715 5.65983 4.19229 5.00961 4.56138 4.50161L3.34785 3.61993C2.76203 4.42625 2.49971 5.37063 2.37343 6.53617C2.24867 7.68767 2.2497 9.14153 2.2497 10.9997H3.7497ZM4.61994 2.34785C4.13179 2.7025 3.70251 3.13178 3.34785 3.61993L4.56138 4.50161C4.82352 4.1408 5.14081 3.82351 5.50161 3.56137L4.61994 2.34785ZM13.0285 5.85424C12.588 5.924 12.1393 5.924 11.6988 5.85424L11.4642 7.33577C12.0601 7.43016 12.6672 7.43016 13.2632 7.33577L13.0285 5.85424ZM17.91 2.12053C16.6698 3.35984 15.766 4.24975 14.9853 4.86459C14.2158 5.47064 13.6259 5.75962 13.0285 5.85424L13.2632 7.33577C14.2113 7.18559 15.0376 6.73271 15.9134 6.04303C16.778 5.36214 17.7485 4.40247 18.9703 3.18157L17.91 2.12053ZM11.9997 2.74969C13.6614 2.74969 14.9146 2.75022 15.9146 2.82881C16.9121 2.9072 17.5841 3.05932 18.1025 3.32072L18.7779 1.98137C18.0046 1.59142 17.1067 1.41787 16.0321 1.33342C14.96 1.24917 13.6388 1.2497 11.9997 1.2497V2.74969ZM18.1025 3.32072C18.2428 3.39149 18.3737 3.4712 18.4978 3.56137L19.3795 2.34785C19.1889 2.20936 18.9889 2.08778 18.7779 1.98137L18.1025 3.32072ZM5.5416 2.96622C6.83216 4.25672 7.84515 5.26811 8.73811 5.98281C9.64213 6.70635 10.4887 7.18128 11.4642 7.33577L11.6988 5.85424C11.0843 5.7569 10.4778 5.45394 9.67542 4.81171C8.86195 4.16064 7.91513 3.21838 6.60224 1.90554L5.5416 2.96622ZM11.9997 1.2497C10.5634 1.2497 9.37339 1.24943 8.38454 1.30542C7.39641 1.36137 6.55603 1.47546 5.82729 1.7269L6.31655 3.14486C6.85197 2.96012 7.53157 2.85612 8.46934 2.80302C9.40638 2.74996 10.5482 2.74969 11.9997 2.74969V1.2497ZM5.82729 1.7269C5.38669 1.87893 4.98759 2.08073 4.61994 2.34785L5.50161 3.56137C5.73818 3.3895 6.00254 3.25321 6.31655 3.14486L5.82729 1.7269ZM12.9997 16.7497H15.9997V15.2497H12.9997V16.7497ZM7.9997 12.7497L15.9997 12.7497L15.9997 11.2497L7.9997 11.2497L7.9997 12.7497Z" fill="black"/>
</svg>
