<svg width="24" height="24" viewBox="0 0 24 24" fill="none" xmlns="http://www.w3.org/2000/svg">
<path d="M4.78226 15.0611L4.89959 14.3203L4.89959 14.3203L4.78226 15.0611ZM8.93853 19.2173L9.6793 19.1L9.6793 19.1L8.93853 19.2173ZM5.06116 20.0446L4.62033 20.6514L5.06116 20.0446ZM3.95501 18.9384L4.56177 18.4976L3.95501 18.9384ZM20.0452 18.9384L19.4384 18.4976L20.0452 18.9384ZM18.939 20.0446L18.4982 19.4378L18.939 20.0446ZM18.939 3.95444L18.4982 4.5612L18.939 3.95444ZM20.0452 5.0606L19.4384 5.50144L20.0452 5.0606ZM5.06116 3.95444L5.502 4.5612L5.06116 3.95444ZM3.95501 5.0606L4.56177 5.50144L3.95501 5.0606ZM3.02902 14.9995L2.27946 15.0252L3.02902 14.9995ZM9.00009 20.9706L8.97441 21.7202L9.00009 20.9706ZM13.0001 15.2495C12.5859 15.2495 12.2501 15.5853 12.2501 15.9995C12.2501 16.4137 12.5859 16.7495 13.0001 16.7495V15.2495ZM16.0001 16.7495C16.4143 16.7495 16.7501 16.4137 16.7501 15.9995C16.7501 15.5853 16.4143 15.2495 16.0001 15.2495V16.7495ZM8.00009 11.2495C7.58588 11.2495 7.25009 11.5853 7.25009 11.9995C7.25009 12.4137 7.58588 12.7495 8.00009 12.7495V11.2495ZM16.0001 12.7495C16.4143 12.7495 16.7501 12.4137 16.7501 11.9995C16.7501 11.5853 16.4143 11.2495 16.0001 11.2495V12.7495ZM13.0001 7.24953C12.5859 7.24953 12.2501 7.58531 12.2501 7.99952C12.2501 8.41374 12.5859 8.74952 13.0001 8.74952V7.24953ZM16.0001 8.74952C16.4143 8.74952 16.7501 8.41374 16.7501 7.99952C16.7501 7.58531 16.4143 7.24953 16.0001 7.24953V8.74952ZM4.66494 15.8018C6.48348 16.0899 7.90974 17.5161 8.19776 19.3347L9.6793 19.1C9.28961 16.6396 7.35997 14.71 4.89959 14.3203L4.66494 15.8018ZM5.502 19.4378C5.1412 19.1757 4.82391 18.8584 4.56177 18.4976L3.34824 19.3793C3.7029 19.8674 4.13218 20.2967 4.62033 20.6514L5.502 19.4378ZM20.2501 11.9995C20.2501 13.8911 20.2491 15.2495 20.1351 16.3015C20.0226 17.3394 19.8075 17.9896 19.4384 18.4976L20.6519 19.3793C21.2378 18.573 21.5001 17.6286 21.6264 16.463C21.7511 15.3115 21.7501 13.8577 21.7501 11.9995H20.2501ZM12.0001 21.7495C13.8582 21.7495 15.3121 21.7505 16.4636 21.6258C17.6291 21.4995 18.5735 21.2372 19.3798 20.6514L18.4982 19.4378C17.9902 19.8069 17.34 20.0221 16.302 20.1345C15.2501 20.2485 13.8917 20.2495 12.0001 20.2495V21.7495ZM19.4384 18.4976C19.1763 18.8584 18.859 19.1757 18.4982 19.4378L19.3798 20.6514C19.868 20.2967 20.2973 19.8674 20.6519 19.3793L19.4384 18.4976ZM12.0001 3.74953C13.8917 3.74953 15.2501 3.75056 16.302 3.86453C17.34 3.97698 17.9902 4.19212 18.4982 4.5612L19.3798 3.34768C18.5735 2.76185 17.6291 2.49953 16.4636 2.37326C15.3121 2.2485 13.8582 2.24953 12.0001 2.24953V3.74953ZM21.7501 11.9995C21.7501 10.1414 21.7511 8.6875 21.6264 7.536C21.5001 6.37046 21.2378 5.42608 20.6519 4.61976L19.4384 5.50144C19.8075 6.00944 20.0226 6.65966 20.1351 7.69757C20.2491 8.74952 20.2501 10.108 20.2501 11.9995H21.7501ZM18.4982 4.5612C18.859 4.82334 19.1763 5.14064 19.4384 5.50144L20.6519 4.61976C20.2973 4.13162 19.868 3.70234 19.3798 3.34768L18.4982 4.5612ZM12.0001 2.24953C10.1419 2.24953 8.68807 2.2485 7.53657 2.37326C6.37103 2.49953 5.42665 2.76185 4.62033 3.34768L5.502 4.5612C6.01001 4.19212 6.66022 3.97698 7.69813 3.86453C8.75008 3.75056 10.1085 3.74953 12.0001 3.74953V2.24953ZM3.75009 11.9995C3.75009 10.108 3.75112 8.74952 3.86509 7.69757C3.97754 6.65966 4.19268 6.00944 4.56177 5.50144L3.34824 4.61976C2.76242 5.42608 2.5001 6.37046 2.37382 7.536C2.24906 8.6875 2.25009 10.1414 2.25009 11.9995H3.75009ZM4.62033 3.34768C4.13218 3.70234 3.7029 4.13162 3.34824 4.61976L4.56177 5.50144C4.82391 5.14064 5.1412 4.82334 5.502 4.5612L4.62033 3.34768ZM2.25009 11.9995C2.25009 13.1643 2.25 14.1653 2.27946 15.0252L3.77858 14.9738C3.75019 14.1451 3.75009 13.1726 3.75009 11.9995H2.25009ZM2.27946 15.0252C2.34365 16.8986 2.54639 18.2756 3.34824 19.3793L4.56177 18.4976C4.04916 17.7921 3.84213 16.8288 3.77858 14.9738L2.27946 15.0252ZM3.02901 15.7495C3.96627 15.7495 4.35307 15.7525 4.66494 15.8018L4.89959 14.3203C4.44224 14.2479 3.9113 14.2495 3.02903 14.2495L3.02901 15.7495ZM12.0001 20.2495C10.827 20.2495 9.85454 20.2494 9.02577 20.221L8.97441 21.7202C9.83433 21.7496 10.8353 21.7495 12.0001 21.7495V20.2495ZM9.02577 20.221C7.17084 20.1575 6.20755 19.9505 5.502 19.4378L4.62033 20.6514C5.72399 21.4532 7.10096 21.656 8.97441 21.7202L9.02577 20.221ZM9.75009 20.9706C9.75008 20.0883 9.75173 19.5574 9.6793 19.1L8.19776 19.3347C8.24716 19.6465 8.25008 20.0333 8.25009 20.9706L9.75009 20.9706ZM13.0001 16.7495H16.0001V15.2495H13.0001V16.7495ZM8.00009 12.7495H16.0001V11.2495H8.00009V12.7495ZM13.0001 8.74952H16.0001V7.24953H13.0001V8.74952Z" fill="black"/>
</svg>
