<svg width="24" height="24" viewBox="0 0 24 24" fill="none" xmlns="http://www.w3.org/2000/svg">
<path d="M19.2174 7.93789L19.1001 8.67865L19.1001 8.67865L19.2174 7.93789ZM15.0611 3.78162L14.3204 3.89894L14.3204 3.89894L15.0611 3.78162ZM5.06066 21.0445L5.5015 20.4378L5.06066 21.0445ZM3.9545 19.9384L4.56127 19.4975L3.9545 19.9384ZM20.0447 19.9384L19.4379 19.4975L20.0447 19.9384ZM18.9385 21.0445L18.4977 20.4378L18.9385 21.0445ZM18.9385 2.95436L19.3793 2.3476L18.9385 2.95436ZM20.0447 4.06052L20.6514 3.61968L20.0447 4.06052ZM5.06066 2.95436L5.5015 3.56112L5.06066 2.95436ZM3.9545 4.06052L4.56127 4.50136L3.9545 4.06052ZM14.9996 2.02838L15.0253 1.27882L14.9996 2.02838ZM20.9707 7.99944L21.7202 7.97376L20.9707 7.99944ZM12.7496 8.99944C12.7496 8.58523 12.4138 8.24944 11.9996 8.24944C11.5854 8.24944 11.2496 8.58523 11.2496 8.99944H12.7496ZM16.5323 14.3274C16.8239 14.0332 16.8217 13.5583 16.5275 13.2668C16.2333 12.9752 15.7585 12.9773 15.4669 13.2715L16.5323 14.3274ZM14.6017 15.2098L15.1344 15.7378L15.1344 15.7378L14.6017 15.2098ZM9.39743 15.2098L9.93012 14.6819L9.93012 14.6819L9.39743 15.2098ZM8.53228 13.2715C8.24069 12.9773 7.76582 12.9752 7.47163 13.2668C7.17743 13.5583 7.17531 14.0332 7.46689 14.3274L8.53228 13.2715ZM12.2503 16.9835L12.3451 17.7275L12.3451 17.7275L12.2503 16.9835ZM11.7489 16.9835L11.6541 17.7275L11.6541 17.7275L11.7489 16.9835ZM11.2496 16.9835C11.2496 17.3977 11.5854 17.7335 11.9996 17.7335C12.4138 17.7335 12.7496 17.3977 12.7496 16.9835H11.2496ZM19.3347 7.19712C17.5162 6.90909 16.0899 5.48284 15.8019 3.66429L14.3204 3.89894C14.7101 6.35932 16.6397 8.28897 19.1001 8.67865L19.3347 7.19712ZM20.2496 10.9994V12.9994H21.7496V10.9994H20.2496ZM3.74959 12.9994V10.9994H2.24959V12.9994H3.74959ZM11.9996 21.2494C10.108 21.2494 8.74958 21.2484 7.69763 21.1344C6.65972 21.022 6.0095 20.8068 5.5015 20.4378L4.61982 21.6513C5.42615 22.2371 6.37053 22.4994 7.53606 22.6257C8.68756 22.7505 10.1414 22.7494 11.9996 22.7494V21.2494ZM2.24959 12.9994C2.24959 14.8576 2.24856 16.3115 2.37332 17.463C2.49959 18.6285 2.76191 19.5729 3.34774 20.3792L4.56127 19.4975C4.19218 18.9895 3.97704 18.3393 3.86459 17.3014C3.75062 16.2494 3.74959 14.891 3.74959 12.9994H2.24959ZM5.5015 20.4378C5.1407 20.1756 4.8234 19.8583 4.56127 19.4975L3.34774 20.3792C3.7024 20.8673 4.13168 21.2966 4.61982 21.6513L5.5015 20.4378ZM20.2496 12.9994C20.2496 14.891 20.2486 16.2494 20.1346 17.3014C20.0221 18.3393 19.807 18.9895 19.4379 19.4975L20.6514 20.3792C21.2373 19.5729 21.4996 18.6285 21.6259 17.463C21.7506 16.3115 21.7496 14.8576 21.7496 12.9994H20.2496ZM11.9996 22.7494C13.8577 22.7494 15.3116 22.7505 16.4631 22.6257C17.6286 22.4994 18.573 22.2371 19.3793 21.6513L18.4977 20.4378C17.9897 20.8068 17.3394 21.022 16.3015 21.1344C15.2496 21.2484 13.8912 21.2494 11.9996 21.2494V22.7494ZM19.4379 19.4975C19.1758 19.8583 18.8585 20.1756 18.4977 20.4378L19.3793 21.6513C19.8675 21.2966 20.2968 20.8673 20.6514 20.3792L19.4379 19.4975ZM18.4977 3.56112C18.8585 3.82326 19.1758 4.14056 19.4379 4.50136L20.6514 3.61968C20.2968 3.13154 19.8675 2.70226 19.3793 2.3476L18.4977 3.56112ZM11.9996 1.24945C10.1414 1.24945 8.68756 1.24842 7.53606 1.37317C6.37053 1.49945 5.42615 1.76177 4.61982 2.3476L5.5015 3.56112C6.0095 3.19204 6.65972 2.9769 7.69763 2.86445C8.74958 2.75048 10.108 2.74945 11.9996 2.74945V1.24945ZM3.74959 10.9994C3.74959 9.10787 3.75062 7.74944 3.86459 6.69749C3.97704 5.65958 4.19218 5.00936 4.56127 4.50136L3.34774 3.61968C2.76191 4.426 2.49959 5.37038 2.37332 6.53592C2.24856 7.68742 2.24959 9.14128 2.24959 10.9994H3.74959ZM4.61982 2.3476C4.13168 2.70226 3.7024 3.13154 3.34774 3.61968L4.56127 4.50136C4.8234 4.14056 5.1407 3.82326 5.5015 3.56112L4.61982 2.3476ZM11.9996 2.74945C13.1727 2.74945 14.1451 2.74954 14.9739 2.77794L15.0253 1.27882C14.1653 1.24935 13.1644 1.24945 11.9996 1.24945V2.74945ZM14.9739 2.77794C16.8288 2.84149 17.7921 3.04851 18.4977 3.56112L19.3793 2.3476C18.2757 1.54574 16.8987 1.343 15.0253 1.27882L14.9739 2.77794ZM14.2496 2.02838C14.2496 2.91065 14.2479 3.44159 14.3204 3.89894L15.8019 3.66429C15.7525 3.35243 15.7496 2.96562 15.7496 2.02837L14.2496 2.02838ZM21.7496 10.9994C21.7496 9.83467 21.7497 8.83369 21.7202 7.97376L20.2211 8.02512C20.2495 8.85389 20.2496 9.82637 20.2496 10.9994H21.7496ZM21.7202 7.97376C21.656 6.10032 21.4533 4.72334 20.6514 3.61968L19.4379 4.50136C19.9505 5.20691 20.1575 6.1702 20.2211 8.02512L21.7202 7.97376ZM20.9707 7.24944C20.0334 7.24944 19.6466 7.24651 19.3347 7.19712L19.1001 8.67865C19.5574 8.75109 20.0884 8.74944 20.9706 8.74944L20.9707 7.24944ZM11.2496 8.99944V16.1994H12.7496V8.99944H11.2496ZM15.4669 13.2715L14.069 14.6819L15.1344 15.7378L16.5323 14.3274L15.4669 13.2715ZM9.93012 14.6819L8.53228 13.2715L7.46689 14.3274L8.86474 15.7378L9.93012 14.6819ZM14.069 14.6819C13.4993 15.2568 13.1157 15.6421 12.7931 15.9012C12.4823 16.1508 12.3016 16.2209 12.1554 16.2395L12.3451 17.7275C12.8783 17.6595 13.3159 17.4052 13.7323 17.0707C14.1369 16.7458 14.5895 16.2876 15.1344 15.7378L14.069 14.6819ZM8.86474 15.7378C9.4097 16.2876 9.86224 16.7458 10.2668 17.0707C10.6832 17.4052 11.1209 17.6595 11.6541 17.7275L11.8437 16.2395C11.6976 16.2209 11.5169 16.1508 11.2061 15.9012C10.8834 15.6421 10.4999 15.2568 9.93012 14.6819L8.86474 15.7378ZM12.1554 16.2395C12.0519 16.2527 11.9472 16.2527 11.8437 16.2395L11.6541 17.7275C11.8835 17.7568 12.1157 17.7568 12.3451 17.7275L12.1554 16.2395ZM11.2496 16.1994V16.9835H12.7496V16.1994H11.2496Z" fill="black"/>
</svg>
