<svg width="24" height="24" viewBox="0 0 24 24" fill="none" xmlns="http://www.w3.org/2000/svg">
<path d="M4.7821 16.061L4.89942 15.3202L4.89942 15.3202L4.7821 16.061ZM8.93836 20.2172L9.67913 20.0999L9.67913 20.0999L8.93836 20.2172ZM5.061 21.0445L4.62016 21.6512L5.061 21.0445ZM3.95484 19.9383L3.34808 20.3792L3.95484 19.9383ZM20.045 19.9383L19.4382 19.4975L20.045 19.9383ZM18.9388 21.0445L18.498 20.4377L18.9388 21.0445ZM18.9388 2.95432L18.498 3.56108L18.9388 2.95432ZM20.045 4.06048L19.4382 4.50132L20.045 4.06048ZM5.061 2.95432L5.50184 3.56108L5.061 2.95432ZM3.95484 4.06048L4.5616 4.50132L3.95484 4.06048ZM3.02885 15.9994L2.27929 16.0251L3.02885 15.9994ZM8.99992 21.9705L8.97424 22.72L8.99992 21.9705ZM12.9999 15.2494C12.5857 15.2494 12.2499 15.5852 12.2499 15.9994C12.2499 16.4136 12.5857 16.7494 12.9999 16.7494V15.2494ZM15.9999 16.7494C16.4141 16.7494 16.7499 16.4136 16.7499 15.9994C16.7499 15.5852 16.4141 15.2494 15.9999 15.2494V16.7494ZM7.99992 11.2494C7.58571 11.2494 7.24992 11.5852 7.24992 11.9994C7.24992 12.4136 7.58571 12.7494 7.99992 12.7494V11.2494ZM15.9999 12.7494C16.4141 12.7494 16.7499 12.4136 16.7499 11.9994C16.7499 11.5852 16.4141 11.2494 15.9999 11.2494V12.7494ZM12.9999 7.2494C12.5857 7.2494 12.2499 7.58519 12.2499 7.9994C12.2499 8.41362 12.5857 8.7494 12.9999 8.7494V7.2494ZM15.9999 8.7494C16.4141 8.7494 16.7499 8.41362 16.7499 7.9994C16.7499 7.58519 16.4141 7.2494 15.9999 7.2494V8.7494ZM4.66477 16.8017C6.48331 17.0898 7.90957 18.516 8.1976 20.3345L9.67913 20.0999C9.28944 17.6395 7.3598 15.7099 4.89942 15.3202L4.66477 16.8017ZM20.2499 10.9994V12.9994H21.7499V10.9994H20.2499ZM3.74992 12.9994V10.9994H2.24992V12.9994H3.74992ZM5.50184 20.4377C5.14103 20.1756 4.82374 19.8583 4.5616 19.4975L3.34808 20.3792C3.70273 20.8673 4.13201 21.2966 4.62016 21.6512L5.50184 20.4377ZM20.2499 12.9994C20.2499 14.891 20.2489 16.2494 20.1349 17.3014C20.0225 18.3393 19.8073 18.9895 19.4382 19.4975L20.6518 20.3792C21.2376 19.5728 21.4999 18.6285 21.6262 17.4629C21.7509 16.3114 21.7499 14.8576 21.7499 12.9994H20.2499ZM11.9999 22.7494C13.8581 22.7494 15.3119 22.7504 16.4634 22.6257C17.629 22.4994 18.5734 22.2371 19.3797 21.6512L18.498 20.4377C17.99 20.8068 17.3398 21.0219 16.3019 21.1344C15.2499 21.2484 13.8915 21.2494 11.9999 21.2494V22.7494ZM19.4382 19.4975C19.1761 19.8583 18.8588 20.1756 18.498 20.4377L19.3797 21.6512C19.8678 21.2966 20.2971 20.8673 20.6518 20.3792L19.4382 19.4975ZM11.9999 2.7494C13.8915 2.7494 15.2499 2.75043 16.3019 2.86441C17.3398 2.97686 17.99 3.192 18.498 3.56108L19.3797 2.34756C18.5734 1.76173 17.629 1.49941 16.4634 1.37313C15.3119 1.24838 13.8581 1.24941 11.9999 1.24941V2.7494ZM21.7499 10.9994C21.7499 9.14124 21.7509 7.68738 21.6262 6.53588C21.4999 5.37034 21.2376 4.42596 20.6518 3.61964L19.4382 4.50132C19.8073 5.00932 20.0225 5.65954 20.1349 6.69745C20.2489 7.74939 20.2499 9.10783 20.2499 10.9994H21.7499ZM18.498 3.56108C18.8588 3.82322 19.1761 4.14051 19.4382 4.50132L20.6518 3.61964C20.2971 3.13149 19.8678 2.70221 19.3797 2.34756L18.498 3.56108ZM11.9999 1.24941C10.1418 1.24941 8.6879 1.24838 7.5364 1.37313C6.37086 1.49941 5.42648 1.76173 4.62016 2.34756L5.50184 3.56108C6.00984 3.192 6.66006 2.97686 7.69797 2.86441C8.74991 2.75043 10.1083 2.7494 11.9999 2.7494V1.24941ZM3.74992 10.9994C3.74992 9.10783 3.75095 7.74939 3.86492 6.69745C3.97737 5.65954 4.19251 5.00932 4.5616 4.50132L3.34808 3.61964C2.76225 4.42596 2.49993 5.37034 2.37365 6.53588C2.24889 7.68738 2.24992 9.14124 2.24992 10.9994H3.74992ZM4.62016 2.34756C4.13201 2.70221 3.70273 3.13149 3.34808 3.61964L4.5616 4.50132C4.82374 4.14051 5.14103 3.82322 5.50184 3.56108L4.62016 2.34756ZM2.24992 12.9994C2.24992 14.1642 2.24983 15.1652 2.27929 16.0251L3.77841 15.9737C3.75002 15.145 3.74992 14.1725 3.74992 12.9994H2.24992ZM2.27929 16.0251C2.34348 17.8985 2.54622 19.2755 3.34808 20.3792L4.5616 19.4975C4.04899 18.7919 3.84196 17.8286 3.77841 15.9737L2.27929 16.0251ZM3.02885 16.7494C3.9661 16.7494 4.3529 16.7523 4.66477 16.8017L4.89942 15.3202C4.44207 15.2478 3.91113 15.2494 3.02886 15.2494L3.02885 16.7494ZM11.9999 21.2494C10.8268 21.2494 9.85437 21.2493 9.0256 21.2209L8.97424 22.72C9.83417 22.7495 10.8351 22.7494 11.9999 22.7494V21.2494ZM9.0256 21.2209C7.17068 21.1574 6.20738 20.9503 5.50184 20.4377L4.62016 21.6512C5.72382 22.4531 7.1008 22.6558 8.97424 22.72L9.0256 21.2209ZM9.74992 21.9705C9.74991 21.0882 9.75157 20.5572 9.67913 20.0999L8.1976 20.3345C8.24699 20.6464 8.24991 21.0332 8.24992 21.9705L9.74992 21.9705ZM12.9999 16.7494H15.9999V15.2494H12.9999V16.7494ZM7.99992 12.7494H15.9999V11.2494H7.99992V12.7494ZM12.9999 8.7494H15.9999V7.2494H12.9999V8.7494Z" fill="black"/>
</svg>
