<svg width="24" height="24" viewBox="0 0 24 24" fill="none" xmlns="http://www.w3.org/2000/svg">
<path d="M4.78163 7.93792L4.89896 8.67869L4.89896 8.67869L4.78163 7.93792ZM8.9379 3.78166L9.67866 3.89898L9.67866 3.89898L8.9379 3.78166ZM18.9384 21.0446L18.4975 20.4378L18.9384 21.0446ZM20.0445 19.9384L19.4378 19.4976L20.0445 19.9384ZM3.95437 19.9384L4.56113 19.4976L3.95437 19.9384ZM5.06053 21.0446L5.50137 20.4378L5.06053 21.0446ZM5.06053 2.9544L4.61969 2.34764L5.06053 2.9544ZM3.95437 4.06056L3.34761 3.61972L3.95437 4.06056ZM18.9384 2.9544L18.4975 3.56116L18.9384 2.9544ZM20.0445 4.06056L19.4378 4.5014L20.0445 4.06056ZM8.99946 2.02841L8.97377 1.27885L8.99946 2.02841ZM3.02839 7.99948L2.27883 7.9738L3.02839 7.99948ZM12.9995 15.2495C12.5852 15.2495 12.2495 15.5853 12.2495 15.9995C12.2495 16.4137 12.5852 16.7495 12.9995 16.7495V15.2495ZM15.9995 16.7495C16.4137 16.7495 16.7495 16.4137 16.7495 15.9995C16.7495 15.5853 16.4137 15.2495 15.9995 15.2495V16.7495ZM7.99946 11.2495C7.58524 11.2495 7.24946 11.5853 7.24946 11.9995C7.24946 12.4137 7.58524 12.7495 7.99946 12.7495V11.2495ZM15.9995 12.7495C16.4137 12.7495 16.7495 12.4137 16.7495 11.9995C16.7495 11.5853 16.4137 11.2495 15.9995 11.2495V12.7495ZM12.9995 7.24948C12.5852 7.24948 12.2495 7.58527 12.2495 7.99948C12.2495 8.4137 12.5852 8.74948 12.9995 8.74948V7.24948ZM15.9995 8.74948C16.4137 8.74948 16.7495 8.4137 16.7495 7.99948C16.7495 7.58527 16.4137 7.24948 15.9995 7.24948V8.74948ZM4.89896 8.67869C7.35934 8.289 9.28898 6.35936 9.67866 3.89898L8.19713 3.66433C7.9091 5.48287 6.48285 6.90913 4.6643 7.19716L4.89896 8.67869ZM2.24946 10.9995V12.9995H3.74946V10.9995H2.24946ZM21.7495 12.9995V10.9995H20.2495V12.9995H21.7495ZM11.9995 22.7495C13.8576 22.7495 15.3115 22.7505 16.463 22.6257C17.6285 22.4995 18.5729 22.2372 19.3792 21.6513L18.4975 20.4378C17.9895 20.8069 17.3393 21.022 16.3014 21.1345C15.2495 21.2484 13.891 21.2495 11.9995 21.2495V22.7495ZM20.2495 12.9995C20.2495 14.8911 20.2484 16.2495 20.1345 17.3014C20.022 18.3393 19.8069 18.9896 19.4378 19.4976L20.6513 20.3792C21.2371 19.5729 21.4994 18.6285 21.6257 17.463C21.7505 16.3115 21.7495 14.8576 21.7495 12.9995H20.2495ZM19.3792 21.6513C19.8674 21.2967 20.2966 20.8674 20.6513 20.3792L19.4378 19.4976C19.1756 19.8584 18.8583 20.1757 18.4975 20.4378L19.3792 21.6513ZM2.24946 12.9995C2.24946 14.8576 2.24843 16.3115 2.37319 17.463C2.49946 18.6285 2.76178 19.5729 3.34761 20.3792L4.56113 19.4976C4.19205 18.9896 3.97691 18.3393 3.86446 17.3014C3.75049 16.2495 3.74946 14.8911 3.74946 12.9995H2.24946ZM11.9995 21.2495C10.1079 21.2495 8.74945 21.2484 7.6975 21.1345C6.65959 21.022 6.00937 20.8069 5.50137 20.4378L4.61969 21.6513C5.42602 22.2372 6.3704 22.4995 7.53593 22.6257C8.68743 22.7505 10.1413 22.7495 11.9995 22.7495V21.2495ZM3.34761 20.3792C3.70227 20.8674 4.13155 21.2967 4.61969 21.6513L5.50137 20.4378C5.14057 20.1757 4.82327 19.8584 4.56113 19.4976L3.34761 20.3792ZM4.61969 2.34764C4.13155 2.70229 3.70227 3.13157 3.34761 3.61972L4.56113 4.5014C4.82327 4.14059 5.14057 3.8233 5.50137 3.56116L4.61969 2.34764ZM11.9995 2.74948C13.891 2.74948 15.2495 2.75051 16.3014 2.86449C17.3393 2.97694 17.9895 3.19208 18.4975 3.56116L19.3792 2.34764C18.5729 1.76181 17.6285 1.49949 16.463 1.37321C15.3115 1.24846 13.8576 1.24949 11.9995 1.24949V2.74948ZM21.7495 10.9995C21.7495 9.14132 21.7505 7.68746 21.6257 6.53596C21.4994 5.37042 21.2371 4.42604 20.6513 3.61972L19.4378 4.5014C19.8069 5.0094 20.022 5.65962 20.1345 6.69753C20.2484 7.74947 20.2495 9.10791 20.2495 10.9995H21.7495ZM18.4975 3.56116C18.8583 3.8233 19.1756 4.14059 19.4378 4.5014L20.6513 3.61972C20.2966 3.13157 19.8674 2.70229 19.3792 2.34764L18.4975 3.56116ZM11.9995 1.24949C10.8347 1.24949 9.8337 1.24939 8.97377 1.27885L9.02514 2.77797C9.8539 2.74958 10.8264 2.74948 11.9995 2.74948V1.24949ZM8.97377 1.27885C7.10033 1.34304 5.72335 1.54578 4.61969 2.34764L5.50137 3.56116C6.20692 3.04855 7.17021 2.84153 9.02514 2.77797L8.97377 1.27885ZM8.24946 2.02841C8.24945 2.96566 8.24653 3.35247 8.19713 3.66433L9.67866 3.89898C9.7511 3.44163 9.74945 2.91069 9.74946 2.02842L8.24946 2.02841ZM3.74946 10.9995C3.74946 9.82641 3.74955 8.85393 3.77795 8.02516L2.27883 7.9738C2.24937 8.83373 2.24946 9.83471 2.24946 10.9995H3.74946ZM3.77795 8.02516C3.8415 6.17024 4.04852 5.20694 4.56113 4.5014L3.34761 3.61972C2.54575 4.72338 2.34301 6.10036 2.27883 7.9738L3.77795 8.02516ZM3.02839 8.74948C3.91066 8.74948 4.4416 8.75113 4.89896 8.67869L4.66431 7.19716C4.35244 7.24655 3.96563 7.24948 3.02838 7.24948L3.02839 8.74948ZM12.9995 16.7495H15.9995V15.2495H12.9995V16.7495ZM7.99946 12.7495H15.9995V11.2495H7.99946V12.7495ZM12.9995 8.74948H15.9995V7.24948H12.9995V8.74948Z" fill="black"/>
</svg>
