<svg width="24" height="24" viewBox="0 0 24 24" fill="none" xmlns="http://www.w3.org/2000/svg">
<path d="M4.78226 7.93789L4.89959 8.67865L4.89959 8.67865L4.78226 7.93789ZM8.93853 3.78162L9.6793 3.89894L9.6793 3.89894L8.93853 3.78162ZM18.939 21.0445L18.4982 20.4378L18.939 21.0445ZM20.0452 19.9384L19.4384 19.4975L20.0452 19.9384ZM3.95501 19.9384L4.56177 19.4975L3.95501 19.9384ZM5.06116 21.0445L5.502 20.4378L5.06116 21.0445ZM5.06116 2.95436L4.62033 2.3476L5.06116 2.95436ZM3.95501 4.06052L3.34824 3.61968L3.95501 4.06052ZM18.939 2.95436L18.4982 3.56112L18.939 2.95436ZM20.0452 4.06052L19.4384 4.50136L20.0452 4.06052ZM9.00009 2.02838L8.97441 1.27882L9.00009 2.02838ZM3.02902 7.99944L2.27946 7.97376L3.02902 7.99944ZM12.7501 8.99944C12.7501 8.58523 12.4143 8.24944 12.0001 8.24944C11.5859 8.24944 11.2501 8.58523 11.2501 8.99944H12.7501ZM16.5328 14.3274C16.8244 14.0332 16.8222 13.5583 16.528 13.2668C16.2338 12.9752 15.759 12.9773 15.4674 13.2715L16.5328 14.3274ZM14.6022 15.2098L15.1349 15.7378L15.1349 15.7378L14.6022 15.2098ZM9.39794 15.2098L9.93063 14.6819L9.93063 14.6819L9.39794 15.2098ZM8.53278 13.2715C8.2412 12.9773 7.76633 12.9752 7.47213 13.2668C7.17793 13.5583 7.17581 14.0332 7.4674 14.3274L8.53278 13.2715ZM12.2508 16.9835L12.3456 17.7275L12.3456 17.7275L12.2508 16.9835ZM11.7494 16.9835L11.6546 17.7275L11.6546 17.7275L11.7494 16.9835ZM4.89959 8.67865C7.35997 8.28897 9.28961 6.35932 9.6793 3.89894L8.19776 3.66429C7.90974 5.48284 6.48348 6.90909 4.66494 7.19712L4.89959 8.67865ZM2.25009 10.9994V12.9994H3.75009V10.9994H2.25009ZM21.7501 12.9994V10.9994H20.2501V12.9994H21.7501ZM12.0001 22.7494C13.8582 22.7494 15.3121 22.7505 16.4636 22.6257C17.6291 22.4994 18.5735 22.2371 19.3799 21.6513L18.4982 20.4378C17.9902 20.8068 17.34 21.022 16.302 21.1344C15.2501 21.2484 13.8917 21.2494 12.0001 21.2494V22.7494ZM20.2501 12.9994C20.2501 14.891 20.2491 16.2494 20.1351 17.3014C20.0226 18.3393 19.8075 18.9895 19.4384 19.4975L20.6519 20.3792C21.2378 19.5729 21.5001 18.6285 21.6264 17.463C21.7511 16.3115 21.7501 14.8576 21.7501 12.9994H20.2501ZM19.3799 21.6513C19.868 21.2966 20.2973 20.8673 20.6519 20.3792L19.4384 19.4975C19.1763 19.8583 18.859 20.1756 18.4982 20.4378L19.3799 21.6513ZM2.25009 12.9994C2.25009 14.8576 2.24906 16.3115 2.37382 17.463C2.5001 18.6285 2.76241 19.5729 3.34824 20.3792L4.56177 19.4975C4.19268 18.9895 3.97754 18.3393 3.86509 17.3014C3.75112 16.2494 3.75009 14.891 3.75009 12.9994H2.25009ZM12.0001 21.2494C10.1085 21.2494 8.75008 21.2484 7.69813 21.1344C6.66022 21.022 6.01001 20.8068 5.502 20.4378L4.62033 21.6513C5.42665 22.2371 6.37103 22.4994 7.53657 22.6257C8.68807 22.7505 10.1419 22.7494 12.0001 22.7494V21.2494ZM3.34824 20.3792C3.7029 20.8673 4.13218 21.2966 4.62033 21.6513L5.502 20.4378C5.1412 20.1756 4.82391 19.8583 4.56177 19.4975L3.34824 20.3792ZM4.62033 2.3476C4.13218 2.70226 3.7029 3.13154 3.34824 3.61968L4.56177 4.50136C4.82391 4.14056 5.1412 3.82326 5.502 3.56112L4.62033 2.3476ZM12.0001 2.74945C13.8917 2.74945 15.2501 2.75048 16.302 2.86445C17.34 2.9769 17.9902 3.19204 18.4982 3.56112L19.3799 2.3476C18.5735 1.76177 17.6291 1.49945 16.4636 1.37317C15.3121 1.24842 13.8582 1.24945 12.0001 1.24945V2.74945ZM21.7501 10.9994C21.7501 9.14128 21.7511 7.68742 21.6264 6.53592C21.5001 5.37038 21.2378 4.426 20.6519 3.61968L19.4384 4.50136C19.8075 5.00936 20.0226 5.65958 20.1351 6.69749C20.2491 7.74944 20.2501 9.10787 20.2501 10.9994H21.7501ZM18.4982 3.56112C18.859 3.82326 19.1763 4.14056 19.4384 4.50136L20.6519 3.61968C20.2973 3.13154 19.868 2.70226 19.3799 2.3476L18.4982 3.56112ZM12.0001 1.24945C10.8353 1.24945 9.83433 1.24935 8.97441 1.27882L9.02577 2.77794C9.85454 2.74954 10.827 2.74945 12.0001 2.74945V1.24945ZM8.97441 1.27882C7.10096 1.343 5.72399 1.54574 4.62033 2.3476L5.502 3.56112C6.20755 3.04851 7.17084 2.84149 9.02577 2.77794L8.97441 1.27882ZM8.25009 2.02837C8.25008 2.96562 8.24716 3.35243 8.19776 3.66429L9.6793 3.89894C9.75173 3.44159 9.75008 2.91065 9.75009 2.02838L8.25009 2.02837ZM3.75009 10.9994C3.75009 9.82637 3.75019 8.85389 3.77858 8.02512L2.27946 7.97376C2.25 8.83369 2.25009 9.83467 2.25009 10.9994H3.75009ZM3.77858 8.02512C3.84213 6.1702 4.04916 5.20691 4.56177 4.50136L3.34824 3.61968C2.54639 4.72334 2.34365 6.10032 2.27946 7.97376L3.77858 8.02512ZM3.02903 8.74944C3.9113 8.74944 4.44224 8.75109 4.89959 8.67865L4.66494 7.19712C4.35307 7.24651 3.96627 7.24944 3.02901 7.24944L3.02903 8.74944ZM11.2501 8.99944V16.1994H12.7501V8.99944H11.2501ZM15.4674 13.2715L14.0695 14.6819L15.1349 15.7378L16.5328 14.3274L15.4674 13.2715ZM9.93063 14.6819L8.53278 13.2715L7.4674 14.3274L8.86524 15.7378L9.93063 14.6819ZM14.0695 14.6819C13.4998 15.2568 13.1162 15.6421 12.7936 15.9012C12.4828 16.1508 12.3021 16.2209 12.1559 16.2395L12.3456 17.7275C12.8788 17.6595 13.3164 17.4052 13.7328 17.0707C14.1374 16.7458 14.59 16.2876 15.1349 15.7378L14.0695 14.6819ZM8.86524 15.7378C9.41021 16.2876 9.86274 16.7458 10.2673 17.0707C10.6838 17.4052 11.1214 17.6595 11.6546 17.7275L11.8443 16.2395C11.6981 16.2209 11.5174 16.1508 11.2066 15.9012C10.884 15.6421 10.5004 15.2568 9.93063 14.6819L8.86524 15.7378ZM12.1559 16.2395C12.1042 16.2461 12.0521 16.2494 12.0001 16.2494L12.0001 17.7494C12.1155 17.7494 12.2309 17.7421 12.3456 17.7275L12.1559 16.2395ZM12.0001 16.2494C11.948 16.2494 11.896 16.2461 11.8442 16.2395L11.6546 17.7275C11.7693 17.7421 11.8847 17.7494 12.0001 17.7494L12.0001 16.2494ZM11.2501 16.1994V16.9994H12.7501V16.1994H11.2501Z" fill="black"/>
</svg>
