<svg width="24" height="24" viewBox="0 0 24 24" fill="none" xmlns="http://www.w3.org/2000/svg">
<path d="M19.2178 16.0611L19.1004 15.3203L19.1004 15.3203L19.2178 16.0611ZM15.0615 20.2173L14.3207 20.1L14.3207 20.1L15.0615 20.2173ZM5.06103 21.0446L5.50187 20.4378L5.06103 21.0446ZM3.95487 19.9384L4.56163 19.4976L3.95487 19.9384ZM20.045 19.9384L20.6518 20.3793L20.045 19.9384ZM18.9389 21.0446L18.498 20.4378L18.9389 21.0446ZM18.9389 2.95443L18.498 3.56119L18.9389 2.95443ZM20.045 4.06058L19.4383 4.50142L20.045 4.06058ZM5.06103 2.95443L5.50187 3.56119L5.06103 2.95443ZM3.95487 4.06058L4.56163 4.50142L3.95487 4.06058ZM20.971 15.9995L21.7206 16.0252L20.971 15.9995ZM15 21.9706L15.0256 22.7201L15 21.9706ZM12.9999 11.2495C12.5857 11.2495 12.25 11.5853 12.25 11.9995C12.25 12.4137 12.5857 12.7495 13 12.7495L12.9999 11.2495ZM15.9999 12.7495C16.4142 12.7495 16.7499 12.4137 16.7499 11.9995C16.7499 11.5853 16.4142 11.2495 15.9999 11.2495L15.9999 12.7495ZM7.99995 7.24951C7.58574 7.24951 7.24995 7.5853 7.24995 7.99951C7.24995 8.41372 7.58574 8.74951 7.99995 8.74951L7.99995 7.24951ZM15.9999 8.74951C16.4142 8.74951 16.7499 8.41372 16.7499 7.99951C16.7499 7.58529 16.4142 7.24951 15.9999 7.24951L15.9999 8.74951ZM19.1004 15.3203C16.6401 15.71 14.7104 17.6396 14.3207 20.1L15.8023 20.3347C16.0903 18.5161 17.5166 17.0899 19.3351 16.8018L19.1004 15.3203ZM20.2499 10.9995V12.9995H21.7499V10.9995H20.2499ZM3.74995 12.9995V10.9995H2.24995V12.9995H3.74995ZM12 21.2495C10.1084 21.2495 8.74994 21.2485 7.698 21.1345C6.66009 21.0221 6.00987 20.8069 5.50187 20.4378L4.62019 21.6514C5.42651 22.2372 6.37089 22.4995 7.53643 22.6258C8.68793 22.7505 10.1418 22.7495 12 22.7495V21.2495ZM2.24995 12.9995C2.24995 14.8577 2.24893 16.3115 2.37368 17.463C2.49996 18.6286 2.76228 19.5729 3.34811 20.3793L4.56163 19.4976C4.19254 18.9896 3.97741 18.3394 3.86495 17.3015C3.75098 16.2495 3.74995 14.8911 3.74995 12.9995H2.24995ZM5.50187 20.4378C5.14106 20.1757 4.82377 19.8584 4.56163 19.4976L3.34811 20.3793C3.70276 20.8674 4.13204 21.2967 4.62019 21.6514L5.50187 20.4378ZM19.4383 19.4976C19.1761 19.8584 18.8588 20.1757 18.498 20.4378L19.3797 21.6514C19.8679 21.2967 20.2971 20.8674 20.6518 20.3793L19.4383 19.4976ZM12 2.74951C13.8915 2.74951 15.25 2.75054 16.3019 2.86451C17.3398 2.97696 17.99 3.1921 18.498 3.56119L19.3797 2.34766C18.5734 1.76184 17.629 1.49952 16.4635 1.37324C15.312 1.24848 13.8581 1.24951 12 1.24951V2.74951ZM21.7499 10.9995C21.7499 9.14135 21.751 7.68749 21.6262 6.53599C21.4999 5.37045 21.2376 4.42607 20.6518 3.61975L19.4383 4.50142C19.8074 5.00943 20.0225 5.65964 20.1349 6.69755C20.2489 7.7495 20.2499 9.10794 20.2499 10.9995H21.7499ZM18.498 3.56119C18.8588 3.82333 19.1761 4.14062 19.4383 4.50142L20.6518 3.61975C20.2971 3.1316 19.8679 2.70232 19.3797 2.34766L18.498 3.56119ZM12 1.24951C10.1418 1.24951 8.68793 1.24848 7.53643 1.37324C6.37089 1.49952 5.42651 1.76184 4.62019 2.34766L5.50187 3.56119C6.00987 3.1921 6.66009 2.97696 7.698 2.86451C8.74994 2.75054 10.1084 2.74951 12 2.74951V1.24951ZM3.74995 10.9995C3.74995 9.10794 3.75098 7.7495 3.86495 6.69755C3.97741 5.65964 4.19254 5.00943 4.56163 4.50142L3.34811 3.61975C2.76228 4.42607 2.49996 5.37045 2.37368 6.53599C2.24893 7.68749 2.24995 9.14135 2.24995 10.9995H3.74995ZM4.62019 2.34766C4.13204 2.70232 3.70276 3.1316 3.34811 3.61975L4.56163 4.50142C4.82377 4.14062 5.14106 3.82333 5.50187 3.56119L4.62019 2.34766ZM20.2499 12.9995C20.2499 14.1726 20.2499 15.1451 20.2215 15.9738L21.7206 16.0252C21.75 15.1653 21.7499 14.1643 21.7499 12.9995H20.2499ZM20.2215 15.9738C20.1579 17.8288 19.9509 18.792 19.4383 19.4976L20.6518 20.3793C21.4537 19.2756 21.6564 17.8986 21.7206 16.0252L20.2215 15.9738ZM20.971 15.2495C20.0887 15.2495 19.5578 15.2479 19.1004 15.3203L19.3351 16.8018C19.647 16.7524 20.0338 16.7495 20.971 16.7495L20.971 15.2495ZM12 22.7495C13.1647 22.7495 14.1657 22.7496 15.0256 22.7201L14.9743 21.221C14.1455 21.2494 13.173 21.2495 12 21.2495V22.7495ZM15.0256 22.7201C16.8991 22.6559 18.2761 22.4532 19.3797 21.6514L18.498 20.4378C17.7925 20.9504 16.8292 21.1575 14.9743 21.221L15.0256 22.7201ZM15.75 21.9706C15.75 21.0333 15.7529 20.6465 15.8023 20.3347L14.3207 20.1C14.2483 20.5574 14.25 21.0883 14.25 21.9706L15.75 21.9706ZM13 12.7495L15.9999 12.7495L15.9999 11.2495L12.9999 11.2495L13 12.7495ZM7.99995 8.74951L15.9999 8.74951L15.9999 7.24951L7.99995 7.24951L7.99995 8.74951Z" fill="black"/>
</svg>
