<svg width="24" height="24" viewBox="0 0 24 24" fill="none" xmlns="http://www.w3.org/2000/svg">
<path d="M4.78162 15.0611L4.89895 14.3203L4.89895 14.3203L4.78162 15.0611ZM8.93789 19.2173L9.67866 19.1L9.67866 19.1L8.93789 19.2173ZM5.06052 20.0446L4.61968 20.6513L5.06052 20.0446ZM3.95437 18.9384L4.56113 18.4976L3.95437 18.9384ZM20.0445 18.9384L19.4378 18.4976L20.0445 18.9384ZM18.9384 20.0446L18.4975 19.4378L18.9384 20.0446ZM18.9384 3.95441L18.4975 4.56117L18.9384 3.95441ZM20.0445 5.06057L19.4378 5.50141L20.0445 5.06057ZM5.06052 3.95441L5.50136 4.56117L5.06052 3.95441ZM3.95437 5.06057L4.56113 5.50141L3.95437 5.06057ZM3.02838 14.9995L2.27882 15.0252L3.02838 14.9995ZM8.99945 20.9706L8.97377 21.7201L8.99945 20.9706ZM7.99945 11.2495C7.58524 11.2495 7.24945 11.5853 7.24945 11.9995C7.24945 12.4137 7.58524 12.7495 7.99945 12.7495L7.99945 11.2495ZM15.9994 12.7495C16.4137 12.7495 16.7494 12.4137 16.7494 11.9995C16.7494 11.5853 16.4137 11.2495 15.9994 11.2495L15.9994 12.7495ZM7.99945 7.2495C7.58524 7.2495 7.24945 7.58528 7.24945 7.9995C7.24945 8.41371 7.58524 8.7495 7.99945 8.7495L7.99945 7.2495ZM10.9994 8.7495C11.4137 8.7495 11.7494 8.41371 11.7494 7.9995C11.7494 7.58528 11.4137 7.2495 10.9994 7.2495L10.9994 8.7495ZM4.6643 15.8018C6.48284 16.0898 7.9091 17.5161 8.19712 19.3346L9.67866 19.1C9.28897 16.6396 7.35933 14.71 4.89895 14.3203L4.6643 15.8018ZM5.50136 19.4378C5.14056 19.1757 4.82327 18.8584 4.56113 18.4976L3.3476 19.3793C3.70226 19.8674 4.13154 20.2967 4.61968 20.6513L5.50136 19.4378ZM20.2494 11.9995C20.2494 13.8911 20.2484 15.2495 20.1344 16.3014C20.022 17.3394 19.8069 17.9896 19.4378 18.4976L20.6513 19.3793C21.2371 18.5729 21.4994 17.6286 21.6257 16.463C21.7505 15.3115 21.7494 13.8577 21.7494 11.9995H20.2494ZM11.9994 21.7495C13.8576 21.7495 15.3115 21.7505 16.463 21.6258C17.6285 21.4995 18.5729 21.2372 19.3792 20.6513L18.4975 19.4378C17.9895 19.8069 17.3393 20.022 16.3014 20.1345C15.2495 20.2485 13.891 20.2495 11.9994 20.2495V21.7495ZM19.4378 18.4976C19.1756 18.8584 18.8583 19.1757 18.4975 19.4378L19.3792 20.6513C19.8674 20.2967 20.2966 19.8674 20.6513 19.3793L19.4378 18.4976ZM11.9994 3.7495C13.891 3.7495 15.2495 3.75053 16.3014 3.8645C17.3393 3.97695 17.9895 4.19209 18.4975 4.56117L19.3792 3.34765C18.5729 2.76182 17.6285 2.4995 16.463 2.37322C15.3115 2.24847 13.8576 2.2495 11.9994 2.2495V3.7495ZM21.7494 11.9995C21.7494 10.1413 21.7505 8.68747 21.6257 7.53597C21.4994 6.37043 21.2371 5.42605 20.6513 4.61973L19.4378 5.50141C19.8069 6.00941 20.022 6.65963 20.1344 7.69754C20.2484 8.74949 20.2494 10.1079 20.2494 11.9995H21.7494ZM18.4975 4.56117C18.8583 4.82331 19.1756 5.14061 19.4378 5.50141L20.6513 4.61973C20.2966 4.13159 19.8674 3.70231 19.3792 3.34765L18.4975 4.56117ZM11.9994 2.2495C10.1413 2.2495 8.68742 2.24847 7.53592 2.37322C6.37039 2.4995 5.42601 2.76182 4.61968 3.34765L5.50136 4.56117C6.00937 4.19209 6.65958 3.97695 7.69749 3.8645C8.74944 3.75053 10.1079 3.7495 11.9994 3.7495V2.2495ZM3.74945 11.9995C3.74945 10.1079 3.75048 8.74949 3.86445 7.69754C3.9769 6.65963 4.19204 6.00941 4.56113 5.50141L3.3476 4.61973C2.76177 5.42605 2.49946 6.37043 2.37318 7.53597C2.24842 8.68747 2.24945 10.1413 2.24945 11.9995H3.74945ZM4.61968 3.34765C4.13154 3.70231 3.70226 4.13159 3.3476 4.61973L4.56113 5.50141C4.82327 5.14061 5.14056 4.82331 5.50136 4.56117L4.61968 3.34765ZM2.24945 11.9995C2.24945 13.1643 2.24936 14.1652 2.27882 15.0252L3.77794 14.9738C3.74954 14.145 3.74945 13.1726 3.74945 11.9995H2.24945ZM2.27882 15.0252C2.34301 16.8986 2.54575 18.2756 3.3476 19.3793L4.56113 18.4976C4.04852 17.792 3.84149 16.8287 3.77794 14.9738L2.27882 15.0252ZM3.02837 15.7495C3.96563 15.7495 4.35243 15.7524 4.6643 15.8018L4.89895 14.3203C4.4416 14.2478 3.91066 14.2495 3.02838 14.2495L3.02837 15.7495ZM11.9994 20.2495C10.8264 20.2495 9.8539 20.2494 9.02513 20.221L8.97377 21.7201C9.83369 21.7496 10.8347 21.7495 11.9994 21.7495V20.2495ZM9.02513 20.221C7.1702 20.1574 6.20691 19.9504 5.50136 19.4378L4.61968 20.6513C5.72335 21.4532 7.10032 21.6559 8.97377 21.7201L9.02513 20.221ZM9.74945 20.9706C9.74944 20.0883 9.75109 19.5573 9.67866 19.1L8.19712 19.3346C8.24652 19.6465 8.24944 20.0333 8.24945 20.9706L9.74945 20.9706ZM7.99945 12.7495L15.9994 12.7495L15.9994 11.2495L7.99945 11.2495L7.99945 12.7495ZM7.99945 8.7495L10.9994 8.7495L10.9994 7.2495L7.99945 7.2495L7.99945 8.7495Z" fill="black"/>
</svg>
