<svg width="24" height="24" viewBox="0 0 24 24" fill="none" xmlns="http://www.w3.org/2000/svg">
<path d="M5.06135 21.0446L5.50219 20.4379L5.06135 21.0446ZM3.95519 19.9385L4.56195 19.4976L3.95519 19.9385ZM20.0454 19.9385L19.4386 19.4976L20.0454 19.9385ZM18.9392 21.0446L18.4984 20.4379L18.9392 21.0446ZM18.9392 2.95446L18.4984 3.56122L18.9392 2.95446ZM20.0454 4.06062L19.4386 4.50145L20.0454 4.06062ZM5.06135 2.95446L5.50219 3.56122L5.06135 2.95446ZM3.95519 4.06062L4.56195 4.50145L3.95519 4.06062ZM8.00027 15.2495C7.58606 15.2495 7.25027 15.5853 7.25027 15.9995C7.25027 16.4137 7.58606 16.7495 8.00027 16.7495V15.2495ZM16.0003 16.7495C16.4145 16.7495 16.7503 16.4137 16.7503 15.9995C16.7503 15.5853 16.4145 15.2495 16.0003 15.2495V16.7495ZM10.0003 11.2495C9.58606 11.2495 9.25027 11.5853 9.25027 11.9995C9.25027 12.4138 9.58606 12.7495 10.0003 12.7495V11.2495ZM14.0003 12.7495C14.4145 12.7495 14.7503 12.4138 14.7503 11.9995C14.7503 11.5853 14.4145 11.2495 14.0003 11.2495V12.7495ZM8.00027 7.24954C7.58606 7.24954 7.25027 7.58533 7.25027 7.99954C7.25027 8.41375 7.58606 8.74954 8.00027 8.74954V7.24954ZM16.0003 8.74954C16.4145 8.74954 16.7503 8.41375 16.7503 7.99954C16.7503 7.58533 16.4145 7.24954 16.0003 7.24954V8.74954ZM20.2503 10.9995V12.9995H21.7503V10.9995H20.2503ZM3.75027 12.9995V10.9995H2.25027V12.9995H3.75027ZM12.0003 21.2495C10.1087 21.2495 8.75026 21.2485 7.69832 21.1345C6.66041 21.0221 6.01019 20.8069 5.50219 20.4379L4.62051 21.6514C5.42683 22.2372 6.37121 22.4995 7.53675 22.6258C8.68825 22.7506 10.1421 22.7495 12.0003 22.7495V21.2495ZM2.25027 12.9995C2.25027 14.8577 2.24925 16.3116 2.374 17.4631C2.50028 18.6286 2.7626 19.573 3.34843 20.3793L4.56195 19.4976C4.19287 18.9896 3.97773 18.3394 3.86528 17.3015C3.7513 16.2495 3.75027 14.8911 3.75027 12.9995H2.25027ZM5.50219 20.4379C5.14138 20.1757 4.82409 19.8584 4.56195 19.4976L3.34843 20.3793C3.70308 20.8674 4.13236 21.2967 4.62051 21.6514L5.50219 20.4379ZM20.2503 12.9995C20.2503 14.8911 20.2492 16.2495 20.1353 17.3015C20.0228 18.3394 19.8077 18.9896 19.4386 19.4976L20.6521 20.3793C21.2379 19.573 21.5003 18.6286 21.6265 17.4631C21.7513 16.3116 21.7503 14.8577 21.7503 12.9995H20.2503ZM12.0003 22.7495C13.8584 22.7495 15.3123 22.7506 16.4638 22.6258C17.6293 22.4995 18.5737 22.2372 19.38 21.6514L18.4984 20.4379C17.9904 20.8069 17.3401 21.0221 16.3022 21.1345C15.2503 21.2485 13.8918 21.2495 12.0003 21.2495V22.7495ZM19.4386 19.4976C19.1765 19.8584 18.8592 20.1757 18.4984 20.4379L19.38 21.6514C19.8682 21.2967 20.2975 20.8674 20.6521 20.3793L19.4386 19.4976ZM12.0003 2.74954C13.8918 2.74954 15.2503 2.75057 16.3022 2.86454C17.3401 2.97699 17.9904 3.19213 18.4984 3.56122L19.38 2.34769C18.5737 1.76187 17.6293 1.49955 16.4638 1.37327C15.3123 1.24851 13.8584 1.24954 12.0003 1.24954V2.74954ZM21.7503 10.9995C21.7503 9.14138 21.7513 7.68752 21.6265 6.53602C21.5003 5.37048 21.2379 4.4261 20.6521 3.61978L19.4386 4.50145C19.8077 5.00946 20.0228 5.65967 20.1353 6.69758C20.2492 7.74953 20.2503 9.10797 20.2503 10.9995H21.7503ZM18.4984 3.56122C18.8592 3.82336 19.1765 4.14065 19.4386 4.50145L20.6521 3.61978C20.2975 3.13163 19.8682 2.70235 19.38 2.34769L18.4984 3.56122ZM12.0003 1.24954C10.1421 1.24954 8.68825 1.24851 7.53675 1.37327C6.37121 1.49955 5.42683 1.76187 4.62051 2.34769L5.50219 3.56122C6.01019 3.19213 6.66041 2.97699 7.69832 2.86454C8.75026 2.75057 10.1087 2.74954 12.0003 2.74954V1.24954ZM3.75027 10.9995C3.75027 9.10797 3.7513 7.74953 3.86528 6.69758C3.97773 5.65967 4.19287 5.00946 4.56195 4.50145L3.34843 3.61978C2.7626 4.4261 2.50028 5.37048 2.374 6.53602C2.24925 7.68752 2.25027 9.14138 2.25027 10.9995H3.75027ZM4.62051 2.34769C4.13236 2.70235 3.70308 3.13163 3.34843 3.61978L4.56195 4.50145C4.82409 4.14065 5.14138 3.82336 5.50219 3.56122L4.62051 2.34769ZM8.00027 16.7495H16.0003V15.2495H8.00027V16.7495ZM10.0003 12.7495H14.0003V11.2495H10.0003V12.7495ZM8.00027 8.74954H16.0003V7.24954H8.00027V8.74954Z" fill="black"/>
</svg>
