<svg width="24" height="24" viewBox="0 0 24 24" fill="none" xmlns="http://www.w3.org/2000/svg">
<path d="M4.78163 16.061L4.89896 15.3202L4.89896 15.3202L4.78163 16.061ZM8.9379 20.2172L9.67866 20.0999L9.67866 20.0999L8.9379 20.2172ZM5.06053 21.0445L4.61969 21.6512L5.06053 21.0445ZM3.95437 19.9383L3.34761 20.3792L3.95437 19.9383ZM20.0445 19.9383L19.4378 19.4975L20.0445 19.9383ZM18.9384 21.0445L18.4975 20.4377L18.9384 21.0445ZM18.9384 2.95432L18.4975 3.56108L18.9384 2.95432ZM20.0445 4.06048L19.4378 4.50132L20.0445 4.06048ZM5.06053 2.95432L5.50137 3.56108L5.06053 2.95432ZM3.95437 4.06048L4.56114 4.50132L3.95437 4.06048ZM3.02839 15.9994L2.27883 16.0251L3.02839 15.9994ZM8.99946 21.9705L8.97377 22.72L8.99946 21.9705ZM12.9995 11.2494C12.5852 11.2494 12.2495 11.5852 12.2495 11.9994C12.2495 12.4136 12.5852 12.7494 12.9995 12.7494V11.2494ZM15.9995 12.7494C16.4137 12.7494 16.7495 12.4136 16.7495 11.9994C16.7495 11.5852 16.4137 11.2494 15.9995 11.2494V12.7494ZM7.99946 7.2494C7.58524 7.2494 7.24946 7.58519 7.24946 7.9994C7.24946 8.41362 7.58524 8.7494 7.99946 8.7494L7.99946 7.2494ZM15.9995 8.7494C16.4137 8.7494 16.7495 8.41362 16.7495 7.9994C16.7495 7.58519 16.4137 7.2494 15.9995 7.2494L15.9995 8.7494ZM4.6643 16.8017C6.48285 17.0898 7.9091 18.516 8.19713 20.3345L9.67866 20.0999C9.28898 17.6395 7.35934 15.7099 4.89896 15.3202L4.6643 16.8017ZM20.2495 10.9994V12.9994H21.7495V10.9994H20.2495ZM3.74946 12.9994V10.9994H2.24946V12.9994H3.74946ZM5.50137 20.4377C5.14057 20.1756 4.82327 19.8583 4.56114 19.4975L3.34761 20.3792C3.70227 20.8673 4.13155 21.2966 4.61969 21.6512L5.50137 20.4377ZM20.2495 12.9994C20.2495 14.891 20.2484 16.2494 20.1345 17.3014C20.022 18.3393 19.8069 18.9895 19.4378 19.4975L20.6513 20.3792C21.2371 19.5728 21.4994 18.6285 21.6257 17.4629C21.7505 16.3114 21.7495 14.8576 21.7495 12.9994H20.2495ZM11.9995 22.7494C13.8576 22.7494 15.3115 22.7504 16.463 22.6257C17.6285 22.4994 18.5729 22.2371 19.3792 21.6512L18.4975 20.4377C17.9895 20.8068 17.3393 21.0219 16.3014 21.1344C15.2495 21.2484 13.891 21.2494 11.9995 21.2494V22.7494ZM19.4378 19.4975C19.1756 19.8583 18.8583 20.1756 18.4975 20.4377L19.3792 21.6512C19.8674 21.2966 20.2966 20.8673 20.6513 20.3792L19.4378 19.4975ZM11.9995 2.7494C13.891 2.7494 15.2495 2.75043 16.3014 2.86441C17.3393 2.97686 17.9895 3.192 18.4975 3.56108L19.3792 2.34756C18.5729 1.76173 17.6285 1.49941 16.463 1.37313C15.3115 1.24838 13.8576 1.24941 11.9995 1.24941V2.7494ZM21.7495 10.9994C21.7495 9.14124 21.7505 7.68738 21.6257 6.53588C21.4994 5.37034 21.2371 4.42596 20.6513 3.61964L19.4378 4.50132C19.8069 5.00932 20.022 5.65954 20.1345 6.69745C20.2484 7.74939 20.2495 9.10783 20.2495 10.9994H21.7495ZM18.4975 3.56108C18.8583 3.82322 19.1756 4.14051 19.4378 4.50132L20.6513 3.61964C20.2966 3.13149 19.8674 2.70221 19.3792 2.34756L18.4975 3.56108ZM11.9995 1.24941C10.1413 1.24941 8.68743 1.24838 7.53593 1.37313C6.3704 1.49941 5.42602 1.76173 4.61969 2.34756L5.50137 3.56108C6.00937 3.192 6.65959 2.97686 7.6975 2.86441C8.74945 2.75043 10.1079 2.7494 11.9995 2.7494V1.24941ZM3.74946 10.9994C3.74946 9.10783 3.75049 7.74939 3.86446 6.69745C3.97691 5.65954 4.19205 5.00932 4.56114 4.50132L3.34761 3.61964C2.76178 4.42596 2.49946 5.37034 2.37319 6.53588C2.24843 7.68738 2.24946 9.14124 2.24946 10.9994H3.74946ZM4.61969 2.34756C4.13155 2.70221 3.70227 3.13149 3.34761 3.61964L4.56114 4.50132C4.82327 4.14051 5.14057 3.82322 5.50137 3.56108L4.61969 2.34756ZM2.24946 12.9994C2.24946 14.1642 2.24936 15.1652 2.27883 16.0251L3.77795 15.9737C3.74955 15.145 3.74946 14.1725 3.74946 12.9994H2.24946ZM2.27883 16.0251C2.34301 17.8985 2.54575 19.2755 3.34761 20.3792L4.56114 19.4975C4.04852 18.7919 3.8415 17.8286 3.77795 15.9737L2.27883 16.0251ZM3.02838 16.7494C3.96563 16.7494 4.35244 16.7523 4.6643 16.8017L4.89896 15.3202C4.4416 15.2478 3.91066 15.2494 3.02839 15.2494L3.02838 16.7494ZM11.9995 21.2494C10.8264 21.2494 9.8539 21.2493 9.02514 21.2209L8.97377 22.72C9.8337 22.7495 10.8347 22.7494 11.9995 22.7494V21.2494ZM9.02514 21.2209C7.17021 21.1574 6.20692 20.9503 5.50137 20.4377L4.61969 21.6512C5.72335 22.4531 7.10033 22.6558 8.97377 22.72L9.02514 21.2209ZM9.74946 21.9705C9.74945 21.0882 9.7511 20.5572 9.67866 20.0999L8.19713 20.3345C8.24653 20.6464 8.24945 21.0332 8.24946 21.9705L9.74946 21.9705ZM12.9995 12.7494H15.9995V11.2494H12.9995V12.7494ZM7.99946 8.7494L15.9995 8.7494L15.9995 7.2494L7.99946 7.2494L7.99946 8.7494Z" fill="black"/>
</svg>
