<svg width="24" height="24" viewBox="0 0 24 24" fill="none" xmlns="http://www.w3.org/2000/svg">
<path d="M5.06103 21.0446L5.50187 20.4379L5.06103 21.0446ZM3.95487 19.9385L4.56163 19.4976L3.95487 19.9385ZM20.045 19.9385L19.4383 19.4976L20.045 19.9385ZM18.9389 21.0446L18.498 20.4379L18.9389 21.0446ZM18.9389 2.95446L18.498 3.56122L18.9389 2.95446ZM20.045 4.06062L19.4383 4.50145L20.045 4.06062ZM5.06103 2.95446L5.50187 3.56122L5.06103 2.95446ZM3.95487 4.06062L4.56163 4.50145L3.95487 4.06062ZM7.99995 15.2495C7.58574 15.2495 7.24995 15.5853 7.24995 15.9995C7.24995 16.4137 7.58574 16.7495 7.99995 16.7495V15.2495ZM15.9999 16.7495C16.4142 16.7495 16.7499 16.4137 16.7499 15.9995C16.7499 15.5853 16.4142 15.2495 15.9999 15.2495V16.7495ZM7.99995 11.2495C7.58574 11.2495 7.24995 11.5853 7.24995 11.9995C7.24995 12.4138 7.58574 12.7495 7.99995 12.7495V11.2495ZM15.9999 12.7495C16.4142 12.7495 16.7499 12.4138 16.7499 11.9995C16.7499 11.5853 16.4142 11.2495 15.9999 11.2495V12.7495ZM13 7.24954C12.5857 7.24954 12.25 7.58533 12.25 7.99954C12.25 8.41375 12.5857 8.74954 13 8.74954V7.24954ZM15.9999 8.74954C16.4142 8.74954 16.7499 8.41375 16.7499 7.99954C16.7499 7.58533 16.4142 7.24954 15.9999 7.24954V8.74954ZM20.2499 10.9995V12.9995H21.7499V10.9995H20.2499ZM3.74995 12.9995V10.9995H2.24995V12.9995H3.74995ZM12 21.2495C10.1084 21.2495 8.74994 21.2485 7.698 21.1345C6.66009 21.0221 6.00987 20.8069 5.50187 20.4379L4.62019 21.6514C5.42651 22.2372 6.37089 22.4995 7.53643 22.6258C8.68793 22.7506 10.1418 22.7495 12 22.7495V21.2495ZM2.24995 12.9995C2.24995 14.8577 2.24893 16.3116 2.37368 17.4631C2.49996 18.6286 2.76228 19.573 3.34811 20.3793L4.56163 19.4976C4.19254 18.9896 3.97741 18.3394 3.86495 17.3015C3.75098 16.2495 3.74995 14.8911 3.74995 12.9995H2.24995ZM5.50187 20.4379C5.14106 20.1757 4.82377 19.8584 4.56163 19.4976L3.34811 20.3793C3.70276 20.8674 4.13204 21.2967 4.62019 21.6514L5.50187 20.4379ZM20.2499 12.9995C20.2499 14.8911 20.2489 16.2495 20.1349 17.3015C20.0225 18.3394 19.8074 18.9896 19.4383 19.4976L20.6518 20.3793C21.2376 19.573 21.4999 18.6286 21.6262 17.4631C21.751 16.3116 21.7499 14.8577 21.7499 12.9995H20.2499ZM12 22.7495C13.8581 22.7495 15.312 22.7506 16.4635 22.6258C17.629 22.4995 18.5734 22.2372 19.3797 21.6514L18.498 20.4379C17.99 20.8069 17.3398 21.0221 16.3019 21.1345C15.25 21.2485 13.8915 21.2495 12 21.2495V22.7495ZM19.4383 19.4976C19.1761 19.8584 18.8588 20.1757 18.498 20.4379L19.3797 21.6514C19.8679 21.2967 20.2971 20.8674 20.6518 20.3793L19.4383 19.4976ZM12 2.74954C13.8915 2.74954 15.25 2.75057 16.3019 2.86454C17.3398 2.97699 17.99 3.19213 18.498 3.56122L19.3797 2.34769C18.5734 1.76187 17.629 1.49955 16.4635 1.37327C15.312 1.24851 13.8581 1.24954 12 1.24954V2.74954ZM21.7499 10.9995C21.7499 9.14138 21.751 7.68752 21.6262 6.53602C21.4999 5.37048 21.2376 4.4261 20.6518 3.61978L19.4383 4.50145C19.8074 5.00946 20.0225 5.65967 20.1349 6.69758C20.2489 7.74953 20.2499 9.10797 20.2499 10.9995H21.7499ZM18.498 3.56122C18.8588 3.82336 19.1761 4.14065 19.4383 4.50145L20.6518 3.61978C20.2971 3.13163 19.8679 2.70235 19.3797 2.34769L18.498 3.56122ZM12 1.24954C10.1418 1.24954 8.68793 1.24851 7.53643 1.37327C6.37089 1.49955 5.42651 1.76187 4.62019 2.34769L5.50187 3.56122C6.00987 3.19213 6.66009 2.97699 7.698 2.86454C8.74994 2.75057 10.1084 2.74954 12 2.74954V1.24954ZM3.74995 10.9995C3.74995 9.10797 3.75098 7.74953 3.86495 6.69758C3.97741 5.65967 4.19254 5.00946 4.56163 4.50145L3.34811 3.61978C2.76228 4.4261 2.49996 5.37048 2.37368 6.53602C2.24893 7.68752 2.24995 9.14138 2.24995 10.9995H3.74995ZM4.62019 2.34769C4.13204 2.70235 3.70276 3.13163 3.34811 3.61978L4.56163 4.50145C4.82377 4.14065 5.14106 3.82336 5.50187 3.56122L4.62019 2.34769ZM7.99995 16.7495H15.9999V15.2495H7.99995V16.7495ZM7.99995 12.7495H15.9999V11.2495H7.99995V12.7495ZM13 8.74954H15.9999V7.24954H13V8.74954Z" fill="black"/>
</svg>
