<svg width="24" height="24" viewBox="0 0 24 24" fill="none" xmlns="http://www.w3.org/2000/svg">
<path d="M4.78187 8.9379L4.8992 9.67866L4.8992 9.67866L4.78187 8.9379ZM8.93814 4.78163L9.67891 4.89896L9.67891 4.89896L8.93814 4.78163ZM18.9386 20.0445L18.4978 19.4378L18.9386 20.0445ZM20.0448 18.9384L19.438 18.4975L20.0448 18.9384ZM3.95462 18.9384L4.56138 18.4975L3.95462 18.9384ZM5.06078 20.0445L5.50161 19.4378L5.06078 20.0445ZM5.06078 3.95437L4.61994 3.34761L5.06078 3.95437ZM3.95462 5.06053L3.34785 4.61969L3.95462 5.06053ZM18.9386 3.95437L18.4978 4.56114L18.9386 3.95437ZM20.0448 5.06053L19.438 5.50137L20.0448 5.06053ZM8.9997 3.02839L8.97402 2.27883L8.9997 3.02839ZM3.02863 8.99946L2.27907 8.97377L3.02863 8.99946ZM12.2497 16.9995C12.2497 17.4137 12.5855 17.7495 12.9997 17.7495C13.4139 17.7495 13.7497 17.4137 13.7497 16.9995H12.2497ZM8.46701 11.6715C8.17543 11.9657 8.17754 12.4406 8.47174 12.7321C8.76594 13.0237 9.24081 13.0216 9.53239 12.7274L8.46701 11.6715ZM10.3975 10.7891L10.9302 11.317L10.9302 11.317L10.3975 10.7891ZM15.6019 10.7891L15.0692 11.317L15.0692 11.317L15.6019 10.7891ZM16.467 12.7274C16.7586 13.0216 17.2335 13.0237 17.5277 12.7321C17.8219 12.4406 17.824 11.9657 17.5324 11.6715L16.467 12.7274ZM12.749 9.01537L12.6542 8.27139L12.6542 8.27139L12.749 9.01537ZM13.2504 9.01537L13.3452 8.27139L13.3452 8.27139L13.2504 9.01537ZM12.9997 8.99946L12.9997 8.24946L12.9997 8.99946ZM4.8992 9.67866C7.35958 9.28898 9.28922 7.35934 9.67891 4.89896L8.19738 4.6643C7.90935 6.48285 6.48309 7.9091 4.66455 8.19713L4.8992 9.67866ZM11.9997 21.7495C13.8579 21.7495 15.3117 21.7505 16.4632 21.6257C17.6288 21.4994 18.5731 21.2371 19.3795 20.6513L18.4978 19.4378C17.9898 19.8069 17.3396 20.022 16.3017 20.1345C15.2497 20.2484 13.8913 20.2495 11.9997 20.2495V21.7495ZM20.2497 11.9995C20.2497 13.891 20.2487 15.2495 20.1347 16.3014C20.0222 17.3393 19.8071 17.9895 19.438 18.4975L20.6515 19.3792C21.2374 18.5729 21.4997 17.6285 21.626 16.463C21.7507 15.3115 21.7497 13.8576 21.7497 11.9995H20.2497ZM19.3795 20.6513C19.8676 20.2966 20.2969 19.8674 20.6515 19.3792L19.438 18.4975C19.1759 18.8583 18.8586 19.1756 18.4978 19.4378L19.3795 20.6513ZM2.2497 11.9995C2.2497 13.8576 2.24867 15.3115 2.37343 16.463C2.49971 17.6285 2.76203 18.5729 3.34785 19.3792L4.56138 18.4975C4.19229 17.9895 3.97715 17.3393 3.8647 16.3014C3.75073 15.2495 3.7497 13.891 3.7497 11.9995H2.2497ZM11.9997 20.2495C10.1081 20.2495 8.74969 20.2484 7.69775 20.1345C6.65983 20.022 6.00962 19.8069 5.50161 19.4378L4.61994 20.6513C5.42626 21.2371 6.37064 21.4994 7.53618 21.6257C8.68768 21.7505 10.1415 21.7495 11.9997 21.7495V20.2495ZM3.34785 19.3792C3.70251 19.8674 4.13179 20.2966 4.61994 20.6513L5.50161 19.4378C5.14081 19.1756 4.82352 18.8583 4.56138 18.4975L3.34785 19.3792ZM4.61994 3.34761C4.13179 3.70227 3.70251 4.13155 3.34785 4.61969L4.56138 5.50137C4.82352 5.14057 5.14081 4.82327 5.50161 4.56114L4.61994 3.34761ZM11.9997 3.74946C13.8913 3.74946 15.2497 3.75049 16.3017 3.86446C17.3396 3.97691 17.9898 4.19205 18.4978 4.56114L19.3795 3.34761C18.5731 2.76178 17.6288 2.49946 16.4632 2.37319C15.3117 2.24843 13.8579 2.24946 11.9997 2.24946V3.74946ZM21.7497 11.9995C21.7497 10.1413 21.7507 8.68743 21.626 7.53593C21.4997 6.3704 21.2374 5.42602 20.6515 4.61969L19.438 5.50137C19.8071 6.00937 20.0222 6.65959 20.1347 7.6975C20.2487 8.74945 20.2497 10.1079 20.2497 11.9995H21.7497ZM18.4978 4.56114C18.8586 4.82327 19.1759 5.14057 19.438 5.50137L20.6515 4.61969C20.2969 4.13155 19.8676 3.70227 19.3795 3.34761L18.4978 4.56114ZM11.9997 2.24946C10.8349 2.24946 9.83394 2.24936 8.97402 2.27883L9.02538 3.77795C9.85415 3.74955 10.8266 3.74946 11.9997 3.74946V2.24946ZM8.97402 2.27883C7.10058 2.34301 5.7236 2.54575 4.61994 3.34761L5.50161 4.56114C6.20716 4.04852 7.17046 3.8415 9.02538 3.77795L8.97402 2.27883ZM8.2497 3.02838C8.24969 3.96563 8.24677 4.35244 8.19738 4.6643L9.67891 4.89896C9.75134 4.4416 9.74969 3.91066 9.7497 3.02839L8.2497 3.02838ZM3.7497 11.9995C3.7497 10.8264 3.7498 9.8539 3.77819 9.02514L2.27907 8.97377C2.24961 9.8337 2.2497 10.8347 2.2497 11.9995H3.7497ZM3.77819 9.02514C3.84174 7.17021 4.04877 6.20692 4.56138 5.50137L3.34785 4.61969C2.546 5.72335 2.34326 7.10033 2.27907 8.97377L3.77819 9.02514ZM3.02864 9.74946C3.91091 9.74945 4.44185 9.7511 4.8992 9.67866L4.66455 8.19713C4.35268 8.24653 3.96588 8.24945 3.02863 8.24946L3.02864 9.74946ZM13.7497 16.9995V9.79946H12.2497V16.9995H13.7497ZM9.53239 12.7274L10.9302 11.317L9.86486 10.2611L8.46701 11.6715L9.53239 12.7274ZM15.0692 11.317L16.467 12.7274L17.5324 11.6715L16.1345 10.2611L15.0692 11.317ZM10.9302 11.317C11.5 10.7421 11.8836 10.3568 12.2062 10.0977C12.517 9.84809 12.6977 9.77798 12.8439 9.75935L12.6542 8.27139C12.121 8.33935 11.6834 8.59372 11.2669 8.92815C10.8624 9.25307 10.4098 9.71127 9.86486 10.2611L10.9302 11.317ZM16.1345 10.2611C15.5896 9.71127 15.137 9.25307 14.7325 8.92815C14.316 8.59372 13.8784 8.33935 13.3452 8.27139L13.1555 9.75935C13.3017 9.77798 13.4824 9.84809 13.7932 10.0977C14.1158 10.3568 14.4994 10.7421 15.0692 11.317L16.1345 10.2611ZM12.8439 9.75935C12.8956 9.75275 12.9477 9.74946 12.9997 9.74946L12.9997 8.24946C12.8843 8.24946 12.7689 8.25677 12.6542 8.27139L12.8439 9.75935ZM12.9997 9.74946C13.0517 9.74946 13.1038 9.75275 13.1555 9.75935L13.3452 8.27139C13.2305 8.25677 13.1151 8.24946 12.9997 8.24946L12.9997 9.74946ZM13.7497 9.79946V8.99946H12.2497V9.79946H13.7497Z" fill="black"/>
</svg>
