<svg width="24" height="24" viewBox="0 0 24 24" fill="none" xmlns="http://www.w3.org/2000/svg">
<path d="M19.2174 8.9379L19.1001 9.67866L19.1001 9.67866L19.2174 8.9379ZM15.0611 4.78163L14.3204 4.89896L14.3204 4.89896L15.0611 4.78163ZM5.06066 20.0445L5.5015 19.4378L5.06066 20.0445ZM3.9545 18.9384L4.56127 18.4975L3.9545 18.9384ZM20.0447 18.9384L19.4379 18.4975L20.0447 18.9384ZM18.9385 20.0445L18.4977 19.4378L18.9385 20.0445ZM18.9385 3.95437L19.3793 3.34761L18.9385 3.95437ZM20.0447 5.06053L20.6514 4.61969L20.0447 5.06053ZM5.06066 3.95437L5.5015 4.56114L5.06066 3.95437ZM3.9545 5.06053L4.56127 5.50137L3.9545 5.06053ZM14.9996 3.02839L15.0253 2.27883L14.9996 3.02839ZM20.9707 8.99946L21.7202 8.97377L20.9707 8.99946ZM7.99959 13.2495C7.58537 13.2495 7.24959 13.5852 7.24959 13.9995C7.24959 14.4137 7.58537 14.7495 7.99959 14.7495V13.2495ZM15.9996 14.7495C16.4138 14.7495 16.7496 14.4137 16.7496 13.9995C16.7496 13.5852 16.4138 13.2495 15.9996 13.2495V14.7495ZM7.99959 9.24946C7.58537 9.24946 7.24959 9.58524 7.24959 9.99946C7.24959 10.4137 7.58537 10.7495 7.99959 10.7495V9.24946ZM10.9996 10.7495C11.4138 10.7495 11.7496 10.4137 11.7496 9.99946C11.7496 9.58524 11.4138 9.24946 10.9996 9.24946V10.7495ZM19.3347 8.19713C17.5162 7.9091 16.0899 6.48285 15.8019 4.6643L14.3204 4.89896C14.7101 7.35934 16.6397 9.28898 19.1001 9.67866L19.3347 8.19713ZM11.9996 20.2495C10.108 20.2495 8.74958 20.2484 7.69763 20.1345C6.65972 20.022 6.0095 19.8069 5.5015 19.4378L4.61982 20.6513C5.42615 21.2371 6.37053 21.4994 7.53606 21.6257C8.68756 21.7505 10.1414 21.7495 11.9996 21.7495V20.2495ZM2.24959 11.9995C2.24959 13.8576 2.24856 15.3115 2.37332 16.463C2.49959 17.6285 2.76191 18.5729 3.34774 19.3792L4.56127 18.4975C4.19218 17.9895 3.97704 17.3393 3.86459 16.3014C3.75062 15.2495 3.74959 13.891 3.74959 11.9995H2.24959ZM5.5015 19.4378C5.1407 19.1756 4.8234 18.8583 4.56127 18.4975L3.34774 19.3792C3.7024 19.8674 4.13168 20.2966 4.61982 20.6513L5.5015 19.4378ZM20.2496 11.9995C20.2496 13.891 20.2486 15.2495 20.1346 16.3014C20.0221 17.3393 19.807 17.9895 19.4379 18.4975L20.6514 19.3792C21.2373 18.5729 21.4996 17.6285 21.6259 16.463C21.7506 15.3115 21.7496 13.8576 21.7496 11.9995H20.2496ZM11.9996 21.7495C13.8577 21.7495 15.3116 21.7505 16.4631 21.6257C17.6286 21.4994 18.573 21.2371 19.3793 20.6513L18.4977 19.4378C17.9897 19.8069 17.3394 20.022 16.3015 20.1345C15.2496 20.2484 13.8912 20.2495 11.9996 20.2495V21.7495ZM19.4379 18.4975C19.1758 18.8583 18.8585 19.1756 18.4977 19.4378L19.3793 20.6513C19.8675 20.2966 20.2968 19.8674 20.6514 19.3792L19.4379 18.4975ZM18.4977 4.56114C18.8585 4.82327 19.1758 5.14057 19.4379 5.50137L20.6514 4.61969C20.2968 4.13155 19.8675 3.70227 19.3793 3.34761L18.4977 4.56114ZM11.9996 2.24946C10.1414 2.24946 8.68756 2.24843 7.53606 2.37319C6.37053 2.49946 5.42615 2.76178 4.61982 3.34761L5.5015 4.56114C6.0095 4.19205 6.65972 3.97691 7.69763 3.86446C8.74958 3.75049 10.108 3.74946 11.9996 3.74946V2.24946ZM3.74959 11.9995C3.74959 10.1079 3.75062 8.74945 3.86459 7.6975C3.97704 6.65959 4.19218 6.00937 4.56127 5.50137L3.34774 4.61969C2.76191 5.42602 2.49959 6.3704 2.37332 7.53593C2.24856 8.68743 2.24959 10.1413 2.24959 11.9995H3.74959ZM4.61982 3.34761C4.13168 3.70227 3.7024 4.13155 3.34774 4.61969L4.56127 5.50137C4.8234 5.14057 5.1407 4.82327 5.5015 4.56114L4.61982 3.34761ZM11.9996 3.74946C13.1727 3.74946 14.1451 3.74955 14.9739 3.77795L15.0253 2.27883C14.1653 2.24936 13.1644 2.24946 11.9996 2.24946V3.74946ZM14.9739 3.77795C16.8288 3.8415 17.7921 4.04852 18.4977 4.56114L19.3793 3.34761C18.2757 2.54575 16.8987 2.34301 15.0253 2.27883L14.9739 3.77795ZM14.2496 3.02839C14.2496 3.91066 14.2479 4.4416 14.3204 4.89896L15.8019 4.6643C15.7525 4.35244 15.7496 3.96563 15.7496 3.02838L14.2496 3.02839ZM21.7496 11.9995C21.7496 10.8347 21.7497 9.8337 21.7202 8.97377L20.2211 9.02514C20.2495 9.8539 20.2496 10.8264 20.2496 11.9995H21.7496ZM21.7202 8.97377C21.656 7.10033 21.4533 5.72335 20.6514 4.61969L19.4379 5.50137C19.9505 6.20692 20.1575 7.17021 20.2211 9.02514L21.7202 8.97377ZM20.9707 8.24946C20.0334 8.24945 19.6466 8.24653 19.3347 8.19713L19.1001 9.67866C19.5574 9.7511 20.0884 9.74945 20.9706 9.74946L20.9707 8.24946ZM7.99959 14.7495H15.9996V13.2495H7.99959V14.7495ZM7.99959 10.7495H10.9996V9.24946H7.99959V10.7495Z" fill="black"/>
</svg>
