<svg width="24" height="24" viewBox="0 0 24 24" fill="none" xmlns="http://www.w3.org/2000/svg">
<path d="M19.2175 15.0611L19.1002 14.3203L19.1002 14.3203L19.2175 15.0611ZM15.0613 19.2173L14.3205 19.1L14.3205 19.1L15.0613 19.2173ZM5.06078 20.0446L5.50161 19.4378L5.06078 20.0446ZM3.95462 18.9384L4.56138 18.4976L3.95462 18.9384ZM20.0448 18.9384L20.6515 19.3793L20.0448 18.9384ZM18.9386 20.0446L19.3795 20.6513L18.9386 20.0446ZM18.9386 3.95441L18.4978 4.56117L18.9386 3.95441ZM20.0448 5.06057L19.438 5.50141L20.0448 5.06057ZM5.06078 3.95441L5.50161 4.56117L5.06078 3.95441ZM3.95462 5.06057L4.56138 5.50141L3.95462 5.06057ZM20.9708 14.9995L21.7203 15.0252L20.9708 14.9995ZM14.9997 20.9706L15.0254 21.7201L14.9997 20.9706ZM12.9997 11.2495C12.5855 11.2495 12.2497 11.5853 12.2497 11.9995C12.2497 12.4137 12.5855 12.7495 12.9997 12.7495L12.9997 11.2495ZM15.9997 12.7495C16.4139 12.7495 16.7497 12.4137 16.7497 11.9995C16.7497 11.5853 16.4139 11.2495 15.9997 11.2495L15.9997 12.7495ZM7.9997 7.24949C7.58549 7.24949 7.2497 7.58528 7.2497 7.99949C7.2497 8.41371 7.58549 8.74949 7.9997 8.74949L7.9997 7.24949ZM15.9997 8.74949C16.4139 8.74949 16.7497 8.41371 16.7497 7.99949C16.7497 7.58528 16.4139 7.24949 15.9997 7.24949L15.9997 8.74949ZM19.1002 14.3203C16.6398 14.71 14.7102 16.6396 14.3205 19.1L15.802 19.3346C16.0901 17.5161 17.5163 16.0898 19.3348 15.8018L19.1002 14.3203ZM11.9997 20.2495C10.1081 20.2495 8.74969 20.2485 7.69775 20.1345C6.65983 20.022 6.00962 19.8069 5.50161 19.4378L4.61994 20.6513C5.42626 21.2372 6.37064 21.4995 7.53618 21.6258C8.68768 21.7505 10.1415 21.7495 11.9997 21.7495V20.2495ZM2.2497 11.9995C2.2497 13.8577 2.24867 15.3115 2.37343 16.463C2.49971 17.6286 2.76203 18.5729 3.34785 19.3793L4.56138 18.4976C4.19229 17.9896 3.97715 17.3394 3.8647 16.3014C3.75073 15.2495 3.7497 13.8911 3.7497 11.9995H2.2497ZM5.50161 19.4378C5.14081 19.1757 4.82352 18.8584 4.56138 18.4976L3.34785 19.3793C3.70251 19.8674 4.13179 20.2967 4.61994 20.6513L5.50161 19.4378ZM19.438 18.4976C19.1759 18.8584 18.8586 19.1757 18.4978 19.4378L19.3795 20.6513C19.8676 20.2967 20.2969 19.8674 20.6515 19.3793L19.438 18.4976ZM11.9997 3.7495C13.8913 3.7495 15.2497 3.75053 16.3017 3.8645C17.3396 3.97695 17.9898 4.19209 18.4978 4.56117L19.3795 3.34765C18.5731 2.76182 17.6288 2.4995 16.4632 2.37322C15.3117 2.24847 13.8579 2.2495 11.9997 2.2495V3.7495ZM21.7497 11.9995C21.7497 10.1413 21.7507 8.68747 21.626 7.53597C21.4997 6.37043 21.2374 5.42605 20.6515 4.61973L19.438 5.50141C19.8071 6.00941 20.0222 6.65963 20.1347 7.69754C20.2487 8.74949 20.2497 10.1079 20.2497 11.9995H21.7497ZM18.4978 4.56117C18.8586 4.82331 19.1759 5.14061 19.438 5.50141L20.6515 4.61973C20.2969 4.13159 19.8676 3.70231 19.3795 3.34765L18.4978 4.56117ZM11.9997 2.2495C10.1415 2.2495 8.68768 2.24847 7.53618 2.37322C6.37064 2.4995 5.42626 2.76182 4.61994 3.34765L5.50161 4.56117C6.00962 4.19209 6.65983 3.97695 7.69775 3.8645C8.74969 3.75053 10.1081 3.7495 11.9997 3.7495V2.2495ZM3.7497 11.9995C3.7497 10.1079 3.75073 8.74949 3.8647 7.69754C3.97715 6.65963 4.19229 6.00941 4.56138 5.50141L3.34785 4.61973C2.76203 5.42605 2.49971 6.37043 2.37343 7.53597C2.24867 8.68747 2.2497 10.1413 2.2497 11.9995H3.7497ZM4.61994 3.34765C4.13179 3.70231 3.70251 4.13159 3.34785 4.61973L4.56138 5.50141C4.82352 5.14061 5.14081 4.82331 5.50161 4.56117L4.61994 3.34765ZM20.2497 11.9995C20.2497 13.1726 20.2496 14.145 20.2212 14.9738L21.7203 15.0252C21.7498 14.1652 21.7497 13.1643 21.7497 11.9995H20.2497ZM20.2212 14.9738C20.1577 16.8287 19.9506 17.792 19.438 18.4976L20.6515 19.3793C21.4534 18.2756 21.6561 16.8986 21.7203 15.0252L20.2212 14.9738ZM20.9708 14.2495C20.0885 14.2495 19.5575 14.2478 19.1002 14.3203L19.3348 15.8018C19.6467 15.7524 20.0335 15.7495 20.9708 15.7495L20.9708 14.2495ZM11.9997 21.7495C13.1645 21.7495 14.1655 21.7496 15.0254 21.7201L14.974 20.221C14.1452 20.2494 13.1728 20.2495 11.9997 20.2495V21.7495ZM15.0254 21.7201C16.8988 21.6559 18.2758 21.4532 19.3795 20.6513L18.4978 19.4378C17.7922 19.9504 16.8289 20.1574 14.974 20.221L15.0254 21.7201ZM15.7497 20.9706C15.7497 20.0333 15.7526 19.6465 15.802 19.3346L14.3205 19.1C14.2481 19.5573 14.2497 20.0883 14.2497 20.9706L15.7497 20.9706ZM12.9997 12.7495L15.9997 12.7495L15.9997 11.2495L12.9997 11.2495L12.9997 12.7495ZM7.9997 8.74949L15.9997 8.74949L15.9997 7.24949L7.9997 7.24949L7.9997 8.74949Z" fill="black"/>
</svg>
