<svg width="24" height="24" viewBox="0 0 24 24" fill="none" xmlns="http://www.w3.org/2000/svg">
<path d="M5.06132 21.0447L5.50216 20.4379L5.06132 21.0447ZM3.95516 19.9385L4.56192 19.4977L3.95516 19.9385ZM20.0453 19.9385L19.4386 19.4977L20.0453 19.9385ZM18.9392 21.0447L18.4983 20.4379L18.9392 21.0447ZM18.9392 2.95452L19.38 2.34776L18.9392 2.95452ZM20.0453 4.06068L19.4386 4.50151L20.0453 4.06068ZM5.06132 2.95452L5.50216 3.56128L5.06132 2.95452ZM3.95516 4.06068L4.56192 4.50151L3.95516 4.06068ZM13.1464 6.59491L13.2637 7.33568L13.2637 7.33568L13.1464 6.59491ZM11.582 6.59491L11.4647 7.33568L11.4647 7.33568L11.582 6.59491ZM8.00024 15.2496C7.58603 15.2496 7.25024 15.5854 7.25024 15.9996C7.25024 16.4138 7.58603 16.7496 8.00024 16.7496V15.2496ZM16.0002 16.7496C16.4145 16.7496 16.7502 16.4138 16.7502 15.9996C16.7502 15.5854 16.4145 15.2496 16.0002 15.2496V16.7496ZM8.00024 11.2496C7.58603 11.2496 7.25024 11.5854 7.25024 11.9996C7.25024 12.4138 7.58603 12.7496 8.00024 12.7496V11.2496ZM11.0002 12.7496C11.4145 12.7496 11.7502 12.4138 11.7502 11.9996C11.7502 11.5854 11.4145 11.2496 11.0002 11.2496V12.7496ZM20.2502 10.9996V12.9996H21.7502V10.9996H20.2502ZM3.75024 12.9996V10.9996H2.25024V12.9996H3.75024ZM12.0002 21.2496C10.1087 21.2496 8.75023 21.2486 7.69829 21.1346C6.66038 21.0221 6.01016 20.807 5.50216 20.4379L4.62048 21.6514C5.4268 22.2373 6.37118 22.4996 7.53672 22.6259C8.68822 22.7506 10.1421 22.7496 12.0002 22.7496V21.2496ZM2.25024 12.9996C2.25024 14.8578 2.24921 16.3116 2.37397 17.4631C2.50025 18.6287 2.76257 19.573 3.3484 20.3794L4.56192 19.4977C4.19283 18.9897 3.9777 18.3395 3.86524 17.3016C3.75127 16.2496 3.75024 14.8912 3.75024 12.9996H2.25024ZM5.50216 20.4379C5.14135 20.1758 4.82406 19.8585 4.56192 19.4977L3.3484 20.3794C3.70305 20.8675 4.13233 21.2968 4.62048 21.6514L5.50216 20.4379ZM20.2502 12.9996C20.2502 14.8912 20.2492 16.2496 20.1352 17.3016C20.0228 18.3395 19.8076 18.9897 19.4386 19.4977L20.6521 20.3794C21.2379 19.573 21.5002 18.6287 21.6265 17.4631C21.7513 16.3116 21.7502 14.8578 21.7502 12.9996H20.2502ZM12.0002 22.7496C13.8584 22.7496 15.3123 22.7506 16.4638 22.6259C17.6293 22.4996 18.5737 22.2373 19.38 21.6514L18.4983 20.4379C17.9903 20.807 17.3401 21.0221 16.3022 21.1346C15.2502 21.2486 13.8918 21.2496 12.0002 21.2496V22.7496ZM19.4386 19.4977C19.1764 19.8585 18.8591 20.1758 18.4983 20.4379L19.38 21.6514C19.8681 21.2968 20.2974 20.8675 20.6521 20.3794L19.4386 19.4977ZM21.7502 10.9996C21.7502 9.14144 21.7513 7.68758 21.6265 6.53608C21.5002 5.37054 21.2379 4.42616 20.6521 3.61984L19.4386 4.50151C19.8076 5.00952 20.0228 5.65974 20.1352 6.69765C20.2492 7.74959 20.2502 9.10803 20.2502 10.9996H21.7502ZM18.4983 3.56128C18.8591 3.82342 19.1764 4.14071 19.4386 4.50151L20.6521 3.61984C20.2974 3.13169 19.8681 2.70241 19.38 2.34776L18.4983 3.56128ZM3.75024 10.9996C3.75024 9.10803 3.75127 7.74959 3.86524 6.69765C3.9777 5.65974 4.19283 5.00952 4.56192 4.50151L3.3484 3.61984C2.76257 4.42616 2.50025 5.37054 2.37397 6.53608C2.24921 7.68758 2.25024 9.14144 2.25024 10.9996H3.75024ZM4.62048 2.34776C4.13233 2.70241 3.70305 3.13169 3.3484 3.61984L4.56192 4.50151C4.82406 4.14071 5.14135 3.82342 5.50216 3.56128L4.62048 2.34776ZM13.0291 5.85414C12.5886 5.92391 12.1398 5.92391 11.6994 5.85414L11.4647 7.33568C12.0607 7.43007 12.6678 7.43007 13.2637 7.33568L13.0291 5.85414ZM8.00024 16.7496H16.0002V15.2496H8.00024V16.7496ZM8.00024 12.7496H11.0002V11.2496H8.00024V12.7496ZM17.9106 2.12044C16.6704 3.35975 15.7666 4.24966 14.9859 4.8645C14.2163 5.47055 13.6264 5.75953 13.0291 5.85414L13.2637 7.33568C14.2119 7.1855 15.0382 6.73261 15.9139 6.04293C16.7785 5.36205 17.7491 4.40237 18.9709 3.18148L17.9106 2.12044ZM12.0002 2.7496C13.662 2.7496 14.9151 2.75013 15.9151 2.82872C16.9127 2.90711 17.5846 3.05923 18.103 3.32063L18.7784 1.98128C18.0051 1.59133 17.1072 1.41778 16.0326 1.33333C14.9605 1.24907 13.6393 1.2496 12.0002 1.2496V2.7496ZM18.103 3.32063C18.2434 3.3914 18.3742 3.47111 18.4983 3.56128L19.38 2.34776C19.1894 2.20927 18.9894 2.08769 18.7784 1.98128L18.103 3.32063ZM5.54214 2.96613C6.8327 4.25663 7.84569 5.26802 8.73866 5.98272C9.64267 6.70626 10.4893 7.18118 11.4647 7.33568L11.6994 5.85414C11.0848 5.75681 10.4784 5.45385 9.67596 4.81162C8.86249 4.16055 7.91568 3.21829 6.60278 1.90545L5.54214 2.96613ZM12.0002 1.2496C10.5639 1.2496 9.37393 1.24934 8.38508 1.30533C7.39695 1.36128 6.55657 1.47536 5.82783 1.72681L6.31709 3.14477C6.85251 2.96003 7.53211 2.85602 8.46988 2.80293C9.40692 2.74987 10.5487 2.7496 12.0002 2.7496V1.2496ZM5.82783 1.72681C5.38723 1.87883 4.98814 2.08064 4.62048 2.34776L5.50216 3.56128C5.73872 3.38941 6.00308 3.25312 6.31709 3.14477L5.82783 1.72681Z" fill="black"/>
</svg>
