<svg width="24" height="24" viewBox="0 0 24 24" fill="none" xmlns="http://www.w3.org/2000/svg">
<path d="M19.2173 8.9379L19.0999 9.67866L19.0999 9.67866L19.2173 8.9379ZM15.061 4.78163L14.3202 4.89896L14.3202 4.89896L15.061 4.78163ZM5.06052 20.0445L5.50136 19.4378L5.06052 20.0445ZM3.95437 18.9384L4.56113 18.4975L3.95437 18.9384ZM20.0445 18.9384L19.4378 18.4975L20.0445 18.9384ZM18.9384 20.0445L18.4975 19.4378L18.9384 20.0445ZM18.9384 3.95437L19.3792 3.34761L18.9384 3.95437ZM20.0445 5.06053L20.6513 4.61969L20.0445 5.06053ZM5.06052 3.95437L5.50136 4.56114L5.06052 3.95437ZM3.95437 5.06053L4.56113 5.50137L3.95437 5.06053ZM14.9994 3.02839L15.0251 2.27883L14.9994 3.02839ZM20.9705 8.99946L21.7201 8.97377L20.9705 8.99946ZM7.99945 12.2495C7.58524 12.2495 7.24945 12.5852 7.24945 12.9995C7.24945 13.4137 7.58524 13.7495 7.99945 13.7495V12.2495ZM13.9994 13.7495C14.4137 13.7495 14.7494 13.4137 14.7494 12.9995C14.7494 12.5852 14.4137 12.2495 13.9994 12.2495V13.7495ZM10.2494 15.9995C10.2494 16.4137 10.5852 16.7495 10.9994 16.7495C11.4137 16.7495 11.7494 16.4137 11.7494 15.9995L10.2494 15.9995ZM11.7494 9.99946C11.7494 9.58524 11.4137 9.24946 10.9994 9.24946C10.5852 9.24946 10.2494 9.58524 10.2494 9.99946L11.7494 9.99946ZM19.3346 8.19713C17.5161 7.9091 16.0898 6.48285 15.8018 4.6643L14.3202 4.89896C14.7099 7.35934 16.6396 9.28898 19.0999 9.67866L19.3346 8.19713ZM11.9994 20.2495C10.1079 20.2495 8.74944 20.2484 7.69749 20.1345C6.65958 20.022 6.00937 19.8069 5.50136 19.4378L4.61968 20.6513C5.42601 21.2371 6.37039 21.4994 7.53592 21.6257C8.68742 21.7505 10.1413 21.7495 11.9994 21.7495V20.2495ZM2.24945 11.9995C2.24945 13.8576 2.24842 15.3115 2.37318 16.463C2.49946 17.6285 2.76177 18.5729 3.3476 19.3792L4.56113 18.4975C4.19204 17.9895 3.9769 17.3393 3.86445 16.3014C3.75048 15.2495 3.74945 13.891 3.74945 11.9995H2.24945ZM5.50136 19.4378C5.14056 19.1756 4.82327 18.8583 4.56113 18.4975L3.3476 19.3792C3.70226 19.8674 4.13154 20.2966 4.61968 20.6513L5.50136 19.4378ZM20.2494 11.9995C20.2494 13.891 20.2484 15.2495 20.1344 16.3014C20.022 17.3393 19.8069 17.9895 19.4378 18.4975L20.6513 19.3792C21.2371 18.5729 21.4994 17.6285 21.6257 16.463C21.7505 15.3115 21.7494 13.8576 21.7494 11.9995H20.2494ZM11.9994 21.7495C13.8576 21.7495 15.3115 21.7505 16.463 21.6257C17.6285 21.4994 18.5729 21.2371 19.3792 20.6513L18.4975 19.4378C17.9895 19.8069 17.3393 20.022 16.3014 20.1345C15.2495 20.2484 13.891 20.2495 11.9994 20.2495V21.7495ZM19.4378 18.4975C19.1756 18.8583 18.8583 19.1756 18.4975 19.4378L19.3792 20.6513C19.8674 20.2966 20.2966 19.8674 20.6513 19.3792L19.4378 18.4975ZM18.4975 4.56114C18.8583 4.82327 19.1756 5.14057 19.4378 5.50137L20.6513 4.61969C20.2966 4.13155 19.8674 3.70227 19.3792 3.34761L18.4975 4.56114ZM11.9994 2.24946C10.1413 2.24946 8.68742 2.24843 7.53592 2.37319C6.37039 2.49946 5.42601 2.76178 4.61968 3.34761L5.50136 4.56114C6.00937 4.19205 6.65958 3.97691 7.69749 3.86446C8.74944 3.75049 10.1079 3.74946 11.9994 3.74946V2.24946ZM3.74945 11.9995C3.74945 10.1079 3.75048 8.74945 3.86445 7.6975C3.9769 6.65959 4.19204 6.00937 4.56113 5.50137L3.3476 4.61969C2.76177 5.42602 2.49946 6.3704 2.37318 7.53593C2.24842 8.68743 2.24945 10.1413 2.24945 11.9995H3.74945ZM4.61968 3.34761C4.13154 3.70227 3.70226 4.13155 3.3476 4.61969L4.56113 5.50137C4.82327 5.14057 5.14056 4.82327 5.50136 4.56114L4.61968 3.34761ZM11.9994 3.74946C13.1725 3.74946 14.145 3.74955 14.9738 3.77795L15.0251 2.27883C14.1652 2.24936 13.1642 2.24946 11.9994 2.24946V3.74946ZM14.9738 3.77795C16.8287 3.8415 17.792 4.04852 18.4975 4.56114L19.3792 3.34761C18.2755 2.54575 16.8986 2.34301 15.0251 2.27883L14.9738 3.77795ZM14.2494 3.02839C14.2495 3.91066 14.2478 4.4416 14.3202 4.89896L15.8018 4.6643C15.7524 4.35244 15.7495 3.96563 15.7494 3.02838L14.2494 3.02839ZM21.7494 11.9995C21.7494 10.8347 21.7495 9.8337 21.7201 8.97377L20.221 9.02514C20.2493 9.8539 20.2494 10.8264 20.2494 11.9995H21.7494ZM21.7201 8.97377C21.6559 7.10033 21.4531 5.72335 20.6513 4.61969L19.4378 5.50137C19.9504 6.20692 20.1574 7.17021 20.221 9.02514L21.7201 8.97377ZM20.9705 8.24946C20.0333 8.24945 19.6465 8.24653 19.3346 8.19713L19.0999 9.67866C19.5573 9.7511 20.0882 9.74945 20.9705 9.74946L20.9705 8.24946ZM7.99945 13.7495H13.9994V12.2495H7.99945V13.7495ZM11.7494 15.9995L11.7494 9.99946L10.2494 9.99946L10.2494 15.9995L11.7494 15.9995Z" fill="black"/>
</svg>
