<svg width="24" height="24" viewBox="0 0 24 24" fill="none" xmlns="http://www.w3.org/2000/svg">
<path d="M4.78246 16.061L4.89979 15.3202L4.89979 15.3202L4.78246 16.061ZM8.93873 20.2172L9.6795 20.0999L9.6795 20.0999L8.93873 20.2172ZM5.06136 21.0445L4.62052 21.6512L5.06136 21.0445ZM3.9552 19.9383L3.34844 20.3792L3.9552 19.9383ZM20.0454 19.9383L19.4386 19.4975L20.0454 19.9383ZM18.9392 21.0445L18.4984 20.4377L18.9392 21.0445ZM18.9392 2.95432L18.4984 3.56108L18.9392 2.95432ZM20.0454 4.06048L19.4386 4.50132L20.0454 4.06048ZM5.06136 2.95432L5.5022 3.56108L5.06136 2.95432ZM3.9552 4.06048L4.56197 4.50132L3.9552 4.06048ZM3.02922 15.9994L2.27966 16.0251L3.02922 15.9994ZM9.00029 21.9705L8.97461 22.72L9.00029 21.9705ZM8.00029 11.2494C7.58607 11.2494 7.25029 11.5852 7.25029 11.9994C7.25029 12.4136 7.58607 12.7494 8.00029 12.7494L8.00029 11.2494ZM16.0003 12.7494C16.4145 12.7494 16.7503 12.4136 16.7503 11.9994C16.7503 11.5852 16.4145 11.2494 16.0003 11.2494L16.0003 12.7494ZM8.00029 7.2494C7.58607 7.2494 7.25029 7.58519 7.25029 7.9994C7.25029 8.41362 7.58607 8.7494 8.00029 8.7494V7.2494ZM11.0003 8.7494C11.4145 8.7494 11.7503 8.41362 11.7503 7.9994C11.7503 7.58519 11.4145 7.2494 11.0003 7.2494V8.7494ZM4.66514 16.8017C6.48368 17.0898 7.90993 18.516 8.19796 20.3345L9.6795 20.0999C9.28981 17.6395 7.36017 15.7099 4.89979 15.3202L4.66514 16.8017ZM20.2503 10.9994V12.9994H21.7503V10.9994H20.2503ZM3.75029 12.9994V10.9994H2.25029V12.9994H3.75029ZM5.5022 20.4377C5.1414 20.1756 4.82411 19.8583 4.56197 19.4975L3.34844 20.3792C3.7031 20.8673 4.13238 21.2966 4.62052 21.6512L5.5022 20.4377ZM20.2503 12.9994C20.2503 14.891 20.2493 16.2494 20.1353 17.3014C20.0228 18.3393 19.8077 18.9895 19.4386 19.4975L20.6521 20.3792C21.238 19.5728 21.5003 18.6285 21.6266 17.4629C21.7513 16.3114 21.7503 14.8576 21.7503 12.9994H20.2503ZM12.0003 22.7494C13.8584 22.7494 15.3123 22.7504 16.4638 22.6257C17.6293 22.4994 18.5737 22.2371 19.38 21.6512L18.4984 20.4377C17.9904 20.8068 17.3402 21.0219 16.3022 21.1344C15.2503 21.2484 13.8919 21.2494 12.0003 21.2494V22.7494ZM19.4386 19.4975C19.1765 19.8583 18.8592 20.1756 18.4984 20.4377L19.38 21.6512C19.8682 21.2966 20.2975 20.8673 20.6521 20.3792L19.4386 19.4975ZM12.0003 2.7494C13.8919 2.7494 15.2503 2.75043 16.3022 2.86441C17.3401 2.97686 17.9904 3.192 18.4984 3.56108L19.38 2.34756C18.5737 1.76173 17.6293 1.49941 16.4638 1.37313C15.3123 1.24838 13.8584 1.24941 12.0003 1.24941V2.7494ZM21.7503 10.9994C21.7503 9.14124 21.7513 7.68738 21.6266 6.53588C21.5003 5.37034 21.238 4.42596 20.6521 3.61964L19.4386 4.50132C19.8077 5.00932 20.0228 5.65954 20.1353 6.69745C20.2493 7.74939 20.2503 9.10783 20.2503 10.9994H21.7503ZM18.4984 3.56108C18.8592 3.82322 19.1765 4.14051 19.4386 4.50132L20.6521 3.61964C20.2975 3.13149 19.8682 2.70221 19.38 2.34756L18.4984 3.56108ZM12.0003 1.24941C10.1421 1.24941 8.68826 1.24838 7.53676 1.37313C6.37123 1.49941 5.42685 1.76173 4.62052 2.34756L5.5022 3.56108C6.01021 3.192 6.66042 2.97686 7.69833 2.86441C8.75028 2.75043 10.1087 2.7494 12.0003 2.7494V1.24941ZM3.75029 10.9994C3.75029 9.10783 3.75132 7.74939 3.86529 6.69745C3.97774 5.65954 4.19288 5.00932 4.56197 4.50132L3.34844 3.61964C2.76261 4.42596 2.5003 5.37034 2.37402 6.53588C2.24926 7.68738 2.25029 9.14124 2.25029 10.9994H3.75029ZM4.62052 2.34756C4.13238 2.70221 3.7031 3.13149 3.34844 3.61964L4.56197 4.50132C4.82411 4.14051 5.1414 3.82322 5.5022 3.56108L4.62052 2.34756ZM2.25029 12.9994C2.25029 14.1642 2.2502 15.1652 2.27966 16.0251L3.77878 15.9737C3.75038 15.145 3.75029 14.1725 3.75029 12.9994H2.25029ZM2.27966 16.0251C2.34385 17.8985 2.54659 19.2755 3.34844 20.3792L4.56197 19.4975C4.04936 18.7919 3.84233 17.8286 3.77878 15.9737L2.27966 16.0251ZM3.02921 16.7494C3.96646 16.7494 4.35327 16.7523 4.66514 16.8017L4.89979 15.3202C4.44244 15.2478 3.9115 15.2494 3.02922 15.2494L3.02921 16.7494ZM12.0003 21.2494C10.8272 21.2494 9.85474 21.2493 9.02597 21.2209L8.97461 22.72C9.83453 22.7495 10.8355 22.7494 12.0003 22.7494V21.2494ZM9.02597 21.2209C7.17104 21.1574 6.20775 20.9503 5.5022 20.4377L4.62052 21.6512C5.72418 22.4531 7.10116 22.6558 8.97461 22.72L9.02597 21.2209ZM9.75029 21.9705C9.75028 21.0882 9.75193 20.5572 9.6795 20.0999L8.19796 20.3345C8.24736 20.6464 8.25028 21.0332 8.25029 21.9705L9.75029 21.9705ZM8.00029 12.7494L16.0003 12.7494L16.0003 11.2494L8.00029 11.2494L8.00029 12.7494ZM8.00029 8.7494H11.0003V7.2494H8.00029V8.7494Z" fill="black"/>
</svg>
