<svg width="24" height="24" viewBox="0 0 24 24" fill="none" xmlns="http://www.w3.org/2000/svg">
<path d="M19.2181 7.93789L19.1008 8.67865L19.1008 8.67865L19.2181 7.93789ZM15.0618 3.78162L14.3211 3.89894L14.3211 3.89894L15.0618 3.78162ZM5.06136 21.0445L5.5022 20.4378L5.06136 21.0445ZM3.9552 19.9384L4.56197 19.4975L3.9552 19.9384ZM20.0454 19.9384L19.4386 19.4975L20.0454 19.9384ZM18.9392 21.0445L18.4984 20.4378L18.9392 21.0445ZM18.9392 2.95436L19.38 2.3476L18.9392 2.95436ZM20.0454 4.06052L20.6521 3.61968L20.0454 4.06052ZM5.06136 2.95436L5.5022 3.56112L5.06136 2.95436ZM3.9552 4.06052L4.56197 4.50136L3.9552 4.06052ZM15.0003 2.02838L15.026 1.27882L15.0003 2.02838ZM20.9714 7.99944L21.7209 7.97376L20.9714 7.99944ZM8.00029 15.2494C7.58607 15.2494 7.25029 15.5852 7.25029 15.9994C7.25029 16.4137 7.58607 16.7494 8.00029 16.7494V15.2494ZM11.0003 16.7494C11.4145 16.7494 11.7503 16.4137 11.7503 15.9994C11.7503 15.5852 11.4145 15.2494 11.0003 15.2494V16.7494ZM8.00029 11.2494C7.58607 11.2494 7.25029 11.5852 7.25029 11.9994C7.25029 12.4137 7.58607 12.7494 8.00029 12.7494V11.2494ZM16.0003 12.7494C16.4145 12.7494 16.7503 12.4137 16.7503 11.9994C16.7503 11.5852 16.4145 11.2494 16.0003 11.2494V12.7494ZM8.00029 7.24944C7.58607 7.24944 7.25029 7.58523 7.25029 7.99944C7.25029 8.41366 7.58607 8.74944 8.00029 8.74944V7.24944ZM11.0003 8.74944C11.4145 8.74944 11.7503 8.41366 11.7503 7.99944C11.7503 7.58523 11.4145 7.24944 11.0003 7.24944V8.74944ZM19.3354 7.19712C17.5169 6.90909 16.0906 5.48284 15.8026 3.66429L14.3211 3.89894C14.7108 6.35932 16.6404 8.28897 19.1008 8.67865L19.3354 7.19712ZM20.2503 10.9994V12.9994H21.7503V10.9994H20.2503ZM3.75029 12.9994V10.9994H2.25029V12.9994H3.75029ZM12.0003 21.2494C10.1087 21.2494 8.75028 21.2484 7.69833 21.1344C6.66042 21.022 6.01021 20.8068 5.5022 20.4378L4.62052 21.6513C5.42685 22.2371 6.37123 22.4994 7.53676 22.6257C8.68826 22.7505 10.1421 22.7494 12.0003 22.7494V21.2494ZM2.25029 12.9994C2.25029 14.8576 2.24926 16.3115 2.37402 17.463C2.5003 18.6285 2.76261 19.5729 3.34844 20.3792L4.56197 19.4975C4.19288 18.9895 3.97774 18.3393 3.86529 17.3014C3.75132 16.2494 3.75029 14.891 3.75029 12.9994H2.25029ZM5.5022 20.4378C5.1414 20.1756 4.82411 19.8583 4.56197 19.4975L3.34844 20.3792C3.7031 20.8673 4.13238 21.2966 4.62052 21.6513L5.5022 20.4378ZM20.2503 12.9994C20.2503 14.891 20.2493 16.2494 20.1353 17.3014C20.0228 18.3393 19.8077 18.9895 19.4386 19.4975L20.6521 20.3792C21.238 19.5729 21.5003 18.6285 21.6266 17.463C21.7513 16.3115 21.7503 14.8576 21.7503 12.9994H20.2503ZM12.0003 22.7494C13.8584 22.7494 15.3123 22.7505 16.4638 22.6257C17.6293 22.4994 18.5737 22.2371 19.38 21.6513L18.4984 20.4378C17.9904 20.8068 17.3402 21.022 16.3022 21.1344C15.2503 21.2484 13.8919 21.2494 12.0003 21.2494V22.7494ZM19.4386 19.4975C19.1765 19.8583 18.8592 20.1756 18.4984 20.4378L19.38 21.6513C19.8682 21.2966 20.2975 20.8673 20.6521 20.3792L19.4386 19.4975ZM18.4984 3.56112C18.8592 3.82326 19.1765 4.14056 19.4386 4.50136L20.6521 3.61968C20.2975 3.13154 19.8682 2.70226 19.38 2.3476L18.4984 3.56112ZM12.0003 1.24945C10.1421 1.24945 8.68826 1.24842 7.53676 1.37317C6.37123 1.49945 5.42685 1.76177 4.62052 2.3476L5.5022 3.56112C6.01021 3.19204 6.66042 2.9769 7.69833 2.86445C8.75028 2.75048 10.1087 2.74945 12.0003 2.74945V1.24945ZM3.75029 10.9994C3.75029 9.10787 3.75132 7.74944 3.86529 6.69749C3.97774 5.65958 4.19288 5.00936 4.56197 4.50136L3.34844 3.61968C2.76261 4.426 2.5003 5.37038 2.37402 6.53592C2.24926 7.68742 2.25029 9.14128 2.25029 10.9994H3.75029ZM4.62052 2.3476C4.13238 2.70226 3.7031 3.13154 3.34844 3.61968L4.56197 4.50136C4.82411 4.14056 5.1414 3.82326 5.5022 3.56112L4.62052 2.3476ZM12.0003 2.74945C13.1734 2.74945 14.1458 2.74954 14.9746 2.77794L15.026 1.27882C14.166 1.24935 13.1651 1.24945 12.0003 1.24945V2.74945ZM14.9746 2.77794C16.8295 2.84149 17.7928 3.04851 18.4984 3.56112L19.38 2.3476C18.2764 1.54574 16.8994 1.343 15.026 1.27882L14.9746 2.77794ZM14.2503 2.02838C14.2503 2.91065 14.2486 3.44159 14.3211 3.89894L15.8026 3.66429C15.7532 3.35243 15.7503 2.96562 15.7503 2.02837L14.2503 2.02838ZM21.7503 10.9994C21.7503 9.83467 21.7504 8.83369 21.7209 7.97376L20.2218 8.02512C20.2502 8.85389 20.2503 9.82637 20.2503 10.9994H21.7503ZM21.7209 7.97376C21.6567 6.10032 21.454 4.72334 20.6521 3.61968L19.4386 4.50136C19.9512 5.20691 20.1582 6.1702 20.2218 8.02512L21.7209 7.97376ZM20.9714 7.24944C20.0341 7.24944 19.6473 7.24651 19.3354 7.19712L19.1008 8.67865C19.5581 8.75109 20.0891 8.74944 20.9713 8.74944L20.9714 7.24944ZM8.00029 16.7494H11.0003V15.2494H8.00029V16.7494ZM8.00029 12.7494H16.0003V11.2494H8.00029V12.7494ZM8.00029 8.74944H11.0003V7.24944H8.00029V8.74944Z" fill="black"/>
</svg>
