<svg width="24" height="24" viewBox="0 0 24 24" fill="none" xmlns="http://www.w3.org/2000/svg">
<path d="M5.06078 21.0446L5.50161 20.4379L5.06078 21.0446ZM3.95462 19.9385L4.56138 19.4976L3.95462 19.9385ZM20.0448 19.9385L19.438 19.4976L20.0448 19.9385ZM18.9386 21.0446L18.4978 20.4379L18.9386 21.0446ZM18.9386 2.95446L18.4978 3.56122L18.9386 2.95446ZM20.0448 4.06062L19.438 4.50145L20.0448 4.06062ZM5.06078 2.95446L5.50161 3.56122L5.06078 2.95446ZM3.95462 4.06062L4.56138 4.50145L3.95462 4.06062ZM7.9997 15.2495C7.58549 15.2495 7.2497 15.5853 7.2497 15.9995C7.2497 16.4137 7.58549 16.7495 7.9997 16.7495V15.2495ZM15.9997 16.7495C16.4139 16.7495 16.7497 16.4137 16.7497 15.9995C16.7497 15.5853 16.4139 15.2495 15.9997 15.2495V16.7495ZM7.9997 11.2495C7.58549 11.2495 7.2497 11.5853 7.2497 11.9995C7.2497 12.4138 7.58549 12.7495 7.9997 12.7495V11.2495ZM15.9997 12.7495C16.4139 12.7495 16.7497 12.4138 16.7497 11.9995C16.7497 11.5853 16.4139 11.2495 15.9997 11.2495V12.7495ZM7.9997 7.24954C7.58549 7.24954 7.2497 7.58533 7.2497 7.99954C7.2497 8.41375 7.58549 8.74954 7.9997 8.74954V7.24954ZM10.9997 8.74954C11.4139 8.74954 11.7497 8.41375 11.7497 7.99954C11.7497 7.58533 11.4139 7.24954 10.9997 7.24954V8.74954ZM20.2497 10.9995V12.9995H21.7497V10.9995H20.2497ZM3.7497 12.9995V10.9995H2.2497V12.9995H3.7497ZM11.9997 21.2495C10.1081 21.2495 8.74969 21.2485 7.69775 21.1345C6.65983 21.0221 6.00962 20.8069 5.50161 20.4379L4.61994 21.6514C5.42626 22.2372 6.37064 22.4995 7.53618 22.6258C8.68768 22.7506 10.1415 22.7495 11.9997 22.7495V21.2495ZM2.2497 12.9995C2.2497 14.8577 2.24867 16.3116 2.37343 17.4631C2.49971 18.6286 2.76203 19.573 3.34785 20.3793L4.56138 19.4976C4.19229 18.9896 3.97715 18.3394 3.8647 17.3015C3.75073 16.2495 3.7497 14.8911 3.7497 12.9995H2.2497ZM5.50161 20.4379C5.14081 20.1757 4.82352 19.8584 4.56138 19.4976L3.34785 20.3793C3.70251 20.8674 4.13179 21.2967 4.61994 21.6514L5.50161 20.4379ZM20.2497 12.9995C20.2497 14.8911 20.2487 16.2495 20.1347 17.3015C20.0222 18.3394 19.8071 18.9896 19.438 19.4976L20.6515 20.3793C21.2374 19.573 21.4997 18.6286 21.626 17.4631C21.7507 16.3116 21.7497 14.8577 21.7497 12.9995H20.2497ZM11.9997 22.7495C13.8579 22.7495 15.3117 22.7506 16.4632 22.6258C17.6288 22.4995 18.5731 22.2372 19.3795 21.6514L18.4978 20.4379C17.9898 20.8069 17.3396 21.0221 16.3017 21.1345C15.2497 21.2485 13.8913 21.2495 11.9997 21.2495V22.7495ZM19.438 19.4976C19.1759 19.8584 18.8586 20.1757 18.4978 20.4379L19.3795 21.6514C19.8676 21.2967 20.2969 20.8674 20.6515 20.3793L19.438 19.4976ZM11.9997 2.74954C13.8913 2.74954 15.2497 2.75057 16.3017 2.86454C17.3396 2.97699 17.9898 3.19213 18.4978 3.56122L19.3795 2.34769C18.5731 1.76187 17.6288 1.49955 16.4632 1.37327C15.3117 1.24851 13.8579 1.24954 11.9997 1.24954V2.74954ZM21.7497 10.9995C21.7497 9.14138 21.7507 7.68752 21.626 6.53602C21.4997 5.37048 21.2374 4.4261 20.6515 3.61978L19.438 4.50145C19.8071 5.00946 20.0222 5.65967 20.1347 6.69758C20.2487 7.74953 20.2497 9.10797 20.2497 10.9995H21.7497ZM18.4978 3.56122C18.8586 3.82336 19.1759 4.14065 19.438 4.50145L20.6515 3.61978C20.2969 3.13163 19.8676 2.70235 19.3795 2.34769L18.4978 3.56122ZM11.9997 1.24954C10.1415 1.24954 8.68768 1.24851 7.53618 1.37327C6.37064 1.49955 5.42626 1.76187 4.61994 2.34769L5.50161 3.56122C6.00962 3.19213 6.65983 2.97699 7.69775 2.86454C8.74969 2.75057 10.1081 2.74954 11.9997 2.74954V1.24954ZM3.7497 10.9995C3.7497 9.10797 3.75073 7.74953 3.8647 6.69758C3.97715 5.65967 4.19229 5.00946 4.56138 4.50145L3.34785 3.61978C2.76203 4.4261 2.49971 5.37048 2.37343 6.53602C2.24867 7.68752 2.2497 9.14138 2.2497 10.9995H3.7497ZM4.61994 2.34769C4.13179 2.70235 3.70251 3.13163 3.34785 3.61978L4.56138 4.50145C4.82352 4.14065 5.14081 3.82336 5.50161 3.56122L4.61994 2.34769ZM7.9997 16.7495H15.9997V15.2495H7.9997V16.7495ZM7.9997 12.7495H15.9997V11.2495H7.9997V12.7495ZM7.9997 8.74954H10.9997V7.24954H7.9997V8.74954Z" fill="black"/>
</svg>
