<svg width="24" height="24" viewBox="0 0 24 24" fill="none" xmlns="http://www.w3.org/2000/svg">
<path d="M4.78162 8.9379L4.89895 9.67867L4.89895 9.67867L4.78162 8.9379ZM8.93789 4.78163L9.67866 4.89896L9.67866 4.89896L8.93789 4.78163ZM18.9384 20.0445L18.4975 19.4378L18.9384 20.0445ZM20.0445 18.9384L19.4378 18.4975L20.0445 18.9384ZM3.95436 18.9384L4.56113 18.4975L3.95436 18.9384ZM5.06052 20.0445L5.50136 19.4378L5.06052 20.0445ZM5.06052 3.95438L4.61969 3.34761L5.06052 3.95438ZM3.95436 5.06054L3.3476 4.6197L3.95436 5.06054ZM18.9384 3.95438L18.4975 4.56114L18.9384 3.95438ZM20.0445 5.06054L19.4378 5.50137L20.0445 5.06054ZM8.99945 3.02839L8.97377 2.27883L8.99945 3.02839ZM3.02838 8.99946L2.27882 8.97378L3.02838 8.99946ZM12.9994 15.2495C12.5852 15.2495 12.2494 15.5852 12.2494 15.9995C12.2494 16.4137 12.5852 16.7495 12.9994 16.7495V15.2495ZM15.9994 16.7495C16.4137 16.7495 16.7494 16.4137 16.7494 15.9995C16.7494 15.5852 16.4137 15.2495 15.9994 15.2495V16.7495ZM7.99945 11.2495C7.58524 11.2495 7.24945 11.5852 7.24945 11.9995C7.24945 12.4137 7.58524 12.7495 7.99945 12.7495V11.2495ZM15.9994 12.7495C16.4137 12.7495 16.7494 12.4137 16.7494 11.9995C16.7494 11.5852 16.4137 11.2495 15.9994 11.2495V12.7495ZM12.9994 7.24946C12.5852 7.24946 12.2494 7.58525 12.2494 7.99946C12.2494 8.41367 12.5852 8.74946 12.9994 8.74946V7.24946ZM15.9994 8.74946C16.4137 8.74946 16.7494 8.41367 16.7494 7.99946C16.7494 7.58525 16.4137 7.24946 15.9994 7.24946V8.74946ZM4.89895 9.67867C7.35933 9.28898 9.28897 7.35934 9.67866 4.89896L8.19712 4.66431C7.90909 6.48285 6.48284 7.90911 4.6643 8.19714L4.89895 9.67867ZM11.9994 21.7495C13.8576 21.7495 15.3115 21.7505 16.463 21.6257C17.6285 21.4994 18.5729 21.2371 19.3792 20.6513L18.4975 19.4378C17.9895 19.8069 17.3393 20.022 16.3014 20.1345C15.2495 20.2484 13.891 20.2495 11.9994 20.2495V21.7495ZM20.2494 11.9995C20.2494 13.891 20.2484 15.2495 20.1344 16.3014C20.022 17.3393 19.8069 17.9895 19.4378 18.4975L20.6513 19.3792C21.2371 18.5729 21.4994 17.6285 21.6257 16.463C21.7505 15.3115 21.7494 13.8576 21.7494 11.9995H20.2494ZM19.3792 20.6513C19.8674 20.2966 20.2966 19.8674 20.6513 19.3792L19.4378 18.4975C19.1756 18.8583 18.8583 19.1756 18.4975 19.4378L19.3792 20.6513ZM2.24945 11.9995C2.24945 13.8576 2.24842 15.3115 2.37318 16.463C2.49946 17.6285 2.76177 18.5729 3.3476 19.3792L4.56113 18.4975C4.19204 17.9895 3.9769 17.3393 3.86445 16.3014C3.75048 15.2495 3.74945 13.891 3.74945 11.9995H2.24945ZM11.9994 20.2495C10.1079 20.2495 8.74944 20.2484 7.69749 20.1345C6.65958 20.022 6.00937 19.8069 5.50136 19.4378L4.61969 20.6513C5.42601 21.2371 6.37039 21.4994 7.53592 21.6257C8.68742 21.7505 10.1413 21.7495 11.9994 21.7495V20.2495ZM3.3476 19.3792C3.70226 19.8674 4.13154 20.2966 4.61969 20.6513L5.50136 19.4378C5.14056 19.1756 4.82327 18.8583 4.56113 18.4975L3.3476 19.3792ZM4.61969 3.34761C4.13154 3.70227 3.70226 4.13155 3.3476 4.6197L4.56113 5.50137C4.82326 5.14057 5.14056 4.82328 5.50136 4.56114L4.61969 3.34761ZM11.9994 3.74946C13.891 3.74946 15.2495 3.75049 16.3014 3.86446C17.3393 3.97691 17.9895 4.19205 18.4975 4.56114L19.3792 3.34761C18.5729 2.76179 17.6285 2.49947 16.463 2.37319C15.3115 2.24843 13.8576 2.24946 11.9994 2.24946V3.74946ZM21.7494 11.9995C21.7494 10.1413 21.7505 8.68744 21.6257 7.53594C21.4994 6.3704 21.2371 5.42602 20.6513 4.6197L19.4378 5.50137C19.8069 6.00938 20.022 6.65959 20.1344 7.6975C20.2484 8.74945 20.2494 10.1079 20.2494 11.9995H21.7494ZM18.4975 4.56114C18.8583 4.82328 19.1756 5.14057 19.4378 5.50137L20.6513 4.6197C20.2966 4.13155 19.8674 3.70227 19.3792 3.34761L18.4975 4.56114ZM11.9994 2.24946C10.8347 2.24946 9.83369 2.24937 8.97377 2.27883L9.02513 3.77795C9.8539 3.74956 10.8264 3.74946 11.9994 3.74946V2.24946ZM8.97377 2.27883C7.10032 2.34302 5.72335 2.54576 4.61969 3.34761L5.50136 4.56114C6.20691 4.04853 7.1702 3.8415 9.02513 3.77795L8.97377 2.27883ZM8.24945 3.02839C8.24944 3.96564 8.24652 4.35244 8.19712 4.66431L9.67866 4.89896C9.75109 4.44161 9.74944 3.91067 9.74945 3.0284L8.24945 3.02839ZM3.74945 11.9995C3.74945 10.8264 3.74954 9.85391 3.77794 9.02514L2.27882 8.97378C2.24936 9.8337 2.24945 10.8347 2.24945 11.9995H3.74945ZM3.77794 9.02514C3.84149 7.17021 4.04852 6.20692 4.56113 5.50137L3.3476 4.6197C2.54575 5.72336 2.34301 7.10034 2.27882 8.97378L3.77794 9.02514ZM3.02838 9.74946C3.91066 9.74945 4.4416 9.7511 4.89895 9.67867L4.6643 8.19714C4.35243 8.24653 3.96563 8.24945 3.02837 8.24946L3.02838 9.74946ZM12.9994 16.7495H15.9994V15.2495H12.9994V16.7495ZM7.99945 12.7495H15.9994V11.2495H7.99945V12.7495ZM12.9994 8.74946H15.9994V7.24946H12.9994V8.74946Z" fill="black"/>
</svg>
