<svg width="24" height="24" viewBox="0 0 24 24" fill="none" xmlns="http://www.w3.org/2000/svg">
<path d="M8.00024 17.2495C7.58603 17.2495 7.25024 17.5853 7.25024 17.9995C7.25024 18.4137 7.58603 18.7495 8.00024 18.7495V17.2495ZM16.0002 18.7495C16.4145 18.7495 16.7502 18.4137 16.7502 17.9995C16.7502 17.5853 16.4145 17.2495 16.0002 17.2495V18.7495ZM8.00024 13.2495C7.58603 13.2495 7.25024 13.5853 7.25024 13.9995C7.25024 14.4137 7.58603 14.7495 8.00024 14.7495V13.2495ZM11.0002 14.7495C11.4145 14.7495 11.7502 14.4137 11.7502 13.9995C11.7502 13.5853 11.4145 13.2495 11.0002 13.2495V14.7495ZM8.00024 9.24954C7.58603 9.24954 7.25024 9.58533 7.25024 9.99954C7.25024 10.4138 7.58603 10.7495 8.00024 10.7495V9.24954ZM16.0002 10.7495C16.4145 10.7495 16.7502 10.4138 16.7502 9.99954C16.7502 9.58533 16.4145 9.24954 16.0002 9.24954V10.7495ZM5.06132 21.0446L5.50216 20.4379L5.06132 21.0446ZM3.95516 19.9385L4.56192 19.4976L3.95516 19.9385ZM20.0453 19.9385L19.4386 19.4976L20.0453 19.9385ZM18.9392 21.0446L18.4983 20.4379L18.9392 21.0446ZM18.9392 2.95446L19.38 2.34769L18.9392 2.95446ZM20.0453 4.06062L19.4386 4.50145L20.0453 4.06062ZM5.06132 2.95446L5.50216 3.56122L5.06132 2.95446ZM3.95516 4.06062L4.56192 4.50145L3.95516 4.06062ZM13.1464 6.59485L13.2637 7.33562L13.2637 7.33562L13.1464 6.59485ZM11.582 6.59485L11.4647 7.33562L11.4647 7.33562L11.582 6.59485ZM8.00024 18.7495H16.0002V17.2495H8.00024V18.7495ZM8.00024 14.7495H11.0002V13.2495H8.00024V14.7495ZM8.00024 10.7495H16.0002V9.24954H8.00024V10.7495ZM20.2502 10.9995V12.9995H21.7502V10.9995H20.2502ZM3.75024 12.9995V10.9995H2.25024V12.9995H3.75024ZM12.0002 21.2495C10.1087 21.2495 8.75023 21.2485 7.69829 21.1345C6.66038 21.0221 6.01016 20.8069 5.50216 20.4379L4.62048 21.6514C5.4268 22.2372 6.37118 22.4995 7.53672 22.6258C8.68822 22.7506 10.1421 22.7495 12.0002 22.7495V21.2495ZM2.25024 12.9995C2.25024 14.8577 2.24921 16.3116 2.37397 17.4631C2.50025 18.6286 2.76257 19.573 3.3484 20.3793L4.56192 19.4976C4.19283 18.9896 3.9777 18.3394 3.86524 17.3015C3.75127 16.2495 3.75024 14.8911 3.75024 12.9995H2.25024ZM5.50216 20.4379C5.14135 20.1757 4.82406 19.8584 4.56192 19.4976L3.3484 20.3793C3.70305 20.8674 4.13233 21.2967 4.62048 21.6514L5.50216 20.4379ZM20.2502 12.9995C20.2502 14.8911 20.2492 16.2495 20.1352 17.3015C20.0228 18.3394 19.8076 18.9896 19.4386 19.4976L20.6521 20.3793C21.2379 19.573 21.5002 18.6286 21.6265 17.4631C21.7513 16.3116 21.7502 14.8577 21.7502 12.9995H20.2502ZM12.0002 22.7495C13.8584 22.7495 15.3123 22.7506 16.4638 22.6258C17.6293 22.4995 18.5737 22.2372 19.38 21.6514L18.4983 20.4379C17.9903 20.8069 17.3401 21.0221 16.3022 21.1345C15.2502 21.2485 13.8918 21.2495 12.0002 21.2495V22.7495ZM19.4386 19.4976C19.1764 19.8584 18.8591 20.1757 18.4983 20.4379L19.38 21.6514C19.8681 21.2967 20.2974 20.8674 20.6521 20.3793L19.4386 19.4976ZM21.7502 10.9995C21.7502 9.14138 21.7513 7.68752 21.6265 6.53602C21.5002 5.37048 21.2379 4.4261 20.6521 3.61978L19.4386 4.50145C19.8076 5.00946 20.0228 5.65967 20.1352 6.69758C20.2492 7.74953 20.2502 9.10797 20.2502 10.9995H21.7502ZM18.4983 3.56122C18.8591 3.82336 19.1764 4.14065 19.4386 4.50145L20.6521 3.61978C20.2974 3.13163 19.8681 2.70235 19.38 2.34769L18.4983 3.56122ZM3.75024 10.9995C3.75024 9.10797 3.75127 7.74953 3.86524 6.69758C3.9777 5.65967 4.19283 5.00946 4.56192 4.50145L3.3484 3.61978C2.76257 4.4261 2.50025 5.37048 2.37397 6.53602C2.24921 7.68752 2.25024 9.14138 2.25024 10.9995H3.75024ZM4.62048 2.34769C4.13233 2.70235 3.70305 3.13163 3.3484 3.61978L4.56192 4.50145C4.82406 4.14065 5.14135 3.82336 5.50216 3.56122L4.62048 2.34769ZM13.0291 5.85408C12.5886 5.92385 12.1398 5.92385 11.6994 5.85408L11.4647 7.33562C12.0607 7.43001 12.6678 7.43001 13.2637 7.33562L13.0291 5.85408ZM17.9106 2.12038C16.6704 3.35969 15.7666 4.2496 14.9859 4.86444C14.2163 5.47049 13.6264 5.75947 13.0291 5.85408L13.2637 7.33562C14.2119 7.18544 15.0382 6.73255 15.9139 6.04287C16.7785 5.36199 17.7491 4.40231 18.9709 3.18142L17.9106 2.12038ZM12.0002 2.74954C13.662 2.74954 14.9151 2.75007 15.9151 2.82866C16.9127 2.90705 17.5846 3.05917 18.103 3.32057L18.7784 1.98122C18.0051 1.59127 17.1072 1.41771 16.0326 1.33327C14.9605 1.24901 13.6393 1.24954 12.0002 1.24954V2.74954ZM18.103 3.32057C18.2434 3.39134 18.3742 3.47104 18.4983 3.56122L19.38 2.34769C19.1894 2.20921 18.9894 2.08763 18.7784 1.98122L18.103 3.32057ZM5.54214 2.96607C6.8327 4.25657 7.84569 5.26796 8.73866 5.98265C9.64267 6.7062 10.4893 7.18112 11.4647 7.33562L11.6994 5.85408C11.0848 5.75675 10.4784 5.45379 9.67596 4.81156C8.86249 4.16049 7.91568 3.21823 6.60278 1.90539L5.54214 2.96607ZM12.0002 1.24954C10.5639 1.24954 9.37393 1.24928 8.38508 1.30527C7.39695 1.36121 6.55657 1.4753 5.82783 1.72675L6.31709 3.14471C6.85251 2.95997 7.53211 2.85596 8.46988 2.80287C9.40692 2.74981 10.5487 2.74954 12.0002 2.74954V1.24954ZM5.82783 1.72675C5.38723 1.87877 4.98814 2.08058 4.62048 2.34769L5.50216 3.56122C5.73872 3.38934 6.00308 3.25306 6.31709 3.14471L5.82783 1.72675Z" fill="black"/>
</svg>
