<svg width="24" height="24" viewBox="0 0 24 24" fill="none" xmlns="http://www.w3.org/2000/svg">
<path d="M5.06052 21.0446L5.50136 20.4379L5.06052 21.0446ZM3.95437 19.9385L4.56113 19.4976L3.95437 19.9385ZM20.0445 19.9385L19.4378 19.4976L20.0445 19.9385ZM18.9384 21.0446L18.4975 20.4379L18.9384 21.0446ZM18.9384 2.95446L18.4975 3.56122L18.9384 2.95446ZM20.0445 4.06062L19.4378 4.50145L20.0445 4.06062ZM5.06052 2.95446L5.50136 3.56122L5.06052 2.95446ZM3.95437 4.06062L4.56113 4.50145L3.95437 4.06062ZM7.99945 7.24954C7.58524 7.24954 7.24945 7.58533 7.24945 7.99954C7.24945 8.41375 7.58524 8.74954 7.99945 8.74954V7.24954ZM15.9994 8.74954C16.4137 8.74954 16.7494 8.41375 16.7494 7.99954C16.7494 7.58533 16.4137 7.24954 15.9994 7.24954V8.74954ZM7.99945 11.2495C7.58524 11.2495 7.24945 11.5853 7.24945 11.9995C7.24945 12.4138 7.58524 12.7495 7.99945 12.7495V11.2495ZM15.9994 12.7495C16.4137 12.7495 16.7494 12.4138 16.7494 11.9995C16.7494 11.5853 16.4137 11.2495 15.9994 11.2495V12.7495ZM7.99945 15.2495C7.58524 15.2495 7.24945 15.5853 7.24945 15.9995C7.24945 16.4137 7.58524 16.7495 7.99945 16.7495V15.2495ZM10.9994 16.7495C11.4137 16.7495 11.7494 16.4137 11.7494 15.9995C11.7494 15.5853 11.4137 15.2495 10.9994 15.2495V16.7495ZM20.2494 10.9995V12.9995H21.7494V10.9995H20.2494ZM3.74945 12.9995V10.9995H2.24945V12.9995H3.74945ZM11.9994 21.2495C10.1079 21.2495 8.74944 21.2485 7.69749 21.1345C6.65958 21.0221 6.00937 20.8069 5.50136 20.4379L4.61968 21.6514C5.42601 22.2372 6.37039 22.4995 7.53592 22.6258C8.68742 22.7506 10.1413 22.7495 11.9994 22.7495V21.2495ZM2.24945 12.9995C2.24945 14.8577 2.24842 16.3116 2.37318 17.4631C2.49946 18.6286 2.76177 19.573 3.3476 20.3793L4.56113 19.4976C4.19204 18.9896 3.9769 18.3394 3.86445 17.3015C3.75048 16.2495 3.74945 14.8911 3.74945 12.9995H2.24945ZM5.50136 20.4379C5.14056 20.1757 4.82327 19.8584 4.56113 19.4976L3.3476 20.3793C3.70226 20.8674 4.13154 21.2967 4.61968 21.6514L5.50136 20.4379ZM20.2494 12.9995C20.2494 14.8911 20.2484 16.2495 20.1344 17.3015C20.022 18.3394 19.8069 18.9896 19.4378 19.4976L20.6513 20.3793C21.2371 19.573 21.4994 18.6286 21.6257 17.4631C21.7505 16.3116 21.7494 14.8577 21.7494 12.9995H20.2494ZM11.9994 22.7495C13.8576 22.7495 15.3115 22.7506 16.463 22.6258C17.6285 22.4995 18.5729 22.2372 19.3792 21.6514L18.4975 20.4379C17.9895 20.8069 17.3393 21.0221 16.3014 21.1345C15.2495 21.2485 13.891 21.2495 11.9994 21.2495V22.7495ZM19.4378 19.4976C19.1756 19.8584 18.8583 20.1757 18.4975 20.4379L19.3792 21.6514C19.8674 21.2967 20.2966 20.8674 20.6513 20.3793L19.4378 19.4976ZM11.9994 2.74954C13.891 2.74954 15.2495 2.75057 16.3014 2.86454C17.3393 2.97699 17.9895 3.19213 18.4975 3.56122L19.3792 2.34769C18.5729 1.76187 17.6285 1.49955 16.463 1.37327C15.3115 1.24851 13.8576 1.24954 11.9994 1.24954V2.74954ZM21.7494 10.9995C21.7494 9.14138 21.7505 7.68752 21.6257 6.53602C21.4994 5.37048 21.2371 4.4261 20.6513 3.61978L19.4378 4.50145C19.8069 5.00946 20.022 5.65967 20.1344 6.69758C20.2484 7.74953 20.2494 9.10797 20.2494 10.9995H21.7494ZM18.4975 3.56122C18.8583 3.82336 19.1756 4.14065 19.4378 4.50145L20.6513 3.61978C20.2966 3.13163 19.8674 2.70235 19.3792 2.34769L18.4975 3.56122ZM11.9994 1.24954C10.1413 1.24954 8.68742 1.24851 7.53592 1.37327C6.37039 1.49955 5.42601 1.76187 4.61968 2.34769L5.50136 3.56122C6.00937 3.19213 6.65958 2.97699 7.69749 2.86454C8.74944 2.75057 10.1079 2.74954 11.9994 2.74954V1.24954ZM3.74945 10.9995C3.74945 9.10797 3.75048 7.74953 3.86445 6.69758C3.9769 5.65967 4.19204 5.00946 4.56113 4.50145L3.3476 3.61978C2.76177 4.4261 2.49946 5.37048 2.37318 6.53602C2.24842 7.68752 2.24945 9.14138 2.24945 10.9995H3.74945ZM4.61968 2.34769C4.13154 2.70235 3.70226 3.13163 3.3476 3.61978L4.56113 4.50145C4.82327 4.14065 5.14056 3.82336 5.50136 3.56122L4.61968 2.34769ZM7.99945 8.74954H15.9994V7.24954H7.99945V8.74954ZM7.99945 12.7495H15.9994V11.2495H7.99945V12.7495ZM7.99945 16.7495H10.9994V15.2495H7.99945V16.7495Z" fill="black"/>
</svg>
