<svg width="24" height="24" viewBox="0 0 24 24" fill="none" xmlns="http://www.w3.org/2000/svg">
<path d="M5.06136 21.0446L5.5022 20.4379L5.06136 21.0446ZM3.9552 19.9385L4.56197 19.4976L3.9552 19.9385ZM20.0454 19.9385L19.4386 19.4976L20.0454 19.9385ZM18.9392 21.0446L18.4984 20.4379L18.9392 21.0446ZM18.9392 2.95446L18.4984 3.56122L18.9392 2.95446ZM20.0454 4.06062L19.4386 4.50145L20.0454 4.06062ZM5.06136 2.95446L5.5022 3.56122L5.06136 2.95446ZM3.9552 4.06062L4.56197 4.50145L3.9552 4.06062ZM8.00029 15.2495C7.58607 15.2495 7.25029 15.5853 7.25029 15.9995C7.25029 16.4137 7.58607 16.7495 8.00029 16.7495V15.2495ZM16.0003 16.7495C16.4145 16.7495 16.7503 16.4137 16.7503 15.9995C16.7503 15.5853 16.4145 15.2495 16.0003 15.2495V16.7495ZM8.00029 11.2495C7.58607 11.2495 7.25029 11.5853 7.25029 11.9995C7.25029 12.4138 7.58607 12.7495 8.00029 12.7495V11.2495ZM16.0003 12.7495C16.4145 12.7495 16.7503 12.4138 16.7503 11.9995C16.7503 11.5853 16.4145 11.2495 16.0003 11.2495V12.7495ZM8.00029 7.24954C7.58607 7.24954 7.25029 7.58533 7.25029 7.99954C7.25029 8.41375 7.58607 8.74954 8.00029 8.74954V7.24954ZM16.0003 8.74954C16.4145 8.74954 16.7503 8.41375 16.7503 7.99954C16.7503 7.58533 16.4145 7.24954 16.0003 7.24954V8.74954ZM20.2503 10.9995V12.9995H21.7503V10.9995H20.2503ZM3.75029 12.9995V10.9995H2.25029V12.9995H3.75029ZM12.0003 21.2495C10.1087 21.2495 8.75028 21.2485 7.69833 21.1345C6.66042 21.0221 6.01021 20.8069 5.5022 20.4379L4.62052 21.6514C5.42685 22.2372 6.37123 22.4995 7.53676 22.6258C8.68826 22.7506 10.1421 22.7495 12.0003 22.7495V21.2495ZM2.25029 12.9995C2.25029 14.8577 2.24926 16.3116 2.37402 17.4631C2.5003 18.6286 2.76261 19.573 3.34844 20.3793L4.56197 19.4976C4.19288 18.9896 3.97774 18.3394 3.86529 17.3015C3.75132 16.2495 3.75029 14.8911 3.75029 12.9995H2.25029ZM5.5022 20.4379C5.1414 20.1757 4.82411 19.8584 4.56197 19.4976L3.34844 20.3793C3.7031 20.8674 4.13238 21.2967 4.62052 21.6514L5.5022 20.4379ZM20.2503 12.9995C20.2503 14.8911 20.2493 16.2495 20.1353 17.3015C20.0228 18.3394 19.8077 18.9896 19.4386 19.4976L20.6521 20.3793C21.238 19.573 21.5003 18.6286 21.6266 17.4631C21.7513 16.3116 21.7503 14.8577 21.7503 12.9995H20.2503ZM12.0003 22.7495C13.8584 22.7495 15.3123 22.7506 16.4638 22.6258C17.6293 22.4995 18.5737 22.2372 19.38 21.6514L18.4984 20.4379C17.9904 20.8069 17.3402 21.0221 16.3022 21.1345C15.2503 21.2485 13.8919 21.2495 12.0003 21.2495V22.7495ZM19.4386 19.4976C19.1765 19.8584 18.8592 20.1757 18.4984 20.4379L19.38 21.6514C19.8682 21.2967 20.2975 20.8674 20.6521 20.3793L19.4386 19.4976ZM12.0003 2.74954C13.8919 2.74954 15.2503 2.75057 16.3022 2.86454C17.3401 2.97699 17.9904 3.19213 18.4984 3.56122L19.38 2.34769C18.5737 1.76187 17.6293 1.49955 16.4638 1.37327C15.3123 1.24851 13.8584 1.24954 12.0003 1.24954V2.74954ZM21.7503 10.9995C21.7503 9.14138 21.7513 7.68752 21.6266 6.53602C21.5003 5.37048 21.238 4.4261 20.6521 3.61978L19.4386 4.50145C19.8077 5.00946 20.0228 5.65967 20.1353 6.69758C20.2493 7.74953 20.2503 9.10797 20.2503 10.9995H21.7503ZM18.4984 3.56122C18.8592 3.82336 19.1765 4.14065 19.4386 4.50145L20.6521 3.61978C20.2975 3.13163 19.8682 2.70235 19.38 2.34769L18.4984 3.56122ZM12.0003 1.24954C10.1421 1.24954 8.68826 1.24851 7.53676 1.37327C6.37123 1.49955 5.42685 1.76187 4.62052 2.34769L5.5022 3.56122C6.01021 3.19213 6.66042 2.97699 7.69833 2.86454C8.75028 2.75057 10.1087 2.74954 12.0003 2.74954V1.24954ZM3.75029 10.9995C3.75029 9.10797 3.75132 7.74953 3.86529 6.69758C3.97774 5.65967 4.19288 5.00946 4.56197 4.50145L3.34844 3.61978C2.76261 4.4261 2.5003 5.37048 2.37402 6.53602C2.24926 7.68752 2.25029 9.14138 2.25029 10.9995H3.75029ZM4.62052 2.34769C4.13238 2.70235 3.7031 3.13163 3.34844 3.61978L4.56197 4.50145C4.82411 4.14065 5.1414 3.82336 5.5022 3.56122L4.62052 2.34769ZM8.00029 16.7495H16.0003V15.2495H8.00029V16.7495ZM8.00029 12.7495H16.0003V11.2495H8.00029V12.7495ZM8.00029 8.74954H16.0003V7.24954H8.00029V8.74954Z" fill="black"/>
</svg>
