<svg width="24" height="24" viewBox="0 0 24 24" fill="none" xmlns="http://www.w3.org/2000/svg">
<path d="M19.2175 8.93784L19.1002 9.67861L19.1002 9.67861L19.2175 8.93784ZM15.0612 4.78158L14.3205 4.8989L14.3205 4.8989L15.0612 4.78158ZM5.06077 20.0445L5.50161 19.4377L5.06077 20.0445ZM3.95461 18.9383L4.56137 18.4975L3.95461 18.9383ZM20.0448 18.9383L19.438 18.4975L20.0448 18.9383ZM18.9386 20.0445L18.4978 19.4377L18.9386 20.0445ZM18.9386 3.95432L19.3795 3.34756L18.9386 3.95432ZM20.0448 5.06048L20.6515 4.61964L20.0448 5.06048ZM5.06077 3.95432L5.50161 4.56108L5.06077 3.95432ZM3.95461 5.06048L4.56137 5.50132L3.95461 5.06048ZM14.9997 3.02833L15.0254 2.27877L14.9997 3.02833ZM20.9708 8.9994L21.7203 8.97372L20.9708 8.9994ZM10.2497 16.9994C10.2497 17.4136 10.5855 17.7494 10.9997 17.7494C11.4139 17.7494 11.7497 17.4136 11.7497 16.9994H10.2497ZM6.467 11.6714C6.17542 11.9656 6.17754 12.4405 6.47173 12.7321C6.76593 13.0237 7.2408 13.0216 7.53238 12.7274L6.467 11.6714ZM8.39754 10.789L8.93023 11.317L8.93023 11.317L8.39754 10.789ZM13.6018 10.789L13.0692 11.317L13.0692 11.317L13.6018 10.789ZM14.467 12.7274C14.7586 13.0216 15.2335 13.0237 15.5276 12.7321C15.8218 12.4405 15.824 11.9656 15.5324 11.6714L14.467 12.7274ZM10.749 9.01531L10.6542 8.27133L10.6542 8.27133L10.749 9.01531ZM11.2504 9.01531L11.3452 8.27133L11.3452 8.27133L11.2504 9.01531ZM10.9997 8.9994L10.9997 8.2494L10.9997 8.9994ZM19.3348 8.19708C17.5163 7.90905 16.09 6.48279 15.802 4.66425L14.3205 4.8989C14.7102 7.35928 16.6398 9.28892 19.1002 9.67861L19.3348 8.19708ZM11.9997 20.2494C10.1081 20.2494 8.74968 20.2484 7.69774 20.1344C6.65983 20.0219 6.00961 19.8068 5.50161 19.4377L4.61993 20.6512C5.42625 21.2371 6.37063 21.4994 7.53617 21.6257C8.68767 21.7504 10.1415 21.7494 11.9997 21.7494V20.2494ZM2.2497 11.9994C2.2497 13.8576 2.24867 15.3114 2.37342 16.4629C2.4997 17.6285 2.76202 18.5728 3.34785 19.3792L4.56137 18.4975C4.19229 17.9895 3.97715 17.3393 3.8647 16.3014C3.75072 15.2494 3.74969 13.891 3.74969 11.9994H2.2497ZM5.50161 19.4377C5.1408 19.1756 4.82351 18.8583 4.56137 18.4975L3.34785 19.3792C3.7025 19.8673 4.13178 20.2966 4.61993 20.6512L5.50161 19.4377ZM20.2497 11.9994C20.2497 13.891 20.2487 15.2494 20.1347 16.3014C20.0222 17.3393 19.8071 17.9895 19.438 18.4975L20.6515 19.3792C21.2374 18.5728 21.4997 17.6285 21.626 16.4629C21.7507 15.3114 21.7497 13.8576 21.7497 11.9994H20.2497ZM11.9997 21.7494C13.8579 21.7494 15.3117 21.7504 16.4632 21.6257C17.6287 21.4994 18.5731 21.2371 19.3795 20.6512L18.4978 19.4377C17.9898 19.8068 17.3396 20.0219 16.3016 20.1344C15.2497 20.2484 13.8913 20.2494 11.9997 20.2494V21.7494ZM19.438 18.4975C19.1759 18.8583 18.8586 19.1756 18.4978 19.4377L19.3795 20.6512C19.8676 20.2966 20.2969 19.8673 20.6515 19.3792L19.438 18.4975ZM18.4978 4.56108C18.8586 4.82322 19.1759 5.14051 19.438 5.50132L20.6515 4.61964C20.2969 4.13149 19.8676 3.70221 19.3795 3.34756L18.4978 4.56108ZM11.9997 2.24941C10.1415 2.24941 8.68767 2.24838 7.53617 2.37313C6.37063 2.49941 5.42625 2.76173 4.61993 3.34756L5.50161 4.56108C6.00961 4.192 6.65983 3.97686 7.69774 3.86441C8.74969 3.75043 10.1081 3.7494 11.9997 3.7494V2.24941ZM3.74969 11.9994C3.74969 10.1078 3.75072 8.7494 3.8647 7.69745C3.97715 6.65954 4.19229 6.00932 4.56137 5.50132L3.34785 4.61964C2.76202 5.42596 2.4997 6.37034 2.37342 7.53588C2.24867 8.68738 2.2497 10.1412 2.2497 11.9994H3.74969ZM4.61993 3.34756C4.13178 3.70221 3.7025 4.13149 3.34785 4.61964L4.56137 5.50132C4.82351 5.14051 5.1408 4.82322 5.50161 4.56108L4.61993 3.34756ZM11.9997 3.7494C13.1728 3.7494 14.1452 3.7495 14.974 3.77789L15.0254 2.27877C14.1654 2.24931 13.1645 2.24941 11.9997 2.24941V3.7494ZM14.974 3.77789C16.8289 3.84145 17.7922 4.04847 18.4978 4.56108L19.3795 3.34756C18.2758 2.5457 16.8988 2.34296 15.0254 2.27877L14.974 3.77789ZM14.2497 3.02834C14.2497 3.91061 14.248 4.44155 14.3205 4.8989L15.802 4.66425C15.7526 4.35239 15.7497 3.96558 15.7497 3.02833L14.2497 3.02834ZM21.7497 11.9994C21.7497 10.8346 21.7498 9.83365 21.7203 8.97372L20.2212 9.02508C20.2496 9.85385 20.2497 10.8263 20.2497 11.9994H21.7497ZM21.7203 8.97372C21.6561 7.10028 21.4534 5.7233 20.6515 4.61964L19.438 5.50132C19.9506 6.20686 20.1576 7.17016 20.2212 9.02508L21.7203 8.97372ZM20.9708 8.2494C20.0335 8.2494 19.6467 8.24647 19.3348 8.19708L19.1002 9.67861C19.5575 9.75105 20.0885 9.7494 20.9708 9.7494L20.9708 8.2494ZM11.7497 16.9994V9.7994H10.2497V16.9994H11.7497ZM7.53238 12.7274L8.93023 11.317L7.86485 10.2611L6.467 11.6714L7.53238 12.7274ZM13.0692 11.317L14.467 12.7274L15.5324 11.6714L14.1345 10.2611L13.0692 11.317ZM8.93023 11.317C9.50002 10.7421 9.88356 10.3567 10.2062 10.0976C10.517 9.84803 10.6977 9.77792 10.8439 9.75929L10.6542 8.27133C10.121 8.33929 9.68336 8.59367 9.26694 8.92809C8.86235 9.25302 8.40981 9.71122 7.86485 10.2611L8.93023 11.317ZM14.1345 10.2611C13.5896 9.71122 13.137 9.25302 12.7324 8.92809C12.316 8.59367 11.8784 8.3393 11.3452 8.27133L11.1555 9.75929C11.3017 9.77792 11.4824 9.84803 11.7932 10.0976C12.1158 10.3567 12.4994 10.7421 13.0692 11.317L14.1345 10.2611ZM10.8439 9.75929C10.8956 9.7527 10.9476 9.7494 10.9997 9.7494L10.9997 8.2494C10.8843 8.2494 10.7689 8.25671 10.6542 8.27133L10.8439 9.75929ZM10.9997 9.7494C11.0517 9.7494 11.1038 9.7527 11.1555 9.75929L11.3452 8.27133C11.2305 8.25671 11.1151 8.2494 10.9997 8.2494L10.9997 9.7494ZM11.7497 9.7994C11.7497 9.79888 11.7497 9.79836 11.7497 9.79784C11.7497 9.79731 11.7497 9.79679 11.7497 9.79626C11.7497 9.79574 11.7497 9.79521 11.7497 9.79469C11.7497 9.79416 11.7497 9.79363 11.7497 9.7931C11.7497 9.79257 11.7497 9.79204 11.7497 9.79151C11.7497 9.79098 11.7497 9.79045 11.7497 9.78992C11.7497 9.78939 11.7497 9.78885 11.7497 9.78832C11.7497 9.78778 11.7497 9.78725 11.7497 9.78671C11.7497 9.78617 11.7497 9.78564 11.7497 9.7851C11.7497 9.78456 11.7497 9.78402 11.7497 9.78348C11.7497 9.78294 11.7497 9.7824 11.7497 9.78185C11.7497 9.78131 11.7497 9.78077 11.7497 9.78022C11.7497 9.77968 11.7497 9.77913 11.7497 9.77859C11.7497 9.77804 11.7497 9.77749 11.7497 9.77695C11.7497 9.7764 11.7497 9.77585 11.7497 9.7753C11.7497 9.77475 11.7497 9.7742 11.7497 9.77364C11.7497 9.77309 11.7497 9.77254 11.7497 9.77199C11.7497 9.77143 11.7497 9.77088 11.7497 9.77032C11.7497 9.76977 11.7497 9.76921 11.7497 9.76865C11.7497 9.7681 11.7497 9.76754 11.7497 9.76698C11.7497 9.76642 11.7497 9.76586 11.7497 9.7653C11.7497 9.76474 11.7497 9.76418 11.7497 9.76361C11.7497 9.76305 11.7497 9.76249 11.7497 9.76192C11.7497 9.76136 11.7497 9.76079 11.7497 9.76023C11.7497 9.75966 11.7497 9.75909 11.7497 9.75853C11.7497 9.75796 11.7497 9.75739 11.7497 9.75682C11.7497 9.75625 11.7497 9.75568 11.7497 9.75511C11.7497 9.75454 11.7497 9.75396 11.7497 9.75339C11.7497 9.75282 11.7497 9.75224 11.7497 9.75167C11.7497 9.75109 11.7497 9.75052 11.7497 9.74994C11.7497 9.74936 11.7497 9.74879 11.7497 9.74821C11.7497 9.74763 11.7497 9.74705 11.7497 9.74647C11.7497 9.74589 11.7497 9.74531 11.7497 9.74473C11.7497 9.74415 11.7497 9.74357 11.7497 9.74298C11.7497 9.7424 11.7497 9.74182 11.7497 9.74123C11.7497 9.74065 11.7497 9.74006 11.7497 9.73947C11.7497 9.73889 11.7497 9.7383 11.7497 9.73771C11.7497 9.73713 11.7497 9.73654 11.7497 9.73595C11.7497 9.73536 11.7497 9.73477 11.7497 9.73418C11.7497 9.73359 11.7497 9.73299 11.7497 9.7324C11.7497 9.73181 11.7497 9.73121 11.7497 9.73062C11.7497 9.73003 11.7497 9.72943 11.7497 9.72884C11.7497 9.72824 11.7497 9.72764 11.7497 9.72705C11.7497 9.72645 11.7497 9.72585 11.7497 9.72525C11.7497 9.72465 11.7497 9.72405 11.7497 9.72345C11.7497 9.72285 11.7497 9.72225 11.7497 9.72165C11.7497 9.72105 11.7497 9.72045 11.7497 9.71984C11.7497 9.71924 11.7497 9.71863 11.7497 9.71803C11.7497 9.71742 11.7497 9.71682 11.7497 9.71621C11.7497 9.71561 11.7497 9.715 11.7497 9.71439C11.7497 9.71378 11.7497 9.71318 11.7497 9.71257C11.7497 9.71196 11.7497 9.71135 11.7497 9.71074C11.7497 9.71013 11.7497 9.70952 11.7497 9.7089C11.7497 9.70829 11.7497 9.70768 11.7497 9.70707C11.7497 9.70645 11.7497 9.70584 11.7497 9.70522C11.7497 9.70461 11.7497 9.70399 11.7497 9.70338C11.7497 9.70276 11.7497 9.70215 11.7497 9.70153C11.7497 9.70091 11.7497 9.70029 11.7497 9.69967C11.7497 9.69905 11.7497 9.69844 11.7497 9.69782C11.7497 9.6972 11.7497 9.69657 11.7497 9.69595C11.7497 9.69533 11.7497 9.69471 11.7497 9.69409C11.7497 9.69346 11.7497 9.69284 11.7497 9.69222C11.7497 9.69159 11.7497 9.69097 11.7497 9.69034C11.7497 9.68972 11.7497 9.68909 11.7497 9.68846C11.7497 9.68784 11.7497 9.68721 11.7497 9.68658C11.7497 9.68595 11.7497 9.68533 11.7497 9.6847C11.7497 9.68407 11.7497 9.68344 11.7497 9.68281C11.7497 9.68218 11.7497 9.68155 11.7497 9.68091C11.7497 9.68028 11.7497 9.67965 11.7497 9.67902C11.7497 9.67839 11.7497 9.67775 11.7497 9.67712C11.7497 9.67648 11.7497 9.67585 11.7497 9.67521C11.7497 9.67458 11.7497 9.67394 11.7497 9.67331C11.7497 9.67267 11.7497 9.67203 11.7497 9.6714C11.7497 9.67076 11.7497 9.67012 11.7497 9.66948C11.7497 9.66884 11.7497 9.6682 11.7497 9.66756C11.7497 9.66692 11.7497 9.66628 11.7497 9.66564C11.7497 9.665 11.7497 9.66436 11.7497 9.66372C11.7497 9.66307 11.7497 9.66243 11.7497 9.66179C11.7497 9.66115 11.7497 9.6605 11.7497 9.65986C11.7497 9.65921 11.7497 9.65857 11.7497 9.65792C11.7497 9.65728 11.7497 9.65663 11.7497 9.65598C11.7497 9.65534 11.7497 9.65469 11.7497 9.65404C11.7497 9.6534 11.7497 9.65275 11.7497 9.6521C11.7497 9.65145 11.7497 9.6508 11.7497 9.65015C11.7497 9.6495 11.7497 9.64885 11.7497 9.6482C11.7497 9.64755 11.7497 9.6469 11.7497 9.64625C11.7497 9.6456 11.7497 9.64494 11.7497 9.64429C11.7497 9.64364 11.7497 9.64298 11.7497 9.64233C11.7497 9.64168 11.7497 9.64102 11.7497 9.64037C11.7497 9.63971 11.7497 9.63906 11.7497 9.6384C11.7497 9.63775 11.7497 9.63709 11.7497 9.63643C11.7497 9.63578 11.7497 9.63512 11.7497 9.63446C11.7497 9.63381 11.7497 9.63315 11.7497 9.63249C11.7497 9.63183 11.7497 9.63117 11.7497 9.63051C11.7497 9.62985 11.7497 9.62919 11.7497 9.62853C11.7497 9.62787 11.7497 9.62721 11.7497 9.62655C11.7497 9.62589 11.7497 9.62523 11.7497 9.62457C11.7497 9.6239 11.7497 9.62324 11.7497 9.62258C11.7497 9.62191 11.7497 9.62125 11.7497 9.62059C11.7497 9.61992 11.7497 9.61926 11.7497 9.61859C11.7497 9.61793 11.7497 9.61726 11.7497 9.6166C11.7497 9.61593 11.7497 9.61527 11.7497 9.6146C11.7497 9.61394 11.7497 9.61327 11.7497 9.6126C11.7497 9.61193 11.7497 9.61127 11.7497 9.6106C11.7497 9.60993 11.7497 9.60926 11.7497 9.60859C11.7497 9.60792 11.7497 9.60726 11.7497 9.60659C11.7497 9.60592 11.7497 9.60525 11.7497 9.60458C11.7497 9.60391 11.7497 9.60324 11.7497 9.60256C11.7497 9.60189 11.7497 9.60122 11.7497 9.60055C11.7497 9.59988 11.7497 9.59921 11.7497 9.59853C11.7497 9.59786 11.7497 9.59719 11.7497 9.59652C11.7497 9.59584 11.7497 9.59517 11.7497 9.59449C11.7497 9.59382 11.7497 9.59315 11.7497 9.59247C11.7497 9.5918 11.7497 9.59112 11.7497 9.59045C11.7497 9.58977 11.7497 9.5891 11.7497 9.58842C11.7497 9.58774 11.7497 9.58707 11.7497 9.58639C11.7497 9.58571 11.7497 9.58504 11.7497 9.58436C11.7497 9.58368 11.7497 9.58301 11.7497 9.58233C11.7497 9.58165 11.7497 9.58097 11.7497 9.58029C11.7497 9.57961 11.7497 9.57894 11.7497 9.57826C11.7497 9.57758 11.7497 9.5769 11.7497 9.57622C11.7497 9.57554 11.7497 9.57486 11.7497 9.57418C11.7497 9.5735 11.7497 9.57282 11.7497 9.57214C11.7497 9.57146 11.7497 9.57077 11.7497 9.57009C11.7497 9.56941 11.7497 9.56873 11.7497 9.56805C11.7497 9.56737 11.7497 9.56668 11.7497 9.566C11.7497 9.56532 11.7497 9.56463 11.7497 9.56395C11.7497 9.56327 11.7497 9.56259 11.7497 9.5619C11.7497 9.56122 11.7497 9.56053 11.7497 9.55985C11.7497 9.55917 11.7497 9.55848 11.7497 9.5578C11.7497 9.55711 11.7497 9.55643 11.7497 9.55574C11.7497 9.55506 11.7497 9.55437 11.7497 9.55369C11.7497 9.553 11.7497 9.55232 11.7497 9.55163C11.7497 9.55094 11.7497 9.55026 11.7497 9.54957C11.7497 9.54888 11.7497 9.5482 11.7497 9.54751C11.7497 9.54682 11.7497 9.54614 11.7497 9.54545C11.7497 9.54476 11.7497 9.54408 11.7497 9.54339C11.7497 9.5427 11.7497 9.54201 11.7497 9.54132C11.7497 9.54064 11.7497 9.53995 11.7497 9.53926C11.7497 9.53857 11.7497 9.53788 11.7497 9.53719C11.7497 9.5365 11.7497 9.53582 11.7497 9.53513C11.7497 9.53444 11.7497 9.53375 11.7497 9.53306C11.7497 9.53237 11.7497 9.53168 11.7497 9.53099C11.7497 9.5303 11.7497 9.52961 11.7497 9.52892C11.7497 9.52823 11.7497 9.52754 11.7497 9.52685C11.7497 9.52616 11.7497 9.52547 11.7497 9.52478C11.7497 9.52408 11.7497 9.52339 11.7497 9.5227C11.7497 9.52201 11.7497 9.52132 11.7497 9.52063C11.7497 9.51994 11.7497 9.51925 11.7497 9.51855C11.7497 9.51786 11.7497 9.51717 11.7497 9.51648C11.7497 9.51579 11.7497 9.51509 11.7497 9.5144C11.7497 9.51371 11.7497 9.51302 11.7497 9.51233C11.7497 9.51163 11.7497 9.51094 11.7497 9.51025C11.7497 9.50956 11.7497 9.50886 11.7497 9.50817C11.7497 9.50748 11.7497 9.50678 11.7497 9.50609C11.7497 9.5054 11.7497 9.50471 11.7497 9.50401C11.7497 9.50332 11.7497 9.50263 11.7497 9.50193C11.7497 9.50124 11.7497 9.50055 11.7497 9.49985C11.7497 9.49916 11.7497 9.49847 11.7497 9.49777C11.7497 9.49708 11.7497 9.49638 11.7497 9.49569C11.7497 9.495 11.7497 9.4943 11.7497 9.49361C11.7497 9.49292 11.7497 9.49222 11.7497 9.49153C11.7497 9.49083 11.7497 9.49014 11.7497 9.48945C11.7497 9.48875 11.7497 9.48806 11.7497 9.48736C11.7497 9.48667 11.7497 9.48597 11.7497 9.48528C11.7497 9.48459 11.7497 9.48389 11.7497 9.4832C11.7497 9.4825 11.7497 9.48181 11.7497 9.48111C11.7497 9.48042 11.7497 9.47973 11.7497 9.47903C11.7497 9.47834 11.7497 9.47764 11.7497 9.47695C11.7497 9.47625 11.7497 9.47556 11.7497 9.47486C11.7497 9.47417 11.7497 9.47348 11.7497 9.47278C11.7497 9.47209 11.7497 9.47139 11.7497 9.4707C11.7497 9.47 11.7497 9.46931 11.7497 9.46861C11.7497 9.46792 11.7497 9.46723 11.7497 9.46653C11.7497 9.46584 11.7497 9.46514 11.7497 9.46445C11.7497 9.46375 11.7497 9.46306 11.7497 9.46237C11.7497 9.46167 11.7497 9.46098 11.7497 9.46028C11.7497 9.45959 11.7497 9.45889 11.7497 9.4582C11.7497 9.45751 11.7497 9.45681 11.7497 9.45612C11.7497 9.45542 11.7497 9.45473 11.7497 9.45404C11.7497 9.45334 11.7497 9.45265 11.7497 9.45195C11.7497 9.45126 11.7497 9.45057 11.7497 9.44987C11.7497 9.44918 11.7497 9.44849 11.7497 9.44779C11.7497 9.4471 11.7497 9.44641 11.7497 9.44571C11.7497 9.44502 11.7497 9.44433 11.7497 9.44363C11.7497 9.44294 11.7497 9.44225 11.7497 9.44155C11.7497 9.44086 11.7497 9.44017 11.7497 9.43947C11.7497 9.43878 11.7497 9.43809 11.7497 9.4374C11.7497 9.4367 11.7497 9.43601 11.7497 9.43532C11.7497 9.43463 11.7497 9.43393 11.7497 9.43324C11.7497 9.43255 11.7497 9.43186 11.7497 9.43116C11.7497 9.43047 11.7497 9.42978 11.7497 9.42909C11.7497 9.4284 11.7497 9.42771 11.7497 9.42701C11.7497 9.42632 11.7497 9.42563 11.7497 9.42494C11.7497 9.42425 11.7497 9.42356 11.7497 9.42287C11.7497 9.42218 11.7497 9.42149 11.7497 9.4208C11.7497 9.4201 11.7497 9.41941 11.7497 9.41872C11.7497 9.41803 11.7497 9.41734 11.7497 9.41665C11.7497 9.41596 11.7497 9.41527 11.7497 9.41458C11.7497 9.41389 11.7497 9.4132 11.7497 9.41252C11.7497 9.41183 11.7497 9.41114 11.7497 9.41045C11.7497 9.40976 11.7497 9.40907 11.7497 9.40838C11.7497 9.40769 11.7497 9.407 11.7497 9.40632C11.7497 9.40563 11.7497 9.40494 11.7497 9.40425C11.7497 9.40356 11.7497 9.40288 11.7497 9.40219C11.7497 9.4015 11.7497 9.40081 11.7497 9.40013C11.7497 9.39944 11.7497 9.39875 11.7497 9.39807C11.7497 9.39738 11.7497 9.39669 11.7497 9.39601C11.7497 9.39532 11.7497 9.39464 11.7497 9.39395C11.7497 9.39326 11.7497 9.39258 11.7497 9.39189C11.7497 9.39121 11.7497 9.39052 11.7497 9.38984C11.7497 9.38915 11.7497 9.38847 11.7497 9.38779C11.7497 9.3871 11.7497 9.38642 11.7497 9.38573C11.7497 9.38505 11.7497 9.38437 11.7497 9.38368C11.7497 9.383 11.7497 9.38232 11.7497 9.38163C11.7497 9.38095 11.7497 9.38027 11.7497 9.37959C11.7497 9.3789 11.7497 9.37822 11.7497 9.37754C11.7497 9.37686 11.7497 9.37618 11.7497 9.3755C11.7497 9.37482 11.7497 9.37414 11.7497 9.37345C11.7497 9.37277 11.7497 9.37209 11.7497 9.37141C11.7497 9.37073 11.7497 9.37005 11.7497 9.36937C11.7497 9.3687 11.7497 9.36802 11.7497 9.36734C11.7497 9.36666 11.7497 9.36598 11.7497 9.3653C11.7497 9.36462 11.7497 9.36395 11.7497 9.36327C11.7497 9.36259 11.7497 9.36191 11.7497 9.36124C11.7497 9.36056 11.7497 9.35988 11.7497 9.35921C11.7497 9.35853 11.7497 9.35786 11.7497 9.35718C11.7497 9.3565 11.7497 9.35583 11.7497 9.35515C11.7497 9.35448 11.7497 9.35381 11.7497 9.35313C11.7497 9.35246 11.7497 9.35178 11.7497 9.35111C11.7497 9.35044 11.7497 9.34976 11.7497 9.34909C11.7497 9.34842 11.7497 9.34775 11.7497 9.34707C11.7497 9.3464 11.7497 9.34573 11.7497 9.34506C11.7497 9.34439 11.7497 9.34372 11.7497 9.34305C11.7497 9.34238 11.7497 9.3417 11.7497 9.34104C11.7497 9.34037 11.7497 9.3397 11.7497 9.33903C11.7497 9.33836 11.7497 9.33769 11.7497 9.33702C11.7497 9.33635 11.7497 9.33569 11.7497 9.33502C11.7497 9.33435 11.7497 9.33368 11.7497 9.33302C11.7497 9.33235 11.7497 9.33168 11.7497 9.33102C11.7497 9.33035 11.7497 9.32969 11.7497 9.32902C11.7497 9.32836 11.7497 9.32769 11.7497 9.32703C11.7497 9.32636 11.7497 9.3257 11.7497 9.32504C11.7497 9.32437 11.7497 9.32371 11.7497 9.32305C11.7497 9.32239 11.7497 9.32172 11.7497 9.32106C11.7497 9.3204 11.7497 9.31974 11.7497 9.31908C11.7497 9.31842 11.7497 9.31776 11.7497 9.3171C11.7497 9.31644 11.7497 9.31578 11.7497 9.31512C11.7497 9.31446 11.7497 9.3138 11.7497 9.31315C11.7497 9.31249 11.7497 9.31183 11.7497 9.31117C11.7497 9.31052 11.7497 9.30986 11.7497 9.3092C11.7497 9.30855 11.7497 9.30789 11.7497 9.30724C11.7497 9.30658 11.7497 9.30593 11.7497 9.30527C11.7497 9.30462 11.7497 9.30397 11.7497 9.30331C11.7497 9.30266 11.7497 9.30201 11.7497 9.30136C11.7497 9.3007 11.7497 9.30005 11.7497 9.2994C11.7497 9.29875 11.7497 9.2981 11.7497 9.29745C11.7497 9.2968 11.7497 9.29615 11.7497 9.2955C11.7497 9.29485 11.7497 9.2942 11.7497 9.29356C11.7497 9.29291 11.7497 9.29226 11.7497 9.29161C11.7497 9.29097 11.7497 9.29032 11.7497 9.28968C11.7497 9.28903 11.7497 9.28838 11.7497 9.28774C11.7497 9.28709 11.7497 9.28645 11.7497 9.28581C11.7497 9.28516 11.7497 9.28452 11.7497 9.28388C11.7497 9.28324 11.7497 9.28259 11.7497 9.28195C11.7497 9.28131 11.7497 9.28067 11.7497 9.28003C11.7497 9.27939 11.7497 9.27875 11.7497 9.27811C11.7497 9.27747 11.7497 9.27683 11.7497 9.27619C11.7497 9.27556 11.7497 9.27492 11.7497 9.27428C11.7497 9.27365 11.7497 9.27301 11.7497 9.27237C11.7497 9.27174 11.7497 9.2711 11.7497 9.27047C11.7497 9.26983 11.7497 9.2692 11.7497 9.26857C11.7497 9.26793 11.7497 9.2673 11.7497 9.26667C11.7497 9.26604 11.7497 9.26541 11.7497 9.26477C11.7497 9.26414 11.7497 9.26351 11.7497 9.26288C11.7497 9.26225 11.7497 9.26163 11.7497 9.261C11.7497 9.26037 11.7497 9.25974 11.7497 9.25911C11.7497 9.25849 11.7497 9.25786 11.7497 9.25724C11.7497 9.25661 11.7497 9.25598 11.7497 9.25536C11.7497 9.25474 11.7497 9.25411 11.7497 9.25349C11.7497 9.25287 11.7497 9.25224 11.7497 9.25162C11.7497 9.251 11.7497 9.25038 11.7497 9.24976C11.7497 9.24914 11.7497 9.24852 11.7497 9.2479C11.7497 9.24728 11.7497 9.24666 11.7497 9.24604C11.7497 9.24542 11.7497 9.24481 11.7497 9.24419C11.7497 9.24357 11.7497 9.24296 11.7497 9.24234C11.7497 9.24173 11.7497 9.24111 11.7497 9.2405C11.7497 9.23989 11.7497 9.23927 11.7497 9.23866C11.7497 9.23805 11.7497 9.23744 11.7497 9.23682C11.7497 9.23621 11.7497 9.2356 11.7497 9.23499C11.7497 9.23438 11.7497 9.23378 11.7497 9.23317C11.7497 9.23256 11.7497 9.23195 11.7497 9.23135C11.7497 9.23074 11.7497 9.23013 11.7497 9.22953C11.7497 9.22892 11.7497 9.22832 11.7497 9.22771C11.7497 9.22711 11.7497 9.22651 11.7497 9.2259C11.7497 9.2253 11.7497 9.2247 11.7497 9.2241C11.7497 9.2235 11.7497 9.2229 11.7497 9.2223C11.7497 9.2217 11.7497 9.2211 11.7497 9.2205C11.7497 9.21991 11.7497 9.21931 11.7497 9.21871C11.7497 9.21812 11.7497 9.21752 11.7497 9.21693C11.7497 9.21633 11.7497 9.21574 11.7497 9.21514C11.7497 9.21455 11.7497 9.21396 11.7497 9.21337C11.7497 9.21278 11.7497 9.21218 11.7497 9.21159C11.7497 9.211 11.7497 9.21042 11.7497 9.20983C11.7497 9.20924 11.7497 9.20865 11.7497 9.20806C11.7497 9.20748 11.7497 9.20689 11.7497 9.20631C11.7497 9.20572 11.7497 9.20514 11.7497 9.20455C11.7497 9.20397 11.7497 9.20339 11.7497 9.2028C11.7497 9.20222 11.7497 9.20164 11.7497 9.20106C11.7497 9.20048 11.7497 9.1999 11.7497 9.19932C11.7497 9.19874 11.7497 9.19816 11.7497 9.19759C11.7497 9.19701 11.7497 9.19643 11.7497 9.19586C11.7497 9.19528 11.7497 9.19471 11.7497 9.19414C11.7497 9.19356 11.7497 9.19299 11.7497 9.19242C11.7497 9.19184 11.7497 9.19127 11.7497 9.1907C11.7497 9.19013 11.7497 9.18956 11.7497 9.189C11.7497 9.18843 11.7497 9.18786 11.7497 9.18729C11.7497 9.18673 11.7497 9.18616 11.7497 9.18559C11.7497 9.18503 11.7497 9.18446 11.7497 9.1839C11.7497 9.18334 11.7497 9.18278 11.7497 9.18221C11.7497 9.18165 11.7497 9.18109 11.7497 9.18053C11.7497 9.17997 11.7497 9.17941 11.7497 9.17886C11.7497 9.1783 11.7497 9.17774 11.7497 9.17718C11.7497 9.17663 11.7497 9.17607 11.7497 9.17552C11.7497 9.17496 11.7497 9.17441 11.7497 9.17386C11.7497 9.17331 11.7497 9.17276 11.7497 9.1722C11.7497 9.17165 11.7497 9.1711 11.7497 9.17056C11.7497 9.17001 11.7497 9.16946 11.7497 9.16891C11.7497 9.16836 11.7497 9.16782 11.7497 9.16727C11.7497 9.16673 11.7497 9.16618 11.7497 9.16564C11.7497 9.1651 11.7497 9.16456 11.7497 9.16402C11.7497 9.16347 11.7497 9.16293 11.7497 9.16239C11.7497 9.16186 11.7497 9.16132 11.7497 9.16078C11.7497 9.16024 11.7497 9.15971 11.7497 9.15917C11.7497 9.15863 11.7497 9.1581 11.7497 9.15757C11.7497 9.15703 11.7497 9.1565 11.7497 9.15597C11.7497 9.15544 11.7497 9.15491 11.7497 9.15438C11.7497 9.15385 11.7497 9.15332 11.7497 9.15279C11.7497 9.15226 11.7497 9.15174 11.7497 9.15121C11.7497 9.15069 11.7497 9.15016 11.7497 9.14964C11.7497 9.14912 11.7497 9.14859 11.7497 9.14807C11.7497 9.14755 11.7497 9.14703 11.7497 9.14651C11.7497 9.14599 11.7497 9.14547 11.7497 9.14495C11.7497 9.14444 11.7497 9.14392 11.7497 9.14341C11.7497 9.14289 11.7497 9.14238 11.7497 9.14186C11.7497 9.14135 11.7497 9.14084 11.7497 9.14033C11.7497 9.13981 11.7497 9.1393 11.7497 9.13879C11.7497 9.13829 11.7497 9.13778 11.7497 9.13727C11.7497 9.13676 11.7497 9.13626 11.7497 9.13575C11.7497 9.13525 11.7497 9.13474 11.7497 9.13424C11.7497 9.13374 11.7497 9.13324 11.7497 9.13274C11.7497 9.13224 11.7497 9.13174 11.7497 9.13124C11.7497 9.13074 11.7497 9.13024 11.7497 9.12975C11.7497 9.12925 11.7497 9.12875 11.7497 9.12826C11.7497 9.12777 11.7497 9.12727 11.7497 9.12678C11.7497 9.12629 11.7497 9.1258 11.7497 9.12531C11.7497 9.12482 11.7497 9.12433 11.7497 9.12384C11.7497 9.12336 11.7497 9.12287 11.7497 9.12238C11.7497 9.1219 11.7497 9.12141 11.7497 9.12093C11.7497 9.12045 11.7497 9.11997 11.7497 9.11949C11.7497 9.119 11.7497 9.11853 11.7497 9.11805C11.7497 9.11757 11.7497 9.11709 11.7497 9.11661C11.7497 9.11614 11.7497 9.11566 11.7497 9.11519C11.7497 9.11472 11.7497 9.11424 11.7497 9.11377C11.7497 9.1133 11.7497 9.11283 11.7497 9.11236C11.7497 9.11189 11.7497 9.11142 11.7497 9.11095C11.7497 9.11049 11.7497 9.11002 11.7497 9.10956C11.7497 9.10909 11.7497 9.10863 11.7497 9.10817C11.7497 9.1077 11.7497 9.10724 11.7497 9.10678C11.7497 9.10632 11.7497 9.10586 11.7497 9.10541C11.7497 9.10495 11.7497 9.10449 11.7497 9.10404C11.7497 9.10358 11.7497 9.10313 11.7497 9.10268C11.7497 9.10222 11.7497 9.10177 11.7497 9.10132C11.7497 9.10087 11.7497 9.10042 11.7497 9.09997C11.7497 9.09952 11.7497 9.09908 11.7497 9.09863C11.7497 9.09819 11.7497 9.09774 11.7497 9.0973C11.7497 9.09686 11.7497 9.09641 11.7497 9.09597C11.7497 9.09553 11.7497 9.09509 11.7497 9.09466C11.7497 9.09422 11.7497 9.09378 11.7497 9.09334C11.7497 9.09291 11.7497 9.09247 11.7497 9.09204C11.7497 9.09161 11.7497 9.09118 11.7497 9.09074C11.7497 9.09031 11.7497 9.08988 11.7497 9.08946C11.7497 9.08903 11.7497 9.0886 11.7497 9.08818C11.7497 9.08775 11.7497 9.08733 11.7497 9.0869C11.7497 9.08648 11.7497 9.08606 11.7497 9.08564C11.7497 9.08522 11.7497 9.0848 11.7497 9.08438C11.7497 9.08396 11.7497 9.08354 11.7497 9.08313C11.7497 9.08271 11.7497 9.0823 11.7497 9.08189C11.7497 9.08147 11.7497 9.08106 11.7497 9.08065C11.7497 9.08024 11.7497 9.07983 11.7497 9.07942C11.7497 9.07902 11.7497 9.07861 11.7497 9.0782C11.7497 9.0778 11.7497 9.0774 11.7497 9.07699C11.7497 9.07659 11.7497 9.07619 11.7497 9.07579C11.7497 9.07539 11.7497 9.07499 11.7497 9.07459C11.7497 9.0742 11.7497 9.0738 11.7497 9.07341C11.7497 9.07301 11.7497 9.07262 11.7497 9.07223C11.7497 9.07184 11.7497 9.07144 11.7497 9.07106C11.7497 9.07067 11.7497 9.07028 11.7497 9.06989C11.7497 9.06951 11.7497 9.06912 11.7497 9.06874C11.7497 9.06835 11.7497 9.06797 11.7497 9.06759C11.7497 9.06721 11.7497 9.06683 11.7497 9.06645C11.7497 9.06607 11.7497 9.0657 11.7497 9.06532C11.7497 9.06495 11.7497 9.06457 11.7497 9.0642C11.7497 9.06383 11.7497 9.06345 11.7497 9.06308C11.7497 9.06271 11.7497 9.06235 11.7497 9.06198C11.7497 9.06161 11.7497 9.06125 11.7497 9.06088C11.7497 9.06052 11.7497 9.06015 11.7497 9.05979C11.7497 9.05943 11.7497 9.05907 11.7497 9.05871C11.7497 9.05835 11.7497 9.058 11.7497 9.05764C11.7497 9.05729 11.7497 9.05693 11.7497 9.05658C11.7497 9.05622 11.7497 9.05587 11.7497 9.05552C11.7497 9.05517 11.7497 9.05482 11.7497 9.05448C11.7497 9.05413 11.7497 9.05378 11.7497 9.05344C11.7497 9.05309 11.7497 9.05275 11.7497 9.05241C11.7497 9.05207 11.7497 9.05173 11.7497 9.05139C11.7497 9.05105 11.7497 9.05071 11.7497 9.05038C11.7497 9.05004 11.7497 9.04971 11.7497 9.04938C11.7497 9.04904 11.7497 9.04871 11.7497 9.04838C11.7497 9.04805 11.7497 9.04772 11.7497 9.0474C11.7497 9.04707 11.7497 9.04674 11.7497 9.04642C11.7497 9.0461 11.7497 9.04577 11.7497 9.04545C11.7497 9.04513 11.7497 9.04481 11.7497 9.0445C11.7497 9.04418 11.7497 9.04386 11.7497 9.04355C11.7497 9.04323 11.7497 9.04292 11.7497 9.04261C11.7497 9.04229 11.7497 9.04198 11.7497 9.04167C11.7497 9.04137 11.7497 9.04106 11.7497 9.04075C11.7497 9.04045 11.7497 9.04014 11.7497 9.03984C11.7497 9.03954 11.7497 9.03924 11.7497 9.03894C11.7497 9.03864 11.7497 9.03834 11.7497 9.03804C11.7497 9.03774 11.7497 9.03745 11.7497 9.03716C11.7497 9.03686 11.7497 9.03657 11.7497 9.03628C11.7497 9.03599 11.7497 9.0357 11.7497 9.03541C11.7497 9.03513 11.7497 9.03484 11.7497 9.03456C11.7497 9.03427 11.7497 9.03399 11.7497 9.03371C11.7497 9.03343 11.7497 9.03315 11.7497 9.03287C11.7497 9.03259 11.7497 9.03231 11.7497 9.03204C11.7497 9.03176 11.7497 9.03149 11.7497 9.03122C11.7497 9.03095 11.7497 9.03068 11.7497 9.03041C11.7497 9.03014 11.7497 9.02987 11.7497 9.02961C11.7497 9.02934 11.7497 9.02908 11.7497 9.02882C11.7497 9.02856 11.7497 9.0283 11.7497 9.02804C11.7497 9.02778 11.7497 9.02752 11.7497 9.02726C11.7497 9.02701 11.7497 9.02676 11.7497 9.0265C11.7497 9.02625 11.7497 9.026 11.7497 9.02575C11.7497 9.0255 11.7497 9.02525 11.7497 9.02501C11.7497 9.02476 11.7497 9.02452 11.7497 9.02428C11.7497 9.02403 11.7497 9.02379 11.7497 9.02355C11.7497 9.02331 11.7497 9.02308 11.7497 9.02284C11.7497 9.0226 11.7497 9.02237 11.7497 9.02214C11.7497 9.0219 11.7497 9.02167 11.7497 9.02144C11.7497 9.02121 11.7497 9.02099 11.7497 9.02076C11.7497 9.02053 11.7497 9.02031 11.7497 9.02009C11.7497 9.01986 11.7497 9.01964 11.7497 9.01942C11.7497 9.0192 11.7497 9.01899 11.7497 9.01877C11.7497 9.01856 11.7497 9.01834 11.7497 9.01813C11.7497 9.01792 11.7497 9.0177 11.7497 9.0175C11.7497 9.01729 11.7497 9.01708 11.7497 9.01687C11.7497 9.01667 11.7497 9.01646 11.7497 9.01626C11.7497 9.01606 11.7497 9.01586 11.7497 9.01566C11.7497 9.01546 11.7497 9.01526 11.7497 9.01507C11.7497 9.01487 11.7497 9.01468 11.7497 9.01449C11.7497 9.01429 11.7497 9.0141 11.7497 9.01392C11.7497 9.01373 11.7497 9.01354 11.7497 9.01336C11.7497 9.01317 11.7497 9.01299 11.7497 9.01281C11.7497 9.01262 11.7497 9.01244 11.7497 9.01227C11.7497 9.01209 11.7497 9.01191 11.7497 9.01174C11.7497 9.01156 11.7497 9.01139 11.7497 9.01122C11.7497 9.01105 11.7497 9.01088 11.7497 9.01071C11.7497 9.01054 11.7497 9.01038 11.7497 9.01021C11.7497 9.01005 11.7497 9.00989 11.7497 9.00973C11.7497 9.00957 11.7497 9.00941 11.7497 9.00925C11.7497 9.00909 11.7497 9.00894 11.7497 9.00879C11.7497 9.00863 11.7497 9.00848 11.7497 9.00833C11.7497 9.00818 11.7497 9.00803 11.7497 9.00789C11.7497 9.00774 11.7497 9.0076 11.7497 9.00746C11.7497 9.00731 11.7497 9.00717 11.7497 9.00703C11.7497 9.0069 11.7497 9.00676 11.7497 9.00662C11.7497 9.00649 11.7497 9.00635 11.7497 9.00622C11.7497 9.00609 11.7497 9.00596 11.7497 9.00583C11.7497 9.00571 11.7497 9.00558 11.7497 9.00546C11.7497 9.00533 11.7497 9.00521 11.7497 9.00509C11.7497 9.00497 11.7497 9.00485 11.7497 9.00473C11.7497 9.00462 11.7497 9.0045 11.7497 9.00439C11.7497 9.00428 11.7497 9.00417 11.7497 9.00406C11.7497 9.00395 11.7497 9.00384 11.7497 9.00373C11.7497 9.00363 11.7497 9.00352 11.7497 9.00342C11.7497 9.00332 11.7497 9.00322 11.7497 9.00312C11.7497 9.00303 11.7497 9.00293 11.7497 9.00284C11.7497 9.00274 11.7497 9.00265 11.7497 9.00256C11.7497 9.00247 11.7497 9.00238 11.7497 9.00229C11.7497 9.00221 11.7497 9.00212 11.7497 9.00204C11.7497 9.00196 11.7497 9.00187 11.7497 9.0018C11.7497 9.00172 11.7497 9.00164 11.7497 9.00156C11.7497 9.00149 11.7497 9.00142 11.7497 9.00134C11.7497 9.00127 11.7497 9.0012 11.7497 9.00114C11.7497 9.00107 11.7497 9.001 11.7497 9.00094C11.7497 9.00088 11.7497 9.00081 11.7497 9.00076C11.7497 9.0007 11.7497 9.00064 11.7497 9.00058C11.7497 9.00053 11.7497 9.00047 11.7497 9.00042C11.7497 9.00037 11.7497 9.00032 11.7497 9.00027C11.7497 9.00022 11.7497 9.00018 11.7497 9.00013C11.7497 9.00009 11.7497 9.00005 11.7497 9.00001C11.7497 8.99997 11.7497 8.99993 11.7497 8.99989C11.7497 8.99986 11.7497 8.99982 11.7497 8.99979C11.7497 8.99976 11.7497 8.99973 11.7497 8.9997C11.7497 8.99967 11.7497 8.99964 11.7497 8.99962C11.7497 8.9996 11.7497 8.99957 11.7497 8.99955C11.7497 8.99953 11.7497 8.99952 11.7497 8.9995C11.7497 8.99948 11.7497 8.99947 11.7497 8.99946C11.7497 8.99944 11.7497 8.99943 11.7497 8.99943C11.7497 8.99942 11.7497 8.99941 11.7497 8.99941C11.7497 8.9994 11.7497 8.9994 10.9997 8.9994C10.2497 8.9994 10.2497 8.9994 10.2497 8.99941C10.2497 8.99941 10.2497 8.99942 10.2497 8.99943C10.2497 8.99943 10.2497 8.99944 10.2497 8.99946C10.2497 8.99947 10.2497 8.99948 10.2497 8.9995C10.2497 8.99952 10.2497 8.99953 10.2497 8.99955C10.2497 8.99957 10.2497 8.9996 10.2497 8.99962C10.2497 8.99964 10.2497 8.99967 10.2497 8.9997C10.2497 8.99973 10.2497 8.99976 10.2497 8.99979C10.2497 8.99982 10.2497 8.99986 10.2497 8.99989C10.2497 8.99993 10.2497 8.99997 10.2497 9.00001C10.2497 9.00005 10.2497 9.00009 10.2497 9.00013C10.2497 9.00018 10.2497 9.00022 10.2497 9.00027C10.2497 9.00032 10.2497 9.00037 10.2497 9.00042C10.2497 9.00047 10.2497 9.00053 10.2497 9.00058C10.2497 9.00064 10.2497 9.0007 10.2497 9.00076C10.2497 9.00081 10.2497 9.00088 10.2497 9.00094C10.2497 9.001 10.2497 9.00107 10.2497 9.00114C10.2497 9.0012 10.2497 9.00127 10.2497 9.00134C10.2497 9.00142 10.2497 9.00149 10.2497 9.00156C10.2497 9.00164 10.2497 9.00172 10.2497 9.0018C10.2497 9.00187 10.2497 9.00196 10.2497 9.00204C10.2497 9.00212 10.2497 9.00221 10.2497 9.00229C10.2497 9.00238 10.2497 9.00247 10.2497 9.00256C10.2497 9.00265 10.2497 9.00274 10.2497 9.00284C10.2497 9.00293 10.2497 9.00303 10.2497 9.00312C10.2497 9.00322 10.2497 9.00332 10.2497 9.00342C10.2497 9.00352 10.2497 9.00363 10.2497 9.00373C10.2497 9.00384 10.2497 9.00395 10.2497 9.00406C10.2497 9.00417 10.2497 9.00428 10.2497 9.00439C10.2497 9.0045 10.2497 9.00462 10.2497 9.00473C10.2497 9.00485 10.2497 9.00497 10.2497 9.00509C10.2497 9.00521 10.2497 9.00533 10.2497 9.00546C10.2497 9.00558 10.2497 9.00571 10.2497 9.00583C10.2497 9.00596 10.2497 9.00609 10.2497 9.00622C10.2497 9.00635 10.2497 9.00649 10.2497 9.00662C10.2497 9.00676 10.2497 9.0069 10.2497 9.00703C10.2497 9.00717 10.2497 9.00731 10.2497 9.00746C10.2497 9.0076 10.2497 9.00774 10.2497 9.00789C10.2497 9.00803 10.2497 9.00818 10.2497 9.00833C10.2497 9.00848 10.2497 9.00863 10.2497 9.00879C10.2497 9.00894 10.2497 9.00909 10.2497 9.00925C10.2497 9.00941 10.2497 9.00957 10.2497 9.00973C10.2497 9.00989 10.2497 9.01005 10.2497 9.01021C10.2497 9.01038 10.2497 9.01054 10.2497 9.01071C10.2497 9.01088 10.2497 9.01105 10.2497 9.01122C10.2497 9.01139 10.2497 9.01156 10.2497 9.01174C10.2497 9.01191 10.2497 9.01209 10.2497 9.01227C10.2497 9.01244 10.2497 9.01262 10.2497 9.01281C10.2497 9.01299 10.2497 9.01317 10.2497 9.01336C10.2497 9.01354 10.2497 9.01373 10.2497 9.01392C10.2497 9.0141 10.2497 9.01429 10.2497 9.01449C10.2497 9.01468 10.2497 9.01487 10.2497 9.01507C10.2497 9.01526 10.2497 9.01546 10.2497 9.01566C10.2497 9.01586 10.2497 9.01606 10.2497 9.01626C10.2497 9.01646 10.2497 9.01667 10.2497 9.01687C10.2497 9.01708 10.2497 9.01729 10.2497 9.0175C10.2497 9.0177 10.2497 9.01792 10.2497 9.01813C10.2497 9.01834 10.2497 9.01856 10.2497 9.01877C10.2497 9.01899 10.2497 9.0192 10.2497 9.01942C10.2497 9.01964 10.2497 9.01986 10.2497 9.02009C10.2497 9.02031 10.2497 9.02053 10.2497 9.02076C10.2497 9.02099 10.2497 9.02121 10.2497 9.02144C10.2497 9.02167 10.2497 9.0219 10.2497 9.02214C10.2497 9.02237 10.2497 9.0226 10.2497 9.02284C10.2497 9.02308 10.2497 9.02331 10.2497 9.02355C10.2497 9.02379 10.2497 9.02403 10.2497 9.02428C10.2497 9.02452 10.2497 9.02476 10.2497 9.02501C10.2497 9.02525 10.2497 9.0255 10.2497 9.02575C10.2497 9.026 10.2497 9.02625 10.2497 9.0265C10.2497 9.02676 10.2497 9.02701 10.2497 9.02726C10.2497 9.02752 10.2497 9.02778 10.2497 9.02804C10.2497 9.0283 10.2497 9.02856 10.2497 9.02882C10.2497 9.02908 10.2497 9.02934 10.2497 9.02961C10.2497 9.02987 10.2497 9.03014 10.2497 9.03041C10.2497 9.03068 10.2497 9.03095 10.2497 9.03122C10.2497 9.03149 10.2497 9.03176 10.2497 9.03204C10.2497 9.03231 10.2497 9.03259 10.2497 9.03287C10.2497 9.03315 10.2497 9.03343 10.2497 9.03371C10.2497 9.03399 10.2497 9.03427 10.2497 9.03456C10.2497 9.03484 10.2497 9.03513 10.2497 9.03541C10.2497 9.0357 10.2497 9.03599 10.2497 9.03628C10.2497 9.03657 10.2497 9.03686 10.2497 9.03716C10.2497 9.03745 10.2497 9.03774 10.2497 9.03804C10.2497 9.03834 10.2497 9.03864 10.2497 9.03894C10.2497 9.03924 10.2497 9.03954 10.2497 9.03984C10.2497 9.04014 10.2497 9.04045 10.2497 9.04075C10.2497 9.04106 10.2497 9.04137 10.2497 9.04167C10.2497 9.04198 10.2497 9.04229 10.2497 9.04261C10.2497 9.04292 10.2497 9.04323 10.2497 9.04355C10.2497 9.04386 10.2497 9.04418 10.2497 9.0445C10.2497 9.04481 10.2497 9.04513 10.2497 9.04545C10.2497 9.04577 10.2497 9.0461 10.2497 9.04642C10.2497 9.04674 10.2497 9.04707 10.2497 9.0474C10.2497 9.04772 10.2497 9.04805 10.2497 9.04838C10.2497 9.04871 10.2497 9.04904 10.2497 9.04938C10.2497 9.04971 10.2497 9.05004 10.2497 9.05038C10.2497 9.05071 10.2497 9.05105 10.2497 9.05139C10.2497 9.05173 10.2497 9.05207 10.2497 9.05241C10.2497 9.05275 10.2497 9.05309 10.2497 9.05344C10.2497 9.05378 10.2497 9.05413 10.2497 9.05448C10.2497 9.05482 10.2497 9.05517 10.2497 9.05552C10.2497 9.05587 10.2497 9.05622 10.2497 9.05658C10.2497 9.05693 10.2497 9.05729 10.2497 9.05764C10.2497 9.058 10.2497 9.05835 10.2497 9.05871C10.2497 9.05907 10.2497 9.05943 10.2497 9.05979C10.2497 9.06015 10.2497 9.06052 10.2497 9.06088C10.2497 9.06125 10.2497 9.06161 10.2497 9.06198C10.2497 9.06235 10.2497 9.06271 10.2497 9.06308C10.2497 9.06345 10.2497 9.06383 10.2497 9.0642C10.2497 9.06457 10.2497 9.06495 10.2497 9.06532C10.2497 9.0657 10.2497 9.06607 10.2497 9.06645C10.2497 9.06683 10.2497 9.06721 10.2497 9.06759C10.2497 9.06797 10.2497 9.06835 10.2497 9.06874C10.2497 9.06912 10.2497 9.06951 10.2497 9.06989C10.2497 9.07028 10.2497 9.07067 10.2497 9.07106C10.2497 9.07144 10.2497 9.07184 10.2497 9.07223C10.2497 9.07262 10.2497 9.07301 10.2497 9.07341C10.2497 9.0738 10.2497 9.0742 10.2497 9.07459C10.2497 9.07499 10.2497 9.07539 10.2497 9.07579C10.2497 9.07619 10.2497 9.07659 10.2497 9.07699C10.2497 9.0774 10.2497 9.0778 10.2497 9.0782C10.2497 9.07861 10.2497 9.07902 10.2497 9.07942C10.2497 9.07983 10.2497 9.08024 10.2497 9.08065C10.2497 9.08106 10.2497 9.08147 10.2497 9.08189C10.2497 9.0823 10.2497 9.08271 10.2497 9.08313C10.2497 9.08354 10.2497 9.08396 10.2497 9.08438C10.2497 9.0848 10.2497 9.08522 10.2497 9.08564C10.2497 9.08606 10.2497 9.08648 10.2497 9.0869C10.2497 9.08733 10.2497 9.08775 10.2497 9.08818C10.2497 9.0886 10.2497 9.08903 10.2497 9.08946C10.2497 9.08988 10.2497 9.09031 10.2497 9.09074C10.2497 9.09118 10.2497 9.09161 10.2497 9.09204C10.2497 9.09247 10.2497 9.09291 10.2497 9.09334C10.2497 9.09378 10.2497 9.09422 10.2497 9.09466C10.2497 9.09509 10.2497 9.09553 10.2497 9.09597C10.2497 9.09641 10.2497 9.09686 10.2497 9.0973C10.2497 9.09774 10.2497 9.09819 10.2497 9.09863C10.2497 9.09908 10.2497 9.09952 10.2497 9.09997C10.2497 9.10042 10.2497 9.10087 10.2497 9.10132C10.2497 9.10177 10.2497 9.10222 10.2497 9.10268C10.2497 9.10313 10.2497 9.10358 10.2497 9.10404C10.2497 9.10449 10.2497 9.10495 10.2497 9.10541C10.2497 9.10586 10.2497 9.10632 10.2497 9.10678C10.2497 9.10724 10.2497 9.1077 10.2497 9.10817C10.2497 9.10863 10.2497 9.10909 10.2497 9.10956C10.2497 9.11002 10.2497 9.11049 10.2497 9.11095C10.2497 9.11142 10.2497 9.11189 10.2497 9.11236C10.2497 9.11283 10.2497 9.1133 10.2497 9.11377C10.2497 9.11424 10.2497 9.11472 10.2497 9.11519C10.2497 9.11566 10.2497 9.11614 10.2497 9.11661C10.2497 9.11709 10.2497 9.11757 10.2497 9.11805C10.2497 9.11853 10.2497 9.119 10.2497 9.11949C10.2497 9.11997 10.2497 9.12045 10.2497 9.12093C10.2497 9.12141 10.2497 9.1219 10.2497 9.12238C10.2497 9.12287 10.2497 9.12336 10.2497 9.12384C10.2497 9.12433 10.2497 9.12482 10.2497 9.12531C10.2497 9.1258 10.2497 9.12629 10.2497 9.12678C10.2497 9.12727 10.2497 9.12777 10.2497 9.12826C10.2497 9.12875 10.2497 9.12925 10.2497 9.12975C10.2497 9.13024 10.2497 9.13074 10.2497 9.13124C10.2497 9.13174 10.2497 9.13224 10.2497 9.13274C10.2497 9.13324 10.2497 9.13374 10.2497 9.13424C10.2497 9.13474 10.2497 9.13525 10.2497 9.13575C10.2497 9.13626 10.2497 9.13676 10.2497 9.13727C10.2497 9.13778 10.2497 9.13829 10.2497 9.13879C10.2497 9.1393 10.2497 9.13981 10.2497 9.14033C10.2497 9.14084 10.2497 9.14135 10.2497 9.14186C10.2497 9.14238 10.2497 9.14289 10.2497 9.14341C10.2497 9.14392 10.2497 9.14444 10.2497 9.14495C10.2497 9.14547 10.2497 9.14599 10.2497 9.14651C10.2497 9.14703 10.2497 9.14755 10.2497 9.14807C10.2497 9.14859 10.2497 9.14912 10.2497 9.14964C10.2497 9.15016 10.2497 9.15069 10.2497 9.15121C10.2497 9.15174 10.2497 9.15226 10.2497 9.15279C10.2497 9.15332 10.2497 9.15385 10.2497 9.15438C10.2497 9.15491 10.2497 9.15544 10.2497 9.15597C10.2497 9.1565 10.2497 9.15703 10.2497 9.15757C10.2497 9.1581 10.2497 9.15863 10.2497 9.15917C10.2497 9.15971 10.2497 9.16024 10.2497 9.16078C10.2497 9.16132 10.2497 9.16186 10.2497 9.16239C10.2497 9.16293 10.2497 9.16347 10.2497 9.16402C10.2497 9.16456 10.2497 9.1651 10.2497 9.16564C10.2497 9.16618 10.2497 9.16673 10.2497 9.16727C10.2497 9.16782 10.2497 9.16836 10.2497 9.16891C10.2497 9.16946 10.2497 9.17001 10.2497 9.17056C10.2497 9.1711 10.2497 9.17165 10.2497 9.1722C10.2497 9.17276 10.2497 9.17331 10.2497 9.17386C10.2497 9.17441 10.2497 9.17496 10.2497 9.17552C10.2497 9.17607 10.2497 9.17663 10.2497 9.17718C10.2497 9.17774 10.2497 9.1783 10.2497 9.17886C10.2497 9.17941 10.2497 9.17997 10.2497 9.18053C10.2497 9.18109 10.2497 9.18165 10.2497 9.18221C10.2497 9.18278 10.2497 9.18334 10.2497 9.1839C10.2497 9.18446 10.2497 9.18503 10.2497 9.18559C10.2497 9.18616 10.2497 9.18673 10.2497 9.18729C10.2497 9.18786 10.2497 9.18843 10.2497 9.189C10.2497 9.18956 10.2497 9.19013 10.2497 9.1907C10.2497 9.19127 10.2497 9.19184 10.2497 9.19242C10.2497 9.19299 10.2497 9.19356 10.2497 9.19414C10.2497 9.19471 10.2497 9.19528 10.2497 9.19586C10.2497 9.19643 10.2497 9.19701 10.2497 9.19759C10.2497 9.19816 10.2497 9.19874 10.2497 9.19932C10.2497 9.1999 10.2497 9.20048 10.2497 9.20106C10.2497 9.20164 10.2497 9.20222 10.2497 9.2028C10.2497 9.20339 10.2497 9.20397 10.2497 9.20455C10.2497 9.20514 10.2497 9.20572 10.2497 9.20631C10.2497 9.20689 10.2497 9.20748 10.2497 9.20806C10.2497 9.20865 10.2497 9.20924 10.2497 9.20983C10.2497 9.21042 10.2497 9.211 10.2497 9.21159C10.2497 9.21218 10.2497 9.21278 10.2497 9.21337C10.2497 9.21396 10.2497 9.21455 10.2497 9.21514C10.2497 9.21574 10.2497 9.21633 10.2497 9.21693C10.2497 9.21752 10.2497 9.21812 10.2497 9.21871C10.2497 9.21931 10.2497 9.21991 10.2497 9.2205C10.2497 9.2211 10.2497 9.2217 10.2497 9.2223C10.2497 9.2229 10.2497 9.2235 10.2497 9.2241C10.2497 9.2247 10.2497 9.2253 10.2497 9.2259C10.2497 9.22651 10.2497 9.22711 10.2497 9.22771C10.2497 9.22832 10.2497 9.22892 10.2497 9.22953C10.2497 9.23013 10.2497 9.23074 10.2497 9.23135C10.2497 9.23195 10.2497 9.23256 10.2497 9.23317C10.2497 9.23378 10.2497 9.23438 10.2497 9.23499C10.2497 9.2356 10.2497 9.23621 10.2497 9.23682C10.2497 9.23744 10.2497 9.23805 10.2497 9.23866C10.2497 9.23927 10.2497 9.23989 10.2497 9.2405C10.2497 9.24111 10.2497 9.24173 10.2497 9.24234C10.2497 9.24296 10.2497 9.24357 10.2497 9.24419C10.2497 9.24481 10.2497 9.24542 10.2497 9.24604C10.2497 9.24666 10.2497 9.24728 10.2497 9.2479C10.2497 9.24852 10.2497 9.24914 10.2497 9.24976C10.2497 9.25038 10.2497 9.251 10.2497 9.25162C10.2497 9.25224 10.2497 9.25287 10.2497 9.25349C10.2497 9.25411 10.2497 9.25474 10.2497 9.25536C10.2497 9.25598 10.2497 9.25661 10.2497 9.25724C10.2497 9.25786 10.2497 9.25849 10.2497 9.25911C10.2497 9.25974 10.2497 9.26037 10.2497 9.261C10.2497 9.26163 10.2497 9.26225 10.2497 9.26288C10.2497 9.26351 10.2497 9.26414 10.2497 9.26477C10.2497 9.26541 10.2497 9.26604 10.2497 9.26667C10.2497 9.2673 10.2497 9.26793 10.2497 9.26857C10.2497 9.2692 10.2497 9.26983 10.2497 9.27047C10.2497 9.2711 10.2497 9.27174 10.2497 9.27237C10.2497 9.27301 10.2497 9.27365 10.2497 9.27428C10.2497 9.27492 10.2497 9.27556 10.2497 9.27619C10.2497 9.27683 10.2497 9.27747 10.2497 9.27811C10.2497 9.27875 10.2497 9.27939 10.2497 9.28003C10.2497 9.28067 10.2497 9.28131 10.2497 9.28195C10.2497 9.28259 10.2497 9.28324 10.2497 9.28388C10.2497 9.28452 10.2497 9.28516 10.2497 9.28581C10.2497 9.28645 10.2497 9.28709 10.2497 9.28774C10.2497 9.28838 10.2497 9.28903 10.2497 9.28968C10.2497 9.29032 10.2497 9.29097 10.2497 9.29161C10.2497 9.29226 10.2497 9.29291 10.2497 9.29356C10.2497 9.2942 10.2497 9.29485 10.2497 9.2955C10.2497 9.29615 10.2497 9.2968 10.2497 9.29745C10.2497 9.2981 10.2497 9.29875 10.2497 9.2994C10.2497 9.30005 10.2497 9.3007 10.2497 9.30136C10.2497 9.30201 10.2497 9.30266 10.2497 9.30331C10.2497 9.30397 10.2497 9.30462 10.2497 9.30527C10.2497 9.30593 10.2497 9.30658 10.2497 9.30724C10.2497 9.30789 10.2497 9.30855 10.2497 9.3092C10.2497 9.30986 10.2497 9.31052 10.2497 9.31117C10.2497 9.31183 10.2497 9.31249 10.2497 9.31315C10.2497 9.3138 10.2497 9.31446 10.2497 9.31512C10.2497 9.31578 10.2497 9.31644 10.2497 9.3171C10.2497 9.31776 10.2497 9.31842 10.2497 9.31908C10.2497 9.31974 10.2497 9.3204 10.2497 9.32106C10.2497 9.32172 10.2497 9.32239 10.2497 9.32305C10.2497 9.32371 10.2497 9.32437 10.2497 9.32504C10.2497 9.3257 10.2497 9.32636 10.2497 9.32703C10.2497 9.32769 10.2497 9.32836 10.2497 9.32902C10.2497 9.32969 10.2497 9.33035 10.2497 9.33102C10.2497 9.33168 10.2497 9.33235 10.2497 9.33302C10.2497 9.33368 10.2497 9.33435 10.2497 9.33502C10.2497 9.33569 10.2497 9.33635 10.2497 9.33702C10.2497 9.33769 10.2497 9.33836 10.2497 9.33903C10.2497 9.3397 10.2497 9.34037 10.2497 9.34104C10.2497 9.3417 10.2497 9.34238 10.2497 9.34305C10.2497 9.34372 10.2497 9.34439 10.2497 9.34506C10.2497 9.34573 10.2497 9.3464 10.2497 9.34707C10.2497 9.34775 10.2497 9.34842 10.2497 9.34909C10.2497 9.34976 10.2497 9.35044 10.2497 9.35111C10.2497 9.35178 10.2497 9.35246 10.2497 9.35313C10.2497 9.35381 10.2497 9.35448 10.2497 9.35515C10.2497 9.35583 10.2497 9.3565 10.2497 9.35718C10.2497 9.35786 10.2497 9.35853 10.2497 9.35921C10.2497 9.35988 10.2497 9.36056 10.2497 9.36124C10.2497 9.36191 10.2497 9.36259 10.2497 9.36327C10.2497 9.36395 10.2497 9.36462 10.2497 9.3653C10.2497 9.36598 10.2497 9.36666 10.2497 9.36734C10.2497 9.36802 10.2497 9.3687 10.2497 9.36937C10.2497 9.37005 10.2497 9.37073 10.2497 9.37141C10.2497 9.37209 10.2497 9.37277 10.2497 9.37345C10.2497 9.37414 10.2497 9.37482 10.2497 9.3755C10.2497 9.37618 10.2497 9.37686 10.2497 9.37754C10.2497 9.37822 10.2497 9.3789 10.2497 9.37959C10.2497 9.38027 10.2497 9.38095 10.2497 9.38163C10.2497 9.38232 10.2497 9.383 10.2497 9.38368C10.2497 9.38437 10.2497 9.38505 10.2497 9.38573C10.2497 9.38642 10.2497 9.3871 10.2497 9.38779C10.2497 9.38847 10.2497 9.38915 10.2497 9.38984C10.2497 9.39052 10.2497 9.39121 10.2497 9.39189C10.2497 9.39258 10.2497 9.39326 10.2497 9.39395C10.2497 9.39464 10.2497 9.39532 10.2497 9.39601C10.2497 9.39669 10.2497 9.39738 10.2497 9.39807C10.2497 9.39875 10.2497 9.39944 10.2497 9.40013C10.2497 9.40081 10.2497 9.4015 10.2497 9.40219C10.2497 9.40288 10.2497 9.40356 10.2497 9.40425C10.2497 9.40494 10.2497 9.40563 10.2497 9.40632C10.2497 9.407 10.2497 9.40769 10.2497 9.40838C10.2497 9.40907 10.2497 9.40976 10.2497 9.41045C10.2497 9.41114 10.2497 9.41183 10.2497 9.41252C10.2497 9.4132 10.2497 9.41389 10.2497 9.41458C10.2497 9.41527 10.2497 9.41596 10.2497 9.41665C10.2497 9.41734 10.2497 9.41803 10.2497 9.41872C10.2497 9.41941 10.2497 9.4201 10.2497 9.4208C10.2497 9.42149 10.2497 9.42218 10.2497 9.42287C10.2497 9.42356 10.2497 9.42425 10.2497 9.42494C10.2497 9.42563 10.2497 9.42632 10.2497 9.42701C10.2497 9.42771 10.2497 9.4284 10.2497 9.42909C10.2497 9.42978 10.2497 9.43047 10.2497 9.43116C10.2497 9.43186 10.2497 9.43255 10.2497 9.43324C10.2497 9.43393 10.2497 9.43463 10.2497 9.43532C10.2497 9.43601 10.2497 9.4367 10.2497 9.4374C10.2497 9.43809 10.2497 9.43878 10.2497 9.43947C10.2497 9.44017 10.2497 9.44086 10.2497 9.44155C10.2497 9.44225 10.2497 9.44294 10.2497 9.44363C10.2497 9.44433 10.2497 9.44502 10.2497 9.44571C10.2497 9.44641 10.2497 9.4471 10.2497 9.44779C10.2497 9.44849 10.2497 9.44918 10.2497 9.44987C10.2497 9.45057 10.2497 9.45126 10.2497 9.45195C10.2497 9.45265 10.2497 9.45334 10.2497 9.45404C10.2497 9.45473 10.2497 9.45542 10.2497 9.45612C10.2497 9.45681 10.2497 9.45751 10.2497 9.4582C10.2497 9.45889 10.2497 9.45959 10.2497 9.46028C10.2497 9.46098 10.2497 9.46167 10.2497 9.46237C10.2497 9.46306 10.2497 9.46375 10.2497 9.46445C10.2497 9.46514 10.2497 9.46584 10.2497 9.46653C10.2497 9.46723 10.2497 9.46792 10.2497 9.46861C10.2497 9.46931 10.2497 9.47 10.2497 9.4707C10.2497 9.47139 10.2497 9.47209 10.2497 9.47278C10.2497 9.47348 10.2497 9.47417 10.2497 9.47486C10.2497 9.47556 10.2497 9.47625 10.2497 9.47695C10.2497 9.47764 10.2497 9.47834 10.2497 9.47903C10.2497 9.47973 10.2497 9.48042 10.2497 9.48111C10.2497 9.48181 10.2497 9.4825 10.2497 9.4832C10.2497 9.48389 10.2497 9.48459 10.2497 9.48528C10.2497 9.48597 10.2497 9.48667 10.2497 9.48736C10.2497 9.48806 10.2497 9.48875 10.2497 9.48945C10.2497 9.49014 10.2497 9.49083 10.2497 9.49153C10.2497 9.49222 10.2497 9.49292 10.2497 9.49361C10.2497 9.4943 10.2497 9.495 10.2497 9.49569C10.2497 9.49638 10.2497 9.49708 10.2497 9.49777C10.2497 9.49847 10.2497 9.49916 10.2497 9.49985C10.2497 9.50055 10.2497 9.50124 10.2497 9.50193C10.2497 9.50263 10.2497 9.50332 10.2497 9.50401C10.2497 9.50471 10.2497 9.5054 10.2497 9.50609C10.2497 9.50678 10.2497 9.50748 10.2497 9.50817C10.2497 9.50886 10.2497 9.50956 10.2497 9.51025C10.2497 9.51094 10.2497 9.51163 10.2497 9.51233C10.2497 9.51302 10.2497 9.51371 10.2497 9.5144C10.2497 9.51509 10.2497 9.51579 10.2497 9.51648C10.2497 9.51717 10.2497 9.51786 10.2497 9.51855C10.2497 9.51925 10.2497 9.51994 10.2497 9.52063C10.2497 9.52132 10.2497 9.52201 10.2497 9.5227C10.2497 9.52339 10.2497 9.52408 10.2497 9.52478C10.2497 9.52547 10.2497 9.52616 10.2497 9.52685C10.2497 9.52754 10.2497 9.52823 10.2497 9.52892C10.2497 9.52961 10.2497 9.5303 10.2497 9.53099C10.2497 9.53168 10.2497 9.53237 10.2497 9.53306C10.2497 9.53375 10.2497 9.53444 10.2497 9.53513C10.2497 9.53582 10.2497 9.5365 10.2497 9.53719C10.2497 9.53788 10.2497 9.53857 10.2497 9.53926C10.2497 9.53995 10.2497 9.54064 10.2497 9.54132C10.2497 9.54201 10.2497 9.5427 10.2497 9.54339C10.2497 9.54408 10.2497 9.54476 10.2497 9.54545C10.2497 9.54614 10.2497 9.54682 10.2497 9.54751C10.2497 9.5482 10.2497 9.54888 10.2497 9.54957C10.2497 9.55026 10.2497 9.55094 10.2497 9.55163C10.2497 9.55232 10.2497 9.553 10.2497 9.55369C10.2497 9.55437 10.2497 9.55506 10.2497 9.55574C10.2497 9.55643 10.2497 9.55711 10.2497 9.5578C10.2497 9.55848 10.2497 9.55917 10.2497 9.55985C10.2497 9.56053 10.2497 9.56122 10.2497 9.5619C10.2497 9.56259 10.2497 9.56327 10.2497 9.56395C10.2497 9.56463 10.2497 9.56532 10.2497 9.566C10.2497 9.56668 10.2497 9.56737 10.2497 9.56805C10.2497 9.56873 10.2497 9.56941 10.2497 9.57009C10.2497 9.57077 10.2497 9.57146 10.2497 9.57214C10.2497 9.57282 10.2497 9.5735 10.2497 9.57418C10.2497 9.57486 10.2497 9.57554 10.2497 9.57622C10.2497 9.5769 10.2497 9.57758 10.2497 9.57826C10.2497 9.57894 10.2497 9.57961 10.2497 9.58029C10.2497 9.58097 10.2497 9.58165 10.2497 9.58233C10.2497 9.58301 10.2497 9.58368 10.2497 9.58436C10.2497 9.58504 10.2497 9.58571 10.2497 9.58639C10.2497 9.58707 10.2497 9.58774 10.2497 9.58842C10.2497 9.5891 10.2497 9.58977 10.2497 9.59045C10.2497 9.59112 10.2497 9.5918 10.2497 9.59247C10.2497 9.59315 10.2497 9.59382 10.2497 9.59449C10.2497 9.59517 10.2497 9.59584 10.2497 9.59652C10.2497 9.59719 10.2497 9.59786 10.2497 9.59853C10.2497 9.59921 10.2497 9.59988 10.2497 9.60055C10.2497 9.60122 10.2497 9.60189 10.2497 9.60256C10.2497 9.60324 10.2497 9.60391 10.2497 9.60458C10.2497 9.60525 10.2497 9.60592 10.2497 9.60659C10.2497 9.60726 10.2497 9.60792 10.2497 9.60859C10.2497 9.60926 10.2497 9.60993 10.2497 9.6106C10.2497 9.61127 10.2497 9.61193 10.2497 9.6126C10.2497 9.61327 10.2497 9.61394 10.2497 9.6146C10.2497 9.61527 10.2497 9.61593 10.2497 9.6166C10.2497 9.61726 10.2497 9.61793 10.2497 9.61859C10.2497 9.61926 10.2497 9.61992 10.2497 9.62059C10.2497 9.62125 10.2497 9.62191 10.2497 9.62258C10.2497 9.62324 10.2497 9.6239 10.2497 9.62457C10.2497 9.62523 10.2497 9.62589 10.2497 9.62655C10.2497 9.62721 10.2497 9.62787 10.2497 9.62853C10.2497 9.62919 10.2497 9.62985 10.2497 9.63051C10.2497 9.63117 10.2497 9.63183 10.2497 9.63249C10.2497 9.63315 10.2497 9.63381 10.2497 9.63446C10.2497 9.63512 10.2497 9.63578 10.2497 9.63643C10.2497 9.63709 10.2497 9.63775 10.2497 9.6384C10.2497 9.63906 10.2497 9.63971 10.2497 9.64037C10.2497 9.64102 10.2497 9.64168 10.2497 9.64233C10.2497 9.64298 10.2497 9.64364 10.2497 9.64429C10.2497 9.64494 10.2497 9.6456 10.2497 9.64625C10.2497 9.6469 10.2497 9.64755 10.2497 9.6482C10.2497 9.64885 10.2497 9.6495 10.2497 9.65015C10.2497 9.6508 10.2497 9.65145 10.2497 9.6521C10.2497 9.65275 10.2497 9.6534 10.2497 9.65404C10.2497 9.65469 10.2497 9.65534 10.2497 9.65598C10.2497 9.65663 10.2497 9.65728 10.2497 9.65792C10.2497 9.65857 10.2497 9.65921 10.2497 9.65986C10.2497 9.6605 10.2497 9.66115 10.2497 9.66179C10.2497 9.66243 10.2497 9.66307 10.2497 9.66372C10.2497 9.66436 10.2497 9.665 10.2497 9.66564C10.2497 9.66628 10.2497 9.66692 10.2497 9.66756C10.2497 9.6682 10.2497 9.66884 10.2497 9.66948C10.2497 9.67012 10.2497 9.67076 10.2497 9.6714C10.2497 9.67203 10.2497 9.67267 10.2497 9.67331C10.2497 9.67394 10.2497 9.67458 10.2497 9.67521C10.2497 9.67585 10.2497 9.67648 10.2497 9.67712C10.2497 9.67775 10.2497 9.67839 10.2497 9.67902C10.2497 9.67965 10.2497 9.68028 10.2497 9.68091C10.2497 9.68155 10.2497 9.68218 10.2497 9.68281C10.2497 9.68344 10.2497 9.68407 10.2497 9.6847C10.2497 9.68533 10.2497 9.68595 10.2497 9.68658C10.2497 9.68721 10.2497 9.68784 10.2497 9.68846C10.2497 9.68909 10.2497 9.68972 10.2497 9.69034C10.2497 9.69097 10.2497 9.69159 10.2497 9.69222C10.2497 9.69284 10.2497 9.69346 10.2497 9.69409C10.2497 9.69471 10.2497 9.69533 10.2497 9.69595C10.2497 9.69657 10.2497 9.6972 10.2497 9.69782C10.2497 9.69844 10.2497 9.69905 10.2497 9.69967C10.2497 9.70029 10.2497 9.70091 10.2497 9.70153C10.2497 9.70215 10.2497 9.70276 10.2497 9.70338C10.2497 9.70399 10.2497 9.70461 10.2497 9.70522C10.2497 9.70584 10.2497 9.70645 10.2497 9.70707C10.2497 9.70768 10.2497 9.70829 10.2497 9.7089C10.2497 9.70952 10.2497 9.71013 10.2497 9.71074C10.2497 9.71135 10.2497 9.71196 10.2497 9.71257C10.2497 9.71318 10.2497 9.71378 10.2497 9.71439C10.2497 9.715 10.2497 9.71561 10.2497 9.71621C10.2497 9.71682 10.2497 9.71742 10.2497 9.71803C10.2497 9.71863 10.2497 9.71924 10.2497 9.71984C10.2497 9.72045 10.2497 9.72105 10.2497 9.72165C10.2497 9.72225 10.2497 9.72285 10.2497 9.72345C10.2497 9.72405 10.2497 9.72465 10.2497 9.72525C10.2497 9.72585 10.2497 9.72645 10.2497 9.72705C10.2497 9.72764 10.2497 9.72824 10.2497 9.72884C10.2497 9.72943 10.2497 9.73003 10.2497 9.73062C10.2497 9.73121 10.2497 9.73181 10.2497 9.7324C10.2497 9.73299 10.2497 9.73359 10.2497 9.73418C10.2497 9.73477 10.2497 9.73536 10.2497 9.73595C10.2497 9.73654 10.2497 9.73713 10.2497 9.73771C10.2497 9.7383 10.2497 9.73889 10.2497 9.73947C10.2497 9.74006 10.2497 9.74065 10.2497 9.74123C10.2497 9.74182 10.2497 9.7424 10.2497 9.74298C10.2497 9.74357 10.2497 9.74415 10.2497 9.74473C10.2497 9.74531 10.2497 9.74589 10.2497 9.74647C10.2497 9.74705 10.2497 9.74763 10.2497 9.74821C10.2497 9.74879 10.2497 9.74936 10.2497 9.74994C10.2497 9.75052 10.2497 9.75109 10.2497 9.75167C10.2497 9.75224 10.2497 9.75282 10.2497 9.75339C10.2497 9.75396 10.2497 9.75454 10.2497 9.75511C10.2497 9.75568 10.2497 9.75625 10.2497 9.75682C10.2497 9.75739 10.2497 9.75796 10.2497 9.75853C10.2497 9.75909 10.2497 9.75966 10.2497 9.76023C10.2497 9.76079 10.2497 9.76136 10.2497 9.76192C10.2497 9.76249 10.2497 9.76305 10.2497 9.76361C10.2497 9.76418 10.2497 9.76474 10.2497 9.7653C10.2497 9.76586 10.2497 9.76642 10.2497 9.76698C10.2497 9.76754 10.2497 9.7681 10.2497 9.76865C10.2497 9.76921 10.2497 9.76977 10.2497 9.77032C10.2497 9.77088 10.2497 9.77143 10.2497 9.77199C10.2497 9.77254 10.2497 9.77309 10.2497 9.77364C10.2497 9.7742 10.2497 9.77475 10.2497 9.7753C10.2497 9.77585 10.2497 9.7764 10.2497 9.77695C10.2497 9.77749 10.2497 9.77804 10.2497 9.77859C10.2497 9.77913 10.2497 9.77968 10.2497 9.78022C10.2497 9.78077 10.2497 9.78131 10.2497 9.78185C10.2497 9.7824 10.2497 9.78294 10.2497 9.78348C10.2497 9.78402 10.2497 9.78456 10.2497 9.7851C10.2497 9.78564 10.2497 9.78617 10.2497 9.78671C10.2497 9.78725 10.2497 9.78778 10.2497 9.78832C10.2497 9.78885 10.2497 9.78939 10.2497 9.78992C10.2497 9.79045 10.2497 9.79098 10.2497 9.79151C10.2497 9.79204 10.2497 9.79257 10.2497 9.7931C10.2497 9.79363 10.2497 9.79416 10.2497 9.79469C10.2497 9.79521 10.2497 9.79574 10.2497 9.79626C10.2497 9.79679 10.2497 9.79731 10.2497 9.79784C10.2497 9.79836 10.2497 9.79888 10.2497 9.7994H11.7497Z" fill="black"/>
</svg>
