<svg width="24" height="24" viewBox="0 0 24 24" fill="none" xmlns="http://www.w3.org/2000/svg">
<path d="M19.2173 7.93789L19.1 8.67865L19.1 8.67865L19.2173 7.93789ZM15.061 3.78162L14.3202 3.89894L14.3202 3.89894L15.061 3.78162ZM5.06053 21.0445L5.50137 20.4378L5.06053 21.0445ZM3.95437 19.9384L4.56114 19.4975L3.95437 19.9384ZM20.0445 19.9384L19.4378 19.4975L20.0445 19.9384ZM18.9384 21.0445L18.4975 20.4378L18.9384 21.0445ZM18.9384 2.95436L19.3792 2.3476L18.9384 2.95436ZM20.0445 4.06052L20.6513 3.61968L20.0445 4.06052ZM5.06053 2.95436L5.50137 3.56112L5.06053 2.95436ZM3.95437 4.06052L4.56114 4.50136L3.95437 4.06052ZM14.9995 2.02838L15.0251 1.27882L14.9995 2.02838ZM20.9705 7.99944L21.7201 7.97376L20.9705 7.99944ZM8.99946 12.2494C8.58524 12.2494 8.24946 12.5852 8.24946 12.9994C8.24946 13.4137 8.58524 13.7494 8.99946 13.7494V12.2494ZM14.9995 13.7494C15.4137 13.7494 15.7495 13.4137 15.7495 12.9994C15.7495 12.5852 15.4137 12.2494 14.9995 12.2494V13.7494ZM11.2495 15.9994C11.2495 16.4137 11.5852 16.7494 11.9995 16.7494C12.4137 16.7494 12.7495 16.4137 12.7495 15.9994H11.2495ZM12.7495 9.99944C12.7495 9.58523 12.4137 9.24944 11.9995 9.24944C11.5852 9.24944 11.2495 9.58523 11.2495 9.99944H12.7495ZM19.3346 7.19712C17.5161 6.90909 16.0898 5.48284 15.8018 3.66429L14.3202 3.89894C14.7099 6.35932 16.6396 8.28897 19.1 8.67865L19.3346 7.19712ZM20.2495 10.9994V12.9994H21.7495V10.9994H20.2495ZM3.74946 12.9994V10.9994H2.24946V12.9994H3.74946ZM11.9995 21.2494C10.1079 21.2494 8.74945 21.2484 7.6975 21.1344C6.65959 21.022 6.00937 20.8068 5.50137 20.4378L4.61969 21.6513C5.42602 22.2371 6.3704 22.4994 7.53593 22.6257C8.68743 22.7505 10.1413 22.7494 11.9995 22.7494V21.2494ZM2.24946 12.9994C2.24946 14.8576 2.24843 16.3115 2.37319 17.463C2.49946 18.6285 2.76178 19.5729 3.34761 20.3792L4.56114 19.4975C4.19205 18.9895 3.97691 18.3393 3.86446 17.3014C3.75049 16.2494 3.74946 14.891 3.74946 12.9994H2.24946ZM5.50137 20.4378C5.14057 20.1756 4.82327 19.8583 4.56114 19.4975L3.34761 20.3792C3.70227 20.8673 4.13155 21.2966 4.61969 21.6513L5.50137 20.4378ZM20.2495 12.9994C20.2495 14.891 20.2484 16.2494 20.1345 17.3014C20.022 18.3393 19.8069 18.9895 19.4378 19.4975L20.6513 20.3792C21.2371 19.5729 21.4994 18.6285 21.6257 17.463C21.7505 16.3115 21.7495 14.8576 21.7495 12.9994H20.2495ZM11.9995 22.7494C13.8576 22.7494 15.3115 22.7505 16.463 22.6257C17.6285 22.4994 18.5729 22.2371 19.3792 21.6513L18.4975 20.4378C17.9895 20.8068 17.3393 21.022 16.3014 21.1344C15.2495 21.2484 13.891 21.2494 11.9995 21.2494V22.7494ZM19.4378 19.4975C19.1756 19.8583 18.8583 20.1756 18.4975 20.4378L19.3792 21.6513C19.8674 21.2966 20.2966 20.8673 20.6513 20.3792L19.4378 19.4975ZM18.4975 3.56112C18.8583 3.82326 19.1756 4.14056 19.4378 4.50136L20.6513 3.61968C20.2966 3.13154 19.8674 2.70226 19.3792 2.3476L18.4975 3.56112ZM11.9995 1.24945C10.1413 1.24945 8.68743 1.24842 7.53593 1.37317C6.3704 1.49945 5.42602 1.76177 4.61969 2.3476L5.50137 3.56112C6.00937 3.19204 6.65959 2.9769 7.6975 2.86445C8.74945 2.75048 10.1079 2.74945 11.9995 2.74945V1.24945ZM3.74946 10.9994C3.74946 9.10787 3.75049 7.74944 3.86446 6.69749C3.97691 5.65958 4.19205 5.00936 4.56114 4.50136L3.34761 3.61968C2.76178 4.426 2.49946 5.37038 2.37319 6.53592C2.24843 7.68742 2.24946 9.14128 2.24946 10.9994H3.74946ZM4.61969 2.3476C4.13155 2.70226 3.70227 3.13154 3.34761 3.61968L4.56114 4.50136C4.82327 4.14056 5.14057 3.82326 5.50137 3.56112L4.61969 2.3476ZM11.9995 2.74945C13.1725 2.74945 14.145 2.74954 14.9738 2.77794L15.0251 1.27882C14.1652 1.24935 13.1642 1.24945 11.9995 1.24945V2.74945ZM14.9738 2.77794C16.8287 2.84149 17.792 3.04851 18.4975 3.56112L19.3792 2.3476C18.2756 1.54574 16.8986 1.343 15.0251 1.27882L14.9738 2.77794ZM14.2495 2.02838C14.2495 2.91065 14.2478 3.44159 14.3202 3.89894L15.8018 3.66429C15.7524 3.35243 15.7495 2.96562 15.7495 2.02837L14.2495 2.02838ZM21.7495 10.9994C21.7495 9.83467 21.7495 8.83369 21.7201 7.97376L20.221 8.02512C20.2494 8.85389 20.2495 9.82637 20.2495 10.9994H21.7495ZM21.7201 7.97376C21.6559 6.10032 21.4532 4.72334 20.6513 3.61968L19.4378 4.50136C19.9504 5.20691 20.1574 6.1702 20.221 8.02512L21.7201 7.97376ZM20.9705 7.24944C20.0333 7.24944 19.6465 7.24651 19.3346 7.19712L19.1 8.67865C19.5573 8.75109 20.0882 8.74944 20.9705 8.74944L20.9705 7.24944ZM8.99946 13.7494H14.9995V12.2494H8.99946V13.7494ZM12.7495 15.9994V9.99944H11.2495V15.9994H12.7495Z" fill="black"/>
</svg>
