<svg width="24" height="24" viewBox="0 0 24 24" fill="none" xmlns="http://www.w3.org/2000/svg">
<path d="M4.78176 7.93792L4.89909 8.67869L4.89909 8.67869L4.78176 7.93792ZM8.93803 3.78166L9.67879 3.89898L9.67879 3.89898L8.93803 3.78166ZM18.9385 21.0446L18.4977 20.4378L18.9385 21.0446ZM20.0447 19.9384L19.4379 19.4976L20.0447 19.9384ZM3.9545 19.9384L4.56126 19.4976L3.9545 19.9384ZM5.06066 21.0446L5.5015 20.4378L5.06066 21.0446ZM5.06066 2.9544L4.61982 2.34764L5.06066 2.9544ZM3.9545 4.06056L3.34774 3.61972L3.9545 4.06056ZM18.9385 2.9544L18.4977 3.56116L18.9385 2.9544ZM20.0447 4.06056L19.4379 4.5014L20.0447 4.06056ZM8.99959 2.02841L8.9739 1.27885L8.99959 2.02841ZM3.02852 7.99948L2.27896 7.9738L3.02852 7.99948ZM8.99959 12.2495C8.58537 12.2495 8.24959 12.5853 8.24959 12.9995C8.24959 13.4137 8.58537 13.7495 8.99959 13.7495V12.2495ZM14.9996 13.7495C15.4138 13.7495 15.7496 13.4137 15.7496 12.9995C15.7496 12.5853 15.4138 12.2495 14.9996 12.2495V13.7495ZM4.89909 8.67869C7.35947 8.289 9.28911 6.35936 9.67879 3.89898L8.19726 3.66433C7.90923 5.48287 6.48298 6.90913 4.66443 7.19716L4.89909 8.67869ZM2.24959 10.9995V12.9995H3.74959V10.9995H2.24959ZM21.7496 12.9995V10.9995H20.2496V12.9995H21.7496ZM11.9996 22.7495C13.8577 22.7495 15.3116 22.7505 16.4631 22.6257C17.6286 22.4995 18.573 22.2372 19.3793 21.6513L18.4977 20.4378C17.9897 20.8069 17.3394 21.022 16.3015 21.1345C15.2496 21.2484 13.8912 21.2495 11.9996 21.2495V22.7495ZM20.2496 12.9995C20.2496 14.8911 20.2486 16.2495 20.1346 17.3014C20.0221 18.3393 19.807 18.9896 19.4379 19.4976L20.6514 20.3792C21.2373 19.5729 21.4996 18.6285 21.6259 17.463C21.7506 16.3115 21.7496 14.8576 21.7496 12.9995H20.2496ZM19.3793 21.6513C19.8675 21.2967 20.2968 20.8674 20.6514 20.3792L19.4379 19.4976C19.1758 19.8584 18.8585 20.1757 18.4977 20.4378L19.3793 21.6513ZM2.24959 12.9995C2.24959 14.8576 2.24856 16.3115 2.37332 17.463C2.49959 18.6285 2.76191 19.5729 3.34774 20.3792L4.56126 19.4976C4.19218 18.9896 3.97704 18.3393 3.86459 17.3014C3.75062 16.2495 3.74959 14.8911 3.74959 12.9995H2.24959ZM11.9996 21.2495C10.108 21.2495 8.74958 21.2484 7.69763 21.1345C6.65972 21.022 6.0095 20.8069 5.5015 20.4378L4.61982 21.6513C5.42615 22.2372 6.37053 22.4995 7.53606 22.6257C8.68756 22.7505 10.1414 22.7495 11.9996 22.7495V21.2495ZM3.34774 20.3792C3.7024 20.8674 4.13168 21.2967 4.61982 21.6513L5.5015 20.4378C5.1407 20.1757 4.8234 19.8584 4.56126 19.4976L3.34774 20.3792ZM4.61982 2.34764C4.13168 2.70229 3.7024 3.13157 3.34774 3.61972L4.56126 4.5014C4.8234 4.14059 5.1407 3.8233 5.5015 3.56116L4.61982 2.34764ZM11.9996 2.74948C13.8912 2.74948 15.2496 2.75051 16.3015 2.86449C17.3394 2.97694 17.9897 3.19208 18.4977 3.56116L19.3793 2.34764C18.573 1.76181 17.6286 1.49949 16.4631 1.37321C15.3116 1.24846 13.8577 1.24949 11.9996 1.24949V2.74948ZM21.7496 10.9995C21.7496 9.14132 21.7506 7.68746 21.6259 6.53596C21.4996 5.37042 21.2373 4.42604 20.6514 3.61972L19.4379 4.5014C19.807 5.0094 20.0221 5.65962 20.1346 6.69753C20.2486 7.74947 20.2496 9.10791 20.2496 10.9995H21.7496ZM18.4977 3.56116C18.8585 3.8233 19.1758 4.14059 19.4379 4.5014L20.6514 3.61972C20.2968 3.13157 19.8675 2.70229 19.3793 2.34764L18.4977 3.56116ZM11.9996 1.24949C10.8348 1.24949 9.83383 1.24939 8.9739 1.27885L9.02527 2.77797C9.85403 2.74958 10.8265 2.74948 11.9996 2.74948V1.24949ZM8.9739 1.27885C7.10046 1.34304 5.72348 1.54578 4.61982 2.34764L5.5015 3.56116C6.20705 3.04855 7.17034 2.84153 9.02527 2.77797L8.9739 1.27885ZM8.24959 2.02841C8.24958 2.96566 8.24666 3.35247 8.19726 3.66433L9.67879 3.89898C9.75123 3.44163 9.74958 2.91069 9.74959 2.02842L8.24959 2.02841ZM3.74959 10.9995C3.74959 9.82641 3.74968 8.85393 3.77808 8.02516L2.27896 7.9738C2.24949 8.83373 2.24959 9.83471 2.24959 10.9995H3.74959ZM3.77808 8.02516C3.84163 6.17024 4.04865 5.20694 4.56126 4.5014L3.34774 3.61972C2.54588 4.72338 2.34314 6.10036 2.27896 7.9738L3.77808 8.02516ZM3.02852 8.74948C3.91079 8.74948 4.44173 8.75113 4.89909 8.67869L4.66443 7.19716C4.35257 7.24655 3.96576 7.24948 3.02851 7.24948L3.02852 8.74948ZM8.99959 13.7495H14.9996V12.2495H8.99959V13.7495Z" fill="black"/>
</svg>
