<svg width="24" height="24" viewBox="0 0 24 24" fill="none" xmlns="http://www.w3.org/2000/svg">
<path d="M19.2181 15.0611L19.1008 14.3203L19.1008 14.3203L19.2181 15.0611ZM15.0618 19.2173L14.3211 19.1L14.3211 19.1L15.0618 19.2173ZM5.06136 20.0446L5.5022 19.4378L5.06136 20.0446ZM3.9552 18.9384L4.56197 18.4976L3.9552 18.9384ZM20.0454 18.9384L20.6521 19.3793L20.0454 18.9384ZM18.9392 20.0446L19.38 20.6513L18.9392 20.0446ZM18.9392 3.95441L18.4984 4.56117L18.9392 3.95441ZM20.0454 5.06057L19.4386 5.50141L20.0454 5.06057ZM5.06136 3.95441L5.5022 4.56117L5.06136 3.95441ZM3.9552 5.06057L4.56197 5.50141L3.9552 5.06057ZM20.9714 14.9995L21.7209 15.0252L20.9714 14.9995ZM15.0003 20.9706L15.026 21.7201L15.0003 20.9706ZM8.00029 15.2495C7.58607 15.2495 7.25029 15.5853 7.25029 15.9995C7.25029 16.4137 7.58607 16.7495 8.00029 16.7495V15.2495ZM11.0003 16.7495C11.4145 16.7495 11.7503 16.4137 11.7503 15.9995C11.7503 15.5853 11.4145 15.2495 11.0003 15.2495V16.7495ZM8.00029 11.2495C7.58607 11.2495 7.25029 11.5853 7.25029 11.9995C7.25029 12.4137 7.58607 12.7495 8.00029 12.7495V11.2495ZM16.0003 12.7495C16.4145 12.7495 16.7503 12.4137 16.7503 11.9995C16.7503 11.5853 16.4145 11.2495 16.0003 11.2495V12.7495ZM8.00029 7.24949C7.58607 7.24949 7.25029 7.58528 7.25029 7.99949C7.25029 8.41371 7.58607 8.74949 8.00029 8.74949V7.24949ZM11.0003 8.74949C11.4145 8.74949 11.7503 8.41371 11.7503 7.99949C11.7503 7.58528 11.4145 7.24949 11.0003 7.24949V8.74949ZM19.1008 14.3203C16.6404 14.71 14.7108 16.6396 14.3211 19.1L15.8026 19.3346C16.0906 17.5161 17.5169 16.0898 19.3354 15.8018L19.1008 14.3203ZM12.0003 20.2495C10.1087 20.2495 8.75028 20.2485 7.69833 20.1345C6.66042 20.022 6.01021 19.8069 5.5022 19.4378L4.62052 20.6513C5.42685 21.2372 6.37123 21.4995 7.53676 21.6258C8.68826 21.7505 10.1421 21.7495 12.0003 21.7495V20.2495ZM2.25029 11.9995C2.25029 13.8577 2.24926 15.3115 2.37402 16.463C2.5003 17.6286 2.76261 18.5729 3.34844 19.3793L4.56197 18.4976C4.19288 17.9896 3.97774 17.3394 3.86529 16.3014C3.75132 15.2495 3.75029 13.8911 3.75029 11.9995H2.25029ZM5.5022 19.4378C5.1414 19.1757 4.82411 18.8584 4.56197 18.4976L3.34844 19.3793C3.7031 19.8674 4.13238 20.2967 4.62052 20.6513L5.5022 19.4378ZM19.4386 18.4976C19.1765 18.8584 18.8592 19.1757 18.4984 19.4378L19.38 20.6513C19.8682 20.2967 20.2975 19.8674 20.6521 19.3793L19.4386 18.4976ZM12.0003 3.7495C13.8919 3.7495 15.2503 3.75053 16.3022 3.8645C17.3401 3.97695 17.9904 4.19209 18.4984 4.56117L19.38 3.34765C18.5737 2.76182 17.6293 2.4995 16.4638 2.37322C15.3123 2.24847 13.8584 2.2495 12.0003 2.2495V3.7495ZM21.7503 11.9995C21.7503 10.1413 21.7513 8.68747 21.6266 7.53597C21.5003 6.37043 21.238 5.42605 20.6521 4.61973L19.4386 5.50141C19.8077 6.00941 20.0228 6.65963 20.1353 7.69754C20.2493 8.74949 20.2503 10.1079 20.2503 11.9995H21.7503ZM18.4984 4.56117C18.8592 4.82331 19.1765 5.14061 19.4386 5.50141L20.6521 4.61973C20.2975 4.13159 19.8682 3.70231 19.38 3.34765L18.4984 4.56117ZM12.0003 2.2495C10.1421 2.2495 8.68826 2.24847 7.53676 2.37322C6.37123 2.4995 5.42685 2.76182 4.62052 3.34765L5.5022 4.56117C6.01021 4.19209 6.66042 3.97695 7.69833 3.8645C8.75028 3.75053 10.1087 3.7495 12.0003 3.7495V2.2495ZM3.75029 11.9995C3.75029 10.1079 3.75132 8.74949 3.86529 7.69754C3.97774 6.65963 4.19288 6.00941 4.56197 5.50141L3.34844 4.61973C2.76261 5.42605 2.5003 6.37043 2.37402 7.53597C2.24926 8.68747 2.25029 10.1413 2.25029 11.9995H3.75029ZM4.62052 3.34765C4.13238 3.70231 3.7031 4.13159 3.34844 4.61973L4.56197 5.50141C4.82411 5.14061 5.1414 4.82331 5.5022 4.56117L4.62052 3.34765ZM20.2503 11.9995C20.2503 13.1726 20.2502 14.145 20.2218 14.9738L21.7209 15.0252C21.7504 14.1652 21.7503 13.1643 21.7503 11.9995H20.2503ZM20.2218 14.9738C20.1582 16.8287 19.9512 17.792 19.4386 18.4976L20.6521 19.3793C21.454 18.2756 21.6567 16.8986 21.7209 15.0252L20.2218 14.9738ZM20.9713 14.2495C20.0891 14.2495 19.5581 14.2478 19.1008 14.3203L19.3354 15.8018C19.6473 15.7524 20.0341 15.7495 20.9714 15.7495L20.9713 14.2495ZM12.0003 21.7495C13.1651 21.7495 14.166 21.7496 15.026 21.7201L14.9746 20.221C14.1458 20.2494 13.1734 20.2495 12.0003 20.2495V21.7495ZM15.026 21.7201C16.8994 21.6559 18.2764 21.4532 19.38 20.6513L18.4984 19.4378C17.7928 19.9504 16.8295 20.1574 14.9746 20.221L15.026 21.7201ZM15.7503 20.9706C15.7503 20.0333 15.7532 19.6465 15.8026 19.3346L14.3211 19.1C14.2486 19.5573 14.2503 20.0883 14.2503 20.9706L15.7503 20.9706ZM8.00029 16.7495H11.0003V15.2495H8.00029V16.7495ZM8.00029 12.7495H16.0003V11.2495H8.00029V12.7495ZM8.00029 8.74949H11.0003V7.24949H8.00029V8.74949Z" fill="black"/>
</svg>
