<svg width="24" height="25" viewBox="0 0 24 25" fill="none" xmlns="http://www.w3.org/2000/svg">
<path d="M12.7502 3.99902C12.7502 3.58481 12.4144 3.24902 12.0002 3.24902C11.586 3.24902 11.2502 3.58481 11.2502 3.99902L12.7502 3.99902ZM11.2502 14.999C11.2502 15.4132 11.586 15.749 12.0002 15.749C12.4144 15.749 12.7502 15.4132 12.7502 14.999L11.2502 14.999ZM14.8649 14.999L14.8649 14.249H14.8649V14.999ZM16.4497 18.219L15.8554 17.7615L15.8554 17.7615L16.4497 18.219ZM7.55076 18.219L8.14507 17.7615L8.14506 17.7615L7.55076 18.219ZM9.13557 14.999L9.13557 15.749H9.13557V14.999ZM10.4154 21.9403L9.8211 22.3978L9.8211 22.3978L10.4154 21.9403ZM13.585 21.9403L14.1793 22.3978L14.1793 22.3978L13.585 21.9403ZM11.2502 3.99902L11.2502 14.999L12.7502 14.999L12.7502 3.99902L11.2502 3.99902ZM11.0097 21.4828L8.14507 17.7615L6.95646 18.6765L9.8211 22.3978L11.0097 21.4828ZM9.13557 15.749H14.8649V14.249H9.13557V15.749ZM15.8554 17.7615L12.9907 21.4828L14.1793 22.3978L17.044 18.6765L15.8554 17.7615ZM14.8649 15.749C15.9022 15.749 16.4881 16.9395 15.8554 17.7615L17.044 18.6765C18.436 16.8682 17.1469 14.249 14.8649 14.249L14.8649 15.749ZM8.14506 17.7615C7.51232 16.9395 8.09827 15.749 9.13557 15.749L9.13557 14.249C6.85352 14.249 5.56441 16.8682 6.95646 18.6765L8.14506 17.7615ZM9.8211 22.3978C10.9219 23.8278 13.0785 23.8278 14.1793 22.3978L12.9907 21.4828C12.4903 22.1328 11.5101 22.1328 11.0097 21.4828L9.8211 22.3978Z" fill="black"/>
</svg>
