<svg width="24" height="24" viewBox="0 0 24 24" fill="none" xmlns="http://www.w3.org/2000/svg">
<path d="M5.06103 20.0441L5.50187 19.4373L5.06103 20.0441ZM3.95487 18.9379L4.56163 18.4971L3.95487 18.9379ZM20.045 18.9379L19.4383 18.4971L20.045 18.9379ZM18.9389 20.0441L18.498 19.4373L18.9389 20.0441ZM18.9389 3.95394L18.498 4.5607L18.9389 3.95394ZM20.045 5.0601L19.4383 5.50094L20.045 5.0601ZM5.06103 3.95394L5.50187 4.5607L5.06103 3.95394ZM3.95487 5.0601L4.56163 5.50094L3.95487 5.0601ZM17.5326 10.527C17.8242 10.2328 17.8221 9.75791 17.5279 9.46633C17.2337 9.17475 16.7588 9.17686 16.4673 9.47106L17.5326 10.527ZM15.2526 11.762L14.72 11.234L14.72 11.234L15.2526 11.762ZM8.74726 11.762L8.21457 12.2899L8.74726 11.762ZM7.53264 9.47106C7.24106 9.17687 6.76619 9.17475 6.47199 9.46633C6.1778 9.75791 6.17568 10.2328 6.46726 10.527L7.53264 9.47106ZM12.3133 13.9791L12.4081 14.7231L12.4081 14.7231L12.3133 13.9791ZM11.6866 13.9791L11.5918 14.7231L11.5918 14.7231L11.6866 13.9791ZM12 20.249C10.1084 20.249 8.74994 20.248 7.698 20.134C6.66009 20.0216 6.00987 19.8064 5.50187 19.4373L4.62019 20.6509C5.42651 21.2367 6.37089 21.499 7.53643 21.6253C8.68793 21.75 10.1418 21.749 12 21.749V20.249ZM2.24995 11.999C2.24995 13.8572 2.24893 15.311 2.37368 16.4625C2.49996 17.6281 2.76228 18.5725 3.34811 19.3788L4.56163 18.4971C4.19254 17.9891 3.97741 17.3389 3.86495 16.301C3.75098 15.249 3.74995 13.8906 3.74995 11.999H2.24995ZM5.50187 19.4373C5.14106 19.1752 4.82377 18.8579 4.56163 18.4971L3.34811 19.3788C3.70276 19.8669 4.13204 20.2962 4.62019 20.6509L5.50187 19.4373ZM20.2499 11.999C20.2499 13.8906 20.2489 15.249 20.1349 16.301C20.0225 17.3389 19.8074 17.9891 19.4383 18.4971L20.6518 19.3788C21.2376 18.5725 21.4999 17.6281 21.6262 16.4625C21.751 15.311 21.7499 13.8572 21.7499 11.999H20.2499ZM12 21.749C13.8581 21.749 15.312 21.75 16.4635 21.6253C17.629 21.499 18.5734 21.2367 19.3797 20.6509L18.498 19.4373C17.99 19.8064 17.3398 20.0216 16.3019 20.134C15.25 20.248 13.8915 20.249 12 20.249V21.749ZM19.4383 18.4971C19.1761 18.8579 18.8588 19.1752 18.498 19.4373L19.3797 20.6509C19.8679 20.2962 20.2971 19.8669 20.6518 19.3788L19.4383 18.4971ZM12 3.74902C13.8915 3.74902 15.25 3.75005 16.3019 3.86402C17.3398 3.97647 17.99 4.19161 18.498 4.5607L19.3797 3.34718C18.5734 2.76135 17.629 2.49903 16.4635 2.37275C15.312 2.24799 13.8581 2.24902 12 2.24902V3.74902ZM21.7499 11.999C21.7499 10.1409 21.751 8.687 21.6262 7.5355C21.4999 6.36996 21.2376 5.42558 20.6518 4.61926L19.4383 5.50094C19.8074 6.00894 20.0225 6.65916 20.1349 7.69707C20.2489 8.74901 20.2499 10.1074 20.2499 11.999H21.7499ZM18.498 4.5607C18.8588 4.82284 19.1761 5.14013 19.4383 5.50094L20.6518 4.61926C20.2971 4.13111 19.8679 3.70183 19.3797 3.34718L18.498 4.5607ZM12 2.24902C10.1418 2.24902 8.68793 2.24799 7.53643 2.37275C6.37089 2.49903 5.42651 2.76135 4.62019 3.34718L5.50187 4.5607C6.00987 4.19161 6.66009 3.97647 7.698 3.86402C8.74994 3.75005 10.1084 3.74902 12 3.74902V2.24902ZM3.74995 11.999C3.74995 10.1074 3.75098 8.74901 3.86495 7.69707C3.97741 6.65916 4.19254 6.00894 4.56163 5.50094L3.34811 4.61926C2.76228 5.42558 2.49996 6.36996 2.37368 7.5355C2.24893 8.687 2.24995 10.1409 2.24995 11.999H3.74995ZM4.62019 3.34718C4.13204 3.70183 3.70276 4.13111 3.34811 4.61926L4.56163 5.50094C4.82377 5.14013 5.14106 4.82284 5.50187 4.5607L4.62019 3.34718ZM16.4673 9.47106L14.72 11.234L15.7853 12.2899L17.5326 10.527L16.4673 9.47106ZM9.27995 11.234L7.53264 9.47106L6.46726 10.527L8.21457 12.2899L9.27995 11.234ZM14.72 11.234C14.0108 11.9495 13.5228 12.4403 13.1092 12.7724C12.7075 13.095 12.4495 13.2057 12.2185 13.2351L12.4081 14.7231C13.0262 14.6443 13.5412 14.3494 14.0485 13.942C14.544 13.544 15.101 12.9804 15.7853 12.2899L14.72 11.234ZM8.21457 12.2899C8.89888 12.9804 9.45592 13.544 9.95141 13.942C10.4587 14.3494 10.9737 14.6443 11.5918 14.7231L11.7814 13.2351C11.5504 13.2057 11.2924 13.095 10.8907 12.7724C10.4771 12.4403 9.98909 11.9495 9.27995 11.234L8.21457 12.2899ZM12.2185 13.2351C12.0734 13.2536 11.9265 13.2536 11.7814 13.2351L11.5918 14.7231C11.8628 14.7577 12.1371 14.7577 12.4081 14.7231L12.2185 13.2351Z" fill="black"/>
</svg>
