<svg width="24" height="24" viewBox="0 0 24 24" fill="none" xmlns="http://www.w3.org/2000/svg">
<path d="M12.75 7.9989C12.75 7.58469 12.4142 7.2489 12 7.2489C11.5858 7.2489 11.25 7.58469 11.25 7.9989H12.75ZM16.5327 13.3269C16.8242 13.0327 16.8221 12.5578 16.5279 12.2662C16.2337 11.9746 15.7589 11.9767 15.4673 12.2709L16.5327 13.3269ZM14.6021 14.2093L15.1348 14.7372L15.1348 14.7372L14.6021 14.2093ZM9.39781 14.2093L8.86512 14.7372L8.86512 14.7372L9.39781 14.2093ZM8.53266 12.2709C8.24107 11.9767 7.7662 11.9746 7.47201 12.2662C7.17781 12.5578 7.17569 13.0327 7.46728 13.3269L8.53266 12.2709ZM12.2506 15.983L12.3455 16.727L12.3455 16.727L12.2506 15.983ZM11.7493 15.983L11.6545 16.727L11.6545 16.727L11.7493 15.983ZM21.25 11.9989C21.25 17.1075 17.1086 21.2489 12 21.2489V22.7489C17.937 22.7489 22.75 17.936 22.75 11.9989H21.25ZM12 21.2489C6.89133 21.2489 2.74997 17.1075 2.74997 11.9989H1.24997C1.24997 17.936 6.06291 22.7489 12 22.7489V21.2489ZM2.74997 11.9989C2.74997 6.89026 6.89133 2.7489 12 2.7489V1.2489C6.06291 1.2489 1.24997 6.06184 1.24997 11.9989H2.74997ZM12 2.7489C17.1086 2.7489 21.25 6.89026 21.25 11.9989H22.75C22.75 6.06184 17.937 1.2489 12 1.2489V2.7489ZM11.25 7.9989V15.1989H12.75V7.9989H11.25ZM15.4673 12.2709L14.0694 13.6813L15.1348 14.7372L16.5327 13.3269L15.4673 12.2709ZM9.9305 13.6813L8.53266 12.2709L7.46728 13.3269L8.86512 14.7372L9.9305 13.6813ZM14.0694 13.6813C13.4996 14.2562 13.1161 14.6416 12.7935 14.9007C12.4827 15.1503 12.302 15.2204 12.1558 15.239L12.3455 16.727C12.8787 16.659 13.3163 16.4046 13.7327 16.0702C14.1373 15.7453 14.5898 15.2871 15.1348 14.7372L14.0694 13.6813ZM8.86512 14.7372C9.41008 15.2871 9.86262 15.7453 10.2672 16.0702C10.6836 16.4046 11.1213 16.659 11.6545 16.727L11.8441 15.239C11.698 15.2204 11.5172 15.1503 11.2065 14.9007C10.8838 14.6416 10.5003 14.2562 9.9305 13.6813L8.86512 14.7372ZM12.1558 15.239C12.1041 15.2456 12.052 15.2489 12 15.2489L12 16.7489C12.1154 16.7489 12.2308 16.7416 12.3455 16.727L12.1558 15.239ZM12 15.2489C11.9479 15.2489 11.8959 15.2456 11.8441 15.239L11.6545 16.727C11.7692 16.7416 11.8846 16.7489 12 16.7489L12 15.2489ZM11.25 15.1989V15.9989H12.75V15.1989H11.25Z" fill="black"/>
</svg>
