<svg width="24" height="24" viewBox="0 0 24 24" fill="none" xmlns="http://www.w3.org/2000/svg">
<path d="M12.7494 3.99915C12.7494 3.58493 12.4136 3.24915 11.9994 3.24915C11.5852 3.24915 11.2494 3.58493 11.2494 3.99915L12.7494 3.99915ZM11.2494 19.9991C11.2494 20.4134 11.5852 20.7491 11.9994 20.7491C12.4136 20.7491 12.7494 20.4134 12.7494 19.9991L11.2494 19.9991ZM17.5321 16.5271C17.8237 16.2329 17.8215 15.758 17.5273 15.4664C17.2331 15.1749 16.7583 15.177 16.4667 15.4712L17.5321 16.5271ZM15.2521 17.7621L14.7194 17.2342L15.2521 17.7621ZM8.7467 17.7621L9.27939 17.2342L8.7467 17.7621ZM7.53208 15.4712C7.2405 15.177 6.76563 15.1749 6.47143 15.4664C6.17723 15.758 6.17512 16.2329 6.4667 16.5271L7.53208 15.4712ZM12.3127 19.9792L12.4075 20.7232L12.4075 20.7232L12.3127 19.9792ZM11.6861 19.9792L11.5912 20.7232L11.5912 20.7232L11.6861 19.9792ZM11.2494 3.99915L11.2494 19.9991L12.7494 19.9991L12.7494 3.99915L11.2494 3.99915ZM16.4667 15.4712L14.7194 17.2342L15.7848 18.2901L17.5321 16.5271L16.4667 15.4712ZM9.27939 17.2342L7.53208 15.4712L6.4667 16.5271L8.21401 18.2901L9.27939 17.2342ZM14.7194 17.2342C14.0102 17.9496 13.5222 18.4404 13.1087 18.7725C12.707 19.0951 12.449 19.2058 12.2179 19.2353L12.4075 20.7232C13.0257 20.6444 13.5406 20.3495 14.0479 19.9421C14.5434 19.5442 15.1005 18.9805 15.7848 18.2901L14.7194 17.2342ZM8.21401 18.2901C8.89831 18.9805 9.45536 19.5442 9.95085 19.9421C10.4582 20.3495 10.9731 20.6444 11.5912 20.7232L11.7809 19.2353C11.5498 19.2058 11.2918 19.0951 10.8901 18.7725C10.4766 18.4404 9.98853 17.9496 9.27939 17.2342L8.21401 18.2901ZM12.2179 19.2353C12.0728 19.2538 11.926 19.2538 11.7809 19.2353L11.5912 20.7232C11.8622 20.7578 12.1365 20.7578 12.4075 20.7232L12.2179 19.2353Z" fill="black"/>
</svg>
