<svg width="24" height="24" viewBox="0 0 24 24" fill="none" xmlns="http://www.w3.org/2000/svg">
<path d="M7.21812 20.9375L7.10079 21.6782L7.10079 21.6782L7.21812 20.9375ZM3.06185 16.7812L3.80261 16.6639L3.80261 16.6639L3.06185 16.7812ZM20.9387 16.7812L21.6795 16.8985L21.6795 16.8985L20.9387 16.7812ZM16.7825 20.9375L16.8998 21.6782L16.8998 21.6782L16.7825 20.9375ZM20.6003 10.5486C20.3516 10.2174 19.8814 10.1506 19.5502 10.3993C19.219 10.6481 19.1522 11.1183 19.401 11.4495L20.6003 10.5486ZM4.5996 11.4495C4.84837 11.1183 4.78155 10.6481 4.45036 10.3993C4.11917 10.1506 3.64902 10.2174 3.40025 10.5486L4.5996 11.4495ZM12.7503 2.99902C12.7503 2.58481 12.4145 2.24902 12.0003 2.24902C11.5861 2.24902 11.2503 2.58481 11.2503 2.99902H12.7503ZM8.58797 12.533C8.33062 12.2085 7.85889 12.154 7.53432 12.4113C7.20975 12.6687 7.15526 13.1404 7.4126 13.465L8.58797 12.533ZM9.39813 14.762L8.81045 15.228L8.81045 15.228L9.39813 14.762ZM14.6024 14.762L14.0148 14.296L14.0148 14.296L14.6024 14.762ZM16.588 13.465C16.8453 13.1404 16.7908 12.6687 16.4663 12.4113C16.1417 12.154 15.6699 12.2085 15.4126 12.533L16.588 13.465ZM11.7496 16.9791L11.6316 17.7198L11.6316 17.7198L11.7496 16.9791ZM12.251 16.9791L12.369 17.7198L12.369 17.7198L12.251 16.9791ZM20.2503 13.999V14.999H21.7503V13.999H20.2503ZM15.0003 20.249H9.00029V21.749H15.0003V20.249ZM3.75029 14.999V13.999H2.25029V14.999H3.75029ZM9.00029 20.249C8.04262 20.249 7.65111 20.2467 7.33544 20.1967L7.10079 21.6782C7.56245 21.7513 8.09994 21.749 9.00029 21.749V20.249ZM2.25029 14.999C2.25029 15.8994 2.24796 16.4369 2.32108 16.8985L3.80261 16.6639C3.75262 16.3482 3.75029 15.9567 3.75029 14.999H2.25029ZM7.33544 20.1967C5.5169 19.9087 4.09064 18.4824 3.80261 16.6639L2.32108 16.8985C2.71077 19.3589 4.64041 21.2885 7.10079 21.6782L7.33544 20.1967ZM20.2503 14.999C20.2503 15.9567 20.248 16.3482 20.198 16.6639L21.6795 16.8985C21.7526 16.4369 21.7503 15.8994 21.7503 14.999H20.2503ZM15.0003 21.749C15.9006 21.749 16.4381 21.7513 16.8998 21.6782L16.6651 20.1967C16.3495 20.2467 15.958 20.249 15.0003 20.249V21.749ZM20.198 16.6639C19.9099 18.4824 18.4837 19.9087 16.6651 20.1967L16.8998 21.6782C19.3602 21.2885 21.2898 19.3589 21.6795 16.8985L20.198 16.6639ZM21.7503 13.999C21.7503 12.7054 21.3222 11.5097 20.6003 10.5486L19.401 11.4495C19.9345 12.1597 20.2503 13.0414 20.2503 13.999H21.7503ZM3.75029 13.999C3.75029 13.0414 4.06612 12.1597 4.5996 11.4495L3.40025 10.5486C2.67835 11.5097 2.25029 12.7054 2.25029 13.999H3.75029ZM11.2503 2.99902V15.999H12.7503V2.99902H11.2503ZM7.4126 13.465L8.81045 15.228L9.98582 14.296L8.58797 12.533L7.4126 13.465ZM15.1901 15.228L16.588 13.465L15.4126 12.533L14.0148 14.296L15.1901 15.228ZM8.81045 15.228C9.35644 15.9166 9.80503 16.4842 10.2058 16.8865C10.6099 17.2922 11.0584 17.6285 11.6316 17.7198L11.8676 16.2385C11.7614 16.2216 11.5916 16.1522 11.2685 15.8279C10.9421 15.5002 10.5546 15.0133 9.98582 14.296L8.81045 15.228ZM14.0148 14.296C13.446 15.0133 13.0585 15.5002 12.7321 15.8279C12.409 16.1522 12.2391 16.2216 12.1329 16.2385L12.369 17.7198C12.9421 17.6285 13.3907 17.2922 13.7948 16.8865C14.1955 16.4842 14.6441 15.9166 15.1901 15.228L14.0148 14.296ZM11.6316 17.7198C11.7537 17.7392 11.8769 17.749 12.0003 17.749L12.0003 16.249C11.9562 16.249 11.912 16.2455 11.8676 16.2385L11.6316 17.7198ZM12.0003 17.749C12.1237 17.749 12.2468 17.7392 12.369 17.7198L12.1329 16.2385C12.0886 16.2455 12.0443 16.249 12.0003 16.249L12.0003 17.749ZM11.2503 15.999V16.999H12.7503V15.999H11.2503Z" fill="black"/>
</svg>
