<svg width="24" height="24" viewBox="0 0 24 24" fill="none" xmlns="http://www.w3.org/2000/svg">
<path d="M5.06078 20.0441L5.50161 19.4373L5.06078 20.0441ZM3.95462 18.9379L4.56138 18.4971L3.95462 18.9379ZM20.0448 18.9379L19.438 18.4971L20.0448 18.9379ZM18.9386 20.0441L18.4978 19.4373L18.9386 20.0441ZM18.9386 3.95394L18.4978 4.5607L18.9386 3.95394ZM20.0448 5.0601L19.438 5.50094L20.0448 5.0601ZM5.06078 3.95394L5.50161 4.5607L5.06078 3.95394ZM3.95462 5.0601L4.56138 5.50094L3.95462 5.0601ZM12.7497 7.99902C12.7497 7.58481 12.4139 7.24902 11.9997 7.24902C11.5855 7.24902 11.2497 7.58481 11.2497 7.99902H12.7497ZM16.5324 13.327C16.824 13.0328 16.8219 12.5579 16.5277 12.2663C16.2335 11.9747 15.7586 11.9769 15.467 12.2711L16.5324 13.327ZM14.6019 14.2094L14.0692 13.6814L14.0692 13.6814L14.6019 14.2094ZM9.39755 14.2094L8.86486 14.7374L8.86486 14.7374L9.39755 14.2094ZM8.53239 12.2711C8.24081 11.9769 7.76594 11.9747 7.47174 12.2663C7.17754 12.5579 7.17543 13.0328 7.46701 13.327L8.53239 12.2711ZM12.2504 15.9831L12.3452 16.7271L12.3452 16.7271L12.2504 15.9831ZM11.749 15.9831L11.6542 16.7271L11.6542 16.7271L11.749 15.9831ZM11.9997 20.249C10.1081 20.249 8.74969 20.248 7.69775 20.134C6.65983 20.0216 6.00962 19.8064 5.50161 19.4373L4.61994 20.6509C5.42626 21.2367 6.37064 21.499 7.53618 21.6253C8.68768 21.75 10.1415 21.749 11.9997 21.749V20.249ZM2.2497 11.999C2.2497 13.8572 2.24867 15.311 2.37343 16.4625C2.49971 17.6281 2.76203 18.5725 3.34785 19.3788L4.56138 18.4971C4.19229 17.9891 3.97715 17.3389 3.8647 16.301C3.75073 15.249 3.7497 13.8906 3.7497 11.999H2.2497ZM5.50161 19.4373C5.14081 19.1752 4.82352 18.8579 4.56138 18.4971L3.34785 19.3788C3.70251 19.8669 4.13179 20.2962 4.61994 20.6509L5.50161 19.4373ZM20.2497 11.999C20.2497 13.8906 20.2487 15.249 20.1347 16.301C20.0222 17.3389 19.8071 17.9891 19.438 18.4971L20.6515 19.3788C21.2374 18.5725 21.4997 17.6281 21.626 16.4625C21.7507 15.311 21.7497 13.8572 21.7497 11.999H20.2497ZM11.9997 21.749C13.8579 21.749 15.3117 21.75 16.4632 21.6253C17.6288 21.499 18.5731 21.2367 19.3795 20.6509L18.4978 19.4373C17.9898 19.8064 17.3396 20.0216 16.3017 20.134C15.2497 20.248 13.8913 20.249 11.9997 20.249V21.749ZM19.438 18.4971C19.1759 18.8579 18.8586 19.1752 18.4978 19.4373L19.3795 20.6509C19.8676 20.2962 20.2969 19.8669 20.6515 19.3788L19.438 18.4971ZM11.9997 3.74902C13.8913 3.74902 15.2497 3.75005 16.3017 3.86402C17.3396 3.97647 17.9898 4.19161 18.4978 4.5607L19.3795 3.34718C18.5731 2.76135 17.6288 2.49903 16.4632 2.37275C15.3117 2.24799 13.8579 2.24902 11.9997 2.24902V3.74902ZM21.7497 11.999C21.7497 10.1409 21.7507 8.687 21.626 7.5355C21.4997 6.36996 21.2374 5.42558 20.6515 4.61926L19.438 5.50094C19.8071 6.00894 20.0222 6.65916 20.1347 7.69707C20.2487 8.74901 20.2497 10.1074 20.2497 11.999H21.7497ZM18.4978 4.5607C18.8586 4.82284 19.1759 5.14013 19.438 5.50094L20.6515 4.61926C20.2969 4.13111 19.8676 3.70183 19.3795 3.34718L18.4978 4.5607ZM11.9997 2.24902C10.1415 2.24902 8.68768 2.24799 7.53618 2.37275C6.37064 2.49903 5.42626 2.76135 4.61994 3.34718L5.50161 4.5607C6.00962 4.19161 6.65983 3.97647 7.69775 3.86402C8.74969 3.75005 10.1081 3.74902 11.9997 3.74902V2.24902ZM3.7497 11.999C3.7497 10.1074 3.75073 8.74901 3.8647 7.69707C3.97715 6.65916 4.19229 6.00894 4.56138 5.50094L3.34785 4.61926C2.76203 5.42558 2.49971 6.36996 2.37343 7.5355C2.24867 8.687 2.2497 10.1409 2.2497 11.999H3.7497ZM4.61994 3.34718C4.13179 3.70183 3.70251 4.13111 3.34785 4.61926L4.56138 5.50094C4.82352 5.14013 5.14081 4.82284 5.50161 4.5607L4.61994 3.34718ZM15.467 12.2711L14.0692 13.6814L15.1345 14.7374L16.5324 13.327L15.467 12.2711ZM9.93024 13.6814L8.53239 12.2711L7.46701 13.327L8.86486 14.7374L9.93024 13.6814ZM14.0692 13.6814C13.4994 14.2563 13.1158 14.6417 12.7932 14.9008C12.4824 15.1504 12.3017 15.2205 12.1555 15.2391L12.3452 16.7271C12.8784 16.6591 13.316 16.4048 13.7325 16.0703C14.137 15.7454 14.5896 15.2872 15.1345 14.7374L14.0692 13.6814ZM8.86486 14.7374C9.40982 15.2872 9.86235 15.7454 10.2669 16.0703C10.6834 16.4048 11.121 16.6591 11.6542 16.7271L11.8439 15.2391C11.6977 15.2205 11.517 15.1504 11.2062 14.9008C10.8836 14.6417 10.5 14.2563 9.93024 13.6814L8.86486 14.7374ZM12.1555 15.2391C12.1038 15.2457 12.0517 15.249 11.9997 15.249V16.749C12.1151 16.749 12.2305 16.7417 12.3452 16.7271L12.1555 15.2391ZM11.9997 15.249C11.9477 15.249 11.8956 15.2457 11.8439 15.2391L11.6542 16.7271C11.7689 16.7417 11.8843 16.749 11.9997 16.749V15.249ZM11.2497 7.99902V15.999H12.7497V7.99902H11.2497Z" fill="black"/>
</svg>
