<svg width="24" height="24" viewBox="0 0 24 24" fill="none" xmlns="http://www.w3.org/2000/svg">
<path d="M9.531 19.0192L9.25807 18.3207L9.531 19.0192ZM5.4746 19.7982L5.0996 20.4477L5.0996 20.4477L5.4746 19.7982ZM4.12098 15.8958L3.37953 16.0087L4.12098 15.8958ZM4.61128 13.2935L5.2608 13.6685L5.2608 13.6685L4.61128 13.2935ZM4.02713 14.5307L3.2901 14.3919L3.2901 14.3919L4.02713 14.5307ZM11.5395 17.2935L12.189 17.6685L11.5395 17.2935ZM10.7601 18.418L11.2488 18.9869L11.2488 18.9869L10.7601 18.418ZM8.40972 6.7144L7.7602 6.3394L7.7602 6.3394L8.40972 6.7144ZM19.4097 21.0003C19.8239 21.0003 20.1597 20.6645 20.1597 20.2503C20.1597 19.8361 19.8239 19.5003 19.4097 19.5003V21.0003ZM13.4097 19.5003C12.9955 19.5003 12.6597 19.8361 12.6597 20.2503C12.6597 20.6645 12.9955 21.0003 13.4097 21.0003V19.5003ZM14.6884 10.3394L10.89 16.9185L12.189 17.6685L15.9874 11.0894L14.6884 10.3394ZM5.2608 13.6685L9.05923 7.0894L7.7602 6.3394L3.96176 12.9185L5.2608 13.6685ZM9.25807 18.3207C8.1616 18.749 7.41484 19.0388 6.83836 19.1735C6.28149 19.3036 6.02879 19.2521 5.8496 19.1487L5.0996 20.4477C5.75287 20.8249 6.45373 20.8037 7.17962 20.6342C7.88591 20.4691 8.75111 20.1291 9.80393 19.7178L9.25807 18.3207ZM3.37953 16.0087C3.54972 17.1261 3.68787 18.0454 3.8981 18.7396C4.11417 19.453 4.44633 20.0705 5.0996 20.4477L5.8496 19.1487C5.6704 19.0452 5.49947 18.8521 5.33371 18.3048C5.16211 17.7382 5.03968 16.9466 4.86243 15.7828L3.37953 16.0087ZM3.96176 12.9185C3.63994 13.4759 3.38227 13.9027 3.2901 14.3919L4.76416 14.6696C4.79811 14.4894 4.88784 14.3145 5.2608 13.6685L3.96176 12.9185ZM4.86243 15.7828C4.75012 15.0454 4.73021 14.8498 4.76416 14.6696L3.2901 14.3919C3.19792 14.8811 3.28262 15.3724 3.37953 16.0087L4.86243 15.7828ZM10.89 16.9185C10.517 17.5645 10.4104 17.7296 10.2713 17.8491L11.2488 18.9869C11.6264 18.6624 11.8672 18.2259 12.189 17.6685L10.89 16.9185ZM9.80393 19.7178C10.4034 19.4836 10.8712 19.3113 11.2488 18.9869L10.2713 17.8491C10.1322 17.9687 9.95284 18.0492 9.25807 18.3207L9.80393 19.7178ZM13.4988 5.89982C14.3337 6.38182 14.8937 6.70698 15.2795 7.00474C15.6481 7.2892 15.7656 7.48081 15.8133 7.65883L17.2622 7.2706C17.0954 6.64842 16.6974 6.20422 16.1959 5.81723C15.7117 5.44353 15.0469 5.06158 14.2488 4.60078L13.4988 5.89982ZM15.9874 11.0894C16.4482 10.2913 16.8329 9.62812 17.0655 9.06237C17.3063 8.47648 17.4289 7.89278 17.2622 7.2706L15.8133 7.65883C15.861 7.83684 15.8551 8.06149 15.6781 8.49215C15.4928 8.94294 15.1704 9.50454 14.6884 10.3394L15.9874 11.0894ZM14.2488 4.60078C13.4507 4.13998 12.7875 3.75527 12.2218 3.52275C11.6359 3.28195 11.0522 3.15934 10.43 3.32606L10.8182 4.77494C10.9963 4.72725 11.2209 4.73314 11.6516 4.91014C12.1024 5.09541 12.664 5.41781 13.4988 5.89982L14.2488 4.60078ZM9.05923 7.0894C9.54124 6.25454 9.8664 5.69454 10.1642 5.30869C10.4486 4.94007 10.6402 4.82264 10.8182 4.77494L10.43 3.32606C9.80783 3.49277 9.36363 3.8908 8.97664 4.39228C8.60295 4.87653 8.221 5.54127 7.7602 6.3394L9.05923 7.0894ZM15.7129 10.0649L8.78472 6.06488L8.03472 7.36392L14.9629 11.3639L15.7129 10.0649ZM19.4097 19.5003H13.4097V21.0003H19.4097V19.5003Z" fill="black"/>
</svg>
