<svg width="24" height="24" viewBox="0 0 24 24" fill="none" xmlns="http://www.w3.org/2000/svg">
<path d="M11.5307 19.0193L11.2578 18.3207L11.5307 19.0193ZM7.47433 19.7982L7.09932 20.4477L7.09933 20.4477L7.47433 19.7982ZM6.12071 15.8958L5.37926 16.0087L6.12071 15.8958ZM6.611 13.2935L7.26052 13.6685L7.26052 13.6685L6.611 13.2935ZM6.02686 14.5308L5.28982 14.3919L5.28982 14.3919L6.02686 14.5308ZM13.5392 17.2935L14.1887 17.6685L13.5392 17.2935ZM12.7598 18.418L13.2486 18.9869L13.2486 18.9869L12.7598 18.418ZM10.4094 6.71443L9.75992 6.33943L9.75992 6.33943L10.4094 6.71443ZM16.6881 10.3394L12.8897 16.9185L14.1887 17.6685L17.9872 11.0894L16.6881 10.3394ZM7.26052 13.6685L11.059 7.08943L9.75992 6.33943L5.96149 12.9185L7.26052 13.6685ZM11.2578 18.3207C10.1613 18.7491 9.41456 19.0388 8.83808 19.1735C8.28121 19.3036 8.02852 19.2521 7.84932 19.1487L7.09933 20.4477C7.7526 20.8249 8.45346 20.8038 9.17935 20.6342C9.88563 20.4692 10.7508 20.1292 11.8037 19.7178L11.2578 18.3207ZM5.37926 16.0087C5.54945 17.1261 5.68759 18.0454 5.89783 18.7396C6.1139 19.453 6.44605 20.0706 7.09932 20.4477L7.84933 19.1487C7.67013 19.0452 7.49919 18.8521 7.33343 18.3048C7.16183 17.7382 7.0394 16.9466 6.86216 15.7829L5.37926 16.0087ZM5.96149 12.9185C5.63966 13.4759 5.382 13.9027 5.28982 14.3919L6.76389 14.6696C6.79784 14.4894 6.88756 14.3145 7.26052 13.6685L5.96149 12.9185ZM6.86216 15.7829C6.74985 15.0454 6.72993 14.8499 6.76389 14.6696L5.28982 14.3919C5.19765 14.8811 5.28235 15.3724 5.37926 16.0087L6.86216 15.7829ZM12.8897 16.9185C12.5167 17.5645 12.4101 17.7297 12.271 17.8492L13.2486 18.9869C13.6262 18.6625 13.8669 18.2259 14.1887 17.6685L12.8897 16.9185ZM11.8037 19.7178C12.4032 19.4836 12.871 19.3113 13.2486 18.9869L12.271 17.8492C12.1319 17.9687 11.9526 18.0492 11.2578 18.3207L11.8037 19.7178ZM15.4985 5.89985C16.3334 6.38186 16.8934 6.70701 17.2793 7.00477C17.6479 7.28924 17.7653 7.48084 17.813 7.65886L19.2619 7.27063C19.0952 6.64845 18.6971 6.20425 18.1957 5.81726C17.7114 5.44356 17.0467 5.06162 16.2485 4.60081L15.4985 5.89985ZM17.9872 11.0894C18.448 10.2913 18.8327 9.62815 19.0652 9.0624C19.306 8.47651 19.4286 7.89281 19.2619 7.27063L17.813 7.65886C17.8607 7.83687 17.8548 8.06152 17.6778 8.49218C17.4925 8.94297 17.1701 9.50457 16.6881 10.3394L17.9872 11.0894ZM16.2485 4.60081C15.4504 4.14001 14.7873 3.7553 14.2215 3.52278C13.6356 3.28198 13.0519 3.15937 12.4297 3.32609L12.818 4.77497C12.996 4.72728 13.2206 4.73317 13.6513 4.91017C14.1021 5.09544 14.6637 5.41784 15.4985 5.89985L16.2485 4.60081ZM11.059 7.08943C11.541 6.25457 11.8661 5.69457 12.1639 5.30872C12.4483 4.9401 12.64 4.82267 12.818 4.77497L12.4297 3.32609C11.8076 3.4928 11.3634 3.89083 10.9764 4.39231C10.6027 4.87656 10.2207 5.5413 9.75992 6.33943L11.059 7.08943ZM17.7126 10.0649L10.7844 6.06491L10.0344 7.36395L16.9626 11.3639L17.7126 10.0649Z" fill="black"/>
</svg>
