<svg width="24" height="24" viewBox="0 0 24 24" fill="none" xmlns="http://www.w3.org/2000/svg">
<path d="M4.06062 20.2158L4.50145 19.6091L4.50145 19.6091L4.06062 20.2158ZM2.95446 19.1097L2.34769 19.5505L2.34769 19.5505L2.95446 19.1097ZM17.9385 20.2158L17.4976 19.6091L17.4976 19.6091L17.9385 20.2158ZM19.0446 19.1097L18.4379 18.6688L18.4379 18.6688L19.0446 19.1097ZM2.95446 5.23183L2.34769 4.79099L2.34769 4.79099L2.95446 5.23183ZM4.06062 4.12567L4.50145 4.73243L4.50145 4.73243L4.06062 4.12567ZM9.00853 3.92791C9.42271 3.92294 9.75445 3.58315 9.74949 3.16897C9.74452 2.75479 9.40473 2.42305 8.99055 2.42801L9.00853 3.92791ZM20.7423 14.1797C20.7472 13.7656 20.4155 13.4258 20.0013 13.4208C19.5871 13.4158 19.2473 13.7476 19.2424 14.1618L20.7423 14.1797ZM11.7971 16.1752L11.7143 15.4298L11.7971 16.1752ZM7.67731 15.8777L7.14698 16.4081L7.14698 16.4081L7.67731 15.8777ZM7.37984 11.7579L8.12525 11.8408L7.37984 11.7579ZM8.52694 9.37124L7.99661 8.84091L7.99661 8.84091L8.52694 9.37124ZM7.64247 10.4152L6.9665 10.0903L6.9665 10.0903L7.64247 10.4152ZM14.1838 15.0281L14.7141 15.5584L14.7141 15.5584L14.1838 15.0281ZM13.1399 15.9126L13.4648 16.5885L13.4648 16.5885L13.1399 15.9126ZM10.9995 20.4207C9.10797 20.4207 7.74953 20.4197 6.69759 20.3057C5.65967 20.1933 5.00946 19.9782 4.50145 19.6091L3.61978 20.8226C4.4261 21.4084 5.37048 21.6707 6.53602 21.797C7.68752 21.9218 9.14138 21.9207 10.9995 21.9207V20.4207ZM1.24954 12.1708C1.24954 14.0289 1.24851 15.4828 1.37327 16.6343C1.49955 17.7998 1.76187 18.7442 2.34769 19.5505L3.56122 18.6688C3.19213 18.1608 2.97699 17.5106 2.86454 16.4727C2.75057 15.4208 2.74954 14.0623 2.74954 12.1708H1.24954ZM4.50145 19.6091C4.14065 19.3469 3.82336 19.0296 3.56122 18.6688L2.34769 19.5505C2.70235 20.0387 3.13163 20.4679 3.61978 20.8226L4.50145 19.6091ZM10.9995 21.9207C12.8577 21.9207 14.3116 21.9218 15.4631 21.797C16.6286 21.6707 17.573 21.4084 18.3793 20.8226L17.4976 19.6091C16.9896 19.9782 16.3394 20.1933 15.3015 20.3057C14.2495 20.4197 12.8911 20.4207 10.9995 20.4207V21.9207ZM18.4379 18.6688C18.1757 19.0296 17.8584 19.3469 17.4976 19.6091L18.3793 20.8226C18.8674 20.4679 19.2967 20.0387 19.6514 19.5505L18.4379 18.6688ZM2.74954 12.1708C2.74954 10.2792 2.75057 8.92074 2.86454 7.8688C2.97699 6.83089 3.19213 6.18067 3.56122 5.67267L2.34769 4.79099C1.76187 5.59731 1.49955 6.54169 1.37327 7.70723C1.24851 8.85873 1.24954 10.3126 1.24954 12.1708H2.74954ZM3.61978 3.51891C3.13163 3.87356 2.70235 4.30284 2.34769 4.79099L3.56122 5.67267C3.82336 5.31186 4.14065 4.99457 4.50145 4.73243L3.61978 3.51891ZM8.99055 2.42801C6.56403 2.4571 4.89848 2.58987 3.61978 3.51891L4.50145 4.73243C5.33581 4.12624 6.50773 3.95788 9.00853 3.92791L8.99055 2.42801ZM19.2424 14.1618C19.2124 16.6626 19.0441 17.8345 18.4379 18.6688L19.6514 19.5505C20.5804 18.2718 20.7132 16.6063 20.7423 14.1797L19.2424 14.1618ZM19.0253 9.12596L13.6535 14.4978L14.7141 15.5584L20.0859 10.1866L19.0253 9.12596ZM9.05727 9.90157L14.4291 4.52977L13.3684 3.46911L7.99661 8.84091L9.05727 9.90157ZM11.7143 15.4298C10.5443 15.5598 9.74797 15.6464 9.15628 15.6273C8.58471 15.6088 8.35395 15.4937 8.20764 15.3474L7.14698 16.4081C7.68038 16.9415 8.36282 17.1025 9.10787 17.1265C9.8328 17.1499 10.7565 17.0454 11.8799 16.9206L11.7143 15.4298ZM6.63442 11.6751C6.5096 12.7985 6.40511 13.7222 6.42852 14.4472C6.45258 15.1922 6.61359 15.8747 7.14698 16.4081L8.20764 15.3474C8.06133 15.2011 7.94619 14.9703 7.92774 14.3988C7.90863 13.8071 7.99525 13.0107 8.12525 11.8408L6.63442 11.6751ZM7.99661 8.84091C7.54149 9.29604 7.18215 9.64157 6.9665 10.0903L8.31845 10.74C8.39789 10.5748 8.52983 10.429 9.05727 9.90157L7.99661 8.84091ZM8.12525 11.8408C8.20762 11.0994 8.23901 10.9053 8.31845 10.74L6.9665 10.0903C6.75084 10.539 6.7055 11.0354 6.63442 11.6751L8.12525 11.8408ZM13.6535 14.4978C13.126 15.0252 12.9803 15.1572 12.815 15.2366L13.4648 16.5885C13.9135 16.3729 14.259 16.0135 14.7141 15.5584L13.6535 14.4978ZM11.8799 16.9206C12.5196 16.8495 13.0161 16.8042 13.4648 16.5885L12.815 15.2366C12.6497 15.316 12.4556 15.3474 11.7143 15.4298L11.8799 16.9206ZM19.0253 4.52977C19.7069 5.21143 20.1637 5.67045 20.4593 6.05793C20.7418 6.4281 20.8056 6.64357 20.8056 6.82787H22.3056C22.3056 6.18374 22.0361 5.65166 21.6519 5.14806C21.2808 4.66177 20.7376 4.12079 20.0859 3.46911L19.0253 4.52977ZM20.0859 10.1866C20.7376 9.53495 21.2808 8.99397 21.6519 8.50768C22.0361 8.00408 22.3056 7.472 22.3056 6.82787H20.8056C20.8056 7.01216 20.7418 7.22763 20.4593 7.59781C20.1637 7.98528 19.7069 8.4443 19.0253 9.12596L20.0859 10.1866ZM20.0859 3.46911C19.4343 2.81744 18.8933 2.27421 18.407 1.90318C17.9034 1.51894 17.3713 1.24944 16.7272 1.24944V2.74944C16.9115 2.74944 17.1269 2.81328 17.4971 3.09571C17.8846 3.39135 18.3436 3.84811 19.0253 4.52977L20.0859 3.46911ZM14.4291 4.52977C15.1107 3.84811 15.5698 3.39135 15.9572 3.09571C16.3274 2.81328 16.5429 2.74944 16.7272 2.74944V1.24944C16.083 1.24944 15.551 1.51894 15.0474 1.90318C14.5611 2.27421 14.0201 2.81744 13.3684 3.46911L14.4291 4.52977ZM20.0859 9.12596L14.4291 3.46911L13.3684 4.52977L19.0253 10.1866L20.0859 9.12596Z" fill="black"/>
</svg>
