<svg width="24" height="24" viewBox="0 0 24 24" fill="none" xmlns="http://www.w3.org/2000/svg">
<path d="M4.99816 11.0779V13.6263C4.99816 15.4875 4.99816 16.4182 5.24288 17.1713C5.73747 18.6935 6.93089 19.8869 8.45308 20.3815C9.20624 20.6262 10.1369 20.6262 11.9982 20.6262C13.8594 20.6262 14.7901 20.6262 15.5432 20.3815C17.0654 19.8869 18.2588 18.6935 18.7534 17.1713C18.9982 16.4182 18.9982 15.4875 18.9982 13.6263V11.0811M18.9982 11.0811C18.0409 11.4691 16.8583 11.8905 15.451 12.3932L13.3436 13.1458C12.6777 13.3836 12.3447 13.5026 11.9983 13.5026C11.6518 13.5026 11.3189 13.3836 10.6529 13.1458L8.54551 12.3932C4.14485 10.8215 1.94452 10.0356 1.94452 8.62619C1.94452 7.21676 4.14485 6.43092 8.54551 4.85923L10.6529 4.10658C11.3189 3.86874 11.6518 3.74982 11.9983 3.74982C12.3447 3.74982 12.6777 3.86874 13.3436 4.10658L15.451 4.85923C19.8517 6.43092 22.052 7.21676 22.052 8.62619C22.052 9.5849 21.0343 10.2559 18.9982 11.0811Z" stroke="black" stroke-width="1.5"/>
<path fill-rule="evenodd" clip-rule="evenodd" d="M8.23141 4.1752L10.4013 3.40022C10.4344 3.3884 10.4671 3.3767 10.4994 3.36514C11.0692 3.1611 11.5198 2.99976 11.999 2.99976C12.4782 2.99976 12.9288 3.1611 13.4985 3.36514C13.5308 3.3767 13.5635 3.3884 13.5966 3.40022L15.7665 4.1752C17.9141 4.94217 19.6019 5.54496 20.7471 6.13735C21.8539 6.70989 22.8027 7.44584 22.8027 8.62613C22.8027 9.80642 21.8539 10.5424 20.7471 11.1149C19.6019 11.7073 17.9141 12.3101 15.7665 13.0771L13.5966 13.852C13.5635 13.8639 13.5308 13.8756 13.4985 13.8871C12.9288 14.0912 12.4782 14.2525 11.999 14.2525C11.5198 14.2525 11.0692 14.0912 10.4994 13.8871C10.4671 13.8756 10.4344 13.8639 10.4013 13.852L8.2314 13.0771C6.08386 12.3101 4.39605 11.7073 3.25088 11.1149C2.14405 10.5424 1.19522 9.80642 1.19522 8.62613C1.19522 7.44584 2.14405 6.70989 3.25088 6.13735C4.39605 5.54496 6.08387 4.94218 8.23141 4.1752ZM3.94006 7.46965C2.84656 8.0353 2.69522 8.39699 2.69522 8.62613C2.69522 8.85527 2.84656 9.21696 3.94006 9.78262C4.98412 10.3227 6.57514 10.8927 8.79846 11.6868L10.9059 12.4394C11.6209 12.6948 11.8125 12.7525 11.999 12.7525C12.1855 12.7525 12.377 12.6948 13.0921 12.4394L15.1995 11.6868C17.4228 10.8927 19.0138 10.3227 20.0579 9.78262C21.1514 9.21696 21.3027 8.85527 21.3027 8.62613C21.3027 8.39699 21.1514 8.0353 20.0579 7.46965C19.0138 6.92957 17.4228 6.35953 15.1995 5.56548L13.0921 4.81283C12.377 4.55745 12.1855 4.49976 11.999 4.49976C11.8125 4.49976 11.6209 4.55745 10.9059 4.81283L8.79847 5.56548C6.57514 6.35953 4.98412 6.92957 3.94006 7.46965ZM1.99887 16.3761C1.58465 16.3761 1.19522 16.0521 1.19522 15.6378V8.62613C1.19522 8.21192 1.58465 7.87613 1.99887 7.87613C2.41308 7.87613 2.69522 8.21192 2.69522 8.62613L2.74886 9.85269V15.6261C2.74886 16.0403 2.41308 16.3761 1.99887 16.3761Z" fill="black"/>
</svg>
