<svg width="24" height="24" viewBox="0 0 24 24" fill="none" xmlns="http://www.w3.org/2000/svg">
<path d="M8.99978 9.00024L9.33509 7.99432C10.0387 5.88356 12.8234 5.43167 14.1583 7.21162C14.9403 8.25427 14.8858 9.70199 14.0275 10.6828L13.1083 11.7334C12.3937 12.5501 11.9998 13.5984 11.9998 14.6836V15.0002M21.9998 12.0002C21.9998 17.5231 17.5226 22.0002 11.9998 22.0002C6.47694 22.0002 1.99979 17.5231 1.99979 12.0002C1.99979 6.47739 6.47694 2.00024 11.9998 2.00024C17.5226 2.00024 21.9998 6.47739 21.9998 12.0002Z" stroke="black" stroke-width="1.5" stroke-linecap="round"/>
<path d="M13.0009 18.0002C13.0009 18.5528 12.553 19.0007 12.0004 19.0007C11.4478 19.0007 10.9999 18.5528 10.9999 18.0002C10.9999 17.4477 11.4478 16.9998 12.0004 16.9998C12.553 16.9998 13.0009 17.4477 13.0009 18.0002Z" fill="black"/>
</svg>
