<svg width="24" height="24" viewBox="0 0 24 24" fill="none" xmlns="http://www.w3.org/2000/svg">
<path d="M11.9999 17.75C12.4141 17.75 12.7499 17.4142 12.7499 17C12.7499 16.5858 12.4141 16.25 11.9999 16.25L11.9999 17.75ZM3.99988 16.25C3.58566 16.25 3.24988 16.5858 3.24988 17C3.24988 17.4142 3.58566 17.75 3.99988 17.75L3.99988 16.25ZM11.9999 6.25C11.5857 6.25 11.2499 6.58579 11.2499 7C11.2499 7.41421 11.5857 7.75 11.9999 7.75L11.9999 6.25ZM19.9999 7.75C20.4141 7.75 20.7499 7.41421 20.7499 7C20.7499 6.58579 20.4141 6.25 19.9999 6.25L19.9999 7.75ZM11.9999 16.25L3.99988 16.25L3.99988 17.75L11.9999 17.75L11.9999 16.25ZM11.9999 7.75L19.9999 7.75L19.9999 6.25L11.9999 6.25L11.9999 7.75ZM3.24988 7C3.24988 8.51878 4.48109 9.75 5.99988 9.75V8.25C5.30952 8.25 4.74988 7.69036 4.74988 7H3.24988ZM5.99988 9.75C7.51866 9.75 8.74988 8.51878 8.74988 7H7.24988C7.24988 7.69036 6.69023 8.25 5.99988 8.25V9.75ZM8.74988 7C8.74988 5.48122 7.51866 4.25 5.99988 4.25V5.75C6.69023 5.75 7.24988 6.30964 7.24988 7H8.74988ZM5.99988 4.25C4.48109 4.25 3.24988 5.48122 3.24988 7H4.74988C4.74988 6.30964 5.30952 5.75 5.99988 5.75V4.25ZM20.7499 17C20.7499 15.4812 19.5187 14.25 17.9999 14.25L17.9999 15.75C18.6902 15.75 19.2499 16.3096 19.2499 17L20.7499 17ZM17.9999 14.25C16.4811 14.25 15.2499 15.4812 15.2499 17L16.7499 17C16.7499 16.3096 17.3095 15.75 17.9999 15.75L17.9999 14.25ZM15.2499 17C15.2499 18.5188 16.4811 19.75 17.9999 19.75L17.9999 18.25C17.3095 18.25 16.7499 17.6904 16.7499 17L15.2499 17ZM17.9999 19.75C19.5187 19.75 20.7499 18.5188 20.7499 17L19.2499 17C19.2499 17.6904 18.6902 18.25 17.9999 18.25L17.9999 19.75Z" fill="black"/>
</svg>
