<svg width="24" height="24" viewBox="0 0 24 24" fill="none" xmlns="http://www.w3.org/2000/svg">
<path d="M11.9994 4.25C11.5852 4.25 11.2494 4.58579 11.2494 5C11.2494 5.41421 11.5852 5.75 11.9994 5.75L11.9994 4.25ZM19.9994 5.75C20.4136 5.75 20.7494 5.41421 20.7494 5C20.7494 4.58579 20.4136 4.25 19.9994 4.25L19.9994 5.75ZM11.9994 18.25C11.5852 18.25 11.2494 18.5858 11.2494 19C11.2494 19.4142 11.5852 19.75 11.9994 19.75V18.25ZM19.9994 19.75C20.4136 19.75 20.7494 19.4142 20.7494 19C20.7494 18.5858 20.4136 18.25 19.9994 18.25V19.75ZM11.9994 12.75C12.4136 12.75 12.7494 12.4142 12.7494 12C12.7494 11.5858 12.4136 11.25 11.9994 11.25L11.9994 12.75ZM3.99944 11.25C3.58522 11.25 3.24944 11.5858 3.24944 12C3.24944 12.4142 3.58522 12.75 3.99944 12.75L3.99944 11.25ZM11.9994 5.75L19.9994 5.75L19.9994 4.25L11.9994 4.25L11.9994 5.75ZM11.9994 19.75H19.9994V18.25H11.9994V19.75ZM11.9994 11.25L3.99944 11.25L3.99944 12.75L11.9994 12.75L11.9994 11.25ZM3.24944 5C3.24944 6.51878 4.48065 7.75 5.99943 7.75V6.25C5.30908 6.25 4.74944 5.69035 4.74944 5H3.24944ZM5.99943 7.75C7.51822 7.75 8.74943 6.51878 8.74943 5H7.24943C7.24943 5.69035 6.68979 6.25 5.99943 6.25V7.75ZM8.74943 5C8.74943 3.48122 7.51822 2.25 5.99943 2.25V3.75C6.68979 3.75 7.24943 4.30964 7.24943 5H8.74943ZM5.99943 2.25C4.48065 2.25 3.24944 3.48122 3.24944 5H4.74944C4.74944 4.30964 5.30908 3.75 5.99943 3.75V2.25ZM3.24944 19C3.24944 20.5188 4.48065 21.75 5.99943 21.75V20.25C5.30908 20.25 4.74944 19.6903 4.74944 19H3.24944ZM5.99943 21.75C7.51822 21.75 8.74943 20.5188 8.74943 19H7.24943C7.24943 19.6903 6.68979 20.25 5.99943 20.25V21.75ZM8.74943 19C8.74943 17.4812 7.51822 16.25 5.99943 16.25V17.75C6.68979 17.75 7.24943 18.3096 7.24943 19H8.74943ZM5.99943 16.25C4.48065 16.25 3.24944 17.4812 3.24944 19H4.74944C4.74944 18.3096 5.30908 17.75 5.99943 17.75V16.25ZM20.7494 12C20.7494 10.4812 19.5182 9.25 17.9994 9.25L17.9994 10.75C18.6898 10.75 19.2494 11.3096 19.2494 12L20.7494 12ZM17.9994 9.25C16.4806 9.25 15.2494 10.4812 15.2494 12L16.7494 12C16.7494 11.3096 17.3091 10.75 17.9994 10.75L17.9994 9.25ZM15.2494 12C15.2494 13.5188 16.4806 14.75 17.9994 14.75L17.9994 13.25C17.3091 13.25 16.7494 12.6904 16.7494 12L15.2494 12ZM17.9994 14.75C19.5182 14.75 20.7494 13.5188 20.7494 12L19.2494 12C19.2494 12.6904 18.6898 13.25 17.9994 13.25L17.9994 14.75Z" fill="black"/>
</svg>
