<svg width="24" height="24" viewBox="0 0 24 24" fill="none" xmlns="http://www.w3.org/2000/svg">
<path d="M8.24959 12C8.24959 12.4142 8.58537 12.75 8.99959 12.75C9.4138 12.75 9.74959 12.4142 9.74959 12L8.24959 12ZM9.74959 6C9.74959 5.58579 9.4138 5.25 8.99959 5.25C8.58537 5.25 8.24959 5.58579 8.24959 6L9.74959 6ZM15.7496 12C15.7496 11.5858 15.4138 11.25 14.9996 11.25C14.5854 11.25 14.2496 11.5858 14.2496 12H15.7496ZM14.2496 18C14.2496 18.4142 14.5854 18.75 14.9996 18.75C15.4138 18.75 15.7496 18.4142 15.7496 18H14.2496ZM5.06066 20.0451L5.5015 19.4383L5.06066 20.0451ZM3.9545 18.9389L4.56127 18.4981L3.9545 18.9389ZM20.0447 18.9389L19.4379 18.4981L20.0447 18.9389ZM18.9385 20.0451L18.4977 19.4383L18.9385 20.0451ZM18.9385 3.95491L18.4977 4.56168L18.9385 3.95491ZM20.0447 5.06107L19.4379 5.50191L20.0447 5.06107ZM5.06066 3.95491L5.5015 4.56168L5.06066 3.95491ZM3.9545 5.06107L4.56127 5.50191L3.9545 5.06107ZM9.74959 12L9.74959 6L8.24959 6L8.24959 12L9.74959 12ZM14.2496 12V18H15.7496V12H14.2496ZM8.99953 18.75C10.5183 18.75 11.7495 17.5187 11.7495 16L10.2495 16C10.2495 16.6903 9.68989 17.25 8.99953 17.25L8.99953 18.75ZM11.7495 16C11.7495 14.4812 10.5183 13.25 8.99953 13.25L8.99953 14.75C9.68989 14.75 10.2495 15.3096 10.2495 16L11.7495 16ZM8.99953 13.25C7.48075 13.25 6.24954 14.4812 6.24954 16L7.74953 16C7.74953 15.3096 8.30918 14.75 8.99953 14.75L8.99953 13.25ZM6.24954 16C6.24954 17.5187 7.48075 18.75 8.99953 18.75L8.99953 17.25C8.30918 17.25 7.74953 16.6903 7.74953 16L6.24954 16ZM14.9995 5.24996C13.4807 5.24996 12.2495 6.48118 12.2495 7.99996L13.7495 7.99996C13.7495 7.3096 14.3092 6.74996 14.9995 6.74996L14.9995 5.24996ZM12.2495 7.99996C12.2495 9.51874 13.4807 10.75 14.9995 10.75L14.9995 9.24996C14.3092 9.24996 13.7495 8.69031 13.7495 7.99996L12.2495 7.99996ZM14.9995 10.75C16.5183 10.75 17.7495 9.51874 17.7495 7.99996L16.2495 7.99996C16.2495 8.69031 15.6899 9.24996 14.9995 9.24996L14.9995 10.75ZM17.7495 7.99996C17.7495 6.48118 16.5183 5.24996 14.9995 5.24996L14.9995 6.74996C15.6899 6.74996 16.2495 7.3096 16.2495 7.99996L17.7495 7.99996ZM11.9996 20.25C10.108 20.25 8.74958 20.249 7.69763 20.135C6.65972 20.0225 6.0095 19.8074 5.5015 19.4383L4.61982 20.6518C5.42615 21.2377 6.37053 21.5 7.53606 21.6263C8.68756 21.751 10.1414 21.75 11.9996 21.75V20.25ZM2.24959 12C2.24959 13.8582 2.24856 15.312 2.37332 16.4635C2.49959 17.6291 2.76191 18.5734 3.34774 19.3798L4.56127 18.4981C4.19218 17.9901 3.97704 17.3399 3.86459 16.3019C3.75062 15.25 3.74959 13.8916 3.74959 12H2.24959ZM5.5015 19.4383C5.1407 19.1762 4.8234 18.8589 4.56127 18.4981L3.34774 19.3798C3.7024 19.8679 4.13168 20.2972 4.61982 20.6518L5.5015 19.4383ZM20.2496 12C20.2496 13.8916 20.2486 15.25 20.1346 16.3019C20.0221 17.3399 19.807 17.9901 19.4379 18.4981L20.6514 19.3798C21.2373 18.5734 21.4996 17.6291 21.6259 16.4635C21.7506 15.312 21.7496 13.8582 21.7496 12H20.2496ZM11.9996 21.75C13.8577 21.75 15.3116 21.751 16.4631 21.6263C17.6286 21.5 18.573 21.2377 19.3793 20.6518L18.4977 19.4383C17.9897 19.8074 17.3394 20.0225 16.3015 20.135C15.2496 20.249 13.8912 20.25 11.9996 20.25V21.75ZM19.4379 18.4981C19.1758 18.8589 18.8585 19.1762 18.4977 19.4383L19.3793 20.6518C19.8675 20.2972 20.2968 19.8679 20.6514 19.3798L19.4379 18.4981ZM11.9996 3.75C13.8912 3.75 15.2496 3.75103 16.3015 3.865C17.3394 3.97745 17.9897 4.19259 18.4977 4.56168L19.3793 3.34815C18.573 2.76232 17.6286 2.50001 16.4631 2.37373C15.3116 2.24897 13.8577 2.25 11.9996 2.25V3.75ZM21.7496 12C21.7496 10.1418 21.7506 8.68797 21.6259 7.53647C21.4996 6.37094 21.2373 5.42656 20.6514 4.62023L19.4379 5.50191C19.807 6.00992 20.0221 6.66013 20.1346 7.69804C20.2486 8.74999 20.2496 10.1084 20.2496 12H21.7496ZM18.4977 4.56168C18.8585 4.82382 19.1758 5.14111 19.4379 5.50191L20.6514 4.62023C20.2968 4.13209 19.8675 3.70281 19.3793 3.34815L18.4977 4.56168ZM11.9996 2.25C10.1414 2.25 8.68756 2.24897 7.53606 2.37373C6.37053 2.50001 5.42615 2.76232 4.61982 3.34815L5.5015 4.56168C6.0095 4.19259 6.65972 3.97745 7.69763 3.865C8.74958 3.75103 10.108 3.75 11.9996 3.75V2.25ZM3.74959 12C3.74959 10.1084 3.75062 8.74999 3.86459 7.69804C3.97704 6.66013 4.19218 6.00992 4.56127 5.50191L3.34774 4.62023C2.76191 5.42656 2.49959 6.37094 2.37332 7.53647C2.24856 8.68797 2.24959 10.1418 2.24959 12H3.74959ZM4.61982 3.34815C4.13168 3.70281 3.7024 4.13209 3.34774 4.62023L4.56127 5.50191C4.8234 5.14111 5.1407 4.82382 5.5015 4.56168L4.61982 3.34815Z" fill="black"/>
</svg>
