<svg width="24" height="24" viewBox="0 0 24 24" fill="none" xmlns="http://www.w3.org/2000/svg">
<path d="M3.00027 6.47246C3.00027 4.55467 4.55495 3 6.47273 3H17.5845C19.471 3 21.0003 4.52929 21.0003 6.41577C21.0003 7.42052 20.5579 8.37431 19.7909 9.02332L16.2706 12.0021C15.1478 12.9521 14.5003 14.3482 14.5003 15.819V17.5996C14.5003 18.4795 14.0793 19.3062 13.3677 19.8236L11.4265 21.2355C10.4167 21.9698 9.00027 21.2485 9.00027 20V15.6995C9.00027 14.298 8.41204 12.9608 7.3789 12.0137L4.12631 9.03219C3.4088 8.37448 3.00027 7.44581 3.00027 6.47246Z" stroke="black" stroke-width="1.5"/>
</svg>
