<svg width="24" height="24" viewBox="0 0 24 24" fill="none" xmlns="http://www.w3.org/2000/svg">
<path d="M16.2697 11.7444L16.746 12.3238L16.746 12.3238L16.2697 11.7444ZM7.37808 11.7557L7.87683 11.1956L7.87683 11.1956L7.37808 11.7557ZM13.3669 19.3421L12.9342 18.7295L12.9342 18.7295L13.3669 19.3421ZM11.4257 20.7135L11.8584 21.3261L11.8584 21.3261L11.4257 20.7135ZM4.12549 8.85953L3.62674 9.41966L4.12549 8.85953ZM19.7901 8.85091L19.3138 8.27151L19.3138 8.27151L19.7901 8.85091ZM15.9995 7.75C16.4137 7.75 16.7495 7.41421 16.7495 7C16.7495 6.58579 16.4137 6.25 15.9995 6.25L15.9995 7.75ZM7.99946 6.25C7.58524 6.25 7.24946 6.58578 7.24946 7C7.24946 7.41421 7.58524 7.75 7.99946 7.75L7.99946 6.25ZM6.47192 3.75H17.5837V2.25H6.47192V3.75ZM12.9342 18.7295L10.9929 20.101L11.8584 21.3261L13.7997 19.9547L12.9342 18.7295ZM9.74946 19.5134V15.336H8.24946V19.5134H9.74946ZM7.87683 11.1956L4.62425 8.29941L3.62674 9.41966L6.87933 12.3159L7.87683 11.1956ZM19.3138 8.27151L15.7935 11.165L16.746 12.3238L20.2663 9.43031L19.3138 8.27151ZM13.7495 15.4521V17.1817H15.2495V15.4521H13.7495ZM15.7935 11.165C14.5009 12.2274 13.7495 13.7946 13.7495 15.4521H15.2495C15.2495 14.2522 15.7931 13.107 16.746 12.3238L15.7935 11.165ZM9.74946 15.336C9.74946 13.7567 9.06686 12.2552 7.87683 11.1956L6.87933 12.3159C7.75559 13.0961 8.24946 14.1925 8.24946 15.336H9.74946ZM13.7997 19.9547C14.7056 19.3147 15.2495 18.2855 15.2495 17.1817H13.7495C13.7495 17.7872 13.4514 18.3642 12.9342 18.7295L13.7997 19.9547ZM10.9929 20.101C10.4469 20.4867 9.74946 20.0779 9.74946 19.5134H8.24946C8.24946 21.3745 10.3849 22.367 11.8584 21.3261L10.9929 20.101ZM2.24946 6.37307C2.24946 7.53647 2.75235 8.64108 3.62674 9.41966L4.62425 8.29941C4.06361 7.8002 3.74946 7.10064 3.74946 6.37307H2.24946ZM20.2495 6.318C20.2495 7.06517 19.911 7.78069 19.3138 8.27151L20.2663 9.43031C21.2032 8.66027 21.7495 7.52281 21.7495 6.318H20.2495ZM17.5837 3.75C19.0766 3.75 20.2495 4.92011 20.2495 6.318H21.7495C21.7495 4.05092 19.8637 2.25 17.5837 2.25V3.75ZM6.47192 2.25C4.1606 2.25 2.24946 4.07558 2.24946 6.37307H3.74946C3.74946 4.94477 4.94766 3.75 6.47192 3.75V2.25ZM15.9995 6.25L7.99946 6.25L7.99946 7.75L15.9995 7.75L15.9995 6.25Z" fill="black"/>
</svg>
