<svg width="24" height="24" viewBox="0 0 24 24" fill="none" xmlns="http://www.w3.org/2000/svg">
<g clip-path="url(#clip0_0_1)">
<path d="M9.99966 1.00012L9.99966 0.250122L9.99966 1.00012ZM13.9997 1.00012L13.9997 1.75012L13.9997 1.00012ZM17.9997 5.00012L17.2497 5.00012V5.00012H17.9997ZM5.99967 5.00012L5.24967 5.00012V5.00012H5.99967ZM6.58545 1.58591L6.05512 1.05558L6.05512 1.05558L6.58545 1.58591ZM2.38027 11.0867L1.68736 10.7997L2.38027 11.0867ZM9.49966 8.00012L9.49966 7.25012L9.49966 7.25012L9.49966 8.00012ZM5.08625 8.38072L4.79924 7.68781L5.08625 8.38072ZM9.49966 23.0001L9.49966 23.7501H9.49966V23.0001ZM5.08625 22.6195L4.79924 23.3124L5.08625 22.6195ZM2.38027 19.9135L1.68736 20.2005L2.38027 19.9135ZM21.6191 19.9135L22.312 20.2005L21.6191 19.9135ZM14.4997 23.0001L14.4997 22.2501H14.4997V23.0001ZM18.9131 22.6195L19.2001 23.3124L18.9131 22.6195ZM21.6191 11.0867L22.312 10.7997L21.6191 11.0867ZM14.4997 8.00012L14.4997 8.75012L14.4997 8.75012L14.4997 8.00012ZM18.9131 8.38072L19.2001 7.68781L18.9131 8.38072ZM10.7497 4.00012C10.7497 3.58591 10.4139 3.25012 9.99966 3.25012C9.58545 3.25012 9.24966 3.58591 9.24966 4.00012H10.7497ZM9.24966 6.00012C9.24966 6.41433 9.58545 6.75012 9.99966 6.75012C10.4139 6.75012 10.7497 6.41433 10.7497 6.00012H9.24966ZM14.7497 4.00012C14.7497 3.58591 14.4139 3.25012 13.9997 3.25012C13.5854 3.25012 13.2497 3.58591 13.2497 4.00012H14.7497ZM13.2497 6.00012C13.2497 6.41433 13.5854 6.75012 13.9997 6.75012C14.4139 6.75012 14.7497 6.41433 14.7497 6.00012H13.2497ZM20.1027 13.2996L19.9857 12.5588L19.9857 12.5588L20.1027 13.2996ZM4.88757 13.3583L4.99883 12.6166L4.99883 12.6166L4.88757 13.3583ZM2.49967 13.0001L2.38102 13.7407L2.38841 13.7418L2.49967 13.0001ZM5.99967 8.13144L6.12042 8.87166L5.99967 8.13144ZM17.9997 8.13144L17.8789 8.87166L17.9997 8.13144ZM2.03722 12.926L1.2884 12.884L2.03722 12.926ZM9.99966 1.75012L13.9997 1.75012L13.9997 0.250123L9.99966 0.250122L9.99966 1.75012ZM17.2497 5.00012V8.00012H18.7497V5.00012H17.2497ZM6.74966 8.00012V5.00012H5.24967V8.00012H6.74966ZM9.99966 0.250122C9.07806 0.250122 8.3114 0.248529 7.70519 0.330033C7.07739 0.414438 6.51059 0.600108 6.05512 1.05558L7.11578 2.11624C7.2461 1.98592 7.4436 1.8787 7.90506 1.81666C8.38809 1.75171 9.03565 1.75012 9.99966 1.75012L9.99966 0.250122ZM6.74966 5.00012C6.74967 4.03611 6.75126 3.38855 6.8162 2.90551C6.87824 2.44405 6.98547 2.24655 7.11578 2.11624L6.05512 1.05558C5.59965 1.51105 5.41398 2.07785 5.32958 2.70564C5.24807 3.31186 5.24967 4.07851 5.24967 5.00012L6.74966 5.00012ZM13.9997 1.75012C14.9637 1.75012 15.6112 1.75171 16.0943 1.81666C16.5557 1.8787 16.7532 1.98592 16.8835 2.11624L17.9442 1.05558C17.4887 0.600109 16.9219 0.414439 16.2941 0.330034C15.6879 0.24853 14.9213 0.250123 13.9997 0.250123L13.9997 1.75012ZM18.7497 5.00012C18.7497 4.07851 18.7513 3.31186 18.6697 2.70564C18.5853 2.07785 18.3997 1.51105 17.9442 1.05558L16.8835 2.11624C17.0139 2.24655 17.1211 2.44405 17.1831 2.90551C17.2481 3.38855 17.2497 4.03611 17.2497 5.00012L18.7497 5.00012ZM14.4997 22.2501H9.49966V23.7501H14.4997V22.2501ZM9.49966 8.75012L14.4997 8.75012L14.4997 7.25012L9.49966 7.25012L9.49966 8.75012ZM3.07318 11.3737C3.50453 10.3323 4.33189 9.50498 5.37326 9.07363L4.79924 7.68781C3.39033 8.2714 2.27095 9.39078 1.68736 10.7997L3.07318 11.3737ZM9.49966 22.2501C8.32455 22.2501 7.48077 22.2497 6.81494 22.2043C6.15584 22.1593 5.72607 22.0727 5.37326 21.9266L4.79924 23.3124C5.36528 23.5469 5.97736 23.6506 6.71283 23.7008C7.44157 23.7505 8.34507 23.7501 9.49966 23.7501L9.49966 22.2501ZM1.24967 15.5001C1.24967 16.6547 1.24926 17.5582 1.29898 18.2869C1.34916 19.0224 1.4529 19.6345 1.68736 20.2005L3.07318 19.6265C2.92704 19.2737 2.84047 18.8439 2.7955 18.1848C2.75007 17.519 2.74967 16.6752 2.74967 15.5001L1.24967 15.5001ZM5.37326 21.9266C4.33189 21.4953 3.50453 20.6679 3.07318 19.6265L1.68736 20.2005C2.27095 21.6095 3.39032 22.7288 4.79924 23.3124L5.37326 21.9266ZM21.2497 15.5001C21.2497 16.6752 21.2493 17.519 21.2038 18.1848C21.1589 18.8439 21.0723 19.2737 20.9261 19.6265L22.312 20.2005C22.5464 19.6345 22.6502 19.0224 22.7003 18.2869C22.7501 17.5582 22.7497 16.6547 22.7497 15.5001L21.2497 15.5001ZM14.4997 23.7501C15.6543 23.7501 16.5578 23.7505 17.2865 23.7008C18.022 23.6506 18.634 23.5469 19.2001 23.3124L18.6261 21.9266C18.2733 22.0727 17.8435 22.1593 17.1844 22.2043C16.5186 22.2497 15.6748 22.2501 14.4997 22.2501L14.4997 23.7501ZM20.9261 19.6265C20.4948 20.6679 19.6674 21.4953 18.6261 21.9266L19.2001 23.3124C20.609 22.7288 21.7284 21.6095 22.312 20.2005L20.9261 19.6265ZM22.312 10.7997C21.7284 9.39078 20.609 8.2714 19.2001 7.68781L18.6261 9.07363C19.6674 9.50498 20.4948 10.3323 20.9261 11.3737L22.312 10.7997ZM9.24966 4.00012V6.00012H10.7497V4.00012H9.24966ZM13.2497 4.00012V6.00012H14.7497V4.00012H13.2497ZM4.99883 12.6166L2.61092 12.2584L2.38841 13.7418L4.77632 14.1L4.99883 12.6166ZM19.9857 12.5588C15.0223 13.3425 9.96817 13.362 4.99883 12.6166L4.77632 14.1C9.897 14.8681 15.1051 14.848 20.2197 14.0405L19.9857 12.5588ZM9.49966 7.25012C7.89419 7.25012 6.75879 7.24769 5.87891 7.39123L6.12042 8.87166C6.85051 8.75255 7.83709 8.75012 9.49966 8.75012L9.49966 7.25012ZM5.87891 7.39123C5.49132 7.45446 5.13734 7.54776 4.79924 7.68781L5.37326 9.07363C5.58392 8.98637 5.82258 8.92025 6.12042 8.87166L5.87891 7.39123ZM5.24967 8.00012V8.13144H6.74966V8.00012H5.24967ZM14.4997 8.75012C16.1622 8.75012 17.1488 8.75255 17.8789 8.87166L18.1204 7.39123C17.2405 7.24769 16.1051 7.25012 14.4997 7.25012L14.4997 8.75012ZM17.8789 8.87166C18.1767 8.92025 18.4154 8.98637 18.6261 9.07363L19.2001 7.68781C18.862 7.54777 18.508 7.45446 18.1204 7.39123L17.8789 8.87166ZM17.2497 8.00012V8.13144H18.7497V8.00012H17.2497ZM21.8494 12.2646L19.9857 12.5588L20.2197 14.0405L22.0833 13.7462L21.8494 12.2646ZM22.7497 15.5001C22.7497 14.4729 22.7499 13.6462 22.7154 12.9673L21.2173 13.0434C21.2494 13.6756 21.2497 14.4585 21.2497 15.5001L22.7497 15.5001ZM22.7154 12.9673C22.6721 12.1155 22.5722 11.4281 22.312 10.7997L20.9261 11.3737C21.0891 11.7671 21.1772 12.2535 21.2173 13.0434L22.7154 12.9673ZM2.74967 15.5001C2.74967 14.4155 2.74994 13.612 2.78604 12.968L1.2884 12.884C1.2494 13.5796 1.24967 14.4317 1.24967 15.5001L2.74967 15.5001ZM2.78604 12.968C2.82788 12.2219 2.9157 11.7539 3.07318 11.3737L1.68736 10.7997C1.43538 11.408 1.33399 12.0709 1.2884 12.884L2.78604 12.968ZM2.61831 12.2596L2.15586 12.1855L1.91858 13.6666L2.38103 13.7407L2.61831 12.2596Z" fill="black"/>
</g>
<defs>
<clipPath id="clip0_0_1">
<rect width="24" height="24" fill="black" transform="translate(0.000244141 -0.000488281)"/>
</clipPath>
</defs>
</svg>
