<svg width="24" height="24" viewBox="0 0 24 24" fill="none" xmlns="http://www.w3.org/2000/svg">
<path d="M9.99996 1.99976L9.99996 1.24976L9.99996 1.99976ZM14 1.99976L14 2.74976L14 1.99976ZM18 5.99975L17.25 5.99975V5.99975H18ZM5.99996 5.99975L5.24996 5.99975V5.99975H5.99996ZM6.58575 2.58554L6.05542 2.05521L6.05542 2.05521L6.58575 2.58554ZM1.99997 15.4997L2.74997 15.4997L1.99997 15.4997ZM2.13812 12.8325L1.40884 12.6574L1.40884 12.6574L2.13812 12.8325ZM8.49996 8.99975L8.49996 8.24975L8.49996 8.24975L8.49996 8.99975ZM5.83274 9.1379L6.00782 9.86718L5.83274 9.1379ZM8.49996 21.9997L8.49996 22.7497H8.49996V21.9997ZM5.83274 21.8616L5.65765 22.5909L5.65765 22.5909L5.83274 21.8616ZM2.13812 18.167L2.86739 17.9919L2.13812 18.167ZM22 15.4997L21.25 15.4997L22 15.4997ZM21.8618 18.167L22.5911 18.3421L22.5911 18.3421L21.8618 18.167ZM15.5 21.9997L15.5 21.2497H15.5V21.9997ZM18.1672 21.8616L17.9921 21.1323L18.1672 21.8616ZM21.8618 12.8325L21.1325 13.0076L21.8618 12.8325ZM15.5 8.99975L15.5 9.74975L15.5 9.74975L15.5 8.99975ZM18.1672 9.1379L18.3423 8.40863L18.1672 9.1379ZM10.75 4.99975C10.75 4.58554 10.4142 4.24975 9.99996 4.24975C9.58575 4.24975 9.24996 4.58554 9.24996 4.99975H10.75ZM9.24996 6.99975C9.24996 7.41397 9.58575 7.74975 9.99996 7.74975C10.4142 7.74975 10.75 7.41397 10.75 6.99975H9.24996ZM14.75 4.99975C14.75 4.58554 14.4142 4.24975 14 4.24975C13.5857 4.24975 13.25 4.58554 13.25 4.99975H14.75ZM13.25 6.99975C13.25 7.41397 13.5857 7.74975 14 7.74975C14.4142 7.74975 14.75 7.41397 14.75 6.99975H13.25ZM20.103 13.2993L19.986 12.5584L19.986 12.5584L20.103 13.2993ZM4.88787 13.3579L4.99913 12.6162L4.99913 12.6162L4.88787 13.3579ZM2.49997 12.9998L2.38469 13.7409L2.38871 13.7415L2.49997 12.9998ZM2.11426 12.9398L1.3796 12.7888L2.11426 12.9398ZM9.99996 2.74976L14 2.74976L14 1.24976L9.99996 1.24976L9.99996 2.74976ZM17.25 5.99975V8.99975H18.75V5.99975H17.25ZM6.74996 8.99975V5.99975H5.24996V8.99975H6.74996ZM9.99996 1.24976C9.07836 1.24976 8.3117 1.24816 7.70548 1.32967C7.07769 1.41407 6.51089 1.59974 6.05542 2.05521L7.11608 3.11587C7.2464 2.98556 7.44389 2.87833 7.90535 2.81629C8.38839 2.75135 9.03595 2.74976 9.99996 2.74976L9.99996 1.24976ZM6.74996 5.99975C6.74996 5.03574 6.75156 4.38818 6.8165 3.90515C6.87854 3.44369 6.98576 3.24619 7.11608 3.11587L6.05542 2.05521C5.59995 2.51068 5.41428 3.07748 5.32988 3.70528C5.24837 4.31149 5.24996 5.07815 5.24996 5.99975L6.74996 5.99975ZM14 2.74976C14.964 2.74976 15.6115 2.75135 16.0946 2.81629C16.556 2.87833 16.7535 2.98556 16.8838 3.11587L17.9445 2.05521C17.489 1.59974 16.9222 1.41407 16.2944 1.32967C15.6882 1.24816 14.9216 1.24976 14 1.24976L14 2.74976ZM18.75 5.99975C18.75 5.07815 18.7516 4.3115 18.67 3.70528C18.5856 3.07748 18.4 2.51068 17.9445 2.05521L16.8838 3.11587C17.0142 3.24619 17.1214 3.44369 17.1834 3.90515C17.2484 4.38818 17.25 5.03574 17.25 5.99975L18.75 5.99975ZM15.5 21.2497H8.49996V22.7497H15.5V21.2497ZM8.49996 9.74975L15.5 9.74975L15.5 8.24975L8.49996 8.24975L8.49996 9.74975ZM2.86739 13.0076C3.24048 11.4536 4.45381 10.2403 6.00782 9.86718L5.65765 8.40863C3.55517 8.91339 1.9136 10.555 1.40884 12.6574L2.86739 13.0076ZM8.49996 21.2497C7.06212 21.2497 6.47518 21.2445 6.00782 21.1323L5.65765 22.5909C6.34116 22.755 7.14875 22.7497 8.49996 22.7497L8.49996 21.2497ZM1.24997 15.4997C1.24997 16.851 1.24474 17.6585 1.40884 18.3421L2.86739 17.9919C2.75519 17.5245 2.74997 16.9376 2.74997 15.4997L1.24997 15.4997ZM6.00782 21.1323C4.45381 20.7592 3.24048 19.5459 2.86739 17.9919L1.40884 18.3421C1.9136 20.4445 3.55517 22.0861 5.65765 22.5909L6.00782 21.1323ZM21.25 15.4997C21.25 16.9376 21.2447 17.5245 21.1325 17.9919L22.5911 18.3421C22.7552 17.6585 22.75 16.851 22.75 15.4997L21.25 15.4997ZM15.5 22.7497C16.8512 22.7497 17.6588 22.755 18.3423 22.5909L17.9921 21.1323C17.5247 21.2445 16.9378 21.2497 15.5 21.2497L15.5 22.7497ZM21.1325 17.9919C20.7594 19.5459 19.5461 20.7592 17.9921 21.1323L18.3423 22.5909C20.4447 22.0861 22.0863 20.4445 22.5911 18.3421L21.1325 17.9919ZM22.5911 12.6574C22.0863 10.555 20.4447 8.91339 18.3423 8.40863L17.9921 9.86718C19.5461 10.2403 20.7594 11.4536 21.1325 13.0076L22.5911 12.6574ZM9.24996 4.99975V6.99975H10.75V4.99975H9.24996ZM13.25 4.99975V6.99975H14.75V4.99975H13.25ZM4.99913 12.6162L2.61122 12.2581L2.38871 13.7415L4.77662 14.0996L4.99913 12.6162ZM19.986 12.5584C15.0226 13.3421 9.96846 13.3616 4.99913 12.6162L4.77662 14.0996C9.8973 14.8677 15.1054 14.8477 20.22 14.0401L19.986 12.5584ZM2.74997 15.4997C2.74997 14.1532 2.75385 13.5533 2.84891 13.0907L1.3796 12.7888C1.24608 13.4386 1.24997 14.2281 1.24997 15.4997L2.74997 15.4997ZM2.84891 13.0907C2.85474 13.0623 2.8609 13.0346 2.86739 13.0076L1.40884 12.6574C1.39841 12.7009 1.38868 12.7446 1.3796 12.7888L2.84891 13.0907ZM2.61524 12.2587L2.22953 12.1987L1.99898 13.6808L2.38469 13.7408L2.61524 12.2587ZM21.7834 12.2747L19.986 12.5584L20.22 14.0401L22.0173 13.7563L21.7834 12.2747ZM22.75 15.4997C22.75 14.2828 22.7531 13.5084 22.6381 12.8804L21.1626 13.1505C21.2469 13.6107 21.25 14.2159 21.25 15.4997L22.75 15.4997ZM22.6381 12.8804C22.6243 12.8049 22.6087 12.7308 22.5911 12.6574L21.1325 13.0076C21.1435 13.0532 21.1535 13.1006 21.1626 13.1505L22.6381 12.8804ZM15.5 9.74975C16.7967 9.74975 17.4011 9.75301 17.8617 9.8394L18.1382 8.36511C17.5058 8.2465 16.7282 8.24975 15.5 8.24975L15.5 9.74975ZM17.8617 9.8394C17.907 9.84791 17.9503 9.85715 17.9921 9.86718L18.3423 8.40863C18.2751 8.39249 18.2072 8.37805 18.1382 8.36511L17.8617 9.8394ZM17.25 8.99975V9.10226H18.75V8.99975H17.25ZM8.49996 8.24975C7.27174 8.24975 6.49409 8.2465 5.8617 8.36511L6.13823 9.8394C6.59885 9.75301 7.20323 9.74975 8.49996 9.74975L8.49996 8.24975ZM5.8617 8.36511C5.79272 8.37805 5.72485 8.39249 5.65765 8.40863L6.00782 9.86718C6.0496 9.85715 6.09288 9.84791 6.13823 9.8394L5.8617 8.36511ZM5.24996 8.99975V9.10226H6.74996V8.99975H5.24996Z" fill="black"/>
</svg>
