<svg width="24" height="24" viewBox="0 0 24 24" fill="none" xmlns="http://www.w3.org/2000/svg">
<path d="M10.5306 11.4691C10.2377 11.1762 9.76287 11.1762 9.46997 11.4691C9.17708 11.762 9.17708 12.2369 9.46997 12.5298L10.5306 11.4691ZM13.7126 16.7724C14.0055 17.0653 14.4804 17.0653 14.7733 16.7724C15.0662 16.4795 15.0662 16.0046 14.7733 15.7117L13.7126 16.7724ZM9.46997 15.7117C9.17708 16.0046 9.17708 16.4795 9.46997 16.7724C9.76287 17.0653 10.2377 17.0653 10.5306 16.7724L9.46997 15.7117ZM14.7733 12.5298C15.0662 12.2369 15.0662 11.762 14.7733 11.4691C14.4804 11.1762 14.0055 11.1762 13.7126 11.4691L14.7733 12.5298ZM6.4552 20.7547L6.22344 21.468L6.22344 21.468L6.4552 20.7547ZM3.24501 17.5445L3.9583 17.3128L3.9583 17.3128L3.24501 17.5445ZM20.7556 17.5445L21.4689 17.7763L21.4689 17.7763L20.7556 17.5445ZM17.5454 20.7547L17.7771 21.468L17.7771 21.468L17.5454 20.7547ZM12.6005 7.00269L12.5964 7.75268L12.5964 7.75268L12.6005 7.00269ZM17.5454 7.24416L17.7771 6.53087L17.7771 6.53087L17.5454 7.24416ZM20.7556 10.4544L21.4689 10.2226L21.4689 10.2226L20.7556 10.4544ZM8.94168 3.42386L8.57148 4.07613L8.57148 4.07613L8.94168 3.42386ZM10.6402 5.42565L9.9459 5.70934L9.94593 5.70941L10.6402 5.42565ZM3.82373 3.16921L3.45353 2.51695L3.45353 2.51695L3.82373 3.16921ZM3.14434 3.96993L2.45006 3.68624L2.45006 3.68624L3.14434 3.96993ZM10.6496 5.44869L9.95534 5.73245L9.95535 5.73247L10.6496 5.44869ZM9.46997 12.5298L11.5913 14.6511L12.652 13.5904L10.5306 11.4691L9.46997 12.5298ZM11.5913 14.6511L13.7126 16.7724L14.7733 15.7117L12.652 13.5904L11.5913 14.6511ZM10.5306 16.7724L12.652 14.6511L11.5913 13.5904L9.46997 15.7117L10.5306 16.7724ZM12.652 14.6511L14.7733 12.5298L13.7126 11.4691L11.5913 13.5904L12.652 14.6511ZM14.0003 20.2494H10.0003V21.7494H14.0003V20.2494ZM10.0003 20.2494C8.08063 20.2494 7.29868 20.2402 6.68697 20.0414L6.22344 21.468C7.11806 21.7587 8.19738 21.7494 10.0003 21.7494V20.2494ZM2.25029 11.9994C2.25029 12.9279 2.25023 14.137 2.28119 15.2092C2.29666 15.745 2.3201 16.2555 2.35616 16.6849C2.3903 17.0914 2.44056 17.4958 2.53172 17.7763L3.9583 17.3128C3.92709 17.2167 3.88559 16.9723 3.8509 16.5593C3.81814 16.1692 3.79569 15.6896 3.78057 15.1659C3.75035 14.1192 3.75029 12.9322 3.75029 11.9994H2.25029ZM6.68697 20.0414C5.39311 19.621 4.3787 18.6066 3.9583 17.3128L2.53172 17.7763C3.10049 19.5268 4.47292 20.8992 6.22344 21.468L6.68697 20.0414ZM20.2503 13.9994C20.2503 15.9191 20.241 16.701 20.0423 17.3128L21.4689 17.7763C21.7595 16.8817 21.7503 15.8023 21.7503 13.9994H20.2503ZM14.0003 21.7494C15.8032 21.7494 16.8825 21.7587 17.7771 21.468L17.3136 20.0414C16.7019 20.2402 15.9199 20.2494 14.0003 20.2494V21.7494ZM20.0423 17.3128C19.6219 18.6066 18.6075 19.621 17.3136 20.0414L17.7771 21.468C19.5276 20.8992 20.9001 19.5268 21.4689 17.7763L20.0423 17.3128ZM12.5964 7.75268C13.5663 7.7579 14.6487 7.77153 15.5573 7.80674C16.0122 7.82437 16.4157 7.84713 16.7361 7.87606C17.081 7.9072 17.2608 7.94028 17.3136 7.95745L17.7771 6.53087C17.5425 6.45465 17.2034 6.41215 16.871 6.38214C16.5141 6.34992 16.0819 6.32595 15.6154 6.30787C14.6812 6.27166 13.5787 6.25794 12.6045 6.2527L12.5964 7.75268ZM21.7503 13.9994C21.7503 12.1965 21.7595 11.1172 21.4689 10.2226L20.0423 10.6861C20.241 11.2978 20.2503 12.0798 20.2503 13.9994H21.7503ZM17.3136 7.95745C18.6075 8.37785 19.6219 9.39226 20.0423 10.6861L21.4689 10.2226C20.9001 8.47207 19.5276 7.09964 17.7771 6.53087L17.3136 7.95745ZM3.75029 11.9994V5.69332H2.25029V11.9994H3.75029ZM5.286 3.74944C6.26915 3.74944 6.95593 3.75018 7.49186 3.79936C8.01572 3.84743 8.32684 3.93728 8.57148 4.07613L9.31189 2.7716C8.80874 2.48603 8.26132 2.36367 7.62894 2.30563C7.00862 2.24871 6.24146 2.24944 5.286 2.24944V3.74944ZM8.57148 4.07613C9.15158 4.40537 9.64487 4.97262 9.9459 5.70934L11.3345 5.14197C10.9206 4.12919 10.2162 3.28486 9.31189 2.7716L8.57148 4.07613ZM5.286 2.24944C4.91213 2.24944 4.58115 2.24871 4.30771 2.2738C4.0222 2.3 3.73234 2.3587 3.45353 2.51695L4.19394 3.82147C4.21424 3.80995 4.26779 3.78377 4.44478 3.76753C4.63384 3.75018 4.88444 3.74944 5.286 3.74944V2.24944ZM3.75029 5.69332C3.75029 5.22637 3.75067 4.91261 3.76666 4.67055C3.7823 4.43394 3.81034 4.32281 3.83861 4.25362L2.45006 3.68624C2.33429 3.96957 2.29031 4.26318 2.26993 4.57166C2.24991 4.87468 2.25029 5.24636 2.25029 5.69332H3.75029ZM3.45353 2.51695C2.99454 2.77746 2.64943 3.19831 2.45006 3.68624L3.83861 4.25362C3.92519 4.04174 4.05916 3.89797 4.19394 3.82147L3.45353 2.51695ZM11.3438 5.16493L11.3344 5.1419L9.94593 5.70941L9.95534 5.73245L11.3438 5.16493ZM12.6045 6.2527C12.1342 6.25017 11.6235 5.84905 11.3438 5.16492L9.95535 5.73247C10.3542 6.70818 11.2736 7.74555 12.5964 7.75268L12.6045 6.2527Z" fill="black"/>
</svg>
