<svg width="24" height="24" viewBox="0 0 24 24" fill="none" xmlns="http://www.w3.org/2000/svg">
<path d="M6.45461 20.7547L6.22285 21.468L6.22285 21.468L6.45461 20.7547ZM3.24441 17.5445L3.9577 17.3127L3.9577 17.3127L3.24441 17.5445ZM20.755 17.5445L21.4683 17.7762L21.4683 17.7762L20.755 17.5445ZM17.5448 20.7547L17.7765 21.468L17.7765 21.468L17.5448 20.7547ZM12.5999 7.00264L12.5958 7.75263L12.5958 7.75263L12.5999 7.00264ZM17.5448 7.24411L17.7765 6.53082L17.7765 6.53082L17.5448 7.24411ZM20.755 10.4543L21.4683 10.2225L21.4683 10.2225L20.755 10.4543ZM8.94109 3.42382L8.57088 4.07608L8.57088 4.07608L8.94109 3.42382ZM10.6396 5.42561L9.9453 5.7093L9.94533 5.70937L10.6396 5.42561ZM3.82314 3.16916L3.45293 2.5169L3.45293 2.5169L3.82314 3.16916ZM3.14374 3.96988L2.44946 3.68619L2.44946 3.68619L3.14374 3.96988ZM10.649 5.44865L9.95475 5.7324L9.95475 5.73242L10.649 5.44865ZM7.99969 15.2494C7.58548 15.2494 7.24969 15.5852 7.24969 15.9994C7.24969 16.4136 7.58548 16.7494 7.99969 16.7494V15.2494ZM15.9997 16.7494C16.4139 16.7494 16.7497 16.4136 16.7497 15.9994C16.7497 15.5852 16.4139 15.2494 15.9997 15.2494V16.7494ZM13.9997 20.2494H9.99969V21.7494H13.9997V20.2494ZM9.99969 20.2494C8.08004 20.2494 7.29808 20.2401 6.68637 20.0414L6.22285 21.468C7.11746 21.7586 8.19679 21.7494 9.99969 21.7494V20.2494ZM2.2497 11.9994C2.2497 12.9279 2.24964 14.1369 2.2806 15.2091C2.29607 15.7449 2.3195 16.2554 2.35557 16.6848C2.38971 17.0913 2.43997 17.4957 2.53112 17.7762L3.9577 17.3127C3.9265 17.2167 3.88499 16.9723 3.8503 16.5593C3.81754 16.1692 3.79509 15.6895 3.77997 15.1658C3.74975 14.1191 3.74969 12.9322 3.74969 11.9994H2.2497ZM6.68637 20.0414C5.39251 19.621 4.3781 18.6066 3.9577 17.3127L2.53112 17.7762C3.0999 19.5268 4.47233 20.8992 6.22285 21.468L6.68637 20.0414ZM20.2497 13.9994C20.2497 15.919 20.2404 16.701 20.0417 17.3127L21.4683 17.7762C21.7589 16.8816 21.7497 15.8023 21.7497 13.9994H20.2497ZM13.9997 21.7494C15.8026 21.7494 16.8819 21.7586 17.7765 21.468L17.313 20.0414C16.7013 20.2401 15.9193 20.2494 13.9997 20.2494V21.7494ZM20.0417 17.3127C19.6213 18.6066 18.6069 19.621 17.313 20.0414L17.7765 21.468C19.5271 20.8992 20.8995 19.5268 21.4683 17.7762L20.0417 17.3127ZM12.5958 7.75263C13.5657 7.75785 14.6481 7.77148 15.5567 7.8067C16.0116 7.82433 16.4151 7.84709 16.7356 7.87602C17.0804 7.90716 17.2602 7.94023 17.313 7.95741L17.7765 6.53082C17.542 6.4546 17.2028 6.41211 16.8704 6.38209C16.5135 6.34987 16.0813 6.3259 15.6148 6.30782C14.6806 6.27161 13.5781 6.2579 12.6039 6.25265L12.5958 7.75263ZM21.7497 13.9994C21.7497 12.1965 21.7589 11.1172 21.4683 10.2225L20.0417 10.6861C20.2404 11.2978 20.2497 12.0797 20.2497 13.9994H21.7497ZM17.313 7.95741C18.6069 8.37781 19.6213 9.39221 20.0417 10.6861L21.4683 10.2225C20.8995 8.47203 19.5271 7.0996 17.7765 6.53082L17.313 7.95741ZM3.74969 11.9994V5.69327H2.2497V11.9994H3.74969ZM5.28541 3.7494C6.26855 3.7494 6.95534 3.75013 7.49127 3.79931C8.01513 3.84738 8.32625 3.93723 8.57088 4.07608L9.31129 2.77155C8.80815 2.48598 8.26072 2.36362 7.62834 2.30559C7.00803 2.24866 6.24086 2.2494 5.28541 2.2494V3.7494ZM8.57088 4.07608C9.15099 4.40533 9.64427 4.97258 9.9453 5.7093L11.3339 5.14192C10.92 4.12915 10.2156 3.28482 9.31129 2.77155L8.57088 4.07608ZM5.28541 2.2494C4.91153 2.2494 4.58055 2.24866 4.30711 2.27376C4.0216 2.29996 3.73174 2.35866 3.45293 2.5169L4.19334 3.82143C4.21364 3.80991 4.2672 3.78372 4.44419 3.76748C4.63324 3.75013 4.88384 3.7494 5.28541 3.7494V2.2494ZM3.74969 5.69327C3.74969 5.22632 3.75008 4.91257 3.76607 4.6705C3.7817 4.4339 3.80974 4.32277 3.83802 4.25357L2.44946 3.68619C2.33369 3.96952 2.28971 4.26313 2.26933 4.57162C2.24931 4.87463 2.2497 5.24632 2.2497 5.69327H3.74969ZM3.45293 2.5169C2.99394 2.77741 2.64883 3.19827 2.44946 3.68619L3.83802 4.25357C3.92459 4.0417 4.05856 3.89792 4.19334 3.82143L3.45293 2.5169ZM11.3432 5.16489L11.3338 5.14185L9.94533 5.70937L9.95475 5.7324L11.3432 5.16489ZM12.6039 6.25265C12.1336 6.25012 11.6229 5.84901 11.3432 5.16487L9.95475 5.73242C10.3536 6.70813 11.273 7.74551 12.5958 7.75263L12.6039 6.25265ZM7.99969 16.7494H15.9997V15.2494H7.99969V16.7494Z" fill="black"/>
</svg>
