<svg width="24" height="24" viewBox="0 0 24 24" fill="none" xmlns="http://www.w3.org/2000/svg">
<path d="M5.06053 21.0445L5.50137 20.4377L5.50137 20.4377L5.06053 21.0445ZM3.95437 19.9383L4.56114 19.4975L3.95437 19.9383ZM20.0445 19.9383L19.4378 19.4975L20.0445 19.9383ZM18.9384 21.0445L18.4975 20.4377L18.9384 21.0445ZM18.9384 4.95432L18.4975 5.56108L18.9384 4.95432ZM20.0445 6.06048L19.4378 6.50132L20.0445 6.06048ZM5.06053 4.95432L5.50137 5.56108L5.50137 5.56108L5.06053 4.95432ZM3.95437 6.06048L4.56114 6.50132L3.95437 6.06048ZM15.5446 1.24412L15.3128 1.95741L15.3128 1.95741L15.5446 1.24412ZM18.7548 4.45432L18.0415 4.68608L18.0415 4.68608L18.7548 4.45432ZM8.45442 1.24412L8.68619 1.95741L8.68619 1.95741L8.45442 1.24412ZM5.24423 4.45432L5.95752 4.68608L5.95752 4.68608L5.24423 4.45432ZM7.99946 15.2494C7.58524 15.2494 7.24946 15.5852 7.24946 15.9994C7.24946 16.4136 7.58524 16.7494 7.99946 16.7494V15.2494ZM15.9995 16.7494C16.4137 16.7494 16.7495 16.4136 16.7495 15.9994C16.7495 15.5852 16.4137 15.2494 15.9995 15.2494V16.7494ZM11.9995 21.2494C10.1079 21.2494 8.74945 21.2484 7.6975 21.1344C6.65959 21.0219 6.00937 20.8068 5.50137 20.4377L4.61969 21.6512C5.42602 22.2371 6.3704 22.4994 7.53593 22.6257C8.68743 22.7504 10.1413 22.7494 11.9995 22.7494V21.2494ZM2.24946 12.9994C2.24946 14.8576 2.24843 16.3114 2.37319 17.4629C2.49946 18.6285 2.76178 19.5728 3.34761 20.3792L4.56114 19.4975C4.19205 18.9895 3.97691 18.3393 3.86446 17.3014C3.75049 16.2494 3.74946 14.891 3.74946 12.9994H2.24946ZM5.50137 20.4377C5.14057 20.1756 4.82327 19.8583 4.56114 19.4975L3.34761 20.3792C3.70227 20.8673 4.13155 21.2966 4.61969 21.6512L5.50137 20.4377ZM20.2495 12.9994C20.2495 14.891 20.2484 16.2494 20.1345 17.3014C20.022 18.3393 19.8069 18.9895 19.4378 19.4975L20.6513 20.3792C21.2371 19.5728 21.4994 18.6285 21.6257 17.4629C21.7505 16.3114 21.7495 14.8576 21.7495 12.9994H20.2495ZM11.9995 22.7494C13.8576 22.7494 15.3115 22.7504 16.463 22.6257C17.6285 22.4994 18.5729 22.2371 19.3792 21.6512L18.4975 20.4377C17.9895 20.8068 17.3393 21.0219 16.3014 21.1344C15.2495 21.2484 13.891 21.2494 11.9995 21.2494V22.7494ZM19.4378 19.4975C19.1756 19.8583 18.8583 20.1756 18.4975 20.4377L19.3792 21.6512C19.8674 21.2966 20.2966 20.8673 20.6513 20.3792L19.4378 19.4975ZM21.7495 12.9994C21.7495 11.1412 21.7505 9.68738 21.6257 8.53588C21.4994 7.37034 21.2371 6.42596 20.6513 5.61964L19.4378 6.50132C19.8069 7.00932 20.022 7.65954 20.1345 8.69745C20.2484 9.74939 20.2495 11.1078 20.2495 12.9994H21.7495ZM18.4975 5.56108C18.8583 5.82322 19.1756 6.14051 19.4378 6.50132L20.6513 5.61964C20.2966 5.13149 19.8674 4.70221 19.3792 4.34756L18.4975 5.56108ZM3.74946 12.9994C3.74946 11.1078 3.75049 9.74939 3.86446 8.69745C3.97691 7.65954 4.19205 7.00932 4.56114 6.50132L3.34761 5.61964C2.76178 6.42596 2.49946 7.37034 2.37319 8.53588C2.24843 9.68738 2.24946 11.1412 2.24946 12.9994H3.74946ZM4.61969 4.34756C4.13155 4.70221 3.70227 5.13149 3.34761 5.61964L4.56114 6.50132C4.82327 6.14051 5.14057 5.82322 5.50137 5.56108L4.61969 4.34756ZM11.9995 1.7494C13.9192 1.7494 14.7011 1.75866 15.3128 1.95741L15.7764 0.53083C14.8817 0.240152 13.8024 0.249405 11.9995 0.249405V1.7494ZM15.3128 1.95741C16.6067 2.37782 17.6211 3.39222 18.0415 4.68608L19.4681 4.22256C18.8993 2.47204 17.5269 1.09961 15.7764 0.53083L15.3128 1.95741ZM11.9995 0.249405C10.1966 0.249405 9.11728 0.240152 8.22266 0.53083L8.68619 1.95741C9.2979 1.75866 10.0799 1.7494 11.9995 1.7494V0.249405ZM8.22266 0.53083C6.47214 1.09961 5.09971 2.47204 4.53094 4.22256L5.95752 4.68608C6.37792 3.39222 7.39233 2.37782 8.68619 1.95741L8.22266 0.53083ZM5.86694 5.04508C5.89207 4.91288 5.92206 4.79523 5.95752 4.68608L4.53094 4.22256C4.47399 4.39783 4.42901 4.57725 4.39333 4.76493L5.86694 5.04508ZM11.9995 3.2494C10.1733 3.2494 8.73817 3.24847 7.59764 3.36659C6.44548 3.48593 5.5066 3.73341 4.70387 4.28792L5.5564 5.52209C6.06466 5.171 6.71842 4.96568 7.75217 4.85861C8.79754 4.75034 10.1416 4.7494 11.9995 4.7494V3.2494ZM4.70387 4.28792C4.67558 4.30745 4.64753 4.32733 4.61969 4.34756L5.50137 5.56108C5.51959 5.54784 5.53793 5.53485 5.5564 5.52209L4.70387 4.28792ZM19.6057 4.76503C19.57 4.57732 19.525 4.39786 19.4681 4.22256L18.0415 4.68608C18.077 4.79525 18.107 4.91292 18.1321 5.04515L19.6057 4.76503ZM11.9995 4.7494C13.8574 4.7494 15.2015 4.75034 16.2468 4.85862C17.2806 4.9657 17.9343 5.17103 18.4426 5.52216L19.2952 4.28802C18.4925 3.73346 17.5536 3.48595 16.4014 3.36661C15.2608 3.24847 13.8257 3.2494 11.9995 3.2494V4.7494ZM18.4426 5.52216C18.461 5.5349 18.4794 5.54787 18.4975 5.56108L19.3792 4.34756C19.3514 4.32737 19.3234 4.30752 19.2952 4.28802L18.4426 5.52216ZM7.99946 16.7494H15.9995V15.2494H7.99946V16.7494Z" fill="black"/>
</svg>
