<svg width="24" height="24" viewBox="0 0 24 24" fill="none" xmlns="http://www.w3.org/2000/svg">
<path d="M6.45462 20.7547L6.22285 21.468L6.22285 21.468L6.45462 20.7547ZM3.24442 17.5445L3.95771 17.3128L3.95771 17.3128L3.24442 17.5445ZM20.755 17.5445L21.4683 17.7763L21.4683 17.7763L20.755 17.5445ZM17.5448 20.7547L17.7765 21.468L17.7765 21.468L17.5448 20.7547ZM12.5999 7.00269L12.5958 7.75268L12.5958 7.75268L12.5999 7.00269ZM17.5448 7.24416L17.7765 6.53087L17.7765 6.53087L17.5448 7.24416ZM20.755 10.4544L21.4683 10.2226L21.4683 10.2226L20.755 10.4544ZM8.9411 3.42386L8.57089 4.07613L8.57089 4.07613L8.9411 3.42386ZM10.6396 5.42565L9.94531 5.70934L9.94534 5.70941L10.6396 5.42565ZM3.82314 3.16921L3.45294 2.51695L3.45294 2.51695L3.82314 3.16921ZM3.14375 3.96993L2.44947 3.68624L2.44947 3.68624L3.14375 3.96993ZM10.649 5.44869L9.95475 5.73245L9.95476 5.73247L10.649 5.44869ZM8.9997 13.2494C8.58549 13.2494 8.2497 13.5852 8.2497 13.9994C8.2497 14.4137 8.58549 14.7494 8.9997 14.7494V13.2494ZM14.9997 14.7494C15.4139 14.7494 15.7497 14.4137 15.7497 13.9994C15.7497 13.5852 15.4139 13.2494 14.9997 13.2494V14.7494ZM13.9997 20.2494H9.9997V21.7494H13.9997V20.2494ZM9.9997 20.2494C8.08004 20.2494 7.29809 20.2402 6.68638 20.0414L6.22285 21.468C7.11747 21.7587 8.19679 21.7494 9.9997 21.7494V20.2494ZM2.2497 11.9994C2.2497 12.9279 2.24965 14.137 2.2806 15.2092C2.29607 15.745 2.31951 16.2555 2.35557 16.6849C2.38971 17.0914 2.43998 17.4958 2.53113 17.7763L3.95771 17.3128C3.9265 17.2167 3.885 16.9723 3.85031 16.5593C3.81755 16.1692 3.7951 15.6896 3.77998 15.1659C3.74976 14.1192 3.7497 12.9322 3.7497 11.9994H2.2497ZM6.68638 20.0414C5.39252 19.621 4.37811 18.6066 3.95771 17.3128L2.53113 17.7763C3.09991 19.5268 4.47234 20.8992 6.22285 21.468L6.68638 20.0414ZM20.2497 13.9994C20.2497 15.9191 20.2404 16.701 20.0417 17.3128L21.4683 17.7763C21.7589 16.8817 21.7497 15.8023 21.7497 13.9994H20.2497ZM13.9997 21.7494C15.8026 21.7494 16.8819 21.7587 17.7765 21.468L17.313 20.0414C16.7013 20.2402 15.9194 20.2494 13.9997 20.2494V21.7494ZM20.0417 17.3128C19.6213 18.6066 18.6069 19.621 17.313 20.0414L17.7765 21.468C19.5271 20.8992 20.8995 19.5268 21.4683 17.7763L20.0417 17.3128ZM12.5958 7.75268C13.5657 7.7579 14.6482 7.77153 15.5567 7.80674C16.0116 7.82437 16.4152 7.84713 16.7356 7.87606C17.0805 7.9072 17.2602 7.94028 17.313 7.95745L17.7765 6.53087C17.542 6.45465 17.2028 6.41215 16.8704 6.38214C16.5135 6.34992 16.0813 6.32595 15.6148 6.30787C14.6806 6.27166 13.5781 6.25794 12.6039 6.2527L12.5958 7.75268ZM21.7497 13.9994C21.7497 12.1965 21.7589 11.1172 21.4683 10.2226L20.0417 10.6861C20.2404 11.2978 20.2497 12.0798 20.2497 13.9994H21.7497ZM17.313 7.95745C18.6069 8.37785 19.6213 9.39226 20.0417 10.6861L21.4683 10.2226C20.8995 8.47207 19.5271 7.09964 17.7765 6.53087L17.313 7.95745ZM3.7497 11.9994V5.69332H2.2497V11.9994H3.7497ZM5.28542 3.74944C6.26856 3.74944 6.95534 3.75018 7.49127 3.79936C8.01514 3.84743 8.32625 3.93728 8.57089 4.07613L9.3113 2.7716C8.80815 2.48603 8.26073 2.36367 7.62835 2.30563C7.00803 2.24871 6.24087 2.24944 5.28542 2.24944V3.74944ZM8.57089 4.07613C9.15099 4.40537 9.64428 4.97262 9.94531 5.70934L11.3339 5.14197C10.92 4.12919 10.2156 3.28486 9.3113 2.7716L8.57089 4.07613ZM5.28542 2.24944C4.91154 2.24944 4.58056 2.24871 4.30712 2.2738C4.02161 2.3 3.73175 2.3587 3.45294 2.51695L4.19335 3.82147C4.21365 3.80995 4.26721 3.78377 4.44419 3.76753C4.63325 3.75018 4.88385 3.74944 5.28542 3.74944V2.24944ZM3.7497 5.69332C3.7497 5.22637 3.75008 4.91261 3.76608 4.67055C3.78171 4.43394 3.80975 4.32281 3.83802 4.25362L2.44947 3.68624C2.3337 3.96957 2.28972 4.26318 2.26934 4.57166C2.24932 4.87468 2.2497 5.24636 2.2497 5.69332H3.7497ZM3.45294 2.51695C2.99395 2.77746 2.64884 3.19831 2.44947 3.68624L3.83802 4.25362C3.9246 4.04174 4.05857 3.89797 4.19335 3.82147L3.45294 2.51695ZM11.3433 5.16493L11.3338 5.1419L9.94534 5.70941L9.95475 5.73245L11.3433 5.16493ZM12.6039 6.2527C12.1336 6.25017 11.6229 5.84905 11.3432 5.16492L9.95476 5.73247C10.3536 6.70818 11.273 7.74555 12.5958 7.75268L12.6039 6.2527ZM8.9997 14.7494H14.9997V13.2494H8.9997V14.7494Z" fill="black"/>
</svg>
