<svg width="24" height="24" viewBox="0 0 24 24" fill="none" xmlns="http://www.w3.org/2000/svg">
<path d="M10.5306 10.4691C10.2377 10.1762 9.76285 10.1762 9.46996 10.4691C9.17707 10.762 9.17707 11.2369 9.46996 11.5298L10.5306 10.4691ZM13.7126 15.7724C14.0055 16.0653 14.4804 16.0653 14.7733 15.7724C15.0662 15.4795 15.0662 15.0046 14.7733 14.7117L13.7126 15.7724ZM9.46996 14.7117C9.17707 15.0046 9.17707 15.4795 9.46996 15.7724C9.76285 16.0653 10.2377 16.0653 10.5306 15.7724L9.46996 14.7117ZM14.7733 11.5298C15.0662 11.2369 15.0662 10.762 14.7733 10.4691C14.4804 10.1762 14.0055 10.1762 13.7126 10.4691L14.7733 11.5298ZM5.06135 21.0445L5.50219 20.4378L5.50219 20.4378L5.06135 21.0445ZM3.95519 19.9384L4.56195 19.4975L3.95519 19.9384ZM20.0454 19.9384L19.4386 19.4975L20.0454 19.9384ZM18.9392 21.0445L18.4984 20.4378L18.9392 21.0445ZM18.9392 4.95435L18.4984 5.56111L18.9392 4.95435ZM20.0454 6.06051L19.4386 6.50135L20.0454 6.06051ZM5.06135 4.95435L5.50219 5.56111L5.50219 5.56111L5.06135 4.95435ZM3.95519 6.06051L4.56195 6.50135L3.95519 6.06051ZM15.5454 1.24415L15.3136 1.95744L15.3136 1.95744L15.5454 1.24415ZM18.7556 4.45435L18.0423 4.68611L18.0423 4.68611L18.7556 4.45435ZM8.45524 1.24415L8.687 1.95744L8.687 1.95744L8.45524 1.24415ZM5.24504 4.45435L5.95834 4.68611L5.95834 4.68611L5.24504 4.45435ZM9.46996 11.5298L11.5913 13.6511L12.6519 12.5904L10.5306 10.4691L9.46996 11.5298ZM11.5913 13.6511L13.7126 15.7724L14.7733 14.7117L12.6519 12.5904L11.5913 13.6511ZM10.5306 15.7724L12.6519 13.6511L11.5913 12.5904L9.46996 14.7117L10.5306 15.7724ZM12.6519 13.6511L14.7733 11.5298L13.7126 10.4691L11.5913 12.5904L12.6519 13.6511ZM12.0003 21.2494C10.1087 21.2494 8.75026 21.2484 7.69832 21.1344C6.66041 21.022 6.01019 20.8068 5.50219 20.4378L4.62051 21.6513C5.42683 22.2371 6.37121 22.4994 7.53675 22.6257C8.68825 22.7505 10.1421 22.7494 12.0003 22.7494V21.2494ZM2.25027 12.9994C2.25027 14.8576 2.24925 16.3115 2.374 17.463C2.50028 18.6285 2.7626 19.5729 3.34843 20.3792L4.56195 19.4975C4.19287 18.9895 3.97773 18.3393 3.86528 17.3014C3.7513 16.2494 3.75027 14.891 3.75027 12.9994H2.25027ZM5.50219 20.4378C5.14138 20.1756 4.82409 19.8583 4.56195 19.4975L3.34843 20.3792C3.70308 20.8673 4.13236 21.2966 4.62051 21.6513L5.50219 20.4378ZM20.2503 12.9994C20.2503 14.891 20.2492 16.2494 20.1353 17.3014C20.0228 18.3393 19.8077 18.9895 19.4386 19.4975L20.6521 20.3792C21.2379 19.5729 21.5003 18.6285 21.6265 17.463C21.7513 16.3115 21.7503 14.8576 21.7503 12.9994H20.2503ZM12.0003 22.7494C13.8584 22.7494 15.3123 22.7505 16.4638 22.6257C17.6293 22.4994 18.5737 22.2371 19.38 21.6513L18.4984 20.4378C17.9904 20.8068 17.3401 21.022 16.3022 21.1344C15.2503 21.2484 13.8918 21.2494 12.0003 21.2494V22.7494ZM19.4386 19.4975C19.1765 19.8583 18.8592 20.1756 18.4984 20.4378L19.38 21.6513C19.8682 21.2966 20.2975 20.8673 20.6521 20.3792L19.4386 19.4975ZM21.7503 12.9994C21.7503 11.1413 21.7513 9.68741 21.6265 8.53591C21.5003 7.37037 21.2379 6.42599 20.6521 5.61967L19.4386 6.50135C19.8077 7.00935 20.0228 7.65957 20.1353 8.69748C20.2492 9.74943 20.2503 11.1079 20.2503 12.9994H21.7503ZM18.4984 5.56111C18.8592 5.82325 19.1765 6.14054 19.4386 6.50135L20.6521 5.61967C20.2975 5.13152 19.8682 4.70224 19.38 4.34759L18.4984 5.56111ZM3.75027 12.9994C3.75027 11.1079 3.7513 9.74943 3.86528 8.69748C3.97773 7.65957 4.19287 7.00935 4.56195 6.50135L3.34843 5.61967C2.7626 6.42599 2.50028 7.37037 2.374 8.53591C2.24925 9.68741 2.25027 11.1413 2.25027 12.9994H3.75027ZM4.62051 4.34759C4.13236 4.70224 3.70308 5.13152 3.34843 5.61967L4.56195 6.50135C4.82409 6.14054 5.14138 5.82325 5.50219 5.56111L4.62051 4.34759ZM12.0003 1.74944C13.92 1.74944 14.7019 1.75869 15.3136 1.95744L15.7772 0.530861C14.8826 0.240183 13.8032 0.249436 12.0003 0.249436V1.74944ZM15.3136 1.95744C16.6075 2.37785 17.6219 3.39225 18.0423 4.68611L19.4689 4.22259C18.9001 2.47207 17.5277 1.09964 15.7772 0.530861L15.3136 1.95744ZM12.0003 0.249436C10.1974 0.249436 9.11809 0.240183 8.22348 0.530861L8.687 1.95744C9.29871 1.75869 10.0807 1.74944 12.0003 1.74944V0.249436ZM8.22348 0.530861C6.47296 1.09964 5.10053 2.47207 4.53175 4.22259L5.95834 4.68611C6.37874 3.39225 7.39314 2.37785 8.687 1.95744L8.22348 0.530861ZM5.86775 5.04511C5.89288 4.91291 5.92287 4.79526 5.95834 4.68611L4.53175 4.22259C4.4748 4.39786 4.42983 4.57728 4.39415 4.76496L5.86775 5.04511ZM12.0003 3.24943C10.1741 3.24943 8.73899 3.2485 7.59845 3.36663C6.4463 3.48596 5.50742 3.73344 4.70468 4.28795L5.55722 5.52212C6.06548 5.17103 6.71924 4.96571 7.75299 4.85864C8.79835 4.75037 10.1424 4.74943 12.0003 4.74943V3.24943ZM4.70468 4.28795C4.6764 4.30748 4.64834 4.32736 4.62051 4.34759L5.50219 5.56111C5.5204 5.54788 5.53875 5.53488 5.55722 5.52212L4.70468 4.28795ZM19.6065 4.76506C19.5708 4.57735 19.5259 4.39789 19.4689 4.22259L18.0423 4.68611C18.0778 4.79528 18.1078 4.91295 18.1329 5.04518L19.6065 4.76506ZM12.0003 4.74943C13.8582 4.74943 15.2023 4.75037 16.2477 4.85865C17.2814 4.96573 17.9352 5.17106 18.4434 5.52219L19.296 4.28805C18.4933 3.73349 17.5544 3.48598 16.4022 3.36664C15.2616 3.2485 13.8265 3.24943 12.0003 3.24943V4.74943ZM18.4434 5.52219C18.4619 5.53493 18.4802 5.5479 18.4984 5.56111L19.38 4.34759C19.3522 4.3274 19.3242 4.30756 19.296 4.28805L18.4434 5.52219Z" fill="black"/>
</svg>
