<svg width="24" height="24" viewBox="0 0 24 24" fill="none" xmlns="http://www.w3.org/2000/svg">
<path d="M8.99995 12.2494C8.58574 12.2494 8.24995 12.5852 8.24995 12.9994C8.24995 13.4136 8.58574 13.7494 8.99995 13.7494V12.2494ZM14.9999 13.7494C15.4142 13.7494 15.7499 13.4136 15.7499 12.9994C15.7499 12.5852 15.4142 12.2494 14.9999 12.2494V13.7494ZM5.06103 21.0445L5.50187 20.4377L5.50187 20.4377L5.06103 21.0445ZM3.95487 19.9383L4.56163 19.4975L3.95487 19.9383ZM20.045 19.9383L19.4383 19.4975L20.045 19.9383ZM18.9389 21.0445L18.498 20.4377L18.9389 21.0445ZM18.9389 4.95432L18.498 5.56108L18.9389 4.95432ZM20.045 6.06048L19.4383 6.50132L20.045 6.06048ZM5.06103 4.95432L5.50187 5.56108L5.50187 5.56108L5.06103 4.95432ZM3.95487 6.06048L4.56163 6.50132L3.95487 6.06048ZM15.5451 1.24412L15.3133 1.95741L15.3133 1.95741L15.5451 1.24412ZM18.7553 4.45432L18.042 4.68608L18.042 4.68608L18.7553 4.45432ZM8.45492 1.24412L8.68668 1.95741L8.68668 1.95741L8.45492 1.24412ZM5.24472 4.45432L5.95802 4.68608L5.95802 4.68608L5.24472 4.45432ZM8.99995 13.7494H14.9999V12.2494H8.99995V13.7494ZM12 21.2494C10.1084 21.2494 8.74994 21.2484 7.698 21.1344C6.66009 21.0219 6.00987 20.8068 5.50187 20.4377L4.62019 21.6512C5.42651 22.2371 6.37089 22.4994 7.53643 22.6257C8.68793 22.7504 10.1418 22.7494 12 22.7494V21.2494ZM2.24995 12.9994C2.24995 14.8576 2.24893 16.3114 2.37368 17.4629C2.49996 18.6285 2.76228 19.5728 3.34811 20.3792L4.56163 19.4975C4.19254 18.9895 3.97741 18.3393 3.86495 17.3014C3.75098 16.2494 3.74995 14.891 3.74995 12.9994H2.24995ZM5.50187 20.4377C5.14106 20.1756 4.82377 19.8583 4.56163 19.4975L3.34811 20.3792C3.70276 20.8673 4.13204 21.2966 4.62019 21.6512L5.50187 20.4377ZM20.2499 12.9994C20.2499 14.891 20.2489 16.2494 20.1349 17.3014C20.0225 18.3393 19.8074 18.9895 19.4383 19.4975L20.6518 20.3792C21.2376 19.5728 21.4999 18.6285 21.6262 17.4629C21.751 16.3114 21.7499 14.8576 21.7499 12.9994H20.2499ZM12 22.7494C13.8581 22.7494 15.312 22.7504 16.4635 22.6257C17.629 22.4994 18.5734 22.2371 19.3797 21.6512L18.498 20.4377C17.99 20.8068 17.3398 21.0219 16.3019 21.1344C15.25 21.2484 13.8915 21.2494 12 21.2494V22.7494ZM19.4383 19.4975C19.1761 19.8583 18.8588 20.1756 18.498 20.4377L19.3797 21.6512C19.8679 21.2966 20.2971 20.8673 20.6518 20.3792L19.4383 19.4975ZM21.7499 12.9994C21.7499 11.1412 21.751 9.68738 21.6262 8.53588C21.4999 7.37034 21.2376 6.42596 20.6518 5.61964L19.4383 6.50132C19.8074 7.00932 20.0225 7.65954 20.1349 8.69745C20.2489 9.74939 20.2499 11.1078 20.2499 12.9994H21.7499ZM18.498 5.56108C18.8588 5.82322 19.1761 6.14051 19.4383 6.50132L20.6518 5.61964C20.2971 5.13149 19.8679 4.70221 19.3797 4.34756L18.498 5.56108ZM3.74995 12.9994C3.74995 11.1078 3.75098 9.74939 3.86495 8.69745C3.97741 7.65954 4.19254 7.00932 4.56163 6.50132L3.34811 5.61964C2.76228 6.42596 2.49996 7.37034 2.37368 8.53588C2.24893 9.68738 2.24995 11.1412 2.24995 12.9994H3.74995ZM4.62019 4.34756C4.13204 4.70221 3.70276 5.13149 3.34811 5.61964L4.56163 6.50132C4.82377 6.14051 5.14106 5.82322 5.50187 5.56108L4.62019 4.34756ZM12 1.7494C13.9197 1.7494 14.7016 1.75866 15.3133 1.95741L15.7769 0.53083C14.8822 0.240152 13.8029 0.249405 12 0.249405V1.7494ZM15.3133 1.95741C16.6072 2.37782 17.6216 3.39222 18.042 4.68608L19.4686 4.22256C18.8998 2.47204 17.5274 1.09961 15.7768 0.53083L15.3133 1.95741ZM12 0.249405C10.1971 0.249405 9.11777 0.240152 8.22316 0.53083L8.68668 1.95741C9.29839 1.75866 10.0803 1.7494 12 1.7494V0.249405ZM8.22316 0.53083C6.47264 1.09961 5.10021 2.47204 4.53143 4.22256L5.95802 4.68608C6.37842 3.39222 7.39282 2.37782 8.68668 1.95741L8.22316 0.53083ZM5.86743 5.04508C5.89256 4.91288 5.92255 4.79523 5.95802 4.68608L4.53143 4.22256C4.47448 4.39783 4.42951 4.57725 4.39383 4.76493L5.86743 5.04508ZM12 3.2494C10.1738 3.2494 8.73867 3.24847 7.59813 3.36659C6.44598 3.48593 5.5071 3.73341 4.70436 4.28792L5.5569 5.52209C6.06516 5.171 6.71892 4.96568 7.75267 4.85861C8.79803 4.75034 10.1421 4.7494 12 4.7494V3.2494ZM4.70436 4.28792C4.67608 4.30745 4.64802 4.32733 4.62019 4.34756L5.50187 5.56108C5.52008 5.54784 5.53843 5.53485 5.5569 5.52209L4.70436 4.28792ZM19.6062 4.76503C19.5705 4.57732 19.5255 4.39786 19.4686 4.22256L18.042 4.68608C18.0775 4.79525 18.1075 4.91292 18.1326 5.04515L19.6062 4.76503ZM12 4.7494C13.8579 4.7494 15.202 4.75034 16.2473 4.85862C17.2811 4.9657 17.9348 5.17103 18.4431 5.52216L19.2957 4.28802C18.4929 3.73346 17.5541 3.48595 16.4019 3.36661C15.2613 3.24847 13.8262 3.2494 12 3.2494V4.7494ZM18.4431 5.52216C18.4615 5.5349 18.4798 5.54787 18.498 5.56108L19.3797 4.34756C19.3519 4.32737 19.3239 4.30752 19.2957 4.28802L18.4431 5.52216Z" fill="black"/>
</svg>
