<svg width="24" height="24" viewBox="0 0 24 24" fill="none" xmlns="http://www.w3.org/2000/svg">
<path d="M8.99959 12.2494C8.58537 12.2494 8.24959 12.5852 8.24959 12.9994C8.24959 13.4136 8.58537 13.7494 8.99959 13.7494V12.2494ZM14.9996 13.7494C15.4138 13.7494 15.7496 13.4136 15.7496 12.9994C15.7496 12.5852 15.4138 12.2494 14.9996 12.2494V13.7494ZM11.2496 15.9994C11.2496 16.4136 11.5854 16.7494 11.9996 16.7494C12.4138 16.7494 12.7496 16.4136 12.7496 15.9994H11.2496ZM12.7496 9.9994C12.7496 9.58519 12.4138 9.2494 11.9996 9.2494C11.5854 9.2494 11.2496 9.58519 11.2496 9.9994H12.7496ZM5.06066 21.0445L5.5015 20.4377L5.5015 20.4377L5.06066 21.0445ZM3.9545 19.9383L4.56127 19.4975L3.9545 19.9383ZM20.0447 19.9383L19.4379 19.4975L20.0447 19.9383ZM18.9385 21.0445L18.4977 20.4377L18.9385 21.0445ZM18.9385 4.95432L18.4977 5.56108L18.9385 4.95432ZM20.0447 6.06048L19.4379 6.50132L20.0447 6.06048ZM5.06066 4.95432L5.5015 5.56108L5.5015 5.56108L5.06066 4.95432ZM3.9545 6.06048L4.56127 6.50132L3.9545 6.06048ZM15.5447 1.24412L15.313 1.95741L15.313 1.95741L15.5447 1.24412ZM18.7549 4.45432L18.0416 4.68608L18.0416 4.68608L18.7549 4.45432ZM8.45455 1.24412L8.68632 1.95741L8.68632 1.95741L8.45455 1.24412ZM5.24436 4.45432L5.95765 4.68608L5.95765 4.68608L5.24436 4.45432ZM8.99959 13.7494H14.9996V12.2494H8.99959V13.7494ZM12.7496 15.9994V9.9994H11.2496V15.9994H12.7496ZM11.9996 21.2494C10.108 21.2494 8.74958 21.2484 7.69763 21.1344C6.65972 21.0219 6.0095 20.8068 5.5015 20.4377L4.61982 21.6512C5.42615 22.2371 6.37053 22.4994 7.53606 22.6257C8.68756 22.7504 10.1414 22.7494 11.9996 22.7494V21.2494ZM2.24959 12.9994C2.24959 14.8576 2.24856 16.3114 2.37332 17.4629C2.49959 18.6285 2.76191 19.5728 3.34774 20.3792L4.56127 19.4975C4.19218 18.9895 3.97704 18.3393 3.86459 17.3014C3.75062 16.2494 3.74959 14.891 3.74959 12.9994H2.24959ZM5.5015 20.4377C5.1407 20.1756 4.8234 19.8583 4.56127 19.4975L3.34774 20.3792C3.7024 20.8673 4.13168 21.2966 4.61982 21.6512L5.5015 20.4377ZM20.2496 12.9994C20.2496 14.891 20.2486 16.2494 20.1346 17.3014C20.0221 18.3393 19.807 18.9895 19.4379 19.4975L20.6514 20.3792C21.2373 19.5728 21.4996 18.6285 21.6259 17.4629C21.7506 16.3114 21.7496 14.8576 21.7496 12.9994H20.2496ZM11.9996 22.7494C13.8577 22.7494 15.3116 22.7504 16.4631 22.6257C17.6286 22.4994 18.573 22.2371 19.3793 21.6512L18.4977 20.4377C17.9897 20.8068 17.3394 21.0219 16.3015 21.1344C15.2496 21.2484 13.8912 21.2494 11.9996 21.2494V22.7494ZM19.4379 19.4975C19.1758 19.8583 18.8585 20.1756 18.4977 20.4377L19.3793 21.6512C19.8675 21.2966 20.2968 20.8673 20.6514 20.3792L19.4379 19.4975ZM21.7496 12.9994C21.7496 11.1412 21.7506 9.68738 21.6259 8.53588C21.4996 7.37034 21.2373 6.42596 20.6514 5.61964L19.4379 6.50132C19.807 7.00932 20.0221 7.65954 20.1346 8.69745C20.2486 9.74939 20.2496 11.1078 20.2496 12.9994H21.7496ZM18.4977 5.56108C18.8585 5.82322 19.1758 6.14051 19.4379 6.50132L20.6514 5.61964C20.2968 5.13149 19.8675 4.70221 19.3793 4.34756L18.4977 5.56108ZM3.74959 12.9994C3.74959 11.1078 3.75062 9.74939 3.86459 8.69745C3.97704 7.65954 4.19218 7.00932 4.56127 6.50132L3.34774 5.61964C2.76191 6.42596 2.49959 7.37034 2.37332 8.53588C2.24856 9.68738 2.24959 11.1412 2.24959 12.9994H3.74959ZM4.61982 4.34756C4.13168 4.70221 3.7024 5.13149 3.34774 5.61964L4.56127 6.50132C4.8234 6.14051 5.1407 5.82322 5.5015 5.56108L4.61982 4.34756ZM11.9996 1.7494C13.9193 1.7494 14.7012 1.75866 15.313 1.95741L15.7765 0.53083C14.8819 0.240152 13.8025 0.249405 11.9996 0.249405V1.7494ZM15.313 1.95741C16.6068 2.37782 17.6212 3.39222 18.0416 4.68608L19.4682 4.22256C18.8994 2.47204 17.527 1.09961 15.7765 0.53083L15.313 1.95741ZM11.9996 0.249405C10.1967 0.249405 9.11741 0.240152 8.22279 0.53083L8.68632 1.95741C9.29803 1.75866 10.08 1.7494 11.9996 1.7494V0.249405ZM8.22279 0.53083C6.47227 1.09961 5.09984 2.47204 4.53107 4.22256L5.95765 4.68608C6.37805 3.39222 7.39246 2.37782 8.68632 1.95741L8.22279 0.53083ZM5.86707 5.04508C5.8922 4.91288 5.92218 4.79523 5.95765 4.68608L4.53107 4.22256C4.47412 4.39783 4.42914 4.57725 4.39346 4.76493L5.86707 5.04508ZM11.9996 3.2494C10.1734 3.2494 8.7383 3.24847 7.59777 3.36659C6.44561 3.48593 5.50673 3.73341 4.704 4.28792L5.55653 5.52209C6.06479 5.171 6.71855 4.96568 7.7523 4.85861C8.79767 4.75034 10.1417 4.7494 11.9996 4.7494V3.2494ZM4.704 4.28792C4.67571 4.30745 4.64766 4.32733 4.61982 4.34756L5.5015 5.56108C5.51972 5.54784 5.53806 5.53485 5.55653 5.52209L4.704 4.28792ZM19.6058 4.76503C19.5702 4.57732 19.5252 4.39786 19.4682 4.22256L18.0416 4.68608C18.0771 4.79525 18.1071 4.91292 18.1322 5.04515L19.6058 4.76503ZM11.9996 4.7494C13.8575 4.7494 15.2016 4.75034 16.247 4.85862C17.2807 4.9657 17.9345 5.17103 18.4427 5.52216L19.2953 4.28802C18.4926 3.73346 17.5537 3.48595 16.4015 3.36661C15.261 3.24847 13.8258 3.2494 11.9996 3.2494V4.7494ZM18.4427 5.52216C18.4612 5.5349 18.4795 5.54787 18.4977 5.56108L19.3793 4.34756C19.3516 4.32737 19.3236 4.30752 19.2953 4.28802L18.4427 5.52216Z" fill="black"/>
</svg>
