<svg width="24" height="24" viewBox="0 0 24 24" fill="none" xmlns="http://www.w3.org/2000/svg">
<path d="M8.99992 13.2494C8.58571 13.2494 8.24992 13.5852 8.24992 13.9994C8.24992 14.4137 8.58571 14.7494 8.99992 14.7494V13.2494ZM14.9999 14.7494C15.4141 14.7494 15.7499 14.4137 15.7499 13.9994C15.7499 13.5852 15.4141 13.2494 14.9999 13.2494V14.7494ZM11.2499 16.9994C11.2499 17.4137 11.5857 17.7494 11.9999 17.7494C12.4141 17.7494 12.7499 17.4137 12.7499 16.9994H11.2499ZM12.7499 10.9994C12.7499 10.5852 12.4141 10.2494 11.9999 10.2494C11.5857 10.2494 11.2499 10.5852 11.2499 10.9994H12.7499ZM6.45484 20.7547L6.22307 21.468L6.22308 21.468L6.45484 20.7547ZM3.24464 17.5445L3.95793 17.3128L3.95793 17.3128L3.24464 17.5445ZM20.7552 17.5445L21.4685 17.7763L21.4685 17.7763L20.7552 17.5445ZM17.545 20.7547L17.7768 21.468L17.7768 21.468L17.545 20.7547ZM12.6001 7.00269L12.596 7.75268L12.596 7.75268L12.6001 7.00269ZM17.545 7.24416L17.7768 6.53087L17.7768 6.53087L17.545 7.24416ZM20.7552 10.4544L21.4685 10.2226L21.4685 10.2226L20.7552 10.4544ZM8.94132 3.42386L8.57111 4.07613L8.57111 4.07613L8.94132 3.42386ZM10.6398 5.42565L9.94553 5.70934L9.94556 5.70941L10.6398 5.42565ZM3.82337 3.16921L3.45316 2.51695L3.45316 2.51695L3.82337 3.16921ZM3.14397 3.96993L2.44969 3.68624L2.44969 3.68624L3.14397 3.96993ZM10.6492 5.44869L9.95498 5.73245L9.95498 5.73247L10.6492 5.44869ZM8.99992 14.7494H14.9999V13.2494H8.99992V14.7494ZM12.7499 16.9994V10.9994H11.2499V16.9994H12.7499ZM13.9999 20.2494H9.99992V21.7494H13.9999V20.2494ZM9.99992 20.2494C8.08027 20.2494 7.29831 20.2402 6.6866 20.0414L6.22308 21.468C7.11769 21.7587 8.19701 21.7494 9.99992 21.7494V20.2494ZM2.24992 11.9994C2.24992 12.9279 2.24987 14.137 2.28083 15.2092C2.2963 15.745 2.31973 16.2555 2.3558 16.6849C2.38994 17.0914 2.4402 17.4958 2.53135 17.7763L3.95793 17.3128C3.92673 17.2167 3.88522 16.9723 3.85053 16.5593C3.81777 16.1692 3.79532 15.6896 3.7802 15.1659C3.74998 14.1192 3.74992 12.9322 3.74992 11.9994H2.24992ZM6.6866 20.0414C5.39274 19.621 4.37833 18.6066 3.95793 17.3128L2.53135 17.7763C3.10013 19.5268 4.47256 20.8992 6.22307 21.468L6.6866 20.0414ZM20.2499 13.9994C20.2499 15.9191 20.2407 16.701 20.0419 17.3128L21.4685 17.7763C21.7592 16.8817 21.7499 15.8023 21.7499 13.9994H20.2499ZM13.9999 21.7494C15.8028 21.7494 16.8822 21.7587 17.7768 21.468L17.3132 20.0414C16.7015 20.2402 15.9196 20.2494 13.9999 20.2494V21.7494ZM20.0419 17.3128C19.6215 18.6066 18.6071 19.621 17.3132 20.0414L17.7768 21.468C19.5273 20.8992 20.8997 19.5268 21.4685 17.7763L20.0419 17.3128ZM12.596 7.75268C13.5659 7.7579 14.6484 7.77153 15.5569 7.80674C16.0118 7.82437 16.4154 7.84713 16.7358 7.87606C17.0807 7.9072 17.2604 7.94028 17.3132 7.95745L17.7768 6.53087C17.5422 6.45465 17.2031 6.41215 16.8707 6.38214C16.5138 6.34992 16.0815 6.32595 15.615 6.30787C14.6809 6.27166 13.5783 6.25794 12.6041 6.2527L12.596 7.75268ZM21.7499 13.9994C21.7499 12.1965 21.7592 11.1172 21.4685 10.2226L20.0419 10.6861C20.2407 11.2978 20.2499 12.0798 20.2499 13.9994H21.7499ZM17.3132 7.95745C18.6071 8.37785 19.6215 9.39226 20.0419 10.6861L21.4685 10.2226C20.8997 8.47207 19.5273 7.09964 17.7768 6.53087L17.3132 7.95745ZM3.74992 11.9994V5.69332H2.24992V11.9994H3.74992ZM5.28564 3.74944C6.26878 3.74944 6.95557 3.75018 7.4915 3.79936C8.01536 3.84743 8.32648 3.93728 8.57111 4.07613L9.31152 2.7716C8.80837 2.48603 8.26095 2.36367 7.62857 2.30563C7.00826 2.24871 6.24109 2.24944 5.28564 2.24944V3.74944ZM8.57111 4.07613C9.15121 4.40537 9.6445 4.97262 9.94553 5.70934L11.3341 5.14197C10.9203 4.12919 10.2158 3.28486 9.31152 2.7716L8.57111 4.07613ZM5.28564 2.24944C4.91176 2.24944 4.58078 2.24871 4.30734 2.2738C4.02183 2.3 3.73197 2.3587 3.45316 2.51695L4.19357 3.82147C4.21387 3.80995 4.26743 3.78377 4.44442 3.76753C4.63347 3.75018 4.88407 3.74944 5.28564 3.74944V2.24944ZM3.74992 5.69332C3.74992 5.22637 3.75031 4.91261 3.7663 4.67055C3.78193 4.43394 3.80997 4.32281 3.83825 4.25362L2.44969 3.68624C2.33392 3.96957 2.28994 4.26318 2.26956 4.57166C2.24954 4.87468 2.24992 5.24636 2.24992 5.69332H3.74992ZM3.45316 2.51695C2.99417 2.77746 2.64906 3.19831 2.44969 3.68624L3.83825 4.25362C3.92482 4.04174 4.05879 3.89797 4.19357 3.82147L3.45316 2.51695ZM11.3435 5.16493L11.3341 5.1419L9.94556 5.70941L9.95498 5.73245L11.3435 5.16493ZM12.6041 6.2527C12.1338 6.25017 11.6231 5.84905 11.3435 5.16492L9.95498 5.73247C10.3538 6.70818 11.2732 7.74555 12.596 7.75268L12.6041 6.2527Z" fill="black"/>
</svg>
