<svg width="24" height="24" viewBox="0 0 24 24" fill="none" xmlns="http://www.w3.org/2000/svg">
<g clip-path="url(#clip0_0_1)">
<path d="M4.06061 21.2288L4.50145 20.6221L4.50145 20.6221L4.06061 21.2288ZM2.95446 20.1227L2.34769 20.5635L2.34769 20.5635L2.95446 20.1227ZM19.0446 20.1227L18.4379 19.6818L18.4379 19.6818L19.0446 20.1227ZM17.9385 21.2288L17.4976 20.6221L17.4976 20.6221L17.9385 21.2288ZM4.06061 5.13866L3.61978 4.5319L3.61978 4.5319L4.06061 5.13866ZM2.95446 6.24482L2.34769 5.80398L2.34769 5.80398L2.95446 6.24482ZM12.9905 4.9409C13.4047 4.94587 13.7445 4.61413 13.7495 4.19994C13.7544 3.78576 13.4227 3.44597 13.0085 3.44101L12.9905 4.9409ZM20.7423 11.1748C20.7373 10.7606 20.3975 10.4288 19.9833 10.4338C19.5692 10.4388 19.2374 10.7786 19.2424 11.1927L20.7423 11.1748ZM10.005 12.5027C9.71207 12.7956 9.71207 13.2704 10.005 13.5633C10.2979 13.8562 10.7727 13.8562 11.0656 13.5633L10.005 12.5027ZM15.4817 0.262189C15.0675 0.264037 14.7332 0.601318 14.735 1.01553C14.7369 1.42974 15.0742 1.76402 15.4884 1.76217L15.4817 0.262189ZM17.9672 1.00111L17.9705 1.7511L17.9705 1.7511L17.9672 1.00111ZM22.5672 5.60111L21.8172 5.59776L21.8172 5.59776L22.5672 5.60111ZM21.8061 8.0799C21.8043 8.49411 22.1385 8.83139 22.5528 8.83324C22.967 8.83509 23.3042 8.5008 23.3061 8.08659L21.8061 8.0799ZM21.6134 1.51179L22.0724 0.918665L22.0724 0.918664L21.6134 1.51179ZM22.0565 1.95491L22.6496 1.49589L22.6496 1.49589L22.0565 1.95491ZM21.8268 1.74147L21.3668 1.14911L21.3297 1.17792L21.2965 1.21114L21.8268 1.74147ZM10.9995 21.4337C9.10797 21.4337 7.74953 21.4327 6.69758 21.3187C5.65967 21.2063 5.00946 20.9912 4.50145 20.6221L3.61978 21.8356C4.4261 22.4214 5.37048 22.6837 6.53602 22.81C7.68752 22.9348 9.14138 22.9337 10.9995 22.9337V21.4337ZM1.24954 13.1837C1.24954 15.0419 1.24851 16.4958 1.37327 17.6473C1.49955 18.8128 1.76187 19.7572 2.34769 20.5635L3.56122 19.6818C3.19213 19.1738 2.97699 18.5236 2.86454 17.4857C2.75057 16.4338 2.74954 15.0753 2.74954 13.1837H1.24954ZM4.50145 20.6221C4.14065 20.3599 3.82336 20.0426 3.56122 19.6818L2.34769 20.5635C2.70235 21.0517 3.13163 21.4809 3.61978 21.8356L4.50145 20.6221ZM19.2495 13.1837C19.2495 15.0753 19.2485 16.4338 19.1345 17.4857C19.0221 18.5236 18.8069 19.1738 18.4379 19.6818L19.6514 20.5635C20.2372 19.7572 20.4995 18.8128 20.6258 17.6473C20.7506 16.4958 20.7495 15.0419 20.7495 13.1837H19.2495ZM10.9995 22.9337C12.8577 22.9337 14.3116 22.9348 15.4631 22.81C16.6286 22.6837 17.573 22.4214 18.3793 21.8356L17.4976 20.6221C16.9896 20.9912 16.3394 21.2063 15.3015 21.3187C14.2495 21.4327 12.8911 21.4337 10.9995 21.4337V22.9337ZM18.4379 19.6818C18.1757 20.0426 17.8584 20.3599 17.4976 20.6221L18.3793 21.8356C18.8674 21.4809 19.2967 21.0517 19.6514 20.5635L18.4379 19.6818ZM10.9995 3.43375C9.14138 3.43375 7.68752 3.43272 6.53602 3.55748C5.37048 3.68376 4.4261 3.94607 3.61978 4.5319L4.50145 5.74543C5.00946 5.37634 5.65967 5.1612 6.69758 5.04875C7.74953 4.93478 9.10797 4.93375 10.9995 4.93375V3.43375ZM2.74954 13.1837C2.74954 11.2922 2.75057 9.93374 2.86454 8.88179C2.97699 7.84388 3.19213 7.19366 3.56122 6.68566L2.34769 5.80398C1.76187 6.61031 1.49955 7.55469 1.37327 8.72022C1.24851 9.87172 1.24954 11.3256 1.24954 13.1837H2.74954ZM3.61978 4.5319C3.13163 4.88656 2.70235 5.31584 2.34769 5.80398L3.56122 6.68566C3.82336 6.32486 4.14065 6.00756 4.50145 5.74543L3.61978 4.5319ZM10.9995 4.93375C11.7362 4.93375 12.3948 4.93376 12.9905 4.9409L13.0085 3.44101C12.402 3.43374 11.7338 3.43375 10.9995 3.43375V4.93375ZM20.7495 13.1837C20.7495 12.4494 20.7495 11.7813 20.7423 11.1748L19.2424 11.1927C19.2495 11.7885 19.2495 12.4471 19.2495 13.1837H20.7495ZM15.4884 1.76217L17.9705 1.7511L17.9638 0.251115L15.4817 0.262189L15.4884 1.76217ZM21.8172 5.59776L21.8061 8.0799L23.3061 8.08659L23.3172 5.60445L21.8172 5.59776ZM17.9705 1.7511C18.9779 1.74661 19.67 1.74465 20.1973 1.80223C20.7094 1.85816 20.9701 1.96235 21.1544 2.10492L22.0724 0.918664C21.5796 0.537302 21.0069 0.381733 20.3601 0.311096C19.7284 0.242106 18.9359 0.246778 17.9638 0.251115L17.9705 1.7511ZM23.3172 5.60445C23.3215 4.63236 23.3262 3.83991 23.2572 3.20817C23.1865 2.56134 23.031 1.98867 22.6496 1.49589L21.4634 2.41393C21.6059 2.59816 21.7101 2.85886 21.7661 3.37101C21.8236 3.89825 21.8217 4.59039 21.8172 5.59776L23.3172 5.60445ZM11.0656 13.5633L22.3571 2.2718L21.2965 1.21114L10.005 12.5027L11.0656 13.5633ZM21.1544 2.10492C21.2129 2.15025 21.2684 2.19923 21.3206 2.25156L22.383 1.1926C22.2855 1.09483 22.1818 1.00332 22.0724 0.918665L21.1544 2.10492ZM21.3206 2.25156C21.3715 2.3026 21.4192 2.35682 21.4634 2.41393L22.6496 1.49589C22.5671 1.38922 22.478 1.28794 22.383 1.1926L21.3206 2.25156ZM22.2868 2.33382L22.3118 2.31443L21.3918 1.12972L21.3668 1.14911L22.2868 2.33382Z" fill="black"/>
</g>
<defs>
<clipPath id="clip0_0_1">
<rect width="24" height="24" fill="black" transform="translate(-0.000244141 -0.000976562)"/>
</clipPath>
</defs>
</svg>
