<svg width="24" height="24" viewBox="0 0 24 24" fill="none" xmlns="http://www.w3.org/2000/svg">
<g clip-path="url(#clip0_0_1)">
<path d="M7.94732 7.91848C10.2272 9.25781 11.3671 9.92747 11.7497 10.8018C12.0834 11.5643 12.0834 12.4352 11.7497 13.1978C11.3671 14.072 10.2272 14.7417 7.94732 16.081C5.66745 17.4203 4.52751 18.09 3.59211 17.99C2.77621 17.9027 2.03501 17.4673 1.5528 16.792C0.999954 16.0177 0.999954 14.6784 0.999954 11.9998C0.999954 9.32111 0.999954 7.98178 1.5528 7.20754C2.03502 6.53221 2.77621 6.09679 3.59211 6.00953C4.52751 5.9095 5.66745 6.57916 7.94732 7.91848Z" stroke="black" stroke-width="1.5"/>
<path d="M18.9473 7.91848C21.2272 9.25781 22.3671 9.92747 22.7497 10.8018C23.0834 11.5643 23.0834 12.4352 22.7497 13.1978C22.3671 14.072 21.2272 14.7417 18.9473 16.081C16.6674 17.4203 15.5275 18.09 14.5921 17.99C13.7762 17.9027 13.035 17.4673 12.5528 16.792C12 16.0177 12 14.6784 12 11.9998C12 9.32111 12 7.98178 12.5528 7.20754C13.035 6.53221 13.7762 6.09679 14.5921 6.00953C15.5275 5.9095 16.6674 6.57916 18.9473 7.91848Z" stroke="black" stroke-width="1.5"/>
</g>
<defs>
<clipPath id="clip0_0_1">
<rect width="24" height="24" fill="black" transform="translate(-0.000244141 -0.000366211)"/>
</clipPath>
</defs>
</svg>
