<svg width="24" height="24" viewBox="0 0 24 24" fill="none" xmlns="http://www.w3.org/2000/svg">
<path d="M22.7497 11.9998C22.7497 11.5856 22.4139 11.2498 21.9997 11.2498C21.5854 11.2498 21.2497 11.5856 21.2497 11.9998H22.7497ZM18.0006 3.99982L17.5501 4.59944L17.5501 4.59944L18.0006 3.99982ZM19.9997 5.99884L19.4 6.44935L19.4311 6.49072L19.4676 6.52743L19.9997 5.99884ZM21.487 0.996471C21.4851 0.582261 21.1478 0.247977 20.7336 0.249825C20.3194 0.251673 19.9851 0.588954 19.987 1.00316L21.487 0.996471ZM20.7458 2.98553L21.4958 2.98218L21.4958 2.98218L20.7458 2.98553ZM17.0658 6.66553L17.0625 7.41552L17.0625 7.41552L17.0658 6.66553ZM15.0835 5.90668C14.6692 5.90483 14.332 6.23911 14.3301 6.65332C14.3283 7.06753 14.6626 7.40481 15.0768 7.40666L15.0835 5.90668ZM20.3373 5.90248L20.9304 6.36151L20.9304 6.3615L20.3373 5.90248ZM19.9828 6.25698L20.4418 6.85011L20.4418 6.85011L19.9828 6.25698ZM14.7597 9.74981C15.1739 9.74981 15.5097 9.41403 15.5097 8.99981C15.5097 8.5856 15.1739 8.24981 14.7597 8.24981V9.74981ZM8.99966 16.2498C8.58545 16.2498 8.24966 16.5856 8.24966 16.9998C8.24966 17.414 8.58545 17.7498 8.99966 17.7498V16.2498ZM21.2497 11.9998C21.2497 17.1084 17.1083 21.2498 11.9997 21.2498V22.7498C17.9367 22.7498 22.7497 17.9369 22.7497 11.9998H21.2497ZM11.9997 21.2498C6.89103 21.2498 2.74967 17.1084 2.74967 11.9998H1.24967C1.24967 17.9369 6.0626 22.7498 11.9997 22.7498V21.2498ZM2.74967 11.9998C2.74967 6.89118 6.89103 2.74982 11.9997 2.74982V1.24982C6.0626 1.24982 1.24967 6.06275 1.24967 11.9998H2.74967ZM11.9997 2.74982C14.0833 2.74982 16.0041 3.43785 17.5501 4.59944L18.4511 3.4002C16.6542 2.05014 14.4193 1.24982 11.9997 1.24982V2.74982ZM17.5501 4.59944C18.2505 5.12564 18.8738 5.74898 19.4 6.44935L20.5993 5.54834C19.9882 4.735 19.2645 4.01127 18.4511 3.4002L17.5501 4.59944ZM19.987 1.00316L19.9958 2.98887L21.4958 2.98218L21.487 0.996471L19.987 1.00316ZM17.0692 5.91554L15.0835 5.90668L15.0768 7.40666L17.0625 7.41552L17.0692 5.91554ZM19.9958 2.98887C19.9994 3.79829 20.0007 4.34198 19.9558 4.75332C19.9125 5.14958 19.8343 5.32694 19.7441 5.44347L20.9304 6.3615C21.2594 5.93642 21.389 5.44709 21.4469 4.91616C21.5033 4.40032 21.4993 3.75633 21.4958 2.98218L19.9958 2.98887ZM17.0625 7.41552C17.8366 7.41897 18.4806 7.42298 18.9965 7.36665C19.5274 7.30867 20.0167 7.17908 20.4418 6.85011L19.5238 5.66385C19.4072 5.75403 19.2299 5.83224 18.8336 5.87552C18.4223 5.92044 17.8786 5.91915 17.0692 5.91554L17.0625 7.41552ZM14.7597 8.24981H10.9997V9.74981H14.7597V8.24981ZM8.24966 10.9998V11.9998H9.74966V10.9998H8.24966ZM9.99966 13.7498H13.9997V12.2498H9.99966V13.7498ZM14.2497 13.9998V14.9998H15.7497V13.9998H14.2497ZM12.9997 16.2498H8.99966V17.7498H12.9997V16.2498ZM14.2497 14.9998C14.2497 15.6902 13.69 16.2498 12.9997 16.2498V17.7498C14.5184 17.7498 15.7497 16.5186 15.7497 14.9998H14.2497ZM13.9997 13.7498C14.1377 13.7498 14.2497 13.8617 14.2497 13.9998H15.7497C15.7497 13.0333 14.9662 12.2498 13.9997 12.2498V13.7498ZM8.24966 11.9998C8.24966 12.9663 9.03317 13.7498 9.99966 13.7498V12.2498C9.86159 12.2498 9.74966 12.1379 9.74966 11.9998H8.24966ZM10.9997 8.24981C9.48088 8.24981 8.24966 9.48103 8.24966 10.9998H9.74966C9.74966 10.3095 10.3093 9.74981 10.9997 9.74981V8.24981ZM19.7441 5.44346C19.705 5.49405 19.662 5.54145 19.6156 5.58527L20.6454 6.67589C20.7483 6.57873 20.8436 6.47364 20.9304 6.36151L19.7441 5.44346ZM19.6156 5.58527C19.5863 5.61292 19.5557 5.63915 19.5238 5.66385L20.4418 6.85011C20.5126 6.79534 20.5805 6.7372 20.6454 6.67589L19.6156 5.58527ZM19.4676 6.52743L19.5985 6.65916L20.6626 5.60199L20.5317 5.47025L19.4676 6.52743Z" fill="black"/>
</svg>
