<svg width="24" height="24" viewBox="0 0 24 24" fill="none" xmlns="http://www.w3.org/2000/svg">
<path d="M6.46945 10.4695C6.17656 10.7624 6.17656 11.2373 6.46945 11.5301C6.76235 11.823 7.23722 11.823 7.53011 11.5301L6.46945 10.4695ZM8.24978 15.9998C8.24978 16.414 8.58557 16.7498 8.99978 16.7498C9.414 16.7498 9.74978 16.414 9.74978 15.9998H8.24978ZM22.7498 11.9998C22.7498 11.5856 22.414 11.2498 21.9998 11.2498C21.5856 11.2498 21.2498 11.5856 21.2498 11.9998H22.7498ZM18.0008 3.99982L17.5502 4.59944L17.5502 4.59944L18.0008 3.99982ZM19.9998 5.99884L19.4002 6.44935L19.4213 6.47746L19.4449 6.50348L19.9998 5.99884ZM21.4871 0.996471C21.4852 0.582261 21.1479 0.247977 20.7337 0.249825C20.3195 0.251673 19.9852 0.588954 19.9871 1.00316L21.4871 0.996471ZM20.7459 2.98553L21.4959 2.98218L21.4959 2.98218L20.7459 2.98553ZM17.0659 6.66553L17.0626 7.41552L17.0626 7.41552L17.0659 6.66553ZM15.0836 5.90668C14.6694 5.90483 14.3321 6.23911 14.3302 6.65332C14.3284 7.06753 14.6627 7.40481 15.0769 7.40666L15.0836 5.90668ZM20.3374 5.90248L20.9305 6.36151L20.9305 6.3615L20.3374 5.90248ZM19.9829 6.25698L20.4419 6.85011L20.4419 6.85011L19.9829 6.25698ZM8.24978 10.414V15.9998H9.74978V10.414H8.24978ZM16.2498 11.9998V13.9998H17.7498V11.9998H16.2498ZM13.7498 13.9998V11.9998H12.2498V13.9998H13.7498ZM14.9998 15.2498C14.3094 15.2498 13.7498 14.6902 13.7498 13.9998H12.2498C12.2498 15.5186 13.481 16.7498 14.9998 16.7498V15.2498ZM16.2498 13.9998C16.2498 14.6902 15.6901 15.2498 14.9998 15.2498V16.7498C16.5186 16.7498 17.7498 15.5186 17.7498 13.9998H16.2498ZM14.9998 10.7498C15.6901 10.7498 16.2498 11.3095 16.2498 11.9998H17.7498C17.7498 10.481 16.5186 9.24981 14.9998 9.24981V10.7498ZM14.9998 9.24981C13.481 9.24981 12.2498 10.481 12.2498 11.9998H13.7498C13.7498 11.3095 14.3094 10.7498 14.9998 10.7498V9.24981ZM21.2498 11.9998C21.2498 17.1084 17.1084 21.2498 11.9998 21.2498V22.7498C17.9368 22.7498 22.7498 17.9369 22.7498 11.9998H21.2498ZM11.9998 21.2498C6.89115 21.2498 2.74979 17.1084 2.74979 11.9998H1.24979C1.24979 17.9369 6.06272 22.7498 11.9998 22.7498V21.2498ZM2.74979 11.9998C2.74979 6.89118 6.89115 2.74982 11.9998 2.74982V1.24982C6.06272 1.24982 1.24979 6.06275 1.24979 11.9998H2.74979ZM11.9998 2.74982C14.0834 2.74982 16.0042 3.43785 17.5502 4.59944L18.4513 3.4002C16.6543 2.05014 14.4194 1.24982 11.9998 1.24982V2.74982ZM17.5502 4.59944C18.2506 5.12564 18.874 5.74898 19.4002 6.44935L20.5994 5.54834C19.9883 4.735 19.2646 4.01127 18.4513 3.4002L17.5502 4.59944ZM19.9871 1.00316L19.9959 2.98887L21.4959 2.98218L21.4871 0.996471L19.9871 1.00316ZM17.0693 5.91554L15.0836 5.90668L15.0769 7.40666L17.0626 7.41552L17.0693 5.91554ZM19.9959 2.98887C19.9996 3.79829 20.0009 4.34198 19.9559 4.75332C19.9127 5.14958 19.8344 5.32694 19.7443 5.44347L20.9305 6.3615C21.2595 5.93642 21.3891 5.44709 21.4471 4.91616C21.5034 4.40032 21.4994 3.75633 21.4959 2.98218L19.9959 2.98887ZM17.0626 7.41552C17.8367 7.41897 18.4807 7.42298 18.9966 7.36665C19.5275 7.30867 20.0168 7.17908 20.4419 6.85011L19.5239 5.66385C19.4074 5.75403 19.23 5.83224 18.8337 5.87552C18.4224 5.92044 17.8787 5.91915 17.0693 5.91554L17.0626 7.41552ZM19.7443 5.44346C19.7041 5.49539 19.6599 5.54396 19.612 5.58875L20.6374 6.68361C20.7434 6.58431 20.8414 6.47661 20.9305 6.36151L19.7443 5.44346ZM19.612 5.58875C19.5839 5.61512 19.5545 5.64019 19.5239 5.66385L20.4419 6.85011C20.5097 6.79765 20.5749 6.74209 20.6374 6.68361L19.612 5.58875ZM19.4449 6.50348L19.5699 6.64082L20.6795 5.63154L20.5546 5.4942L19.4449 6.50348ZM7.46945 9.46948L6.46945 10.4695L7.53011 11.5301L8.53011 10.5301L7.46945 9.46948ZM9.74978 10.414C9.74978 9.22397 8.31095 8.62799 7.46945 9.46948L8.53011 10.5301C8.51172 10.5485 8.47931 10.5676 8.43974 10.5745C8.40426 10.5806 8.37407 10.5752 8.35116 10.5657C8.32824 10.5562 8.3031 10.5387 8.28236 10.5093C8.25922 10.4764 8.24978 10.44 8.24978 10.414H9.74978Z" fill="black"/>
</svg>
