<svg width="24" height="24" viewBox="0 0 24 24" fill="none" xmlns="http://www.w3.org/2000/svg">
<path d="M6.08637 20.6011L5.78781 21.2892L5.78781 21.2892L6.08637 20.6011ZM3.38039 17.7663L2.68293 18.0421L2.68293 18.0421L3.38039 17.7663ZM20.6192 17.7663L21.3166 18.0421L21.3166 18.0421L20.6192 17.7663ZM17.9132 20.6011L18.2118 21.2892L18.2118 21.2892L17.9132 20.6011ZM11.9998 19.9999L12.7498 19.9999L12.7498 19.9999L11.9998 19.9999ZM3.04211 10.5312L2.60434 11.1401L2.60434 11.1401L3.04211 10.5312ZM10.4998 20.2499C9.32418 20.2499 8.48183 20.2494 7.81748 20.2019C7.16058 20.155 6.73441 20.0648 6.38492 19.9131L5.78781 21.2892C6.35718 21.5362 6.97286 21.6454 7.71053 21.6981C8.44075 21.7503 9.34568 21.7499 10.4998 21.7499V20.2499ZM2.24979 13.1427C2.24979 14.3533 2.24942 15.297 2.29895 16.0575C2.34888 16.8241 2.4518 17.4575 2.68293 18.0421L4.07785 17.4905C3.92838 17.1125 3.841 16.6544 3.79578 15.96C3.75016 15.2596 3.74979 14.3729 3.74979 13.1427H2.24979ZM6.38492 19.9131C5.34883 19.4635 4.51496 18.5961 4.07785 17.4905L2.68293 18.0421C3.26075 19.5035 4.37363 20.6755 5.78781 21.2892L6.38492 19.9131ZM20.2498 13.1427C20.2498 14.3729 20.2494 15.2596 20.2038 15.96C20.1586 16.6544 20.0712 17.1125 19.9217 17.4905L21.3166 18.0421C21.5478 17.4575 21.6507 16.8241 21.7006 16.0575C21.7501 15.297 21.7498 14.3533 21.7498 13.1427H20.2498ZM13.4998 21.7499C14.6539 21.7499 15.5588 21.7503 16.289 21.6981C17.0267 21.6454 17.6424 21.5362 18.2118 21.2892L17.6146 19.9131C17.2652 20.0648 16.839 20.155 16.1821 20.2019C15.5177 20.2494 14.6754 20.2499 13.4998 20.2499V21.7499ZM19.9217 17.4905C19.4846 18.5961 18.6507 19.4635 17.6146 19.9131L18.2118 21.2892C19.6259 20.6755 20.7388 19.5035 21.3166 18.0421L19.9217 17.4905ZM3.74979 13.1427C3.74979 11.6695 3.68152 11.3011 3.74681 10.5663L2.2527 10.4335C2.18052 11.2459 2.24979 11.8568 2.24979 13.1427H3.74979ZM19.4998 6.74988C20.4663 6.74988 21.2498 7.53338 21.2498 8.49987H22.7498C22.7498 6.70495 21.2947 5.24988 19.4998 5.24988V6.74988ZM4.49979 5.24988C2.70486 5.24988 1.24979 6.70495 1.24979 8.49987H2.74979C2.74979 7.53338 3.53329 6.74988 4.49979 6.74988V5.24988ZM11.2498 5.99988L11.2498 19.9999L12.7498 19.9999L12.7498 5.99988L11.2498 5.99988ZM13.9998 5.24988H11.9998V6.74988H13.9998V5.24988ZM12.7498 5.99988V3.99988H11.2498V5.99988H12.7498ZM15.2498 3.99988C15.2498 4.69023 14.6901 5.24988 13.9998 5.24988V6.74988C15.5186 6.74988 16.7498 5.51866 16.7498 3.99988H15.2498ZM13.9998 2.74988C14.6901 2.74988 15.2498 3.30952 15.2498 3.99988H16.7498C16.7498 2.48109 15.5186 1.24988 13.9998 1.24988V2.74988ZM13.9998 1.24988C12.481 1.24988 11.2498 2.48109 11.2498 3.99988H12.7498C12.7498 3.30952 13.3094 2.74988 13.9998 2.74988V1.24988ZM9.99978 6.74988H11.9998V5.24988H9.99978V6.74988ZM7.24978 3.99988C7.24978 5.51866 8.481 6.74988 9.99978 6.74988V5.24988C9.30943 5.24988 8.74978 4.69023 8.74978 3.99988H7.24978ZM9.99978 1.24988C8.481 1.24988 7.24978 2.48109 7.24978 3.99988H8.74978C8.74978 3.30952 9.30943 2.74988 9.99978 2.74988V1.24988ZM9.99978 2.74988C10.6901 2.74988 11.2498 3.30952 11.2498 3.99988H12.7498C12.7498 2.48109 11.5186 1.24988 9.99978 1.24988V2.74988ZM4.49979 6.74988H11.9998V5.24988H4.49979V6.74988ZM11.9998 6.74988H19.4998V5.24988H11.9998V6.74988ZM13.4998 20.2499H11.9998V21.7499H13.4998V20.2499ZM11.9998 20.2499H10.4998V21.7499H11.9998V20.2499ZM11.2498 19.9999L11.2498 20.9999L12.7498 20.9999L12.7498 19.9999L11.2498 19.9999ZM19.4998 10.2499H11.9998V11.7499H19.4998V10.2499ZM11.9998 10.2499H4.49979V11.7499H11.9998V10.2499ZM4.49979 10.2499C4.11808 10.2499 3.76693 10.1285 3.47989 9.92219L2.60434 11.1401C3.13799 11.5238 3.79359 11.7499 4.49979 11.7499V10.2499ZM3.47989 9.92219C3.03625 9.60326 2.74979 9.08503 2.74979 8.49987H1.24979C1.24979 9.58824 1.78551 10.5515 2.60434 11.1401L3.47989 9.92219ZM21.2498 8.49987C21.2498 9.09185 20.9566 9.61542 20.5041 9.93328L21.3663 11.1607C22.2014 10.574 22.7498 9.60103 22.7498 8.49987H21.2498ZM20.5041 9.93328C20.22 10.1328 19.8747 10.2499 19.4998 10.2499V11.7499C20.1932 11.7499 20.8379 11.5319 21.3663 11.1607L20.5041 9.93328ZM21.7498 13.1427C21.7498 11.7978 21.7503 11.2672 21.6824 10.4824L20.188 10.6116C20.2493 11.3206 20.2498 11.7849 20.2498 13.1427H21.7498Z" fill="black"/>
</svg>
