<svg width="24" height="24" viewBox="0 0 24 24" fill="none" xmlns="http://www.w3.org/2000/svg">
<path d="M6.08612 21.5657L5.78757 22.2537L5.78757 22.2537L6.08612 21.5657ZM3.38014 18.7309L2.68268 19.0067L2.68268 19.0067L3.38014 18.7309ZM20.6189 18.7309L21.3164 19.0067L21.3164 19.0067L20.6189 18.7309ZM17.913 21.5657L18.2115 22.2537L18.2115 22.2537L17.913 21.5657ZM2.99954 11.4645L3.7466 11.5309L3.7833 11.1177L3.45291 10.867L2.99954 11.4645ZM19.4995 6.96446L19.4995 6.21446L19.4995 6.21446L19.4995 6.96446ZM12.7673 5.85355L13.2976 6.38388L12.7673 5.85355ZM14.8886 3.73223L15.419 4.26256L15.419 4.26256L14.8886 3.73223ZM18.4242 3.73223L17.8938 4.26256L17.8938 4.26256L18.4242 3.73223ZM18.683 6.96445L18.6831 7.71445L19.0658 7.71442L19.2904 7.40446L18.683 6.96445ZM11.3886 5.85357L10.8583 6.3839L11.3886 5.85357ZM9.26732 3.73225L8.73699 4.26258L8.73699 4.26258L9.26732 3.73225ZM5.73179 3.73225L6.26212 4.26258L6.26212 4.26258L5.73179 3.73225ZM11.9995 20.9645L12.7495 20.9645L12.7495 20.9645L11.9995 20.9645ZM2.96707 11.4398L2.50693 12.0321L2.50693 12.0321L2.96707 11.4398ZM20.9349 11.5116L20.5038 10.8979L20.5038 10.8979L20.9349 11.5116ZM10.4995 21.2145C9.32394 21.2145 8.48158 21.214 7.81723 21.1665C7.16034 21.1196 6.73417 21.0294 6.38468 20.8777L5.78757 22.2537C6.35694 22.5008 6.97262 22.61 7.71029 22.6627C8.44051 22.7149 9.34543 22.7145 10.4995 22.7145V21.2145ZM2.24957 14.1073C2.24957 15.3178 2.2492 16.2616 2.29872 17.0221C2.34864 17.7887 2.45155 18.4221 2.68268 19.0067L4.07761 18.4551C3.92814 18.0771 3.84076 17.619 3.79555 16.9246C3.74994 16.2242 3.74957 15.3375 3.74957 14.1073H2.24957ZM6.38468 20.8777C5.34858 20.4281 4.51472 19.5607 4.07761 18.4551L2.68268 19.0067C3.26051 20.4681 4.37338 21.6401 5.78757 22.2537L6.38468 20.8777ZM20.2495 14.1073C20.2495 15.3374 20.2492 16.2242 20.2035 16.9246C20.1583 17.619 20.0709 18.0771 19.9215 18.4551L21.3164 19.0067C21.5475 18.4221 21.6504 17.7887 21.7004 17.0221C21.7499 16.2616 21.7495 15.3178 21.7495 14.1073H20.2495ZM13.4995 22.7145C14.6536 22.7145 15.5586 22.7149 16.2888 22.6627C17.0265 22.61 17.6421 22.5008 18.2115 22.2537L17.6144 20.8777C17.2649 21.0294 16.8387 21.1196 16.1818 21.1665C15.5175 21.214 14.6751 21.2145 13.4995 21.2145V22.7145ZM19.9215 18.4551C19.4844 19.5607 18.6505 20.4281 17.6144 20.8777L18.2115 22.2537C19.6257 21.6401 20.7386 20.4681 21.3164 19.0067L19.9215 18.4551ZM3.74957 14.1073C3.74957 12.6341 3.6813 12.2657 3.7466 11.5309L2.25249 11.3981C2.18031 12.2105 2.24957 12.8214 2.24957 14.1073H3.74957ZM19.4995 7.71446C20.466 7.71446 21.2495 8.49796 21.2495 9.46446H22.7495C22.7495 7.66953 21.2945 6.21446 19.4995 6.21446V7.71446ZM4.49954 6.21446C2.70462 6.21446 1.24954 7.66953 1.24954 9.46446H2.74954C2.74954 8.49796 3.53304 7.71446 4.49954 7.71446V6.21446ZM13.2976 6.38388L15.419 4.26256L14.3583 3.2019L12.237 5.32322L13.2976 6.38388ZM15.419 4.26256C16.1024 3.57915 17.2104 3.57915 17.8938 4.26256L18.9545 3.2019C17.6853 1.9327 15.6275 1.9327 14.3583 3.2019L15.419 4.26256ZM12.237 5.32322C11.9234 5.63677 11.4442 6.14706 11.2757 6.76812L12.7234 7.16083C12.7757 6.96806 12.9722 6.70934 13.2976 6.38388L12.237 5.32322ZM17.8938 4.26256C18.5098 4.87851 18.5709 5.84078 18.0757 6.52443L19.2904 7.40446C20.2112 6.13337 20.0998 4.34725 18.9545 3.2019L17.8938 4.26256ZM11.919 5.32324L9.79765 3.20192L8.73699 4.26258L10.8583 6.3839L11.919 5.32324ZM9.79765 3.20192C8.52845 1.93271 6.47066 1.93271 5.20146 3.20192L6.26212 4.26258C6.94553 3.57916 8.05357 3.57916 8.73699 4.26258L9.79765 3.20192ZM10.8583 6.3839C11.0594 6.58497 11.1885 6.83942 11.2757 7.16083L12.7234 6.76812C12.5898 6.2757 12.3569 5.76117 11.919 5.32324L10.8583 6.3839ZM5.20146 3.20192C4.05611 4.34726 3.9447 6.13339 4.86556 7.40447L6.08028 6.52445C5.585 5.84079 5.64617 4.87852 6.26212 4.26258L5.20146 3.20192ZM11.2495 6.96448L11.2495 20.9645L12.7495 20.9645L12.7495 6.96448L11.2495 6.96448ZM5.47292 7.71446L11.9995 7.71448L11.9995 6.21448L5.47292 6.21446L5.47292 7.71446ZM4.49954 11.2145C4.09451 11.2145 3.72352 11.0778 3.4272 10.8476L2.50693 12.0321C3.05712 12.4595 3.74962 12.7145 4.49954 12.7145V11.2145ZM3.4272 10.8476C3.01349 10.5261 2.74954 10.0263 2.74954 9.46446H1.24954C1.24954 10.5091 1.74321 11.4388 2.50693 12.0321L3.4272 10.8476ZM3.45291 10.867L3.42044 10.8424L2.5137 12.0373L2.54617 12.0619L3.45291 10.867ZM13.4995 21.2145H11.9995V22.7145H13.4995V21.2145ZM11.9995 21.2145H10.4995V22.7145H11.9995V21.2145ZM11.2495 20.9645L11.2495 21.9645L12.7495 21.9645L12.7495 20.9645L11.2495 20.9645ZM19.4995 11.2145H11.9995V12.7145H19.4995V11.2145ZM11.9995 11.2145H4.49954V12.7145H11.9995V11.2145ZM21.2495 9.46446C21.2495 10.0564 20.9563 10.58 20.5038 10.8979L21.366 12.1253C22.2012 11.5386 22.7495 10.5656 22.7495 9.46446H21.2495ZM20.5038 10.8979C20.2197 11.0974 19.8744 11.2145 19.4995 11.2145V12.7145C20.1929 12.7145 20.8377 12.4965 21.366 12.1253L20.5038 10.8979ZM21.7495 14.1073C21.7495 12.7624 21.75 12.2318 21.6821 11.4469L20.1877 11.5762C20.249 12.2851 20.2495 12.7495 20.2495 14.1073H21.7495ZM11.9995 7.71448L18.4242 7.71446L18.4242 6.21446L11.9995 6.21448L11.9995 7.71448ZM18.4242 7.71446L18.6831 7.71445L18.683 6.21445L18.4241 6.21446L18.4242 7.71446ZM18.4242 7.71446L19.4995 7.71446L19.4995 6.21446L18.4242 6.21446L18.4242 7.71446ZM5.47292 6.21446H4.49954V7.71446H5.47292V6.21446ZM4.49954 7.71446L8.24954 7.71447L8.24954 6.21447L4.49954 6.21446L4.49954 7.71446ZM8.24954 7.71447L11.9995 7.71448L11.9995 6.21448L8.24954 6.21447L8.24954 7.71447ZM5.47292 7.71446L8.24954 7.71447L8.24954 6.21447L5.47292 6.21446L5.47292 7.71446ZM11.9995 7.71448L18.683 7.71445L18.683 6.21445L11.9995 6.21448L11.9995 7.71448Z" fill="black"/>
</svg>
