<svg width="24" height="24" viewBox="0 0 24 24" fill="none" xmlns="http://www.w3.org/2000/svg">
<g clip-path="url(#clip0_0_1)">
<path d="M18.483 18.4989L17.8594 18.0823L18.483 18.4989ZM5.99966 6.01557L5.58298 5.39197L5.99966 6.01557ZM9.01618 4.72012L8.85087 3.98856L9.01618 4.72012ZM19.7785 15.4824L19.0469 15.3171L19.7785 15.4824ZM17.4439 2.18389L17.1569 2.8768L17.4439 2.18389ZM22.3147 7.05465L23.0076 6.76764L22.3147 7.05465ZM19.4655 10.4988L19.4655 11.2488L19.4655 11.2488L19.4655 10.4988ZM18.4998 10.4988L18.4998 9.7488H18.4998L18.4998 10.4988ZM13.9998 5.9988L13.2498 5.9988L13.2498 5.9988L13.9998 5.9988ZM13.9998 5.03307L14.7498 5.03307L14.7498 5.03307L13.9998 5.03307ZM19.0469 15.3171C18.8251 16.2988 18.4243 17.2368 17.8594 18.0823L19.1066 18.9156C19.7742 17.9165 20.2479 16.8079 20.51 15.6477L19.0469 15.3171ZM17.8594 18.0823C16.9529 19.439 15.6644 20.4964 14.1569 21.1208L14.7309 22.5066C16.5125 21.7687 18.0353 20.519 19.1066 18.9156L17.8594 18.0823ZM14.1569 21.1208C12.6494 21.7452 10.9906 21.9086 9.39029 21.5903L9.09766 23.0615C10.989 23.4377 12.9494 23.2446 14.7309 22.5066L14.1569 21.1208ZM9.39029 21.5903C7.78995 21.2719 6.31994 20.4862 5.16616 19.3324L4.1055 20.3931C5.46906 21.7566 7.20634 22.6852 9.09766 23.0615L9.39029 21.5903ZM5.16616 19.3324C4.01238 18.1786 3.22664 16.7086 2.90831 15.1083L1.43713 15.4009C1.81334 17.2922 2.74194 19.0295 4.1055 20.3931L5.16616 19.3324ZM2.90831 15.1083C2.58998 13.508 2.75336 11.8492 3.37778 10.3417L1.99197 9.76764C1.25401 11.5492 1.06093 13.5096 1.43713 15.4009L2.90831 15.1083ZM3.37778 10.3417C4.00221 8.83417 5.05963 7.5457 6.41633 6.63918L5.58298 5.39197C3.9796 6.46332 2.72992 7.98606 1.99197 9.76764L3.37778 10.3417ZM6.41633 6.63918C7.26176 6.07428 8.19974 5.67351 9.18148 5.45167L8.85087 3.98856C7.69066 4.25073 6.58213 4.72436 5.58298 5.39197L6.41633 6.63918ZM10.2498 6.4988V8.4988H11.7498V6.4988H10.2498ZM15.9998 14.2488H17.9998V12.7488H15.9998V14.2488ZM10.2498 8.4988C10.2498 11.6744 12.8241 14.2488 15.9998 14.2488V12.7488C13.6526 12.7488 11.7498 10.846 11.7498 8.4988H10.2498ZM9.18148 5.45167C9.67409 5.34036 10.2498 5.74902 10.2498 6.4988H11.7498C11.7498 5.03945 10.5131 3.61296 8.85087 3.98856L9.18148 5.45167ZM20.51 15.6477C20.8856 13.9855 19.4591 12.7488 17.9998 12.7488V14.2488C18.7496 14.2488 19.1582 14.8245 19.0469 15.3171L20.51 15.6477ZM17.1569 2.8768C18.1579 3.2914 19.0673 3.89909 19.8334 4.66517L20.8941 3.60451C19.9887 2.69914 18.9139 1.98096 17.7309 1.49098L17.1569 2.8768ZM19.8334 4.66517C20.5995 5.43125 21.2072 6.34073 21.6218 7.34166L23.0076 6.76764C22.5176 5.58471 21.7994 4.50988 20.8941 3.60451L19.8334 4.66517ZM19.4655 9.7488H18.4998V11.2488H19.4655V9.7488ZM14.7498 5.9988V5.03307H13.2498V5.9988H14.7498ZM21.6218 7.34166C21.8735 7.94933 21.734 8.5107 21.3402 8.95635C20.9294 9.42115 20.2398 9.7488 19.4655 9.7488L19.4655 11.2488C20.6432 11.2488 21.7516 10.756 22.4642 9.94961C23.1938 9.12401 23.5029 7.96331 23.0076 6.76764L21.6218 7.34166ZM18.4998 9.7488C16.4287 9.7488 14.7498 8.06987 14.7498 5.9988L13.2498 5.9988C13.2498 8.89829 15.6003 11.2488 18.4998 11.2488L18.4998 9.7488ZM17.7309 1.49098C16.5353 0.995713 15.3746 1.30483 14.549 2.03438C13.7425 2.747 13.2498 3.85542 13.2498 5.03307L14.7498 5.03307C14.7498 4.2588 15.0774 3.56914 15.5422 3.15841C15.9879 2.76461 16.5493 2.62509 17.1569 2.87679L17.7309 1.49098Z" fill="black"/>
</g>
<defs>
<clipPath id="clip0_0_1">
<rect width="24" height="24" fill="black" transform="translate(0 -0.000244141)"/>
</clipPath>
</defs>
</svg>
