<svg width="24" height="24" viewBox="0 0 24 24" fill="none" xmlns="http://www.w3.org/2000/svg">
<path d="M17 7.74921C17 8.99185 15.9927 9.99921 14.75 9.99921V11.4992C16.8211 11.4992 18.5 9.82027 18.5 7.74921H17ZM14.75 9.99921C13.5074 9.99921 12.5 8.99185 12.5 7.74921H11C11 9.82027 12.679 11.4992 14.75 11.4992V9.99921ZM12.5 7.74921C12.5 6.50657 13.5074 5.49921 14.75 5.49921V3.99921C12.679 3.99921 11 5.67814 11 7.74921H12.5ZM14.75 5.49921C15.9927 5.49921 17 6.50657 17 7.74921H18.5C18.5 5.67814 16.8211 3.99921 14.75 3.99921V5.49921ZM11.75 14.4992H17.75V12.9992H11.75V14.4992ZM17.75 18.9992H11.75V20.4992H17.75V18.9992ZM11.75 18.9992C10.5074 18.9992 9.50003 17.9918 9.50003 16.7492H8.00003C8.00003 18.8203 9.67896 20.4992 11.75 20.4992V18.9992ZM20 16.7492C20 17.9918 18.9927 18.9992 17.75 18.9992V20.4992C19.8211 20.4992 21.5 18.8203 21.5 16.7492H20ZM17.75 14.4992C18.9927 14.4992 20 15.5066 20 16.7492H21.5C21.5 14.6781 19.8211 12.9992 17.75 12.9992V14.4992ZM11.75 12.9992C9.67896 12.9992 8.00003 14.6781 8.00003 16.7492H9.50003C9.50003 15.5066 10.5074 14.4992 11.75 14.4992V12.9992Z" fill="black"/>
<path d="M10.5021 10.3878C10.3444 10.1344 10.0484 9.99914 9.74995 9.99914C8.50731 9.99914 7.49995 8.99178 7.49995 7.74914C7.49995 6.5065 8.50731 5.49914 9.74995 5.49914C10.0484 5.49914 10.3444 5.36387 10.5021 5.11049C10.5091 5.09929 10.5161 5.08811 10.5231 5.07696C10.7858 4.66245 10.6527 4.07555 10.165 4.02185C10.0287 4.00685 9.89022 3.99915 9.74995 3.99915C7.67889 3.99915 5.99995 5.67808 5.99995 7.74914C5.99995 9.82021 7.67889 11.4991 9.74995 11.4991C9.89022 11.4991 10.0287 11.4914 10.165 11.4764C10.6527 11.4227 10.7858 10.8358 10.5232 10.4213C10.5161 10.4102 10.5091 10.399 10.5021 10.3878Z" fill="black"/>
<path d="M7.45824 18.316C7.34472 18.1266 7.14435 17.9991 6.92354 17.9991H6.74995C5.50731 17.9991 4.49995 16.9918 4.49995 15.7491C4.49995 14.5065 5.50731 13.4991 6.74995 13.4991H6.92354C7.14435 13.4991 7.34472 13.3717 7.45824 13.1823C7.73534 12.72 7.43464 11.9991 6.89564 11.9991H6.74995C4.67889 11.9991 2.99995 13.6781 2.99995 15.7491C2.99995 17.8202 4.67889 19.4991 6.74995 19.4991H6.89564C7.43464 19.4991 7.73534 18.7783 7.45824 18.316Z" fill="black"/>
</svg>
