<svg width="24" height="24" viewBox="0 0 24 24" fill="none" xmlns="http://www.w3.org/2000/svg">
<g clip-path="url(#clip0_0_1)">
<path fill-rule="evenodd" clip-rule="evenodd" d="M2.61304 10.0959L2.89504 9.11094C3.56104 6.80994 4.22704 4.50794 4.89104 2.20694C4.91704 2.11694 4.94504 2.04294 5.04804 2.00194C6.19804 1.54094 7.37504 1.17694 8.61304 1.04294C10.279 0.862936 11.808 1.25294 13.22 2.13694C13.404 2.25194 13.582 2.37694 13.77 2.48394C13.89 2.55294 13.906 2.62594 13.868 2.75594C13.315 4.65294 12.768 6.55094 12.22 8.44994C12.028 9.11094 11.832 9.77194 11.646 10.4359C11.606 10.5839 11.571 10.6089 11.435 10.5159C10.621 9.96293 9.76304 9.49894 8.80204 9.25294C7.59004 8.94094 6.37904 9.00293 5.17004 9.26793C4.30804 9.45793 3.47804 9.74193 2.61304 10.0959Z" fill="#F35325"/>
<path fill-rule="evenodd" clip-rule="evenodd" d="M17.277 13.025C15.748 13.035 14.399 12.499 13.143 11.674C12.788 11.44 12.789 11.442 12.905 11.039C13.617 8.58103 14.326 6.12103 15.039 3.66303C15.109 3.42203 15.058 3.37803 15.329 3.55903C16.224 4.15903 17.168 4.65303 18.237 4.86903C19.365 5.09703 20.485 5.01903 21.599 4.77003C22.299 4.61303 22.979 4.39303 23.647 4.13503C23.743 4.09903 23.842 4.03703 23.941 4.12803C24.038 4.21803 23.993 4.31803 23.963 4.42103C23.25 6.88603 22.537 9.35103 21.829 11.818C21.796 11.933 21.736 11.989 21.629 12.032C20.467 12.497 19.278 12.863 18.025 12.982C17.777 13.007 17.527 13.012 17.277 13.025" fill="#81BC06"/>
<path fill-rule="evenodd" clip-rule="evenodd" d="M21.377 13.352L20.935 14.885C20.333 16.965 19.729 19.047 19.134 21.13C19.1168 21.2048 19.0802 21.2738 19.0279 21.33C18.9756 21.3861 18.9094 21.4275 18.836 21.45C17.81 21.845 16.767 22.17 15.673 22.324C13.98 22.562 12.405 22.242 10.943 21.361C10.701 21.215 10.468 21.055 10.223 20.911C10.103 20.841 10.093 20.767 10.13 20.639C10.653 18.843 11.17 17.045 11.69 15.247L12.325 13.053C12.392 12.823 12.393 12.823 12.605 12.963C13.365 13.464 14.156 13.899 15.039 14.149C16.312 14.509 17.586 14.449 18.861 14.167C19.71 13.98 20.529 13.695 21.377 13.352" fill="#FFBA08"/>
<path fill-rule="evenodd" clip-rule="evenodd" d="M11.179 12.047L10.813 13.308C10.19 15.464 9.56402 17.62 8.94702 19.778C8.89302 19.963 8.84402 19.968 8.69402 19.866C7.83702 19.281 6.93002 18.801 5.90702 18.568C4.75002 18.304 3.59802 18.375 2.44902 18.627C1.72902 18.784 1.03102 19.011 0.343022 19.276C0.253022 19.31 0.160022 19.361 0.066022 19.284C-0.038978 19.198 0.00602202 19.093 0.036022 18.993L2.16802 11.616C2.179 11.5692 2.20176 11.5259 2.23414 11.4904C2.26652 11.4549 2.30744 11.4282 2.35302 11.413C3.53302 10.938 4.74202 10.569 6.01602 10.451C7.58702 10.307 9.04202 10.663 10.388 11.48C10.618 11.62 10.845 11.765 11.072 11.91C11.13 11.948 11.21 11.98 11.179 12.047Z" fill="#05A6F0"/>
</g>
<defs>
<clipPath id="clip0_0_1">
<rect width="24" height="24" fill="black"/>
</clipPath>
</defs>
</svg>
