<svg width="24" height="24" viewBox="0 0 24 24" fill="none" xmlns="http://www.w3.org/2000/svg">
<path d="M6.99991 7.74921C6.99991 8.99185 8.00727 9.99921 9.24991 9.99921V11.4992C7.17884 11.4992 5.49991 9.82027 5.49991 7.74921H6.99991ZM9.24991 9.99921C10.4926 9.99921 11.4999 8.99185 11.4999 7.74921H12.9999C12.9999 9.82027 11.321 11.4992 9.24991 11.4992V9.99921ZM11.4999 7.74921C11.4999 6.50657 10.4926 5.49921 9.24991 5.49921V3.99921C11.321 3.99921 12.9999 5.67814 12.9999 7.74921H11.4999ZM9.24991 5.49921C8.00727 5.49921 6.99991 6.50657 6.99991 7.74921H5.49991C5.49991 5.67814 7.17884 3.99921 9.24991 3.99921V5.49921ZM12.2499 14.4992H6.24991V12.9992H12.2499V14.4992ZM6.24991 18.9992H12.2499V20.4992H6.24991V18.9992ZM12.2499 18.9992C13.4925 18.9992 14.4999 17.9918 14.4999 16.7492H15.9999C15.9999 18.8203 14.321 20.4992 12.2499 20.4992V18.9992ZM3.99991 16.7492C3.99991 17.9918 5.00727 18.9992 6.24991 18.9992V20.4992C4.17885 20.4992 2.49992 18.8203 2.49992 16.7492H3.99991ZM6.24991 14.4992C5.00727 14.4992 3.99991 15.5066 3.99991 16.7492H2.49992C2.49992 14.6781 4.17885 12.9992 6.24991 12.9992V14.4992ZM12.2499 12.9992C14.321 12.9992 15.9999 14.6781 15.9999 16.7492H14.4999C14.4999 15.5066 13.4925 14.4992 12.2499 14.4992V12.9992Z" fill="black"/>
<path d="M13.4973 10.3878C13.6551 10.1344 13.951 9.99914 14.2495 9.99914C15.4921 9.99914 16.4995 8.99178 16.4995 7.74914C16.4995 6.5065 15.4921 5.49914 14.2495 5.49914C13.951 5.49914 13.6551 5.36387 13.4973 5.11049C13.4904 5.09929 13.4833 5.08811 13.4763 5.07696C13.2137 4.66245 13.3467 4.07555 13.8345 4.02185C13.9708 4.00685 14.1092 3.99915 14.2495 3.99915C16.3206 3.99915 17.9995 5.67808 17.9995 7.74914C17.9995 9.82021 16.3206 11.4991 14.2495 11.4991C14.1092 11.4991 13.9707 11.4914 13.8345 11.4764C13.3467 11.4227 13.2137 10.8358 13.4763 10.4213C13.4833 10.4102 13.4904 10.399 13.4973 10.3878Z" fill="black"/>
<path d="M16.5412 18.316C16.6547 18.1266 16.8551 17.9991 17.0759 17.9991H17.2495C18.4921 17.9991 19.4995 16.9918 19.4995 15.7491C19.4995 14.5065 18.4921 13.4991 17.2495 13.4991H17.0759C16.8551 13.4991 16.6547 13.3717 16.5412 13.1823C16.2641 12.72 16.5648 11.9991 17.1038 11.9991H17.2495C19.3205 11.9991 20.9995 13.6781 20.9995 15.7491C20.9995 17.8202 19.3205 19.4991 17.2495 19.4991H17.1038C16.5648 19.4991 16.2641 18.7783 16.5412 18.316Z" fill="black"/>
</svg>
