<svg width="24" height="24" viewBox="0 0 24 24" fill="none" xmlns="http://www.w3.org/2000/svg">
<path d="M14.2498 7.74921C14.2498 8.99185 13.2425 9.99921 11.9998 9.99921V11.4992C14.0709 11.4992 15.7498 9.82027 15.7498 7.74921H14.2498ZM11.9998 9.99921C10.7572 9.99921 9.74981 8.99185 9.74981 7.74921H8.24982C8.24982 9.82027 9.92875 11.4992 11.9998 11.4992V9.99921ZM9.74981 7.74921C9.74981 6.50657 10.7572 5.49921 11.9998 5.49921V3.99921C9.92875 3.99921 8.24982 5.67814 8.24982 7.74921H9.74981ZM11.9998 5.49921C13.2425 5.49921 14.2498 6.50657 14.2498 7.74921H15.7498C15.7498 5.67814 14.0709 3.99921 11.9998 3.99921V5.49921ZM8.99982 14.4992H14.9998V12.9992H8.99982V14.4992ZM14.9998 18.9992H8.99982V20.4992H14.9998V18.9992ZM8.99982 18.9992C7.75718 18.9992 6.74982 17.9918 6.74982 16.7492H5.24982C5.24982 18.8203 6.92875 20.4992 8.99982 20.4992V18.9992ZM17.2498 16.7492C17.2498 17.9918 16.2425 18.9992 14.9998 18.9992V20.4992C17.0709 20.4992 18.7498 18.8203 18.7498 16.7492H17.2498ZM14.9998 14.4992C16.2425 14.4992 17.2498 15.5066 17.2498 16.7492H18.7498C18.7498 14.6781 17.0709 12.9992 14.9998 12.9992V14.4992ZM8.99982 12.9992C6.92875 12.9992 5.24982 14.6781 5.24982 16.7492H6.74982C6.74982 15.5066 7.75718 14.4992 8.99982 14.4992V12.9992Z" fill="black"/>
<path d="M7.7518 10.3878C7.59408 10.1344 7.29812 9.99914 6.99966 9.99914C5.75702 9.99914 4.74966 8.99178 4.74966 7.74914C4.74966 6.5065 5.75702 5.49914 6.99966 5.49914C7.29812 5.49914 7.59407 5.36387 7.7518 5.11049C7.75878 5.09929 7.7658 5.08811 7.77286 5.07696C8.03546 4.66245 7.90241 4.07555 7.41466 4.02185C7.27839 4.00685 7.13993 3.99915 6.99966 3.99915C4.92859 3.99915 3.24966 5.67808 3.24966 7.74914C3.24966 9.82021 4.92859 11.4991 6.99966 11.4991C7.13993 11.4991 7.27839 11.4914 7.41466 11.4764C7.90241 11.4227 8.03546 10.8358 7.77286 10.4213C7.7658 10.4102 7.75878 10.399 7.7518 10.3878Z" fill="black"/>
<path d="M4.70795 18.316C4.59443 18.1266 4.39406 17.9991 4.17325 17.9991H3.99966C2.75702 17.9991 1.74966 16.9918 1.74966 15.7491C1.74966 14.5065 2.75702 13.4991 3.99966 13.4991H4.17325C4.39406 13.4991 4.59443 13.3717 4.70795 13.1823C4.98505 12.72 4.68435 11.9991 4.14535 11.9991H3.99966C1.9286 11.9991 0.249664 13.6781 0.249664 15.7491C0.249664 17.8202 1.9286 19.4991 3.99966 19.4991H4.14535C4.68435 19.4991 4.98505 18.7783 4.70795 18.316Z" fill="black"/>
<path d="M16.2265 10.4213C15.9639 10.8358 16.0969 11.4227 16.5847 11.4764C16.7209 11.4914 16.8594 11.4991 16.9997 11.4991C19.0707 11.4991 20.7497 9.82021 20.7497 7.74914C20.7497 5.67808 19.0707 3.99915 16.9997 3.99915C16.8594 3.99915 16.7209 4.00685 16.5847 4.02185C16.0969 4.07555 15.9639 4.66245 16.2265 5.07696C16.2335 5.08811 16.2405 5.09928 16.2475 5.11049C16.4052 5.36387 16.7012 5.49914 16.9997 5.49914C18.2423 5.49914 19.2497 6.5065 19.2497 7.74914C19.2497 8.99178 18.2423 9.99914 16.9997 9.99914C16.7012 9.99914 16.4052 10.1344 16.2475 10.3878C16.2405 10.399 16.2335 10.4102 16.2265 10.4213Z" fill="black"/>
<path d="M19.2914 18.316C19.0143 18.7783 19.315 19.4991 19.854 19.4991H19.9997C22.0707 19.4991 23.7497 17.8202 23.7497 15.7491C23.7497 13.6781 22.0707 11.9991 19.9997 11.9991H19.854C19.315 11.9991 19.0143 12.72 19.2914 13.1823C19.4049 13.3717 19.6053 13.4991 19.8261 13.4991H19.9997C21.2423 13.4991 22.2497 14.5065 22.2497 15.7491C22.2497 16.9918 21.2423 17.9991 19.9997 17.9991H19.8261C19.6053 17.9991 19.4049 18.1266 19.2914 18.316Z" fill="black"/>
</svg>
