<svg width="24" height="24" viewBox="0 0 24 24" fill="none" xmlns="http://www.w3.org/2000/svg">
<path d="M11.9998 18.9993C10.2985 18.9993 8.83178 17.6355 7.88445 16.3834C7.43204 15.7854 7.89492 14.9993 8.64474 14.9993H15.3548C16.1046 14.9993 16.5675 15.7854 16.1151 16.3834C15.1678 17.6355 13.701 18.9993 11.9998 18.9993Z" stroke="black" stroke-width="1.5" stroke-linecap="round"/>
<path d="M21.9998 11.9993C21.9998 17.5222 17.5226 21.9993 11.9998 21.9993C6.47694 21.9993 1.99979 17.5222 1.99979 11.9993C1.99979 6.47649 6.47694 1.99934 11.9998 1.99934C17.5226 1.99934 21.9998 6.47649 21.9998 11.9993Z" stroke="black" stroke-width="1.5" stroke-linecap="round"/>
<path d="M17.5776 7.32394C16.9941 6.79497 16.3184 7.01806 15.8999 7.25399C15.6635 7.3873 15.336 7.3873 15.0996 7.25399C14.6812 7.01807 14.0055 6.79497 13.4219 7.32394C12.0367 8.57964 14.4122 10.9993 15.4998 10.9993C16.5873 10.9993 18.9629 8.57964 17.5776 7.32394Z" stroke="black" stroke-width="1.5" stroke-linecap="round"/>
<path d="M10.5777 7.32394C9.9941 6.79497 9.31837 7.01806 8.89995 7.25399C8.66353 7.3873 8.33603 7.3873 8.09961 7.25399C7.68119 7.01807 7.00546 6.79497 6.42192 7.32394C5.03666 8.57964 7.41225 10.9993 8.49979 10.9993C9.58732 10.9993 11.9629 8.57964 10.5777 7.32394Z" stroke="black" stroke-width="1.5" stroke-linecap="round"/>
</svg>
