<svg width="24" height="24" viewBox="0 0 24 24" fill="none" xmlns="http://www.w3.org/2000/svg">
<path d="M5.06103 20.0447L5.50187 19.438L5.06103 20.0447ZM3.95487 18.9386L4.56163 18.4977L3.95487 18.9386ZM20.045 18.9386L19.4383 18.4977L20.045 18.9386ZM18.9389 20.0447L18.498 19.438L18.9389 20.0447ZM18.9389 3.95455L18.498 4.56131L18.9389 3.95455ZM20.045 5.06071L19.4383 5.50155L20.045 5.06071ZM5.06103 3.95455L5.50187 4.56131L5.06103 3.95455ZM3.95487 5.06071L4.56163 5.50155L3.95487 5.06071ZM9.24995 16.9996C9.24995 17.4138 9.58574 17.7496 9.99995 17.7496C10.4142 17.7496 10.75 17.4138 10.75 16.9996H9.24995ZM10.75 6.99963C10.75 6.58542 10.4142 6.24963 9.99995 6.24963C9.58574 6.24963 9.24995 6.58542 9.24995 6.99963H10.75ZM13.2499 16.9996C13.2499 17.4138 13.5857 17.7496 13.9999 17.7496C14.4142 17.7496 14.7499 17.4138 14.7499 16.9996H13.2499ZM14.7499 6.99963C14.7499 6.58542 14.4142 6.24963 13.9999 6.24963C13.5857 6.24963 13.2499 6.58542 13.2499 6.99963H14.7499ZM16.9999 10.7496C17.4142 10.7496 17.7499 10.4138 17.7499 9.99963C17.7499 9.58542 17.4142 9.24963 16.9999 9.24963V10.7496ZM6.99995 9.24963C6.58574 9.24963 6.24995 9.58542 6.24995 9.99963C6.24995 10.4138 6.58574 10.7496 6.99995 10.7496V9.24963ZM16.9999 14.7496C17.4142 14.7496 17.7499 14.4138 17.7499 13.9996C17.7499 13.5854 17.4142 13.2496 16.9999 13.2496V14.7496ZM6.99995 13.2496C6.58574 13.2496 6.24995 13.5854 6.24995 13.9996C6.24995 14.4138 6.58574 14.7496 6.99995 14.7496V13.2496ZM12 20.2496C10.1084 20.2496 8.74994 20.2486 7.698 20.1346C6.66009 20.0222 6.00987 19.807 5.50187 19.438L4.62019 20.6515C5.42651 21.2373 6.37089 21.4996 7.53643 21.6259C8.68793 21.7507 10.1418 21.7496 12 21.7496V20.2496ZM2.24995 11.9996C2.24995 13.8578 2.24893 15.3117 2.37368 16.4632C2.49996 17.6287 2.76228 18.5731 3.34811 19.3794L4.56163 18.4977C4.19254 17.9897 3.97741 17.3395 3.86495 16.3016C3.75098 15.2496 3.74995 13.8912 3.74995 11.9996H2.24995ZM5.50187 19.438C5.14106 19.1758 4.82377 18.8585 4.56163 18.4977L3.34811 19.3794C3.70276 19.8675 4.13204 20.2968 4.62019 20.6515L5.50187 19.438ZM20.2499 11.9996C20.2499 13.8912 20.2489 15.2496 20.1349 16.3016C20.0225 17.3395 19.8074 17.9897 19.4383 18.4977L20.6518 19.3794C21.2376 18.5731 21.4999 17.6287 21.6262 16.4632C21.751 15.3117 21.7499 13.8578 21.7499 11.9996H20.2499ZM12 21.7496C13.8581 21.7496 15.312 21.7507 16.4635 21.6259C17.629 21.4996 18.5734 21.2373 19.3797 20.6515L18.498 19.438C17.99 19.807 17.3398 20.0222 16.3019 20.1346C15.25 20.2486 13.8915 20.2496 12 20.2496V21.7496ZM19.4383 18.4977C19.1761 18.8585 18.8588 19.1758 18.498 19.438L19.3797 20.6515C19.8679 20.2968 20.2971 19.8675 20.6518 19.3794L19.4383 18.4977ZM12 3.74963C13.8915 3.74963 15.25 3.75066 16.3019 3.86463C17.3398 3.97708 17.99 4.19222 18.498 4.56131L19.3797 3.34779C18.5734 2.76196 17.629 2.49964 16.4635 2.37336C15.312 2.2486 13.8581 2.24963 12 2.24963V3.74963ZM21.7499 11.9996C21.7499 10.1415 21.751 8.68761 21.6262 7.53611C21.4999 6.37057 21.2376 5.42619 20.6518 4.61987L19.4383 5.50155C19.8074 6.00955 20.0225 6.65977 20.1349 7.69768C20.2489 8.74962 20.2499 10.1081 20.2499 11.9996H21.7499ZM18.498 4.56131C18.8588 4.82345 19.1761 5.14074 19.4383 5.50155L20.6518 4.61987C20.2971 4.13172 19.8679 3.70244 19.3797 3.34779L18.498 4.56131ZM12 2.24963C10.1418 2.24963 8.68793 2.2486 7.53643 2.37336C6.37089 2.49964 5.42651 2.76196 4.62019 3.34779L5.50187 4.56131C6.00987 4.19222 6.66009 3.97708 7.698 3.86463C8.74994 3.75066 10.1084 3.74963 12 3.74963V2.24963ZM3.74995 11.9996C3.74995 10.1081 3.75098 8.74962 3.86495 7.69768C3.97741 6.65977 4.19254 6.00955 4.56163 5.50155L3.34811 4.61987C2.76228 5.42619 2.49996 6.37057 2.37368 7.53611C2.24893 8.68761 2.24995 10.1415 2.24995 11.9996H3.74995ZM4.62019 3.34779C4.13204 3.70244 3.70276 4.13172 3.34811 4.61987L4.56163 5.50155C4.82377 5.14074 5.14106 4.82345 5.50187 4.56131L4.62019 3.34779ZM16.9999 13.2496H13.9999V14.7496H16.9999V13.2496ZM14.7499 16.9996V13.9996H13.2499V16.9996H14.7499ZM13.9999 13.2496H9.99995V14.7496H13.9999V13.2496ZM9.99995 13.2496H6.99995V14.7496H9.99995V13.2496ZM10.75 16.9996V13.9996H9.24995V16.9996H10.75ZM10.75 13.9996V9.99963H9.24995V13.9996H10.75ZM10.75 9.99963V6.99963H9.24995V9.99963H10.75ZM9.99995 9.24963H6.99995V10.7496H9.99995V9.24963ZM16.9999 9.24963H13.9999V10.7496H16.9999V9.24963ZM13.9999 9.24963H9.99995V10.7496H13.9999V9.24963ZM14.7499 13.9996V9.99963H13.2499V13.9996H14.7499ZM14.7499 9.99963V6.99963H13.2499V9.99963H14.7499Z" fill="black"/>
</svg>
