<svg width="24" height="24" viewBox="0 0 24 24" fill="none" xmlns="http://www.w3.org/2000/svg">
<g clip-path="url(#clip0_0_1)">
<path d="M10.2623 3.15633L10.1282 2.41843L10.2623 3.15633ZM13.7366 3.15633L13.8708 2.41843L13.8708 2.41843L13.7366 3.15633ZM21.6029 14.1511L20.8612 14.0398L20.8612 14.0398L21.6029 14.1511ZM2.39606 14.1511L3.13777 14.0398L3.13777 14.0398L2.39606 14.1511ZM7.39948 21.4405L7.92981 21.9708L7.92981 21.9708L7.39948 21.4405ZM6.46915 21.3102C6.17626 21.603 6.17625 22.0779 6.46915 22.3708C6.76204 22.6637 7.23691 22.6637 7.52981 22.3708L6.46915 21.3102ZM7.52981 13.3102C7.23691 13.0173 6.76204 13.0173 6.46915 13.3102C6.17625 13.603 6.17625 14.0779 6.46915 14.3708L7.52981 13.3102ZM7.39948 14.2405L6.86915 14.7708L6.86915 14.7708L7.39948 14.2405ZM7.51421 21.325L8.05208 21.8477L8.05208 21.8477L7.51421 21.325ZM7.51421 14.3559L8.05208 13.8333L8.05208 13.8333L7.51421 14.3559ZM16.5995 21.4405L17.1298 20.9102L17.1298 20.9102L16.5995 21.4405ZM16.4691 22.3708C16.762 22.6637 17.2369 22.6637 17.5298 22.3708C17.8227 22.0779 17.8227 21.603 17.5298 21.3102L16.4691 22.3708ZM17.5298 14.3708C17.8227 14.0779 17.8227 13.603 17.5298 13.3102C17.2369 13.0173 16.762 13.0173 16.4691 13.3102L17.5298 14.3708ZM16.5995 14.2405L17.1298 14.7708L17.1298 14.7708L16.5995 14.2405ZM16.4847 21.325L15.9469 21.8477L15.9469 21.8477L16.4847 21.325ZM16.4847 14.3559L15.9469 13.8333L15.9469 13.8333L16.4847 14.3559ZM21.4904 14.9012L21.3069 15.6284L21.4904 14.9012ZM10.3965 3.89423C11.4565 3.70151 12.5425 3.70151 13.6024 3.89423L13.8708 2.41843C12.6334 2.19345 11.3656 2.19345 10.1282 2.41843L10.3965 3.89423ZM22.3446 14.2623C23.1829 8.67356 19.4309 3.42936 13.8708 2.41843L13.6024 3.89423C18.3653 4.76021 21.5793 9.25243 20.8612 14.0398L22.3446 14.2623ZM3.13777 14.0398C2.41966 9.25243 5.63367 4.76021 10.3965 3.89423L10.1282 2.41843C4.56806 3.42936 0.81605 8.67355 1.65436 14.2623L3.13777 14.0398ZM6.86915 20.9102L6.46915 21.3102L7.52981 22.3708L7.92981 21.9708L6.86915 20.9102ZM6.46915 14.3708L6.86915 14.7708L7.92981 13.7102L7.52981 13.3102L6.46915 14.3708ZM7.92981 21.9708C7.98783 21.9128 8.02245 21.8782 8.05208 21.8477L6.97634 20.8023C6.95608 20.8232 6.93083 20.8485 6.86915 20.9102L7.92981 21.9708ZM6.86915 14.7708C6.93084 14.8325 6.95608 14.8578 6.97634 14.8786L8.05208 13.8333C8.02244 13.8028 7.98783 13.7682 7.92981 13.7102L6.86915 14.7708ZM8.05208 21.8477C10.2205 19.6163 10.2205 16.0647 8.05208 13.8333L6.97634 14.8786C8.5791 16.528 8.5791 19.153 6.97634 20.8023L8.05208 21.8477ZM16.0691 21.9708L16.4691 22.3708L17.5298 21.3102L17.1298 20.9102L16.0691 21.9708ZM16.4691 13.3102L16.0691 13.7102L17.1298 14.7708L17.5298 14.3708L16.4691 13.3102ZM17.1298 20.9102C17.0681 20.8485 17.0429 20.8232 17.0226 20.8023L15.9469 21.8477C15.9765 21.8782 16.0111 21.9128 16.0691 21.9708L17.1298 20.9102ZM16.0691 13.7102C16.0111 13.7682 15.9765 13.8028 15.9469 13.8333L17.0226 14.8786C17.0429 14.8578 17.0681 14.8325 17.1298 14.7708L16.0691 13.7102ZM17.0226 20.8023C15.4199 19.153 15.4199 16.528 17.0226 14.8786L15.9469 13.8333C13.7784 16.0647 13.7784 19.6163 15.9469 21.8477L17.0226 20.8023ZM22.2495 16.8405V18.8405H23.7495V16.8405H22.2495ZM19.7495 18.8405V16.8405H18.2495V18.8405H19.7495ZM20.9995 20.0905C20.3091 20.0905 19.7495 19.5308 19.7495 18.8405H18.2495C18.2495 20.3593 19.4807 21.5905 20.9995 21.5905V20.0905ZM22.2495 18.8405C22.2495 19.5308 21.6898 20.0905 20.9995 20.0905V21.5905C22.5183 21.5905 23.7495 20.3593 23.7495 18.8405H22.2495ZM20.9995 14.0905C19.4807 14.0905 18.2495 15.3217 18.2495 16.8405H19.7495C19.7495 16.1501 20.3091 15.5905 20.9995 15.5905V14.0905ZM4.24948 16.8405V18.8405H5.74948V16.8405H4.24948ZM1.74948 18.8405V16.8405H0.249481V18.8405H1.74948ZM2.99948 20.0905C2.30912 20.0905 1.74948 19.5308 1.74948 18.8405H0.249481C0.249481 20.3593 1.4807 21.5905 2.99948 21.5905V20.0905ZM4.24948 18.8405C4.24948 19.5308 3.68984 20.0905 2.99948 20.0905V21.5905C4.51826 21.5905 5.74948 20.3593 5.74948 18.8405H4.24948ZM2.99948 15.5905C3.68983 15.5905 4.24948 16.1501 4.24948 16.8405H5.74948C5.74948 15.3217 4.51826 14.0905 2.99948 14.0905V15.5905ZM2.99948 14.0905C2.76773 14.0905 2.54165 14.1193 2.32508 14.174L2.69209 15.6284C2.78965 15.6038 2.89248 15.5905 2.99948 15.5905V14.0905ZM2.32508 14.174C1.13275 14.4748 0.249481 15.5536 0.249481 16.8405H1.74948C1.74948 16.257 2.14995 15.7652 2.69209 15.6284L2.32508 14.174ZM3.25028 14.7899L3.13777 14.0398L1.65436 14.2623L1.76688 15.0124L3.25028 14.7899ZM20.9995 15.5905C21.1065 15.5905 21.2093 15.6038 21.3069 15.6284L21.6739 14.174C21.4573 14.1193 21.2312 14.0905 20.9995 14.0905V15.5905ZM21.3069 15.6284C21.849 15.7652 22.2495 16.257 22.2495 16.8405H23.7495C23.7495 15.5536 22.8662 14.4748 21.6739 14.174L21.3069 15.6284ZM20.8612 14.0398L20.7487 14.7899L22.2321 15.0124L22.3446 14.2623L20.8612 14.0398Z" fill="black"/>
</g>
<defs>
<clipPath id="clip0_0_1">
<rect width="24" height="24" fill="black" transform="translate(0.000244141 -0.000305176)"/>
</clipPath>
</defs>
</svg>
