<svg width="24" height="24" viewBox="0 0 24 24" fill="none" xmlns="http://www.w3.org/2000/svg">
<g clip-path="url(#clip0_0_1)">
<path d="M2.50897 14.9012C2.66603 14.8615 2.83049 14.8405 2.99986 14.8405C4.10443 14.8405 4.99986 15.7359 4.99986 16.8405V18.8405C4.99986 19.9451 4.10443 20.8405 2.99986 20.8405C1.89529 20.8405 0.999863 19.9451 0.999863 18.8405V16.8405C0.999863 15.9053 1.64174 15.12 2.50897 14.9012ZM2.50897 14.9012L2.39645 14.1511C1.61824 8.96299 5.10125 4.09478 10.2627 3.15633C11.4114 2.94748 12.5883 2.94748 13.737 3.15633C18.8985 4.09478 22.3815 8.96299 21.6033 14.1511L21.4908 14.9012M21.4908 14.9012C21.3337 14.8615 21.1692 14.8405 20.9999 14.8405C19.8953 14.8405 18.9999 15.7359 18.9999 16.8405V18.8405C18.9999 19.9451 19.8953 20.8405 20.9999 20.8405C22.1044 20.8405 22.9999 19.9451 22.9999 18.8405V16.8405C22.9999 15.9053 22.358 15.12 21.4908 14.9012Z" stroke="black" stroke-width="1.5"/>
</g>
<defs>
<clipPath id="clip0_0_1">
<rect width="24" height="24" fill="black" transform="translate(-0.000244141 -0.000305176)"/>
</clipPath>
</defs>
</svg>
