<svg width="24" height="24" viewBox="0 0 24 24" fill="none" xmlns="http://www.w3.org/2000/svg">
<path d="M11.9995 14.2491C11.5853 14.2491 11.2495 14.5849 11.2495 14.9991C11.2495 15.4134 11.5853 15.7491 11.9995 15.7491V14.2491ZM15.7495 11.9991C15.7495 11.5849 15.4137 11.2491 14.9995 11.2491C14.5853 11.2491 14.2495 11.5849 14.2495 11.9991H15.7495ZM3.22021 10.1245L2.61095 9.68716L2.61095 9.68716L3.22021 10.1245ZM3.21999 13.8734L3.82925 13.4361L3.82925 13.4361L3.21999 13.8734ZM5.78751 16.892L6.35046 16.3964L6.33145 16.3748L6.31084 16.3547L5.78751 16.892ZM18.1006 6.99914L17.5819 7.54088L17.6032 7.56128L17.626 7.57994L18.1006 6.99914ZM2.33646 11.9991L1.58646 11.9991L2.33646 11.9991ZM20.7789 13.8737L21.3881 14.3111L21.3881 14.3111L20.7789 13.8737ZM20.7788 10.1245L20.1696 10.5618L20.1696 10.5618L20.7788 10.1245ZM20.3949 8.3899C20.1328 8.06918 19.6603 8.02167 19.3395 8.28378C19.0188 8.5459 18.9713 9.01839 19.2334 9.33912L20.3949 8.3899ZM7.93707 17.7313C7.60065 17.4897 7.13203 17.5665 6.89039 17.9029C6.64875 18.2394 6.72558 18.708 7.06201 18.9496L7.93707 17.7313ZM21.6626 11.9991L20.9126 11.9991L21.6626 11.9991ZM1.53102 19.4135C1.20757 19.6722 1.15513 20.1442 1.41389 20.4677C1.67265 20.7911 2.14462 20.8435 2.46806 20.5848L1.53102 19.4135ZM22.4681 4.5848C22.7915 4.32604 22.8439 3.85407 22.5852 3.53062C22.3264 3.20718 21.8545 3.15474 21.531 3.41349L22.4681 4.5848ZM18.1743 7.05936L18.6428 7.64501L18.6428 7.64501L18.1743 7.05936ZM5.82719 16.937L6.29571 17.5227L6.29571 17.5227L5.82719 16.937ZM11.9995 8.24914C9.92847 8.24914 8.24954 9.92808 8.24954 11.9991H9.74954C9.74954 10.7565 10.7569 9.74914 11.9995 9.74914V8.24914ZM8.24954 11.9991C8.24954 12.8799 8.55414 13.6917 9.06318 14.3318L10.2372 13.3981C9.93163 13.0139 9.74954 12.5288 9.74954 11.9991H8.24954ZM14.9269 9.65525C14.2409 8.79935 13.1842 8.24914 11.9995 8.24914V9.74914C12.7098 9.74914 13.3429 10.0774 13.7565 10.5934L14.9269 9.65525ZM11.9995 15.7491C14.0706 15.7491 15.7495 14.0702 15.7495 11.9991H14.2495C14.2495 13.2418 13.2422 14.2491 11.9995 14.2491V15.7491ZM11.9995 3.24915C9.85858 3.24915 7.92278 4.30814 6.35127 5.59486C4.77117 6.88861 3.47915 8.47779 2.61095 9.68716L3.82947 10.5619C4.65873 9.4068 5.86302 7.93328 7.30154 6.75546C8.74864 5.5706 10.3538 4.74915 11.9995 4.74915V3.24915ZM2.61073 14.3108C3.27259 15.2328 4.17703 16.3702 5.26418 17.4292L6.31084 16.3547C5.30557 15.3755 4.45783 14.3117 3.82925 13.4361L2.61073 14.3108ZM18.6192 6.45741C16.8868 4.79873 14.5903 3.24915 11.9995 3.24915V4.74915C14.0024 4.74915 15.9378 5.96677 17.5819 7.54088L18.6192 6.45741ZM2.61095 9.68716C2.05658 10.4594 1.58647 11.0705 1.58646 11.9991L3.08646 11.9991C3.08646 11.6406 3.20551 11.4311 3.82947 10.5619L2.61095 9.68716ZM3.82925 13.4361C3.20546 12.5671 3.08646 12.3577 3.08646 11.9991L1.58646 11.9991C1.58645 12.9277 2.05647 13.5387 2.61073 14.3108L3.82925 13.4361ZM11.9995 20.7491C14.1405 20.7491 16.0763 19.6901 17.6478 18.4034C19.2279 17.1097 20.5199 15.5205 21.3881 14.3111L20.1696 13.4364C19.3403 14.5915 18.1361 16.065 16.6975 17.2428C15.2504 18.4277 13.6453 19.2491 11.9995 19.2491V20.7491ZM21.3881 9.68708C21.1004 9.28636 20.7677 8.84608 20.3949 8.3899L19.2334 9.33912C19.5839 9.76799 19.8976 10.1831 20.1696 10.5618L21.3881 9.68708ZM7.06201 18.9496C8.48654 19.9728 10.1671 20.7491 11.9995 20.7491V19.2491C10.5947 19.2491 9.21772 18.6512 7.93707 17.7313L7.06201 18.9496ZM21.3881 14.3111C21.9425 13.5389 22.4126 12.9277 22.4126 11.9991L20.9126 11.9991C20.9126 12.3577 20.7936 12.5672 20.1696 13.4364L21.3881 14.3111ZM20.1696 10.5618C20.7936 11.4311 20.9126 11.6406 20.9126 11.9991L22.4126 11.9991C22.4126 11.0705 21.9425 10.4593 21.3881 9.68707L20.1696 10.5618ZM18.6428 7.64501L22.4681 4.5848L21.531 3.41349L17.7057 6.47371L18.6428 7.64501ZM17.626 7.57994L17.6997 7.64015L18.6488 6.47856L18.5751 6.41835L17.626 7.57994ZM2.46806 20.5848L6.29571 17.5227L5.35867 16.3514L1.53102 19.4135L2.46806 20.5848ZM6.29571 17.5227L18.6428 7.64501L17.7057 6.47371L5.35867 16.3514L6.29571 17.5227ZM5.22457 17.3875L5.26425 17.4326L6.39013 16.4414L6.35046 16.3964L5.22457 17.3875Z" fill="black"/>
</svg>
