<svg width="24" height="24" viewBox="0 0 24 24" fill="none" xmlns="http://www.w3.org/2000/svg">
<path d="M6.29252 4.96556C8.95933 3.028 10.2927 2.05923 11.8156 2.00336C11.9377 1.99888 12.06 1.99888 12.1822 2.00336C13.705 2.05923 15.0384 3.028 17.7052 4.96556C20.372 6.90311 21.7054 7.87189 22.2291 9.30291C22.2711 9.4177 22.3089 9.534 22.3424 9.65157C22.7599 11.1171 22.2505 12.6846 21.2319 15.8197L19.5109 21.1164C19.2374 21.958 18.4531 22.5279 17.5682 22.5279C16.4401 22.5279 15.5256 21.6133 15.5256 20.4852V17.7363C15.5256 16.6778 14.6675 15.8197 13.6089 15.8197H10.3888C9.33025 15.8197 8.47215 16.6778 8.47215 17.7363V20.4852C8.47215 21.6133 7.55762 22.5279 6.4295 22.5279C5.54458 22.5279 4.76029 21.958 4.48683 21.1164L2.76581 15.8197C1.74718 12.6846 1.23786 11.1171 1.65531 9.65157C1.68879 9.534 1.72658 9.4177 1.76859 9.30291C2.2923 7.87189 3.62571 6.90311 6.29252 4.96556Z" stroke="black"/>
</svg>
