<svg width="24" height="24" viewBox="0 0 24 24" fill="none" xmlns="http://www.w3.org/2000/svg">
<path d="M2.76642 15.8197L3.24195 15.6651L3.24195 15.6651L2.76642 15.8197ZM1.65592 9.65157L2.13679 9.78854L1.65592 9.65157ZM6.29313 4.96556L5.99924 4.56105L5.99924 4.56105L6.29313 4.96556ZM1.7692 9.30291L2.23875 9.47475L2.23875 9.47475L1.7692 9.30291ZM5.7901 21.678L5.51124 22.093L5.51124 22.093L5.7901 21.678ZM5.49352 21.4625L5.18499 21.8559L5.18499 21.8559L5.49352 21.4625ZM21.2325 15.8197L20.757 15.6651L21.2325 15.8197ZM18.5054 21.4625L18.8139 21.8559L18.8139 21.8559L18.5054 21.4625ZM18.2088 21.678L18.4877 22.093L18.4877 22.093L18.2088 21.678ZM17.7058 4.96556L17.9997 4.56105L17.9997 4.56105L17.7058 4.96556ZM22.2297 9.30291L21.7602 9.47475L21.7602 9.47475L22.2297 9.30291ZM22.343 9.65157L21.8621 9.78854L22.343 9.65157ZM12.1828 2.00336L12.1644 2.50302L12.1828 2.00336ZM11.8162 2.00336L11.8345 2.50302L11.8162 2.00336ZM9.99947 17.3197C9.72333 17.3197 9.49947 17.5435 9.49947 17.8197C9.49947 18.0958 9.72333 18.3197 9.99947 18.3197V17.3197ZM13.9995 18.3197C14.2756 18.3197 14.4995 18.0958 14.4995 17.8197C14.4995 17.5435 14.2756 17.3197 13.9995 17.3197V18.3197ZM3.24195 15.6651C2.72927 14.0873 2.35769 12.9415 2.16203 12.0071C1.96877 11.0842 1.9584 10.4148 2.13679 9.78854L1.17504 9.51459C0.93599 10.3539 0.971554 11.201 1.18325 12.212C1.39255 13.2115 1.78493 14.417 2.29089 15.9742L3.24195 15.6651ZM5.99924 4.56105C4.67462 5.52344 3.64863 6.26803 2.89181 6.95362C2.1263 7.6471 1.59956 8.31158 1.29966 9.13107L2.23875 9.47475C2.46255 8.86321 2.86437 8.3278 3.56319 7.69474C4.2707 7.05381 5.24482 6.34523 6.58702 5.37007L5.99924 4.56105ZM2.13679 9.78854C2.16693 9.68273 2.20094 9.57806 2.23875 9.47475L1.29966 9.13107C1.25345 9.25735 1.21188 9.38527 1.17504 9.51459L2.13679 9.78854ZM11.9995 22.0279C10.3404 22.0279 9.13585 22.0272 8.18672 21.9245C7.24926 21.8231 6.60948 21.6261 6.06897 21.263L5.51124 22.093C6.23555 22.5797 7.05226 22.8076 8.07919 22.9187C9.09445 23.0285 10.3622 23.0279 11.9995 23.0279V22.0279ZM2.29089 15.9742C2.79685 17.5313 3.18795 18.7372 3.60612 19.6688C4.0291 20.6112 4.49829 21.3175 5.18499 21.8559L5.80204 21.069C5.2896 20.6672 4.90456 20.1196 4.51843 19.2593C4.1275 18.3884 3.75462 17.243 3.24195 15.6651L2.29089 15.9742ZM6.06897 21.263C5.97765 21.2016 5.88861 21.1369 5.80204 21.069L5.18499 21.8559C5.29081 21.9389 5.39963 22.018 5.51124 22.093L6.06897 21.263ZM20.757 15.6651C20.2443 17.243 19.8714 18.3884 19.4805 19.2593C19.0944 20.1196 18.7093 20.6672 18.1969 21.069L18.8139 21.8559C19.5006 21.3175 19.9698 20.6112 20.3928 19.6688C20.811 18.7372 21.2021 17.5313 21.708 15.9742L20.757 15.6651ZM11.9995 23.0279C13.6368 23.0279 14.9045 23.0285 15.9197 22.9187C16.9467 22.8076 17.7634 22.5797 18.4877 22.093L17.93 21.263C17.3895 21.6261 16.7497 21.8231 15.8122 21.9245C14.8631 22.0272 13.6585 22.0279 11.9995 22.0279V23.0279ZM18.1969 21.069C18.1103 21.1369 18.0213 21.2016 17.93 21.263L18.4877 22.093C18.5993 22.018 18.7081 21.9389 18.8139 21.8559L18.1969 21.069ZM17.4119 5.37007C18.7541 6.34523 19.7282 7.05381 20.4357 7.69474C21.1346 8.3278 21.5364 8.86321 21.7602 9.47475L22.6993 9.13107C22.3994 8.31158 21.8726 7.6471 21.1071 6.95362C20.3503 6.26803 19.3243 5.52344 17.9997 4.56105L17.4119 5.37007ZM21.708 15.9742C22.214 14.417 22.6064 13.2115 22.8157 12.212C23.0274 11.201 23.0629 10.3539 22.8239 9.51459L21.8621 9.78854C22.0405 10.4148 22.0302 11.0842 21.8369 12.0071C21.6412 12.9415 21.2697 14.0873 20.757 15.6651L21.708 15.9742ZM21.7602 9.47475C21.798 9.57806 21.832 9.68273 21.8621 9.78854L22.8239 9.51459C22.7871 9.38528 22.7455 9.25735 22.6993 9.13107L21.7602 9.47475ZM17.9997 4.56105C16.6751 3.59866 15.6499 2.85297 14.764 2.34506C13.8679 1.83131 13.0732 1.53569 12.2011 1.5037L12.1644 2.50302C12.8152 2.5269 13.4486 2.7436 14.2666 3.21259C15.0948 3.68742 16.0697 4.3949 17.4119 5.37007L17.9997 4.56105ZM6.58702 5.37007C7.92922 4.3949 8.90414 3.68742 9.73234 3.21259C10.5504 2.7436 11.1837 2.5269 11.8345 2.50302L11.7978 1.5037C10.9258 1.53569 10.131 1.83131 9.23496 2.34506C8.34905 2.85297 7.32385 3.59866 5.99924 4.56105L6.58702 5.37007ZM12.2011 1.5037C12.0667 1.49877 11.9322 1.49877 11.7978 1.5037L11.8345 2.50302C11.9444 2.49899 12.0545 2.49899 12.1644 2.50302L12.2011 1.5037ZM9.99947 18.3197H13.9995V17.3197H9.99947V18.3197Z" fill="black"/>
</svg>
