<svg width="24" height="24" viewBox="0 0 24 24" fill="none" xmlns="http://www.w3.org/2000/svg">
<path d="M2.76589 15.8197L3.24141 15.6651L3.24141 15.6651L2.76589 15.8197ZM1.65538 9.65157L2.13626 9.78854L1.65538 9.65157ZM6.2926 4.96556L5.9987 4.56105L5.9987 4.56105L6.2926 4.96556ZM1.76867 9.30291L2.23821 9.47475L2.23821 9.47475L1.76867 9.30291ZM5.78957 21.678L5.5107 22.093L5.5107 22.093L5.78957 21.678ZM5.49298 21.4625L5.18446 21.8559L5.18446 21.8559L5.49298 21.4625ZM21.232 15.8197L20.7565 15.6651L21.232 15.8197ZM18.5049 21.4625L18.8134 21.8559L18.8134 21.8559L18.5049 21.4625ZM18.2083 21.678L18.4872 22.093L18.2083 21.678ZM17.7053 4.96556L17.9992 4.56105L17.9992 4.56105L17.7053 4.96556ZM22.2292 9.30291L21.7597 9.47475L21.7597 9.47475L22.2292 9.30291ZM22.3425 9.65157L21.8616 9.78854L22.3425 9.65157ZM12.1822 2.00336L12.1639 2.50302L12.1822 2.00336ZM11.8156 2.00336L11.834 2.50302L11.8156 2.00336ZM11.4989 19.8197C11.4989 20.0958 11.7228 20.3197 11.9989 20.3197C12.2751 20.3197 12.4989 20.0958 12.4989 19.8197H11.4989ZM12.4989 17.8197C12.4989 17.5435 12.2751 17.3197 11.9989 17.3197C11.7228 17.3197 11.4989 17.5435 11.4989 17.8197H12.4989ZM15.9989 22.4063L16.0591 22.9027L15.9989 22.4063ZM3.24141 15.6651C2.72874 14.0873 2.35715 12.9415 2.16149 12.0071C1.96824 11.0842 1.95786 10.4148 2.13626 9.78854L1.17451 9.51459C0.935456 10.3539 0.97102 11.201 1.18272 12.212C1.39201 13.2115 1.7844 14.417 2.29036 15.9742L3.24141 15.6651ZM5.9987 4.56105C4.67409 5.52344 3.6481 6.26803 2.89128 6.95362C2.12577 7.6471 1.59903 8.31158 1.29912 9.13107L2.23821 9.47475C2.46201 8.86321 2.86383 8.3278 3.56265 7.69474C4.27017 7.05381 5.24429 6.34523 6.58649 5.37007L5.9987 4.56105ZM2.13626 9.78854C2.16639 9.68273 2.2004 9.57806 2.23821 9.47475L1.29912 9.13107C1.25291 9.25735 1.21135 9.38527 1.17451 9.51459L2.13626 9.78854ZM2.29036 15.9742C2.79632 17.5313 3.18741 18.7372 3.60559 19.6688C4.02856 20.6112 4.49775 21.3175 5.18446 21.8559L5.80151 21.069C5.28906 20.6672 4.90402 20.1196 4.5179 19.2593C4.12697 18.3884 3.75409 17.243 3.24141 15.6651L2.29036 15.9742ZM6.06843 21.263C5.97712 21.2016 5.88808 21.1369 5.80151 21.069L5.18446 21.8559C5.29027 21.9389 5.39909 22.018 5.5107 22.093L6.06843 21.263ZM20.7565 15.6651C20.2438 17.243 19.8709 18.3884 19.48 19.2593C19.0938 20.1196 18.7088 20.6672 18.1964 21.069L18.8134 21.8559C19.5001 21.3175 19.9693 20.6112 20.3923 19.6688C20.8105 18.7372 21.2015 17.5313 21.7075 15.9742L20.7565 15.6651ZM18.1964 21.069C18.1098 21.1369 18.0207 21.2016 17.9294 21.263L18.4872 22.093C18.5988 22.018 18.7076 21.9389 18.8134 21.8559L18.1964 21.069ZM17.4114 5.37007C18.7536 6.34523 19.7277 7.05381 20.4352 7.69474C21.134 8.3278 21.5359 8.86321 21.7597 9.47475L22.6987 9.13107C22.3988 8.31158 21.8721 7.6471 21.1066 6.95362C20.3498 6.26803 19.3238 5.52344 17.9992 4.56105L17.4114 5.37007ZM21.7075 15.9742C22.2135 14.417 22.6059 13.2115 22.8151 12.212C23.0268 11.201 23.0624 10.3539 22.8234 9.51459L21.8616 9.78854C22.04 10.4148 22.0296 11.0842 21.8364 12.0071C21.6407 12.9415 21.2691 14.0873 20.7565 15.6651L21.7075 15.9742ZM21.7597 9.47475C21.7975 9.57806 21.8315 9.68273 21.8616 9.78854L22.8234 9.51459C22.7865 9.38528 22.745 9.25735 22.6987 9.13107L21.7597 9.47475ZM17.9992 4.56105C16.6745 3.59866 15.6494 2.85297 14.7634 2.34506C13.8674 1.83131 13.0726 1.53569 12.2006 1.5037L12.1639 2.50302C12.8147 2.5269 13.448 2.7436 14.2661 3.21259C15.0943 3.68742 16.0692 4.3949 17.4114 5.37007L17.9992 4.56105ZM6.58649 5.37007C7.92869 4.3949 8.90361 3.68742 9.7318 3.21259C10.5498 2.7436 11.1832 2.5269 11.834 2.50302L11.7973 1.5037C10.9252 1.53569 10.1305 1.83131 9.23442 2.34506C8.34851 2.85297 7.32332 3.59866 5.9987 4.56105L6.58649 5.37007ZM12.2006 1.5037C12.0662 1.49877 11.9317 1.49877 11.7973 1.5037L11.834 2.50302C11.9439 2.49899 12.054 2.49899 12.1639 2.50302L12.2006 1.5037ZM15.4989 17.8197V21.8197H16.4989V17.8197H15.4989ZM8.49893 21.8197V17.8197H7.49893V21.8197H8.49893ZM11.9989 14.3197C13.9319 14.3197 15.4989 15.8867 15.4989 17.8197H16.4989C16.4989 15.3344 14.4842 13.3197 11.9989 13.3197V14.3197ZM11.9989 13.3197C9.51365 13.3197 7.49893 15.3344 7.49893 17.8197H8.49893C8.49893 15.8867 10.0659 14.3197 11.9989 14.3197V13.3197ZM12.4989 19.8197V17.8197H11.4989V19.8197H12.4989ZM11.9989 23.0279C13.7102 23.0279 15.0188 23.0287 16.0591 22.9027L15.9388 21.91C14.9726 22.027 13.7351 22.0279 11.9989 22.0279V23.0279ZM16.0591 22.9027C17.0211 22.7862 17.7962 22.5573 18.4872 22.093L17.9294 21.263C17.4135 21.6096 16.8073 21.8048 15.9388 21.91L16.0591 22.9027ZM15.4989 21.8197V22.4063H16.4989V21.8197H15.4989ZM11.9989 22.0279C10.2628 22.0279 9.02526 22.027 8.05906 21.91L7.93881 22.9027C8.97904 23.0287 10.2876 23.0279 11.9989 23.0279V22.0279ZM8.05906 21.91C7.1906 21.8048 6.58433 21.6096 6.06843 21.263L5.5107 22.093C6.20165 22.5573 6.97673 22.7862 7.93881 22.9027L8.05906 21.91ZM7.49893 21.8197V22.4063H8.49893V21.8197H7.49893Z" fill="black"/>
</svg>
