<svg width="24" height="24" viewBox="0 0 24 24" fill="none" xmlns="http://www.w3.org/2000/svg">
<path d="M7.99869 22.4063C9.00191 22.5279 10.275 22.5279 11.9987 22.5279C13.7224 22.5279 14.9955 22.5279 15.9987 22.4063M7.99869 22.4063C7.08342 22.2955 6.39274 22.0834 5.78932 21.678C5.68786 21.6098 5.58893 21.5379 5.49274 21.4625C4.29359 20.5222 3.78427 18.9547 2.76564 15.8197C1.74701 12.6846 1.23769 11.1171 1.65514 9.65157C1.68863 9.534 1.72641 9.4177 1.76842 9.30291C2.29213 7.87189 3.62554 6.90311 6.29235 4.96556C8.95917 3.028 10.2926 2.05923 11.8154 2.00336C11.9375 1.99888 12.0598 1.99888 12.182 2.00336C13.7048 2.05923 15.0382 3.028 17.705 4.96556C20.3718 6.90311 21.7052 7.87189 22.229 9.30291C22.271 9.4177 22.3087 9.534 22.3422 9.65157C22.7597 11.1171 22.2504 12.6846 21.2317 15.8197C20.2131 18.9547 19.7038 20.5222 18.5046 21.4625C18.4084 21.5379 18.3095 21.6098 18.2081 21.678C17.6046 22.0834 16.914 22.2955 15.9987 22.4063M7.99869 22.4063V22.3197V18.8197C7.99869 16.6105 9.78955 14.8197 11.9987 14.8197C14.2078 14.8197 15.9987 16.6105 15.9987 18.8197V22.3197V22.4063" stroke="black"/>
</svg>
