<svg width="24" height="24" viewBox="0 0 24 24" fill="none" xmlns="http://www.w3.org/2000/svg">
<path d="M5.06052 20.0449L5.50136 19.4381L5.50136 19.4381L5.06052 20.0449ZM3.95437 18.9387L3.3476 19.3796L3.95437 18.9387ZM20.0445 18.9387L19.4378 18.4979L20.0445 18.9387ZM18.9384 20.0449L18.4975 19.4381L18.9384 20.0449ZM18.9384 3.95473L18.4975 4.56149L18.9384 3.95473ZM20.0445 5.06089L19.4378 5.50173L20.0445 5.06089ZM5.06052 3.95473L5.50136 4.56149L5.06052 3.95473ZM3.95437 5.06089L4.56113 5.50173L3.95437 5.06089ZM4.2191 18.5605L3.54828 18.2251L3.54828 18.2251L4.2191 18.5605ZM11.4994 14.9998L11.7235 14.2841L11.6855 14.2722L11.6465 14.2644L11.4994 14.9998ZM9.15753 14.6528L9.17346 15.4026L9.17346 15.4026L9.15753 14.6528ZM5.38299 16.4989L4.80088 16.026L4.80088 16.026L5.38299 16.4989ZM11.6721 15.7712L11.0192 15.4022L11.0192 15.4022L11.6721 15.7712ZM8.34653 20.1308C8.14271 20.4914 8.26981 20.9489 8.63041 21.1527C8.991 21.3565 9.44855 21.2295 9.65237 20.8689L8.34653 20.1308ZM19.5101 13.11L19.9443 12.4984L19.9443 12.4984L19.5101 13.11ZM12.7352 14.0334L12.1532 13.5604L12.1532 13.5604L12.7352 14.0334ZM4.10927 18.7802L4.75471 19.1621L4.76823 19.1393L4.7801 19.1156L4.10927 18.7802ZM8.24945 8.99981C8.24945 10.5186 9.48066 11.7498 10.9994 11.7498V10.2498C10.3091 10.2498 9.74945 9.69017 9.74945 8.99981H8.24945ZM10.9994 11.7498C12.5182 11.7498 13.7494 10.5186 13.7494 8.99981H12.2494C12.2494 9.69017 11.6898 10.2498 10.9994 10.2498V11.7498ZM13.7494 8.99981C13.7494 7.48103 12.5182 6.24982 10.9994 6.24982V7.74981C11.6898 7.74981 12.2494 8.30946 12.2494 8.99981H13.7494ZM10.9994 6.24982C9.48066 6.24982 8.24945 7.48103 8.24945 8.99981H9.74945C9.74945 8.30946 10.3091 7.74981 10.9994 7.74981V6.24982ZM11.9994 20.2498C10.1079 20.2498 8.74944 20.2488 7.69749 20.1348C6.65958 20.0224 6.00937 19.8072 5.50136 19.4381L4.61968 20.6517C5.42601 21.2375 6.37039 21.4998 7.53592 21.6261C8.68742 21.7508 10.1413 21.7498 11.9994 21.7498V20.2498ZM2.24945 11.9998C2.24945 13.858 2.24842 15.3118 2.37318 16.4633C2.49946 17.6289 2.76177 18.5733 3.3476 19.3796L4.56113 18.4979C4.19204 17.9899 3.9769 17.3397 3.86445 16.3018C3.75048 15.2498 3.74945 13.8914 3.74945 11.9998H2.24945ZM11.9994 21.7498C13.8576 21.7498 15.3115 21.7508 16.463 21.6261C17.6285 21.4998 18.5729 21.2375 19.3792 20.6517L18.4975 19.4381C17.9895 19.8072 17.3393 20.0224 16.3014 20.1348C15.2495 20.2488 13.891 20.2498 11.9994 20.2498V21.7498ZM19.4378 18.4979C19.1756 18.8587 18.8583 19.176 18.4975 19.4381L19.3792 20.6517C19.8674 20.297 20.2966 19.8677 20.6513 19.3796L19.4378 18.4979ZM11.9994 3.74982C13.891 3.74982 15.2495 3.75085 16.3014 3.86482C17.3393 3.97727 17.9895 4.19241 18.4975 4.56149L19.3792 3.34797C18.5729 2.76214 17.6285 2.49982 16.463 2.37354C15.3115 2.24879 13.8576 2.24982 11.9994 2.24982V3.74982ZM21.7494 11.9998C21.7494 10.1417 21.7505 8.68779 21.6257 7.53629C21.4994 6.37075 21.2371 5.42637 20.6513 4.62005L19.4378 5.50173C19.8069 6.00973 20.022 6.65995 20.1344 7.69786C20.2484 8.74981 20.2494 10.1082 20.2494 11.9998H21.7494ZM18.4975 4.56149C18.8583 4.82363 19.1756 5.14093 19.4378 5.50173L20.6513 4.62005C20.2966 4.13191 19.8674 3.70263 19.3792 3.34797L18.4975 4.56149ZM11.9994 2.24982C10.1413 2.24982 8.68742 2.24879 7.53592 2.37354C6.37039 2.49982 5.42601 2.76214 4.61968 3.34797L5.50136 4.56149C6.00937 4.19241 6.65958 3.97727 7.69749 3.86482C8.74944 3.75085 10.1079 3.74982 11.9994 3.74982V2.24982ZM3.74945 11.9998C3.74945 10.1082 3.75048 8.74981 3.86445 7.69786C3.9769 6.65995 4.19204 6.00973 4.56113 5.50173L3.3476 4.62005C2.76177 5.42637 2.49946 6.37075 2.37318 7.53629C2.24842 8.68779 2.24945 10.1417 2.24945 11.9998H3.74945ZM4.61968 3.34797C4.13154 3.70263 3.70226 4.13191 3.3476 4.62005L4.56113 5.50173C4.82327 5.14093 5.14056 4.82363 5.50136 4.56149L4.61968 3.34797ZM11.6465 14.2644C10.4873 14.0325 9.7926 13.8892 9.14161 13.903L9.17346 15.4026C9.61973 15.3932 10.1206 15.4889 11.3524 15.7352L11.6465 14.2644ZM4.88992 18.8959C5.4517 17.7724 5.68362 17.3182 5.96509 16.9718L4.80088 16.026C4.3903 16.5313 4.07698 17.1677 3.54828 18.2251L4.88992 18.8959ZM9.14161 13.903C7.45314 13.9388 5.8658 14.7152 4.80088 16.026L5.96509 16.9718C6.75221 16.003 7.92545 15.4291 9.17346 15.4026L9.14161 13.903ZM11.0192 15.4022L8.34653 20.1308L9.65237 20.8689L12.3251 16.1402L11.0192 15.4022ZM19.9443 12.4984C17.4732 10.7439 14.0645 11.2085 12.1532 13.5604L13.3172 14.5064C14.73 12.7681 17.2494 12.4247 19.0759 13.7215L19.9443 12.4984ZM12.3251 16.1402C12.455 15.9103 12.5679 15.7106 12.6687 15.5343L11.3666 14.7897C11.2635 14.9699 11.1487 15.1731 11.0192 15.4022L12.3251 16.1402ZM12.6687 15.5343C12.9882 14.9756 13.1609 14.6988 13.3172 14.5064L12.1532 13.5604C11.9081 13.862 11.6789 14.2435 11.3666 14.7897L12.6687 15.5343ZM11.2754 15.7156L11.7936 15.8778L12.2417 14.4462L11.7235 14.2841L11.2754 15.7156ZM21.5148 13.9545C20.7841 13.2239 20.3501 12.7866 19.9443 12.4984L19.0759 13.7215C19.352 13.9175 19.6765 14.2375 20.4541 15.0151L21.5148 13.9545ZM20.2494 11.9998C20.2494 12.9411 20.2494 13.7541 20.2346 14.4693L21.7343 14.5003C21.7495 13.7665 21.7494 12.9366 21.7494 11.9998H20.2494ZM20.2346 14.4693C20.1894 16.6524 19.9994 17.7248 19.4378 18.4979L20.6513 19.3796C21.5212 18.1823 21.6897 16.6544 21.7343 14.5003L20.2346 14.4693ZM3.54828 18.2251L3.43845 18.4448L4.7801 19.1156L4.88992 18.8959L3.54828 18.2251ZM5.50136 19.4381C5.15365 19.1855 4.84635 18.8817 4.58989 18.537L3.38651 19.4325C3.7335 19.8988 4.14926 20.3099 4.61968 20.6517L5.50136 19.4381ZM4.58989 18.537C4.58023 18.524 4.57064 18.511 4.56113 18.4979L3.3476 19.3796C3.36047 19.3973 3.37344 19.4149 3.38651 19.4325L4.58989 18.537ZM3.46384 18.3982L3.34276 18.6028L4.63363 19.3667L4.75471 19.1621L3.46384 18.3982Z" fill="black"/>
</svg>
