<svg width="24" height="24" viewBox="0 0 24 24" fill="none" xmlns="http://www.w3.org/2000/svg">
<path d="M5.06052 20.045L5.50136 19.4382L5.06052 20.045ZM3.95437 18.9388L4.56113 18.498L3.95437 18.9388ZM20.0445 18.9388L19.4378 18.498L20.0445 18.9388ZM18.9384 20.045L18.4975 19.4382L18.9384 20.045ZM18.9384 3.95479L18.4975 4.56155L18.9384 3.95479ZM20.0445 5.06095L19.4378 5.50179L20.0445 5.06095ZM5.06052 3.95479L5.50136 4.56155L5.06052 3.95479ZM3.95437 5.06095L4.56113 5.50179L3.95437 5.06095ZM12.7494 10.9999C12.7494 10.5857 12.4137 10.2499 11.9994 10.2499C11.5852 10.2499 11.2494 10.5857 11.2494 10.9999H12.7494ZM11.2494 16.9999C11.2494 17.4141 11.5852 17.7499 11.9994 17.7499C12.4137 17.7499 12.7494 17.4141 12.7494 16.9999H11.2494ZM11.9994 20.2499C10.1079 20.2499 8.74944 20.2488 7.69749 20.1349C6.65958 20.0224 6.00937 19.8073 5.50136 19.4382L4.61968 20.6517C5.42601 21.2375 6.37039 21.4999 7.53592 21.6261C8.68742 21.7509 10.1413 21.7499 11.9994 21.7499V20.2499ZM2.24945 11.9999C2.24945 13.858 2.24842 15.3119 2.37318 16.4634C2.49946 17.6289 2.76177 18.5733 3.3476 19.3796L4.56113 18.498C4.19204 17.99 3.9769 17.3397 3.86445 16.3018C3.75048 15.2499 3.74945 13.8914 3.74945 11.9999H2.24945ZM5.50136 19.4382C5.14056 19.1761 4.82327 18.8588 4.56113 18.498L3.3476 19.3796C3.70226 19.8678 4.13154 20.2971 4.61968 20.6517L5.50136 19.4382ZM20.2494 11.9999C20.2494 13.8914 20.2484 15.2499 20.1344 16.3018C20.022 17.3397 19.8069 17.99 19.4378 18.498L20.6513 19.3796C21.2371 18.5733 21.4994 17.6289 21.6257 16.4634C21.7505 15.3119 21.7494 13.858 21.7494 11.9999H20.2494ZM11.9994 21.7499C13.8576 21.7499 15.3115 21.7509 16.463 21.6261C17.6285 21.4999 18.5729 21.2375 19.3792 20.6517L18.4975 19.4382C17.9895 19.8073 17.3393 20.0224 16.3014 20.1349C15.2495 20.2488 13.891 20.2499 11.9994 20.2499V21.7499ZM19.4378 18.498C19.1756 18.8588 18.8583 19.1761 18.4975 19.4382L19.3792 20.6517C19.8674 20.2971 20.2966 19.8678 20.6513 19.3796L19.4378 18.498ZM11.9994 3.74988C13.891 3.74988 15.2495 3.75091 16.3014 3.86488C17.3393 3.97733 17.9895 4.19247 18.4975 4.56155L19.3792 3.34803C18.5729 2.7622 17.6285 2.49988 16.463 2.37361C15.3115 2.24885 13.8576 2.24988 11.9994 2.24988V3.74988ZM21.7494 11.9999C21.7494 10.1417 21.7505 8.68785 21.6257 7.53635C21.4994 6.37082 21.2371 5.42644 20.6513 4.62011L19.4378 5.50179C19.8069 6.00979 20.022 6.66001 20.1344 7.69792C20.2484 8.74987 20.2494 10.1083 20.2494 11.9999H21.7494ZM18.4975 4.56155C18.8583 4.82369 19.1756 5.14099 19.4378 5.50179L20.6513 4.62011C20.2966 4.13197 19.8674 3.70269 19.3792 3.34803L18.4975 4.56155ZM11.9994 2.24988C10.1413 2.24988 8.68742 2.24885 7.53592 2.37361C6.37039 2.49988 5.42601 2.7622 4.61968 3.34803L5.50136 4.56155C6.00937 4.19247 6.65958 3.97733 7.69749 3.86488C8.74944 3.75091 10.1079 3.74988 11.9994 3.74988V2.24988ZM3.74945 11.9999C3.74945 10.1083 3.75048 8.74987 3.86445 7.69792C3.9769 6.66001 4.19204 6.00979 4.56113 5.50179L3.3476 4.62011C2.76177 5.42644 2.49946 6.37082 2.37318 7.53635C2.24842 8.68785 2.24945 10.1417 2.24945 11.9999H3.74945ZM4.61968 3.34803C4.13154 3.70269 3.70226 4.13197 3.3476 4.62011L4.56113 5.50179C4.82327 5.14099 5.14056 4.82369 5.50136 4.56155L4.61968 3.34803ZM11.2494 10.9999V16.9999H12.7494V10.9999H11.2494Z" fill="black"/>
<path d="M13.0011 8.00037C13.0011 8.55292 12.5532 9.00085 12.0006 9.00085C11.4481 9.00085 11.0002 8.55292 11.0002 8.00037C11.0002 7.44781 11.4481 6.99988 12.0006 6.99988C12.5532 6.99988 13.0011 7.44781 13.0011 8.00037Z" fill="black"/>
</svg>
