<svg width="24" height="24" viewBox="0 0 24 24" fill="none" xmlns="http://www.w3.org/2000/svg">
<path d="M5.06077 20.0447L5.50161 19.438L5.06077 20.0447ZM3.95461 18.9386L4.56137 18.4977L3.95461 18.9386ZM20.0448 18.9386L19.438 18.4977L20.0448 18.9386ZM18.9386 20.0447L18.4978 19.438L18.9386 20.0447ZM18.9386 3.95455L18.4978 4.56131L18.9386 3.95455ZM20.0448 5.06071L19.438 5.50155L20.0448 5.06071ZM5.06077 3.95455L5.50161 4.56131L5.06077 3.95455ZM3.95461 5.06071L4.56137 5.50155L3.95461 5.06071ZM11.9997 20.2496C10.1081 20.2496 8.74968 20.2486 7.69774 20.1346C6.65983 20.0222 6.00961 19.807 5.50161 19.438L4.61993 20.6515C5.42625 21.2373 6.37063 21.4996 7.53617 21.6259C8.68767 21.7507 10.1415 21.7496 11.9997 21.7496V20.2496ZM2.2497 11.9996C2.2497 13.8578 2.24867 15.3117 2.37342 16.4632C2.4997 17.6287 2.76202 18.5731 3.34785 19.3794L4.56137 18.4977C4.19229 17.9897 3.97715 17.3395 3.8647 16.3016C3.75072 15.2496 3.74969 13.8912 3.74969 11.9996H2.2497ZM5.50161 19.438C5.1408 19.1758 4.82351 18.8585 4.56137 18.4977L3.34785 19.3794C3.7025 19.8675 4.13178 20.2968 4.61993 20.6515L5.50161 19.438ZM20.2497 11.9996C20.2497 13.8912 20.2487 15.2496 20.1347 16.3016C20.0222 17.3395 19.8071 17.9897 19.438 18.4977L20.6515 19.3794C21.2374 18.5731 21.4997 17.6287 21.626 16.4632C21.7507 15.3117 21.7497 13.8578 21.7497 11.9996H20.2497ZM11.9997 21.7496C13.8579 21.7496 15.3117 21.7507 16.4632 21.6259C17.6287 21.4996 18.5731 21.2373 19.3795 20.6515L18.4978 19.438C17.9898 19.807 17.3396 20.0222 16.3016 20.1346C15.2497 20.2486 13.8913 20.2496 11.9997 20.2496V21.7496ZM19.438 18.4977C19.1759 18.8585 18.8586 19.1758 18.4978 19.438L19.3795 20.6515C19.8676 20.2968 20.2969 19.8675 20.6515 19.3794L19.438 18.4977ZM11.9997 3.74963C13.8913 3.74963 15.2497 3.75066 16.3016 3.86463C17.3396 3.97708 17.9898 4.19222 18.4978 4.56131L19.3795 3.34779C18.5731 2.76196 17.6287 2.49964 16.4632 2.37336C15.3117 2.2486 13.8579 2.24963 11.9997 2.24963V3.74963ZM21.7497 11.9996C21.7497 10.1415 21.7507 8.68761 21.626 7.53611C21.4997 6.37057 21.2374 5.42619 20.6515 4.61987L19.438 5.50155C19.8071 6.00955 20.0222 6.65977 20.1347 7.69768C20.2487 8.74962 20.2497 10.1081 20.2497 11.9996H21.7497ZM18.4978 4.56131C18.8586 4.82345 19.1759 5.14074 19.438 5.50155L20.6515 4.61987C20.2969 4.13172 19.8676 3.70244 19.3795 3.34779L18.4978 4.56131ZM11.9997 2.24963C10.1415 2.24963 8.68767 2.2486 7.53617 2.37336C6.37063 2.49964 5.42625 2.76196 4.61993 3.34779L5.50161 4.56131C6.00961 4.19222 6.65983 3.97708 7.69774 3.86463C8.74969 3.75066 10.1081 3.74963 11.9997 3.74963V2.24963ZM3.74969 11.9996C3.74969 10.1081 3.75072 8.74962 3.8647 7.69768C3.97715 6.65977 4.19229 6.00955 4.56137 5.50155L3.34785 4.61987C2.76202 5.42619 2.4997 6.37057 2.37342 7.53611C2.24867 8.68761 2.2497 10.1415 2.2497 11.9996H3.74969ZM4.61993 3.34779C4.13178 3.70244 3.7025 4.13172 3.34785 4.61987L4.56137 5.50155C4.82351 5.14074 5.1408 4.82345 5.50161 4.56131L4.61993 3.34779ZM8.24969 11.9996C8.24969 14.0707 9.92862 15.7496 11.9997 15.7496V14.2496C10.7571 14.2496 9.74969 13.2423 9.74969 11.9996H8.24969ZM11.9997 15.7496C14.0708 15.7496 15.7497 14.0707 15.7497 11.9996H14.2497C14.2497 13.2423 13.2423 14.2496 11.9997 14.2496V15.7496ZM15.7497 11.9996C15.7497 9.92856 14.0708 8.24963 11.9997 8.24963V9.74963C13.2423 9.74963 14.2497 10.757 14.2497 11.9996H15.7497ZM11.9997 8.24963C9.92862 8.24963 8.24969 9.92856 8.24969 11.9996H9.74969C9.74969 10.757 10.7571 9.74963 11.9997 9.74963V8.24963Z" fill="black"/>
<path d="M15.9996 7.00012C15.9996 7.55268 16.4475 8.00061 17.0001 8.00061C17.5526 8.00061 18.0005 7.55268 18.0005 7.00012C18.0005 6.44757 17.5526 5.99963 17.0001 5.99963C16.4475 5.99963 15.9996 6.44757 15.9996 7.00012Z" fill="black"/>
</svg>
