<svg width="24" height="24" viewBox="0 0 24 24" fill="none" xmlns="http://www.w3.org/2000/svg">
<g clip-path="url(#clip0_0_1)">
<path d="M3.73037 19.4547L4.07086 18.7864L3.73037 19.4547ZM1.54529 17.2696L2.21354 16.9291L1.54529 17.2696ZM22.4553 17.2696L21.7871 16.9291L22.4553 17.2696ZM20.2703 19.4547L19.9298 18.7864L20.2703 19.4547ZM20.2703 4.5446L19.9298 5.21286L20.2703 4.5446ZM22.4553 6.72968L21.7871 7.07017L22.4553 6.72968ZM3.73037 4.5446L4.07086 5.21286L3.73037 4.5446ZM1.54529 6.72968L2.21354 7.07017L1.54529 6.72968ZM8.00032 14.2496C7.5861 14.2496 7.25032 14.5854 7.25032 14.9996C7.25032 15.4138 7.5861 15.7496 8.00032 15.7496V14.2496ZM16.0003 15.7496C16.4145 15.7496 16.7503 15.4138 16.7503 14.9996C16.7503 14.5854 16.4145 14.2496 16.0003 14.2496V15.7496ZM16.0003 8.24963C15.5861 8.24963 15.2503 8.58542 15.2503 8.99963C15.2503 9.41385 15.5861 9.74963 16.0003 9.74963L16.0003 8.24963ZM20.0003 9.74963C20.4145 9.74963 20.7503 9.41384 20.7503 8.99963C20.7503 8.58542 20.4145 8.24963 20.0003 8.24963L20.0003 9.74963ZM9.00032 4.74963H15.0003V3.24963H9.00032V4.74963ZM15.0003 19.2496H9.00032V20.7496H15.0003V19.2496ZM9.00032 19.2496C7.58781 19.2496 6.57354 19.249 5.7774 19.184C4.99002 19.1197 4.48229 18.996 4.07086 18.7864L3.38987 20.1229C4.048 20.4582 4.77511 20.6071 5.65525 20.679C6.52664 20.7502 7.61256 20.7496 9.00032 20.7496V19.2496ZM0.250321 11.9996C0.250321 13.3874 0.249737 14.4733 0.320932 15.3447C0.392843 16.2248 0.541699 16.9519 0.877033 17.6101L2.21354 16.9291C2.00391 16.5177 1.88028 16.0099 1.81595 15.2225C1.7509 14.4264 1.75032 13.4121 1.75032 11.9996H0.250321ZM4.07086 18.7864C3.27117 18.3789 2.621 17.7288 2.21354 16.9291L0.877033 17.6101C1.4283 18.692 2.30794 19.5716 3.38987 20.1229L4.07086 18.7864ZM22.2503 11.9996C22.2503 13.4121 22.2497 14.4264 22.1847 15.2225C22.1204 16.0099 21.9967 16.5177 21.7871 16.9291L23.1236 17.6101C23.4589 16.9519 23.6078 16.2248 23.6797 15.3447C23.7509 14.4733 23.7503 13.3874 23.7503 11.9996H22.2503ZM15.0003 20.7496C16.3881 20.7496 17.474 20.7502 18.3454 20.679C19.2255 20.6071 19.9526 20.4582 20.6108 20.1229L19.9298 18.7864C19.5183 18.996 19.0106 19.1197 18.2232 19.184C17.4271 19.249 16.4128 19.2496 15.0003 19.2496V20.7496ZM21.7871 16.9291C21.3796 17.7288 20.7295 18.3789 19.9298 18.7864L20.6108 20.1229C21.6927 19.5716 22.5723 18.692 23.1236 17.6101L21.7871 16.9291ZM15.0003 4.74963C16.4128 4.74963 17.4271 4.75022 18.2232 4.81526C19.0106 4.8796 19.5183 5.00322 19.9298 5.21286L20.6108 3.87635C19.9526 3.54101 19.2255 3.39216 18.3454 3.32025C17.474 3.24905 16.3881 3.24963 15.0003 3.24963V4.74963ZM23.7503 11.9996C23.7503 10.6119 23.7509 9.52595 23.6797 8.65457C23.6078 7.77443 23.4589 7.04732 23.1236 6.38919L21.7871 7.07017C21.9967 7.4816 22.1204 7.98934 22.1847 8.77672C22.2497 9.57285 22.2503 10.5871 22.2503 11.9996H23.7503ZM19.9298 5.21286C20.7295 5.62032 21.3796 6.27048 21.7871 7.07017L23.1236 6.38919C22.5723 5.30726 21.6927 4.42762 20.6108 3.87635L19.9298 5.21286ZM9.00032 3.24963C7.61256 3.24963 6.52664 3.24905 5.65525 3.32025C4.77511 3.39216 4.048 3.54101 3.38987 3.87635L4.07086 5.21286C4.48229 5.00322 4.99002 4.8796 5.7774 4.81526C6.57354 4.75022 7.58781 4.74963 9.00032 4.74963V3.24963ZM1.75032 11.9996C1.75032 10.5871 1.7509 9.57285 1.81595 8.77672C1.88028 7.98934 2.00391 7.4816 2.21354 7.07017L0.877033 6.38919C0.541699 7.04732 0.392843 7.77443 0.320932 8.65457C0.249737 9.52595 0.250321 10.6119 0.250321 11.9996H1.75032ZM3.38987 3.87635C2.30794 4.42762 1.4283 5.30726 0.877033 6.38919L2.21354 7.07017C2.621 6.27048 3.27117 5.62032 4.07086 5.21286L3.38987 3.87635ZM8.00032 15.7496H16.0003V14.2496H8.00032V15.7496ZM16.0003 9.74963L20.0003 9.74963L20.0003 8.24963L16.0003 8.24963L16.0003 9.74963Z" fill="black"/>
<path d="M6.00066 14.9999C6.00066 15.5522 5.55294 15.9999 5.00066 15.9999C4.44837 15.9999 4.00066 15.5522 4.00066 14.9999C4.00066 14.4476 4.44837 13.9999 5.00066 13.9999C5.55294 13.9999 6.00066 14.4476 6.00066 14.9999Z" fill="black"/>
<path d="M20.0006 14.9999C20.0006 15.5522 19.5529 15.9999 19.0006 15.9999C18.4484 15.9999 18.0007 15.5522 18.0007 14.9999C18.0007 14.4476 18.4484 13.9999 19.0006 13.9999C19.5529 13.9999 20.0006 14.4476 20.0006 14.9999Z" fill="black"/>
<path d="M10.0007 8.99988C10.0007 9.55216 9.55294 9.99988 9.00065 9.99988C8.44837 9.99988 8.00065 9.55216 8.00065 8.99988C8.00065 8.44759 8.44837 7.99988 9.00065 7.99988C9.55294 7.99988 10.0007 8.44759 10.0007 8.99988Z" fill="black"/>
<path d="M14.0007 8.99988C14.0007 9.55216 13.5529 9.99988 13.0007 9.99988C12.4484 9.99988 12.0007 9.55216 12.0007 8.99988C12.0007 8.44759 12.4484 7.99988 13.0007 7.99988C13.5529 7.99988 14.0007 8.44759 14.0007 8.99988Z" fill="black"/>
<path d="M6.00066 8.99988C6.00066 9.55216 5.55294 9.99988 5.00066 9.99988C4.44837 9.99988 4.00066 9.55216 4.00066 8.99988C4.00066 8.44759 4.44837 7.99988 5.00066 7.99988C5.55294 7.99988 6.00066 8.44759 6.00066 8.99988Z" fill="black"/>
</g>
<defs>
<clipPath id="clip0_0_1">
<rect width="24" height="24" fill="black" transform="translate(0 -0.000488281)"/>
</clipPath>
</defs>
</svg>
