<svg width="24" height="24" viewBox="0 0 24 24" fill="none" xmlns="http://www.w3.org/2000/svg">
<path d="M15.9995 12.7489C16.4137 12.7489 16.7495 12.4131 16.7495 11.9989C16.7495 11.5847 16.4137 11.2489 15.9995 11.2489V12.7489ZM10.6715 16.5316C10.9657 16.8232 11.4406 16.8211 11.7322 16.5269C12.0237 16.2327 12.0216 15.7578 11.7274 15.4662L10.6715 16.5316ZM9.78909 14.601L10.317 14.0684L10.317 14.0684L9.78909 14.601ZM9.78909 9.39674L9.26113 8.86405L9.26113 8.86405L9.78909 9.39674ZM11.7274 8.53159C12.0216 8.24001 12.0237 7.76514 11.7322 7.47094C11.4406 7.17674 10.9657 7.17462 10.6715 7.46621L11.7274 8.53159ZM8.01537 12.2496L7.27139 12.3444L7.27139 12.3444L8.01537 12.2496ZM8.01537 11.7482L7.27139 11.6534L7.27139 11.6534L8.01537 11.7482ZM21.2495 11.9989C21.2495 17.1075 17.1081 21.2489 11.9995 21.2489V22.7489C17.9365 22.7489 22.7495 17.936 22.7495 11.9989H21.2495ZM11.9995 21.2489C6.89083 21.2489 2.74947 17.1075 2.74947 11.9989H1.24947C1.24947 17.936 6.0624 22.7489 11.9995 22.7489V21.2489ZM2.74947 11.9989C2.74947 6.89026 6.89083 2.7489 11.9995 2.7489V1.2489C6.0624 1.2489 1.24947 6.06184 1.24947 11.9989H2.74947ZM11.9995 2.7489C17.1081 2.7489 21.2495 6.89026 21.2495 11.9989H22.7495C22.7495 6.06184 17.9365 1.2489 11.9995 1.2489V2.7489ZM15.9995 11.2489H8.79946V12.7489H15.9995V11.2489ZM11.7274 15.4662L10.317 14.0684L9.26113 15.1337L10.6715 16.5316L11.7274 15.4662ZM10.317 9.92944L11.7274 8.53159L10.6715 7.46621L9.26113 8.86405L10.317 9.92944ZM10.317 14.0684C9.74215 13.4986 9.35679 13.115 9.09769 12.7924C8.8481 12.4816 8.77798 12.3009 8.75936 12.1547L7.27139 12.3444C7.33936 12.8776 7.59373 13.3152 7.92815 13.7317C8.25308 14.1362 8.71128 14.5888 9.26113 15.1337L10.317 14.0684ZM9.26113 8.86405C8.71128 9.40902 8.25308 9.86155 7.92816 10.2661C7.59373 10.6826 7.33936 11.1202 7.27139 11.6534L8.75936 11.8431C8.77798 11.6969 8.8481 11.5162 9.09769 11.2054C9.35679 10.8828 9.74215 10.4992 10.317 9.92944L9.26113 8.86405ZM8.75936 12.1547C8.75276 12.103 8.74946 12.0509 8.74946 11.9989L7.24946 11.9989C7.24946 12.1143 7.25677 12.2297 7.27139 12.3444L8.75936 12.1547ZM8.74946 11.9989C8.74946 11.9469 8.75276 11.8948 8.75936 11.8431L7.27139 11.6534C7.25677 11.7681 7.24946 11.8835 7.24946 11.9989L8.74946 11.9989ZM8.79946 11.2489H7.99946V12.7489H8.79946V11.2489Z" fill="black"/>
</svg>
