<svg width="24" height="24" viewBox="0 0 24 24" fill="none" xmlns="http://www.w3.org/2000/svg">
<path d="M5.06116 20.0442L5.502 19.4375L5.06116 20.0442ZM3.95501 18.9381L4.56177 18.4972L3.95501 18.9381ZM20.0452 18.9381L19.4384 18.4972L20.0452 18.9381ZM18.939 20.0442L18.4982 19.4375L18.939 20.0442ZM18.939 3.95406L18.4982 4.56082L18.939 3.95406ZM20.0452 5.06022L19.4384 5.50106L20.0452 5.06022ZM5.06116 3.95406L5.502 4.56082L5.06116 3.95406ZM3.95501 5.06022L4.56177 5.50106L3.95501 5.06022ZM13.4721 17.5318C13.7663 17.8234 14.2412 17.8213 14.5328 17.5271C14.8244 17.2329 14.8222 16.758 14.528 16.4664L13.4721 17.5318ZM12.2371 15.2518L11.7092 15.7845L11.7092 15.7845L12.2371 15.2518ZM12.2371 8.74646L12.7651 9.27915L12.7651 9.27915L12.2371 8.74646ZM14.528 7.53184C14.8222 7.24026 14.8244 6.76539 14.5328 6.47119C14.2412 6.177 13.7663 6.17488 13.4721 6.46646L14.528 7.53184ZM10.02 12.3125L9.276 12.4073L9.276 12.4073L10.02 12.3125ZM10.02 11.6858L9.276 11.591L9.276 11.591L10.02 11.6858ZM12.0001 20.2491C10.1085 20.2491 8.75008 20.2481 7.69813 20.1341C6.66022 20.0217 6.01001 19.8065 5.502 19.4375L4.62033 20.651C5.42665 21.2368 6.37103 21.4991 7.53657 21.6254C8.68807 21.7502 10.1419 21.7491 12.0001 21.7491V20.2491ZM2.25009 11.9991C2.25009 13.8573 2.24906 15.3112 2.37382 16.4627C2.5001 17.6282 2.76242 18.5726 3.34824 19.3789L4.56177 18.4972C4.19268 17.9892 3.97754 17.339 3.86509 16.3011C3.75112 15.2491 3.75009 13.8907 3.75009 11.9991H2.25009ZM5.502 19.4375C5.1412 19.1753 4.82391 18.858 4.56177 18.4972L3.34824 19.3789C3.7029 19.867 4.13218 20.2963 4.62033 20.651L5.502 19.4375ZM20.2501 11.9991C20.2501 13.8907 20.2491 15.2491 20.1351 16.3011C20.0226 17.339 19.8075 17.9892 19.4384 18.4972L20.6519 19.3789C21.2378 18.5726 21.5001 17.6282 21.6264 16.4627C21.7511 15.3112 21.7501 13.8573 21.7501 11.9991H20.2501ZM12.0001 21.7491C13.8582 21.7491 15.3121 21.7502 16.4636 21.6254C17.6291 21.4991 18.5735 21.2368 19.3798 20.651L18.4982 19.4375C17.9902 19.8065 17.34 20.0217 16.302 20.1341C15.2501 20.2481 13.8917 20.2491 12.0001 20.2491V21.7491ZM19.4384 18.4972C19.1763 18.858 18.859 19.1753 18.4982 19.4375L19.3798 20.651C19.868 20.2963 20.2973 19.867 20.6519 19.3789L19.4384 18.4972ZM12.0001 3.74915C13.8917 3.74915 15.2501 3.75017 16.302 3.86415C17.34 3.9766 17.9902 4.19174 18.4982 4.56082L19.3798 3.3473C18.5735 2.76147 17.6291 2.49915 16.4636 2.37287C15.3121 2.24812 13.8582 2.24915 12.0001 2.24915V3.74915ZM21.7501 11.9991C21.7501 10.141 21.7511 8.68712 21.6264 7.53562C21.5001 6.37008 21.2378 5.4257 20.6519 4.61938L19.4384 5.50106C19.8075 6.00906 20.0226 6.65928 20.1351 7.69719C20.2491 8.74914 20.2501 10.1076 20.2501 11.9991H21.7501ZM18.4982 4.56082C18.859 4.82296 19.1763 5.14026 19.4384 5.50106L20.6519 4.61938C20.2973 4.13123 19.868 3.70195 19.3798 3.3473L18.4982 4.56082ZM12.0001 2.24915C10.1419 2.24915 8.68807 2.24812 7.53657 2.37287C6.37103 2.49915 5.42665 2.76147 4.62033 3.3473L5.502 4.56082C6.01001 4.19174 6.66022 3.9766 7.69813 3.86415C8.75008 3.75017 10.1085 3.74915 12.0001 3.74915V2.24915ZM3.75009 11.9991C3.75009 10.1076 3.75112 8.74914 3.86509 7.69719C3.97754 6.65928 4.19268 6.00906 4.56177 5.50106L3.34824 4.61938C2.76242 5.4257 2.5001 6.37008 2.37382 7.53562C2.24906 8.68712 2.25009 10.141 2.25009 11.9991H3.75009ZM4.62033 3.3473C4.13218 3.70196 3.7029 4.13124 3.34824 4.61938L4.56177 5.50106C4.82391 5.14025 5.1412 4.82296 5.502 4.56082L4.62033 3.3473ZM14.528 16.4664L12.7651 14.7191L11.7092 15.7845L13.4721 17.5318L14.528 16.4664ZM12.7651 9.27915L14.528 7.53184L13.4721 6.46646L11.7092 8.21377L12.7651 9.27915ZM12.7651 14.7191C12.0496 14.01 11.5588 13.522 11.2267 13.1084C10.9041 12.7067 10.7934 12.4487 10.764 12.2176L9.276 12.4073C9.35479 13.0254 9.64972 13.5404 10.0571 14.0477C10.4551 14.5432 11.0187 15.1002 11.7092 15.7845L12.7651 14.7191ZM11.7092 8.21377C11.0187 8.89807 10.4551 9.45511 10.0571 9.95061C9.64972 10.4579 9.35479 10.9729 9.276 11.591L10.764 11.7806C10.7934 11.5496 10.9041 11.2915 11.2267 10.8899C11.5588 10.4763 12.0496 9.98828 12.7651 9.27915L11.7092 8.21377ZM10.764 12.2176C10.7455 12.0726 10.7455 11.9257 10.764 11.7806L9.276 11.591C9.24146 11.862 9.24146 12.1363 9.276 12.4073L10.764 12.2176Z" fill="black"/>
</svg>
