<svg width="24" height="24" viewBox="0 0 24 24" fill="none" xmlns="http://www.w3.org/2000/svg">
<path d="M5.06135 20.0441L5.50219 19.4373L5.06135 20.0441ZM3.95519 18.9379L4.56195 18.4971L3.95519 18.9379ZM20.0454 18.9379L19.4386 18.4971L20.0454 18.9379ZM18.9392 20.0441L18.4984 19.4373L18.9392 20.0441ZM18.9392 3.95394L18.4984 4.5607L18.9392 3.95394ZM20.0454 5.0601L19.4386 5.50094L20.0454 5.0601ZM5.06135 3.95394L5.50219 4.5607L5.06135 3.95394ZM3.95519 5.0601L4.56195 5.50094L3.95519 5.0601ZM16.0003 12.749C16.4145 12.749 16.7503 12.4132 16.7503 11.999C16.7503 11.5848 16.4145 11.249 16.0003 11.249V12.749ZM10.6723 16.5317C10.9665 16.8233 11.4414 16.8212 11.733 16.527C12.0245 16.2328 12.0224 15.7579 11.7282 15.4663L10.6723 16.5317ZM9.7899 14.6012L9.26194 15.1339L9.7899 14.6012ZM9.7899 9.39687L9.26194 8.86418L9.26194 8.86418L9.7899 9.39687ZM11.7282 8.53171C12.0224 8.24013 12.0245 7.76526 11.733 7.47106C11.4414 7.17687 10.9665 7.17475 10.6723 7.46633L11.7282 8.53171ZM8.01618 12.2497L7.2722 12.3445L7.2722 12.3445L8.01618 12.2497ZM8.01618 11.7484L7.2722 11.6535L7.2722 11.6535L8.01618 11.7484ZM12.0003 20.249C10.1087 20.249 8.75026 20.248 7.69832 20.134C6.66041 20.0216 6.01019 19.8064 5.50219 19.4373L4.62051 20.6509C5.42683 21.2367 6.37121 21.499 7.53675 21.6253C8.68825 21.75 10.1421 21.749 12.0003 21.749V20.249ZM2.25027 11.999C2.25027 13.8572 2.24925 15.311 2.374 16.4625C2.50028 17.6281 2.7626 18.5725 3.34843 19.3788L4.56195 18.4971C4.19287 17.9891 3.97773 17.3389 3.86528 16.301C3.7513 15.249 3.75027 13.8906 3.75027 11.999H2.25027ZM5.50219 19.4373C5.14138 19.1752 4.82409 18.8579 4.56195 18.4971L3.34843 19.3788C3.70308 19.8669 4.13236 20.2962 4.62051 20.6509L5.50219 19.4373ZM20.2503 11.999C20.2503 13.8906 20.2492 15.249 20.1353 16.301C20.0228 17.3389 19.8077 17.9891 19.4386 18.4971L20.6521 19.3788C21.2379 18.5725 21.5003 17.6281 21.6265 16.4625C21.7513 15.311 21.7503 13.8572 21.7503 11.999H20.2503ZM12.0003 21.749C13.8584 21.749 15.3123 21.75 16.4638 21.6253C17.6293 21.499 18.5737 21.2367 19.38 20.6509L18.4984 19.4373C17.9904 19.8064 17.3401 20.0216 16.3022 20.134C15.2503 20.248 13.8918 20.249 12.0003 20.249V21.749ZM19.4386 18.4971C19.1765 18.8579 18.8592 19.1752 18.4984 19.4373L19.38 20.6509C19.8682 20.2962 20.2975 19.8669 20.6521 19.3788L19.4386 18.4971ZM12.0003 3.74902C13.8918 3.74902 15.2503 3.75005 16.3022 3.86402C17.3401 3.97647 17.9904 4.19161 18.4984 4.5607L19.38 3.34718C18.5737 2.76135 17.6293 2.49903 16.4638 2.37275C15.3123 2.24799 13.8584 2.24902 12.0003 2.24902V3.74902ZM21.7503 11.999C21.7503 10.1409 21.7513 8.687 21.6265 7.5355C21.5003 6.36996 21.2379 5.42558 20.6521 4.61926L19.4386 5.50094C19.8077 6.00894 20.0228 6.65916 20.1353 7.69707C20.2492 8.74901 20.2503 10.1074 20.2503 11.999H21.7503ZM18.4984 4.5607C18.8592 4.82284 19.1765 5.14013 19.4386 5.50094L20.6521 4.61926C20.2975 4.13111 19.8682 3.70183 19.38 3.34718L18.4984 4.5607ZM12.0003 2.24902C10.1421 2.24902 8.68825 2.24799 7.53675 2.37275C6.37121 2.49903 5.42683 2.76135 4.62051 3.34718L5.50219 4.5607C6.01019 4.19161 6.66041 3.97647 7.69832 3.86402C8.75026 3.75005 10.1087 3.74902 12.0003 3.74902V2.24902ZM3.75027 11.999C3.75027 10.1074 3.7513 8.74901 3.86528 7.69707C3.97773 6.65916 4.19287 6.00894 4.56195 5.50094L3.34843 4.61926C2.7626 5.42558 2.50028 6.36996 2.374 7.5355C2.24925 8.687 2.25027 10.1409 2.25027 11.999H3.75027ZM4.62051 3.34718C4.13236 3.70183 3.70308 4.13111 3.34843 4.61926L4.56195 5.50094C4.82409 5.14013 5.14138 4.82284 5.50219 4.5607L4.62051 3.34718ZM16.0003 11.249H8.80027V12.749H16.0003V11.249ZM11.7282 15.4663L10.3179 14.0685L9.26194 15.1339L10.6723 16.5317L11.7282 15.4663ZM10.3179 9.92956L11.7282 8.53171L10.6723 7.46633L9.26194 8.86418L10.3179 9.92956ZM10.3179 14.0685C9.74295 13.4987 9.3576 13.1152 9.0985 12.7925C8.8489 12.4817 8.77879 12.301 8.76016 12.1549L7.2722 12.3445C7.34017 12.8777 7.59454 13.3154 7.92896 13.7318C8.25389 14.1364 8.71209 14.5889 9.26194 15.1339L10.3179 14.0685ZM9.26194 8.86418C8.71209 9.40914 8.25389 9.86167 7.92896 10.2663C7.59454 10.6827 7.34017 11.1203 7.2722 11.6535L8.76016 11.8432C8.77879 11.697 8.84891 11.5163 9.0985 11.2055C9.3576 10.8829 9.74296 10.4993 10.3179 9.92956L9.26194 8.86418ZM8.76016 12.1549C8.75357 12.1031 8.75027 12.0511 8.75027 11.999L7.25027 11.999C7.25027 12.1144 7.25758 12.2298 7.2722 12.3445L8.76016 12.1549ZM8.75027 11.999C8.75027 11.947 8.75357 11.8949 8.76016 11.8432L7.2722 11.6535C7.25758 11.7682 7.25027 11.8836 7.25027 11.999L8.75027 11.999ZM8.80027 11.249H8.00027V12.749H8.80027V11.249Z" fill="black"/>
</svg>
