<svg width="24" height="25" viewBox="0 0 24 25" fill="none" xmlns="http://www.w3.org/2000/svg">
<path d="M21.9994 13.7491C22.4136 13.7491 22.7494 13.4133 22.7494 12.9991C22.7494 12.5849 22.4136 12.2491 21.9994 12.2491L21.9994 13.7491ZM10.9994 12.2491C10.5852 12.2491 10.2494 12.5849 10.2494 12.9991C10.2494 13.4133 10.5852 13.7491 10.9994 13.7491L10.9994 12.2491ZM10.9994 15.8637L10.2494 15.8637L10.9994 15.8637ZM7.77941 17.4485L8.23691 16.8542L8.23691 16.8542L7.77941 17.4485ZM7.77941 8.54961L8.23691 9.14391L7.77941 8.54961ZM10.9994 10.1344L11.7494 10.1344L10.9994 10.1344ZM4.05813 11.4143L4.51563 12.0086L4.51563 12.0086L4.05813 11.4143ZM4.05813 14.5839L3.60064 15.1782L4.05813 14.5839ZM21.9994 12.2491L10.9994 12.2491L10.9994 13.7491L21.9994 13.7491L21.9994 12.2491ZM4.51563 12.0086L8.23691 9.14391L7.32192 7.9553L3.60064 10.8199L4.51563 12.0086ZM10.2494 10.1344L10.2494 15.8637L11.7494 15.8637L11.7494 10.1344L10.2494 10.1344ZM8.23691 16.8542L4.51563 13.9896L3.60064 15.1782L7.32192 18.0428L8.23691 16.8542ZM10.2494 15.8637C10.2494 16.901 9.05887 17.487 8.23691 16.8542L7.32192 18.0428C9.13023 19.4349 11.7494 18.1458 11.7494 15.8637L10.2494 15.8637ZM8.23691 9.14391C9.05887 8.51117 10.2494 9.09712 10.2494 10.1344L11.7494 10.1344C11.7494 7.85236 9.13023 6.56326 7.32192 7.9553L8.23691 9.14391ZM3.60064 10.8199C2.17062 11.9208 2.17062 14.0773 3.60064 15.1782L4.51563 13.9896C3.86562 13.4892 3.86562 12.5089 4.51563 12.0086L3.60064 10.8199Z" fill="black"/>
</svg>
