<svg width="24" height="25" viewBox="0 0 24 25" fill="none" xmlns="http://www.w3.org/2000/svg">
<path d="M19.9998 13.749C20.414 13.749 20.7498 13.4132 20.7498 12.999C20.7498 12.5848 20.414 12.249 19.9998 12.249V13.749ZM3.99982 12.249C3.5856 12.249 3.24982 12.5848 3.24982 12.999C3.24982 13.4132 3.5856 13.749 3.99982 13.749V12.249ZM7.47186 18.5317C7.76605 18.8233 8.24092 18.8212 8.53251 18.527C8.82409 18.2328 8.82197 17.7579 8.52777 17.4663L7.47186 18.5317ZM6.23685 16.2517L6.76481 15.719L6.76481 15.719L6.23685 16.2517ZM6.23685 9.74633L5.70889 9.21364L5.70889 9.21364L6.23685 9.74633ZM8.52777 8.53171C8.82197 8.24013 8.82409 7.76526 8.53251 7.47106C8.24092 7.17687 7.76605 7.17475 7.47186 7.46633L8.52777 8.53171ZM4.01971 13.3124L3.27573 13.4072L3.27573 13.4072L4.01971 13.3124ZM4.01971 12.6857L3.27573 12.5909L3.27573 12.5909L4.01971 12.6857ZM19.9998 12.249H3.99982V13.749H19.9998V12.249ZM8.52777 17.4663L6.76481 15.719L5.70889 16.7844L7.47186 18.5317L8.52777 17.4663ZM6.76481 10.279L8.52777 8.53171L7.47186 7.46633L5.70889 9.21364L6.76481 10.279ZM6.76481 15.719C6.04931 15.0099 5.55851 14.5218 5.22641 14.1083C4.90381 13.7066 4.79314 13.4486 4.76369 13.2175L3.27573 13.4072C3.35451 14.0253 3.64944 14.5402 4.05687 15.0476C4.4548 15.5431 5.01845 16.1001 5.70889 16.7844L6.76481 15.719ZM5.70889 9.21364C5.01845 9.89795 4.4548 10.455 4.05687 10.9505C3.64944 11.4578 3.35451 11.9727 3.27573 12.5909L4.76369 12.7805C4.79314 12.5494 4.90381 12.2914 5.22641 11.8897C5.55851 11.4762 6.04931 10.9882 6.76481 10.279L5.70889 9.21364ZM4.76369 13.2175C4.74519 13.0724 4.74519 12.9256 4.76369 12.7805L3.27573 12.5909C3.24118 12.8619 3.24118 13.1362 3.27573 13.4072L4.76369 13.2175Z" fill="black"/>
</svg>
