<svg width="24" height="24" viewBox="0 0 24 24" fill="none" xmlns="http://www.w3.org/2000/svg">
<path d="M11.669 18.9499L12.1049 19.5602L12.1049 19.5602L11.669 18.9499ZM11.722 18.9121L11.29 18.2991L11.29 18.2991L11.722 18.9121ZM14.5701 17.9994L14.5749 18.7494L14.5701 17.9994ZM7.39568 19.5096L8.09204 19.7881L7.39568 19.5096ZM9.05826 20.8147L8.62233 20.2044L8.62233 20.2044L9.05826 20.8147ZM21.7978 14.4062L22.5175 14.6172L21.7978 14.4062ZM18.4066 17.7973L18.6177 18.517L18.4066 17.7973ZM4.72983 2.54431L5.07033 3.21257L4.72983 2.54431ZM2.54475 4.72939L3.21301 5.06988L2.54475 4.72939ZM19.2697 2.54431L18.9292 3.21257L19.2697 2.54431ZM21.4548 4.72939L20.7866 5.06988L21.4548 4.72939ZM12.8001 6.57231L13.2019 7.20563L13.2019 7.20563L12.8001 6.57231ZM16.1555 6.7297L16.691 6.20459L16.691 6.20459L16.1555 6.7297ZM7.84405 6.7297L8.37955 7.25481L8.37955 7.25481L7.84405 6.7297ZM11.1994 6.57231L11.6012 5.93898L11.6012 5.93898L11.1994 6.57231ZM13.9998 1.24934H9.99978V2.74934H13.9998V1.24934ZM1.24979 9.99934V14.2277H2.74979V9.99934H1.24979ZM22.7498 11.1836V9.99934H21.2498V11.1836H22.7498ZM5.77144 18.7493H6.3732V17.2493H5.77144V18.7493ZM9.49419 21.425L12.1049 19.5602L11.2331 18.3396L8.62233 20.2044L9.49419 21.425ZM14.6352 18.7493H15.184V17.2493H14.6352V18.7493ZM12.1049 19.5602C12.1323 19.5406 12.1434 19.5327 12.154 19.5252L11.29 18.2991C11.2745 18.31 11.2589 18.3211 11.2331 18.3396L12.1049 19.5602ZM14.6352 17.2493C14.6034 17.2493 14.5842 17.2493 14.5653 17.2495L14.5749 18.7494C14.588 18.7493 14.6015 18.7493 14.6352 18.7493V17.2493ZM12.154 19.5252C12.8629 19.0257 13.7077 18.755 14.5749 18.7494L14.5653 17.2495C13.392 17.257 12.2491 17.6232 11.29 18.2991L12.154 19.5252ZM6.3732 18.7493C6.62169 18.7493 6.79162 19.0003 6.69933 19.231L8.09204 19.7881C8.57845 18.5721 7.68289 17.2493 6.3732 17.2493V18.7493ZM6.69933 19.231C6.01267 20.9477 7.98969 22.4997 9.49419 21.425L8.62233 20.2044C8.33687 20.4083 7.96176 20.1138 8.09204 19.7881L6.69933 19.231ZM21.2498 11.1836C21.2498 12.9255 21.2421 13.6356 21.0781 14.1952L22.5175 14.6172C22.7574 13.7989 22.7498 12.8199 22.7498 11.1836H21.2498ZM15.184 18.7493C16.8204 18.7493 17.7993 18.757 18.6177 18.517L18.1956 17.0776C17.6361 17.2417 16.9259 17.2493 15.184 17.2493V18.7493ZM21.0781 14.1952C20.6708 15.5842 19.5846 16.6704 18.1956 17.0776L18.6177 18.517C20.4969 17.966 21.9665 16.4964 22.5175 14.6172L21.0781 14.1952ZM1.24979 14.2277C1.24979 16.7249 3.2742 18.7493 5.77144 18.7493V17.2493C4.10263 17.2493 2.74979 15.8965 2.74979 14.2277H1.24979ZM9.99978 1.24934C8.61203 1.24934 7.52611 1.24876 6.65472 1.31996C5.77458 1.39187 5.04747 1.54072 4.38934 1.87606L5.07033 3.21257C5.48175 3.00293 5.98949 2.87931 6.77687 2.81497C7.573 2.74993 8.58728 2.74934 9.99978 2.74934V1.24934ZM2.74979 9.99934C2.74979 8.58684 2.75037 7.57256 2.81542 6.77643C2.87975 5.98905 3.00337 5.48131 3.21301 5.06988L1.8765 4.3889C1.54116 5.04703 1.39231 5.77414 1.3204 6.65428C1.2492 7.52566 1.24979 8.61159 1.24979 9.99934H2.74979ZM4.38934 1.87606C3.30741 2.42733 2.42777 3.30697 1.8765 4.3889L3.21301 5.06988C3.62047 4.27019 4.27064 3.62003 5.07033 3.21257L4.38934 1.87606ZM13.9998 2.74934C15.4123 2.74934 16.4266 2.74993 17.2227 2.81497C18.0101 2.87931 18.5178 3.00293 18.9292 3.21257L19.6102 1.87606C18.9521 1.54072 18.225 1.39187 17.3448 1.31996C16.4735 1.24876 15.3875 1.24934 13.9998 1.24934V2.74934ZM22.7498 9.99934C22.7498 8.61159 22.7504 7.52566 22.6792 6.65428C22.6073 5.77414 22.4584 5.04703 22.1231 4.3889L20.7866 5.06988C20.9962 5.48131 21.1198 5.98905 21.1841 6.77643C21.2492 7.57256 21.2498 8.58684 21.2498 9.99934H22.7498ZM18.9292 3.21257C19.7289 3.62003 20.3791 4.27019 20.7866 5.06988L22.1231 4.3889C21.5718 3.30697 20.6922 2.42733 19.6102 1.87606L18.9292 3.21257ZM13.2019 7.20563C13.5689 6.97281 13.994 6.78397 14.4087 6.75361C14.7859 6.726 15.1969 6.82335 15.62 7.25481L16.691 6.20459C15.947 5.44585 15.0987 5.19909 14.2992 5.25762C13.5372 5.3134 12.8682 5.64097 12.3984 5.93898L13.2019 7.20563ZM15.62 7.25481C16.1306 7.77551 16.3065 8.41254 16.2345 9.13992C16.1603 9.89031 15.8192 10.7211 15.3033 11.5155C14.7904 12.3051 14.1349 13.012 13.4939 13.5141C12.8202 14.0417 12.2839 14.2493 11.9998 14.2493V15.7493C12.8032 15.7493 13.6765 15.2764 14.4188 14.695C15.1938 14.088 15.9607 13.2571 16.5612 12.3325C17.1587 11.4127 17.6218 10.3527 17.7272 9.2876C17.8349 8.19955 17.5657 7.09655 16.691 6.20459L15.62 7.25481ZM11.9998 14.2493C11.7157 14.2493 11.1794 14.0417 10.5057 13.5141C9.86467 13.012 9.20916 12.3051 8.69631 11.5155C8.18037 10.7211 7.8393 9.8903 7.76506 9.13992C7.6931 8.41254 7.86894 7.77552 8.37955 7.25481L7.30855 6.20459C6.4339 7.09655 6.1647 8.19955 6.27235 9.28761C6.37772 10.3527 6.84092 11.4127 7.43835 12.3325C8.03886 13.2571 8.80582 14.088 9.58078 14.695C10.3231 15.2764 11.1964 15.7493 11.9998 15.7493V14.2493ZM8.37955 7.25481C8.80263 6.82336 9.21366 6.72601 9.59083 6.75362C10.0055 6.78398 10.4307 6.97281 10.7977 7.20563L11.6012 5.93898C11.1314 5.64097 10.4624 5.31341 9.70034 5.25763C8.90081 5.19909 8.05256 5.44586 7.30855 6.20459L8.37955 7.25481ZM12.3984 5.93898C12.1708 6.08336 11.8288 6.08336 11.6012 5.93898L10.7977 7.20563C11.5158 7.66114 12.4838 7.66114 13.2019 7.20563L12.3984 5.93898Z" fill="black"/>
</svg>
