<svg width="24" height="24" viewBox="0 0 24 24" fill="none" xmlns="http://www.w3.org/2000/svg">
<path d="M3.00024 9.99933C3.00024 8.61862 4.11953 7.49933 5.50024 7.49933C6.88095 7.49933 8.00024 8.61862 8.00024 9.99933V17.9993C8.00024 19.38 6.88095 20.4993 5.50024 20.4993C4.11953 20.4993 3.00024 19.38 3.00024 17.9993V9.99933Z" stroke="black" stroke-width="1.5"/>
<path d="M11.5757 4.68928L9.34512 8.3139C8.74625 9.28706 8.44681 9.77365 8.26575 10.3069C8.21052 10.4695 8.16371 10.6349 8.1255 10.8024C8.00024 11.3514 8.00024 11.9227 8.00024 13.0654V16.4993C8.00024 18.7085 9.7911 20.4993 12.0002 20.4993H14.9101C16.8039 20.4993 18.5352 19.4293 19.3822 17.7354L20.5307 15.4384C21.6653 13.1692 20.0152 10.4993 17.4782 10.4993H16.7885C15.0595 10.4993 13.7373 8.9582 14.0002 7.24933L14.2433 5.66955C14.3784 4.79134 13.6989 3.99933 12.8104 3.99933C12.3069 3.99933 11.8395 4.26051 11.5757 4.68928Z" stroke="black" stroke-width="1.5"/>
</svg>
