<svg width="24" height="24" viewBox="0 0 24 24" fill="none" xmlns="http://www.w3.org/2000/svg">
<path d="M12.6687 18.9499L13.1046 19.5602L13.1046 19.5602L12.6687 18.9499ZM12.7217 18.9121L12.2897 18.2991L12.7217 18.9121ZM15.5698 17.9994L15.5746 18.7494L15.5698 17.9994ZM8.39535 19.5096L9.09171 19.7881L8.39535 19.5096ZM10.0579 20.8147L9.622 20.2044L9.622 20.2044L10.0579 20.8147ZM20.9938 13.2358L20.2447 13.2003L20.9938 13.2358ZM16.2359 17.9937L16.2004 17.2446L16.2359 17.9937ZM5.7295 2.54431L6.06999 3.21257L6.06999 3.21257L5.7295 2.54431ZM3.54442 4.72939L4.21267 5.06988L3.54442 4.72939ZM18.2694 2.54431L17.9289 3.21257L17.9289 3.21257L18.2694 2.54431ZM20.4545 4.72939L19.7862 5.06988L20.4545 4.72939ZM12.7998 6.57231L13.2015 7.20563L13.2015 7.20563L12.7998 6.57231ZM16.1552 6.7297L16.6907 6.20459L16.6907 6.20459L16.1552 6.7297ZM7.84371 6.7297L8.37921 7.25481L8.37921 7.25481L7.84371 6.7297ZM11.1991 6.57231L11.6008 5.93898L11.6008 5.93898L11.1991 6.57231ZM12.9994 1.24934H10.9994V2.74934H12.9994V1.24934ZM2.24945 9.99934V14.2277H3.74945V9.99934H2.24945ZM21.7494 12.6982V9.99934H20.2494V12.6982H21.7494ZM6.7711 18.7493H7.37286V17.2493H6.7711V18.7493ZM10.4939 21.425L13.1046 19.5602L12.2327 18.3396L9.622 20.2044L10.4939 21.425ZM13.1046 19.5602C13.132 19.5406 13.143 19.5327 13.1537 19.5252L12.2897 18.2991C12.2742 18.31 12.2586 18.3211 12.2327 18.3396L13.1046 19.5602ZM15.6498 17.2493C15.6084 17.2493 15.584 17.2493 15.565 17.2495L15.5746 18.7494C15.5875 18.7493 15.6058 18.7493 15.6498 18.7493V17.2493ZM13.1537 19.5252C13.8626 19.0257 14.7074 18.755 15.5746 18.7494L15.565 17.2495C14.3917 17.257 13.2488 17.6232 12.2897 18.2991L13.1537 19.5252ZM7.37286 18.7493C7.62136 18.7493 7.79128 19.0003 7.69899 19.231L9.09171 19.7881C9.57811 18.5721 8.68256 17.2493 7.37286 17.2493V18.7493ZM7.69899 19.231C7.01233 20.9477 8.98935 22.4997 10.4939 21.425L9.622 20.2044C9.33654 20.4083 8.96142 20.1138 9.09171 19.7881L7.69899 19.231ZM20.2494 12.6982C20.2494 12.9864 20.2492 13.1044 20.2447 13.2003L21.743 13.2713C21.7497 13.1309 21.7494 12.9692 21.7494 12.6982H20.2494ZM15.6498 18.7493C15.952 18.7493 16.1308 18.7496 16.2714 18.7429L16.2004 17.2446C16.1047 17.2491 15.9715 17.2493 15.6498 17.2493V18.7493ZM20.2447 13.2003C20.141 15.3895 18.3896 17.1409 16.2004 17.2446L16.2714 18.7429C19.2332 18.6027 21.6028 16.2331 21.743 13.2713L20.2447 13.2003ZM2.24945 14.2277C2.24945 16.7249 4.27386 18.7493 6.7711 18.7493V17.2493C5.10229 17.2493 3.74945 15.8965 3.74945 14.2277H2.24945ZM10.9994 1.24934C9.61169 1.24934 8.52577 1.24876 7.65438 1.31996C6.77424 1.39187 6.04713 1.54072 5.389 1.87606L6.06999 3.21257C6.48142 3.00293 6.98915 2.87931 7.77653 2.81497C8.57267 2.74993 9.58694 2.74934 10.9994 2.74934V1.24934ZM3.74945 9.99934C3.74945 8.58684 3.75003 7.57256 3.81508 6.77643C3.87941 5.98905 4.00304 5.48131 4.21267 5.06988L2.87616 4.3889C2.54083 5.04703 2.39197 5.77414 2.32006 6.65428C2.24887 7.52566 2.24945 8.61159 2.24945 9.99934H3.74945ZM5.389 1.87606C4.30707 2.42733 3.42743 3.30697 2.87616 4.3889L4.21267 5.06988C4.62013 4.27019 5.2703 3.62003 6.06999 3.21257L5.389 1.87606ZM12.9994 2.74934C14.412 2.74934 15.4262 2.74993 16.2224 2.81497C17.0097 2.87931 17.5175 3.00293 17.9289 3.21257L18.6099 1.87606C17.9518 1.54072 17.2247 1.39187 16.3445 1.31996C15.4731 1.24876 14.3872 1.24934 12.9994 1.24934V2.74934ZM21.7494 9.99934C21.7494 8.61159 21.75 7.52566 21.6788 6.65428C21.6069 5.77414 21.4581 5.04703 21.1227 4.3889L19.7862 5.06988C19.9959 5.48131 20.1195 5.98905 20.1838 6.77643C20.2489 7.57256 20.2494 8.58684 20.2494 9.99934H21.7494ZM17.9289 3.21257C18.7286 3.62003 19.3788 4.27019 19.7862 5.06988L21.1227 4.3889C20.5715 3.30697 19.6918 2.42733 18.6099 1.87606L17.9289 3.21257ZM13.2015 7.20563C13.5686 6.97281 13.9937 6.78397 14.4084 6.75361C14.7856 6.726 15.1966 6.82335 15.6197 7.25481L16.6907 6.20459C15.9467 5.44585 15.0984 5.19909 14.2989 5.25762C13.5369 5.3134 12.8678 5.64097 12.398 5.93898L13.2015 7.20563ZM15.6197 7.25481C16.1303 7.77551 16.3061 8.41254 16.2342 9.13992C16.1599 9.89031 15.8189 10.7211 15.3029 11.5155C14.7901 12.3051 14.1346 13.012 13.4935 13.5141C12.8199 14.0417 12.2836 14.2493 11.9995 14.2493V15.7493C12.8029 15.7493 13.6761 15.2764 14.4185 14.695C15.1934 14.088 15.9604 13.2571 16.5609 12.3325C17.1583 11.4127 17.6215 10.3527 17.7269 9.2876C17.8345 8.19955 17.5653 7.09655 16.6907 6.20459L15.6197 7.25481ZM11.9995 14.2493C11.7153 14.2493 11.179 14.0417 10.5054 13.5141C9.86433 13.012 9.20883 12.3051 8.69597 11.5155C8.18004 10.7211 7.83897 9.8903 7.76473 9.13992C7.69276 8.41254 7.86861 7.77552 8.37921 7.25481L7.30821 6.20459C6.43356 7.09655 6.16437 8.19955 6.27202 9.28761C6.37739 10.3527 6.84058 11.4127 7.43801 12.3325C8.03852 13.2571 8.80548 14.088 9.58044 14.695C10.3228 15.2764 11.196 15.7493 11.9995 15.7493V14.2493ZM8.37921 7.25481C8.80229 6.82336 9.21332 6.72601 9.59049 6.75362C10.0052 6.78398 10.4303 6.97281 10.7973 7.20563L11.6008 5.93898C11.131 5.64097 10.462 5.31341 9.70001 5.25763C8.90047 5.19909 8.05222 5.44586 7.30821 6.20459L8.37921 7.25481ZM12.398 5.93898C12.1704 6.08336 11.8284 6.08336 11.6008 5.93898L10.7973 7.20563C11.5154 7.66114 12.4834 7.66114 13.2015 7.20563L12.398 5.93898Z" fill="black"/>
</svg>
