<svg width="24" height="24" viewBox="0 0 24 24" fill="none" xmlns="http://www.w3.org/2000/svg">
<path d="M8.79904 18.6737L9.33941 18.1536L9.33941 18.1536L8.79904 18.6737ZM8.79114 18.6655L8.25366 19.1886L8.25366 19.1886L8.79114 18.6655ZM8.08003 18.363L8.08417 17.613L8.08003 18.363ZM15.9199 18.363L15.9157 17.613L15.9199 18.363ZM15.2009 18.6737L14.6605 18.1536L14.6605 18.1536L15.2009 18.6737ZM15.2088 18.6655L15.7462 19.1886L15.2088 18.6655ZM14.8819 19.0051L15.4223 19.5252L15.4223 19.5252L14.8819 19.0051ZM9.118 19.0051L8.57764 19.5252L8.57764 19.5252L9.118 19.0051ZM3.00025 13.4169L2.25029 13.425L3.00025 13.4169ZM7.94599 18.3627L7.9379 19.1126L7.94599 18.3627ZM20.9997 13.4169L21.7496 13.425L20.9997 13.4169ZM16.0539 18.3627L16.062 19.1126L16.0539 18.3627ZM18.3962 2.61095L18.7556 1.95269L18.7556 1.95269L18.3962 2.61095ZM20.3883 4.6031L21.0466 4.24366L21.0466 4.24366L20.3883 4.6031ZM5.60371 2.61095L5.24427 1.95269L5.24427 1.95269L5.60371 2.61095ZM3.61156 4.6031L2.9533 4.24366L2.9533 4.24366L3.61156 4.6031ZM12.8003 6.57231L13.202 7.20563L13.202 7.20563L12.8003 6.57231ZM16.1557 6.7297L16.6912 6.20459L16.6912 6.20459L16.1557 6.7297ZM7.84422 6.7297L8.37972 7.25481L8.37972 7.25481L7.84422 6.7297ZM11.1996 6.57231L11.6013 5.93898L11.6013 5.93898L11.1996 6.57231ZM11.1818 2.74934H12.8181V1.24934H11.1818V2.74934ZM20.2499 10.1812V13.2943H21.7499V10.1812H20.2499ZM3.74995 13.2943V10.1812H2.24995V13.2943H3.74995ZM14.6605 18.1536L14.3415 18.485L15.4223 19.5252L15.7412 19.1938L14.6605 18.1536ZM9.65837 18.485L9.33941 18.1536L8.25868 19.1938L8.57764 19.5252L9.65837 18.485ZM9.33941 18.1536C9.3361 18.1502 9.33236 18.1463 9.32863 18.1425L8.25366 19.1886C8.25355 19.1885 8.25367 19.1886 8.25447 19.1895C8.25538 19.1904 8.25655 19.1916 8.25868 19.1938L9.33941 18.1536ZM8.06866 19.113C8.07168 19.113 8.07337 19.113 8.07466 19.113C8.07579 19.113 8.076 19.113 8.07588 19.113L8.08417 17.613C8.07885 17.613 8.07357 17.613 8.06866 17.613V19.113ZM9.32863 18.1425C9.00152 17.8063 8.55318 17.6156 8.08417 17.613L8.07588 19.113C8.14289 19.1133 8.20693 19.1406 8.25366 19.1886L9.32863 18.1425ZM15.9312 17.613C15.9263 17.613 15.921 17.613 15.9157 17.613L15.924 19.113C15.9239 19.113 15.9241 19.113 15.9252 19.113C15.9265 19.113 15.9282 19.113 15.9312 19.113V17.613ZM15.7412 19.1938C15.7433 19.1916 15.7445 19.1904 15.7454 19.1895C15.7462 19.1887 15.7463 19.1885 15.7462 19.1886L14.6713 18.1425C14.6676 18.1463 14.6639 18.1501 14.6605 18.1536L15.7412 19.1938ZM15.9157 17.613C15.4467 17.6156 14.9984 17.8063 14.6713 18.1425L15.7462 19.1886C15.793 19.1406 15.857 19.1133 15.924 19.113L15.9157 17.613ZM14.3415 18.485C13.6495 19.204 13.1825 19.6868 12.7871 19.9994C12.4088 20.2985 12.1884 20.3653 12 20.3653L12 21.8653C12.6624 21.8653 13.206 21.5804 13.7174 21.1761C14.2117 20.7853 14.7602 20.213 15.4223 19.5252L14.3415 18.485ZM8.57764 19.5252C9.23966 20.213 9.78819 20.7853 10.2825 21.1761C10.7939 21.5804 11.3375 21.8653 12 21.8653L12 20.3653C11.8115 20.3653 11.5911 20.2985 11.2128 19.9994C10.8174 19.6868 10.3504 19.204 9.65837 18.485L8.57764 19.5252ZM2.24995 13.2943C2.24995 13.3561 2.24994 13.393 2.25029 13.425L3.7502 13.4088C3.74996 13.3869 3.74995 13.36 3.74995 13.2943H2.24995ZM8.06866 17.613C8.00292 17.613 7.976 17.613 7.95409 17.6127L7.9379 19.1126C7.96994 19.113 8.00681 19.113 8.06866 19.113V17.613ZM2.25029 13.425C2.28404 16.5521 4.81081 19.0789 7.9379 19.1126L7.95409 17.6127C5.64276 17.5878 3.77515 15.7202 3.7502 13.4088L2.25029 13.425ZM20.2499 13.2943C20.2499 13.36 20.2499 13.3869 20.2497 13.4088L21.7496 13.425C21.75 13.393 21.7499 13.3561 21.7499 13.2943H20.2499ZM15.9312 19.113C15.9931 19.113 16.03 19.113 16.062 19.1126L16.0458 17.6127C16.0239 17.613 15.997 17.613 15.9312 17.613V19.113ZM20.2497 13.4088C20.2248 15.7202 18.3571 17.5878 16.0458 17.6127L16.062 19.1126C19.1891 19.0789 21.7159 16.5521 21.7496 13.425L20.2497 13.4088ZM12.8181 2.74934C14.3173 2.74934 15.3938 2.75 16.2369 2.823C17.0705 2.89517 17.6056 3.03376 18.0368 3.26921L18.7556 1.95269C18.0667 1.57653 17.2988 1.40932 16.3663 1.32859C15.4435 1.24869 14.291 1.24934 12.8181 1.24934V2.74934ZM21.7499 10.1812C21.7499 8.70832 21.7506 7.55583 21.6707 6.63296C21.59 5.70052 21.4228 4.93255 21.0466 4.24366L19.7301 4.96253C19.9655 5.39372 20.1041 5.92878 20.1763 6.76235C20.2493 7.6055 20.2499 8.68201 20.2499 10.1812H21.7499ZM18.0368 3.26921C18.7518 3.65967 19.3396 4.24745 19.7301 4.96253L21.0466 4.24366C20.5183 3.2762 19.7231 2.48097 18.7556 1.95269L18.0368 3.26921ZM11.1818 1.24934C9.70893 1.24934 8.55644 1.24869 7.63357 1.32859C6.70113 1.40932 5.93316 1.57653 5.24427 1.95269L5.96314 3.26921C6.39433 3.03376 6.92939 2.89517 7.76296 2.823C8.60611 2.75 9.68262 2.74934 11.1818 2.74934V1.24934ZM3.74995 10.1812C3.74995 8.68201 3.75061 7.6055 3.82361 6.76235C3.89578 5.92878 4.03437 5.39372 4.26982 4.96253L2.9533 4.24366C2.57714 4.93255 2.40993 5.70052 2.3292 6.63296C2.2493 7.55583 2.24995 8.70831 2.24995 10.1812H3.74995ZM5.24427 1.95269C4.27681 2.48097 3.48158 3.2762 2.9533 4.24366L4.26982 4.96253C4.66028 4.24745 5.24806 3.65967 5.96314 3.26921L5.24427 1.95269ZM13.202 7.20563C13.5691 6.97281 13.9942 6.78397 14.4089 6.75361C14.7861 6.726 15.1971 6.82335 15.6202 7.25481L16.6912 6.20459C15.9472 5.44585 15.0989 5.19909 14.2994 5.25762C13.5374 5.3134 12.8683 5.64097 12.3985 5.93898L13.202 7.20563ZM15.6202 7.25481C16.1308 7.77551 16.3066 8.41254 16.2347 9.13992C16.1604 9.89031 15.8194 10.7211 15.3034 11.5155C14.7906 12.3051 14.1351 13.012 13.494 13.5141C12.8204 14.0417 12.2841 14.2493 12 14.2493V15.7493C12.8034 15.7493 13.6766 15.2764 14.419 14.695C15.1939 14.088 15.9609 13.2571 16.5614 12.3325C17.1588 11.4127 17.622 10.3527 17.7274 9.2876C17.835 8.19955 17.5658 7.09655 16.6912 6.20459L15.6202 7.25481ZM12 14.2493C11.7158 14.2493 11.1795 14.0417 10.5059 13.5141C9.86484 13.012 9.20933 12.3051 8.69648 11.5155C8.18054 10.7211 7.83947 9.8903 7.76523 9.13992C7.69327 8.41254 7.86911 7.77552 8.37972 7.25481L7.30872 6.20459C6.43407 7.09655 6.16487 8.19955 6.27252 9.28761C6.37789 10.3527 6.84109 11.4127 7.43851 12.3325C8.03902 13.2571 8.80598 14.088 9.58094 14.695C10.3233 15.2764 11.1965 15.7493 12 15.7493V14.2493ZM8.37972 7.25481C8.8028 6.82336 9.21383 6.72601 9.591 6.75362C10.0057 6.78398 10.4308 6.97281 10.7979 7.20563L11.6013 5.93898C11.1315 5.64097 10.4625 5.31341 9.70051 5.25763C8.90098 5.19909 8.05273 5.44586 7.30872 6.20459L8.37972 7.25481ZM12.3985 5.93898C12.1709 6.08336 11.8289 6.08336 11.6013 5.93898L10.7979 7.20563C11.5159 7.66114 12.4839 7.66114 13.202 7.20563L12.3985 5.93898Z" fill="black"/>
</svg>
