<svg width="24" height="24" viewBox="0 0 24 24" fill="none" xmlns="http://www.w3.org/2000/svg">
<path d="M8.00024 17.7496C8.41446 17.7496 8.75024 17.4138 8.75024 16.9996C8.75024 16.5854 8.41446 16.2496 8.00024 16.2496V17.7496ZM16.0002 16.2496C15.586 16.2496 15.2502 16.5854 15.2502 16.9996C15.2502 17.4138 15.586 17.7496 16.0002 17.7496V16.2496ZM16.0002 6.24963C15.586 6.24963 15.2502 6.58542 15.2502 6.99963C15.2502 7.41385 15.586 7.74963 16.0002 7.74963V6.24963ZM8.00024 7.74963C8.41446 7.74963 8.75024 7.41385 8.75024 6.99963C8.75024 6.58542 8.41446 6.24963 8.00024 6.24963V7.74963ZM8.00024 11.2496C7.58603 11.2496 7.25024 11.5854 7.25024 11.9996C7.25024 12.4138 7.58603 12.7496 8.00024 12.7496V11.2496ZM16.0002 12.7496C16.4145 12.7496 16.7502 12.4138 16.7502 11.9996C16.7502 11.5854 16.4145 11.2496 16.0002 11.2496V12.7496ZM8.00024 16.2496C5.65303 16.2496 3.75024 14.3468 3.75024 11.9996H2.25024C2.25024 15.1753 4.82461 17.7496 8.00024 17.7496V16.2496ZM20.2502 11.9996C20.2502 14.3468 18.3474 16.2496 16.0002 16.2496V17.7496C19.1759 17.7496 21.7502 15.1753 21.7502 11.9996H20.2502ZM16.0002 7.74963C18.3474 7.74963 20.2502 9.65242 20.2502 11.9996H21.7502C21.7502 8.824 19.1759 6.24963 16.0002 6.24963V7.74963ZM8.00024 6.24963C4.82461 6.24963 2.25024 8.824 2.25024 11.9996H3.75024C3.75024 9.65242 5.65303 7.74963 8.00024 7.74963V6.24963ZM8.00024 12.7496H16.0002V11.2496H8.00024V12.7496Z" fill="black"/>
</svg>
