<svg width="24" height="24" viewBox="0 0 24 24" fill="none" xmlns="http://www.w3.org/2000/svg">
<path d="M14.7806 19.6994L14.1904 19.2366L14.1904 19.2366L14.7806 19.6994ZM9.21902 19.6994L8.62885 20.1622L9.21902 19.6994ZM11.9998 22.0044L11.9998 21.2544L11.9998 22.0044ZM19.2498 9.60759C19.2498 10.8341 18.6102 12.4753 17.6036 14.2549C16.6135 16.0052 15.334 17.7783 14.1904 19.2366L15.3708 20.1622C16.5369 18.6751 17.867 16.8358 18.9092 14.9934C19.9347 13.1803 20.7498 11.2483 20.7498 9.60759H19.2498ZM9.8092 19.2366C8.6656 17.7783 7.3861 16.0052 6.39607 14.2549C5.38944 12.4753 4.74982 10.8341 4.74982 9.60759H3.24982C3.24982 11.2483 4.06492 13.1803 5.09046 14.9934C6.13259 16.8358 7.46269 18.6751 8.62885 20.1622L9.8092 19.2366ZM4.74982 9.60759C4.74982 5.21461 8.0466 1.7489 11.9998 1.7489V0.248902C7.11648 0.248902 3.24982 4.49167 3.24982 9.60759H4.74982ZM11.9998 1.7489C15.953 1.7489 19.2498 5.21461 19.2498 9.60759H20.7498C20.7498 4.49167 16.8831 0.248902 11.9998 0.248902V1.7489ZM14.1904 19.2366C13.5715 20.0259 13.1639 20.5415 12.799 20.873C12.4662 21.1753 12.244 21.2544 11.9998 21.2544L11.9998 22.7544C12.7289 22.7544 13.2946 22.4493 13.8076 21.9833C14.2885 21.5464 14.7847 20.9095 15.3708 20.1622L14.1904 19.2366ZM8.62885 20.1622C9.21493 20.9095 9.71117 21.5464 10.1921 21.9833C10.7051 22.4493 11.2708 22.7544 11.9998 22.7544L11.9998 21.2544C11.7556 21.2544 11.5335 21.1753 11.2006 20.873C10.8357 20.5415 10.4282 20.0259 9.8092 19.2366L8.62885 20.1622ZM8.24982 9.9989C8.24982 12.07 9.92875 13.7489 11.9998 13.7489V12.2489C10.7572 12.2489 9.74981 11.2415 9.74981 9.9989H8.24982ZM11.9998 13.7489C14.0709 13.7489 15.7498 12.07 15.7498 9.9989H14.2498C14.2498 11.2415 13.2425 12.2489 11.9998 12.2489V13.7489ZM15.7498 9.9989C15.7498 7.92783 14.0709 6.2489 11.9998 6.2489V7.7489C13.2425 7.7489 14.2498 8.75626 14.2498 9.9989H15.7498ZM11.9998 6.2489C9.92875 6.2489 8.24982 7.92783 8.24982 9.9989H9.74981C9.74981 8.75626 10.7572 7.7489 11.9998 7.7489V6.2489Z" fill="black"/>
</svg>
