<svg width="24" height="24" viewBox="0 0 24 24" fill="none" xmlns="http://www.w3.org/2000/svg">
<path d="M14.7803 19.6994L14.1902 19.2366L14.1902 19.2366L14.7803 19.6994ZM9.21875 19.6994L8.62857 20.1622L9.21875 19.6994ZM11.9995 22.0044L11.9995 21.2544L11.9995 22.0044ZM10.5299 7.46857C10.237 7.17568 9.7621 7.17568 9.46921 7.46857C9.17632 7.76146 9.17632 8.23633 9.46921 8.52923L10.5299 7.46857ZM13.7118 12.7719C14.0047 13.0648 14.4796 13.0648 14.7725 12.7719C15.0654 12.479 15.0654 12.0041 14.7725 11.7112L13.7118 12.7719ZM9.46921 11.7112C9.17632 12.0041 9.17632 12.479 9.46921 12.7719C9.7621 13.0648 10.237 13.0648 10.5299 12.7719L9.46921 11.7112ZM14.7725 8.52923C15.0654 8.23633 15.0654 7.76146 14.7725 7.46857C14.4796 7.17568 14.0047 7.17568 13.7118 7.46857L14.7725 8.52923ZM19.2495 9.60759C19.2495 10.8341 18.6099 12.4753 17.6033 14.2549C16.6133 16.0052 15.3338 17.7783 14.1902 19.2366L15.3705 20.1622C16.5367 18.6751 17.8668 16.8358 18.9089 14.9934C19.9344 13.1803 20.7495 11.2483 20.7495 9.60759H19.2495ZM9.80892 19.2366C8.66532 17.7783 7.38582 16.0052 6.39579 14.2549C5.38916 12.4753 4.74954 10.8341 4.74954 9.60759H3.24954C3.24954 11.2483 4.06465 13.1803 5.09018 14.9934C6.13232 16.8358 7.46242 18.6751 8.62857 20.1622L9.80892 19.2366ZM4.74954 9.60759C4.74954 5.21461 8.04632 1.7489 11.9995 1.7489V0.248902C7.1162 0.248902 3.24954 4.49167 3.24954 9.60759H4.74954ZM11.9995 1.7489C15.9528 1.7489 19.2495 5.21461 19.2495 9.60759H20.7495C20.7495 4.49167 16.8829 0.248902 11.9995 0.248902V1.7489ZM14.1902 19.2366C13.5712 20.0259 13.1637 20.5415 12.7987 20.873C12.4659 21.1753 12.2437 21.2544 11.9995 21.2544L11.9995 22.7544C12.7286 22.7544 13.2943 22.4493 13.8073 21.9833C14.2882 21.5464 14.7844 20.9095 15.3705 20.1622L14.1902 19.2366ZM8.62857 20.1622C9.21465 20.9095 9.7109 21.5464 10.1918 21.9833C10.7048 22.4493 11.2705 22.7544 11.9995 22.7544L11.9995 21.2544C11.7554 21.2544 11.5332 21.1753 11.2004 20.873C10.8354 20.5415 10.4279 20.0259 9.80892 19.2366L8.62857 20.1622ZM9.46921 8.52923L11.5905 10.6505L12.6512 9.58989L10.5299 7.46857L9.46921 8.52923ZM11.5905 10.6505L13.7118 12.7719L14.7725 11.7112L12.6512 9.58989L11.5905 10.6505ZM10.5299 12.7719L12.6512 10.6505L11.5905 9.58989L9.46921 11.7112L10.5299 12.7719ZM12.6512 10.6505L14.7725 8.52923L13.7118 7.46857L11.5905 9.58989L12.6512 10.6505Z" fill="black"/>
</svg>
