<svg width="24" height="24" viewBox="0 0 24 24" fill="none" xmlns="http://www.w3.org/2000/svg">
<path d="M14.7806 19.6994L14.1905 19.2366L14.1905 19.2366L14.7806 19.6994ZM9.21905 19.6994L8.62888 20.1622L9.21905 19.6994ZM11.9998 22.0044L11.9998 21.2544L11.9998 22.0044ZM8.99985 9.2489C8.58563 9.2489 8.24985 9.58468 8.24985 9.9989C8.24985 10.4131 8.58563 10.7489 8.99985 10.7489V9.2489ZM14.9998 10.7489C15.4141 10.7489 15.7498 10.4131 15.7498 9.9989C15.7498 9.58468 15.4141 9.2489 14.9998 9.2489V10.7489ZM19.2498 9.60759C19.2498 10.8341 18.6102 12.4753 17.6036 14.2549C16.6136 16.0052 15.3341 17.7783 14.1905 19.2366L15.3708 20.1622C16.537 18.6751 17.8671 16.8358 18.9092 14.9934C19.9347 13.1803 20.7498 11.2483 20.7498 9.60759H19.2498ZM9.80923 19.2366C8.66563 17.7783 7.38613 16.0052 6.3961 14.2549C5.38947 12.4753 4.74985 10.8341 4.74985 9.60759H3.24985C3.24985 11.2483 4.06495 13.1803 5.09049 14.9934C6.13262 16.8358 7.46272 18.6751 8.62888 20.1622L9.80923 19.2366ZM4.74985 9.60759C4.74985 5.21461 8.04663 1.7489 11.9998 1.7489V0.248902C7.11651 0.248902 3.24985 4.49167 3.24985 9.60759H4.74985ZM11.9998 1.7489C15.9531 1.7489 19.2498 5.21461 19.2498 9.60759H20.7498C20.7498 4.49167 16.8832 0.248902 11.9998 0.248902V1.7489ZM14.1905 19.2366C13.5715 20.0259 13.164 20.5415 12.799 20.873C12.4662 21.1753 12.244 21.2544 11.9998 21.2544L11.9998 22.7544C12.7289 22.7544 13.2946 22.4493 13.8076 21.9833C14.2885 21.5464 14.7847 20.9095 15.3708 20.1622L14.1905 19.2366ZM8.62888 20.1622C9.21496 20.9095 9.7112 21.5464 10.1921 21.9833C10.7051 22.4493 11.2708 22.7544 11.9998 22.7544L11.9998 21.2544C11.7557 21.2544 11.5335 21.1753 11.2007 20.873C10.8357 20.5415 10.4282 20.0259 9.80923 19.2366L8.62888 20.1622ZM8.99985 10.7489H14.9998V9.2489H8.99985V10.7489Z" fill="black"/>
</svg>
