<svg width="24" height="24" viewBox="0 0 24 24" fill="none" xmlns="http://www.w3.org/2000/svg">
<path d="M14.7807 19.6994L14.1905 19.2366L14.1905 19.2366L14.7807 19.6994ZM9.21908 19.6994L8.62891 20.1622L9.21908 19.6994ZM11.9999 22.0044L11.9999 21.2544L11.9999 22.0044ZM8.99988 9.2489C8.58566 9.2489 8.24988 9.58468 8.24988 9.9989C8.24988 10.4131 8.58566 10.7489 8.99988 10.7489V9.2489ZM14.9999 10.7489C15.4141 10.7489 15.7499 10.4131 15.7499 9.9989C15.7499 9.58468 15.4141 9.2489 14.9999 9.2489V10.7489ZM11.2499 12.9989C11.2499 13.4131 11.5857 13.7489 11.9999 13.7489C12.4141 13.7489 12.7499 13.4131 12.7499 12.9989L11.2499 12.9989ZM12.7499 6.9989C12.7499 6.58469 12.4141 6.2489 11.9999 6.2489C11.5857 6.2489 11.2499 6.58469 11.2499 6.9989L12.7499 6.9989ZM19.2499 9.60759C19.2499 10.8341 18.6103 12.4753 17.6036 14.2549C16.6136 16.0052 15.3341 17.7783 14.1905 19.2366L15.3708 20.1622C16.537 18.6751 17.8671 16.8358 18.9092 14.9934C19.9348 13.1803 20.7499 11.2483 20.7499 9.60759H19.2499ZM9.80926 19.2366C8.66566 17.7783 7.38616 16.0052 6.39613 14.2549C5.3895 12.4753 4.74988 10.8341 4.74988 9.60759H3.24988C3.24988 11.2483 4.06498 13.1803 5.09052 14.9934C6.13265 16.8358 7.46275 18.6751 8.62891 20.1622L9.80926 19.2366ZM4.74988 9.60759C4.74988 5.21461 8.04666 1.7489 11.9999 1.7489V0.248902C7.11654 0.248902 3.24988 4.49167 3.24988 9.60759H4.74988ZM11.9999 1.7489C15.9531 1.7489 19.2499 5.21461 19.2499 9.60759H20.7499C20.7499 4.49167 16.8832 0.248902 11.9999 0.248902V1.7489ZM14.1905 19.2366C13.5715 20.0259 13.164 20.5415 12.7991 20.873C12.4662 21.1753 12.2441 21.2544 11.9999 21.2544L11.9999 22.7544C12.7289 22.7544 13.2946 22.4493 13.8076 21.9833C14.2885 21.5464 14.7848 20.9095 15.3708 20.1622L14.1905 19.2366ZM8.62891 20.1622C9.21499 20.9095 9.71123 21.5464 10.1921 21.9833C10.7051 22.4493 11.2708 22.7544 11.9999 22.7544L11.9999 21.2544C11.7557 21.2544 11.5335 21.1753 11.2007 20.873C10.8357 20.5415 10.4282 20.0259 9.80926 19.2366L8.62891 20.1622ZM8.99988 10.7489H14.9999V9.2489H8.99988V10.7489ZM12.7499 12.9989L12.7499 6.9989L11.2499 6.9989L11.2499 12.9989L12.7499 12.9989Z" fill="black"/>
</svg>
