<svg width="24" height="24" viewBox="0 0 24 24" fill="none" xmlns="http://www.w3.org/2000/svg">
<path d="M14.7807 19.6994L14.1906 19.2366L14.1906 19.2366L14.7807 19.6994ZM9.21916 19.6994L8.62899 20.1622L9.21916 19.6994ZM12 22.0044L12 21.2544L12 22.0044ZM15.584 8.46947C15.8438 8.14693 15.7931 7.67478 15.4705 7.41489C15.148 7.155 14.6758 7.20579 14.4159 7.52833L15.584 8.46947ZM12.9784 10.5077L12.3944 10.0371L12.3944 10.0371L12.9784 10.5077ZM9.52145 10.5077L8.93745 10.9783L8.93745 10.9783L9.52145 10.5077ZM9.58396 9.3899C9.32407 9.06736 8.85192 9.01658 8.52938 9.27647C8.20684 9.53636 8.15606 10.0085 8.41595 10.331L9.58396 9.3899ZM19.2499 9.60759C19.2499 10.8341 18.6103 12.4753 17.6037 14.2549C16.6137 16.0052 15.3342 17.7783 14.1906 19.2366L15.3709 20.1622C16.5371 18.6751 17.8672 16.8358 18.9093 14.9934C19.9348 13.1803 20.7499 11.2483 20.7499 9.60759H19.2499ZM9.80933 19.2366C8.66573 17.7783 7.38623 16.0052 6.39621 14.2549C5.38957 12.4753 4.74995 10.8341 4.74995 9.60759H3.24995C3.24995 11.2483 4.06506 13.1803 5.09059 14.9934C6.13273 16.8358 7.46283 18.6751 8.62899 20.1622L9.80933 19.2366ZM4.74995 9.60759C4.74995 5.21461 8.04673 1.7489 12 1.7489V0.248902C7.11661 0.248902 3.24995 4.49167 3.24995 9.60759H4.74995ZM12 1.7489C15.9532 1.7489 19.2499 5.21461 19.2499 9.60759H20.7499C20.7499 4.49167 16.8833 0.248902 12 0.248902V1.7489ZM14.1906 19.2366C13.5716 20.0259 13.1641 20.5415 12.7991 20.873C12.4663 21.1753 12.2441 21.2544 12 21.2544L12 22.7544C12.729 22.7544 13.2947 22.4493 13.8077 21.9833C14.2886 21.5464 14.7848 20.9095 15.3709 20.1622L14.1906 19.2366ZM8.62899 20.1622C9.21506 20.9095 9.71131 21.5464 10.1922 21.9833C10.7052 22.4493 11.2709 22.7544 12 22.7544L12 21.2544C11.7558 21.2544 11.5336 21.1753 11.2008 20.873C10.8358 20.5415 10.4283 20.0259 9.80933 19.2366L8.62899 20.1622ZM14.4159 7.52833L12.3944 10.0371L13.5625 10.9783L15.584 8.46947L14.4159 7.52833ZM10.1055 10.0371L9.58396 9.3899L8.41595 10.331L8.93745 10.9783L10.1055 10.0371ZM12.3944 10.0371C11.9794 10.5522 11.7175 10.8744 11.4995 11.078C11.3971 11.1736 11.3316 11.2162 11.294 11.235C11.2647 11.2497 11.2551 11.2489 11.25 11.2489V12.7489C11.7877 12.7489 12.1954 12.4805 12.5233 12.1742C12.8376 11.8807 13.1765 11.4573 13.5625 10.9783L12.3944 10.0371ZM8.93745 10.9783C9.32342 11.4573 9.66231 11.8807 9.9766 12.1742C10.3045 12.4805 10.7122 12.7489 11.25 12.7489V11.2489C11.2448 11.2489 11.2352 11.2497 11.2059 11.235C11.1683 11.2162 11.1028 11.1736 11.0004 11.078C10.7824 10.8744 10.5205 10.5522 10.1055 10.0371L8.93745 10.9783Z" fill="black"/>
</svg>
