<svg width="24" height="25" viewBox="0 0 24 25" fill="none" xmlns="http://www.w3.org/2000/svg">
<path d="M6.45487 22.7544L6.68663 22.0411L6.45487 22.7544ZM3.24467 19.5442L3.95796 19.3125L3.24467 19.5442ZM20.7552 19.5442L20.0419 19.3125L20.7552 19.5442ZM17.545 22.7544L17.3133 22.0411L17.545 22.7544ZM17.545 9.24386L17.3133 9.95715L17.545 9.24386ZM20.7552 12.4541L20.0419 12.6858L20.7552 12.4541ZM6.45487 9.24386L6.68663 9.95715L6.45487 9.24386ZM3.24467 12.4541L3.95796 12.6858L3.24467 12.4541ZM12.75 13.9991C12.75 13.5849 12.4142 13.2491 12 13.2491C11.5857 13.2491 11.25 13.5849 11.25 13.9991H12.75ZM11.25 17.9991C11.25 18.4134 11.5857 18.7491 12 18.7491C12.4142 18.7491 12.75 18.4134 12.75 17.9991H11.25ZM9.99995 9.74914H13.9999V8.24914H9.99995V9.74914ZM13.9999 22.2491H9.99995V23.7491H13.9999V22.2491ZM9.99995 22.2491C8.0803 22.2491 7.29834 22.2399 6.68663 22.0411L6.22311 23.4677C7.11772 23.7584 8.19705 23.7491 9.99995 23.7491V22.2491ZM2.24995 15.9991C2.24995 17.802 2.2407 18.8814 2.53138 19.776L3.95796 19.3125C3.75921 18.7007 3.74995 17.9188 3.74995 15.9991H2.24995ZM6.68663 22.0411C5.39277 21.6207 4.37836 20.6063 3.95796 19.3125L2.53138 19.776C3.10016 21.5265 4.47259 22.8989 6.22311 23.4677L6.68663 22.0411ZM20.2499 15.9991C20.2499 17.9188 20.2407 18.7007 20.0419 19.3125L21.4685 19.776C21.7592 18.8814 21.7499 17.802 21.7499 15.9991H20.2499ZM13.9999 23.7491C15.8029 23.7491 16.8822 23.7584 17.7768 23.4677L17.3133 22.0411C16.7016 22.2399 15.9196 22.2491 13.9999 22.2491V23.7491ZM20.0419 19.3125C19.6215 20.6063 18.6071 21.6207 17.3133 22.0411L17.7768 23.4677C19.5273 22.8989 20.8997 21.5265 21.4685 19.776L20.0419 19.3125ZM21.7499 15.9991C21.7499 14.1962 21.7592 13.1169 21.4685 12.2223L20.0419 12.6858C20.2407 13.2975 20.2499 14.0795 20.2499 15.9991H21.7499ZM17.3133 9.95715C18.6071 10.3776 19.6215 11.392 20.0419 12.6858L21.4685 12.2223C20.8997 10.4718 19.5273 9.09935 17.7768 8.53057L17.3133 9.95715ZM3.74995 15.9991C3.74995 14.0795 3.75921 13.2975 3.95796 12.6858L2.53138 12.2223C2.2407 13.1169 2.24995 14.1962 2.24995 15.9991H3.74995ZM6.22311 8.53057C4.47259 9.09935 3.10016 10.4718 2.53138 12.2223L3.95796 12.6858C4.37836 11.392 5.39277 10.3776 6.68663 9.95715L6.22311 8.53057ZM16.2499 7.99914V8.99914H17.7499V7.99914H16.2499ZM7.74995 8.99914V7.99914H6.24995V8.99914H7.74995ZM12 3.74915C14.3472 3.74915 16.2499 5.65193 16.2499 7.99914H17.7499C17.7499 4.82351 15.1756 2.24915 12 2.24915V3.74915ZM12 2.24915C8.82431 2.24915 6.24995 4.82351 6.24995 7.99914H7.74995C7.74995 5.65193 9.65274 3.74915 12 3.74915V2.24915ZM11.25 13.9991V17.9991H12.75V13.9991H11.25ZM9.99995 8.24914C8.58848 8.24914 7.62775 8.24653 6.87536 8.37328L7.12455 9.85244C7.72215 9.75176 8.5281 9.74914 9.99995 9.74914V8.24914ZM6.87536 8.37328C6.64767 8.41164 6.43253 8.46252 6.22311 8.53057L6.68663 9.95715C6.8168 9.91486 6.9593 9.88028 7.12455 9.85244L6.87536 8.37328ZM6.24995 8.99914V9.11286H7.74995V8.99914H6.24995ZM13.9999 9.74914C15.4718 9.74914 16.2778 9.75176 16.8754 9.85244L17.1245 8.37328C16.3722 8.24653 15.4114 8.24914 13.9999 8.24914V9.74914ZM16.8754 9.85244C17.0406 9.88028 17.1831 9.91486 17.3133 9.95715L17.7768 8.53057C17.5674 8.46252 17.3522 8.41164 17.1245 8.37328L16.8754 9.85244ZM16.2499 8.99914V9.11286H17.7499V8.99914H16.2499Z" fill="black"/>
</svg>
