<svg width="24" height="25" viewBox="0 0 24 25" fill="none" xmlns="http://www.w3.org/2000/svg">
<path d="M6.45519 22.7544L6.68695 22.0411L6.45519 22.7544ZM3.24499 19.5442L3.95828 19.3125L3.24499 19.5442ZM20.7556 19.5442L20.0423 19.3125L20.7556 19.5442ZM17.5454 22.7544L17.3136 22.0411L17.5454 22.7544ZM17.5454 9.24386L17.3136 9.95715L17.5454 9.24386ZM20.7556 12.4541L20.0423 12.6858L20.7556 12.4541ZM6.45519 9.24386L6.68695 9.95715L6.45519 9.24386ZM3.24499 12.4541L3.95828 12.6858L3.24499 12.4541ZM10.0003 9.74914H14.0003V8.24914H10.0003V9.74914ZM14.0003 22.2491H10.0003V23.7491H14.0003V22.2491ZM10.0003 22.2491C8.08062 22.2491 7.29866 22.2399 6.68695 22.0411L6.22343 23.4677C7.11804 23.7584 8.19737 23.7491 10.0003 23.7491V22.2491ZM2.25027 15.9991C2.25027 17.802 2.24102 18.8814 2.5317 19.776L3.95828 19.3125C3.75953 18.7007 3.75027 17.9188 3.75027 15.9991H2.25027ZM6.68695 22.0411C5.39309 21.6207 4.37869 20.6063 3.95828 19.3125L2.5317 19.776C3.10048 21.5265 4.47291 22.8989 6.22343 23.4677L6.68695 22.0411ZM20.2503 15.9991C20.2503 17.9188 20.241 18.7007 20.0423 19.3125L21.4688 19.776C21.7595 18.8814 21.7503 17.802 21.7503 15.9991H20.2503ZM14.0003 23.7491C15.8032 23.7491 16.8825 23.7584 17.7771 23.4677L17.3136 22.0411C16.7019 22.2399 15.9199 22.2491 14.0003 22.2491V23.7491ZM20.0423 19.3125C19.6219 20.6063 18.6075 21.6207 17.3136 22.0411L17.7771 23.4677C19.5276 22.8989 20.9001 21.5265 21.4688 19.776L20.0423 19.3125ZM21.7503 15.9991C21.7503 14.1962 21.7595 13.1169 21.4688 12.2223L20.0423 12.6858C20.241 13.2975 20.2503 14.0795 20.2503 15.9991H21.7503ZM17.3136 9.95715C18.6075 10.3776 19.6219 11.392 20.0423 12.6858L21.4688 12.2223C20.9001 10.4718 19.5276 9.09935 17.7771 8.53057L17.3136 9.95715ZM3.75027 15.9991C3.75027 14.0795 3.75953 13.2975 3.95828 12.6858L2.5317 12.2223C2.24102 13.1169 2.25027 14.1962 2.25027 15.9991H3.75027ZM6.22343 8.53057C4.47291 9.09935 3.10048 10.4718 2.5317 12.2223L3.95828 12.6858C4.37868 11.392 5.39309 10.3776 6.68695 9.95715L6.22343 8.53057ZM16.2503 7.99914V8.99914H17.7503V7.99914H16.2503ZM7.75027 8.99914V7.99914H6.25027V8.99914H7.75027ZM12.0003 3.74915C14.3475 3.74915 16.2503 5.65193 16.2503 7.99914H17.7503C17.7503 4.82351 15.1759 2.24915 12.0003 2.24915V3.74915ZM12.0003 2.24915C8.82464 2.24915 6.25027 4.82351 6.25027 7.99914H7.75027C7.75027 5.65193 9.65306 3.74915 12.0003 3.74915V2.24915ZM9.25027 15.9991C9.25027 17.5179 10.4815 18.7491 12.0003 18.7491V17.2491C11.3099 17.2491 10.7503 16.6895 10.7503 15.9991H9.25027ZM12.0003 18.7491C13.5191 18.7491 14.7503 17.5179 14.7503 15.9991H13.2503C13.2503 16.6895 12.6906 17.2491 12.0003 17.2491V18.7491ZM14.7503 15.9991C14.7503 14.4804 13.5191 13.2491 12.0003 13.2491V14.7491C12.6906 14.7491 13.2503 15.3088 13.2503 15.9991H14.7503ZM12.0003 13.2491C10.4815 13.2491 9.25027 14.4804 9.25027 15.9991H10.7503C10.7503 15.3088 11.3099 14.7491 12.0003 14.7491V13.2491ZM10.0003 8.24914C8.5888 8.24914 7.62807 8.24653 6.87568 8.37328L7.12487 9.85244C7.72247 9.75176 8.52842 9.74914 10.0003 9.74914V8.24914ZM6.87568 8.37328C6.64799 8.41164 6.43285 8.46252 6.22343 8.53057L6.68695 9.95715C6.81712 9.91486 6.95962 9.88028 7.12487 9.85244L6.87568 8.37328ZM6.25027 8.99914V9.11286H7.75027V8.99914H6.25027ZM14.0003 9.74914C15.4721 9.74914 16.2781 9.75176 16.8757 9.85244L17.1249 8.37328C16.3725 8.24653 15.4117 8.24914 14.0003 8.24914V9.74914ZM16.8757 9.85244C17.0409 9.88028 17.1834 9.91486 17.3136 9.95715L17.7771 8.53057C17.5677 8.46252 17.3526 8.41164 17.1249 8.37328L16.8757 9.85244ZM16.2503 8.99914V9.11286H17.7503V8.99914H16.2503Z" fill="black"/>
</svg>
