<svg width="24" height="25" viewBox="0 0 24 25" fill="none" xmlns="http://www.w3.org/2000/svg">
<path d="M6.45501 22.7544L6.68677 22.0411L6.45501 22.7544ZM3.24481 19.5442L3.9581 19.3124L3.24481 19.5442ZM20.7554 19.5442L20.0421 19.3124L20.7554 19.5442ZM17.5452 22.7544L17.3134 22.0411L17.5452 22.7544ZM17.5452 9.2438L17.3134 9.95709L17.5452 9.2438ZM20.7554 12.454L20.0421 12.6858L20.7554 12.454ZM6.45501 9.2438L6.68677 9.95709L6.45501 9.2438ZM3.24481 12.454L3.9581 12.6858L3.24481 12.454ZM11.2501 19.9991C11.2501 20.4133 11.5859 20.7491 12.0001 20.7491C12.4143 20.7491 12.7501 20.4133 12.7501 19.9991H11.2501ZM10.0001 9.74908H14.0001V8.24908H10.0001V9.74908ZM14.0001 22.2491H10.0001V23.7491H14.0001V22.2491ZM10.0001 22.2491C8.08043 22.2491 7.29848 22.2398 6.68677 22.0411L6.22324 23.4677C7.11786 23.7583 8.19718 23.7491 10.0001 23.7491V22.2491ZM2.25009 15.9991C2.25009 17.802 2.24084 18.8813 2.53152 19.7759L3.9581 19.3124C3.75934 18.7007 3.75009 17.9187 3.75009 15.9991H2.25009ZM6.68677 22.0411C5.39291 21.6207 4.3785 20.6063 3.9581 19.3124L2.53152 19.7759C3.10029 21.5264 4.47272 22.8989 6.22324 23.4677L6.68677 22.0411ZM20.2501 15.9991C20.2501 17.9187 20.2408 18.7007 20.0421 19.3124L21.4687 19.7759C21.7593 18.8813 21.7501 17.802 21.7501 15.9991H20.2501ZM14.0001 23.7491C15.803 23.7491 16.8823 23.7583 17.7769 23.4677L17.3134 22.0411C16.7017 22.2398 15.9197 22.2491 14.0001 22.2491V23.7491ZM20.0421 19.3124C19.6217 20.6063 18.6073 21.6207 17.3134 22.0411L17.7769 23.4677C19.5275 22.8989 20.8999 21.5264 21.4687 19.7759L20.0421 19.3124ZM21.7501 15.9991C21.7501 14.1962 21.7593 13.1168 21.4687 12.2222L20.0421 12.6858C20.2408 13.2975 20.2501 14.0794 20.2501 15.9991H21.7501ZM17.3134 9.95709C18.6073 10.3775 19.6217 11.3919 20.0421 12.6858L21.4687 12.2222C20.8999 10.4717 19.5275 9.09928 17.7769 8.53051L17.3134 9.95709ZM3.75009 15.9991C3.75009 14.0794 3.75934 13.2975 3.9581 12.6858L2.53152 12.2222C2.24084 13.1168 2.25009 14.1962 2.25009 15.9991H3.75009ZM6.22324 8.53051C4.47272 9.09928 3.10029 10.4717 2.53152 12.2222L3.9581 12.6858C4.3785 11.3919 5.39291 10.3775 6.68677 9.95709L6.22324 8.53051ZM16.2501 7.99908V8.99908H17.7501V7.99908H16.2501ZM7.75009 8.99908V7.99908H6.25009V8.99908H7.75009ZM12.0001 3.74908C14.3473 3.74908 16.2501 5.65187 16.2501 7.99908H17.7501C17.7501 4.82345 15.1757 2.24908 12.0001 2.24908V3.74908ZM12.0001 2.24908C8.82445 2.24908 6.25009 4.82345 6.25009 7.99908H7.75009C7.75009 5.65187 9.65288 3.74908 12.0001 3.74908V2.24908ZM11.2501 15.9991V19.9991H12.7501V15.9991H11.2501ZM9.25009 13.9991C9.25009 15.5179 10.4813 16.7491 12.0001 16.7491V15.2491C11.3097 15.2491 10.7501 14.6894 10.7501 13.9991H9.25009ZM12.0001 16.7491C13.5189 16.7491 14.7501 15.5179 14.7501 13.9991H13.2501C13.2501 14.6894 12.6904 15.2491 12.0001 15.2491V16.7491ZM14.7501 13.9991C14.7501 12.4803 13.5189 11.2491 12.0001 11.2491V12.7491C12.6904 12.7491 13.2501 13.3087 13.2501 13.9991H14.7501ZM12.0001 11.2491C10.4813 11.2491 9.25009 12.4803 9.25009 13.9991H10.7501C10.7501 13.3087 11.3097 12.7491 12.0001 12.7491V11.2491ZM10.0001 8.24908C8.58862 8.24908 7.62789 8.24647 6.87549 8.37322L7.12469 9.85238C7.72229 9.7517 8.52824 9.74908 10.0001 9.74908V8.24908ZM6.87549 8.37322C6.64781 8.41158 6.43266 8.46246 6.22324 8.53051L6.68677 9.95709C6.81694 9.9148 6.95944 9.88021 7.12469 9.85238L6.87549 8.37322ZM6.25009 8.99908V9.1128H7.75009V8.99908H6.25009ZM14.0001 9.74908C15.4719 9.74908 16.2779 9.7517 16.8755 9.85238L17.1247 8.37322C16.3723 8.24647 15.4116 8.24908 14.0001 8.24908V9.74908ZM16.8755 9.85238C17.0407 9.88021 17.1832 9.9148 17.3134 9.95709L17.7769 8.53051C17.5675 8.46246 17.3524 8.41158 17.1247 8.37322L16.8755 9.85238ZM16.2501 8.99908V9.1128H17.7501V8.99908H16.2501Z" fill="black"/>
</svg>
