<svg width="24" height="25" viewBox="0 0 24 25" fill="none" xmlns="http://www.w3.org/2000/svg">
<path d="M14 3.99902L14 4.74902L14 3.99902ZM15 3.99902L15 3.24902L15 3.99902ZM21 9.99902L21.75 9.99902V9.99902L21 9.99902ZM21 15.999L20.25 15.999V15.999L21 15.999ZM15 21.999L15 22.749H15L15 21.999ZM14 21.999L14 21.249H14L14 21.999ZM20.9384 17.7812L21.6792 17.8985L21.6792 17.8985L20.9384 17.7812ZM16.7822 21.9375L16.6648 21.1967L16.7822 21.9375ZM16.7822 4.06058L16.8995 3.31982L16.8995 3.31981L16.7822 4.06058ZM20.9384 8.21685L21.6792 8.09952L21.6792 8.09952L20.9384 8.21685ZM10.5496 4.39898C10.2184 4.64775 10.1516 5.1179 10.4003 5.44909C10.6491 5.78028 11.1192 5.8471 11.4504 5.59833L10.5496 4.39898ZM11.4504 20.3997C11.1192 20.1509 10.6491 20.2178 10.4003 20.5489C10.1516 20.8801 10.2184 21.3503 10.5496 21.5991L11.4504 20.3997ZM3 12.249C2.58579 12.249 2.25 12.5848 2.25 12.999C2.25 13.4132 2.58579 13.749 3 13.749L3 12.249ZM16 12.999L16 12.249L16 12.249L16 12.999ZM12.534 16.4113C12.2095 16.6687 12.155 17.1404 12.4123 17.465C12.6697 17.7896 13.1414 17.8441 13.466 17.5867L12.534 16.4113ZM14.763 15.6012L14.297 15.0135L14.297 15.0135L14.763 15.6012ZM14.763 10.3969L14.297 10.9846L14.297 10.9846L14.763 10.3969ZM13.466 8.41134C13.1414 8.15399 12.6697 8.20848 12.4123 8.53305C12.155 8.85762 12.2095 9.32936 12.534 9.58671L13.466 8.41134ZM16.9801 13.2497L17.7208 13.3677L17.7208 13.3677L16.9801 13.2497ZM16.9801 12.7484L17.7208 12.6303L17.7208 12.6303L16.9801 12.7484ZM14 4.74902L15 4.74902L15 3.24902L14 3.24902L14 4.74902ZM20.25 9.99902V15.999H21.75V9.99902H20.25ZM15 21.249H14V22.749H15V21.249ZM20.25 15.999C20.25 16.9567 20.2477 17.3482 20.1977 17.6639L21.6792 17.8985C21.7523 17.4369 21.75 16.8994 21.75 15.999L20.25 15.999ZM15 22.749C15.9003 22.749 16.4378 22.7513 16.8995 22.6782L16.6648 21.1967C16.3492 21.2467 15.9577 21.249 15 21.249L15 22.749ZM20.1977 17.6639C19.9096 19.4824 18.4834 20.9087 16.6648 21.1967L16.8995 22.6782C19.3599 22.2885 21.2895 20.3589 21.6792 17.8985L20.1977 17.6639ZM15 4.74902C15.9577 4.74902 16.3492 4.75135 16.6648 4.80135L16.8995 3.31981C16.4378 3.2467 15.9003 3.24902 15 3.24902L15 4.74902ZM21.75 9.99902C21.75 9.09868 21.7523 8.56118 21.6792 8.09952L20.1977 8.33417C20.2477 8.64984 20.25 9.04136 20.25 9.99902L21.75 9.99902ZM16.6648 4.80135C18.4834 5.08938 19.9096 6.51563 20.1977 8.33417L21.6792 8.09952C21.2895 5.63914 19.3599 3.7095 16.8995 3.31982L16.6648 4.80135ZM14 3.24902C12.7064 3.24902 11.5106 3.67709 10.5496 4.39898L11.4504 5.59833C12.1607 5.06485 13.0424 4.74902 14 4.74902L14 3.24902ZM14 21.249C13.0424 21.249 12.1607 20.9332 11.4504 20.3997L10.5496 21.5991C11.5106 22.321 12.7064 22.749 14 22.749L14 21.249ZM3 13.749L16 13.749L16 12.249L3 12.249L3 13.749ZM13.466 17.5867L15.2289 16.1889L14.297 15.0135L12.534 16.4113L13.466 17.5867ZM15.2289 9.80918L13.466 8.41134L12.534 9.58671L14.297 10.9846L15.2289 9.80918ZM15.2289 16.1889C15.9175 15.6429 16.4852 15.1943 16.8875 14.7935C17.2931 14.3894 17.6294 13.9409 17.7208 13.3677L16.2394 13.1317C16.2225 13.2379 16.1532 13.4077 15.8289 13.7308C15.5012 14.0572 15.0143 14.4447 14.297 15.0135L15.2289 16.1889ZM14.297 10.9846C15.0143 11.5533 15.5012 11.9408 15.8289 12.2672C16.1532 12.5903 16.2225 12.7602 16.2394 12.8664L17.7208 12.6303C17.6294 12.0572 17.2931 11.6086 16.8875 11.2045C16.4852 10.8038 15.9175 10.3552 15.2289 9.80918L14.297 10.9846ZM17.7208 13.3677C17.7402 13.2456 17.75 13.1224 17.75 12.999L16.25 12.999C16.25 13.0431 16.2465 13.0873 16.2394 13.1317L17.7208 13.3677ZM17.75 12.999C17.75 12.8756 17.7402 12.7525 17.7208 12.6303L16.2394 12.8664C16.2465 12.9107 16.25 12.955 16.25 12.999L17.75 12.999ZM16 13.749H17V12.249H16V13.749Z" fill="black"/>
</svg>
