<svg width="24" height="24" viewBox="0 0 24 24" fill="none" xmlns="http://www.w3.org/2000/svg">
<path d="M10.0002 20.999L10.0002 20.249H10.0002V20.999ZM9.00024 20.999L9.00024 21.749H9.00024V20.999ZM3.00024 14.999L3.75024 14.999L3.00024 14.999ZM3.00024 8.99902L2.25024 8.99902L3.00024 8.99902ZM9.00024 2.99902L9.00024 2.24902L9.00024 2.99902ZM10.0002 2.99902L10.0002 3.74902L10.0002 2.99902ZM3.0618 7.21685L2.32104 7.09952L2.32104 7.09952L3.0618 7.21685ZM7.21807 3.06058L7.3354 3.80135L7.3354 3.80135L7.21807 3.06058ZM7.21807 20.9375L7.10074 21.6782L7.10074 21.6782L7.21807 20.9375ZM3.0618 16.7812L2.32104 16.8985L2.32104 16.8985L3.0618 16.7812ZM13.4507 20.5991C13.7819 20.3503 13.8487 19.8801 13.5999 19.5489C13.3511 19.2178 12.881 19.1509 12.5498 19.3997L13.4507 20.5991ZM12.5498 4.59833C12.881 4.8471 13.3511 4.78028 13.5999 4.44909C13.8487 4.1179 13.7819 3.64775 13.4507 3.39898L12.5498 4.59833ZM7.00024 11.249C6.58603 11.249 6.25024 11.5848 6.25024 11.999C6.25024 12.4132 6.58603 12.749 7.00024 12.749L7.00024 11.249ZM20.0002 11.999L20.0002 12.749H20.0002V11.999ZM17.4662 7.41134C17.1416 7.15399 16.6699 7.20848 16.4126 7.53305C16.1552 7.85762 16.2097 8.32936 16.5343 8.5867L17.4662 7.41134ZM18.7632 9.39687L19.2292 8.80918L19.2292 8.80918L18.7632 9.39687ZM18.7632 14.6012L19.2292 15.1889L19.2292 15.1889L18.7632 14.6012ZM16.5343 15.4113C16.2097 15.6687 16.1552 16.1404 16.4126 16.465C16.6699 16.7896 17.1416 16.844 17.4662 16.5867L16.5343 15.4113ZM20.9803 11.7484L21.721 11.6303L21.721 11.6303L20.9803 11.7484ZM20.9803 12.2497L21.721 12.3677L21.721 12.3677L20.9803 12.2497ZM21.0002 11.999L21.7502 11.999L21.0002 11.999ZM10.0002 20.249H9.00024V21.749H10.0002V20.249ZM3.75024 14.999L3.75024 8.99902L2.25024 8.99902L2.25024 14.999L3.75024 14.999ZM9.00024 3.74902L10.0002 3.74902L10.0002 2.24902L9.00024 2.24902L9.00024 3.74902ZM3.75024 8.99902C3.75024 8.04135 3.75257 7.64984 3.80257 7.33417L2.32104 7.09952C2.24792 7.56118 2.25024 8.09867 2.25024 8.99902L3.75024 8.99902ZM9.00024 2.24902C8.0999 2.24902 7.5624 2.2467 7.10074 2.31982L7.3354 3.80135C7.65106 3.75135 8.04258 3.74902 9.00024 3.74902L9.00024 2.24902ZM3.80257 7.33417C4.0906 5.51563 5.51685 4.08938 7.3354 3.80135L7.10074 2.31982C4.64036 2.7095 2.71072 4.63914 2.32104 7.09952L3.80257 7.33417ZM9.00024 20.249C8.04258 20.249 7.65106 20.2467 7.33539 20.1967L7.10074 21.6782C7.5624 21.7513 8.0999 21.749 9.00024 21.749L9.00024 20.249ZM2.25024 14.999C2.25024 15.8994 2.24792 16.4369 2.32104 16.8985L3.80257 16.6639C3.75257 16.3482 3.75024 15.9567 3.75024 14.999L2.25024 14.999ZM7.3354 20.1967C5.51685 19.9087 4.0906 18.4824 3.80257 16.6639L2.32104 16.8985C2.71072 19.3589 4.64036 21.2885 7.10074 21.6782L7.3354 20.1967ZM10.0002 21.749C11.2938 21.749 12.4896 21.321 13.4507 20.5991L12.5498 19.3997C11.8396 19.9332 10.9579 20.249 10.0002 20.249L10.0002 21.749ZM10.0002 3.74902C10.9579 3.74902 11.8396 4.06485 12.5498 4.59833L13.4507 3.39898C12.4896 2.67709 11.2938 2.24902 10.0002 2.24902L10.0002 3.74902ZM7.00024 12.749L20.0002 12.749L20.0002 11.249L7.00024 11.249L7.00024 12.749ZM16.5343 8.5867L18.2972 9.98455L19.2292 8.80918L17.4662 7.41134L16.5343 8.5867ZM18.2972 14.0135L16.5343 15.4113L17.4662 16.5867L19.2292 15.1889L18.2972 14.0135ZM18.2972 9.98455C19.0146 10.5533 19.5014 10.9408 19.8291 11.2672C20.1535 11.5903 20.2228 11.7602 20.2397 11.8664L21.721 11.6303C21.6297 11.0572 21.2934 10.6086 20.8877 10.2045C20.4854 9.80377 19.9178 9.35518 19.2292 8.80918L18.2972 9.98455ZM19.2292 15.1889C19.9178 14.6429 20.4854 14.1943 20.8877 13.7935C21.2934 13.3894 21.6297 12.9409 21.721 12.3677L20.2397 12.1317C20.2228 12.2379 20.1535 12.4077 19.8291 12.7308C19.5014 13.0573 19.0146 13.4447 18.2972 14.0135L19.2292 15.1889ZM20.2397 11.8664C20.2468 11.9107 20.2502 11.955 20.2502 11.999L21.7502 11.999C21.7502 11.8756 21.7405 11.7525 21.721 11.6303L20.2397 11.8664ZM20.2502 11.999C20.2502 12.0431 20.2468 12.0873 20.2397 12.1317L21.721 12.3677C21.7405 12.2456 21.7502 12.1224 21.7502 11.999L20.2502 11.999ZM20.0002 12.749H21.0002V11.249H20.0002V12.749Z" fill="black"/>
</svg>
