<svg width="24" height="24" viewBox="0 0 24 24" fill="none" xmlns="http://www.w3.org/2000/svg">
<path d="M9.00027 3.99878C7.94472 3.99878 6.88916 4.33211 6.00027 4.99878L3.80027 6.64878C3.29666 7.02649 3.00027 7.61926 3.00027 8.24878V16.8778C3.00027 18.4727 4.82111 19.3831 6.09705 18.4262C6.95726 17.781 7.97877 17.4585 9.00027 17.4585M9.00027 3.99878C10.0558 3.99878 11.1114 4.33211 12.0003 4.99878L12.097 5.07136C12.9573 5.71652 13.9788 6.0391 15.0003 6.0391M9.00027 3.99878V4.74878V16.7488V17.4585M15.0003 6.0391C16.0218 6.0391 17.0433 5.71652 17.9035 5.07136C19.1794 4.1144 21.0003 5.02482 21.0003 6.61975V15.2488C21.0003 15.8783 20.7039 16.4711 20.2003 16.8488L18.0003 18.4988C17.1114 19.1654 16.0558 19.4988 15.0003 19.4988M15.0003 6.0391V6.74878V18.7488V19.4988M15.0003 19.4988C13.9447 19.4988 12.8892 19.1654 12.0003 18.4988L11.9035 18.4262C11.0433 17.781 10.0218 17.4585 9.00027 17.4585" stroke="black" stroke-width="1.5" stroke-linecap="round"/>
</svg>
