<svg width="24" height="24" viewBox="0 0 24 24" fill="none" xmlns="http://www.w3.org/2000/svg">
<path d="M11.9996 9.99915C13.1042 9.99915 13.9996 10.8946 13.9996 11.9991C13.9996 13.1037 13.1042 13.9991 11.9996 13.9991C10.8951 13.9991 9.99965 13.1037 9.99965 11.9991C9.99965 10.8946 10.8951 9.99915 11.9996 9.99915Z" stroke="black" stroke-width="1.5"/>
<path d="M3.99965 9.99915C5.10422 9.99915 5.99965 10.8946 5.99965 11.9991C5.99965 13.1037 5.10422 13.9991 3.99965 13.9991C2.89508 13.9991 1.99965 13.1037 1.99965 11.9991C1.99965 10.8946 2.89508 9.99915 3.99965 9.99915Z" stroke="black" stroke-width="1.5"/>
<path d="M19.9996 9.99915C21.1042 9.99915 21.9996 10.8946 21.9996 11.9991C21.9996 13.1037 21.1042 13.9991 19.9996 13.9991C18.8951 13.9991 17.9996 13.1037 17.9996 11.9991C17.9996 10.8946 18.8951 9.99915 19.9996 9.99915Z" stroke="black" stroke-width="1.5"/>
</svg>
