<svg width="24" height="24" viewBox="0 0 24 24" fill="none" xmlns="http://www.w3.org/2000/svg">
<path d="M7.00064 17.9991H21.0006M7.00064 11.9991H21.0006M7.00064 5.99915H21.0006" stroke="black" stroke-width="1.5" stroke-linecap="round"/>
<path d="M5.00027 11.9991C5.00027 12.5514 4.55256 12.9991 4.00027 12.9991C3.44799 12.9991 3.00027 12.5514 3.00027 11.9991C3.00027 11.4469 3.44799 10.9991 4.00027 10.9991C4.55256 10.9991 5.00027 11.4469 5.00027 11.9991Z" fill="black"/>
<path d="M5.00027 5.99915C5.00027 6.55143 4.55256 6.99914 4.00027 6.99914C3.44799 6.99914 3.00027 6.55143 3.00027 5.99915C3.00027 5.44686 3.44799 4.99915 4.00027 4.99915C4.55256 4.99915 5.00027 5.44686 5.00027 5.99915Z" fill="black"/>
<path d="M5.00027 17.9991C5.00027 18.5514 4.55256 18.9991 4.00027 18.9991C3.44799 18.9991 3.00027 18.5514 3.00027 17.9991C3.00027 17.4469 3.44799 16.9991 4.00027 16.9991C4.55256 16.9991 5.00027 17.4469 5.00027 17.9991Z" fill="black"/>
</svg>
