<svg width="24" height="24" viewBox="0 0 24 24" fill="none" xmlns="http://www.w3.org/2000/svg">
<path d="M14.0004 11.999C14.0004 13.1036 13.1049 13.999 12.0004 13.999C10.8958 13.999 10.0004 13.1036 10.0004 11.999C10.0004 10.8944 10.8958 9.99902 12.0004 9.99902C13.1049 9.99902 14.0004 10.8944 14.0004 11.999Z" stroke="black" stroke-width="1.5"/>
<path d="M14.0004 3.99902C14.0004 5.10359 13.1049 5.99902 12.0004 5.99902C10.8958 5.99902 10.0004 5.10359 10.0004 3.99902C10.0004 2.89445 10.8958 1.99902 12.0004 1.99902C13.1049 1.99902 14.0004 2.89445 14.0004 3.99902Z" stroke="black" stroke-width="1.5"/>
<path d="M14.0004 19.999C14.0004 21.1036 13.1049 21.999 12.0004 21.999C10.8958 21.999 10.0004 21.1036 10.0004 19.999C10.0004 18.8944 10.8958 17.999 12.0004 17.999C13.1049 17.999 14.0004 18.8944 14.0004 19.999Z" stroke="black" stroke-width="1.5"/>
</svg>
