<svg width="24" height="24" viewBox="0 0 24 24" fill="none" xmlns="http://www.w3.org/2000/svg">
<path d="M5.99978 11.999C5.99978 13.1036 5.10435 13.999 3.99979 13.999C2.89522 13.999 1.99979 13.1036 1.99979 11.999C1.99979 10.8944 2.89522 9.99902 3.99979 9.99902C5.10435 9.99902 5.99978 10.8944 5.99978 11.999Z" stroke="black" stroke-width="1.5"/>
<path d="M13.9998 11.999C13.9998 13.1036 13.1044 13.999 11.9998 13.999C10.8952 13.999 9.99979 13.1036 9.99979 11.999C9.99979 10.8944 10.8952 9.99902 11.9998 9.99902C13.1044 9.99902 13.9998 10.8944 13.9998 11.999Z" stroke="black" stroke-width="1.5"/>
<path d="M21.9998 11.999C21.9998 13.1036 21.1044 13.999 19.9998 13.999C18.8952 13.999 17.9998 13.1036 17.9998 11.999C17.9998 10.8944 18.8952 9.99902 19.9998 9.99902C21.1044 9.99902 21.9998 10.8944 21.9998 11.999Z" stroke="black" stroke-width="1.5"/>
<path d="M5.99978 3.99902C5.99978 5.10359 5.10435 5.99902 3.99979 5.99902C2.89522 5.99902 1.99979 5.10359 1.99979 3.99902C1.99979 2.89445 2.89522 1.99902 3.99979 1.99902C5.10435 1.99902 5.99978 2.89445 5.99978 3.99902Z" stroke="black" stroke-width="1.5"/>
<path d="M13.9998 3.99902C13.9998 5.10359 13.1044 5.99902 11.9998 5.99902C10.8952 5.99902 9.99979 5.10359 9.99979 3.99902C9.99979 2.89445 10.8952 1.99902 11.9998 1.99902C13.1044 1.99902 13.9998 2.89445 13.9998 3.99902Z" stroke="black" stroke-width="1.5"/>
<path d="M21.9998 3.99902C21.9998 5.10359 21.1044 5.99902 19.9998 5.99902C18.8952 5.99902 17.9998 5.10359 17.9998 3.99902C17.9998 2.89445 18.8952 1.99902 19.9998 1.99902C21.1044 1.99902 21.9998 2.89445 21.9998 3.99902Z" stroke="black" stroke-width="1.5"/>
<path d="M5.99978 19.999C5.99978 21.1036 5.10435 21.999 3.99979 21.999C2.89522 21.999 1.99979 21.1036 1.99979 19.999C1.99979 18.8944 2.89522 17.999 3.99979 17.999C5.10435 17.999 5.99978 18.8944 5.99978 19.999Z" stroke="black" stroke-width="1.5"/>
<path d="M13.9998 19.999C13.9998 21.1036 13.1044 21.999 11.9998 21.999C10.8952 21.999 9.99979 21.1036 9.99979 19.999C9.99979 18.8944 10.8952 17.999 11.9998 17.999C13.1044 17.999 13.9998 18.8944 13.9998 19.999Z" stroke="black" stroke-width="1.5"/>
<path d="M21.9998 19.999C21.9998 21.1036 21.1044 21.999 19.9998 21.999C18.8952 21.999 17.9998 21.1036 17.9998 19.999C17.9998 18.8944 18.8952 17.999 19.9998 17.999C21.1044 17.999 21.9998 18.8944 21.9998 19.999Z" stroke="black" stroke-width="1.5"/>
</svg>
