<svg width="24" height="24" viewBox="0 0 24 24" fill="none" xmlns="http://www.w3.org/2000/svg">
<g clip-path="url(#clip0_0_1)">
<path d="M16.6036 19.5095L17.2999 19.2309L17.2999 19.2309L16.6036 19.5095ZM14.941 20.8146L14.5051 21.4249L14.5051 21.4249L14.941 20.8146ZM19.2694 2.5442L18.9289 3.21246L18.9289 3.21246L19.2694 2.5442ZM21.4545 4.72928L20.7863 5.06978L20.7863 5.06978L21.4545 4.72928ZM6.72953 2.5442L7.07002 3.21246L7.07002 3.21246L6.72953 2.5442ZM4.54445 4.72928L5.2127 5.06978L5.2127 5.06978L4.54445 4.72928ZM8.51998 20.3627L8.95982 20.9702L8.51998 20.3627ZM8.56122 20.333L8.99714 20.9433L8.99714 20.9433L8.56122 20.333ZM10.7764 19.6134L10.7813 20.3634L10.7813 20.3634L10.7764 19.6134ZM5.19629 20.804L5.89393 21.0793L5.19629 20.804ZM6.48941 21.8329L6.04957 21.2254L6.48941 21.8329ZM14.9951 15.8578L14.2459 15.8228L14.9951 15.8578ZM11.2945 19.6089L11.2585 18.8598L11.2945 19.6089ZM3.12285 7.42888L2.77869 6.7625L3.12285 7.42888ZM1.42334 9.15155L0.753241 8.81471L1.42334 9.15155ZM12.8761 7.42888L12.5319 8.09525L12.8761 7.42888ZM14.5756 9.15155L15.2457 8.81471L14.5756 9.15155ZM4.99948 13.2492C4.58527 13.2492 4.24948 13.585 4.24948 13.9992C4.24948 14.4134 4.58527 14.7492 4.99948 14.7492V13.2492ZM10.9995 14.7492C11.4137 14.7492 11.7495 14.4134 11.7495 13.9992C11.7495 13.585 11.4137 13.2492 10.9995 13.2492V14.7492ZM4.03988 7.13211L4.17346 7.87011L4.03988 7.13211ZM12.7475 19.2479L12.4281 18.5693L12.4281 18.5693L12.7475 19.2479ZM11.9995 2.74924H13.9995V1.24924H11.9995V2.74924ZM21.2495 9.99923V14.2276H22.7495V9.99923H21.2495ZM18.2278 17.2492H17.6261V18.7492H18.2278V17.2492ZM17.6261 17.2492C16.3164 17.2492 15.4208 18.572 15.9072 19.788L17.2999 19.2309C17.2076 19.0002 17.3776 18.7492 17.6261 18.7492V17.2492ZM15.9072 19.788C16.0375 20.1137 15.6624 20.4082 15.3769 20.2043L14.5051 21.4249C16.0096 22.4995 17.9866 20.9476 17.2999 19.2309L15.9072 19.788ZM21.2495 14.2276C21.2495 15.8964 19.8966 17.2492 18.2278 17.2492V18.7492C20.7251 18.7492 22.7495 16.7248 22.7495 14.2276H21.2495ZM13.9995 2.74924C15.412 2.74924 16.4263 2.74982 17.2224 2.81487C18.0098 2.8792 18.5175 3.00283 18.9289 3.21246L19.6099 1.87595C18.9518 1.54062 18.2247 1.39176 17.3445 1.31985C16.4732 1.24865 15.3872 1.24924 13.9995 1.24924V2.74924ZM22.7495 9.99923C22.7495 8.61148 22.7501 7.52556 22.6789 6.65417C22.607 5.77403 22.4581 5.04692 22.1228 4.38879L20.7863 5.06978C20.9959 5.4812 21.1195 5.98894 21.1838 6.77632C21.2489 7.57245 21.2495 8.58673 21.2495 9.99923H22.7495ZM18.9289 3.21246C19.7286 3.61992 20.3788 4.27009 20.7863 5.06978L22.1228 4.38879C21.5715 3.30686 20.6919 2.42722 19.6099 1.87595L18.9289 3.21246ZM11.9995 1.24924C10.6117 1.24924 9.5258 1.24865 8.65441 1.31985C7.77427 1.39176 7.04716 1.54062 6.38903 1.87595L7.07002 3.21246C7.48145 3.00283 7.98918 2.8792 8.77656 2.81487C9.5727 2.74982 10.587 2.74924 11.9995 2.74924V1.24924ZM6.38903 1.87595C5.3071 2.42722 4.42746 3.30686 3.87619 4.38879L5.2127 5.06978C5.62016 4.27009 6.27033 3.61992 7.07002 3.21246L6.38903 1.87595ZM8.77726 6.24923H7.2217V7.74923H8.77726V6.24923ZM0.249481 13.3063V16.6398H1.74948V13.3063H0.249481ZM15.7495 15.434V13.3063H14.2495V15.434H15.7495ZM3.93299 20.3633H4.40102V18.8633H3.93299V20.3633ZM6.92924 22.4404L8.95982 20.9702L8.08014 19.7552L6.04957 21.2254L6.92924 22.4404ZM8.95982 20.9702C8.98126 20.9547 8.98938 20.9488 8.99714 20.9433L8.1253 19.7227C8.11272 19.7317 8.10012 19.7408 8.08014 19.7552L8.95982 20.9702ZM10.8386 18.8633C10.8067 18.8633 10.787 18.8633 10.7715 18.8634L10.7813 20.3634C10.7906 20.3633 10.8041 20.3633 10.8386 20.3633V18.8633ZM8.99714 20.9433C9.52058 20.5694 10.1431 20.3675 10.7813 20.3634L10.7715 18.8634C9.8226 18.8696 8.8992 19.1699 8.1253 19.7227L8.99714 20.9433ZM4.40102 20.3633C4.43475 20.3633 4.46383 20.3773 4.48661 20.4114C4.50969 20.4459 4.51541 20.4862 4.49865 20.5287L5.89393 21.0793C6.30758 20.0311 5.55133 18.8633 4.40102 18.8633V20.3633ZM4.49865 20.5287C3.92164 21.9909 5.59092 23.4094 6.92924 22.4404L6.04957 21.2254C6.01469 21.2507 5.99694 21.2495 5.99068 21.2491C5.97767 21.2484 5.9546 21.2423 5.92965 21.2225C5.90474 21.2026 5.89055 21.179 5.88492 21.1602C5.88106 21.1473 5.87646 21.1236 5.89393 21.0793L4.49865 20.5287ZM14.2495 15.434C14.2495 15.6629 14.2493 15.7516 14.2459 15.8228L15.7443 15.8928C15.7497 15.7778 15.7495 15.646 15.7495 15.434H14.2495ZM10.8386 20.3633C11.0714 20.3633 11.2158 20.3636 11.3304 20.3581L11.2585 18.8598C11.1894 18.8631 11.0912 18.8633 10.8386 18.8633V20.3633ZM0.249481 16.6398C0.249481 18.6867 1.8891 20.3633 3.93299 20.3633V18.8633C2.73661 18.8633 1.74948 17.8774 1.74948 16.6398H0.249481ZM1.74948 13.3063C1.74948 12.1902 1.75005 11.3977 1.80004 10.7775C1.84935 10.1658 1.94307 9.78756 2.09345 9.48839L0.753241 8.81471C0.479758 9.35877 0.361545 9.95408 0.304888 10.657C0.248913 11.3514 0.249481 12.2147 0.249481 13.3063H1.74948ZM2.77869 6.7625C1.90503 7.21373 1.1966 7.93271 0.753241 8.81471L2.09345 9.48839C2.39577 8.88696 2.87719 8.39988 3.46701 8.09525L2.77869 6.7625ZM8.77726 7.74923C9.87879 7.74923 10.6592 7.74983 11.2696 7.80038C11.8709 7.85018 12.2402 7.9446 12.5319 8.09525L13.2203 6.7625C12.6801 6.48352 12.089 6.36311 11.3934 6.3055C10.7068 6.24864 9.8537 6.24923 8.77726 6.24923V7.74923ZM15.7495 13.3063C15.7495 12.2147 15.75 11.3514 15.6941 10.657C15.6374 9.95408 15.5192 9.35877 15.2457 8.81471L13.9055 9.48839C14.0559 9.78756 14.1496 10.1658 14.1989 10.7775C14.2489 11.3977 14.2495 12.1902 14.2495 13.3063H15.7495ZM12.5319 8.09525C13.1218 8.39988 13.6032 8.88696 13.9055 9.48839L15.2457 8.81471C14.8024 7.93271 14.0939 7.21373 13.2203 6.7625L12.5319 8.09525ZM4.99948 14.7492H10.9995V13.2492H4.99948V14.7492ZM7.2217 6.24923C5.78035 6.24923 4.7231 6.24626 3.9063 6.3941L4.17346 7.87011C4.82487 7.75221 5.71733 7.74923 7.2217 7.74923V6.24923ZM3.9063 6.3941C3.49856 6.4679 3.12807 6.58206 2.77869 6.7625L3.46701 8.09525C3.65626 7.99751 3.87831 7.92354 4.17346 7.87011L3.9063 6.3941ZM4.78883 7.17184C4.84285 6.15362 4.96871 5.54864 5.2127 5.06978L3.87619 4.38879C3.48813 5.15041 3.34846 6.00827 3.29094 7.09237L4.78883 7.17184ZM14.2459 15.8228C14.1888 17.0466 13.4584 18.0843 12.4281 18.5693L13.067 19.9264C14.5916 19.2087 15.6608 17.6811 15.7443 15.8928L14.2459 15.8228ZM12.4281 18.5693C12.0704 18.7377 11.6758 18.8398 11.2585 18.8598L11.3304 20.3581C11.9481 20.3284 12.5349 20.1769 13.067 19.9264L12.4281 18.5693ZM15.3769 20.2043L13.1835 18.6376L12.3116 19.8582L14.5051 21.4249L15.3769 20.2043Z" fill="black"/>
</g>
<defs>
<clipPath id="clip0_0_1">
<rect width="24" height="24" fill="black" transform="translate(0.000244141 -0.000976562)"/>
</clipPath>
</defs>
</svg>
