<svg width="24" height="24" viewBox="0 0 24 24" fill="none" xmlns="http://www.w3.org/2000/svg">
<path d="M4.50663 4.48909L3.97597 3.95909L3.97597 3.95909L4.50663 4.48909ZM16.5134 4.48909L15.9828 5.01908L15.9828 5.01908L16.5134 4.48909ZM2.96123 13.8393L2.32399 14.2348L2.32399 14.2348L2.96123 13.8393ZM7.17536 18.0577L6.78073 18.6955L6.78073 18.6955L7.17536 18.0577ZM6.82843 17.8586L7.10486 17.1614L7.10486 17.1614L6.82843 17.8586ZM6.12098 17.8732L6.30937 18.5992L6.30938 18.5992L6.12098 17.8732ZM6.45043 17.8014L6.39258 17.0536L6.39258 17.0536L6.45043 17.8014ZM3.1461 14.8946L2.42004 14.7067L2.42004 14.7067L3.1461 14.8946ZM3.21786 14.5645L3.96567 14.6218L3.96567 14.6218L3.21786 14.5645ZM3.1601 14.1849L3.85699 13.9077L3.85699 13.9077L3.1601 14.1849ZM2.80921 16.8836L3.54418 16.7342L3.54418 16.7342L2.80921 16.8836ZM4.1345 18.2106L3.98475 18.9455L3.98475 18.9455L4.1345 18.2106ZM9.00012 18.819L8.82497 19.5483L8.91132 19.569H9.00012V18.819ZM10.048 19.9501L10.5786 19.4201L10.048 19.9501ZM19.9359 10.0497L20.4666 9.51971L20.4666 9.51971L19.9359 10.0497ZM10.048 10.0497L9.51732 9.51971L10.048 10.0497ZM17.7382 21.2239L18.1328 21.8616L17.7382 21.2239ZM18.0239 21.0599L17.7474 20.3627L17.7474 20.3627L18.0239 21.0599ZM18.6065 21.0719L18.7949 20.346L18.6065 21.0719ZM18.3351 21.0128L18.2773 21.7605L18.3351 21.0128ZM21.0564 18.619L21.7824 18.431L21.0564 18.619ZM20.9973 18.3471L20.2495 18.4044L20.9973 18.3471ZM21.2086 17.7499L21.8458 18.1454L21.2086 17.7499ZM21.0448 18.0345L20.3479 17.7573L21.0448 18.0345ZM21.3338 20.257L22.0688 20.4063L22.0688 20.4063L21.3338 20.257ZM20.2424 21.3497L20.0926 20.6148L20.2424 21.3497ZM18.0001 15.7493C18.4143 15.7493 18.7501 15.4135 18.7501 14.9993C18.7501 14.585 18.4143 14.2493 18.0001 14.2493L18.0001 15.7493ZM12.0001 14.2493C11.5859 14.2493 11.2501 14.585 11.2501 14.9993C11.2501 15.4135 11.5859 15.7493 12.0001 15.7493L12.0001 14.2493ZM18.8998 9.19321L18.4796 9.81448L18.4796 9.81448L18.8998 9.19321ZM5.0373 5.01908C8.05991 1.99266 12.9601 1.99266 15.9828 5.01908L17.0441 3.95909C13.4355 0.345993 7.58452 0.345993 3.97597 3.95909L5.0373 5.01908ZM3.59846 13.4438C2.69537 11.9888 2.58127 10.3673 2.93814 8.84692C3.29758 7.31559 4.12732 5.93021 5.0373 5.01908L3.97597 3.95909C2.87516 5.06129 1.903 6.69281 1.47783 8.50415C1.05009 10.3265 1.16868 12.3734 2.32399 14.2348L3.59846 13.4438ZM7.56999 17.4199C7.41961 17.3269 7.25344 17.2203 7.10486 17.1614L6.55199 18.5558C6.53306 18.5483 6.53439 18.5464 6.58087 18.5735C6.62537 18.5994 6.68491 18.6362 6.78073 18.6955L7.56999 17.4199ZM6.30938 18.5992C6.39868 18.576 6.44922 18.563 6.487 18.5544C6.52204 18.5465 6.5223 18.5481 6.50829 18.5491L6.39258 17.0536C6.23485 17.0658 6.07148 17.1112 5.93258 17.1473L6.30938 18.5992ZM7.10486 17.1614C6.86522 17.0664 6.64962 17.0337 6.39258 17.0536L6.50829 18.5491C6.52415 18.5479 6.53203 18.548 6.53444 18.548C6.53632 18.5481 6.53458 18.5481 6.53086 18.5475C6.52714 18.547 6.52549 18.5464 6.52731 18.5469C6.52964 18.5476 6.53719 18.5499 6.55199 18.5558L7.10486 17.1614ZM3.87217 15.0826C3.90822 14.9433 3.95356 14.7799 3.96567 14.6218L2.47006 14.5072C2.47111 14.4934 2.47266 14.4938 2.46475 14.5288C2.4562 14.5666 2.44319 14.6172 2.42004 14.7067L3.87217 15.0826ZM2.32399 14.2348C2.38315 14.3301 2.41973 14.3892 2.44558 14.4334C2.47246 14.4793 2.47062 14.4807 2.46321 14.4621L3.85699 13.9077C3.79778 13.7588 3.69129 13.5934 3.59846 13.4438L2.32399 14.2348ZM3.96567 14.6218C3.98539 14.3645 3.95237 14.1475 3.85699 13.9077L2.46321 14.4621C2.469 14.4767 2.4713 14.4842 2.472 14.4866C2.47256 14.4886 2.47208 14.4872 2.47157 14.4839C2.47105 14.4805 2.4711 14.479 2.47115 14.4811C2.47121 14.4836 2.47125 14.4915 2.47006 14.5072L3.96567 14.6218ZM2.42004 14.7067C2.28431 15.231 2.17265 15.6607 2.10747 16.0068C2.04294 16.3495 2.0056 16.6953 2.07424 17.033L3.54418 16.7342C3.53454 16.6868 3.52726 16.5727 3.58155 16.2845C3.63519 15.9997 3.73111 15.6275 3.87217 15.0826L2.42004 14.7067ZM5.93258 17.1473C5.38831 17.2885 5.01671 17.3846 4.73238 17.4382C4.44457 17.4926 4.3311 17.4852 4.28424 17.4757L3.98475 18.9455C4.32255 19.0143 4.66839 18.9768 5.01068 18.9122C5.35646 18.8469 5.78577 18.7351 6.30937 18.5992L5.93258 17.1473ZM2.07424 17.033C2.26996 17.9959 3.02179 18.7492 3.98475 18.9455L4.28424 17.4757C3.91193 17.3998 3.62021 17.1082 3.54418 16.7342L2.07424 17.033ZM9.17526 18.0898C8.62854 17.9585 8.08928 17.7412 7.56999 17.4199L6.78073 18.6955C7.4403 19.1036 8.12849 19.381 8.82497 19.5483L9.17526 18.0898ZM21.8458 18.1454C22.8195 16.5766 22.9176 14.8534 22.5591 13.326C22.2032 11.8096 21.39 10.4443 20.4666 9.51971L19.4053 10.5797C20.1378 11.3132 20.8086 12.4324 21.0988 13.6688C21.3864 14.8942 21.2928 16.192 20.5714 17.3544L21.8458 18.1454ZM9.51732 20.4801C10.4092 21.3731 11.7715 22.1836 13.2889 22.547C14.8168 22.913 16.5576 22.8363 18.1328 21.8616L17.3435 20.5861C16.1851 21.3029 14.8749 21.3845 13.6383 21.0883C12.3911 20.7896 11.2751 20.1174 10.5786 19.4201L9.51732 20.4801ZM18.1328 21.8616C18.2123 21.8124 18.2596 21.7832 18.2944 21.7629C18.3312 21.7415 18.3254 21.7471 18.3003 21.7571L17.7474 20.3627C17.6112 20.4167 17.4613 20.5132 17.3435 20.5861L18.1328 21.8616ZM18.7949 20.346C18.6859 20.3177 18.5375 20.2762 18.393 20.265L18.2773 21.7605C18.2567 21.7589 18.2499 21.7561 18.2758 21.762C18.3044 21.7685 18.3437 21.7786 18.4181 21.7979L18.7949 20.346ZM18.3003 21.7571C18.3092 21.7535 18.3112 21.7532 18.3082 21.754C18.3046 21.755 18.2977 21.7567 18.2887 21.7581C18.2797 21.7595 18.2726 21.7599 18.2689 21.76C18.2657 21.76 18.2678 21.7598 18.2773 21.7605L18.393 20.265C18.1612 20.2471 17.9635 20.277 17.7474 20.3627L18.3003 21.7571ZM21.7824 18.431C21.7632 18.3566 21.7531 18.3172 21.7466 18.2885C21.7407 18.2627 21.7435 18.2693 21.7451 18.2898L20.2495 18.4044C20.2606 18.5492 20.302 18.6977 20.3303 18.8069L21.7824 18.431ZM20.5714 17.3544C20.4987 17.4715 20.4022 17.6208 20.3479 17.7573L21.7417 18.3117C21.7319 18.3365 21.7263 18.3423 21.7475 18.306C21.7677 18.2714 21.7968 18.2245 21.8458 18.1454L20.5714 17.3544ZM21.7451 18.2898C21.7444 18.2805 21.7446 18.2784 21.7445 18.2815C21.7444 18.2851 21.744 18.2919 21.7427 18.3006C21.7414 18.3093 21.7397 18.3159 21.7388 18.3194C21.7379 18.3223 21.7383 18.3204 21.7417 18.3117L20.3479 17.7573C20.2619 17.9735 20.2317 18.1724 20.2495 18.4044L21.7451 18.2898ZM20.3303 18.8069C20.4469 19.2575 20.5245 19.5589 20.5677 19.788C20.6115 20.0206 20.6016 20.0941 20.5988 20.1076L22.0688 20.4063C22.1305 20.1026 22.0958 19.7974 22.0418 19.5104C21.9871 19.22 21.8937 18.861 21.7824 18.431L20.3303 18.8069ZM18.4181 21.7979C18.8475 21.9093 19.2061 22.0028 19.4963 22.0576C19.783 22.1117 20.0883 22.1466 20.3921 22.0846L20.0926 20.6148C20.0797 20.6175 20.0068 20.6275 19.7746 20.5837C19.5458 20.5405 19.2449 20.4628 18.7949 20.346L18.4181 21.7979ZM20.5988 20.1076C20.5468 20.3636 20.3471 20.563 20.0926 20.6148L20.3921 22.0846C21.2373 21.9124 21.897 21.2513 22.0688 20.4063L20.5988 20.1076ZM18.0001 14.2493L12.0001 14.2493L12.0001 15.7493L18.0001 15.7493L18.0001 14.2493ZM9.51732 9.51971C6.8822 12.1581 6.5448 16.2235 8.50206 19.2284L9.75894 18.4097C8.1804 15.9862 8.45466 12.7064 10.5786 10.5797L9.51732 9.51971ZM8.50206 19.2284C8.79094 19.6719 9.12948 20.0918 9.51732 20.4801L10.5786 19.4201C10.2646 19.1057 9.99151 18.7667 9.75894 18.4097L8.50206 19.2284ZM9.00012 19.569H9.1305V18.069H9.00012V19.569ZM20.4666 9.51971C20.1091 9.1618 19.7248 8.84577 19.3199 8.57194L18.4796 9.81448C18.8056 10.0349 19.1158 10.2899 19.4053 10.5797L20.4666 9.51971ZM19.3199 8.57194C16.3083 6.53521 12.1831 6.85054 9.51732 9.51971L10.5786 10.5797C12.7269 8.42876 16.0525 8.17309 18.4796 9.81448L19.3199 8.57194ZM15.9828 5.01908C17.1913 6.22909 17.9159 7.73775 18.1586 9.30776L19.641 9.07866C19.3514 7.20485 18.4852 5.402 17.0441 3.95909L15.9828 5.01908Z" fill="black"/>
</svg>
