<svg width="24" height="24" viewBox="0 0 24 24" fill="none" xmlns="http://www.w3.org/2000/svg">
<path d="M4.50605 4.48909L3.97539 3.95909L3.97539 3.95909L4.50605 4.48909ZM16.5128 4.48909L15.9822 5.01908L15.9822 5.01908L16.5128 4.48909ZM2.96065 13.8393L2.32341 14.2348L2.32341 14.2348L2.96065 13.8393ZM7.17478 18.0577L6.78015 18.6955L6.78015 18.6955L7.17478 18.0577ZM6.82785 17.8586L7.10428 17.1614L7.10428 17.1614L6.82785 17.8586ZM6.1204 17.8732L6.30879 18.5992L6.3088 18.5992L6.1204 17.8732ZM6.44985 17.8014L6.392 17.0536L6.392 17.0536L6.44985 17.8014ZM3.14552 14.8946L2.41946 14.7067L2.41946 14.7067L3.14552 14.8946ZM3.21728 14.5645L3.96509 14.6218L3.96509 14.6218L3.21728 14.5645ZM3.15952 14.1849L3.85641 13.9077L3.85641 13.9077L3.15952 14.1849ZM2.80863 16.8836L3.5436 16.7342L3.5436 16.7342L2.80863 16.8836ZM4.13392 18.2106L3.98417 18.9455L3.98417 18.9455L4.13392 18.2106ZM8.99954 18.819L8.82439 19.5483L8.91074 19.569H8.99954V18.819ZM10.0474 19.9501L10.5781 19.4201L10.0474 19.9501ZM19.9353 10.0497L20.466 9.51971L20.466 9.51971L19.9353 10.0497ZM10.0474 10.0497L9.51674 9.51971L10.0474 10.0497ZM17.7376 21.2239L18.1322 21.8616L17.7376 21.2239ZM18.0233 21.0599L17.7469 20.3627L17.7469 20.3627L18.0233 21.0599ZM18.6059 21.0719L18.7943 20.346L18.6059 21.0719ZM18.3346 21.0128L18.2767 21.7605L18.3346 21.0128ZM21.0558 18.619L21.7818 18.431L21.0558 18.619ZM20.9967 18.3471L20.2489 18.4044L20.9967 18.3471ZM21.208 17.7499L21.8453 18.1454L21.208 17.7499ZM21.0443 18.0345L20.3474 17.7573L21.0443 18.0345ZM21.3332 20.257L22.0682 20.4063L22.0682 20.4063L21.3332 20.257ZM20.2418 21.3497L20.0921 20.6148L20.2418 21.3497ZM17.9995 15.7493C18.4137 15.7493 18.7495 15.4135 18.7495 14.9993C18.7495 14.585 18.4137 14.2493 17.9995 14.2493L17.9995 15.7493ZM11.9995 14.2493C11.5853 14.2493 11.2495 14.585 11.2495 14.9993C11.2495 15.4135 11.5853 15.7493 11.9995 15.7493L11.9995 14.2493ZM18.8992 9.19321L18.479 9.81448L18.479 9.81448L18.8992 9.19321ZM5.03672 5.01908C8.05933 1.99266 12.9596 1.99266 15.9822 5.01908L17.0435 3.95909C13.435 0.345993 7.58394 0.345993 3.97539 3.95909L5.03672 5.01908ZM3.59788 13.4438C2.69479 11.9888 2.58069 10.3673 2.93756 8.84692C3.297 7.31559 4.12674 5.93021 5.03672 5.01908L3.97539 3.95909C2.87458 5.06129 1.90242 6.69281 1.47725 8.50415C1.04951 10.3265 1.1681 12.3734 2.32341 14.2348L3.59788 13.4438ZM7.56941 17.4199C7.41903 17.3269 7.25286 17.2203 7.10428 17.1614L6.55141 18.5558C6.53248 18.5483 6.53381 18.5464 6.58029 18.5735C6.62479 18.5994 6.68433 18.6362 6.78015 18.6955L7.56941 17.4199ZM6.3088 18.5992C6.3981 18.576 6.44864 18.563 6.48643 18.5544C6.52146 18.5465 6.52172 18.5481 6.50771 18.5491L6.392 17.0536C6.23427 17.0658 6.0709 17.1112 5.932 17.1473L6.3088 18.5992ZM7.10428 17.1614C6.86464 17.0664 6.64904 17.0337 6.392 17.0536L6.50771 18.5491C6.52357 18.5479 6.53145 18.548 6.53386 18.548C6.53574 18.5481 6.534 18.5481 6.53028 18.5475C6.52656 18.547 6.52491 18.5464 6.52673 18.5469C6.52906 18.5476 6.53661 18.5499 6.55142 18.5558L7.10428 17.1614ZM3.87159 15.0826C3.90764 14.9433 3.95298 14.7799 3.96509 14.6218L2.46948 14.5072C2.47053 14.4934 2.47208 14.4938 2.46417 14.5288C2.45562 14.5666 2.44261 14.6172 2.41946 14.7067L3.87159 15.0826ZM2.32341 14.2348C2.38257 14.3301 2.41915 14.3892 2.445 14.4334C2.47188 14.4793 2.47004 14.4807 2.46263 14.4621L3.85641 13.9077C3.7972 13.7588 3.69071 13.5934 3.59788 13.4438L2.32341 14.2348ZM3.96509 14.6218C3.98481 14.3645 3.95179 14.1475 3.85641 13.9077L2.46263 14.4621C2.46842 14.4767 2.47072 14.4842 2.47142 14.4866C2.47198 14.4886 2.4715 14.4872 2.47099 14.4839C2.47047 14.4805 2.47053 14.479 2.47057 14.4811C2.47063 14.4836 2.47067 14.4915 2.46948 14.5072L3.96509 14.6218ZM2.41946 14.7067C2.28373 15.231 2.17207 15.6607 2.10689 16.0068C2.04236 16.3495 2.00502 16.6953 2.07366 17.033L3.5436 16.7342C3.53396 16.6868 3.52668 16.5727 3.58097 16.2845C3.63461 15.9997 3.73053 15.6275 3.87159 15.0826L2.41946 14.7067ZM5.932 17.1473C5.38773 17.2885 5.01613 17.3846 4.7318 17.4382C4.44399 17.4926 4.33052 17.4852 4.28366 17.4757L3.98417 18.9455C4.32197 19.0143 4.66781 18.9768 5.0101 18.9122C5.35588 18.8469 5.78519 18.7351 6.30879 18.5992L5.932 17.1473ZM2.07366 17.033C2.26938 17.9959 3.02121 18.7492 3.98417 18.9455L4.28366 17.4757C3.91135 17.3998 3.61963 17.1082 3.5436 16.7342L2.07366 17.033ZM9.17468 18.0898C8.62796 17.9585 8.0887 17.7412 7.56941 17.4199L6.78015 18.6955C7.43972 19.1036 8.12791 19.381 8.82439 19.5483L9.17468 18.0898ZM21.8453 18.1454C22.819 16.5766 22.917 14.8534 22.5585 13.326C22.2026 11.8096 21.3894 10.4443 20.466 9.51971L19.4047 10.5797C20.1372 11.3132 20.808 12.4324 21.0982 13.6688C21.3858 14.8942 21.2923 16.192 20.5708 17.3544L21.8453 18.1454ZM9.51674 20.4801C10.4086 21.3731 11.7709 22.1836 13.2883 22.547C14.8162 22.913 16.557 22.8363 18.1322 21.8616L17.3429 20.5861C16.1845 21.3029 14.8744 21.3845 13.6377 21.0883C12.3905 20.7896 11.2745 20.1174 10.5781 19.4201L9.51674 20.4801ZM18.1322 21.8616C18.2117 21.8124 18.259 21.7832 18.2938 21.7629C18.3306 21.7415 18.3248 21.7471 18.2997 21.7571L17.7469 20.3627C17.6106 20.4167 17.4607 20.5132 17.3429 20.5861L18.1322 21.8616ZM18.7943 20.346C18.6853 20.3177 18.5369 20.2762 18.3924 20.265L18.2767 21.7605C18.2561 21.7589 18.2493 21.7561 18.2752 21.762C18.3038 21.7685 18.3432 21.7786 18.4175 21.7979L18.7943 20.346ZM18.2997 21.7571C18.3086 21.7535 18.3106 21.7532 18.3076 21.754C18.304 21.755 18.2971 21.7567 18.2881 21.7581C18.2791 21.7595 18.272 21.7599 18.2683 21.76C18.2651 21.76 18.2672 21.7598 18.2767 21.7605L18.3924 20.265C18.1607 20.2471 17.9629 20.277 17.7469 20.3627L18.2997 21.7571ZM21.7818 18.431C21.7626 18.3566 21.7525 18.3172 21.746 18.2885C21.7402 18.2627 21.7429 18.2693 21.7445 18.2898L20.2489 18.4044C20.26 18.5492 20.3014 18.6977 20.3297 18.8069L21.7818 18.431ZM20.5708 17.3544C20.4981 17.4715 20.4017 17.6208 20.3474 17.7573L21.7412 18.3117C21.7313 18.3365 21.7257 18.3423 21.7469 18.306C21.7671 18.2714 21.7962 18.2245 21.8453 18.1454L20.5708 17.3544ZM21.7445 18.2898C21.7438 18.2805 21.744 18.2784 21.7439 18.2815C21.7439 18.2851 21.7435 18.2919 21.7421 18.3006C21.7408 18.3093 21.7392 18.3159 21.7382 18.3194C21.7373 18.3223 21.7377 18.3204 21.7412 18.3117L20.3474 17.7573C20.2614 17.9735 20.2311 18.1724 20.2489 18.4044L21.7445 18.2898ZM20.3297 18.8069C20.4464 19.2575 20.524 19.5589 20.5671 19.788C20.6109 20.0206 20.601 20.0941 20.5983 20.1076L22.0682 20.4063C22.1299 20.1026 22.0952 19.7974 22.0412 19.5104C21.9865 19.22 21.8932 18.861 21.7818 18.431L20.3297 18.8069ZM18.4175 21.7979C18.8469 21.9093 19.2055 22.0028 19.4957 22.0576C19.7824 22.1117 20.0877 22.1466 20.3916 22.0846L20.0921 20.6148C20.0791 20.6175 20.0062 20.6275 19.774 20.5837C19.5453 20.5405 19.2443 20.4628 18.7943 20.346L18.4175 21.7979ZM20.5983 20.1076C20.5462 20.3636 20.3466 20.563 20.0921 20.6148L20.3916 22.0846C21.2367 21.9124 21.8964 21.2513 22.0682 20.4063L20.5983 20.1076ZM17.9995 14.2493L11.9995 14.2493L11.9995 15.7493L17.9995 15.7493L17.9995 14.2493ZM9.51674 9.51971C6.88162 12.1581 6.54422 16.2235 8.50148 19.2284L9.75836 18.4097C8.17982 15.9862 8.45408 12.7064 10.5781 10.5797L9.51674 9.51971ZM8.50148 19.2284C8.79036 19.6719 9.1289 20.0918 9.51674 20.4801L10.5781 19.4201C10.264 19.1057 9.99093 18.7667 9.75836 18.4097L8.50148 19.2284ZM8.99954 19.569H9.12992V18.069H8.99954V19.569ZM20.466 9.51971C20.1085 9.1618 19.7242 8.84577 19.3193 8.57194L18.479 9.81448C18.805 10.0349 19.1152 10.2899 19.4047 10.5797L20.466 9.51971ZM19.3193 8.57194C16.3077 6.53521 12.1826 6.85054 9.51674 9.51971L10.5781 10.5797C12.7263 8.42876 16.052 8.17309 18.479 9.81448L19.3193 8.57194ZM15.9822 5.01908C17.1907 6.22909 17.9154 7.73775 18.158 9.30776L19.6404 9.07866C19.3508 7.20485 18.4846 5.402 17.0435 3.95909L15.9822 5.01908Z" fill="black"/>
</svg>
