<svg width="24" height="24" viewBox="0 0 24 24" fill="none" xmlns="http://www.w3.org/2000/svg">
<path d="M8.09529 20.8898L7.70102 21.5278L7.70102 21.5278L8.09529 20.8898ZM7.68666 20.6556L7.96279 19.9582L7.96279 19.9582L7.68666 20.6556ZM6.85339 20.6728L7.04157 21.3988L6.85339 20.6728ZM7.24144 20.5883L7.29922 21.3361L7.24144 20.5883ZM3.34946 17.1689L2.62345 16.9807L3.34946 17.1689ZM3.43398 16.7805L4.18178 16.8379L3.43398 16.7805ZM3.1317 15.9275L2.49469 16.3233L2.49469 16.3233L3.1317 15.9275ZM3.36594 16.334L2.66917 16.6115L3.36594 16.334ZM2.95265 19.5086L3.68759 19.3591L2.95265 19.5086ZM4.51363 21.0696L4.66319 20.3347L4.51363 21.0696ZM8.05245 13.1071C7.63824 13.1071 7.30245 13.4429 7.30245 13.8571C7.30245 14.2713 7.63824 14.6071 8.05245 14.6071V13.1071ZM16.0525 14.6071C16.4667 14.6071 16.8025 14.2713 16.8025 13.8571C16.8025 13.4429 16.4667 13.1071 16.0525 13.1071V14.6071ZM8.05245 9.10707C7.63824 9.10707 7.30245 9.44286 7.30245 9.85707C7.30245 10.2713 7.63824 10.6071 8.05245 10.6071V9.10707ZM16.0525 10.6071C16.4667 10.6071 16.8025 10.2713 16.8025 9.85707C16.8025 9.44286 16.4667 9.10707 16.0525 9.10707V10.6071ZM5.48228 5.45853C9.09462 1.84618 14.9514 1.84618 18.5637 5.45853L19.6244 4.39787C15.4263 0.199734 8.61975 0.199734 4.42162 4.39787L5.48228 5.45853ZM18.5637 5.45853C22.1761 9.07088 22.1761 14.9277 18.5637 18.54L19.6244 19.6007C23.8225 15.4025 23.8225 8.596 19.6244 4.39787L18.5637 5.45853ZM3.76871 15.5316C2.68281 13.7842 2.54806 11.8395 2.97461 10.0246C3.40374 8.19863 4.39356 6.54725 5.48228 5.45853L4.42162 4.39787C3.14194 5.67754 2.0094 7.57513 1.51439 9.68139C1.01679 11.7987 1.15611 14.1694 2.49469 16.3233L3.76871 15.5316ZM18.5637 18.54C17.5257 19.578 15.8766 20.5679 14.0345 21.0086C12.2029 21.4467 10.2362 21.3312 8.48956 20.2518L7.70102 21.5278C9.86416 22.8646 12.2611 22.9752 14.3835 22.4674C16.4954 21.9622 18.3908 20.8343 19.6244 19.6007L18.5637 18.54ZM8.48956 20.2518C8.30632 20.1386 8.12374 20.022 7.96279 19.9582L7.41053 21.3529C7.39783 21.3479 7.40639 21.3497 7.46264 21.3825C7.51691 21.4141 7.58877 21.4585 7.70102 21.5278L8.48956 20.2518ZM7.04157 21.3988C7.14596 21.3718 7.20783 21.3558 7.25484 21.3452C7.29911 21.3352 7.30651 21.3355 7.29922 21.3361L7.18366 19.8405C7.01271 19.8537 6.83433 19.903 6.66522 19.9468L7.04157 21.3988ZM7.96279 19.9582C7.69949 19.854 7.46601 19.8187 7.18366 19.8405L7.29922 21.3361C7.34203 21.3328 7.35515 21.3351 7.35626 21.3353C7.35737 21.3354 7.3706 21.3371 7.41053 21.3529L7.96279 19.9582ZM4.07547 17.3571C4.11932 17.1879 4.16862 17.0093 4.18178 16.8379L2.68618 16.7231C2.68673 16.7159 2.68706 16.7233 2.67707 16.7675C2.66645 16.8144 2.65052 16.8763 2.62345 16.9807L4.07547 17.3571ZM2.49469 16.3233C2.56398 16.4348 2.60816 16.506 2.63969 16.5599C2.67225 16.6155 2.67414 16.624 2.66917 16.6115L4.06272 16.0565C3.99848 15.8952 3.88178 15.7135 3.76871 15.5316L2.49469 16.3233ZM4.18178 16.8379C4.20347 16.5551 4.16763 16.3199 4.06272 16.0565L2.66917 16.6115C2.68481 16.6508 2.68659 16.6643 2.68684 16.6659C2.68709 16.6675 2.68941 16.6809 2.68618 16.7231L4.18178 16.8379ZM2.62345 16.9807C2.46312 17.5993 2.33298 18.0998 2.25721 18.5016C2.18211 18.8998 2.14204 19.2864 2.21772 19.6582L3.68759 19.3591C3.67105 19.2778 3.66639 19.1234 3.73123 18.7795C3.79542 18.4391 3.90979 17.9963 4.07547 17.3571L2.62345 16.9807ZM6.66522 19.9468C6.026 20.1125 5.58315 20.2269 5.24276 20.291C4.89889 20.3559 4.74443 20.3512 4.66319 20.3347L4.36406 21.8046C4.7359 21.8802 5.12243 21.8402 5.52072 21.7651C5.9225 21.6893 6.42299 21.5592 7.04157 21.3988L6.66522 19.9468ZM2.21772 19.6582C2.43777 20.7395 3.2828 21.5845 4.36406 21.8046L4.66319 20.3347C4.17171 20.2347 3.78761 19.8506 3.68759 19.3591L2.21772 19.6582ZM8.05245 14.6071H16.0525V13.1071H8.05245V14.6071ZM8.05245 10.6071H16.0525V9.10707H8.05245V10.6071Z" fill="black"/>
</svg>
