<svg width="24" height="24" viewBox="0 0 24 24" fill="none" xmlns="http://www.w3.org/2000/svg">
<path d="M20.8901 15.927L21.5281 16.3212L21.5281 16.3212L20.8901 15.927ZM20.6558 16.3356L19.9585 16.0595L19.9585 16.0595L20.6558 16.3356ZM20.6731 17.1689L21.3991 16.9807L20.6731 17.1689ZM20.5886 16.7808L21.3363 16.723L20.5886 16.7808ZM17.1692 20.6728L16.981 21.3988L17.1692 20.6728ZM16.7808 20.5883L16.8381 19.8405L16.7808 20.5883ZM15.9277 20.8905L16.3236 21.5276L16.3236 21.5276L15.9277 20.8905ZM16.3343 20.6563L16.6118 21.3531L16.3343 20.6563ZM19.5089 21.0696L19.3594 20.3347L19.5089 21.0696ZM21.0699 19.5086L20.335 19.3591L21.0699 19.5086ZM7.8574 13.1071C7.44319 13.1071 7.10741 13.4429 7.10741 13.8571C7.10741 14.2713 7.44319 14.6071 7.8574 14.6071V13.1071ZM15.8574 14.6071C16.2716 14.6071 16.6074 14.2713 16.6074 13.8571C16.6074 13.4429 16.2716 13.1071 15.8574 13.1071V14.6071ZM7.8574 9.10711C7.44319 9.10711 7.10741 9.4429 7.10741 9.85711C7.10741 10.2713 7.44319 10.6071 7.8574 10.6071V9.10711ZM15.8574 10.6071C16.2716 10.6071 16.6074 10.2713 16.6074 9.85711C16.6074 9.4429 16.2716 9.10711 15.8574 9.10711V10.6071ZM5.4588 18.54C1.84645 14.9276 1.84645 9.07085 5.4588 5.4585L4.39814 4.39784C0.200009 8.59597 0.200009 15.4025 4.39814 19.6006L5.4588 18.54ZM5.4588 5.4585C9.07115 1.84615 14.9279 1.84615 18.5403 5.4585L19.6009 4.39784C15.4028 0.199704 8.59628 0.199704 4.39814 4.39784L5.4588 5.4585ZM15.5319 20.2535C13.7845 21.3394 11.8398 21.4742 10.0248 21.0476C8.19891 20.6185 6.54752 19.6287 5.4588 18.54L4.39814 19.6006C5.67782 20.8803 7.5754 22.0128 9.68167 22.5079C11.799 23.0055 14.1697 22.8661 16.3236 21.5276L15.5319 20.2535ZM18.5403 5.4585C19.5783 6.49653 20.5682 8.14567 21.0089 9.98775C21.447 11.8194 21.3315 13.786 20.2521 15.5327L21.5281 16.3212C22.8649 14.1581 22.9754 11.7612 22.4677 9.63876C21.9625 7.52681 20.8346 5.63146 19.6009 4.39784L18.5403 5.4585ZM20.2521 15.5327C20.1389 15.7159 20.0223 15.8985 19.9585 16.0595L21.3532 16.6117C21.3481 16.6244 21.35 16.6159 21.3828 16.5596C21.4144 16.5053 21.4587 16.4335 21.5281 16.3212L20.2521 15.5327ZM21.3991 16.9807C21.372 16.8763 21.3561 16.8144 21.3455 16.7674C21.3354 16.7231 21.3358 16.7157 21.3363 16.723L19.8408 16.8386C19.854 17.0095 19.9033 17.1879 19.9471 17.357L21.3991 16.9807ZM19.9585 16.0595C19.8543 16.3228 19.819 16.5562 19.8408 16.8386L21.3363 16.723C21.333 16.6802 21.3354 16.6671 21.3355 16.666C21.3357 16.6649 21.3373 16.6516 21.3532 16.6117L19.9585 16.0595ZM17.3573 19.9468C17.1881 19.9029 17.0096 19.8536 16.8381 19.8405L16.7234 21.3361C16.7162 21.3355 16.7236 21.3352 16.7677 21.3452C16.8147 21.3558 16.8765 21.3717 16.981 21.3988L17.3573 19.9468ZM16.3236 21.5276C16.4351 21.4583 16.5063 21.4141 16.5601 21.3826C16.6157 21.35 16.6243 21.3481 16.6118 21.3531L16.0568 19.9595C15.8955 20.0238 15.7138 20.1405 15.5319 20.2535L16.3236 21.5276ZM16.8381 19.8405C16.5554 19.8188 16.3202 19.8546 16.0568 19.9595L16.6118 21.3531C16.6511 21.3374 16.6645 21.3357 16.6662 21.3354C16.6678 21.3352 16.6812 21.3328 16.7234 21.3361L16.8381 19.8405ZM16.981 21.3988C17.5996 21.5591 18.1001 21.6893 18.5018 21.765C18.9001 21.8401 19.2867 21.8802 19.6585 21.8045L19.3594 20.3347C19.2781 20.3512 19.1237 20.3559 18.7798 20.291C18.4394 20.2268 17.9965 20.1125 17.3573 19.9468L16.981 21.3988ZM19.9471 17.357C20.1128 17.9962 20.2271 18.4391 20.2913 18.7795C20.3562 19.1234 20.3515 19.2778 20.335 19.3591L21.8048 19.6582C21.8805 19.2863 21.8404 18.8998 21.7653 18.5015C21.6896 18.0997 21.5594 17.5993 21.3991 16.9807L19.9471 17.357ZM19.6585 21.8045C20.7398 21.5845 21.5848 20.7394 21.8048 19.6582L20.335 19.3591C20.2349 19.8505 19.8508 20.2346 19.3594 20.3347L19.6585 21.8045ZM7.8574 14.6071H15.8574V13.1071H7.8574V14.6071ZM7.8574 10.6071H15.8574V9.10711H7.8574V10.6071Z" fill="black"/>
</svg>
