<svg width="24" height="24" viewBox="0 0 24 24" fill="none" xmlns="http://www.w3.org/2000/svg">
<path d="M20.8906 15.927L21.5286 16.3213L21.5286 16.3213L20.8906 15.927ZM20.6563 16.3356L19.959 16.0595L19.959 16.0595L20.6563 16.3356ZM20.6736 17.1689L21.3996 16.9807L20.6736 17.1689ZM20.5891 16.7808L21.3368 16.7231L20.5891 16.7808ZM17.1696 20.6728L16.9815 21.3988L17.1696 20.6728ZM16.7812 20.5883L16.8386 19.8405L16.7812 20.5883ZM15.9282 20.8906L16.3241 21.5276L16.3241 21.5276L15.9282 20.8906ZM16.3348 20.6563L16.6123 21.3531L16.3348 20.6563ZM19.5094 21.0696L19.3598 20.3347L19.5094 21.0696ZM21.0704 19.5086L20.3355 19.3591L21.0704 19.5086ZM7.85789 15.1071C7.44368 15.1071 7.10789 15.4429 7.10789 15.8571C7.10789 16.2714 7.44368 16.6071 7.85789 16.6071V15.1071ZM15.8579 16.6071C16.2721 16.6071 16.6079 16.2714 16.6079 15.8571C16.6079 15.4429 16.2721 15.1071 15.8579 15.1071V16.6071ZM7.85789 11.1071C7.44368 11.1071 7.10789 11.4429 7.10789 11.8571C7.10789 12.2714 7.44368 12.6071 7.85789 12.6071V11.1071ZM15.8579 12.6071C16.2721 12.6071 16.6079 12.2714 16.6079 11.8571C16.6079 11.4429 16.2721 11.1071 15.8579 11.1071V12.6071ZM7.85789 7.10715C7.44368 7.10715 7.10789 7.44293 7.10789 7.85715C7.10789 8.27136 7.44368 8.60714 7.85789 8.60714V7.10715ZM15.8579 8.60714C16.2721 8.60714 16.6079 8.27136 16.6079 7.85715C16.6079 7.44293 16.2721 7.10715 15.8579 7.10715V8.60714ZM5.45929 18.54C1.84694 14.9277 1.84694 9.07088 5.45929 5.45853L4.39863 4.39787C0.200497 8.596 0.200497 15.4025 4.39863 19.6007L5.45929 18.54ZM5.45929 5.45853C9.07164 1.84618 14.9284 1.84618 18.5408 5.45853L19.6014 4.39787C15.4033 0.199734 8.59677 0.199734 4.39863 4.39787L5.45929 5.45853ZM15.5323 20.2536C13.785 21.3395 11.8403 21.4742 10.0253 21.0477C8.1994 20.6185 6.54801 19.6287 5.45929 18.54L4.39863 19.6007C5.6783 20.8803 7.57589 22.0129 9.68216 22.5079C11.7994 23.0055 14.1701 22.8662 16.3241 21.5276L15.5323 20.2536ZM18.5408 5.45853C19.5788 6.49656 20.5687 8.1457 21.0094 9.98778C21.4475 11.8194 21.332 13.7861 20.2526 15.5327L21.5286 16.3213C22.8654 14.1581 22.9759 11.7612 22.4682 9.6388C21.963 7.52684 20.835 5.63149 19.6014 4.39787L18.5408 5.45853ZM20.2526 15.5327C20.1393 15.716 20.0227 15.8985 19.959 16.0595L21.3536 16.6117C21.3486 16.6244 21.3505 16.6159 21.3833 16.5596C21.4149 16.5054 21.4592 16.4335 21.5286 16.3213L20.2526 15.5327ZM21.3996 16.9807C21.3725 16.8763 21.3566 16.8144 21.3459 16.7674C21.3359 16.7232 21.3363 16.7158 21.3368 16.7231L19.8413 16.8386C19.8545 17.0096 19.9037 17.1879 19.9476 17.3571L21.3996 16.9807ZM19.959 16.0595C19.8547 16.3228 19.8195 16.5563 19.8413 16.8386L21.3368 16.7231C21.3335 16.6802 21.3359 16.6671 21.336 16.666C21.3362 16.6649 21.3378 16.6517 21.3536 16.6117L19.959 16.0595ZM17.3578 19.9468C17.1886 19.903 17.0101 19.8537 16.8386 19.8405L16.7239 21.3361C16.7167 21.3355 16.7241 21.3352 16.7682 21.3452C16.8152 21.3558 16.877 21.3718 16.9815 21.3988L17.3578 19.9468ZM16.3241 21.5276C16.4356 21.4583 16.5068 21.4141 16.5606 21.3826C16.6162 21.35 16.6248 21.3481 16.6123 21.3531L16.0573 19.9596C15.896 20.0238 15.7143 20.1405 15.5323 20.2536L16.3241 21.5276ZM16.8386 19.8405C16.5559 19.8188 16.3207 19.8546 16.0573 19.9596L16.6123 21.3531C16.6515 21.3375 16.665 21.3357 16.6667 21.3354C16.6683 21.3352 16.6817 21.3329 16.7239 21.3361L16.8386 19.8405ZM16.9815 21.3988C17.6 21.5592 18.1005 21.6893 18.5023 21.7651C18.9006 21.8402 19.2871 21.8802 19.659 21.8046L19.3598 20.3347C19.2786 20.3512 19.1242 20.3559 18.7803 20.291C18.4399 20.2269 17.997 20.1125 17.3578 19.9468L16.9815 21.3988ZM19.9476 17.3571C20.1133 17.9963 20.2276 18.4391 20.2918 18.7795C20.3567 19.1234 20.352 19.2778 20.3355 19.3591L21.8053 19.6582C21.881 19.2864 21.8409 18.8998 21.7658 18.5016C21.6901 18.0998 21.5599 17.5993 21.3996 16.9807L19.9476 17.3571ZM19.659 21.8046C20.7402 21.5845 21.5853 20.7395 21.8053 19.6582L20.3355 19.3591C20.2354 19.8506 19.8513 20.2347 19.3598 20.3347L19.659 21.8046ZM7.85789 16.6071H15.8579V15.1071H7.85789V16.6071ZM7.85789 12.6071H15.8579V11.1071H7.85789V12.6071ZM7.85789 8.60714H15.8579V7.10715H7.85789V8.60714Z" fill="black"/>
</svg>
