<svg width="24" height="24" viewBox="0 0 24 24" fill="none" xmlns="http://www.w3.org/2000/svg">
<path d="M8.60721 11.6067C8.60721 12.159 8.15949 12.6067 7.60721 12.6067C7.05492 12.6067 6.60721 12.159 6.60721 11.6067C6.60721 11.0544 7.05492 10.6067 7.60721 10.6067C8.15949 10.6067 8.60721 11.0544 8.60721 11.6067Z" fill="black"/>
<path d="M12.6072 11.6067C12.6072 12.159 12.1595 12.6067 11.6072 12.6067C11.0549 12.6067 10.6072 12.159 10.6072 11.6067C10.6072 11.0544 11.0549 10.6067 11.6072 10.6067C12.1595 10.6067 12.6072 11.0544 12.6072 11.6067Z" fill="black"/>
<path d="M16.6072 11.6067C16.6072 12.159 16.1595 12.6067 15.6072 12.6067C15.0549 12.6067 14.6072 12.159 14.6072 11.6067C14.6072 11.0544 15.0549 10.6067 15.6072 10.6067C16.1595 10.6067 16.6072 11.0544 16.6072 11.6067Z" fill="black"/>
<path d="M2.52557 4.60672C2.52557 5.71129 3.421 6.60672 4.52557 6.60672C5.63014 6.60672 6.52557 5.71129 6.52557 4.60672C6.52557 3.50215 5.63014 2.60672 4.52557 2.60672C3.421 2.60672 2.52557 3.50215 2.52557 4.60672Z" stroke="black" stroke-width="1.5"/>
<path d="M2.58073 8.0561C2.204 7.83418 1.68324 7.94544 1.54577 8.36049C0.308203 12.0969 1.17586 16.3778 4.14874 19.3507C6.55702 21.7589 11.358 23.789 15.561 21.572C15.7581 21.468 15.9005 21.393 16.0058 21.3389C16.0581 21.312 16.0976 21.2922 16.1276 21.2777C16.1424 21.2705 16.1535 21.2653 16.1617 21.2616L16.1732 21.2566C16.3473 21.1866 16.4309 21.1667 16.4933 21.1594C16.5558 21.1522 16.6417 21.1523 16.8272 21.1805C16.8807 21.1886 16.9658 21.2095 17.2534 21.2841L17.2704 21.2885C17.6559 21.3884 17.9688 21.4695 18.221 21.5234C18.4742 21.5775 18.7197 21.6167 18.9596 21.608C20.4007 21.5561 21.557 20.3999 21.6089 18.9588C21.6175 18.7188 21.5784 18.4733 21.5243 18.2201C21.4704 17.9679 21.3893 17.655 21.2893 17.2694L21.285 17.2526C21.2104 16.965 21.1894 16.8797 21.1813 16.8266C21.1528 16.6396 21.1526 16.5553 21.1596 16.4946C21.1665 16.4339 21.1857 16.3518 21.2556 16.1761L21.2606 16.1648C21.2643 16.1565 21.2695 16.1453 21.2766 16.1303C21.2912 16.0999 21.311 16.0599 21.338 16.0069C21.3923 15.9002 21.4677 15.7557 21.572 15.5559C22.6755 13.4423 22.6886 11.1545 22.1551 9.1378C21.6236 7.12859 20.5371 5.33346 19.3515 4.14787C16.3786 1.17498 12.0977 0.30733 8.36134 1.54491C7.94629 1.68238 7.83503 2.20314 8.05694 2.57987C8.23381 2.88012 8.59744 3.04378 8.92941 2.93781C12.1217 1.91877 15.758 2.67568 18.2909 5.20853C19.287 6.2047 20.2405 7.76545 20.705 9.5214C21.1675 11.2699 21.1326 13.1565 20.2423 14.8617L20.2039 14.9354C20.0323 15.2639 19.9146 15.4893 19.862 15.6214C19.771 15.85 19.6979 16.0732 19.6693 16.3243C19.6406 16.5754 19.6614 16.8093 19.6984 17.0525C19.7198 17.1929 19.7635 17.3614 19.8215 17.5848L19.8329 17.6289C19.9383 18.0353 20.0111 18.3168 20.0574 18.5336C20.1043 18.7531 20.1117 18.8533 20.1099 18.9048C20.0863 19.5598 19.5607 20.0854 18.9057 20.109C18.8542 20.1108 18.754 20.1034 18.5345 20.0565C18.3176 20.0102 18.0362 19.9374 17.6298 19.8321L17.5858 19.8207C17.3622 19.7627 17.1935 19.7189 17.0523 19.6974C16.8075 19.6603 16.5721 19.6401 16.3199 19.6695C16.0677 19.6989 15.8432 19.7725 15.6135 19.8649C15.4808 19.9183 15.2577 20.036 14.9337 20.207L14.8612 20.2453C11.4542 22.0424 7.35028 20.4309 5.2094 18.29C2.67656 15.7572 1.91965 12.1209 2.93867 8.92856C3.04464 8.59659 2.88098 8.23297 2.58073 8.0561Z" fill="black"/>
</svg>
