<svg width="24" height="24" viewBox="0 0 24 24" fill="none" xmlns="http://www.w3.org/2000/svg">
<path d="M4.92872 7.92814L4.39839 8.45847L4.39839 8.45847L4.92872 7.92814ZM2.99979 5.99921L3.53012 5.46888L3.51579 5.45455L3.50072 5.44103L2.99979 5.99921ZM20.9998 5.99921L21.5301 6.52954L21.5301 6.52953L20.9998 5.99921ZM19.0708 7.92814L19.6012 8.45847L19.6012 8.45847L19.0708 7.92814ZM4.06086 20.0443L4.5017 19.4375L4.06086 20.0443ZM2.9547 18.9381L3.56146 18.4973L2.9547 18.9381ZM21.0449 18.9381L20.4381 18.4973L21.0449 18.9381ZM19.9387 20.0443L19.4979 19.4375L19.9387 20.0443ZM19.9387 3.95412L19.4979 4.56088L19.9387 3.95412ZM21.0449 5.06028L20.4381 5.50112L21.0449 5.06028ZM4.06086 3.95412L4.5017 4.56088L4.06086 3.95412ZM2.9547 5.06028L2.34794 4.61944L2.9547 5.06028ZM2.60783 5.64745L1.92966 5.32717L2.60783 5.64745ZM21.3787 5.62023L22.0544 5.29467L21.3787 5.62023ZM5.45905 7.39781L3.53012 5.46888L2.46946 6.52954L4.39839 8.45847L5.45905 7.39781ZM20.4694 5.46888L18.5405 7.39781L19.6012 8.45847L21.5301 6.52954L20.4694 5.46888ZM4.39839 8.45847C6.05006 10.1101 7.34104 11.4034 8.48266 12.2744C9.64159 13.1586 10.7343 13.6781 11.9998 13.6781V12.1781C11.1942 12.1781 10.418 11.8643 9.39253 11.0819C8.34973 10.2862 7.14071 9.07947 5.45905 7.39781L4.39839 8.45847ZM18.5405 7.39781C16.8589 9.07947 15.6498 10.2862 14.607 11.0819C13.5815 11.8643 12.8054 12.1781 11.9998 12.1781V13.6781C13.2652 13.6781 14.358 13.1586 15.5169 12.2744C16.6585 11.4034 17.9495 10.1101 19.6012 8.45847L18.5405 7.39781ZM10.9998 3.74921H12.9998V2.24921H10.9998V3.74921ZM12.9998 20.2492H10.9998V21.7492H12.9998V20.2492ZM10.9998 20.2492C9.10821 20.2492 7.74978 20.2482 6.69783 20.1342C5.65992 20.0217 5.0097 19.8066 4.5017 19.4375L3.62002 20.651C4.42634 21.2369 5.37072 21.4992 6.53626 21.6255C7.68776 21.7502 9.14162 21.7492 10.9998 21.7492V20.2492ZM1.24979 11.9992C1.24979 13.8574 1.24876 15.3112 1.37351 16.4627C1.49979 17.6283 1.76211 18.5726 2.34794 19.379L3.56146 18.4973C3.19238 17.9893 2.97724 17.3391 2.86479 16.3012C2.75082 15.2492 2.74979 13.8908 2.74979 11.9992H1.24979ZM4.5017 19.4375C4.1409 19.1754 3.8236 18.8581 3.56146 18.4973L2.34794 19.379C2.7026 19.8671 3.13188 20.2964 3.62002 20.651L4.5017 19.4375ZM21.2498 11.9992C21.2498 13.8908 21.2487 15.2492 21.1348 16.3012C21.0223 17.3391 20.8072 17.9893 20.4381 18.4973L21.6516 19.379C22.2375 18.5726 22.4998 17.6283 22.626 16.4627C22.7508 15.3112 22.7498 13.8574 22.7498 11.9992H21.2498ZM12.9998 21.7492C14.8579 21.7492 16.3118 21.7502 17.4633 21.6255C18.6288 21.4992 19.5732 21.2369 20.3795 20.651L19.4979 19.4375C18.9899 19.8066 18.3396 20.0217 17.3017 20.1342C16.2498 20.2482 14.8914 20.2492 12.9998 20.2492V21.7492ZM20.4381 18.4973C20.176 18.8581 19.8587 19.1754 19.4979 19.4375L20.3795 20.651C20.8677 20.2964 21.297 19.8671 21.6516 19.379L20.4381 18.4973ZM12.9998 3.74921C14.8914 3.74921 16.2498 3.75024 17.3017 3.86421C18.3396 3.97666 18.9899 4.1918 19.4979 4.56088L20.3795 3.34736C19.5732 2.76153 18.6288 2.49921 17.4633 2.37293C16.3118 2.24818 14.8579 2.24921 12.9998 2.24921V3.74921ZM19.4979 4.56088C19.8587 4.82302 20.176 5.14032 20.4381 5.50112L21.6516 4.61944C21.297 4.1313 20.8677 3.70202 20.3795 3.34736L19.4979 4.56088ZM10.9998 2.24921C9.14162 2.24921 7.68776 2.24818 6.53626 2.37293C5.37072 2.49921 4.42634 2.76153 3.62002 3.34736L4.5017 4.56088C5.0097 4.1918 5.65992 3.97666 6.69783 3.86421C7.74978 3.75024 9.10821 3.74921 10.9998 3.74921V2.24921ZM3.62002 3.34736C3.13188 3.70202 2.7026 4.1313 2.34794 4.61944L3.56146 5.50112C3.8236 5.14032 4.1409 4.82302 4.5017 4.56088L3.62002 3.34736ZM2.74979 11.9992C2.74979 10.3757 2.75026 9.14164 2.82373 8.15194C2.8971 7.16375 3.03975 6.48917 3.28601 5.96773L1.92966 5.32717C1.56787 6.09325 1.4065 6.98157 1.32785 8.04089C1.24932 9.0987 1.24979 10.3968 1.24979 11.9992H2.74979ZM3.28601 5.96773C3.36532 5.79979 3.45637 5.64576 3.56146 5.50112L2.34794 4.61944C2.18626 4.84198 2.0478 5.07701 1.92966 5.32717L3.28601 5.96773ZM3.50072 5.44103L3.10877 5.08927L2.1069 6.20563L2.49885 6.55738L3.50072 5.44103ZM22.7498 11.9992C22.7498 10.3856 22.7503 9.08045 22.67 8.01825C22.5896 6.95427 22.4246 6.06299 22.0544 5.29467L20.7031 5.9458C20.9539 6.4663 21.0994 7.14014 21.1743 8.13125C21.2493 9.12413 21.2498 10.364 21.2498 11.9992H22.7498ZM22.0544 5.29467C21.9397 5.05655 21.8062 4.83224 21.6516 4.61944L20.4381 5.50112C20.5387 5.63952 20.6263 5.78643 20.7031 5.9458L22.0544 5.29467ZM21.5301 6.52953L21.9091 6.15056L20.8484 5.0899L20.4694 5.46888L21.5301 6.52953Z" fill="black"/>
</svg>
