<svg width="24" height="24" viewBox="0 0 24 24" fill="none" xmlns="http://www.w3.org/2000/svg">
<path d="M20.9999 9.9993C20.9999 7.19903 20.9999 5.7989 20.455 4.72934C19.9756 3.78853 19.2107 3.02363 18.2699 2.54427C17.2003 1.9993 15.8002 1.9993 13 1.9993H11C8.19969 1.9993 6.79956 1.9993 5.73 2.54427C4.78919 3.02363 4.02429 3.78853 3.54492 4.72934C2.99995 5.7989 2.99995 7.19903 2.99995 9.9993V14.2276C2.99995 16.3107 4.68858 17.9993 6.77161 17.9993H7.37336C8.15246 17.9993 8.6852 18.7862 8.39585 19.5095C7.98738 20.5307 9.16345 21.4539 10.0584 20.8147L12.6692 18.9499C12.6958 18.9308 12.7091 18.9213 12.7222 18.9121C13.5562 18.3244 14.55 18.0059 15.5703 17.9994C15.5863 17.9993 15.6076 17.9993 15.6503 17.9993C15.9623 17.9993 16.1182 17.9993 16.2364 17.9937C18.8119 17.8718 20.8724 15.8113 20.9944 13.2357C20.9999 13.1176 20.9999 12.9778 20.9999 12.6981V9.9993Z" stroke="black" stroke-width="1.5"/>
<path d="M9.00032 9.99927C9.00032 10.5516 8.5526 10.9993 8.00032 10.9993C7.44804 10.9993 7.00032 10.5516 7.00032 9.99927C7.00032 9.44698 7.44804 8.99927 8.00032 8.99927C8.5526 8.99927 9.00032 9.44698 9.00032 9.99927Z" fill="black"/>
<path d="M13.0003 9.99927C13.0003 10.5516 12.5526 10.9993 12.0003 10.9993C11.448 10.9993 11.0003 10.5516 11.0003 9.99927C11.0003 9.44698 11.448 8.99927 12.0003 8.99927C12.5526 8.99927 13.0003 9.44698 13.0003 9.99927Z" fill="black"/>
<path d="M17.0003 9.99927C17.0003 10.5516 16.5526 10.9993 16.0003 10.9993C15.448 10.9993 15.0003 10.5516 15.0003 9.99927C15.0003 9.44698 15.448 8.99927 16.0003 8.99927C16.5526 8.99927 17.0003 9.44698 17.0003 9.99927Z" fill="black"/>
</svg>
