<svg width="24" height="24" viewBox="0 0 24 24" fill="none" xmlns="http://www.w3.org/2000/svg">
<path d="M9.1468 18.8442C7.36058 16.1276 7.66092 12.4396 10.0478 10.0497C12.4549 7.63965 16.1802 7.35415 18.8996 9.19321M9.1468 18.8442C9.40391 19.2352 9.70425 19.6061 10.0478 19.9501C11.6361 21.5404 15.0043 22.9153 17.738 21.2239C17.8901 21.1297 17.9662 21.0827 18.0237 21.0599C18.1337 21.0163 18.2171 21.0036 18.335 21.0128C18.3967 21.0175 18.4666 21.0357 18.6063 21.0719C19.4857 21.3002 19.9255 21.4143 20.2422 21.3497C20.7921 21.2377 21.2218 20.8075 21.3336 20.257C21.3981 19.9398 21.2841 19.4995 21.0562 18.619C21.02 18.479 21.0019 18.409 20.9971 18.3471C20.9881 18.229 21.0009 18.1445 21.0447 18.0345C21.0676 17.9768 21.1146 17.9011 21.2085 17.7499C22.9036 15.0187 21.5917 11.7077 19.9358 10.0497C19.6123 9.72584 19.2651 9.44034 18.8996 9.19321M9.1468 18.8442L8.99997 18.819C8.37836 18.6697 7.76464 18.4224 7.17521 18.0577C6.99048 17.9434 6.89811 17.8863 6.82827 17.8586C6.69474 17.8056 6.59347 17.7903 6.45028 17.8014C6.37539 17.8072 6.29053 17.8292 6.12083 17.8732C5.05295 18.1504 4.51901 18.2889 4.13434 18.2106C3.46671 18.0745 2.94493 17.5521 2.80906 16.8836C2.73078 16.4985 2.86917 15.9638 3.14595 14.8946C3.18995 14.7247 3.21195 14.6397 3.21771 14.5645C3.2287 14.4211 3.21309 14.3185 3.15995 14.1849C3.13207 14.1148 3.07507 14.023 2.96107 13.8393C0.902673 10.5229 2.4957 6.5024 4.50648 4.48909C7.82206 1.16933 13.1977 1.16933 16.5133 4.48909C17.8381 5.81554 18.6335 7.4713 18.8996 9.19321" stroke="black" stroke-width="1.5"/>
<path d="M13.0003 14.9992C13.0003 15.5515 12.5526 15.9992 12.0003 15.9992C11.448 15.9992 11.0003 15.5515 11.0003 14.9992C11.0003 14.4469 11.448 13.9992 12.0003 13.9992C12.5526 13.9992 13.0003 14.4469 13.0003 14.9992Z" fill="black"/>
<path d="M16.0003 14.9992C16.0003 15.5515 15.5526 15.9992 15.0003 15.9992C14.448 15.9992 14.0003 15.5515 14.0003 14.9992C14.0003 14.4469 14.448 13.9992 15.0003 13.9992C15.5526 13.9992 16.0003 14.4469 16.0003 14.9992Z" fill="black"/>
<path d="M19.0003 14.9992C19.0003 15.5515 18.5526 15.9992 18.0003 15.9992C17.448 15.9992 17.0003 15.5515 17.0003 14.9992C17.0003 14.4469 17.448 13.9992 18.0003 13.9992C18.5526 13.9992 19.0003 14.4469 19.0003 14.9992Z" fill="black"/>
</svg>
