<svg width="24" height="24" viewBox="0 0 24 24" fill="none" xmlns="http://www.w3.org/2000/svg">
<path d="M12.6693 18.9499L13.1052 19.5602L13.1052 19.5602L12.6693 18.9499ZM12.7223 18.9121L12.2903 18.299L12.7223 18.9121ZM15.5704 17.9994L15.5752 18.7494L15.5704 17.9994ZM8.39599 19.5095L9.09235 19.7881L8.39599 19.5095ZM10.0586 20.8147L9.62264 20.2044L9.62264 20.2044L10.0586 20.8147ZM20.9945 13.2357L20.2453 13.2003L20.9945 13.2357ZM16.2365 17.9937L16.2011 17.2445L16.2365 17.9937ZM5.73014 2.54427L6.07063 3.21252L6.07063 3.21252L5.73014 2.54427ZM3.54506 4.72934L4.21331 5.06984L3.54506 4.72934ZM18.27 2.54427L17.9295 3.21252L17.9295 3.21252L18.27 2.54427ZM20.4551 4.72934L19.7869 5.06984L20.4551 4.72934ZM8.00009 11.2493C7.58588 11.2493 7.25009 11.5851 7.25009 11.9993C7.25009 12.4135 7.58588 12.7493 8.00009 12.7493V11.2493ZM16.0001 12.7493C16.4143 12.7493 16.7501 12.4135 16.7501 11.9993C16.7501 11.5851 16.4143 11.2493 16.0001 11.2493V12.7493ZM12.0001 7.2493C11.5859 7.2493 11.2501 7.58508 11.2501 7.9993C11.2501 8.41351 11.5859 8.7493 12.0001 8.7493L12.0001 7.2493ZM16.0001 8.7493C16.4143 8.7493 16.7501 8.41351 16.7501 7.9993C16.7501 7.58508 16.4143 7.2493 16.0001 7.2493L16.0001 8.7493ZM13.0001 1.2493H11.0001V2.7493H13.0001V1.2493ZM2.25009 9.9993V14.2276H3.75009V9.9993H2.25009ZM21.7501 12.6981V9.9993H20.2501V12.6981H21.7501ZM6.77175 18.7493H7.3735V17.2493H6.77175V18.7493ZM10.4945 21.425L13.1052 19.5602L12.2334 18.3396L9.62264 20.2044L10.4945 21.425ZM13.1052 19.5602C13.1326 19.5406 13.1437 19.5327 13.1543 19.5252L12.2903 18.299C12.2748 18.3099 12.2592 18.3211 12.2334 18.3396L13.1052 19.5602ZM15.6504 17.2493C15.6091 17.2493 15.5846 17.2493 15.5656 17.2494L15.5752 18.7494C15.5882 18.7493 15.6064 18.7493 15.6504 18.7493V17.2493ZM13.1543 19.5252C13.8632 19.0256 14.708 18.7549 15.5752 18.7494L15.5656 17.2494C14.3923 17.2569 13.2494 17.6232 12.2903 18.299L13.1543 19.5252ZM7.3735 18.7493C7.622 18.7493 7.79192 19.0003 7.69963 19.231L9.09235 19.7881C9.57876 18.5721 8.6832 17.2493 7.3735 17.2493V18.7493ZM7.69963 19.231C7.01297 20.9477 8.98999 22.4996 10.4945 21.425L9.62264 20.2044C9.33718 20.4083 8.96206 20.1138 9.09235 19.7881L7.69963 19.231ZM20.2501 12.6981C20.2501 12.9863 20.2499 13.1043 20.2453 13.2003L21.7437 13.2712C21.7503 13.1309 21.7501 12.9692 21.7501 12.6981H20.2501ZM15.6504 18.7493C15.9526 18.7493 16.1314 18.7495 16.272 18.7429L16.2011 17.2445C16.1053 17.2491 15.9722 17.2493 15.6504 17.2493V18.7493ZM20.2453 13.2003C20.1417 15.3895 18.3903 17.1409 16.2011 17.2445L16.272 18.7429C19.2339 18.6026 21.6034 16.2331 21.7437 13.2712L20.2453 13.2003ZM2.25009 14.2276C2.25009 16.7249 4.27451 18.7493 6.77175 18.7493V17.2493C5.10293 17.2493 3.75009 15.8965 3.75009 14.2276H2.25009ZM11.0001 1.2493C9.61233 1.2493 8.52641 1.24872 7.65503 1.31991C6.77488 1.39182 6.04778 1.54068 5.38965 1.87601L6.07063 3.21252C6.48206 3.00289 6.98979 2.87926 7.77717 2.81493C8.57331 2.74988 9.58758 2.7493 11.0001 2.7493V1.2493ZM3.75009 9.9993C3.75009 8.58679 3.75067 7.57252 3.81572 6.77638C3.88005 5.989 4.00368 5.48127 4.21331 5.06984L2.8768 4.38885C2.54147 5.04698 2.39261 5.77409 2.3207 6.65423C2.24951 7.52562 2.25009 8.61154 2.25009 9.9993H3.75009ZM5.38965 1.87601C4.30771 2.42728 3.42808 3.30692 2.8768 4.38885L4.21331 5.06984C4.62078 4.27015 5.27094 3.61998 6.07063 3.21252L5.38965 1.87601ZM13.0001 2.7493C14.4126 2.7493 15.4269 2.74988 16.223 2.81493C17.0104 2.87926 17.5181 3.00289 17.9295 3.21252L18.6105 1.87601C17.9524 1.54068 17.2253 1.39182 16.3452 1.31991C15.4738 1.24872 14.3878 1.2493 13.0001 1.2493V2.7493ZM21.7501 9.9993C21.7501 8.61154 21.7507 7.52562 21.6795 6.65423C21.6076 5.77409 21.4587 5.04698 21.1234 4.38885L19.7869 5.06984C19.9965 5.48127 20.1201 5.989 20.1845 6.77638C20.2495 7.57252 20.2501 8.58679 20.2501 9.9993H21.7501ZM17.9295 3.21252C18.7292 3.61998 19.3794 4.27015 19.7869 5.06984L21.1234 4.38885C20.5721 3.30692 19.6925 2.42728 18.6105 1.87601L17.9295 3.21252ZM8.00009 12.7493H16.0001V11.2493H8.00009V12.7493ZM12.0001 8.7493L16.0001 8.7493L16.0001 7.2493L12.0001 7.2493L12.0001 8.7493Z" fill="black"/>
</svg>
