<svg width="24" height="24" viewBox="0 0 24 24" fill="none" xmlns="http://www.w3.org/2000/svg">
<path d="M14.8528 18.8442C16.639 16.1276 16.3387 12.4396 13.9518 10.0497C11.5448 7.63965 7.81935 7.35415 5.09998 9.19321M14.8528 18.8442C14.5957 19.2352 14.2953 19.6061 13.9518 19.9501C12.3635 21.5404 8.99527 22.9153 6.2616 21.2239C6.10947 21.1297 6.03341 21.0827 5.97589 21.0599C5.86593 21.0163 5.78253 21.0036 5.66461 21.0128C5.60293 21.0175 5.53305 21.0357 5.39329 21.0719C4.51386 21.3002 4.07414 21.4143 3.75736 21.3497C3.20754 21.2377 2.77785 20.8075 2.66595 20.257C2.60148 19.9398 2.71545 19.4995 2.94339 18.619C2.97963 18.479 2.99774 18.409 3.00249 18.3471C3.01154 18.229 2.99868 18.1445 2.95492 18.0345C2.93196 17.9768 2.88502 17.9011 2.79114 17.7499C1.09599 15.0187 2.40789 11.7077 4.06383 10.0497C4.38728 9.72584 4.73455 9.44034 5.09998 9.19321M14.8528 18.8442L14.9996 18.819C15.6212 18.6697 16.235 18.4224 16.8244 18.0577C17.0091 17.9434 17.1015 17.8863 17.1713 17.8586C17.3049 17.8056 17.4061 17.7903 17.5493 17.8014C17.6242 17.8072 17.7091 17.8292 17.8788 17.8732C18.9467 18.1504 19.4806 18.2889 19.8653 18.2106C20.5329 18.0745 21.0547 17.5521 21.1905 16.8836C21.2688 16.4985 21.1304 15.9638 20.8537 14.8946C20.8097 14.7247 20.7877 14.6397 20.7819 14.5645C20.7709 14.4211 20.7865 14.3185 20.8397 14.1849C20.8675 14.1148 20.9245 14.023 21.0385 13.8393C23.0969 10.5229 21.5039 6.5024 19.4931 4.48909C16.1775 1.16933 10.8019 1.16933 7.48633 4.48909C6.16154 5.81554 5.36609 7.4713 5.09998 9.19321" stroke="black" stroke-width="1.5"/>
<path d="M10.9997 14.9992C10.9997 15.5515 11.4474 15.9992 11.9997 15.9992C12.5519 15.9992 12.9997 15.5515 12.9997 14.9992C12.9997 14.4469 12.5519 13.9992 11.9997 13.9992C11.4474 13.9992 10.9997 14.4469 10.9997 14.9992Z" fill="black"/>
<path d="M7.99967 14.9992C7.99967 15.5515 8.44738 15.9992 8.99967 15.9992C9.55195 15.9992 9.99967 15.5515 9.99967 14.9992C9.99967 14.4469 9.55195 13.9992 8.99967 13.9992C8.44738 13.9992 7.99967 14.4469 7.99967 14.9992Z" fill="black"/>
<path d="M4.99967 14.9992C4.99967 15.5515 5.44738 15.9992 5.99967 15.9992C6.55195 15.9992 6.99967 15.5515 6.99967 14.9992C6.99967 14.4469 6.55195 13.9992 5.99967 13.9992C5.44738 13.9992 4.99967 14.4469 4.99967 14.9992Z" fill="black"/>
</svg>
