<svg width="24" height="24" viewBox="0 0 24 24" fill="none" xmlns="http://www.w3.org/2000/svg">
<path d="M8.09541 20.8898L7.70114 21.5278L7.70114 21.5278L8.09541 20.8898ZM7.68678 20.6556L7.96291 19.9582L7.96291 19.9582L7.68678 20.6556ZM6.85351 20.6728L7.04169 21.3988L6.85351 20.6728ZM7.24156 20.5883L7.29934 21.3361L7.24156 20.5883ZM3.34958 17.1689L2.62357 16.9807L3.34958 17.1689ZM3.4341 16.7805L4.1819 16.8379L3.4341 16.7805ZM3.13182 15.9275L2.49481 16.3233L2.49481 16.3233L3.13182 15.9275ZM3.36606 16.334L2.66929 16.6115L3.36606 16.334ZM2.95277 19.5086L3.6877 19.3591L2.95277 19.5086ZM4.51375 21.0696L4.66331 20.3347L4.51375 21.0696ZM8.05257 15.1071C7.63836 15.1071 7.30257 15.4429 7.30257 15.8571C7.30257 16.2713 7.63836 16.6071 8.05257 16.6071V15.1071ZM16.0526 16.6071C16.4668 16.6071 16.8026 16.2713 16.8026 15.8571C16.8026 15.4429 16.4668 15.1071 16.0526 15.1071V16.6071ZM8.05257 11.1071C7.63836 11.1071 7.30257 11.4429 7.30257 11.8571C7.30257 12.2713 7.63836 12.6071 8.05257 12.6071V11.1071ZM16.0526 12.6071C16.4668 12.6071 16.8026 12.2713 16.8026 11.8571C16.8026 11.4429 16.4668 11.1071 16.0526 11.1071V12.6071ZM8.05257 7.10707C7.63836 7.10707 7.30257 7.44286 7.30257 7.85707C7.30257 8.27128 7.63836 8.60707 8.05257 8.60707V7.10707ZM16.0526 8.60707C16.4668 8.60707 16.8026 8.27128 16.8026 7.85707C16.8026 7.44286 16.4668 7.10707 16.0526 7.10707V8.60707ZM5.4824 5.45853C9.09474 1.84618 14.9515 1.84618 18.5639 5.45853L19.6245 4.39787C15.4264 0.199734 8.61987 0.199734 4.42174 4.39787L5.4824 5.45853ZM18.5639 5.45853C22.1762 9.07088 22.1762 14.9277 18.5639 18.54L19.6245 19.6007C23.8227 15.4025 23.8227 8.596 19.6245 4.39787L18.5639 5.45853ZM3.76883 15.5316C2.68293 13.7842 2.54818 11.8395 2.97472 10.0246C3.40386 8.19863 4.39368 6.54725 5.4824 5.45853L4.42174 4.39787C3.14206 5.67754 2.00952 7.57513 1.51451 9.68139C1.01691 11.7987 1.15623 14.1694 2.49481 16.3233L3.76883 15.5316ZM18.5639 18.54C17.5258 19.578 15.8767 20.5679 14.0346 21.0086C12.203 21.4467 10.2363 21.3312 8.48968 20.2518L7.70114 21.5278C9.86428 22.8646 12.2612 22.9752 14.3836 22.4674C16.4956 21.9622 18.3909 20.8343 19.6245 19.6007L18.5639 18.54ZM8.48968 20.2518C8.30644 20.1386 8.12386 20.022 7.96291 19.9582L7.41065 21.3529C7.39795 21.3479 7.40651 21.3497 7.46276 21.3825C7.51703 21.4141 7.58889 21.4585 7.70114 21.5278L8.48968 20.2518ZM7.04169 21.3988C7.14608 21.3718 7.20795 21.3558 7.25496 21.3452C7.29922 21.3352 7.30663 21.3355 7.29934 21.3361L7.18378 19.8405C7.01283 19.8537 6.83445 19.903 6.66534 19.9468L7.04169 21.3988ZM7.96291 19.9582C7.69961 19.854 7.46613 19.8187 7.18378 19.8405L7.29934 21.3361C7.34215 21.3328 7.35527 21.3351 7.35638 21.3353C7.35749 21.3354 7.37072 21.3371 7.41065 21.3529L7.96291 19.9582ZM4.07558 17.3571C4.11944 17.1879 4.16874 17.0093 4.1819 16.8379L2.68629 16.7231C2.68685 16.7159 2.68718 16.7233 2.67719 16.7675C2.66657 16.8144 2.65063 16.8763 2.62357 16.9807L4.07558 17.3571ZM2.49481 16.3233C2.5641 16.4348 2.60828 16.506 2.63981 16.5599C2.67237 16.6155 2.67426 16.624 2.66929 16.6115L4.06283 16.0565C3.9986 15.8952 3.8819 15.7135 3.76883 15.5316L2.49481 16.3233ZM4.1819 16.8379C4.20359 16.5551 4.16775 16.3199 4.06283 16.0565L2.66929 16.6115C2.68493 16.6508 2.68671 16.6643 2.68696 16.6659C2.68721 16.6675 2.68953 16.6809 2.68629 16.7231L4.1819 16.8379ZM2.62357 16.9807C2.46324 17.5993 2.3331 18.0998 2.25733 18.5016C2.18222 18.8998 2.14216 19.2864 2.21784 19.6582L3.6877 19.3591C3.67117 19.2778 3.66651 19.1234 3.73135 18.7795C3.79554 18.4391 3.90991 17.9963 4.07558 17.3571L2.62357 16.9807ZM6.66534 19.9468C6.02612 20.1125 5.58327 20.2269 5.24288 20.291C4.89901 20.3559 4.74455 20.3512 4.66331 20.3347L4.36418 21.8046C4.73601 21.8802 5.12254 21.8402 5.52084 21.7651C5.92261 21.6893 6.42311 21.5592 7.04169 21.3988L6.66534 19.9468ZM2.21784 19.6582C2.43789 20.7395 3.28292 21.5845 4.36418 21.8046L4.66331 20.3347C4.17183 20.2347 3.78773 19.8506 3.6877 19.3591L2.21784 19.6582ZM8.05257 16.6071H16.0526V15.1071H8.05257V16.6071ZM8.05257 12.6071H16.0526V11.1071H8.05257V12.6071ZM8.05257 8.60707H16.0526V7.10707H8.05257V8.60707Z" fill="black"/>
</svg>
