<svg width="24" height="24" viewBox="0 0 24 24" fill="none" xmlns="http://www.w3.org/2000/svg">
<path d="M12.9944 4.74921C13.4086 4.74921 13.7444 4.41342 13.7444 3.99921C13.7444 3.58499 13.4086 3.24921 12.9944 3.24921V4.74921ZM5.47237 19.3565L5.84023 18.7029L5.84023 18.7029L5.47237 19.3565ZM3.4463 10.8987L2.70343 10.7955L3.4463 10.8987ZM3.27156 16.8289L3.96954 16.5544L3.96954 16.5544L3.27156 16.8289ZM21.6612 10.7955C21.6042 10.3852 21.2255 10.0988 20.8152 10.1558C20.4049 10.2128 20.1185 10.5916 20.1755 11.0018L21.6612 10.7955ZM21.0931 16.8289L21.7911 17.1033L21.7911 17.1033L21.0931 16.8289ZM18.8923 19.3565L18.5244 18.7029L18.5244 18.7029L18.8923 19.3565ZM6.67449 4.45404L6.36194 3.77226L6.36194 3.77226L6.67449 4.45404ZM4.19877 6.9992L3.49907 6.72917L3.49907 6.72917L4.19877 6.9992ZM4.54279 6.31013L3.91049 5.90677L4.54279 6.31013ZM4.98992 7.736L5.52025 7.20567L5.51082 7.19624L5.50106 7.18715L4.98992 7.736ZM17.5183 10.3819C17.8178 10.0957 17.8286 9.62099 17.5425 9.3215C17.2563 9.02202 16.7816 9.01121 16.4821 9.29736L17.5183 10.3819ZM11.3702 4.74921H12.9944V3.24921H11.3702V4.74921ZM12.9944 19.2492H11.3702V20.7492H12.9944V19.2492ZM11.3702 19.2492C9.77175 19.2492 8.62058 19.2485 7.72476 19.1716C6.83632 19.0953 6.27681 18.9486 5.84023 18.7029L5.10451 20.01C5.80989 20.4071 6.61403 20.5817 7.59639 20.6661C8.57137 20.7498 9.79815 20.7492 11.3702 20.7492V19.2492ZM2.70343 10.7955C2.48716 12.3526 2.31775 13.5677 2.26657 14.5449C2.215 15.5295 2.27738 16.35 2.57358 17.1033L3.96954 16.5544C3.78622 16.0882 3.71788 15.5138 3.76451 14.6233C3.81154 13.7254 3.96926 12.5851 4.18916 11.0018L2.70343 10.7955ZM5.84023 18.7029C4.98807 18.2233 4.32737 17.4644 3.96954 16.5544L2.57358 17.1033C3.05771 18.3345 3.95159 19.3612 5.10451 20.01L5.84023 18.7029ZM20.1755 11.0018C20.3954 12.5851 20.5531 13.7254 20.6001 14.6233C20.6468 15.5138 20.5784 16.0882 20.3951 16.5544L21.7911 17.1033C22.0873 16.35 22.1497 15.5295 22.0981 14.5449C22.0469 13.5677 21.8775 12.3526 21.6612 10.7955L20.1755 11.0018ZM12.9944 20.7492C14.5665 20.7492 15.7933 20.7498 16.7683 20.6661C17.7506 20.5817 18.5548 20.4071 19.2602 20.01L18.5244 18.7029C18.0878 18.9486 17.5283 19.0953 16.6399 19.1716C15.7441 19.2485 14.5929 19.2492 12.9944 19.2492V20.7492ZM20.3951 16.5544C20.0373 17.4644 19.3766 18.2233 18.5244 18.7029L19.2602 20.01C20.4131 19.3612 21.307 18.3345 21.7911 17.1033L20.3951 16.5544ZM11.3702 3.24921C10.1472 3.24921 9.18776 3.24869 8.41117 3.30826C7.62523 3.36854 6.9705 3.49329 6.36194 3.77226L6.98703 5.13581C7.37064 4.95996 7.82925 4.85729 8.52588 4.80386C9.23186 4.74972 10.1242 4.74921 11.3702 4.74921V3.24921ZM4.18916 11.0018C4.45692 9.07397 4.60806 8.02175 4.89847 7.26923L3.49907 6.72917C3.13058 7.68401 2.95978 8.9497 2.70343 10.7955L4.18916 11.0018ZM4.89847 7.26923C4.9801 7.05773 5.0707 6.87712 5.17509 6.71349L3.91049 5.90677C3.74665 6.16361 3.61257 6.43507 3.49907 6.72917L4.89847 7.26923ZM6.36194 3.77226C5.35651 4.23318 4.50534 4.9743 3.91049 5.90677L5.17509 6.71349C5.61476 6.02427 6.24388 5.47649 6.98703 5.13581L6.36194 3.77226ZM5.50106 7.18715L4.70991 6.45036L3.68763 7.54805L4.47878 8.28485L5.50106 7.18715ZM4.45959 8.26633C6.11127 9.91801 7.40225 11.2112 8.54387 12.0823C9.7028 12.9665 10.7955 13.486 12.061 13.486V11.986C11.2554 11.986 10.4792 11.6722 9.45374 10.8897C8.41093 10.0941 7.20191 8.88733 5.52025 7.20567L4.45959 8.26633ZM16.4821 9.29736C14.441 11.2476 13.3008 11.986 12.061 11.986V13.486C13.9738 13.486 15.5176 12.2935 17.5183 10.3819L16.4821 9.29736ZM20.2502 4.99921C20.2502 5.68956 19.6906 6.2492 19.0002 6.2492V7.7492C20.519 7.7492 21.7502 6.51799 21.7502 4.99921H20.2502ZM19.0002 6.2492C18.3098 6.2492 17.7502 5.68956 17.7502 4.99921H16.2502C16.2502 6.51799 17.4814 7.7492 19.0002 7.7492V6.2492ZM17.7502 4.99921C17.7502 4.30885 18.3098 3.74921 19.0002 3.74921V2.24921C17.4814 2.24921 16.2502 3.48042 16.2502 4.99921H17.7502ZM19.0002 3.74921C19.6906 3.74921 20.2502 4.30885 20.2502 4.99921H21.7502C21.7502 3.48042 20.519 2.24921 19.0002 2.24921V3.74921Z" fill="black"/>
</svg>
