<svg width="24" height="24" viewBox="0 0 24 24" fill="none" xmlns="http://www.w3.org/2000/svg">
<path d="M12.6695 18.9498L13.1054 19.5601L13.1054 19.5601L12.6695 18.9498ZM12.7225 18.912L12.2905 18.299L12.7225 18.912ZM15.5706 17.9993L15.5754 18.7493L15.5706 17.9993ZM8.39614 19.5095L9.0925 19.788L8.39614 19.5095ZM10.0587 20.8146L9.62279 20.2043L9.62279 20.2043L10.0587 20.8146ZM20.9946 13.2357L20.2455 13.2002L20.9946 13.2357ZM16.2367 17.9936L16.2012 17.2445L16.2367 17.9936ZM5.73029 2.5442L6.07078 3.21246L6.07078 3.21246L5.73029 2.5442ZM3.54521 4.72928L4.21347 5.06978L3.54521 4.72928ZM18.2702 2.5442L17.9297 3.21246L17.9297 3.21246L18.2702 2.5442ZM20.4553 4.72928L19.787 5.06978L20.4553 4.72928ZM8.00024 11.2492C7.58603 11.2492 7.25024 11.585 7.25024 11.9992C7.25024 12.4134 7.58603 12.7492 8.00024 12.7492V11.2492ZM16.0002 12.7492C16.4145 12.7492 16.7502 12.4134 16.7502 11.9992C16.7502 11.585 16.4145 11.2492 16.0002 11.2492V12.7492ZM8.00024 7.24924C7.58603 7.24924 7.25024 7.58502 7.25024 7.99924C7.25024 8.41345 7.58603 8.74924 8.00024 8.74923L8.00024 7.24924ZM12.0002 8.74923C12.4145 8.74923 12.7502 8.41345 12.7502 7.99923C12.7502 7.58502 12.4145 7.24924 12.0002 7.24924L12.0002 8.74923ZM13.0002 1.24924H11.0002V2.74924H13.0002V1.24924ZM2.25024 9.99923V14.2276H3.75024V9.99923H2.25024ZM21.7502 12.6981V9.99923H20.2502V12.6981H21.7502ZM6.7719 18.7492H7.37365V17.2492H6.7719V18.7492ZM10.4946 21.4249L13.1054 19.5601L12.2335 18.3395L9.62279 20.2043L10.4946 21.4249ZM13.1054 19.5601C13.1328 19.5405 13.1438 19.5326 13.1545 19.5251L12.2905 18.299C12.275 18.3099 12.2594 18.321 12.2335 18.3395L13.1054 19.5601ZM15.6506 17.2492C15.6092 17.2492 15.5848 17.2492 15.5657 17.2494L15.5754 18.7493C15.5883 18.7492 15.6066 18.7492 15.6506 18.7492V17.2492ZM13.1545 19.5251C13.8634 19.0256 14.7081 18.7549 15.5754 18.7493L15.5657 17.2494C14.3925 17.2569 13.2496 17.6231 12.2905 18.299L13.1545 19.5251ZM7.37365 18.7492C7.62215 18.7492 7.79208 19.0002 7.69978 19.2309L9.0925 19.788C9.57891 18.572 8.68335 17.2492 7.37365 17.2492V18.7492ZM7.69978 19.2309C7.01312 20.9476 8.99014 22.4995 10.4946 21.4249L9.62279 20.2043C9.33733 20.4082 8.96221 20.1137 9.0925 19.788L7.69978 19.2309ZM20.2502 12.6981C20.2502 12.9863 20.25 13.1042 20.2455 13.2002L21.7438 13.2711C21.7504 13.1308 21.7502 12.9691 21.7502 12.6981H20.2502ZM15.6506 18.7492C15.9528 18.7492 16.1316 18.7495 16.2721 18.7428L16.2012 17.2445C16.1055 17.249 15.9723 17.2492 15.6506 17.2492V18.7492ZM20.2455 13.2002C20.1418 15.3894 18.3904 17.1408 16.2012 17.2445L16.2721 18.7428C19.234 18.6026 21.6036 16.233 21.7438 13.2711L20.2455 13.2002ZM2.25024 14.2276C2.25024 16.7248 4.27466 18.7492 6.7719 18.7492V17.2492C5.10308 17.2492 3.75024 15.8964 3.75024 14.2276H2.25024ZM11.0002 1.24924C9.61249 1.24924 8.52656 1.24865 7.65518 1.31985C6.77504 1.39176 6.04793 1.54062 5.3898 1.87595L6.07078 3.21246C6.48221 3.00283 6.98995 2.8792 7.77733 2.81487C8.57346 2.74982 9.58773 2.74924 11.0002 2.74924V1.24924ZM3.75024 9.99923C3.75024 8.58673 3.75083 7.57245 3.81587 6.77632C3.88021 5.98894 4.00383 5.4812 4.21347 5.06978L2.87696 4.38879C2.54162 5.04692 2.39277 5.77403 2.32086 6.65417C2.24966 7.52556 2.25024 8.61148 2.25024 9.99923H3.75024ZM5.3898 1.87595C4.30787 2.42722 3.42823 3.30686 2.87696 4.38879L4.21347 5.06978C4.62093 4.27009 5.27109 3.61992 6.07078 3.21246L5.3898 1.87595ZM13.0002 2.74924C14.4127 2.74924 15.427 2.74982 16.2232 2.81487C17.0105 2.8792 17.5183 3.00283 17.9297 3.21246L18.6107 1.87595C17.9526 1.54062 17.2254 1.39176 16.3453 1.31985C15.4739 1.24865 14.388 1.24924 13.0002 1.24924V2.74924ZM21.7502 9.99923C21.7502 8.61148 21.7508 7.52556 21.6796 6.65417C21.6077 5.77403 21.4589 5.04692 21.1235 4.38879L19.787 5.06978C19.9966 5.4812 20.1203 5.98894 20.1846 6.77632C20.2497 7.57245 20.2502 8.58673 20.2502 9.99923H21.7502ZM17.9297 3.21246C18.7294 3.61992 19.3796 4.27009 19.787 5.06978L21.1235 4.38879C20.5723 3.30686 19.6926 2.42722 18.6107 1.87595L17.9297 3.21246ZM8.00024 12.7492H16.0002V11.2492H8.00024V12.7492ZM8.00024 8.74923L12.0002 8.74923L12.0002 7.24924L8.00024 7.24924L8.00024 8.74923Z" fill="black"/>
</svg>
