<svg width="24" height="24" viewBox="0 0 24 24" fill="none" xmlns="http://www.w3.org/2000/svg">
<path d="M8.09559 20.8898L7.70132 21.5278L7.70132 21.5278L8.09559 20.8898ZM7.68695 20.6556L7.96308 19.9582L7.96308 19.9582L7.68695 20.6556ZM6.85369 20.6728L7.04187 21.3988L6.85369 20.6728ZM7.24174 20.5883L7.29952 21.3361L7.24174 20.5883ZM3.34975 17.1689L2.62374 16.9807L3.34975 17.1689ZM3.43428 16.7805L4.18208 16.8379L3.43428 16.7805ZM3.132 15.9275L2.49499 16.3233L2.49499 16.3233L3.132 15.9275ZM3.36624 16.334L2.66946 16.6115L3.36624 16.334ZM2.95295 19.5086L3.68788 19.3591L2.95295 19.5086ZM4.51392 21.0696L4.66349 20.3347L4.51392 21.0696ZM8.05275 13.1071C7.63854 13.1071 7.30275 13.4429 7.30275 13.8571C7.30275 14.2713 7.63854 14.6071 8.05275 14.6071V13.1071ZM16.0528 14.6071C16.467 14.6071 16.8028 14.2713 16.8028 13.8571C16.8028 13.4429 16.467 13.1071 16.0528 13.1071V14.6071ZM8.05275 9.10707C7.63854 9.10707 7.30275 9.44286 7.30275 9.85707C7.30275 10.2713 7.63854 10.6071 8.05275 10.6071V9.10707ZM12.0528 10.6071C12.467 10.6071 12.8028 10.2713 12.8028 9.85707C12.8028 9.44286 12.467 9.10707 12.0528 9.10707V10.6071ZM5.48257 5.45853C9.09492 1.84618 14.9517 1.84618 18.564 5.45853L19.6247 4.39787C15.4266 0.199734 8.62005 0.199734 4.42191 4.39787L5.48257 5.45853ZM18.564 5.45853C22.1764 9.07088 22.1764 14.9277 18.564 18.54L19.6247 19.6007C23.8228 15.4025 23.8228 8.596 19.6247 4.39787L18.564 5.45853ZM3.76901 15.5316C2.68311 13.7842 2.54836 11.8395 2.9749 10.0246C3.40404 8.19863 4.39386 6.54725 5.48257 5.45853L4.42191 4.39787C3.14224 5.67754 2.0097 7.57513 1.51469 9.68139C1.01709 11.7987 1.15641 14.1694 2.49499 16.3233L3.76901 15.5316ZM18.564 18.54C17.526 19.578 15.8769 20.5679 14.0348 21.0086C12.2032 21.4467 10.2365 21.3312 8.48986 20.2518L7.70132 21.5278C9.86446 22.8646 12.2614 22.9752 14.3838 22.4674C16.4957 21.9622 18.3911 20.8343 19.6247 19.6007L18.564 18.54ZM8.48986 20.2518C8.30661 20.1386 8.12404 20.022 7.96308 19.9582L7.41083 21.3529C7.39813 21.3479 7.40669 21.3497 7.46294 21.3825C7.51721 21.4141 7.58907 21.4585 7.70132 21.5278L8.48986 20.2518ZM7.04187 21.3988C7.14626 21.3718 7.20813 21.3558 7.25514 21.3452C7.2994 21.3352 7.30681 21.3355 7.29952 21.3361L7.18396 19.8405C7.01301 19.8537 6.83463 19.903 6.66552 19.9468L7.04187 21.3988ZM7.96308 19.9582C7.69979 19.854 7.46631 19.8187 7.18396 19.8405L7.29952 21.3361C7.34233 21.3328 7.35545 21.3351 7.35656 21.3353C7.35767 21.3354 7.3709 21.3371 7.41083 21.3529L7.96308 19.9582ZM4.07576 17.3571C4.11962 17.1879 4.16892 17.0093 4.18208 16.8379L2.68647 16.7231C2.68703 16.7159 2.68736 16.7233 2.67737 16.7675C2.66675 16.8144 2.65081 16.8763 2.62374 16.9807L4.07576 17.3571ZM2.49499 16.3233C2.56428 16.4348 2.60846 16.506 2.63999 16.5599C2.67255 16.6155 2.67444 16.624 2.66946 16.6115L4.06301 16.0565C3.99878 15.8952 3.88208 15.7135 3.76901 15.5316L2.49499 16.3233ZM4.18208 16.8379C4.20377 16.5551 4.16793 16.3199 4.06301 16.0565L2.66946 16.6115C2.68511 16.6508 2.68689 16.6643 2.68714 16.6659C2.68739 16.6675 2.68971 16.6809 2.68647 16.7231L4.18208 16.8379ZM2.62374 16.9807C2.46342 17.5993 2.33327 18.0998 2.25751 18.5016C2.1824 18.8998 2.14234 19.2864 2.21801 19.6582L3.68788 19.3591C3.67135 19.2778 3.66669 19.1234 3.73153 18.7795C3.79572 18.4391 3.91009 17.9963 4.07576 17.3571L2.62374 16.9807ZM6.66552 19.9468C6.0263 20.1125 5.58345 20.2269 5.24306 20.291C4.89919 20.3559 4.74473 20.3512 4.66349 20.3347L4.36436 21.8046C4.73619 21.8802 5.12272 21.8402 5.52102 21.7651C5.92279 21.6893 6.42329 21.5592 7.04187 21.3988L6.66552 19.9468ZM2.21801 19.6582C2.43807 20.7395 3.2831 21.5845 4.36436 21.8046L4.66349 20.3347C4.17201 20.2347 3.78791 19.8506 3.68788 19.3591L2.21801 19.6582ZM8.05275 14.6071H16.0528V13.1071H8.05275V14.6071ZM8.05275 10.6071H12.0528V9.10707H8.05275V10.6071Z" fill="black"/>
</svg>
