<svg width="24" height="24" viewBox="0 0 24 24" fill="none" xmlns="http://www.w3.org/2000/svg">
<path d="M4.9289 7.92814L5.45923 7.39781L4.9289 7.92814ZM2.99997 5.99921L3.5303 5.46888L3.5303 5.46888L2.99997 5.99921ZM4.06104 20.0443L4.50188 19.4375L4.50188 19.4375L4.06104 20.0443ZM2.95488 18.9381L2.34812 19.379L2.34812 19.379L2.95488 18.9381ZM21.045 18.9381L20.4383 18.4973L20.4383 18.4973L21.045 18.9381ZM19.9389 20.0443L19.498 19.4375L19.498 19.4375L19.9389 20.0443ZM4.06104 3.95412L3.6202 3.34736L3.6202 3.34736L4.06104 3.95412ZM2.95488 5.06028L2.34812 4.61944L2.34812 4.61944L2.95488 5.06028ZM17.519 10.515C17.818 10.2284 17.828 9.75361 17.5414 9.45459C17.2548 9.15556 16.78 9.14552 16.481 9.43215L17.519 10.515ZM22.7424 9.9643C22.7373 9.55012 22.3973 9.21851 21.9832 9.22364C21.569 9.22876 21.2374 9.56867 21.2425 9.98285L22.7424 9.9643ZM14.991 3.75636C15.4052 3.76132 15.7449 3.42959 15.7499 3.0154C15.7549 2.60122 15.4231 2.26143 15.009 2.25647L14.991 3.75636ZM2.621 5.62023L1.94535 5.29467L2.621 5.62023ZM5.45923 7.39781L3.5303 5.46888L2.46964 6.52954L4.39857 8.45847L5.45923 7.39781ZM4.39857 8.45847C6.05024 10.1101 7.34122 11.4034 8.48285 12.2744C9.64178 13.1586 10.7345 13.6781 12 13.6781V12.1781C11.1943 12.1781 10.4182 11.8643 9.39272 11.0819C8.34991 10.2862 7.14089 9.07947 5.45923 7.39781L4.39857 8.45847ZM11 3.74921H13V2.24921H11V3.74921ZM13 20.2492H11V21.7492H13V20.2492ZM11 20.2492C9.10839 20.2492 7.74996 20.2482 6.69801 20.1342C5.6601 20.0217 5.00988 19.8066 4.50188 19.4375L3.6202 20.651C4.42653 21.2369 5.37091 21.4992 6.53644 21.6255C7.68794 21.7502 9.14181 21.7492 11 21.7492V20.2492ZM1.24997 11.9992C1.24997 13.8574 1.24894 15.3112 1.3737 16.4627C1.49998 17.6283 1.76229 18.5726 2.34812 19.379L3.56165 18.4973C3.19256 17.9893 2.97742 17.3391 2.86497 16.3012C2.751 15.2492 2.74997 13.8908 2.74997 11.9992H1.24997ZM4.50188 19.4375C4.14108 19.1754 3.82379 18.8581 3.56165 18.4973L2.34812 19.379C2.70278 19.8671 3.13206 20.2964 3.6202 20.651L4.50188 19.4375ZM21.25 11.9992C21.25 13.8908 21.2489 15.2492 21.135 16.3012C21.0225 17.3391 20.8074 17.9893 20.4383 18.4973L21.6518 19.379C22.2376 18.5726 22.5 17.6283 22.6262 16.4627C22.751 15.3112 22.75 13.8574 22.75 11.9992H21.25ZM13 21.7492C14.8581 21.7492 16.312 21.7502 17.4635 21.6255C18.629 21.4992 19.5734 21.2369 20.3797 20.651L19.498 19.4375C18.99 19.8066 18.3398 20.0217 17.3019 20.1342C16.25 20.2482 14.8915 20.2492 13 20.2492V21.7492ZM20.4383 18.4973C20.1761 18.8581 19.8589 19.1754 19.498 19.4375L20.3797 20.651C20.8679 20.2964 21.2972 19.8671 21.6518 19.379L20.4383 18.4973ZM11 2.24921C9.14181 2.24921 7.68794 2.24818 6.53644 2.37293C5.37091 2.49921 4.42653 2.76153 3.6202 3.34736L4.50188 4.56088C5.00988 4.1918 5.6601 3.97666 6.69801 3.86421C7.74996 3.75024 9.10839 3.74921 11 3.74921V2.24921ZM3.6202 3.34736C3.13206 3.70202 2.70278 4.1313 2.34812 4.61944L3.56165 5.50112C3.82378 5.14032 4.14108 4.82302 4.50188 4.56088L3.6202 3.34736ZM16.481 9.43215C14.403 11.424 13.2531 12.1781 12 12.1781V13.6781C13.9309 13.6781 15.4872 12.4626 17.519 10.515L16.481 9.43215ZM22.75 11.9992C22.75 11.2545 22.75 10.5778 22.7424 9.9643L21.2425 9.98285C21.2499 10.5852 21.25 11.252 21.25 11.9992H22.75ZM13 3.74921C13.7366 3.74921 14.3952 3.74922 14.991 3.75636L15.009 2.25647C14.4024 2.2492 13.7343 2.24921 13 2.24921V3.74921ZM21.25 4.99921C21.25 5.68956 20.6903 6.24921 20 6.24921V7.7492C21.5187 7.7492 22.75 6.51799 22.75 4.99921H21.25ZM20 6.24921C19.3096 6.24921 18.75 5.68956 18.75 4.99921H17.25C17.25 6.51799 18.4812 7.7492 20 7.7492V6.24921ZM18.75 4.99921C18.75 4.30885 19.3096 3.74921 20 3.74921V2.24921C18.4812 2.24921 17.25 3.48042 17.25 4.99921H18.75ZM20 3.74921C20.6903 3.74921 21.25 4.30885 21.25 4.99921H22.75C22.75 3.48042 21.5187 2.24921 20 2.24921V3.74921ZM2.74997 11.9992C2.74997 10.364 2.75046 9.12413 2.82547 8.13125C2.90034 7.14014 3.04584 6.4663 3.29665 5.9458L1.94535 5.29467C1.57512 6.06299 1.41011 6.95427 1.32973 8.01825C1.24948 9.08045 1.24997 10.3856 1.24997 11.9992H2.74997ZM3.29665 5.9458C3.37345 5.78643 3.46109 5.63952 3.56165 5.50112L2.34812 4.61944C2.19351 4.83224 2.06009 5.05655 1.94535 5.29467L3.29665 5.9458ZM3.5303 5.46888L3.15133 5.0899L2.09067 6.15056L2.46964 6.52954L3.5303 5.46888Z" fill="black"/>
</svg>
