<svg width="24" height="24" viewBox="0 0 24 24" fill="none" xmlns="http://www.w3.org/2000/svg">
<path d="M11.6687 18.9499L12.1046 19.5602L12.1046 19.5602L11.6687 18.9499ZM11.7217 18.9121L11.2897 18.299L11.2897 18.299L11.7217 18.9121ZM14.5698 17.9994L14.5746 18.7494L14.5698 17.9994ZM7.39536 19.5095L8.09172 19.7881L7.39536 19.5095ZM9.05794 20.8147L8.62201 20.2044L8.62201 20.2044L9.05794 20.8147ZM21.7975 14.4061L22.5172 14.6172L21.7975 14.4061ZM18.4063 17.7973L18.6173 18.517L18.4063 17.7973ZM4.72951 2.54427L5.07 3.21252L4.72951 2.54427ZM2.54443 4.72934L3.21269 5.06984L2.54443 4.72934ZM19.2694 2.54427L18.9289 3.21252L19.2694 2.54427ZM21.4545 4.72934L20.7862 5.06984L21.4545 4.72934ZM7.99946 11.2493C7.58525 11.2493 7.24946 11.5851 7.24946 11.9993C7.24946 12.4135 7.58525 12.7493 7.99946 12.7493V11.2493ZM15.9995 12.7493C16.4137 12.7493 16.7495 12.4135 16.7495 11.9993C16.7495 11.5851 16.4137 11.2493 15.9995 11.2493V12.7493ZM7.99946 7.2493C7.58525 7.2493 7.24946 7.58508 7.24946 7.9993C7.24946 8.41351 7.58525 8.7493 7.99946 8.7493L7.99946 7.2493ZM11.9995 8.7493C12.4137 8.7493 12.7495 8.41351 12.7495 7.9993C12.7495 7.58508 12.4137 7.2493 11.9995 7.2493L11.9995 8.7493ZM13.9995 1.2493H9.99946V2.7493H13.9995V1.2493ZM1.24947 9.9993V14.2276H2.74947V9.9993H1.24947ZM22.7495 11.1835V9.9993H21.2495V11.1835H22.7495ZM5.77112 18.7493H6.37288V17.2493H5.77112V18.7493ZM9.49387 21.425L12.1046 19.5602L11.2327 18.3396L8.62201 20.2044L9.49387 21.425ZM14.6349 18.7493H15.1837V17.2493H14.6349V18.7493ZM12.1046 19.5602C12.132 19.5406 12.143 19.5327 12.1537 19.5252L11.2897 18.299C11.2742 18.3099 11.2586 18.3211 11.2327 18.3396L12.1046 19.5602ZM14.6349 17.2493C14.6031 17.2493 14.5839 17.2493 14.565 17.2494L14.5746 18.7494C14.5876 18.7493 14.6012 18.7493 14.6349 18.7493V17.2493ZM12.1537 19.5252C12.8626 19.0256 13.7074 18.7549 14.5746 18.7494L14.565 17.2494C13.3917 17.2569 12.2488 17.6232 11.2897 18.299L12.1537 19.5252ZM6.37288 18.7493C6.62137 18.7493 6.7913 19.0003 6.69901 19.231L8.09172 19.7881C8.57813 18.5721 7.68257 17.2493 6.37288 17.2493V18.7493ZM6.69901 19.231C6.01235 20.9476 7.98937 22.4996 9.49387 21.425L8.62201 20.2044C8.33655 20.4083 7.96143 20.1138 8.09172 19.7881L6.69901 19.231ZM21.2495 11.1835C21.2495 12.9254 21.2418 13.6356 21.0778 14.1951L22.5172 14.6172C22.7571 13.7989 22.7495 12.8199 22.7495 11.1835H21.2495ZM15.1837 18.7493C16.82 18.7493 17.799 18.7569 18.6173 18.517L18.1953 17.0776C17.6357 17.2417 16.9256 17.2493 15.1837 17.2493V18.7493ZM21.0778 14.1951C20.6705 15.5841 19.5843 16.6703 18.1953 17.0776L18.6173 18.517C20.4966 17.966 21.9661 16.4964 22.5172 14.6172L21.0778 14.1951ZM1.24947 14.2276C1.24947 16.7249 3.27388 18.7493 5.77112 18.7493V17.2493C4.10231 17.2493 2.74947 15.8965 2.74947 14.2276H1.24947ZM9.99946 1.2493C8.61171 1.2493 7.52578 1.24872 6.6544 1.31991C5.77426 1.39182 5.04715 1.54068 4.38902 1.87601L5.07 3.21252C5.48143 3.00289 5.98917 2.87926 6.77655 2.81493C7.57268 2.74988 8.58696 2.7493 9.99946 2.7493V1.2493ZM2.74947 9.9993C2.74947 8.58679 2.75005 7.57252 2.8151 6.77638C2.87943 5.989 3.00305 5.48127 3.21269 5.06984L1.87618 4.38885C1.54084 5.04698 1.39199 5.77409 1.32008 6.65423C1.24888 7.52562 1.24947 8.61154 1.24947 9.9993H2.74947ZM4.38902 1.87601C3.30709 2.42728 2.42745 3.30692 1.87618 4.38885L3.21269 5.06984C3.62015 4.27015 4.27032 3.61998 5.07 3.21252L4.38902 1.87601ZM13.9995 2.7493C15.412 2.7493 16.4262 2.74988 17.2224 2.81493C18.0098 2.87926 18.5175 3.00289 18.9289 3.21252L19.6099 1.87601C18.9518 1.54068 18.2247 1.39182 17.3445 1.31991C16.4731 1.24872 15.3872 1.2493 13.9995 1.2493V2.7493ZM22.7495 9.9993C22.7495 8.61154 22.75 7.52562 22.6788 6.65423C22.6069 5.77409 22.4581 5.04698 22.1227 4.38885L20.7862 5.06984C20.9959 5.48127 21.1195 5.989 21.1838 6.77638C21.2489 7.57252 21.2495 8.58679 21.2495 9.9993H22.7495ZM18.9289 3.21252C19.7286 3.61998 20.3788 4.27015 20.7862 5.06984L22.1227 4.38885C21.5715 3.30692 20.6918 2.42728 19.6099 1.87601L18.9289 3.21252ZM7.99946 12.7493H15.9995V11.2493H7.99946V12.7493ZM7.99946 8.7493L11.9995 8.7493L11.9995 7.2493L7.99946 7.2493L7.99946 8.7493Z" fill="black"/>
</svg>
