<svg width="24" height="24" viewBox="0 0 24 24" fill="none" xmlns="http://www.w3.org/2000/svg">
<path d="M8.74914 10.7493C8.74914 11.3016 8.30143 11.7493 7.74915 11.7493C7.19686 11.7493 6.74915 11.3016 6.74915 10.7493C6.74915 10.197 7.19686 9.7493 7.74915 9.7493C8.30143 9.7493 8.74914 10.197 8.74914 10.7493Z" fill="black"/>
<path d="M12.7491 10.7493C12.7491 11.3016 12.3014 11.7493 11.7491 11.7493C11.1969 11.7493 10.7491 11.3016 10.7491 10.7493C10.7491 10.197 11.1969 9.7493 11.7491 9.7493C12.3014 9.7493 12.7491 10.197 12.7491 10.7493Z" fill="black"/>
<path d="M16.7491 10.7493C16.7491 11.3016 16.3014 11.7493 15.7491 11.7493C15.1969 11.7493 14.7491 11.3016 14.7491 10.7493C14.7491 10.197 15.1969 9.7493 15.7491 9.7493C16.3014 9.7493 16.7491 10.197 16.7491 10.7493Z" fill="black"/>
<path d="M20.7493 4.74933C20.7493 5.8539 19.8538 6.74933 18.7493 6.74933C17.6447 6.74933 16.7493 5.8539 16.7493 4.74933C16.7493 3.64476 17.6447 2.74933 18.7493 2.74933C19.8538 2.74933 20.7493 3.64476 20.7493 4.74933Z" stroke="black" stroke-width="1.5"/>
<path d="M15.1078 3.09231C15.3177 2.63179 15.0446 2.01394 14.5386 2.00675C14.0136 1.99929 13.4314 1.9993 12.7831 1.9993H10.716C9.34426 1.99929 8.26883 1.99929 7.40448 2.06991C6.52434 2.14182 5.79723 2.29068 5.1391 2.62601C4.05716 3.17728 3.17753 4.05692 2.62625 5.13885C2.29092 5.79698 2.14207 6.52409 2.07015 7.40423C1.99954 8.26857 1.99954 9.34398 1.99954 10.7157V14.9776C1.99954 17.4749 4.02396 19.4993 6.5212 19.4993H7.12295C7.37145 19.4993 7.54137 19.7503 7.44908 19.981C6.76242 21.6976 8.73944 23.2496 10.2439 22.175L12.8547 20.3102L12.9038 20.2752C13.6127 19.7756 14.4574 19.5049 15.3247 19.4994L15.3999 19.4993H15.4284C15.7134 19.4993 15.8853 19.4993 16.0214 19.4929C18.9833 19.3526 21.3529 16.9831 21.4931 14.0212C21.4995 13.8851 21.4995 13.729 21.4995 13.4725V10.7157C21.4995 10.0674 21.4995 9.48521 21.4921 8.96026C21.4849 8.45423 20.867 8.18116 20.4065 8.39103C20.1641 8.5015 19.9889 8.73773 19.9925 9.0041C19.9994 9.51044 19.9995 10.086 19.9995 10.7493V13.4481C19.9995 13.7363 19.9993 13.8543 19.9948 13.9503C19.8911 16.1395 18.1397 17.8909 15.9505 17.9945C15.8548 17.9991 15.7216 17.9993 15.3999 17.9993L15.315 17.9994C14.1418 18.0069 12.9989 18.3732 12.0398 19.049L11.9828 19.0895L9.37209 20.9544C9.08663 21.1583 8.71151 20.8638 8.8418 20.5381C9.32821 19.3221 8.43265 17.9993 7.12295 17.9993H6.5212C4.85238 17.9993 3.49954 16.6464 3.49954 14.9776V10.7493C3.49954 9.33679 3.50013 8.32251 3.56517 7.52638C3.6295 6.739 3.75313 6.23126 3.96276 5.81984C4.37023 5.02015 5.02039 4.36998 5.82008 3.96252C6.23151 3.75289 6.73924 3.62926 7.52662 3.56493C8.32276 3.49988 9.33703 3.4993 10.7495 3.4993H12.7495C13.4129 3.4993 13.9884 3.49943 14.4947 3.5063C14.7611 3.50992 14.9973 3.33472 15.1078 3.09231Z" fill="black"/>
</svg>
