<svg width="24" height="24" viewBox="0 0 24 24" fill="none" xmlns="http://www.w3.org/2000/svg">
<path d="M20.8903 15.927L21.5283 16.3212L21.5283 16.3212L20.8903 15.927ZM20.6561 16.3356L19.9588 16.0595L19.9588 16.0595L20.6561 16.3356ZM20.6733 17.1689L21.3993 16.9807L20.6733 17.1689ZM20.5888 16.7808L21.3366 16.723L20.5888 16.7808ZM17.1694 20.6728L16.9812 21.3988L17.1694 20.6728ZM16.781 20.5883L16.8384 19.8405L16.781 20.5883ZM15.928 20.8905L16.3238 21.5276L16.3238 21.5276L15.928 20.8905ZM16.3345 20.6563L16.612 21.3531L16.3345 20.6563ZM19.5092 21.0696L19.3596 20.3347L19.5092 21.0696ZM21.0701 19.5086L20.3352 19.3591L21.0701 19.5086ZM7.85765 13.1071C7.44344 13.1071 7.10765 13.4429 7.10765 13.8571C7.10765 14.2713 7.44344 14.6071 7.85765 14.6071V13.1071ZM15.8576 14.6071C16.2719 14.6071 16.6076 14.2713 16.6076 13.8571C16.6076 13.4429 16.2719 13.1071 15.8576 13.1071V14.6071ZM11.8576 9.10711C11.4434 9.10711 11.1076 9.4429 11.1076 9.85711C11.1076 10.2713 11.4434 10.6071 11.8576 10.6071L11.8576 9.10711ZM15.8576 10.6071C16.2719 10.6071 16.6076 10.2713 16.6076 9.85711C16.6076 9.4429 16.2719 9.10711 15.8576 9.10711L15.8576 10.6071ZM5.45905 18.54C1.8467 14.9276 1.8467 9.07085 5.45905 5.4585L4.39839 4.39784C0.200253 8.59597 0.200253 15.4025 4.39839 19.6006L5.45905 18.54ZM5.45905 5.4585C9.0714 1.84615 14.9282 1.84615 18.5405 5.4585L19.6012 4.39784C15.403 0.199703 8.59652 0.199703 4.39839 4.39784L5.45905 5.4585ZM15.5321 20.2535C13.7847 21.3394 11.84 21.4742 10.0251 21.0476C8.19915 20.6185 6.54777 19.6287 5.45905 18.54L4.39839 19.6006C5.67806 20.8803 7.57565 22.0128 9.68191 22.5079C11.7992 23.0055 14.1699 22.8661 16.3238 21.5276L15.5321 20.2535ZM18.5405 5.4585C19.5786 6.49653 20.5685 8.14567 21.0091 9.98775C21.4473 11.8194 21.3317 13.786 20.2523 15.5327L21.5283 16.3212C22.8651 14.1581 22.9757 11.7612 22.468 9.63876C21.9627 7.52681 20.8348 5.63146 19.6012 4.39784L18.5405 5.4585ZM20.2523 15.5327C20.1391 15.7159 20.0225 15.8985 19.9588 16.0595L21.3534 16.6117C21.3484 16.6244 21.3502 16.6159 21.383 16.5596C21.4146 16.5053 21.459 16.4335 21.5283 16.3212L20.2523 15.5327ZM21.3993 16.9807C21.3723 16.8763 21.3563 16.8144 21.3457 16.7674C21.3357 16.7231 21.336 16.7157 21.3366 16.723L19.841 16.8386C19.8542 17.0095 19.9035 17.1879 19.9473 17.357L21.3993 16.9807ZM19.9588 16.0595C19.8545 16.3228 19.8192 16.5562 19.841 16.8386L21.3366 16.723C21.3333 16.6802 21.3356 16.6671 21.3358 16.666C21.336 16.6649 21.3376 16.6516 21.3534 16.6117L19.9588 16.0595ZM17.3576 19.9468C17.1884 19.9029 17.0098 19.8536 16.8384 19.8405L16.7236 21.3361C16.7164 21.3355 16.7238 21.3352 16.768 21.3452C16.815 21.3558 16.8768 21.3717 16.9812 21.3988L17.3576 19.9468ZM16.3238 21.5276C16.4354 21.4583 16.5066 21.4141 16.5604 21.3826C16.616 21.35 16.6245 21.3481 16.612 21.3531L16.057 19.9595C15.8957 20.0238 15.714 20.1405 15.5321 20.2535L16.3238 21.5276ZM16.8384 19.8405C16.5557 19.8188 16.3204 19.8546 16.057 19.9595L16.612 21.3531C16.6513 21.3374 16.6648 21.3357 16.6664 21.3354C16.6681 21.3352 16.6815 21.3328 16.7236 21.3361L16.8384 19.8405ZM16.9812 21.3988C17.5998 21.5591 18.1003 21.6893 18.5021 21.765C18.9004 21.8401 19.2869 21.8802 19.6587 21.8045L19.3596 20.3347C19.2784 20.3512 19.1239 20.3559 18.78 20.291C18.4396 20.2268 17.9968 20.1125 17.3576 19.9468L16.9812 21.3988ZM19.9473 17.357C20.113 17.9962 20.2274 18.4391 20.2916 18.7795C20.3564 19.1234 20.3517 19.2778 20.3352 19.3591L21.8051 19.6582C21.8808 19.2863 21.8407 18.8998 21.7656 18.5015C21.6898 18.0997 21.5597 17.5993 21.3993 16.9807L19.9473 17.357ZM19.6587 21.8045C20.74 21.5845 21.585 20.7394 21.8051 19.6582L20.3352 19.3591C20.2352 19.8505 19.8511 20.2346 19.3596 20.3347L19.6587 21.8045ZM7.85765 14.6071H15.8576V13.1071H7.85765V14.6071ZM11.8576 10.6071L15.8576 10.6071L15.8576 9.10711L11.8576 9.10711L11.8576 10.6071Z" fill="black"/>
</svg>
