<svg width="24" height="24" viewBox="0 0 24 24" fill="none" xmlns="http://www.w3.org/2000/svg">
<path d="M19.0939 19.0703C16.8222 21.342 12.0049 23.306 8.09509 20.8898C7.87751 20.7554 7.76872 20.6881 7.68646 20.6556C7.52918 20.5933 7.4099 20.5753 7.24124 20.5883C7.15303 20.5951 7.05308 20.621 6.85319 20.6728C5.5954 20.9988 4.9665 21.1618 4.51342 21.0696C3.72705 20.9096 3.11249 20.295 2.95245 19.5086C2.86024 19.0556 3.02325 18.4267 3.34925 17.1689C3.40108 16.9689 3.42699 16.869 3.43378 16.7805C3.44672 16.6118 3.42833 16.4911 3.36574 16.334C3.3329 16.2515 3.26577 16.1435 3.1315 15.9275C0.707022 12.0262 2.58336 7.29659 4.95174 4.9282C8.85699 1.02296 15.1886 1.02296 19.0939 4.9282C22.9991 8.83344 22.9991 15.1651 19.0939 19.0703Z" stroke="black" stroke-width="1.5"/>
<path d="M9.05221 11.8566C9.05221 12.4089 8.6045 12.8566 8.05222 12.8566C7.49993 12.8566 7.05222 12.4089 7.05222 11.8566C7.05222 11.3043 7.49993 10.8566 8.05222 10.8566C8.6045 10.8566 9.05221 11.3043 9.05221 11.8566Z" fill="black"/>
<path d="M13.0522 11.8566C13.0522 12.4089 12.6045 12.8566 12.0522 12.8566C11.4999 12.8566 11.0522 12.4089 11.0522 11.8566C11.0522 11.3043 11.4999 10.8566 12.0522 10.8566C12.6045 10.8566 13.0522 11.3043 13.0522 11.8566Z" fill="black"/>
<path d="M17.0522 11.8566C17.0522 12.4089 16.6045 12.8566 16.0522 12.8566C15.4999 12.8566 15.0522 12.4089 15.0522 11.8566C15.0522 11.3043 15.4999 10.8566 16.0522 10.8566C16.6045 10.8566 17.0522 11.3043 17.0522 11.8566Z" fill="black"/>
</svg>
