<svg width="24" height="24" viewBox="0 0 24 24" fill="none" xmlns="http://www.w3.org/2000/svg">
<path d="M11.6693 18.9499L12.1053 19.5602L12.1053 19.5602L11.6693 18.9499ZM11.7224 18.9121L11.2903 18.299L11.2903 18.299L11.7224 18.9121ZM14.5704 17.9994L14.5752 18.7494L14.5704 17.9994ZM7.39602 19.5095L8.09238 19.7881L7.39602 19.5095ZM9.0586 20.8147L8.62267 20.2044L8.62267 20.2044L9.0586 20.8147ZM21.7981 14.4061L22.5178 14.6172L21.7981 14.4061ZM18.407 17.7973L18.618 18.517L18.407 17.7973ZM4.73017 2.54427L5.07066 3.21252L4.73017 2.54427ZM2.54509 4.72934L3.21334 5.06984L2.54509 4.72934ZM19.2701 2.54427L18.9296 3.21252L19.2701 2.54427ZM21.4551 4.72934L20.7869 5.06984L21.4551 4.72934ZM8.00012 11.2493C7.58591 11.2493 7.25012 11.5851 7.25012 11.9993C7.25012 12.4135 7.58591 12.7493 8.00012 12.7493V11.2493ZM16.0001 12.7493C16.4143 12.7493 16.7501 12.4135 16.7501 11.9993C16.7501 11.5851 16.4143 11.2493 16.0001 11.2493V12.7493ZM12.0001 7.2493C11.5859 7.2493 11.2501 7.58508 11.2501 7.9993C11.2501 8.41351 11.5859 8.7493 12.0001 8.7493V7.2493ZM16.0001 8.7493C16.4143 8.7493 16.7501 8.41351 16.7501 7.9993C16.7501 7.58508 16.4143 7.2493 16.0001 7.2493V8.7493ZM14.0001 1.2493H10.0001V2.7493H14.0001V1.2493ZM1.25012 9.9993V14.2276H2.75012V9.9993H1.25012ZM22.7501 11.1835V9.9993H21.2501V11.1835H22.7501ZM5.77178 18.7493H6.37353V17.2493H5.77178V18.7493ZM9.49453 21.425L12.1053 19.5602L11.2334 18.3396L8.62267 20.2044L9.49453 21.425ZM14.6355 18.7493H15.1843V17.2493H14.6355V18.7493ZM12.1053 19.5602C12.1327 19.5406 12.1437 19.5327 12.1544 19.5252L11.2903 18.299C11.2748 18.3099 11.2593 18.3211 11.2334 18.3396L12.1053 19.5602ZM14.6355 17.2493C14.6037 17.2493 14.5846 17.2493 14.5656 17.2494L14.5752 18.7494C14.5883 18.7493 14.6019 18.7493 14.6355 18.7493V17.2493ZM12.1544 19.5252C12.8633 19.0256 13.708 18.7549 14.5752 18.7494L14.5656 17.2494C13.3923 17.2569 12.2495 17.6232 11.2903 18.299L12.1544 19.5252ZM6.37353 18.7493C6.62203 18.7493 6.79195 19.0003 6.69966 19.231L8.09238 19.7881C8.57879 18.5721 7.68323 17.2493 6.37353 17.2493V18.7493ZM6.69966 19.231C6.013 20.9476 7.99002 22.4996 9.49453 21.425L8.62267 20.2044C8.33721 20.4083 7.96209 20.1138 8.09238 19.7881L6.69966 19.231ZM21.2501 11.1835C21.2501 12.9254 21.2425 13.6356 21.0784 14.1951L22.5178 14.6172C22.7578 13.7989 22.7501 12.8199 22.7501 11.1835H21.2501ZM15.1843 18.7493C16.8207 18.7493 17.7997 18.7569 18.618 18.517L18.1959 17.0776C17.6364 17.2417 16.9262 17.2493 15.1843 17.2493V18.7493ZM21.0784 14.1951C20.6711 15.5841 19.5849 16.6703 18.1959 17.0776L18.618 18.517C20.4972 17.966 21.9668 16.4964 22.5178 14.6172L21.0784 14.1951ZM1.25012 14.2276C1.25012 16.7249 3.27454 18.7493 5.77178 18.7493V17.2493C4.10296 17.2493 2.75012 15.8965 2.75012 14.2276H1.25012ZM10.0001 1.2493C8.61236 1.2493 7.52644 1.24872 6.65506 1.31991C5.77491 1.39182 5.04781 1.54068 4.38968 1.87601L5.07066 3.21252C5.48209 3.00289 5.98982 2.87926 6.7772 2.81493C7.57334 2.74988 8.58761 2.7493 10.0001 2.7493V1.2493ZM2.75012 9.9993C2.75012 8.58679 2.75071 7.57252 2.81575 6.77638C2.88008 5.989 3.00371 5.48127 3.21334 5.06984L1.87683 4.38885C1.5415 5.04698 1.39264 5.77409 1.32073 6.65423C1.24954 7.52562 1.25012 8.61154 1.25012 9.9993H2.75012ZM4.38968 1.87601C3.30774 2.42728 2.42811 3.30692 1.87683 4.38885L3.21334 5.06984C3.62081 4.27015 4.27097 3.61998 5.07066 3.21252L4.38968 1.87601ZM14.0001 2.7493C15.4126 2.7493 16.4269 2.74988 17.223 2.81493C18.0104 2.87926 18.5181 3.00289 18.9296 3.21252L19.6106 1.87601C18.9524 1.54068 18.2253 1.39182 17.3452 1.31991C16.4738 1.24872 15.3879 1.2493 14.0001 1.2493V2.7493ZM22.7501 9.9993C22.7501 8.61154 22.7507 7.52562 22.6795 6.65423C22.6076 5.77409 22.4587 5.04698 22.1234 4.38885L20.7869 5.06984C20.9965 5.48127 21.1202 5.989 21.1845 6.77638C21.2495 7.57252 21.2501 8.58679 21.2501 9.9993H22.7501ZM18.9296 3.21252C19.7293 3.61998 20.3794 4.27015 20.7869 5.06984L22.1234 4.38885C21.5721 3.30692 20.6925 2.42728 19.6106 1.87601L18.9296 3.21252ZM8.00012 12.7493H16.0001V11.2493H8.00012V12.7493ZM12.0001 8.7493H16.0001V7.2493H12.0001V8.7493Z" fill="black"/>
</svg>
