<svg width="24" height="24" viewBox="0 0 24 24" fill="none" xmlns="http://www.w3.org/2000/svg">
<path d="M12.6695 18.9498L13.1054 19.5601L13.1054 19.5601L12.6695 18.9498ZM12.7225 18.912L12.2905 18.299L12.7225 18.912ZM15.5706 17.9993L15.5754 18.7493L15.5706 17.9993ZM8.39619 19.5095L9.09255 19.788L8.39619 19.5095ZM10.0588 20.8146L9.62284 20.2043L9.62284 20.2043L10.0588 20.8146ZM20.9947 13.2357L20.2455 13.2002L20.9947 13.2357ZM16.2367 17.9936L16.2013 17.2445L16.2367 17.9936ZM5.73034 2.5442L6.07083 3.21246L6.07083 3.21246L5.73034 2.5442ZM3.54526 4.72928L4.21351 5.06978L3.54526 4.72928ZM18.2702 2.5442L17.9297 3.21246L17.9297 3.21246L18.2702 2.5442ZM20.4553 4.72928L19.7871 5.06978L20.4553 4.72928ZM8.00029 7.24924C7.58607 7.24924 7.25029 7.58502 7.25029 7.99924C7.25029 8.41345 7.58607 8.74923 8.00029 8.74923V7.24924ZM16.0003 8.74923C16.4145 8.74923 16.7503 8.41345 16.7503 7.99924C16.7503 7.58502 16.4145 7.24924 16.0003 7.24924V8.74923ZM10.0003 11.2492C9.58607 11.2492 9.25029 11.585 9.25029 11.9992C9.25029 12.4134 9.58607 12.7492 10.0003 12.7492V11.2492ZM14.0003 12.7492C14.4145 12.7492 14.7503 12.4134 14.7503 11.9992C14.7503 11.585 14.4145 11.2492 14.0003 11.2492V12.7492ZM13.0003 1.24924H11.0003V2.74924H13.0003V1.24924ZM2.25029 9.99923V14.2276H3.75029V9.99923H2.25029ZM21.7503 12.6981V9.99923H20.2503V12.6981H21.7503ZM6.77194 18.7492H7.3737V17.2492H6.77194V18.7492ZM10.4947 21.4249L13.1054 19.5601L12.2336 18.3395L9.62284 20.2043L10.4947 21.4249ZM13.1054 19.5601C13.1328 19.5405 13.1439 19.5326 13.1545 19.5251L12.2905 18.299C12.275 18.3099 12.2594 18.321 12.2336 18.3395L13.1054 19.5601ZM15.6506 17.2492C15.6093 17.2492 15.5848 17.2492 15.5658 17.2494L15.5754 18.7493C15.5884 18.7492 15.6066 18.7492 15.6506 18.7492V17.2492ZM13.1545 19.5251C13.8634 19.0256 14.7082 18.7549 15.5754 18.7493L15.5658 17.2494C14.3925 17.2569 13.2496 17.6231 12.2905 18.299L13.1545 19.5251ZM7.3737 18.7492C7.6222 18.7492 7.79212 19.0002 7.69983 19.2309L9.09255 19.788C9.57895 18.572 8.6834 17.2492 7.3737 17.2492V18.7492ZM7.69983 19.2309C7.01317 20.9476 8.99019 22.4995 10.4947 21.4249L9.62284 20.2043C9.33738 20.4082 8.96226 20.1137 9.09255 19.788L7.69983 19.2309ZM20.2503 12.6981C20.2503 12.9863 20.2501 13.1042 20.2455 13.2002L21.7438 13.2711C21.7505 13.1308 21.7503 12.9691 21.7503 12.6981H20.2503ZM15.6506 18.7492C15.9528 18.7492 16.1316 18.7495 16.2722 18.7428L16.2013 17.2445C16.1055 17.249 15.9724 17.2492 15.6506 17.2492V18.7492ZM20.2455 13.2002C20.1419 15.3894 18.3905 17.1408 16.2013 17.2445L16.2722 18.7428C19.2341 18.6026 21.6036 16.233 21.7438 13.2711L20.2455 13.2002ZM2.25029 14.2276C2.25029 16.7248 4.2747 18.7492 6.77194 18.7492V17.2492C5.10313 17.2492 3.75029 15.8964 3.75029 14.2276H2.25029ZM11.0003 1.24924C9.61253 1.24924 8.52661 1.24865 7.65522 1.31985C6.77508 1.39176 6.04797 1.54062 5.38984 1.87595L6.07083 3.21246C6.48226 3.00283 6.98999 2.8792 7.77737 2.81487C8.57351 2.74982 9.58778 2.74924 11.0003 2.74924V1.24924ZM3.75029 9.99923C3.75029 8.58673 3.75087 7.57245 3.81592 6.77632C3.88025 5.98894 4.00388 5.4812 4.21351 5.06978L2.877 4.38879C2.54167 5.04692 2.39281 5.77403 2.3209 6.65417C2.24971 7.52556 2.25029 8.61148 2.25029 9.99923H3.75029ZM5.38984 1.87595C4.30791 2.42722 3.42827 3.30686 2.877 4.38879L4.21351 5.06978C4.62097 4.27009 5.27114 3.61992 6.07083 3.21246L5.38984 1.87595ZM13.0003 2.74924C14.4128 2.74924 15.4271 2.74982 16.2232 2.81487C17.0106 2.8792 17.5183 3.00283 17.9297 3.21246L18.6107 1.87595C17.9526 1.54062 17.2255 1.39176 16.3453 1.31985C15.474 1.24865 14.388 1.24924 13.0003 1.24924V2.74924ZM21.7503 9.99923C21.7503 8.61148 21.7509 7.52556 21.6797 6.65417C21.6078 5.77403 21.4589 5.04692 21.1236 4.38879L19.7871 5.06978C19.9967 5.4812 20.1203 5.98894 20.1847 6.77632C20.2497 7.57245 20.2503 8.58673 20.2503 9.99923H21.7503ZM17.9297 3.21246C18.7294 3.61992 19.3796 4.27009 19.7871 5.06978L21.1236 4.38879C20.5723 3.30686 19.6927 2.42722 18.6107 1.87595L17.9297 3.21246ZM8.00029 8.74923H16.0003V7.24924H8.00029V8.74923ZM10.0003 12.7492H14.0003V11.2492H10.0003V12.7492Z" fill="black"/>
</svg>
