<svg width="24" height="24" viewBox="0 0 24 24" fill="none" xmlns="http://www.w3.org/2000/svg">
<path d="M19.0708 4.92817C21.2526 7.10994 23.1506 11.6399 21.1568 15.4588C20.9498 15.8553 20.8463 16.0535 20.8084 16.1487C20.6475 16.5531 20.624 16.7593 20.6895 17.1895C20.705 17.2908 20.7395 17.4241 20.8086 17.6907C21.0159 18.4904 21.1195 18.8903 21.109 19.1818C21.0713 20.2298 20.2304 21.0707 19.1823 21.1085C18.8908 21.119 18.491 21.0153 17.6913 20.808C17.4246 20.7389 17.2913 20.7044 17.1894 20.6889C16.7591 20.6236 16.5467 20.6483 16.143 20.8107C16.0474 20.8492 15.8518 20.9523 15.4607 21.1586C11.6557 23.1656 7.2033 21.3449 4.92872 19.0703C1.02348 15.1651 1.02348 8.83341 4.92872 4.92817C8.83396 1.02293 15.1656 1.02293 19.0708 4.92817Z" stroke="black" stroke-width="1.5"/>
<path d="M8.85765 11.8566C8.85765 12.4089 8.40993 12.8566 7.85765 12.8566C7.30537 12.8566 6.85765 12.4089 6.85765 11.8566C6.85765 11.3043 7.30537 10.8566 7.85765 10.8566C8.40993 10.8566 8.85765 11.3043 8.85765 11.8566Z" fill="black"/>
<path d="M12.8576 11.8566C12.8576 12.4089 12.4099 12.8566 11.8576 12.8566C11.3054 12.8566 10.8576 12.4089 10.8576 11.8566C10.8576 11.3043 11.3054 10.8566 11.8576 10.8566C12.4099 10.8566 12.8576 11.3043 12.8576 11.8566Z" fill="black"/>
<path d="M16.8576 11.8566C16.8576 12.4089 16.4099 12.8566 15.8576 12.8566C15.3054 12.8566 14.8576 12.4089 14.8576 11.8566C14.8576 11.3043 15.3054 10.8566 15.8576 10.8566C16.4099 10.8566 16.8576 11.3043 16.8576 11.8566Z" fill="black"/>
</svg>
