<svg width="24" height="24" viewBox="0 0 24 24" fill="none" xmlns="http://www.w3.org/2000/svg">
<path d="M20.8026 4.60675C20.8026 5.71132 19.9072 6.60675 18.8026 6.60675C17.698 6.60675 16.8026 5.71132 16.8026 4.60675C16.8026 3.50218 17.698 2.60675 18.8026 2.60675C19.9072 2.60675 20.8026 3.50218 20.8026 4.60675Z" stroke="black" stroke-width="1.5"/>
<path fill-rule="evenodd" clip-rule="evenodd" d="M21.9569 8.29922C21.8152 7.87992 21.2836 7.77574 20.9075 8.00898C20.6158 8.18986 20.461 8.54896 20.5674 8.87531C21.6119 12.0804 20.8607 15.743 18.3138 18.2899C17.2758 19.328 15.6266 20.3179 13.7845 20.7585C11.9529 21.1967 9.98626 21.0812 8.2396 20.0018L8.19166 19.9721C8.02466 19.8686 7.85974 19.7664 7.71283 19.7082C7.44953 19.6039 7.21605 19.5686 6.9337 19.5905C6.77658 19.6026 6.6132 19.6452 6.45648 19.686L6.41526 19.6968C5.77604 19.8624 5.33319 19.9768 4.9928 20.041C4.64893 20.1058 4.49447 20.1012 4.41324 20.0846C3.92175 19.9846 3.53765 19.6005 3.43763 19.109C3.42109 19.0278 3.41643 18.8733 3.48127 18.5295C3.54546 18.1891 3.65983 17.7462 3.82551 17.107L3.83623 17.0658C3.87709 16.909 3.91973 16.7454 3.93182 16.5878C3.95351 16.3051 3.91767 16.0699 3.81276 15.8064C3.75412 15.6592 3.65175 15.495 3.54834 15.329L3.51875 15.2815C2.43285 13.5342 2.29811 11.5894 2.72465 9.77451C3.15378 7.94857 4.1436 6.29719 5.23232 5.20847C7.74215 2.69863 11.3355 1.93261 14.5067 2.91041C14.8346 3.01154 15.1913 2.8508 15.3675 2.55628C15.5947 2.17648 15.4819 1.64678 15.0604 1.51181C11.3482 0.323122 7.11768 1.20179 4.17166 4.14781C2.89199 5.42748 1.75945 7.32507 1.26443 9.43133C0.766827 11.5486 0.90615 13.9193 2.24473 16.0733C2.31403 16.1848 2.3582 16.256 2.38973 16.3098C2.41058 16.3454 2.41886 16.3617 2.42081 16.3655C2.43452 16.4006 2.43655 16.4136 2.43686 16.4157C2.43719 16.4178 2.43932 16.4315 2.43634 16.4714C2.4359 16.4745 2.43387 16.4875 2.42711 16.5174C2.41649 16.5644 2.40056 16.6262 2.37349 16.7306L2.36662 16.7571C2.20945 17.3635 2.08193 17.8555 2.00725 18.2515C1.93215 18.6498 1.89208 19.0363 1.96776 19.4082C2.18781 20.4894 3.03284 21.3345 4.1141 21.5545C4.48594 21.6302 4.87247 21.5901 5.27076 21.515C5.66675 21.4403 6.15864 21.3128 6.76497 21.1557L6.79161 21.1488C6.896 21.1217 6.95787 21.1058 7.00488 21.0951C7.03473 21.0884 7.04782 21.0863 7.05094 21.0859C7.09242 21.0828 7.10631 21.0852 7.10631 21.0852C7.10631 21.0852 7.12067 21.0873 7.15611 21.1011C7.16005 21.1031 7.17682 21.1115 7.21268 21.1324C7.26696 21.1641 7.33881 21.2084 7.45106 21.2778C9.61421 22.6145 12.0111 22.7251 14.1335 22.2174C16.2455 21.7122 18.1408 20.5842 19.3745 19.3506C22.3636 16.3615 23.2244 12.05 21.9569 8.29922ZM7.05094 21.0859V21.0859L7.04926 21.086L7.05094 21.0859Z" fill="black"/>
<path d="M8.8025 11.607C8.8025 12.1593 8.35479 12.607 7.8025 12.607C7.25022 12.607 6.8025 12.1593 6.8025 11.607C6.8025 11.0547 7.25022 10.607 7.8025 10.607C8.35479 10.607 8.8025 11.0547 8.8025 11.607Z" fill="black"/>
<path d="M12.8025 11.607C12.8025 12.1593 12.3548 12.607 11.8025 12.607C11.2502 12.607 10.8025 12.1593 10.8025 11.607C10.8025 11.0547 11.2502 10.607 11.8025 10.607C12.3548 10.607 12.8025 11.0547 12.8025 11.607Z" fill="black"/>
<path d="M16.8025 11.607C16.8025 12.1593 16.3548 12.607 15.8025 12.607C15.2502 12.607 14.8025 12.1593 14.8025 11.607C14.8025 11.0547 15.2502 10.607 15.8025 10.607C16.3548 10.607 16.8025 11.0547 16.8025 11.607Z" fill="black"/>
</svg>
