<svg width="24" height="24" viewBox="0 0 24 24" fill="none" xmlns="http://www.w3.org/2000/svg">
<g clip-path="url(#clip0_0_1)">
<path d="M4.04071 7.13211C4.77482 6.99923 5.74967 6.99923 7.22253 6.99923H8.77809C10.9561 6.99923 12.0451 6.99923 12.8769 7.42888C13.6087 7.8068 14.2036 8.40984 14.5764 9.15155C15.0003 9.99477 15.0003 11.0986 15.0003 13.3063V15.434C15.0003 15.6545 15.0003 15.7647 14.996 15.8578C14.9256 17.3639 14.0259 18.6465 12.7484 19.2479M4.04071 7.13211C3.68927 7.19572 3.393 7.28978 3.12368 7.42888C2.39194 7.8068 1.79702 8.40984 1.42418 9.15155C1.00031 9.99477 1.00031 11.0986 1.00031 13.3063V16.6398C1.00031 18.282 2.31369 19.6133 3.93382 19.6133H4.40185C5.00782 19.6133 5.42217 20.2337 5.19712 20.804C4.87942 21.6091 5.79414 22.3369 6.49024 21.8329L8.52081 20.3627C8.54152 20.3477 8.55188 20.3402 8.56206 20.333C9.21072 19.8697 9.9837 19.6186 10.7772 19.6134C10.7897 19.6133 10.8063 19.6133 10.8395 19.6133C11.0821 19.6133 11.2034 19.6133 11.2953 19.6089C11.8128 19.5841 12.3035 19.4573 12.7484 19.2479M4.04071 7.13211C4.09649 6.08094 4.22925 5.34953 4.54528 4.72928C5.02465 3.78847 5.78955 3.02357 6.73036 2.5442C7.79992 1.99924 9.20005 1.99924 12.0003 1.99924H14.0003C16.8006 1.99924 18.2007 1.99924 19.2703 2.5442C20.2111 3.02357 20.976 3.78847 21.4553 4.72928C22.0003 5.79884 22.0003 7.19897 22.0003 9.99923V14.2276C22.0003 16.3106 20.3117 17.9992 18.2287 17.9992H17.6269C16.8478 17.9992 16.3151 18.7861 16.6044 19.5095C17.0129 20.5307 15.8368 21.4539 14.9418 20.8146L12.7484 19.2479" stroke="black" stroke-width="1.5"/>
<path d="M6.00018 13.9993C6.00018 14.5516 5.55247 14.9993 5.00018 14.9993C4.4479 14.9993 4.00018 14.5516 4.00018 13.9993C4.00018 13.447 4.4479 12.9993 5.00018 12.9993C5.55247 12.9993 6.00018 13.447 6.00018 13.9993Z" fill="black"/>
<path d="M9.00018 13.9993C9.00018 14.5516 8.55247 14.9993 8.00018 14.9993C7.4479 14.9993 7.00018 14.5516 7.00018 13.9993C7.00018 13.447 7.4479 12.9993 8.00018 12.9993C8.55247 12.9993 9.00018 13.447 9.00018 13.9993Z" fill="black"/>
<path d="M12.0002 13.9993C12.0002 14.5516 11.5525 14.9993 11.0002 14.9993C10.4479 14.9993 10.0002 14.5516 10.0002 13.9993C10.0002 13.447 10.4479 12.9993 11.0002 12.9993C11.5525 12.9993 12.0002 13.447 12.0002 13.9993Z" fill="black"/>
</g>
<defs>
<clipPath id="clip0_0_1">
<rect width="24" height="24" fill="black" transform="translate(0.000488281 -0.000976562)"/>
</clipPath>
</defs>
</svg>
