<svg width="24" height="24" viewBox="0 0 24 24" fill="none" xmlns="http://www.w3.org/2000/svg">
<path d="M12.6691 18.9498L13.1051 19.5601L13.1051 19.5601L12.6691 18.9498ZM12.7222 18.912L12.2902 18.299L12.7222 18.912ZM15.5702 17.9993L15.575 18.7493L15.5702 17.9993ZM8.39582 19.5095L9.09218 19.788L8.39582 19.5095ZM10.0584 20.8146L9.62247 20.2043L9.62247 20.2043L10.0584 20.8146ZM20.9943 13.2357L20.2452 13.2002L20.9943 13.2357ZM16.2364 17.9936L16.2009 17.2445L16.2364 17.9936ZM5.72997 2.5442L6.07046 3.21246L6.07046 3.21246L5.72997 2.5442ZM3.54489 4.72928L4.21315 5.06978L3.54489 4.72928ZM18.2699 2.5442L17.9294 3.21246L17.9294 3.21246L18.2699 2.5442ZM20.4549 4.72928L19.7867 5.06978L20.4549 4.72928ZM7.99992 11.7492C7.58571 11.7492 7.24992 12.085 7.24992 12.4992C7.24992 12.9134 7.58571 13.2492 7.99992 13.2492V11.7492ZM15.9999 13.2492C16.4141 13.2492 16.7499 12.9134 16.7499 12.4992C16.7499 12.085 16.4141 11.7492 15.9999 11.7492V13.2492ZM7.99992 7.24924C7.58571 7.24924 7.24992 7.58502 7.24992 7.99924C7.24992 8.41345 7.58571 8.74923 7.99992 8.74923V7.24924ZM15.9999 8.74923C16.4141 8.74923 16.7499 8.41345 16.7499 7.99924C16.7499 7.58502 16.4141 7.24924 15.9999 7.24924V8.74923ZM12.9999 1.24924H10.9999V2.74924H12.9999V1.24924ZM2.24992 9.99923V14.2276H3.74992V9.99923H2.24992ZM21.7499 12.6981V9.99923H20.2499V12.6981H21.7499ZM6.77158 18.7492H7.37333V17.2492H6.77158V18.7492ZM10.4943 21.4249L13.1051 19.5601L12.2332 18.3395L9.62247 20.2043L10.4943 21.4249ZM13.1051 19.5601C13.1325 19.5405 13.1435 19.5326 13.1542 19.5251L12.2902 18.299C12.2747 18.3099 12.2591 18.321 12.2332 18.3395L13.1051 19.5601ZM15.6503 17.2492C15.6089 17.2492 15.5845 17.2492 15.5654 17.2494L15.575 18.7493C15.588 18.7492 15.6063 18.7492 15.6503 18.7492V17.2492ZM13.1542 19.5251C13.8631 19.0256 14.7078 18.7549 15.575 18.7493L15.5654 17.2494C14.3922 17.2569 13.2493 17.6231 12.2902 18.299L13.1542 19.5251ZM7.37333 18.7492C7.62183 18.7492 7.79176 19.0002 7.69946 19.2309L9.09218 19.788C9.57859 18.572 8.68303 17.2492 7.37333 17.2492V18.7492ZM7.69946 19.2309C7.0128 20.9476 8.98982 22.4995 10.4943 21.4249L9.62247 20.2043C9.33701 20.4082 8.96189 20.1137 9.09218 19.788L7.69946 19.2309ZM20.2499 12.6981C20.2499 12.9863 20.2497 13.1042 20.2452 13.2002L21.7435 13.2711C21.7501 13.1308 21.7499 12.9691 21.7499 12.6981H20.2499ZM15.6503 18.7492C15.9524 18.7492 16.1312 18.7495 16.2718 18.7428L16.2009 17.2445C16.1052 17.249 15.972 17.2492 15.6503 17.2492V18.7492ZM20.2452 13.2002C20.1415 15.3894 18.3901 17.1408 16.2009 17.2445L16.2718 18.7428C19.2337 18.6026 21.6033 16.233 21.7435 13.2711L20.2452 13.2002ZM2.24992 14.2276C2.24992 16.7248 4.27434 18.7492 6.77158 18.7492V17.2492C5.10276 17.2492 3.74992 15.8964 3.74992 14.2276H2.24992ZM10.9999 1.24924C9.61217 1.24924 8.52624 1.24865 7.65486 1.31985C6.77472 1.39176 6.04761 1.54062 5.38948 1.87595L6.07046 3.21246C6.48189 3.00283 6.98963 2.8792 7.77701 2.81487C8.57314 2.74982 9.58741 2.74924 10.9999 2.74924V1.24924ZM3.74992 9.99923C3.74992 8.58673 3.75051 7.57245 3.81555 6.77632C3.87988 5.98894 4.00351 5.4812 4.21315 5.06978L2.87664 4.38879C2.5413 5.04692 2.39245 5.77403 2.32054 6.65417C2.24934 7.52556 2.24992 8.61148 2.24992 9.99923H3.74992ZM5.38948 1.87595C4.30755 2.42722 3.42791 3.30686 2.87664 4.38879L4.21315 5.06978C4.62061 4.27009 5.27077 3.61992 6.07046 3.21246L5.38948 1.87595ZM12.9999 2.74924C14.4124 2.74924 15.4267 2.74982 16.2228 2.81487C17.0102 2.8792 17.5179 3.00283 17.9294 3.21246L18.6104 1.87595C17.9522 1.54062 17.2251 1.39176 16.345 1.31985C15.4736 1.24865 14.3877 1.24924 12.9999 1.24924V2.74924ZM21.7499 9.99923C21.7499 8.61148 21.7505 7.52556 21.6793 6.65417C21.6074 5.77403 21.4585 5.04692 21.1232 4.38879L19.7867 5.06978C19.9963 5.4812 20.12 5.98894 20.1843 6.77632C20.2493 7.57245 20.2499 8.58673 20.2499 9.99923H21.7499ZM17.9294 3.21246C18.7291 3.61992 19.3792 4.27009 19.7867 5.06978L21.1232 4.38879C20.5719 3.30686 19.6923 2.42722 18.6104 1.87595L17.9294 3.21246ZM7.99992 13.2492H15.9999V11.7492H7.99992V13.2492ZM7.99992 8.74923H15.9999V7.24924H7.99992V8.74923Z" fill="black"/>
</svg>
