<svg width="24" height="24" viewBox="0 0 24 24" fill="none" xmlns="http://www.w3.org/2000/svg">
<path d="M11.6689 18.9499L12.1048 19.5602L12.1048 19.5602L11.6689 18.9499ZM11.7219 18.9121L11.2899 18.299L11.2899 18.299L11.7219 18.9121ZM14.57 17.9994L14.5748 18.7494L14.57 17.9994ZM7.39556 19.5095L8.09192 19.7881L7.39556 19.5095ZM9.05814 20.8147L8.62221 20.2044L8.62221 20.2044L9.05814 20.8147ZM21.7977 14.4061L22.5174 14.6172L21.7977 14.4061ZM18.4065 17.7973L18.6175 18.517L18.4065 17.7973ZM4.72971 2.54427L5.07021 3.21252L4.72971 2.54427ZM2.54463 4.72934L3.21289 5.06984L2.54463 4.72934ZM19.2696 2.54427L18.9291 3.21252L19.2696 2.54427ZM21.4547 4.72934L20.7864 5.06984L21.4547 4.72934ZM7.99966 7.2493C7.58545 7.2493 7.24966 7.58508 7.24966 7.9993C7.24966 8.41351 7.58545 8.7493 7.99966 8.7493V7.2493ZM15.9997 8.7493C16.4139 8.7493 16.7497 8.41351 16.7497 7.9993C16.7497 7.58508 16.4139 7.2493 15.9997 7.2493V8.7493ZM9.99966 11.2493C9.58545 11.2493 9.24966 11.5851 9.24966 11.9993C9.24966 12.4135 9.58545 12.7493 9.99966 12.7493V11.2493ZM13.9997 12.7493C14.4139 12.7493 14.7497 12.4135 14.7497 11.9993C14.7497 11.5851 14.4139 11.2493 13.9997 11.2493V12.7493ZM13.9997 1.2493H9.99966V2.7493H13.9997V1.2493ZM1.24967 9.9993V14.2276H2.74967V9.9993H1.24967ZM22.7497 11.1835V9.9993H21.2497V11.1835H22.7497ZM5.77132 18.7493H6.37308V17.2493H5.77132V18.7493ZM9.49407 21.425L12.1048 19.5602L11.2329 18.3396L8.62221 20.2044L9.49407 21.425ZM14.6351 18.7493H15.1839V17.2493H14.6351V18.7493ZM12.1048 19.5602C12.1322 19.5406 12.1433 19.5327 12.1539 19.5252L11.2899 18.299C11.2744 18.3099 11.2588 18.3211 11.2329 18.3396L12.1048 19.5602ZM14.6351 17.2493C14.6033 17.2493 14.5841 17.2493 14.5652 17.2494L14.5748 18.7494C14.5878 18.7493 14.6014 18.7493 14.6351 18.7493V17.2493ZM12.1539 19.5252C12.8628 19.0256 13.7076 18.7549 14.5748 18.7494L14.5652 17.2494C13.3919 17.2569 12.249 17.6232 11.2899 18.299L12.1539 19.5252ZM6.37308 18.7493C6.62158 18.7493 6.7915 19.0003 6.69921 19.231L8.09192 19.7881C8.57833 18.5721 7.68277 17.2493 6.37308 17.2493V18.7493ZM6.69921 19.231C6.01255 20.9476 7.98957 22.4996 9.49407 21.425L8.62221 20.2044C8.33675 20.4083 7.96164 20.1138 8.09192 19.7881L6.69921 19.231ZM21.2497 11.1835C21.2497 12.9254 21.242 13.6356 21.078 14.1951L22.5174 14.6172C22.7573 13.7989 22.7497 12.8199 22.7497 11.1835H21.2497ZM15.1839 18.7493C16.8202 18.7493 17.7992 18.7569 18.6175 18.517L18.1955 17.0776C17.6359 17.2417 16.9258 17.2493 15.1839 17.2493V18.7493ZM21.078 14.1951C20.6707 15.5841 19.5845 16.6703 18.1955 17.0776L18.6175 18.517C20.4968 17.966 21.9663 16.4964 22.5174 14.6172L21.078 14.1951ZM1.24967 14.2276C1.24967 16.7249 3.27408 18.7493 5.77132 18.7493V17.2493C4.10251 17.2493 2.74967 15.8965 2.74967 14.2276H1.24967ZM9.99966 1.2493C8.61191 1.2493 7.52599 1.24872 6.6546 1.31991C5.77446 1.39182 5.04735 1.54068 4.38922 1.87601L5.07021 3.21252C5.48163 3.00289 5.98937 2.87926 6.77675 2.81493C7.57288 2.74988 8.58716 2.7493 9.99966 2.7493V1.2493ZM2.74967 9.9993C2.74967 8.58679 2.75025 7.57252 2.8153 6.77638C2.87963 5.989 3.00326 5.48127 3.21289 5.06984L1.87638 4.38885C1.54105 5.04698 1.39219 5.77409 1.32028 6.65423C1.24908 7.52562 1.24967 8.61154 1.24967 9.9993H2.74967ZM4.38922 1.87601C3.30729 2.42728 2.42765 3.30692 1.87638 4.38885L3.21289 5.06984C3.62035 4.27015 4.27052 3.61998 5.07021 3.21252L4.38922 1.87601ZM13.9997 2.7493C15.4122 2.7493 16.4264 2.74988 17.2226 2.81493C18.01 2.87926 18.5177 3.00289 18.9291 3.21252L19.6101 1.87601C18.952 1.54068 18.2249 1.39182 17.3447 1.31991C16.4733 1.24872 15.3874 1.2493 13.9997 1.2493V2.7493ZM22.7497 9.9993C22.7497 8.61154 22.7502 7.52562 22.679 6.65423C22.6071 5.77409 22.4583 5.04698 22.1229 4.38885L20.7864 5.06984C20.9961 5.48127 21.1197 5.989 21.184 6.77638C21.2491 7.57252 21.2497 8.58679 21.2497 9.9993H22.7497ZM18.9291 3.21252C19.7288 3.61998 20.379 4.27015 20.7864 5.06984L22.1229 4.38885C21.5717 3.30692 20.692 2.42728 19.6101 1.87601L18.9291 3.21252ZM7.99966 8.7493H15.9997V7.2493H7.99966V8.7493ZM9.99966 12.7493H13.9997V11.2493H9.99966V12.7493Z" fill="black"/>
</svg>
