<svg width="24" height="24" viewBox="0 0 24 24" fill="none" xmlns="http://www.w3.org/2000/svg">
<path d="M8.74972 10.7493C8.74972 11.3016 8.30201 11.7493 7.74972 11.7493C7.19744 11.7493 6.74973 11.3016 6.74973 10.7493C6.74973 10.197 7.19744 9.7493 7.74972 9.7493C8.30201 9.7493 8.74972 10.197 8.74972 10.7493Z" fill="black"/>
<path d="M12.7497 10.7493C12.7497 11.3016 12.302 11.7493 11.7497 11.7493C11.1974 11.7493 10.7497 11.3016 10.7497 10.7493C10.7497 10.197 11.1974 9.7493 11.7497 9.7493C12.302 9.7493 12.7497 10.197 12.7497 10.7493Z" fill="black"/>
<path d="M16.7497 10.7493C16.7497 11.3016 16.302 11.7493 15.7497 11.7493C15.1974 11.7493 14.7497 11.3016 14.7497 10.7493C14.7497 10.197 15.1974 9.7493 15.7497 9.7493C16.302 9.7493 16.7497 10.197 16.7497 10.7493Z" fill="black"/>
<path d="M21.7496 4.74933C21.7496 5.8539 20.8541 6.74933 19.7496 6.74933C18.645 6.74933 17.7496 5.8539 17.7496 4.74933C17.7496 3.64476 18.645 2.74933 19.7496 2.74933C20.8541 2.74933 21.7496 3.64476 21.7496 4.74933Z" stroke="black" stroke-width="1.5"/>
<path d="M21.4067 8.39103C21.8672 8.18116 22.4851 8.45423 22.4923 8.96026C22.4997 9.48521 22.4997 10.0673 22.4997 10.7157L22.4997 12.0804C22.5 13.629 22.5001 14.5737 22.2674 15.3672C21.7164 17.2464 20.2468 18.716 18.3676 19.267C17.5741 19.4997 16.6295 19.4995 15.0808 19.4993L14.3851 19.4993L14.3248 19.4994C13.4576 19.5049 12.6129 19.7756 11.904 20.2752L11.8549 20.3102L9.24413 22.175C7.73963 23.2496 5.76261 21.6976 6.44927 19.981C6.54156 19.7503 6.37163 19.4993 6.12314 19.4993H5.52138C3.02414 19.4993 0.999725 17.4749 0.999725 14.9776V10.7157C0.999721 9.34402 0.999717 8.26858 1.07034 7.40423C1.14225 6.52409 1.2911 5.79698 1.62644 5.13885C2.17771 4.05692 3.05735 3.17728 4.13928 2.62601C4.79741 2.29068 5.52452 2.14182 6.40466 2.06991C7.26901 1.99929 8.34444 1.99929 9.71616 1.9993H13.7833C14.4316 1.9993 15.0138 1.99929 15.5388 2.00675C16.0448 2.01394 16.3179 2.63179 16.108 3.09231C15.9975 3.33472 15.7613 3.50992 15.4949 3.5063C14.9886 3.49943 14.4131 3.4993 13.7497 3.4993H9.74972C8.33722 3.4993 7.32294 3.49988 6.52681 3.56493C5.73943 3.62926 5.23169 3.75289 4.82026 3.96252C4.02058 4.36998 3.37041 5.02015 2.96295 5.81984C2.75331 6.23126 2.62969 6.739 2.56536 7.52638C2.50031 8.32251 2.49972 9.33679 2.49972 10.7493V14.9776C2.49972 16.6464 3.85257 17.9993 5.52138 17.9993H6.12314C7.43283 17.9993 8.32839 19.3221 7.84198 20.5381C7.71169 20.8638 8.08681 21.1583 8.37227 20.9544L10.983 19.0896L11.04 19.049C11.9991 18.3732 13.142 18.0069 14.3152 17.9994L14.3851 17.9993H14.9339C16.6759 17.9993 17.386 17.9917 17.9455 17.8276C19.3345 17.4203 20.4207 16.3341 20.828 14.9451C20.9921 14.3856 20.9997 13.6754 20.9997 11.9335V10.7493C20.9997 10.086 20.9996 9.51044 20.9927 9.0041C20.9891 8.73773 21.1643 8.5015 21.4067 8.39103Z" fill="black"/>
</svg>
