<svg width="24" height="24" viewBox="0 0 24 24" fill="none" xmlns="http://www.w3.org/2000/svg">
<path d="M22 9.9993C22 7.19903 22 5.7989 21.4551 4.72934C20.9757 3.78853 20.2108 3.02363 19.27 2.54427C18.2004 1.9993 16.8003 1.9993 14 1.9993H10C7.19977 1.9993 5.79963 1.9993 4.73008 2.54427C3.78927 3.02363 3.02436 3.78853 2.545 4.72934C2.00003 5.7989 2.00003 7.19903 2.00003 9.9993V14.2276C2.00003 16.3107 3.68866 17.9993 5.77168 17.9993H6.37344C7.15254 17.9993 7.68528 18.7862 7.39593 19.5095C6.98746 20.5307 8.16352 21.4539 9.05851 20.8147L11.6692 18.9499C11.6959 18.9308 11.7092 18.9213 11.7223 18.9121C12.5563 18.3244 13.5501 18.0059 14.5703 17.9994C14.5863 17.9993 14.6027 17.9993 14.6354 17.9993H15.1842C16.8734 17.9993 17.718 17.9993 18.4069 17.7973C20.041 17.3181 21.3189 16.0403 21.798 14.4061C22 13.7172 22 12.8727 22 11.1835V9.9993Z" stroke="black" stroke-width="1.5"/>
<path d="M8.99975 9.99927C8.99975 10.5516 8.55204 10.9993 7.99976 10.9993C7.44747 10.9993 6.99976 10.5516 6.99976 9.99927C6.99976 9.44698 7.44747 8.99927 7.99976 8.99927C8.55204 8.99927 8.99975 9.44698 8.99975 9.99927Z" fill="black"/>
<path d="M12.9998 9.99927C12.9998 10.5516 12.552 10.9993 11.9998 10.9993C11.4475 10.9993 10.9998 10.5516 10.9998 9.99927C10.9998 9.44698 11.4475 8.99927 11.9998 8.99927C12.552 8.99927 12.9998 9.44698 12.9998 9.99927Z" fill="black"/>
<path d="M16.9998 9.99927C16.9998 10.5516 16.552 10.9993 15.9998 10.9993C15.4475 10.9993 14.9998 10.5516 14.9998 9.99927C14.9998 9.44698 15.4475 8.99927 15.9998 8.99927C16.552 8.99927 16.9998 9.44698 16.9998 9.99927Z" fill="black"/>
</svg>
