<svg width="24" height="24" viewBox="0 0 24 24" fill="none" xmlns="http://www.w3.org/2000/svg">
<path d="M11.669 18.9499L12.1049 19.5602L12.1049 19.5602L11.669 18.9499ZM11.722 18.9121L11.29 18.299L11.29 18.299L11.722 18.9121ZM14.5701 17.9994L14.5749 18.7494L14.5701 17.9994ZM7.39568 19.5095L8.09203 19.7881L7.39568 19.5095ZM9.05825 20.8147L8.62233 20.2044L8.62233 20.2044L9.05825 20.8147ZM21.7978 14.4061L22.5175 14.6172L21.7978 14.4061ZM18.4066 17.7973L18.6177 18.517L18.4066 17.7973ZM4.72982 2.54427L5.07032 3.21252L4.72982 2.54427ZM2.54475 4.72934L3.213 5.06984L2.54475 4.72934ZM19.2697 2.54427L18.9292 3.21252L19.2697 2.54427ZM21.4548 4.72934L20.7865 5.06984L21.4548 4.72934ZM7.99978 11.2493C7.58556 11.2493 7.24978 11.5851 7.24978 11.9993C7.24978 12.4135 7.58556 12.7493 7.99978 12.7493V11.2493ZM15.9998 12.7493C16.414 12.7493 16.7498 12.4135 16.7498 11.9993C16.7498 11.5851 16.414 11.2493 15.9998 11.2493V12.7493ZM9.99977 7.2493C9.58556 7.2493 9.24978 7.58508 9.24978 7.9993C9.24978 8.41351 9.58556 8.7493 9.99977 8.7493V7.2493ZM13.9998 8.7493C14.414 8.7493 14.7498 8.41351 14.7498 7.9993C14.7498 7.58508 14.414 7.2493 13.9998 7.2493V8.7493ZM13.9998 1.2493H9.99977V2.7493H13.9998V1.2493ZM1.24978 9.9993V14.2276H2.74978V9.9993H1.24978ZM22.7498 11.1835V9.9993H21.2498V11.1835H22.7498ZM5.77143 18.7493H6.37319V17.2493H5.77143V18.7493ZM9.49418 21.425L12.1049 19.5602L11.2331 18.3396L8.62233 20.2044L9.49418 21.425ZM14.6352 18.7493H15.184V17.2493H14.6352V18.7493ZM12.1049 19.5602C12.1323 19.5406 12.1434 19.5327 12.154 19.5252L11.29 18.299C11.2745 18.3099 11.2589 18.3211 11.2331 18.3396L12.1049 19.5602ZM14.6352 17.2493C14.6034 17.2493 14.5842 17.2493 14.5653 17.2494L14.5749 18.7494C14.5879 18.7493 14.6015 18.7493 14.6352 18.7493V17.2493ZM12.154 19.5252C12.8629 19.0256 13.7077 18.7549 14.5749 18.7494L14.5653 17.2494C13.392 17.2569 12.2491 17.6232 11.29 18.299L12.154 19.5252ZM6.37319 18.7493C6.62169 18.7493 6.79161 19.0003 6.69932 19.231L8.09203 19.7881C8.57844 18.5721 7.68289 17.2493 6.37319 17.2493V18.7493ZM6.69932 19.231C6.01266 20.9476 7.98968 22.4996 9.49418 21.425L8.62233 20.2044C8.33686 20.4083 7.96175 20.1138 8.09203 19.7881L6.69932 19.231ZM21.2498 11.1835C21.2498 12.9254 21.2421 13.6356 21.0781 14.1951L22.5175 14.6172C22.7574 13.7989 22.7498 12.8199 22.7498 11.1835H21.2498ZM15.184 18.7493C16.8204 18.7493 17.7993 18.7569 18.6177 18.517L18.1956 17.0776C17.6361 17.2417 16.9259 17.2493 15.184 17.2493V18.7493ZM21.0781 14.1951C20.6708 15.5841 19.5846 16.6703 18.1956 17.0776L18.6177 18.517C20.4969 17.966 21.9664 16.4964 22.5175 14.6172L21.0781 14.1951ZM1.24978 14.2276C1.24978 16.7249 3.27419 18.7493 5.77143 18.7493V17.2493C4.10262 17.2493 2.74978 15.8965 2.74978 14.2276H1.24978ZM9.99977 1.2493C8.61202 1.2493 7.5261 1.24872 6.65471 1.31991C5.77457 1.39182 5.04746 1.54068 4.38933 1.87601L5.07032 3.21252C5.48175 3.00289 5.98948 2.87926 6.77686 2.81493C7.57299 2.74988 8.58727 2.7493 9.99977 2.7493V1.2493ZM2.74978 9.9993C2.74978 8.58679 2.75036 7.57252 2.81541 6.77638C2.87974 5.989 3.00337 5.48127 3.213 5.06984L1.87649 4.38885C1.54116 5.04698 1.3923 5.77409 1.32039 6.65423C1.2492 7.52562 1.24978 8.61154 1.24978 9.9993H2.74978ZM4.38933 1.87601C3.3074 2.42728 2.42776 3.30692 1.87649 4.38885L3.213 5.06984C3.62046 4.27015 4.27063 3.61998 5.07032 3.21252L4.38933 1.87601ZM13.9998 2.7493C15.4123 2.7493 16.4266 2.74988 17.2227 2.81493C18.0101 2.87926 18.5178 3.00289 18.9292 3.21252L19.6102 1.87601C18.9521 1.54068 18.225 1.39182 17.3448 1.31991C16.4735 1.24872 15.3875 1.2493 13.9998 1.2493V2.7493ZM22.7498 9.9993C22.7498 8.61154 22.7504 7.52562 22.6792 6.65423C22.6072 5.77409 22.4584 5.04698 22.1231 4.38885L20.7865 5.06984C20.9962 5.48127 21.1198 5.989 21.1841 6.77638C21.2492 7.57252 21.2498 8.58679 21.2498 9.9993H22.7498ZM18.9292 3.21252C19.7289 3.61998 20.3791 4.27015 20.7865 5.06984L22.1231 4.38885C21.5718 3.30692 20.6921 2.42728 19.6102 1.87601L18.9292 3.21252ZM7.99978 12.7493H15.9998V11.2493H7.99978V12.7493ZM9.99977 8.7493H13.9998V7.2493H9.99977V8.7493Z" fill="black"/>
</svg>
