<svg width="24" height="24" viewBox="0 0 24 24" fill="none" xmlns="http://www.w3.org/2000/svg">
<path d="M11.6692 18.9499L12.1051 19.5602L12.1051 19.5602L11.6692 18.9499ZM11.7222 18.9121L11.2902 18.299L11.2902 18.299L11.7222 18.9121ZM14.5703 17.9994L14.5751 18.7494L14.5703 17.9994ZM7.39586 19.5095L8.09222 19.7881L7.39586 19.5095ZM9.05844 20.8147L8.62251 20.2044L8.62251 20.2044L9.05844 20.8147ZM21.798 14.4061L22.5177 14.6172L21.798 14.4061ZM18.4068 17.7973L18.6178 18.517L18.4068 17.7973ZM4.73001 2.54427L5.0705 3.21252L4.73001 2.54427ZM2.54493 4.72934L3.21319 5.06984L2.54493 4.72934ZM19.2699 2.54427L18.9294 3.21252L19.2699 2.54427ZM21.455 4.72934L20.7867 5.06984L21.455 4.72934ZM7.99996 11.7493C7.58575 11.7493 7.24996 12.0851 7.24996 12.4993C7.24996 12.9135 7.58575 13.2493 7.99996 13.2493V11.7493ZM16 13.2493C16.4142 13.2493 16.75 12.9135 16.75 12.4993C16.75 12.0851 16.4142 11.7493 16 11.7493V13.2493ZM7.99996 7.2493C7.58575 7.2493 7.24996 7.58508 7.24996 7.9993C7.24996 8.41351 7.58575 8.7493 7.99996 8.7493V7.2493ZM16 8.7493C16.4142 8.7493 16.75 8.41351 16.75 7.9993C16.75 7.58508 16.4142 7.2493 16 7.2493V8.7493ZM14 1.2493H9.99996V2.7493H14V1.2493ZM1.24997 9.9993V14.2276H2.74997V9.9993H1.24997ZM22.75 11.1835V9.9993H21.25V11.1835H22.75ZM5.77162 18.7493H6.37338V17.2493H5.77162V18.7493ZM9.49437 21.425L12.1051 19.5602L11.2332 18.3396L8.62251 20.2044L9.49437 21.425ZM14.6354 18.7493H15.1842V17.2493H14.6354V18.7493ZM12.1051 19.5602C12.1325 19.5406 12.1435 19.5327 12.1542 19.5252L11.2902 18.299C11.2747 18.3099 11.2591 18.3211 11.2332 18.3396L12.1051 19.5602ZM14.6354 17.2493C14.6036 17.2493 14.5844 17.2493 14.5655 17.2494L14.5751 18.7494C14.5881 18.7493 14.6017 18.7493 14.6354 18.7493V17.2493ZM12.1542 19.5252C12.8631 19.0256 13.7079 18.7549 14.5751 18.7494L14.5655 17.2494C13.3922 17.2569 12.2493 17.6232 11.2902 18.299L12.1542 19.5252ZM6.37338 18.7493C6.62187 18.7493 6.7918 19.0003 6.69951 19.231L8.09222 19.7881C8.57863 18.5721 7.68307 17.2493 6.37338 17.2493V18.7493ZM6.69951 19.231C6.01285 20.9476 7.98987 22.4996 9.49437 21.425L8.62251 20.2044C8.33705 20.4083 7.96193 20.1138 8.09222 19.7881L6.69951 19.231ZM21.25 11.1835C21.25 12.9254 21.2423 13.6356 21.0783 14.1951L22.5177 14.6172C22.7576 13.7989 22.75 12.8199 22.75 11.1835H21.25ZM15.1842 18.7493C16.8205 18.7493 17.7995 18.7569 18.6178 18.517L18.1958 17.0776C17.6362 17.2417 16.9261 17.2493 15.1842 17.2493V18.7493ZM21.0783 14.1951C20.671 15.5841 19.5848 16.6703 18.1958 17.0776L18.6178 18.517C20.4971 17.966 21.9666 16.4964 22.5177 14.6172L21.0783 14.1951ZM1.24997 14.2276C1.24997 16.7249 3.27438 18.7493 5.77162 18.7493V17.2493C4.10281 17.2493 2.74997 15.8965 2.74997 14.2276H1.24997ZM9.99996 1.2493C8.61221 1.2493 7.52628 1.24872 6.6549 1.31991C5.77476 1.39182 5.04765 1.54068 4.38952 1.87601L5.0705 3.21252C5.48193 3.00289 5.98967 2.87926 6.77705 2.81493C7.57318 2.74988 8.58746 2.7493 9.99996 2.7493V1.2493ZM2.74997 9.9993C2.74997 8.58679 2.75055 7.57252 2.8156 6.77638C2.87993 5.989 3.00355 5.48127 3.21319 5.06984L1.87668 4.38885C1.54134 5.04698 1.39249 5.77409 1.32058 6.65423C1.24938 7.52562 1.24997 8.61154 1.24997 9.9993H2.74997ZM4.38952 1.87601C3.30759 2.42728 2.42795 3.30692 1.87668 4.38885L3.21319 5.06984C3.62065 4.27015 4.27082 3.61998 5.0705 3.21252L4.38952 1.87601ZM14 2.7493C15.4125 2.7493 16.4267 2.74988 17.2229 2.81493C18.0103 2.87926 18.518 3.00289 18.9294 3.21252L19.6104 1.87601C18.9523 1.54068 18.2252 1.39182 17.345 1.31991C16.4736 1.24872 15.3877 1.2493 14 1.2493V2.7493ZM22.75 9.9993C22.75 8.61154 22.7505 7.52562 22.6793 6.65423C22.6074 5.77409 22.4586 5.04698 22.1232 4.38885L20.7867 5.06984C20.9964 5.48127 21.12 5.989 21.1843 6.77638C21.2494 7.57252 21.25 8.58679 21.25 9.9993H22.75ZM18.9294 3.21252C19.7291 3.61998 20.3793 4.27015 20.7867 5.06984L22.1232 4.38885C21.572 3.30692 20.6923 2.42728 19.6104 1.87601L18.9294 3.21252ZM7.99996 13.2493H16V11.7493H7.99996V13.2493ZM7.99996 8.7493H16V7.2493H7.99996V8.7493Z" fill="black"/>
</svg>
