<svg width="24" height="24" viewBox="0 0 24 24" fill="none" xmlns="http://www.w3.org/2000/svg">
<path d="M12.6689 18.9498L13.1048 19.5601L13.1048 19.5601L12.6689 18.9498ZM12.7219 18.912L12.2899 18.299L12.7219 18.912ZM15.57 17.9993L15.5748 18.7493L15.57 17.9993ZM8.39559 19.5095L9.09195 19.788L8.39559 19.5095ZM10.0582 20.8146L9.62224 20.2043L9.62224 20.2043L10.0582 20.8146ZM20.9941 13.2357L20.2449 13.2002L20.9941 13.2357ZM16.2361 17.9936L16.2007 17.2445L16.2361 17.9936ZM5.72974 2.5442L6.07023 3.21246L6.07023 3.21246L5.72974 2.5442ZM3.54466 4.72928L4.21292 5.06978L3.54466 4.72928ZM18.2696 2.5442L17.9291 3.21246L17.9291 3.21246L18.2696 2.5442ZM20.4547 4.72928L19.7865 5.06978L20.4547 4.72928ZM7.99969 11.2492C7.58548 11.2492 7.24969 11.585 7.24969 11.9992C7.24969 12.4134 7.58548 12.7492 7.99969 12.7492V11.2492ZM15.9997 12.7492C16.4139 12.7492 16.7497 12.4134 16.7497 11.9992C16.7497 11.585 16.4139 11.2492 15.9997 11.2492V12.7492ZM9.99969 7.24924C9.58548 7.24924 9.24969 7.58502 9.24969 7.99924C9.24969 8.41345 9.58548 8.74924 9.99969 8.74923L9.99969 7.24924ZM13.9997 8.74923C14.4139 8.74923 14.7497 8.41345 14.7497 7.99923C14.7497 7.58502 14.4139 7.24924 13.9997 7.24924L13.9997 8.74923ZM12.9997 1.24924H10.9997V2.74924H12.9997V1.24924ZM2.2497 9.99923V14.2276H3.74969V9.99923H2.2497ZM21.7497 12.6981V9.99923H20.2497V12.6981H21.7497ZM6.77135 18.7492H7.37311V17.2492H6.77135V18.7492ZM10.4941 21.4249L13.1048 19.5601L12.233 18.3395L9.62224 20.2043L10.4941 21.4249ZM13.1048 19.5601C13.1322 19.5405 13.1433 19.5326 13.1539 19.5251L12.2899 18.299C12.2744 18.3099 12.2588 18.321 12.233 18.3395L13.1048 19.5601ZM15.6501 17.2492C15.6087 17.2492 15.5842 17.2492 15.5652 17.2494L15.5748 18.7493C15.5878 18.7492 15.606 18.7492 15.6501 18.7492V17.2492ZM13.1539 19.5251C13.8628 19.0256 14.7076 18.7549 15.5748 18.7493L15.5652 17.2494C14.3919 17.2569 13.249 17.6231 12.2899 18.299L13.1539 19.5251ZM7.37311 18.7492C7.6216 18.7492 7.79153 19.0002 7.69924 19.2309L9.09195 19.788C9.57836 18.572 8.6828 17.2492 7.37311 17.2492V18.7492ZM7.69924 19.2309C7.01258 20.9476 8.9896 22.4995 10.4941 21.4249L9.62224 20.2043C9.33678 20.4082 8.96166 20.1137 9.09195 19.788L7.69924 19.2309ZM20.2497 12.6981C20.2497 12.9863 20.2495 13.1042 20.2449 13.2002L21.7433 13.2711C21.7499 13.1308 21.7497 12.9691 21.7497 12.6981H20.2497ZM15.6501 18.7492C15.9522 18.7492 16.131 18.7495 16.2716 18.7428L16.2007 17.2445C16.1049 17.249 15.9718 17.2492 15.6501 17.2492V18.7492ZM20.2449 13.2002C20.1413 15.3894 18.3899 17.1408 16.2007 17.2445L16.2716 18.7428C19.2335 18.6026 21.603 16.233 21.7433 13.2711L20.2449 13.2002ZM2.2497 14.2276C2.2497 16.7248 4.27411 18.7492 6.77135 18.7492V17.2492C5.10254 17.2492 3.74969 15.8964 3.74969 14.2276H2.2497ZM10.9997 1.24924C9.61194 1.24924 8.52601 1.24865 7.65463 1.31985C6.77449 1.39176 6.04738 1.54062 5.38925 1.87595L6.07023 3.21246C6.48166 3.00283 6.9894 2.8792 7.77678 2.81487C8.57291 2.74982 9.58718 2.74924 10.9997 2.74924V1.24924ZM3.74969 9.99923C3.74969 8.58673 3.75028 7.57245 3.81532 6.77632C3.87966 5.98894 4.00328 5.4812 4.21292 5.06978L2.87641 4.38879C2.54107 5.04692 2.39222 5.77403 2.32031 6.65417C2.24911 7.52556 2.2497 8.61148 2.2497 9.99923H3.74969ZM5.38925 1.87595C4.30732 2.42722 3.42768 3.30686 2.87641 4.38879L4.21292 5.06978C4.62038 4.27009 5.27055 3.61992 6.07023 3.21246L5.38925 1.87595ZM12.9997 2.74924C14.4122 2.74924 15.4265 2.74982 16.2226 2.81487C17.01 2.8792 17.5177 3.00283 17.9291 3.21246L18.6101 1.87595C17.952 1.54062 17.2249 1.39176 16.3448 1.31985C15.4734 1.24865 14.3874 1.24924 12.9997 1.24924V2.74924ZM21.7497 9.99923C21.7497 8.61148 21.7503 7.52556 21.6791 6.65417C21.6072 5.77403 21.4583 5.04692 21.123 4.38879L19.7865 5.06978C19.9961 5.4812 20.1197 5.98894 20.1841 6.77632C20.2491 7.57245 20.2497 8.58673 20.2497 9.99923H21.7497ZM17.9291 3.21246C18.7288 3.61992 19.379 4.27009 19.7865 5.06978L21.123 4.38879C20.5717 3.30686 19.6921 2.42722 18.6101 1.87595L17.9291 3.21246ZM7.99969 12.7492H15.9997V11.2492H7.99969V12.7492ZM9.99969 8.74923L13.9997 8.74923L13.9997 7.24924L9.99969 7.24924L9.99969 8.74923Z" fill="black"/>
</svg>
