<svg width="24" height="24" viewBox="0 0 24 24" fill="none" xmlns="http://www.w3.org/2000/svg">
<path d="M20.0787 6.78934C20.4688 7.66245 20.6341 8.85261 20.9183 10.8987C21.3545 14.0391 21.5726 15.6093 21.093 16.8289C20.6721 17.8995 19.8948 18.7922 18.8922 19.3565C17.7503 19.9992 16.165 19.9992 12.9944 19.9992H11.3702C8.19959 19.9992 6.6143 19.9992 5.47232 19.3565C4.46979 18.7922 3.69249 17.8995 3.27152 16.8289C2.79199 15.6093 3.01008 14.0391 3.44625 10.8987C3.71233 8.98289 3.87419 7.8175 4.21401 6.96013M20.0787 6.78934C20.0025 6.61885 19.9177 6.46045 19.8218 6.31013C19.3046 5.49929 18.5644 4.85484 17.6901 4.45404C16.698 3.99921 15.4634 3.99921 12.9944 3.99921H11.3702C8.90113 3.99921 7.66661 3.99921 6.67444 4.45404C5.80015 4.85484 5.06 5.49929 4.54274 6.31013C4.41557 6.50947 4.30799 6.72302 4.21401 6.96013M20.0787 6.78934L19.9901 6.87788L19.132 7.736C15.7987 11.0693 14.132 12.736 12.0609 12.736C9.98988 12.736 8.32321 11.0693 4.98988 7.736L4.21401 6.96013" stroke="black" stroke-width="1.5"/>
</svg>
