<svg width="24" height="24" viewBox="0 0 24 24" fill="none" xmlns="http://www.w3.org/2000/svg">
<path d="M20.7494 9.99972C20.7494 9.58551 20.4136 9.24972 19.9994 9.24972C19.5852 9.24972 19.2494 9.58551 19.2494 9.99972H20.7494ZM4.74944 9.99972C4.74944 9.58551 4.41365 9.24972 3.99944 9.24972C3.58522 9.24972 3.24944 9.58551 3.24944 9.99972H4.74944ZM11.9994 20.9997H11.2494V21.0131L11.2499 21.0264L11.9994 20.9997ZM9.81753 21.2721C9.41569 21.3726 9.17136 21.7798 9.27183 22.1816C9.37229 22.5835 9.77949 22.8278 10.1813 22.7273L9.81753 21.2721ZM10.7868 21.8029L10.6049 21.0753L10.6049 21.0753L10.7868 21.8029ZM13.2121 21.8029L13.394 21.0753L13.394 21.0753L13.2121 21.8029ZM13.8175 22.7273C14.2194 22.8278 14.6266 22.5835 14.727 22.1816C14.8275 21.7798 14.5832 21.3726 14.1813 21.2721L13.8175 22.7273ZM12.7366 5.78821C12.3436 5.65722 11.9189 5.86959 11.7879 6.26255C11.6569 6.65551 11.8693 7.08025 12.2623 7.21123L12.7366 5.78821ZM12.6181 6.53929L12.381 7.25081L12.381 7.25081L12.6181 6.53929ZM12.1813 8.77212C11.7795 8.67165 11.3723 8.91597 11.2718 9.31782C11.1714 9.71967 11.4157 10.1269 11.8175 10.2273L12.1813 8.77212ZM12.7868 9.69655L12.6049 10.4242L12.6049 10.4242L12.7868 9.69655ZM15.2121 9.69655L15.394 10.4242L15.394 10.4242L15.2121 9.69655ZM15.2494 5.99972V9.99972H16.7494V5.99972H15.2494ZM8.74943 9.99972V5.99972H7.24943V9.99972H8.74943ZM11.9994 13.2497C10.2045 13.2497 8.74943 11.7946 8.74943 9.99972H7.24943C7.24943 12.6231 9.37608 14.7497 11.9994 14.7497V13.2497ZM15.2494 9.99972C15.2494 11.7946 13.7944 13.2497 11.9994 13.2497V14.7497C14.6228 14.7497 16.7494 12.6231 16.7494 9.99972H15.2494ZM11.9994 2.74973C13.7944 2.74973 15.2494 4.2048 15.2494 5.99972H16.7494C16.7494 3.37637 14.6228 1.24973 11.9994 1.24973V2.74973ZM11.9994 1.24973C9.37608 1.24973 7.24943 3.37637 7.24943 5.99972H8.74943C8.74943 4.2048 10.2045 2.74973 11.9994 2.74973V1.24973ZM19.2494 9.99972C19.2494 14.0038 16.0035 17.2497 11.9994 17.2497V18.7497C16.8319 18.7497 20.7494 14.8322 20.7494 9.99972H19.2494ZM11.9994 17.2497C7.99537 17.2497 4.74944 14.0038 4.74944 9.99972H3.24944C3.24944 14.8322 7.16694 18.7497 11.9994 18.7497V17.2497ZM11.2494 17.9997V20.9997H12.7494V17.9997H11.2494ZM10.1813 22.7273L10.9687 22.5305L10.6049 21.0753L9.81753 21.2721L10.1813 22.7273ZM13.0302 22.5305L13.8175 22.7273L14.1813 21.2721L13.394 21.0753L13.0302 22.5305ZM12.2623 7.21123L12.381 7.25081L12.8553 5.82778L12.7366 5.78821L12.2623 7.21123ZM12.381 7.25081C13.4184 7.59662 14.533 7.63942 15.5939 7.3742L15.2301 5.91898C14.4459 6.11502 13.6221 6.08338 12.8553 5.82778L12.381 7.25081ZM11.8175 10.2273L12.6049 10.4242L12.9687 8.96895L12.1813 8.77212L11.8175 10.2273ZM15.394 10.4242L16.1813 10.2273L15.8175 8.77212L15.0302 8.96895L15.394 10.4242ZM12.6049 10.4242C13.5205 10.6531 14.4784 10.6531 15.394 10.4242L15.0302 8.96895C14.3534 9.13814 13.6454 9.13814 12.9687 8.96895L12.6049 10.4242ZM15.2494 9.49972V9.99972H16.7494V9.49972H15.2494ZM15.2494 7.10527V9.49972H16.7494V7.10527H15.2494ZM10.9687 22.5305C11.3135 22.4443 11.6664 22.402 12.0192 22.4036L12.0262 20.9037C11.5489 20.9014 11.0714 20.9586 10.6049 21.0753L10.9687 22.5305ZM12.0192 22.4036C12.3588 22.4052 12.6983 22.4475 13.0302 22.5305L13.394 21.0753C12.9449 20.963 12.4856 20.9058 12.0262 20.9037L12.0192 22.4036ZM11.2499 21.0264L11.2732 21.6803L12.7722 21.627L12.749 20.973L11.2499 21.0264ZM15.5939 7.3742C15.4189 7.41794 15.2494 7.28561 15.2494 7.10527H16.7494C16.7494 6.30976 16.0018 5.72604 15.2301 5.91898L15.5939 7.3742Z" fill="black"/>
</svg>
