<svg width="24" height="24" viewBox="0 0 24 24" fill="none" xmlns="http://www.w3.org/2000/svg">
<path d="M20.7496 9.99972C20.7496 9.58551 20.4138 9.24972 19.9996 9.24972C19.5854 9.24972 19.2496 9.58551 19.2496 9.99972H20.7496ZM4.7496 9.99972C4.7496 9.58551 4.41382 9.24972 3.9996 9.24972C3.58539 9.24972 3.2496 9.58551 3.2496 9.99972H4.7496ZM9.8177 21.2721C9.41585 21.3726 9.17153 21.7798 9.27199 22.1816C9.37246 22.5835 9.77966 22.8278 10.1815 22.7273L9.8177 21.2721ZM10.7869 21.8029L10.605 21.0753L10.605 21.0753L10.7869 21.8029ZM13.2123 21.8029L13.3942 21.0753L13.3942 21.0753L13.2123 21.8029ZM13.8177 22.7273C14.2195 22.8278 14.6267 22.5835 14.7272 22.1816C14.8277 21.7798 14.5833 21.3726 14.1815 21.2721L13.8177 22.7273ZM10.2624 9.28821C9.86947 9.4192 9.6571 9.84393 9.78809 10.2369C9.91907 10.6298 10.3438 10.8422 10.7368 10.7112L10.2624 9.28821ZM10.7347 9.92136L10.4975 9.20985L10.4975 9.20985L10.7347 9.92136ZM13.2645 9.92136L13.0273 10.6329L13.0273 10.6329L13.2645 9.92136ZM13.2624 10.7112C13.6554 10.8422 14.0801 10.6298 14.2111 10.2369C14.3421 9.84393 14.1297 9.41919 13.7368 9.28821L13.2624 10.7112ZM9.8177 5.77212C9.41585 5.87258 9.17153 6.27978 9.27199 6.68163C9.37246 7.08347 9.77966 7.32779 10.1815 7.22733L9.8177 5.77212ZM10.7869 6.30289L10.605 5.57529L10.605 5.57529L10.7869 6.30289ZM13.2123 6.30289L13.3942 5.57529L13.3942 5.57529L13.2123 6.30289ZM13.8177 7.22733C14.2195 7.32779 14.6267 7.08347 14.7272 6.68162C14.8277 6.27978 14.5833 5.87258 14.1815 5.77212L13.8177 7.22733ZM11.9996 21.6536L11.9996 22.4036L11.9996 21.6536ZM15.2496 5.99972V9.99972H16.7496V5.99972H15.2496ZM8.7496 9.99972V5.99972H7.2496V9.99972H8.7496ZM11.9996 13.2497C10.2047 13.2497 8.7496 11.7946 8.7496 9.99972H7.2496C7.2496 12.6231 9.37625 14.7497 11.9996 14.7497V13.2497ZM15.2496 9.99972C15.2496 11.7946 13.7945 13.2497 11.9996 13.2497V14.7497C14.623 14.7497 16.7496 12.6231 16.7496 9.99972H15.2496ZM11.9996 2.74973C13.7945 2.74973 15.2496 4.2048 15.2496 5.99972H16.7496C16.7496 3.37637 14.623 1.24973 11.9996 1.24973V2.74973ZM11.9996 1.24973C9.37625 1.24973 7.2496 3.37637 7.2496 5.99972H8.7496C8.7496 4.2048 10.2047 2.74973 11.9996 2.74973V1.24973ZM19.2496 9.99972C19.2496 14.0038 16.0037 17.2497 11.9996 17.2497V18.7497C16.8321 18.7497 20.7496 14.8322 20.7496 9.99972H19.2496ZM11.9996 17.2497C7.99554 17.2497 4.7496 14.0038 4.7496 9.99972H3.2496C3.2496 14.8322 7.16711 18.7497 11.9996 18.7497V17.2497ZM11.2496 18.9997V20.9997H12.7496V18.9997H11.2496ZM10.1815 22.7273L10.9688 22.5305L10.605 21.0753L9.8177 21.2721L10.1815 22.7273ZM13.0304 22.5305L13.8177 22.7273L14.1815 21.2721L13.3942 21.0753L13.0304 22.5305ZM10.7368 10.7112L10.9719 10.6329L10.4975 9.20985L10.2624 9.28821L10.7368 10.7112ZM13.0273 10.6329L13.2624 10.7112L13.7368 9.28821L13.5017 9.20985L13.0273 10.6329ZM10.9719 10.6329C11.639 10.4105 12.3602 10.4105 13.0273 10.6329L13.5017 9.20985C12.5267 8.88484 11.4725 8.88484 10.4975 9.20985L10.9719 10.6329ZM10.1815 7.22733L10.9688 7.0305L10.605 5.57529L9.8177 5.77212L10.1815 7.22733ZM13.0304 7.0305L13.8177 7.22733L14.1815 5.77212L13.3942 5.57529L13.0304 7.0305ZM10.9688 7.0305C11.6456 6.86131 12.3536 6.86131 13.0304 7.0305L13.3942 5.57529C12.4786 5.34638 11.5207 5.34638 10.605 5.57529L10.9688 7.0305ZM12.7496 18.9997V17.9997H11.2496V18.9997H12.7496ZM10.9688 22.5305C11.3072 22.4459 11.6534 22.4036 11.9996 22.4036L11.9996 20.9036C11.5312 20.9036 11.0628 20.9608 10.605 21.0753L10.9688 22.5305ZM11.9996 22.4036C12.3458 22.4036 12.692 22.4459 13.0304 22.5305L13.3942 21.0753C12.9364 20.9608 12.468 20.9036 11.9996 20.9036L11.9996 22.4036ZM11.2496 20.9997V21.6536H12.7496V20.9997H11.2496Z" fill="black"/>
</svg>
