<svg width="24" height="24" viewBox="0 0 24 24" fill="none" xmlns="http://www.w3.org/2000/svg">
<path d="M3.25034 18.2496L20.2503 1.24963" stroke="black" stroke-width="1.5" stroke-linecap="round"/>
<path d="M7.98487 16.5748C7.62934 16.9304 7.70437 17.5268 8.16288 17.7331C8.97371 18.098 9.85014 18.3429 10.7696 18.4453C10.9098 18.461 10.9994 18.6085 10.9994 18.7496V20.0461C10.9994 20.4218 10.7193 20.734 10.3549 20.8252L9.56755 21.022C9.1657 21.1224 8.92138 21.5297 9.02184 21.9315C9.1223 22.3333 9.5295 22.5777 9.93135 22.4772L10.7187 22.2804C11.3954 22.1112 12.1035 22.1112 12.7802 22.2804L13.5675 22.4772C13.9694 22.5777 14.3766 22.3333 14.4771 21.9315C14.5775 21.5297 14.3332 21.1224 13.9314 21.022L13.144 20.8252C12.7796 20.734 12.4994 20.4218 12.4994 20.0461V18.7496C12.4994 18.6085 12.5895 18.4609 12.7297 18.4453C17.1008 17.958 20.4994 14.2507 20.4994 9.7496C20.4994 9.33539 20.1637 8.9996 19.7494 8.9996C19.3352 8.9996 18.9994 9.33539 18.9994 9.7496C18.9994 13.7537 15.7535 16.9996 11.7494 16.9996C10.7371 16.9996 9.77317 16.7921 8.89794 16.4173C8.58781 16.2845 8.22342 16.3363 7.98487 16.5748Z" fill="black"/>
<path d="M11.2911 13.2686C10.833 13.7267 11.0346 14.4902 11.6824 14.4991C11.7047 14.4994 11.7271 14.4996 11.7494 14.4996C14.3728 14.4996 16.4994 12.373 16.4994 9.7496C16.4994 9.12619 15.7457 8.81399 15.3049 9.2548L15.1333 9.42638C15.0476 9.5121 14.9994 9.62837 14.9994 9.7496C14.9994 11.5445 13.5444 12.9996 11.7494 12.9996C11.6322 12.9996 11.5178 13.0419 11.4349 13.1248L11.2911 13.2686Z" fill="black"/>
<path d="M9.29948 11.8851C9.60177 12.2316 9.66413 12.7743 9.33897 13.0994C9.08332 13.3551 8.67373 13.3874 8.41616 13.1336C7.54163 12.2721 6.99945 11.0742 6.99945 9.7496V5.7496C6.99945 3.12625 9.1261 0.999603 11.7494 0.999603C14.3728 0.999603 16.4994 3.12625 16.4994 5.7496C16.4994 5.87083 16.4513 5.9871 16.3656 6.07282L16.194 6.2444C15.7532 6.68521 14.9994 6.37301 14.9994 5.7496C14.9994 3.95468 13.5444 2.4996 11.7494 2.4996C9.95452 2.4996 8.49945 3.95468 8.49945 5.7496V9.7496C8.49945 10.567 8.80124 11.314 9.29948 11.8851Z" fill="black"/>
<path d="M6.51784 14.7689C6.82093 15.0847 6.84705 15.5913 6.53754 15.9008C6.26234 16.176 5.81894 16.195 5.54453 15.919C3.97152 14.337 2.99945 12.1568 2.99945 9.7496C2.99945 9.33539 3.33524 8.9996 3.74945 8.9996C4.16366 8.9996 4.49945 9.33539 4.49945 9.7496C4.49945 11.6976 5.26774 13.4662 6.51784 14.7689Z" fill="black"/>
</svg>
