<svg width="24" height="24" viewBox="0 0 24 24" fill="none" xmlns="http://www.w3.org/2000/svg">
<path d="M20.7499 9.99972C20.7499 9.58551 20.4141 9.24972 19.9999 9.24972C19.5857 9.24972 19.2499 9.58551 19.2499 9.99972H20.7499ZM4.74992 9.99972C4.74992 9.58551 4.41414 9.24972 3.99992 9.24972C3.58571 9.24972 3.24992 9.58551 3.24992 9.99972H4.74992ZM9.81802 21.2721C9.41617 21.3726 9.17185 21.7798 9.27231 22.1816C9.37278 22.5835 9.77998 22.8278 10.1818 22.7273L9.81802 21.2721ZM10.7872 21.8029L10.6053 21.0753L10.6053 21.0753L10.7872 21.8029ZM13.2126 21.8029L13.3945 21.0753L13.3945 21.0753L13.2126 21.8029ZM13.818 22.7273C14.2199 22.8278 14.6271 22.5835 14.7275 22.1816C14.828 21.7798 14.5837 21.3726 14.1818 21.2721L13.818 22.7273ZM11.9999 21.6536L11.9999 22.4036L11.9999 21.6536ZM15.2499 5.99972V9.99972H16.7499V5.99972H15.2499ZM8.74992 9.99972V5.99972H7.24992V9.99972H8.74992ZM11.9999 13.2497C10.205 13.2497 8.74992 11.7946 8.74992 9.99972H7.24992C7.24992 12.6231 9.37657 14.7497 11.9999 14.7497V13.2497ZM15.2499 9.99972C15.2499 11.7946 13.7948 13.2497 11.9999 13.2497V14.7497C14.6233 14.7497 16.7499 12.6231 16.7499 9.99972H15.2499ZM11.9999 2.74973C13.7948 2.74973 15.2499 4.2048 15.2499 5.99972H16.7499C16.7499 3.37637 14.6233 1.24973 11.9999 1.24973V2.74973ZM11.9999 1.24973C9.37657 1.24973 7.24992 3.37637 7.24992 5.99972H8.74992C8.74992 4.2048 10.205 2.74973 11.9999 2.74973V1.24973ZM19.2499 9.99972C19.2499 14.0038 16.004 17.2497 11.9999 17.2497V18.7497C16.8324 18.7497 20.7499 14.8322 20.7499 9.99972H19.2499ZM11.9999 17.2497C7.99586 17.2497 4.74992 14.0038 4.74992 9.99972H3.24992C3.24992 14.8322 7.16743 18.7497 11.9999 18.7497V17.2497ZM11.2499 17.9997V20.9997H12.7499V17.9997H11.2499ZM10.1818 22.7273L10.9691 22.5305L10.6053 21.0753L9.81802 21.2721L10.1818 22.7273ZM13.0307 22.5305L13.818 22.7273L14.1818 21.2721L13.3945 21.0753L13.0307 22.5305ZM10.9691 22.5305C11.3075 22.4459 11.6537 22.4036 11.9999 22.4036L11.9999 20.9036C11.5315 20.9036 11.0632 20.9608 10.6053 21.0753L10.9691 22.5305ZM11.9999 22.4036C12.3461 22.4036 12.6923 22.4459 13.0307 22.5305L13.3945 21.0753C12.9367 20.9608 12.4683 20.9036 11.9999 20.9036L11.9999 22.4036ZM11.2499 20.9997V21.6536H12.7499V20.9997H11.2499Z" fill="black"/>
</svg>
