<svg width="24" height="24" viewBox="0 0 24 24" fill="none" xmlns="http://www.w3.org/2000/svg">
<path d="M10.2626 9.28809C9.86969 9.41907 9.65732 9.84381 9.7883 10.2368C9.91929 10.6297 10.344 10.8421 10.737 10.7111L10.2626 9.28809ZM10.7349 9.92124L10.4977 9.20972L10.4977 9.20972L10.7349 9.92124ZM13.2647 9.92124L13.0276 10.6327L13.0276 10.6327L13.2647 9.92124ZM13.2626 10.7111C13.6556 10.8421 14.0803 10.6297 14.2113 10.2368C14.3423 9.84381 14.1299 9.41907 13.737 9.28809L13.2626 10.7111ZM20.7498 9.9996C20.7498 9.58539 20.414 9.2496 19.9998 9.2496C19.5856 9.2496 19.2498 9.58539 19.2498 9.9996H20.7498ZM4.74982 9.9996C4.74982 9.58539 4.41403 9.2496 3.99982 9.2496C3.5856 9.2496 3.24982 9.58539 3.24982 9.9996H4.74982ZM9.81791 21.272C9.41607 21.3724 9.17175 21.7796 9.27221 22.1815C9.37267 22.5833 9.77987 22.8277 10.1817 22.7272L9.81791 21.272ZM10.7871 21.8028L10.6052 21.0752L10.6052 21.0752L10.7871 21.8028ZM13.2125 21.8028L13.3944 21.0752L13.3944 21.0752L13.2125 21.8028ZM13.8179 22.7272C14.2198 22.8277 14.627 22.5833 14.7274 22.1815C14.8279 21.7796 14.5836 21.3724 14.1817 21.272L13.8179 22.7272ZM11.9998 21.6535L11.9998 22.4035L11.9998 21.6535ZM15.2498 5.9996V9.9996H16.7498V5.9996H15.2498ZM8.74981 9.9996V5.9996H7.24982V9.9996H8.74981ZM11.9998 13.2496C10.2049 13.2496 8.74981 11.7945 8.74981 9.9996H7.24982C7.24982 12.623 9.37646 14.7496 11.9998 14.7496V13.2496ZM15.2498 9.9996C15.2498 11.7945 13.7947 13.2496 11.9998 13.2496V14.7496C14.6232 14.7496 16.7498 12.623 16.7498 9.9996H15.2498ZM11.9998 2.7496C13.7947 2.7496 15.2498 4.20468 15.2498 5.9996H16.7498C16.7498 3.37625 14.6232 1.2496 11.9998 1.2496V2.7496ZM11.9998 1.2496C9.37646 1.2496 7.24982 3.37625 7.24982 5.9996H8.74981C8.74981 4.20468 10.2049 2.7496 11.9998 2.7496V1.2496ZM10.737 10.7111L10.9721 10.6327L10.4977 9.20972L10.2626 9.28809L10.737 10.7111ZM13.0276 10.6327L13.2626 10.7111L13.737 9.28809L13.5019 9.20972L13.0276 10.6327ZM10.9721 10.6327C11.6392 10.4104 12.3604 10.4104 13.0276 10.6327L13.5019 9.20972C12.5269 8.88472 11.4727 8.88472 10.4977 9.20972L10.9721 10.6327ZM19.2498 9.9996C19.2498 14.0037 16.0039 17.2496 11.9998 17.2496V18.7496C16.8323 18.7496 20.7498 14.8321 20.7498 9.9996H19.2498ZM11.9998 17.2496C7.99575 17.2496 4.74982 14.0037 4.74982 9.9996H3.24982C3.24982 14.8321 7.16732 18.7496 11.9998 18.7496V17.2496ZM11.2498 18.9996V20.9996H12.7498V18.9996H11.2498ZM10.1817 22.7272L10.969 22.5304L10.6052 21.0752L9.81791 21.272L10.1817 22.7272ZM13.0306 22.5304L13.8179 22.7272L14.1817 21.272L13.3944 21.0752L13.0306 22.5304ZM12.7498 18.9996V17.9996H11.2498V18.9996H12.7498ZM10.969 22.5304C11.3074 22.4458 11.6536 22.4035 11.9998 22.4035L11.9998 20.9035C11.5314 20.9035 11.063 20.9607 10.6052 21.0752L10.969 22.5304ZM11.9998 22.4035C12.346 22.4035 12.6922 22.4458 13.0306 22.5304L13.3944 21.0752C12.9366 20.9607 12.4682 20.9035 11.9998 20.9035L11.9998 22.4035ZM11.2498 20.9996V21.6535H12.7498V20.9996H11.2498Z" fill="black"/>
</svg>
