<svg width="24" height="24" viewBox="0 0 24 24" fill="none" xmlns="http://www.w3.org/2000/svg">
<path d="M5.06078 20.0448L5.50161 19.4381L5.06078 20.0448ZM3.95462 18.9387L4.56138 18.4978L3.95462 18.9387ZM20.0448 18.9387L19.438 18.4978L20.0448 18.9387ZM18.9386 20.0448L18.4978 19.4381L18.9386 20.0448ZM18.9386 3.95467L18.4978 4.56143L18.9386 3.95467ZM20.0448 5.06083L19.438 5.50167L20.0448 5.06083ZM5.06078 3.95467L5.50161 4.56143L5.06078 3.95467ZM3.95462 5.06083L4.56138 5.50167L3.95462 5.06083ZM8.9997 11.2498C8.58549 11.2498 8.2497 11.5855 8.2497 11.9998C8.2497 12.414 8.58549 12.7498 8.9997 12.7498V11.2498ZM14.9997 12.7498C15.4139 12.7498 15.7497 12.414 15.7497 11.9998C15.7497 11.5855 15.4139 11.2498 14.9997 11.2498V12.7498ZM11.9997 20.2497C10.1081 20.2497 8.74969 20.2487 7.69775 20.1347C6.65983 20.0223 6.00962 19.8072 5.50161 19.4381L4.61994 20.6516C5.42626 21.2374 6.37064 21.4997 7.53618 21.626C8.68768 21.7508 10.1415 21.7497 11.9997 21.7497V20.2497ZM2.2497 11.9998C2.2497 13.8579 2.24867 15.3118 2.37343 16.4633C2.49971 17.6288 2.76203 18.5732 3.34785 19.3795L4.56138 18.4978C4.19229 17.9898 3.97715 17.3396 3.8647 16.3017C3.75073 15.2498 3.7497 13.8913 3.7497 11.9998H2.2497ZM5.50161 19.4381C5.14081 19.1759 4.82352 18.8586 4.56138 18.4978L3.34785 19.3795C3.70251 19.8677 4.13179 20.2969 4.61994 20.6516L5.50161 19.4381ZM20.2497 11.9998C20.2497 13.8913 20.2487 15.2498 20.1347 16.3017C20.0222 17.3396 19.8071 17.9898 19.438 18.4978L20.6515 19.3795C21.2374 18.5732 21.4997 17.6288 21.626 16.4633C21.7507 15.3118 21.7497 13.8579 21.7497 11.9998H20.2497ZM11.9997 21.7497C13.8579 21.7497 15.3117 21.7508 16.4632 21.626C17.6288 21.4997 18.5731 21.2374 19.3795 20.6516L18.4978 19.4381C17.9898 19.8072 17.3396 20.0223 16.3017 20.1347C15.2497 20.2487 13.8913 20.2497 11.9997 20.2497V21.7497ZM19.438 18.4978C19.1759 18.8586 18.8586 19.1759 18.4978 19.4381L19.3795 20.6516C19.8676 20.2969 20.2969 19.8677 20.6515 19.3795L19.438 18.4978ZM11.9997 3.74976C13.8913 3.74976 15.2497 3.75079 16.3017 3.86476C17.3396 3.97721 17.9898 4.19235 18.4978 4.56143L19.3795 3.34791C18.5731 2.76208 17.6288 2.49976 16.4632 2.37348C15.3117 2.24873 13.8579 2.24976 11.9997 2.24976V3.74976ZM21.7497 11.9998C21.7497 10.1416 21.7507 8.68773 21.626 7.53623C21.4997 6.37069 21.2374 5.42631 20.6515 4.61999L19.438 5.50167C19.8071 6.00967 20.0222 6.65989 20.1347 7.6978C20.2487 8.74975 20.2497 10.1082 20.2497 11.9998H21.7497ZM18.4978 4.56143C18.8586 4.82357 19.1759 5.14087 19.438 5.50167L20.6515 4.61999C20.2969 4.13184 19.8676 3.70256 19.3795 3.34791L18.4978 4.56143ZM11.9997 2.24976C10.1415 2.24976 8.68768 2.24873 7.53618 2.37348C6.37064 2.49976 5.42626 2.76208 4.61994 3.34791L5.50161 4.56143C6.00962 4.19235 6.65983 3.97721 7.69775 3.86476C8.74969 3.75079 10.1081 3.74976 11.9997 3.74976V2.24976ZM3.7497 11.9998C3.7497 10.1082 3.75073 8.74975 3.8647 7.6978C3.97715 6.65989 4.19229 6.00967 4.56138 5.50167L3.34785 4.61999C2.76203 5.42631 2.49971 6.37069 2.37343 7.53623C2.24867 8.68773 2.2497 10.1416 2.2497 11.9998H3.7497ZM4.61994 3.34791C4.13179 3.70257 3.70251 4.13185 3.34785 4.61999L4.56138 5.50167C4.82352 5.14087 5.14081 4.82357 5.50161 4.56143L4.61994 3.34791ZM8.9997 12.7498H14.9997V11.2498H8.9997V12.7498Z" fill="black"/>
</svg>
