<svg width="24" height="24" viewBox="0 0 24 24" fill="none" xmlns="http://www.w3.org/2000/svg">
<path d="M21.9996 11.9999C21.9996 17.5227 17.5225 21.9999 11.9996 21.9999C6.4768 21.9999 1.99965 17.5227 1.99965 11.9999C1.99965 6.47703 6.4768 1.99988 11.9996 1.99988C17.5225 1.99988 21.9996 6.47703 21.9996 11.9999Z" stroke="black" stroke-width="1.5"/>
<path d="M8.9998 11.9998C8.9998 12.552 8.55209 12.9998 7.9998 12.9998C7.44752 12.9998 6.9998 12.552 6.9998 11.9998C6.9998 11.4475 7.44752 10.9998 7.9998 10.9998C8.55209 10.9998 8.9998 11.4475 8.9998 11.9998Z" fill="black"/>
<path d="M12.9998 11.9998C12.9998 12.552 12.5521 12.9998 11.9998 12.9998C11.4475 12.9998 10.9998 12.552 10.9998 11.9998C10.9998 11.4475 11.4475 10.9998 11.9998 10.9998C12.5521 10.9998 12.9998 11.4475 12.9998 11.9998Z" fill="black"/>
<path d="M16.9998 11.9998C16.9998 12.552 16.5521 12.9998 15.9998 12.9998C15.4475 12.9998 14.9998 12.552 14.9998 11.9998C14.9998 11.4475 15.4475 10.9998 15.9998 10.9998C16.5521 10.9998 16.9998 11.4475 16.9998 11.9998Z" fill="black"/>
</svg>
