<svg width="24" height="24" viewBox="0 0 24 24" fill="none" xmlns="http://www.w3.org/2000/svg">
<path d="M2.99945 11.9998C2.99945 8.25002 2.99945 6.37516 3.95437 5.06083C4.26276 4.63636 4.63605 4.26307 5.06052 3.95467C6.37485 2.99976 8.24972 2.99976 11.9994 2.99976C15.7492 2.99976 17.624 2.99976 18.9384 3.95467C19.3628 4.26307 19.7361 4.63636 20.0445 5.06083C20.9994 6.37516 20.9994 8.25002 20.9994 11.9998C20.9994 15.7495 20.9994 17.6243 20.0445 18.9387C19.7361 19.3631 19.3628 19.7364 18.9384 20.0448C17.624 20.9997 15.7492 20.9997 11.9994 20.9997C8.24972 20.9997 6.37485 20.9997 5.06052 20.0448C4.63605 19.7364 4.26276 19.3631 3.95437 18.9387C2.99945 17.6243 2.99945 15.7495 2.99945 11.9998Z" stroke="black" stroke-width="1.5"/>
<path d="M8.99982 12C8.99982 12.5523 8.5521 13 7.99982 13C7.44753 13 6.99982 12.5523 6.99982 12C6.99982 11.4477 7.44753 11 7.99982 11C8.5521 11 8.99982 11.4477 8.99982 12Z" fill="black"/>
<path d="M12.9998 12C12.9998 12.5523 12.5521 13 11.9998 13C11.4475 13 10.9998 12.5523 10.9998 12C10.9998 11.4477 11.4475 11 11.9998 11C12.5521 11 12.9998 11.4477 12.9998 12Z" fill="black"/>
<path d="M16.9998 12C16.9998 12.5523 16.5521 13 15.9998 13C15.4475 13 14.9998 12.5523 14.9998 12C14.9998 11.4477 15.4475 11 15.9998 11C16.5521 11 16.9998 11.4477 16.9998 12Z" fill="black"/>
</svg>
