<svg width="24" height="24" viewBox="0 0 24 24" fill="none" xmlns="http://www.w3.org/2000/svg">
<path d="M5.99954 8.99963L6.74954 8.99963L5.99954 8.99963ZM6.0611 7.21746L5.32034 7.10013L6.0611 7.21746ZM10.2174 3.06119L10.1 2.32043L10.2174 3.06119ZM10.2174 20.9381L10.1 21.6788L10.2174 20.9381ZM5.99954 14.9996L5.24954 14.9996L5.99954 14.9996ZM6.0611 16.7818L5.32034 16.8991L6.0611 16.7818ZM17.9995 14.9996L18.7495 14.9996V14.9996H17.9995ZM17.938 16.7818L18.6787 16.8991L17.938 16.7818ZM13.7817 20.9381L13.899 21.6788L13.7817 20.9381ZM17.9995 8.99963L17.2495 8.99963V8.99963H17.9995ZM17.938 7.21746L18.6787 7.10014L17.938 7.21746ZM13.7817 3.06119L13.899 2.32043L13.7817 3.06119ZM5.99954 15.9996L5.24954 15.9996L5.24954 15.9996L5.99954 15.9996ZM10.9995 10.9996L10.9995 10.2496H10.9995L10.9995 10.9996ZM11.2495 8.99963C11.2495 9.41385 11.5853 9.74963 11.9995 9.74963C12.4138 9.74963 12.7495 9.41385 12.7495 8.99963L11.2495 8.99963ZM17.2495 8.99963V14.9996H18.7495V8.99963H17.2495ZM6.74954 14.9996L6.74954 8.99963L5.24954 8.99963L5.24954 14.9996L6.74954 14.9996ZM6.74954 8.99963C6.74954 8.04197 6.75187 7.65045 6.80187 7.33479L5.32034 7.10013C5.24722 7.56179 5.24954 8.09929 5.24954 8.99963L6.74954 8.99963ZM11.9995 2.24963C11.0992 2.24963 10.5617 2.24731 10.1 2.32043L10.3347 3.80196C10.6504 3.75196 11.0419 3.74963 11.9995 3.74963L11.9995 2.24963ZM6.80187 7.33479C7.0899 5.51624 8.51615 4.08999 10.3347 3.80196L10.1 2.32043C7.63966 2.71011 5.71002 4.63975 5.32034 7.10013L6.80187 7.33479ZM11.9995 20.2496C11.0419 20.2496 10.6504 20.2473 10.3347 20.1973L10.1 21.6788C10.5617 21.752 11.0992 21.7496 11.9995 21.7496L11.9995 20.2496ZM5.24954 14.9996C5.24954 15.9 5.24722 16.4375 5.32034 16.8991L6.80187 16.6645C6.75187 16.3488 6.74954 15.9573 6.74954 14.9996L5.24954 14.9996ZM10.3347 20.1973C8.51615 19.9093 7.0899 18.483 6.80187 16.6645L5.32034 16.8991C5.71002 19.3595 7.63966 21.2892 10.1 21.6788L10.3347 20.1973ZM17.2495 14.9996C17.2495 15.9573 17.2472 16.3488 17.1972 16.6645L18.6787 16.8991C18.7519 16.4375 18.7495 15.9 18.7495 14.9996L17.2495 14.9996ZM11.9995 21.7496C12.8999 21.7496 13.4374 21.752 13.899 21.6788L13.6644 20.1973C13.3487 20.2473 12.9572 20.2496 11.9995 20.2496L11.9995 21.7496ZM17.1972 16.6645C16.9092 18.483 15.4829 19.9093 13.6644 20.1973L13.899 21.6788C16.3594 21.2892 18.2891 19.3595 18.6787 16.8991L17.1972 16.6645ZM18.7495 8.99963C18.7495 8.09929 18.7519 7.56179 18.6787 7.10014L17.1972 7.33479C17.2472 7.65045 17.2495 8.04197 17.2495 8.99963L18.7495 8.99963ZM11.9995 3.74963C12.9572 3.74963 13.3487 3.75196 13.6644 3.80196L13.899 2.32043C13.4374 2.24731 12.8999 2.24963 11.9995 2.24963L11.9995 3.74963ZM18.6787 7.10014C18.2891 4.63975 16.3594 2.71011 13.899 2.32043L13.6644 3.80196C15.4829 4.08999 16.9092 5.51624 17.1972 7.33479L18.6787 7.10014ZM12.9995 20.2496L10.9995 20.2496L10.9995 21.7496L12.9995 21.7496L12.9995 20.2496ZM10.9995 11.7496H12.9995V10.2496H10.9995V11.7496ZM6.74954 15.9996C6.74954 13.6524 8.65233 11.7496 10.9995 11.7496L10.9995 10.2496C7.82391 10.2496 5.24954 12.824 5.24954 15.9996L6.74954 15.9996ZM10.9995 20.2496C8.65233 20.2496 6.74954 18.3468 6.74954 15.9996L5.24954 15.9996C5.24954 19.1753 7.8239 21.7496 10.9995 21.7496L10.9995 20.2496ZM17.2495 15.9996C17.2495 18.3468 15.3467 20.2496 12.9995 20.2496L12.9995 21.7496C16.1752 21.7496 18.7495 19.1753 18.7495 15.9996L17.2495 15.9996ZM18.7495 15.9996C18.7495 12.824 16.1752 10.2496 12.9995 10.2496L12.9995 11.7496C15.3467 11.7496 17.2495 13.6524 17.2495 15.9996L18.7495 15.9996ZM12.7495 8.99963L12.7495 2.99963L11.2495 2.99963L11.2495 8.99963L12.7495 8.99963Z" fill="black"/>
</svg>
