<svg width="24" height="24" viewBox="0 0 24 24" fill="none" xmlns="http://www.w3.org/2000/svg">
<path d="M15.5879 8.48287L15.7859 9.20624L15.7859 9.20624L15.5879 8.48287ZM17.125 8.062L17.323 8.78537L17.3301 8.78344L17.3371 8.78138L17.125 8.062ZM20.5663 7.04724L20.3542 6.32787L20.3542 6.32787L20.5663 7.04724ZM18 3.74957C18.4142 3.74957 18.75 3.41379 18.75 2.99957C18.75 2.58536 18.4142 2.24957 18 2.24957V3.74957ZM1.99997 2.24957C1.58576 2.24957 1.24997 2.58536 1.24997 2.99957C1.24997 3.41379 1.58576 3.74957 1.99997 3.74957V2.24957ZM9.99997 9.74957C10.4142 9.74957 10.75 9.41378 10.75 8.99957C10.75 8.58536 10.4142 8.24957 9.99997 8.24957V9.74957ZM1.99997 8.24957C1.58576 8.24957 1.24997 8.58536 1.24997 8.99957C1.24997 9.41378 1.58576 9.74957 1.99997 9.74957V8.24957ZM7.99997 15.7496C8.41418 15.7496 8.74997 15.4138 8.74997 14.9996C8.74997 14.5854 8.41418 14.2496 7.99997 14.2496V15.7496ZM1.99997 14.2496C1.58576 14.2496 1.24997 14.5854 1.24997 14.9996C1.24997 15.4138 1.58576 15.7496 1.99997 15.7496V14.2496ZM5.99997 21.7496C6.41418 21.7496 6.74997 21.4138 6.74997 20.9996C6.74997 20.5854 6.41418 20.2496 5.99997 20.2496V21.7496ZM1.99997 20.2496C1.58576 20.2496 1.24997 20.5854 1.24997 20.9996C1.24997 21.4138 1.58576 21.7496 1.99997 21.7496V20.2496ZM9.24997 18.8433C9.24997 20.4781 10.6235 21.7496 12.25 21.7496V20.2496C11.3911 20.2496 10.75 19.5902 10.75 18.8433H9.24997ZM12.25 21.7496C13.8764 21.7496 15.25 20.4781 15.25 18.8433H13.75C13.75 19.5902 13.1088 20.2496 12.25 20.2496V21.7496ZM15.25 18.8433C15.25 17.2085 13.8764 15.937 12.25 15.937V17.437C13.1088 17.437 13.75 18.0964 13.75 18.8433H15.25ZM12.25 15.937C10.6235 15.937 9.24997 17.2085 9.24997 18.8433H10.75C10.75 18.0964 11.3911 17.437 12.25 17.437V15.937ZM16.75 16.687C16.75 18.3219 18.1235 19.5933 19.75 19.5933V18.0933C18.8911 18.0933 18.25 17.4339 18.25 16.687H16.75ZM19.75 19.5933C21.3764 19.5933 22.75 18.3219 22.75 16.687H21.25C21.25 17.4339 20.6088 18.0933 19.75 18.0933V19.5933ZM22.75 16.687C22.75 15.0522 21.3764 13.7808 19.75 13.7808V15.2808C20.6088 15.2808 21.25 15.9401 21.25 16.687H22.75ZM19.75 13.7808C18.1235 13.7808 16.75 15.0522 16.75 16.687H18.25C18.25 15.9401 18.8911 15.2808 19.75 15.2808V13.7808ZM13.75 12.3745V18.8433H15.25V12.3745H13.75ZM21.25 10.2183V16.687H22.75V10.2183H21.25ZM14.7072 13.0953L22.2072 10.9391L21.7927 9.49746L14.2927 11.6537L14.7072 13.0953ZM15.25 12.3745V9.86507H13.75V12.3745H15.25ZM15.7859 9.20624L17.323 8.78537L16.9269 7.33863L15.3898 7.7595L15.7859 9.20624ZM17.3371 8.78138L20.7784 7.76662L20.3542 6.32787L16.9128 7.34262L17.3371 8.78138ZM21.25 8.062V10.2183H22.75V8.062H21.25ZM20.7784 7.76662C21.0525 7.68579 21.25 7.89172 21.25 8.062H22.75C22.75 6.80363 21.5049 5.98855 20.3542 6.32787L20.7784 7.76662ZM15.25 9.86507C15.25 9.57993 15.4495 9.29837 15.7859 9.20624L15.3898 7.7595C14.4384 8.02001 13.75 8.86657 13.75 9.86507H15.25ZM18 2.24957H1.99997V3.74957H18V2.24957ZM9.99997 8.24957H1.99997V9.74957H9.99997V8.24957ZM7.99997 14.2496H1.99997V15.7496H7.99997V14.2496ZM5.99997 20.2496H1.99997V21.7496H5.99997V20.2496Z" fill="black"/>
</svg>
