<svg width="24" height="24" viewBox="0 0 24 24" fill="none" xmlns="http://www.w3.org/2000/svg">
<path d="M11.4504 4.06353L11.6564 4.78467L11.6564 4.78467L11.4504 4.06353ZM13.4998 3.47797L13.7059 4.19911L13.7131 4.19703L13.7204 4.19481L13.4998 3.47797ZM18.0883 2.06614L17.8677 1.34931L17.8677 1.34931L18.0883 2.06614ZM3.24982 18.478C3.24982 20.549 4.92875 22.228 6.99982 22.228V20.728C5.75718 20.728 4.74982 19.7206 4.74982 18.478H3.24982ZM6.99982 22.228C9.07088 22.228 10.7498 20.549 10.7498 18.478H9.24981C9.24981 19.7206 8.24246 20.728 6.99982 20.728V22.228ZM10.7498 18.478C10.7498 16.4069 9.07088 14.728 6.99982 14.728V16.228C8.24246 16.228 9.24981 17.2353 9.24981 18.478H10.7498ZM6.99982 14.728C4.92875 14.728 3.24982 16.4069 3.24982 18.478H4.74982C4.74982 17.2353 5.75718 16.228 6.99982 16.228V14.728ZM13.2498 15.478C13.2498 17.549 14.9287 19.228 16.9998 19.228V17.728C15.7572 17.728 14.7498 16.7206 14.7498 15.478H13.2498ZM16.9998 19.228C19.0709 19.228 20.7498 17.549 20.7498 15.478H19.2498C19.2498 16.7206 18.2425 17.728 16.9998 17.728V19.228ZM20.7498 15.478C20.7498 13.4069 19.0709 11.728 16.9998 11.728V13.228C18.2425 13.228 19.2498 14.2353 19.2498 15.478H20.7498ZM16.9998 11.728C14.9287 11.728 13.2498 13.4069 13.2498 15.478H14.7498C14.7498 14.2353 15.7572 13.228 16.9998 13.228V11.728ZM9.24981 9.47797V18.478H10.7498V9.47797H9.24981ZM19.2498 6.47797V15.478H20.7498V6.47797H19.2498ZM10.2153 10.1963L20.2153 7.19634L19.7843 5.7596L9.7843 8.7596L10.2153 10.1963ZM10.7498 9.47797V5.98657H9.24981V9.47797H10.7498ZM11.6564 4.78467L13.7059 4.19911L13.2938 2.75683L11.2443 3.34238L11.6564 4.78467ZM13.7204 4.19481L18.3088 2.78298L17.8677 1.34931L13.2792 2.76114L13.7204 4.19481ZM19.2498 3.47797V6.47797H20.7498V3.47797H19.2498ZM18.3088 2.78298C18.7764 2.6391 19.2498 2.98874 19.2498 3.47797H20.7498C20.7498 1.97954 19.2999 0.908641 17.8677 1.34931L18.3088 2.78298ZM10.7498 5.98657C10.7498 5.42847 11.1198 4.93799 11.6564 4.78467L11.2443 3.34238C10.0638 3.67969 9.24981 4.75875 9.24981 5.98657H10.7498Z" fill="black"/>
</svg>
