<svg width="24" height="24" viewBox="0 0 24 24" fill="none" xmlns="http://www.w3.org/2000/svg">
<path d="M12.3737 8.38639L12.0185 9.04695L12.0185 9.04695L12.3737 8.38639ZM11.7583 8.02279L11.2966 8.61382L11.7583 8.02279ZM10.9864 6.0877L11.7364 6.08127L10.9864 6.0877ZM11.0213 6.80167L11.7594 6.66857L11.0213 6.80167ZM19.5802 7.8439L20.3302 7.84389L19.5802 7.8439ZM19.4721 9.564L18.7627 9.3207L19.4721 9.564ZM15.6896 10.1694L16.0448 9.50879L16.0448 9.50879L15.6896 10.1694ZM17.2558 10.8887L17.1341 11.6288L17.2558 10.8887ZM18.1846 5.51542L18.5381 4.85398L18.5381 4.85398L18.1846 5.51542ZM18.8123 5.88477L18.3503 6.47555L18.8123 5.88477ZM19.5504 7.11615L20.2892 6.98714L19.5504 7.11615ZM14.8643 3.74072L14.5107 4.40217L14.5107 4.40217L14.8643 3.74072ZM13.2996 3.02598L13.1787 3.76617L13.2996 3.02598ZM11.0789 4.36997L11.7908 4.60616L11.0789 4.36997ZM11.7498 5.14761C11.7498 4.7334 11.414 4.39761 10.9998 4.39761C10.5856 4.39761 10.2498 4.7334 10.2498 5.14761L11.7498 5.14761ZM10.9998 17.1476L11.7498 17.1476V17.1476L10.9998 17.1476ZM14.5107 4.40217L17.831 6.17687L18.5381 4.85398L15.2178 3.07928L14.5107 4.40217ZM16.0448 9.50879L12.7289 7.72583L12.0185 9.04695L15.3344 10.8299L16.0448 9.50879ZM12.7289 7.72583C12.3843 7.54054 12.2919 7.48793 12.22 7.43177L11.2966 8.61382C11.493 8.76728 11.7214 8.88719 12.0185 9.04695L12.7289 7.72583ZM10.2364 6.09413C10.2393 6.43146 10.239 6.68945 10.2832 6.93477L11.7594 6.66857C11.7432 6.5788 11.7397 6.47251 11.7364 6.08127L10.2364 6.09413ZM12.22 7.43177C11.9779 7.24262 11.8139 6.97093 11.7594 6.66857L10.2832 6.93477C10.4032 7.59997 10.7639 8.19769 11.2966 8.61382L12.22 7.43177ZM18.8302 7.84391C18.8302 8.31989 18.83 8.64919 18.8176 8.89983C18.8051 9.15317 18.7819 9.26444 18.7627 9.3207L20.1815 9.80731C20.2704 9.54816 20.3013 9.26761 20.3158 8.97387C20.3305 8.67743 20.3302 8.30437 20.3302 7.84389L18.8302 7.84391ZM15.3344 10.8299C15.74 11.048 16.0684 11.2249 16.3365 11.3523C16.602 11.4787 16.8638 11.5843 17.1341 11.6288L17.3775 10.1486C17.3188 10.139 17.2098 10.1067 16.9807 9.99775C16.7541 9.88996 16.464 9.73421 16.0448 9.50879L15.3344 10.8299ZM18.7627 9.3207C18.5648 9.89767 17.9794 10.2476 17.3775 10.1486L17.1341 11.6288C18.4583 11.8465 19.7462 11.0767 20.1815 9.80731L18.7627 9.3207ZM17.831 6.17687C18.1828 6.3649 18.2772 6.41836 18.3503 6.47555L19.2744 5.29399C19.0745 5.13767 18.8414 5.01607 18.5381 4.85398L17.831 6.17687ZM20.3302 7.84389C20.3302 7.50004 20.3329 7.23711 20.2892 6.98714L18.8116 7.24516C18.8276 7.3366 18.8302 7.44504 18.8302 7.84391L20.3302 7.84389ZM18.3503 6.47555C18.594 6.66615 18.7584 6.94037 18.8116 7.24516L20.2892 6.98714C20.1722 6.31661 19.8106 5.71333 19.2744 5.29399L18.3503 6.47555ZM15.2178 3.07928C14.8122 2.8625 14.4839 2.68676 14.2162 2.56013C13.951 2.43472 13.6898 2.32978 13.4205 2.28579L13.1787 3.76617C13.2369 3.77568 13.3457 3.80771 13.5748 3.91609C13.8014 4.02325 14.0916 4.17813 14.5107 4.40217L15.2178 3.07928ZM11.7364 6.08127C11.7323 5.60601 11.7297 5.27708 11.7398 5.02666C11.7501 4.77341 11.7722 4.66219 11.7908 4.60616L10.3671 4.13377C10.2811 4.39281 10.2529 4.6729 10.2411 4.96596C10.2291 5.26188 10.2325 5.63427 10.2364 6.09413L11.7364 6.08127ZM13.4205 2.28579C12.0869 2.06795 10.7926 2.85127 10.3671 4.13377L11.7908 4.60616C11.9842 4.0232 12.5725 3.66715 13.1787 3.76617L13.4205 2.28579ZM10.2498 5.14761L10.2498 17.1476L11.7498 17.1476L11.7498 5.14761L10.2498 5.14761ZM4.24979 17.1476C4.24979 19.2187 5.92872 20.8976 7.99979 20.8976V19.3976C6.75715 19.3976 5.74979 18.3903 5.74979 17.1476H4.24979ZM7.99979 20.8976C10.0709 20.8976 11.7498 19.2187 11.7498 17.1476H10.2498C10.2498 18.3903 9.24243 19.3976 7.99979 19.3976V20.8976ZM11.7498 17.1476C11.7498 15.0765 10.0709 13.3976 7.99979 13.3976V14.8976C9.24243 14.8976 10.2498 15.905 10.2498 17.1476H11.7498ZM7.99979 13.3976C5.92872 13.3976 4.24979 15.0765 4.24979 17.1476H5.74979C5.74979 15.905 6.75715 14.8976 7.99979 14.8976V13.3976Z" fill="black"/>
</svg>
