<svg width="24" height="24" viewBox="0 0 24 24" fill="none" xmlns="http://www.w3.org/2000/svg">
<path d="M6.55277 7.20766L5.9424 6.77183L5.9424 6.77183L6.55277 7.20766ZM12.9473 7.91861L13.3272 7.27194L12.9473 7.91861ZM8.59208 6.00966L8.51233 5.26391L8.59208 6.00966ZM8.59208 17.9901L8.51232 18.7358L8.59208 17.9901ZM6.55277 16.7921L7.16314 16.3563L6.55277 16.7921ZM16.7497 13.1979L16.0626 12.8972L16.0626 12.8972L16.7497 13.1979ZM16.7497 10.8019L16.0626 11.1025L16.7497 10.8019ZM19.7499 5.99988C19.7499 5.58566 19.4141 5.24988 18.9999 5.24988C18.5857 5.24988 18.2499 5.58566 18.2499 5.99988H19.7499ZM18.2499 17.9999C18.2499 18.4141 18.5857 18.7499 18.9999 18.7499C19.4141 18.7499 19.7499 18.4141 19.7499 17.9999H18.2499ZM6.74992 11.9999C6.74992 10.646 6.75065 9.68173 6.816 8.95697C6.88175 8.22772 7.00552 7.86423 7.16314 7.64349L5.9424 6.77183C5.54717 7.32533 5.39452 8.01862 5.32206 8.82227C5.2492 9.63039 5.24992 10.6751 5.24992 11.9999L6.74992 11.9999ZM13.3272 7.27194C12.2001 6.60985 11.3099 6.08601 10.5841 5.74541C9.86225 5.40667 9.18913 5.19153 8.51233 5.26391L8.67183 6.7554C8.93043 6.72775 9.29498 6.79742 9.94691 7.10334C10.5949 7.40739 11.4146 7.88804 12.5674 8.56528L13.3272 7.27194ZM7.16314 7.64349C7.52247 7.14025 8.07169 6.81959 8.67183 6.7554L8.51233 5.26391C7.48067 5.37424 6.5475 5.92441 5.9424 6.77183L7.16314 7.64349ZM12.5674 15.4345C11.4146 16.1117 10.5949 16.5924 9.9469 16.8964C9.29498 17.2023 8.93043 17.272 8.67183 17.2443L8.51232 18.7358C9.18913 18.8082 9.86225 18.5931 10.5841 18.2543C11.3099 17.9137 12.2001 17.3899 13.3272 16.7278L12.5674 15.4345ZM5.24992 11.9999C5.24992 13.3247 5.2492 14.3694 5.32206 15.1775C5.39452 15.9811 5.54717 16.6744 5.9424 17.2279L7.16314 16.3563C7.00552 16.1355 6.88175 15.772 6.816 15.0428C6.75065 14.318 6.74992 13.3537 6.74992 11.9999L5.24992 11.9999ZM8.67183 17.2443C8.07169 17.1802 7.52247 16.8595 7.16314 16.3563L5.9424 17.2279C6.54749 18.0753 7.48067 18.6255 8.51232 18.7358L8.67183 17.2443ZM13.3272 16.7278C14.4543 16.0657 15.3451 15.5432 15.9977 15.0741C16.648 14.6066 17.1633 14.1236 17.4368 13.4985L16.0626 12.8972C15.9535 13.1465 15.7075 13.4354 15.1222 13.8561C14.5392 14.2752 13.7201 14.7573 12.5674 15.4345L13.3272 16.7278ZM12.5674 8.56528C13.7201 9.24247 14.5392 9.72452 15.1222 10.1436C15.7075 10.5644 15.9535 10.8533 16.0626 11.1025L17.4368 10.5012C17.1633 9.87618 16.648 9.39313 15.9977 8.92566C15.3451 8.45651 14.4543 7.93407 13.3272 7.27194L12.5674 8.56528ZM17.4368 13.4985C17.8543 12.5443 17.8543 11.4555 17.4368 10.5012L16.0626 11.1025C16.3124 11.6734 16.3124 12.3263 16.0626 12.8972L17.4368 13.4985ZM18.2499 5.99988V17.9999H19.7499V5.99988H18.2499Z" fill="black"/>
</svg>
