<svg width="24" height="24" viewBox="0 0 24 24" fill="none" xmlns="http://www.w3.org/2000/svg">
<path d="M4.36615 15.5494L5.04095 15.222L5.04095 15.222L4.36615 15.5494ZM5.17509 11.2729L5.68372 11.8241L5.68372 11.8241L5.17509 11.2729ZM6.32189 8.13694L5.57769 8.22996L5.57769 8.22996L6.32189 8.13694ZM18.8563 11.3943L19.3667 10.8447L19.3667 10.8447L18.8563 11.3943ZM19.4783 16.2344L18.8455 15.8317L18.8455 15.8317L19.4783 16.2344ZM17.6015 8.02574L18.3457 8.11876L18.3457 8.11876L17.6015 8.02574ZM18.8125 11.3535L18.3021 11.9031L18.3021 11.9031L18.8125 11.3535ZM4.4695 15.7624L3.79469 16.0897L3.79469 16.0897L4.4695 15.7624ZM17.6661 7.50881L16.9219 7.41578L16.9219 7.41578L17.6661 7.50881ZM6.24254 7.50209L6.98675 7.40906L6.98675 7.40906L6.24254 7.50209ZM8.58332 18.6855L7.93548 19.0634L7.93548 19.0634L8.58332 18.6855ZM8.83115 17.6218C8.62244 17.2641 8.1632 17.1432 7.80541 17.3519C7.44762 17.5606 7.32677 18.0199 7.53548 18.3777L8.83115 17.6218ZM16.8311 18.3777C17.0399 18.0199 16.919 17.5606 16.5612 17.3519C16.2034 17.1432 15.7442 17.2641 15.5355 17.6218L16.8311 18.3777ZM15.7833 18.6855L16.4311 19.0634L16.4311 19.0634L15.7833 18.6855ZM11.0999 2.74976H12.8028V1.24976H11.0999V2.74976ZM16.2622 17.2497H8.04139V18.7497H16.2622V17.2497ZM16.9219 7.41578L16.8573 7.93271L18.3457 8.11876L18.4103 7.60183L16.9219 7.41578ZM18.3021 11.9031L18.346 11.9438L19.3667 10.8447L19.3228 10.804L18.3021 11.9031ZM7.0661 8.04391L6.98675 7.40906L5.49833 7.59512L5.57769 8.22996L7.0661 8.04391ZM5.1443 15.4351L5.04095 15.222L3.69134 15.8767L3.79469 16.0897L5.1443 15.4351ZM5.04095 15.222C4.48287 14.0715 4.74396 12.6913 5.68372 11.8241L4.66647 10.7217C3.24079 12.0373 2.84469 14.1312 3.69134 15.8767L5.04095 15.222ZM5.57769 8.22996C5.69381 9.15892 5.35448 10.0868 4.66647 10.7217L5.68372 11.8241C6.72748 10.8609 7.24226 9.45321 7.0661 8.04391L5.57769 8.22996ZM18.346 11.9438C19.4288 12.9495 19.639 14.585 18.8455 15.8317L20.111 16.6371C21.2931 14.7797 20.98 12.343 19.3667 10.8447L18.346 11.9438ZM16.8573 7.93271C16.6724 9.4115 17.2101 10.8889 18.3021 11.9031L19.3228 10.804C18.5843 10.1181 18.2207 9.11888 18.3457 8.11876L16.8573 7.93271ZM8.04139 17.2497C6.80782 17.2497 5.68267 16.545 5.1443 15.4351L3.79469 16.0897C4.58386 17.7167 6.23316 18.7497 8.04139 18.7497V17.2497ZM16.2622 18.7497C17.8219 18.7497 19.2735 17.9529 20.111 16.6371L18.8455 15.8317C18.2834 16.7149 17.3091 17.2497 16.2622 17.2497V18.7497ZM12.8028 2.74976C15.2997 2.74976 17.2316 4.93816 16.9219 7.41578L18.4103 7.60183C18.8319 4.22893 16.202 1.24976 12.8028 1.24976V2.74976ZM11.0999 1.24976C7.70435 1.24976 5.07716 4.22578 5.49833 7.59512L6.98675 7.40906C6.67749 4.93501 8.60659 2.74976 11.0999 2.74976V1.24976ZM9.23115 18.3076L8.83115 17.6218L7.53548 18.3777L7.93548 19.0634L9.23115 18.3076ZM15.5355 17.6218L15.1355 18.3076L16.4311 19.0634L16.8311 18.3777L15.5355 17.6218ZM7.93548 19.0634C8.94828 20.7996 10.5263 21.7497 12.1833 21.7497C13.8403 21.7497 15.4184 20.7996 16.4311 19.0634L15.1355 18.3076C14.3483 19.6571 13.2263 20.2497 12.1833 20.2497C11.1403 20.2497 10.0184 19.6571 9.23115 18.3076L7.93548 19.0634Z" fill="black"/>
</svg>
