<svg width="24" height="24" viewBox="0 0 24 24" fill="none" xmlns="http://www.w3.org/2000/svg">
<path d="M16.1829 3.35209C15.3082 2.51781 14.1223 2.00012 12.8027 2.00012H11.0998C8.15536 2.00012 5.87722 4.58076 6.24243 7.50246L6.32179 8.1373C6.46793 9.30643 6.04087 10.4742 5.17499 11.2732C3.99227 12.3646 3.66367 14.1017 4.36604 15.5497L4.46939 15.7628C5.13316 17.1312 6.52038 18.0001 8.04129 18.0001H16.2621C17.5654 18.0001 18.7784 17.3343 19.4781 16.2348C20.4659 14.6827 20.2043 12.6466 18.8562 11.3946L18.8124 11.3539C18.5687 11.1277 18.3581 10.8739 18.1829 10.6M8.18295 18.0001L8.58295 18.6858C10.383 21.7715 13.9829 21.7715 15.7829 18.6858L16.1829 18.0001" stroke="black" stroke-width="1.5" stroke-linecap="round"/>
<path d="M19.1839 6.99963C19.1839 8.1042 18.2884 8.99963 17.1839 8.99963C16.0793 8.99963 15.1839 8.1042 15.1839 6.99963C15.1839 5.89506 16.0793 4.99963 17.1839 4.99963C18.2884 4.99963 19.1839 5.89506 19.1839 6.99963Z" fill="black"/>
</svg>
