<svg width="24" height="24" viewBox="0 0 24 24" fill="none" xmlns="http://www.w3.org/2000/svg">
<path d="M15.1826 2.61501C14.4808 2.22417 13.6705 2.00012 12.8024 2.00012H11.0995C8.15506 2.00012 5.87691 4.58076 6.24213 7.50246L6.32148 8.13731C6.46762 9.30643 6.04057 10.4742 5.17468 11.2732C3.99196 12.3646 3.66337 14.1017 4.36573 15.5497L4.46909 15.7628C5.13285 17.1312 6.52008 18.0001 8.04098 18.0001H16.2618C17.5651 18.0001 18.7781 17.3343 19.4778 16.2348C20.4656 14.6827 20.204 12.6466 18.8559 11.3946L18.812 11.3539C18.3986 10.97 18.08 10.5068 17.8692 10.0001C17.7831 9.7932 17.715 9.57902 17.6657 9.36M9.18271 21.0001L9.48271 21.4001C10.8327 23.2001 13.5327 23.2001 14.8827 21.4001L15.1827 21.0001" stroke="black" stroke-width="1.5" stroke-linecap="round"/>
<path d="M19.1832 5.99988C19.1832 7.10445 18.2878 7.99988 17.1832 7.99988C16.0786 7.99988 15.1832 7.10445 15.1832 5.99988C15.1832 4.89531 16.0786 3.99988 17.1832 3.99988C18.2878 3.99988 19.1832 4.89531 19.1832 5.99988Z" fill="black"/>
</svg>
