<svg width="24" height="24" viewBox="0 0 24 24" fill="none" xmlns="http://www.w3.org/2000/svg">
<path d="M4.36601 15.5497L5.04081 15.2224L5.04081 15.2224L4.36601 15.5497ZM5.17495 11.2732L5.68358 11.8244L5.68358 11.8244L5.17495 11.2732ZM6.32176 8.13731L5.57755 8.23033L5.57755 8.23033L6.32176 8.13731ZM18.8562 11.3946L19.3666 10.8451L19.3666 10.8451L18.8562 11.3946ZM19.4781 16.2348L18.8454 15.8321L18.8454 15.8321L19.4781 16.2348ZM17.6014 8.02611L18.3456 8.11913L18.3456 8.11913L17.6014 8.02611ZM18.8123 11.3539L18.3019 11.9035L18.3019 11.9035L18.8123 11.3539ZM4.46936 15.7628L3.79456 16.0901L3.79456 16.0901L4.46936 15.7628ZM17.666 7.50917L16.9218 7.41615L16.9218 7.41615L17.666 7.50917ZM6.2424 7.50246L6.98661 7.40943L6.98661 7.40943L6.2424 7.50246ZM9.48318 21.4001L10.0832 20.9501L10.0832 20.9501L9.48318 21.4001ZM9.78318 20.5501C9.53465 20.2187 9.06455 20.1516 8.73318 20.4001C8.40181 20.6486 8.33465 21.1187 8.58318 21.4501L9.78318 20.5501ZM15.7832 21.4501C16.0317 21.1187 15.9645 20.6486 15.6332 20.4001C15.3018 20.1516 14.8317 20.2187 14.5832 20.5501L15.7832 21.4501ZM14.8832 21.4001L14.2832 20.9501L14.2832 20.9501L14.8832 21.4001ZM11.0998 2.75012H12.8027V1.25012H11.0998V2.75012ZM16.2621 17.2501H8.04126V18.7501H16.2621V17.2501ZM16.9218 7.41615L16.8571 7.93308L18.3456 8.11913L18.4102 7.6022L16.9218 7.41615ZM18.3019 11.9035L18.3458 11.9442L19.3666 10.8451L19.3227 10.8043L18.3019 11.9035ZM7.06596 8.04428L6.98661 7.40943L5.49819 7.59548L5.57755 8.23033L7.06596 8.04428ZM5.14416 15.4355L5.04081 15.2224L3.69121 15.877L3.79456 16.0901L5.14416 15.4355ZM5.04081 15.2224C4.48273 14.0719 4.74382 12.6916 5.68358 11.8244L4.66633 10.7221C3.24065 12.0377 2.84456 14.1316 3.69121 15.877L5.04081 15.2224ZM5.57755 8.23033C5.69367 9.15929 5.35434 10.0872 4.66633 10.7221L5.68358 11.8244C6.72734 10.8613 7.24213 9.45357 7.06596 8.04428L5.57755 8.23033ZM18.3458 11.9442C19.4287 12.9498 19.6388 14.5854 18.8454 15.8321L20.1108 16.6375C21.293 14.78 20.9799 12.3433 19.3666 10.8451L18.3458 11.9442ZM16.8571 7.93308C16.6723 9.41186 17.2099 10.8893 18.3019 11.9035L19.3227 10.8043C18.5842 10.1185 18.2205 9.11925 18.3456 8.11913L16.8571 7.93308ZM8.04126 17.2501C6.80768 17.2501 5.68253 16.5454 5.14416 15.4355L3.79456 16.0901C4.58373 17.717 6.23303 18.7501 8.04126 18.7501V17.2501ZM16.2621 18.7501C17.8218 18.7501 19.2734 17.9533 20.1108 16.6375L18.8454 15.8321C18.2833 16.7153 17.309 17.2501 16.2621 17.2501V18.7501ZM12.8027 2.75012C15.2996 2.75012 17.2315 4.93853 16.9218 7.41615L18.4102 7.6022C18.8318 4.2293 16.2018 1.25012 12.8027 1.25012V2.75012ZM11.0998 1.25012C7.70421 1.25012 5.07703 4.22615 5.49819 7.59548L6.98661 7.40943C6.67735 4.93538 8.60646 2.75012 11.0998 2.75012V1.25012ZM10.0832 20.9501L9.78318 20.5501L8.58318 21.4501L8.88318 21.8501L10.0832 20.9501ZM14.5832 20.5501L14.2832 20.9501L15.4832 21.8501L15.7832 21.4501L14.5832 20.5501ZM8.88318 21.8501C10.5332 24.0501 13.8332 24.0501 15.4832 21.8501L14.2832 20.9501C13.2332 22.3501 11.1332 22.3501 10.0832 20.9501L8.88318 21.8501Z" fill="black"/>
</svg>
