<svg width="24" height="24" viewBox="0 0 24 24" fill="none" xmlns="http://www.w3.org/2000/svg">
<path d="M5.06066 20.0447L5.5015 19.438L5.06066 20.0447ZM3.9545 18.9386L4.56127 18.4977L3.9545 18.9386ZM20.0447 18.9386L19.4379 18.4977L20.0447 18.9386ZM18.9385 20.0447L18.4977 19.438L18.9385 20.0447ZM18.9385 3.95455L18.4977 4.56131L18.9385 3.95455ZM20.0447 5.06071L19.4379 5.50155L20.0447 5.06071ZM5.06066 3.95455L5.5015 4.56131L5.06066 3.95455ZM3.9545 5.06071L4.56127 5.50155L3.9545 5.06071ZM7.71926 15.2193C7.42636 15.5122 7.42636 15.9871 7.71926 16.28C8.01215 16.5729 8.48702 16.5729 8.77992 16.28L7.71926 15.2193ZM15.851 9.20889C16.1439 8.916 16.1439 8.44113 15.851 8.14823C15.5581 7.85534 15.0832 7.85534 14.7903 8.14823L15.851 9.20889ZM14.7902 16.28C15.0831 16.5729 15.5579 16.5729 15.8508 16.28C16.1437 15.9871 16.1437 15.5122 15.8508 15.2193L14.7902 16.28ZM8.77977 8.14823C8.48688 7.85534 8.012 7.85534 7.71911 8.14823C7.42622 8.44113 7.42622 8.916 7.71911 9.20889L8.77977 8.14823ZM16.9996 12.7496C17.4138 12.7496 17.7496 12.4138 17.7496 11.9996C17.7496 11.5854 17.4138 11.2496 16.9996 11.2496V12.7496ZM6.99959 11.2496C6.58537 11.2496 6.24959 11.5854 6.24959 11.9996C6.24959 12.4138 6.58537 12.7496 6.99959 12.7496V11.2496ZM11.2496 16.9996C11.2496 17.4138 11.5854 17.7496 11.9996 17.7496C12.4138 17.7496 12.7496 17.4138 12.7496 16.9996H11.2496ZM12.7496 6.99963C12.7496 6.58542 12.4138 6.24963 11.9996 6.24963C11.5854 6.24963 11.2496 6.58542 11.2496 6.99963H12.7496ZM11.9996 20.2496C10.108 20.2496 8.74958 20.2486 7.69763 20.1346C6.65972 20.0222 6.0095 19.807 5.5015 19.438L4.61982 20.6515C5.42615 21.2373 6.37053 21.4996 7.53606 21.6259C8.68756 21.7507 10.1414 21.7496 11.9996 21.7496V20.2496ZM2.24959 11.9996C2.24959 13.8578 2.24856 15.3117 2.37332 16.4632C2.49959 17.6287 2.76191 18.5731 3.34774 19.3794L4.56127 18.4977C4.19218 17.9897 3.97704 17.3395 3.86459 16.3016C3.75062 15.2496 3.74959 13.8912 3.74959 11.9996H2.24959ZM5.5015 19.438C5.1407 19.1758 4.8234 18.8585 4.56127 18.4977L3.34774 19.3794C3.7024 19.8675 4.13168 20.2968 4.61982 20.6515L5.5015 19.438ZM20.2496 11.9996C20.2496 13.8912 20.2486 15.2496 20.1346 16.3016C20.0221 17.3395 19.807 17.9897 19.4379 18.4977L20.6514 19.3794C21.2373 18.5731 21.4996 17.6287 21.6259 16.4632C21.7506 15.3117 21.7496 13.8578 21.7496 11.9996H20.2496ZM11.9996 21.7496C13.8577 21.7496 15.3116 21.7507 16.4631 21.6259C17.6286 21.4996 18.573 21.2373 19.3793 20.6515L18.4977 19.438C17.9897 19.807 17.3394 20.0222 16.3015 20.1346C15.2496 20.2486 13.8912 20.2496 11.9996 20.2496V21.7496ZM19.4379 18.4977C19.1758 18.8585 18.8585 19.1758 18.4977 19.438L19.3793 20.6515C19.8675 20.2968 20.2968 19.8675 20.6514 19.3794L19.4379 18.4977ZM11.9996 3.74963C13.8912 3.74963 15.2496 3.75066 16.3015 3.86463C17.3394 3.97708 17.9897 4.19222 18.4977 4.56131L19.3793 3.34779C18.573 2.76196 17.6286 2.49964 16.4631 2.37336C15.3116 2.2486 13.8577 2.24963 11.9996 2.24963V3.74963ZM21.7496 11.9996C21.7496 10.1415 21.7506 8.68761 21.6259 7.53611C21.4996 6.37057 21.2373 5.42619 20.6514 4.61987L19.4379 5.50155C19.807 6.00955 20.0221 6.65977 20.1346 7.69768C20.2486 8.74962 20.2496 10.1081 20.2496 11.9996H21.7496ZM18.4977 4.56131C18.8585 4.82345 19.1758 5.14074 19.4379 5.50155L20.6514 4.61987C20.2968 4.13172 19.8675 3.70244 19.3793 3.34779L18.4977 4.56131ZM11.9996 2.24963C10.1414 2.24963 8.68756 2.2486 7.53606 2.37336C6.37053 2.49964 5.42615 2.76196 4.61982 3.34779L5.5015 4.56131C6.0095 4.19222 6.65972 3.97708 7.69763 3.86463C8.74958 3.75066 10.108 3.74963 11.9996 3.74963V2.24963ZM3.74959 11.9996C3.74959 10.1081 3.75062 8.74962 3.86459 7.69768C3.97704 6.65977 4.19218 6.00955 4.56127 5.50155L3.34774 4.61987C2.76191 5.42619 2.49959 6.37057 2.37332 7.53611C2.24856 8.68761 2.24959 10.1415 2.24959 11.9996H3.74959ZM4.61982 3.34779C4.13168 3.70244 3.7024 4.13172 3.34774 4.61987L4.56127 5.50155C4.8234 5.14074 5.1407 4.82345 5.5015 4.56131L4.61982 3.34779ZM8.77992 16.28L12.3154 12.7445L11.2547 11.6838L7.71926 15.2193L8.77992 16.28ZM12.3154 12.7445L12.5299 12.53L11.4693 11.4693L11.2547 11.6838L12.3154 12.7445ZM12.5299 12.53L15.851 9.20889L14.7903 8.14823L11.4693 11.4693L12.5299 12.53ZM15.8508 15.2193L12.5299 11.8984L11.4693 12.959L14.7902 16.28L15.8508 15.2193ZM12.5299 11.8984L12.3154 11.6838L11.2547 12.7445L11.4693 12.959L12.5299 11.8984ZM12.3154 11.6838L12.1008 11.4693L11.0402 12.53L11.2547 12.7445L12.3154 11.6838ZM12.1008 11.4693L8.77977 8.14823L7.71911 9.20889L11.0402 12.53L12.1008 11.4693ZM16.9996 11.2496H11.9996V12.7496H16.9996V11.2496ZM11.9996 11.2496H11.5705V12.7496H11.9996V11.2496ZM11.5705 11.2496H6.99959V12.7496H11.5705V11.2496ZM12.7496 16.9996V12.4287H11.2496V16.9996H12.7496ZM12.7496 12.4287V11.9996H11.2496V12.4287H12.7496ZM12.7496 11.9996V6.99963H11.2496V11.9996H12.7496Z" fill="black"/>
</svg>
