<svg width="24" height="24" viewBox="0 0 24 24" fill="none" xmlns="http://www.w3.org/2000/svg">
<path d="M12.1959 1.99957H11.8112C6.39244 1.99957 1.99967 6.39234 1.99967 11.8111V12.1958C1.99967 16.7148 5.23144 20.5872 9.67754 21.3955C11.2843 21.6877 12.6878 20.2842 12.3956 18.6774L11.9997 16.4996C11.516 13.8395 13.8396 11.5159 16.4997 11.9996L18.6775 12.3955C20.2843 12.6877 21.6878 11.2842 21.3956 9.67745C20.5873 5.23135 16.7149 1.99957 12.1959 1.99957Z" stroke="black" stroke-width="1.5"/>
<path d="M13.9997 7.99969C13.9997 8.55198 13.552 8.99969 12.9997 8.99969C12.4474 8.99969 11.9997 8.55198 11.9997 7.99969C11.9997 7.44741 12.4474 6.99969 12.9997 6.99969C13.552 6.99969 13.9997 7.44741 13.9997 7.99969Z" fill="black"/>
<path d="M9.99973 6.99969C9.99973 7.55198 9.55202 7.99969 8.99973 7.99969C8.44745 7.99969 7.99973 7.55198 7.99973 6.99969C7.99973 6.44741 8.44745 5.99969 8.99973 5.99969C9.55202 5.99969 9.99973 6.44741 9.99973 6.99969Z" fill="black"/>
<path d="M7.99973 9.99969C7.99973 10.552 7.55202 10.9997 6.99973 10.9997C6.44745 10.9997 5.99973 10.552 5.99973 9.99969C5.99973 9.44741 6.44745 8.99969 6.99973 8.99969C7.55202 8.99969 7.99973 9.44741 7.99973 9.99969Z" fill="black"/>
<path d="M8.99973 13.9997C8.99973 14.552 8.55202 14.9997 7.99973 14.9997C7.44745 14.9997 6.99973 14.552 6.99973 13.9997C6.99973 13.4474 7.44745 12.9997 7.99973 12.9997C8.55202 12.9997 8.99973 13.4474 8.99973 13.9997Z" fill="black"/>
</svg>
