<svg width="24" height="25" viewBox="0 0 24 25" fill="none" xmlns="http://www.w3.org/2000/svg">
<path d="M5.06132 21.0443L5.50216 20.4375L5.06132 21.0443ZM3.95516 19.9381L4.56192 19.4973L3.95516 19.9381ZM20.0453 19.9381L19.4386 19.4973L20.0453 19.9381ZM18.9392 21.0443L18.4983 20.4375L18.9392 21.0443ZM18.9392 4.95412L18.4983 5.56088L18.9392 4.95412ZM20.0453 6.06028L19.4386 6.50112L20.0453 6.06028ZM5.06132 4.95412L5.50216 5.56088L5.06132 4.95412ZM3.95516 6.06028L4.56192 6.50112L3.95516 6.06028ZM16.3294 14.6638C16.1442 15.0343 16.2943 15.4848 16.6648 15.67C17.0353 15.8553 17.4858 15.7051 17.6711 15.3346L16.3294 14.6638ZM13.3294 14.6638C13.1442 15.0343 13.2943 15.4848 13.6648 15.67C14.0353 15.8553 14.4858 15.7051 14.6711 15.3346L13.3294 14.6638ZM14.053 14.8936L13.3822 14.5582L13.3822 14.5582L14.053 14.8936ZM14.053 13.1048L14.7238 12.7694L14.7238 12.7694L14.053 13.1048ZM14.6711 12.6638C14.4858 12.2933 14.0353 12.1431 13.6648 12.3284C13.2943 12.5136 13.1442 12.9641 13.3294 13.3346L14.6711 12.6638ZM12.0002 21.2492C10.1087 21.2492 8.75023 21.2482 7.69829 21.1342C6.66038 21.0217 6.01016 20.8066 5.50216 20.4375L4.62048 21.651C5.4268 22.2369 6.37118 22.4992 7.53672 22.6255C8.68822 22.7502 10.1421 22.7492 12.0002 22.7492V21.2492ZM2.25024 12.9992C2.25024 14.8574 2.24921 16.3112 2.37397 17.4627C2.50025 18.6283 2.76257 19.5726 3.3484 20.379L4.56192 19.4973C4.19283 18.9893 3.9777 18.3391 3.86524 17.3012C3.75127 16.2492 3.75024 14.8908 3.75024 12.9992H2.25024ZM5.50216 20.4375C5.14135 20.1754 4.82406 19.8581 4.56192 19.4973L3.3484 20.379C3.70305 20.8671 4.13233 21.2964 4.62048 21.651L5.50216 20.4375ZM20.2502 12.9992C20.2502 14.8908 20.2492 16.2492 20.1352 17.3012C20.0228 18.3391 19.8076 18.9893 19.4386 19.4973L20.6521 20.379C21.2379 19.5726 21.5002 18.6283 21.6265 17.4627C21.7513 16.3112 21.7502 14.8574 21.7502 12.9992H20.2502ZM12.0002 22.7492C13.8584 22.7492 15.3123 22.7502 16.4638 22.6255C17.6293 22.4992 18.5737 22.2369 19.38 21.651L18.4983 20.4375C17.9903 20.8066 17.3401 21.0217 16.3022 21.1342C15.2502 21.2482 13.8918 21.2492 12.0002 21.2492V22.7492ZM19.4386 19.4973C19.1764 19.8581 18.8591 20.1754 18.4983 20.4375L19.38 21.651C19.8681 21.2964 20.2974 20.8671 20.6521 20.379L19.4386 19.4973ZM12.0002 4.74921C13.8918 4.74921 15.2502 4.75024 16.3022 4.86421C17.3401 4.97666 17.9903 5.1918 18.4983 5.56088L19.38 4.34736C18.5737 3.76153 17.6293 3.49921 16.4638 3.37293C15.3123 3.24818 13.8584 3.24921 12.0002 3.24921V4.74921ZM21.7502 12.9992C21.7502 11.141 21.7513 9.68718 21.6265 8.53568C21.5002 7.37014 21.2379 6.42576 20.6521 5.61944L19.4386 6.50112C19.8076 7.00912 20.0228 7.65934 20.1352 8.69725C20.2492 9.7492 20.2502 11.1076 20.2502 12.9992H21.7502ZM18.4983 5.56088C18.8591 5.82302 19.1764 6.14032 19.4386 6.50112L20.6521 5.61944C20.2974 5.1313 19.8681 4.70202 19.38 4.34736L18.4983 5.56088ZM12.0002 3.24921C10.1421 3.24921 8.68822 3.24818 7.53672 3.37293C6.37118 3.49921 5.4268 3.76153 4.62048 4.34736L5.50216 5.56088C6.01016 5.1918 6.66038 4.97666 7.69829 4.86421C8.75023 4.75024 10.1087 4.74921 12.0002 4.74921V3.24921ZM3.75024 12.9992C3.75024 11.1076 3.75127 9.7492 3.86524 8.69725C3.9777 7.65934 4.19283 7.00912 4.56192 6.50112L3.3484 5.61944C2.76257 6.42576 2.50025 7.37014 2.37397 8.53568C2.24921 9.68718 2.25024 11.141 2.25024 12.9992H3.75024ZM4.62048 4.34736C4.13233 4.70202 3.70305 5.1313 3.3484 5.61944L4.56192 6.50112C4.82406 6.14032 5.14135 5.82302 5.50216 5.56088L4.62048 4.34736ZM10.2502 12.9992C10.2502 13.6896 9.6906 14.2492 9.00024 14.2492V15.7492C10.519 15.7492 11.7502 14.518 11.7502 12.9992H10.2502ZM9.00024 14.2492C8.30989 14.2492 7.75024 13.6896 7.75024 12.9992H6.25024C6.25024 14.518 7.48146 15.7492 9.00024 15.7492V14.2492ZM7.75024 12.9992C7.75024 12.3088 8.30989 11.7492 9.00024 11.7492V10.2492C7.48146 10.2492 6.25024 11.4804 6.25024 12.9992H7.75024ZM9.00024 11.7492C9.6906 11.7492 10.2502 12.3088 10.2502 12.9992H11.7502C11.7502 11.4804 10.519 10.2492 9.00024 10.2492V11.7492ZM11.0002 13.7492H16.8822V12.2492H11.0002V13.7492ZM17.6711 15.3346L17.7238 15.229L16.3822 14.5582L16.3294 14.6638L17.6711 15.3346ZM17.7238 15.229C18.1109 14.4548 18.1109 13.5436 17.7238 12.7694L16.3822 13.4402C16.5582 13.7921 16.5582 14.2063 16.3822 14.5582L17.7238 15.229ZM14.6711 15.3346L14.7238 15.229L13.3822 14.5582L13.3294 14.6638L14.6711 15.3346ZM14.7238 12.7694L14.6711 12.6638L13.3294 13.3346L13.3822 13.4402L14.7238 12.7694ZM14.7238 15.229C15.1109 14.4548 15.1109 13.5436 14.7238 12.7694L13.3822 13.4402C13.5582 13.7921 13.5582 14.2063 13.3822 14.5582L14.7238 15.229ZM16.8822 13.7492C16.6705 13.7492 16.4769 13.6296 16.3822 13.4402L17.7238 12.7694C17.5645 12.4506 17.2386 12.2492 16.8822 12.2492V13.7492Z" fill="black"/>
</svg>
