<svg width="24" height="25" viewBox="0 0 24 25" fill="none" xmlns="http://www.w3.org/2000/svg">
<path d="M3.0252 8.10369L3.69251 8.44602L3.0252 8.10369ZM3.27314 7.67425L3.90326 8.08099L3.90326 8.08099L3.27314 7.67425ZM3.27314 18.324L3.90326 17.9173L3.90326 17.9173L3.27314 18.324ZM3.0252 17.8946L3.69251 17.5523L3.0252 17.8946ZM12.2482 23.2195L12.2854 23.9686L12.2482 23.2195ZM11.7523 23.2195L11.7151 23.9686L11.7523 23.2195ZM20.9753 17.8946L20.308 17.5523L20.9753 17.8946ZM20.7274 18.324L20.0972 17.9173L20.0972 17.9173L20.7274 18.324ZM20.7274 7.67425L20.0972 8.08099L20.0972 8.08099L20.7274 7.67425ZM20.9753 8.10369L20.308 8.44602L20.9753 8.10369ZM12.2482 2.7788L12.2854 2.02972L12.2482 2.7788ZM11.7523 2.7788L11.7151 2.02972L11.7523 2.7788ZM16.3294 14.6637C16.1442 15.0342 16.2943 15.4847 16.6648 15.67C17.0353 15.8552 17.4858 15.705 17.6711 15.3345L16.3294 14.6637ZM13.3294 14.6637C13.1442 15.0342 13.2944 15.4847 13.6648 15.67C14.0353 15.8552 14.4858 15.705 14.6711 15.3345L13.3294 14.6637ZM14.053 13.1047L14.7239 12.7693L14.7239 12.7693L14.053 13.1047ZM14.6711 12.6637C14.4858 12.2932 14.0353 12.1431 13.6648 12.3283C13.2943 12.5136 13.1442 12.9641 13.3294 13.3346L14.6711 12.6637ZM10.8517 12.6277L11.548 12.3492L11.548 12.3492L10.8517 12.6277ZM10.8517 13.3705L11.548 13.6491L11.548 13.6491L10.8517 13.3705ZM10.4517 14.3705L9.75533 14.092L9.75533 14.092L10.4517 14.3705ZM10.4517 11.6277L9.75533 11.9063L9.75533 11.9063L10.4517 11.6277ZM10.9232 12.9991L10.1732 12.9991L10.9232 12.9991ZM3.22397 12.9991C3.22397 11.7124 3.22466 10.796 3.2899 10.0659C3.35386 9.35006 3.47643 8.86723 3.69251 8.44602L2.35788 7.76136C2.02274 8.41467 1.8697 9.10592 1.79585 9.93238C1.72328 10.7445 1.72397 11.7386 1.72397 12.9991H3.22397ZM6.86211 4.09962C5.77049 4.72987 4.90922 5.22633 4.24216 5.69525C3.56335 6.17243 3.04122 6.6506 2.64301 7.2675L3.90326 8.08099C4.16 7.68325 4.51686 7.33568 5.1048 6.92238C5.70448 6.50082 6.49772 6.04205 7.61211 5.39866L6.86211 4.09962ZM3.69251 8.44602C3.75668 8.32093 3.82702 8.19911 3.90326 8.08099L2.64301 7.2675C2.53986 7.4273 2.4447 7.59212 2.35788 7.76136L3.69251 8.44602ZM7.61211 20.5996C6.49772 19.9562 5.70448 19.4975 5.1048 19.0759C4.51686 18.6626 4.16 18.315 3.90326 17.9173L2.64301 18.7308C3.04122 19.3477 3.56335 19.8258 4.24216 20.303C4.90922 20.7719 5.77049 21.2684 6.86211 21.8987L7.61211 20.5996ZM1.72397 12.9991C1.72397 14.2596 1.72328 15.2537 1.79585 16.0659C1.8697 16.8924 2.02274 17.5836 2.35788 18.2369L3.69251 17.5523C3.47643 17.131 3.35386 16.6482 3.2899 15.9324C3.22466 15.2023 3.22397 14.2859 3.22397 12.9991H1.72397ZM3.90326 17.9173C3.82702 17.7992 3.75668 17.6773 3.69251 17.5523L2.35788 18.2369C2.4447 18.4062 2.53986 18.571 2.64301 18.7308L3.90326 17.9173ZM16.3884 20.5996C15.274 21.243 14.4801 21.7006 13.8151 22.0091C13.1632 22.3117 12.6838 22.4469 12.211 22.4704L12.2854 23.9686C13.0187 23.9321 13.6939 23.7191 14.4466 23.3698C15.1862 23.0266 16.0468 22.5289 17.1384 21.8987L16.3884 20.5996ZM6.86211 21.8987C7.95373 22.5289 8.81431 23.0266 9.55394 23.3698C10.3066 23.7191 10.9818 23.9321 11.7151 23.9686L11.7895 22.4704C11.3167 22.4469 10.8372 22.3117 10.1853 22.0091C9.52042 21.7006 8.7265 21.243 7.61211 20.5996L6.86211 21.8987ZM12.211 22.4704C12.0706 22.4774 11.9299 22.4774 11.7895 22.4704L11.7151 23.9686C11.9051 23.978 12.0954 23.978 12.2854 23.9686L12.211 22.4704ZM20.7765 12.9991C20.7765 14.2859 20.7758 15.2023 20.7106 15.9324C20.6466 16.6482 20.5241 17.131 20.308 17.5523L21.6426 18.2369C21.9778 17.5836 22.1308 16.8924 22.2046 16.0659C22.2772 15.2537 22.2765 14.2596 22.2765 12.9991H20.7765ZM17.1384 21.8987C18.23 21.2684 19.0913 20.7719 19.7583 20.303C20.4371 19.8258 20.9593 19.3477 21.3575 18.7308L20.0972 17.9173C19.8405 18.315 19.4836 18.6626 18.8957 19.0759C18.296 19.4975 17.5028 19.9562 16.3884 20.5996L17.1384 21.8987ZM20.308 17.5523C20.2438 17.6773 20.1735 17.7992 20.0972 17.9173L21.3575 18.7308C21.4606 18.571 21.5558 18.4062 21.6426 18.2369L20.308 17.5523ZM16.3884 5.39866C17.5028 6.04205 18.296 6.50082 18.8957 6.92238C19.4836 7.33568 19.8405 7.68325 20.0972 8.08099L21.3575 7.2675C20.9593 6.6506 20.4371 6.17243 19.7583 5.69525C19.0913 5.22633 18.23 4.72987 17.1384 4.09962L16.3884 5.39866ZM22.2765 12.9991C22.2765 11.7386 22.2772 10.7445 22.2046 9.93238C22.1308 9.10592 21.9778 8.41467 21.6426 7.76136L20.308 8.44602C20.5241 8.86723 20.6466 9.35006 20.7106 10.0659C20.7758 10.796 20.7765 11.7124 20.7765 12.9991H22.2765ZM20.0972 8.08099C20.1735 8.19911 20.2438 8.32093 20.308 8.44602L21.6426 7.76136C21.5558 7.59212 21.4606 7.4273 21.3575 7.2675L20.0972 8.08099ZM17.1384 4.09962C16.0468 3.46938 15.1862 2.97172 14.4466 2.62849C13.6939 2.27922 13.0187 2.06613 12.2854 2.02972L12.211 3.52787C12.6838 3.55135 13.1632 3.68661 13.8151 3.98913C14.4801 4.29769 15.274 4.75527 16.3884 5.39866L17.1384 4.09962ZM7.61211 5.39866C8.7265 4.75527 9.52042 4.29769 10.1853 3.98913C10.8372 3.68661 11.3167 3.55135 11.7895 3.52787L11.7151 2.02972C10.9818 2.06613 10.3066 2.27922 9.55394 2.62849C8.81431 2.97172 7.95373 3.46938 6.86211 4.09962L7.61211 5.39866ZM12.2854 2.02972C12.0954 2.02029 11.9051 2.02029 11.7151 2.02972L11.7895 3.52787C11.9299 3.5209 12.0706 3.5209 12.211 3.52787L12.2854 2.02972ZM11.0002 13.7491H16.8822V12.2491H11.0002V13.7491ZM17.6711 15.3345L17.7239 15.229L16.3822 14.5582L16.3294 14.6637L17.6711 15.3345ZM17.7239 15.229C18.111 14.4548 18.111 13.5435 17.7239 12.7693L16.3822 13.4401C16.5582 13.792 16.5582 14.2062 16.3822 14.5582L17.7239 15.229ZM14.6711 15.3345L14.7239 15.229L13.3822 14.5582L13.3294 14.6637L14.6711 15.3345ZM14.7239 12.7693L14.6711 12.6637L13.3294 13.3346L13.3822 13.4401L14.7239 12.7693ZM14.7239 15.229C15.111 14.4548 15.111 13.5435 14.7239 12.7693L13.3822 13.4401C13.5582 13.792 13.5582 14.2062 13.3822 14.5582L14.7239 15.229ZM8.00025 11.7491H9.52321V10.2491H8.00025V11.7491ZM9.52321 14.2491H8.00025V15.7491H9.52321V14.2491ZM7.75025 13.9991V11.9991H6.25025V13.9991H7.75025ZM9.75533 11.9063L10.1553 12.9063L11.548 12.3492L11.148 11.3492L9.75533 11.9063ZM10.1553 13.092L9.75533 14.092L11.148 14.6491L11.548 13.6491L10.1553 13.092ZM8.00025 14.2491C7.86218 14.2491 7.75025 14.1372 7.75025 13.9991H6.25025C6.25025 14.9656 7.03375 15.7491 8.00025 15.7491V14.2491ZM9.52321 15.7491C10.2388 15.7491 10.8823 15.3135 11.148 14.6491L9.75533 14.092C9.71737 14.1869 9.62544 14.2491 9.52321 14.2491V15.7491ZM9.52321 11.7491C9.62544 11.7491 9.71737 11.8114 9.75533 11.9063L11.148 11.3492C10.8823 10.6848 10.2388 10.2491 9.52321 10.2491V11.7491ZM8.00025 10.2491C7.03375 10.2491 6.25025 11.0326 6.25025 11.9991H7.75025C7.75025 11.8611 7.86218 11.7491 8.00025 11.7491V10.2491ZM10.1553 12.9063C10.1673 12.9361 10.1732 12.9676 10.1732 12.9991L11.6732 12.9991C11.6732 12.7785 11.6315 12.5578 11.548 12.3492L10.1553 12.9063ZM10.1732 12.9991C10.1732 13.0307 10.1673 13.0622 10.1553 13.092L11.548 13.6491C11.6315 13.4405 11.6732 13.2198 11.6732 12.9991L10.1732 12.9991ZM11.0002 12.2491H10.9232V13.7491H11.0002V12.2491ZM16.8822 13.7491C16.6705 13.7491 16.4769 13.6295 16.3822 13.4401L17.7238 12.7693C17.5645 12.4505 17.2386 12.2491 16.8822 12.2491V13.7491Z" fill="black"/>
</svg>
