<svg width="24" height="25" viewBox="0 0 24 25" fill="none" xmlns="http://www.w3.org/2000/svg">
<path d="M11 12.9991C11 14.1037 10.1045 14.9991 8.99996 14.9991C7.89539 14.9991 6.99996 14.1037 6.99996 12.9991C6.99996 11.8946 7.89539 10.9991 8.99996 10.9991C10.1045 10.9991 11 11.8946 11 12.9991ZM11 12.9991H16.8819C16.9543 12.9991 17.0204 13.04 17.0527 13.1047V13.1047C17.3343 13.6678 17.3343 14.3305 17.0527 14.8936L17 14.9991M14 14.9991L14.0527 14.8936C14.3343 14.3305 14.3343 13.6678 14.0527 13.1047L14 12.9991M2.47368 12.9991C2.47368 10.4519 2.47368 9.17822 3.02491 8.10369C3.1004 7.95653 3.18315 7.8132 3.27285 7.67425C3.9278 6.6596 5.03081 6.02278 7.23682 4.74914C9.44283 3.4755 10.5458 2.83868 11.752 2.7788C11.9172 2.77059 12.0827 2.77059 12.2479 2.7788C13.4541 2.83868 14.5571 3.4755 16.7631 4.74914C18.9691 6.02278 20.0721 6.6596 20.7271 7.67425C20.8168 7.8132 20.8995 7.95653 20.975 8.10369C21.5262 9.17822 21.5262 10.4519 21.5262 12.9991C21.5262 15.5464 21.5262 16.8201 20.975 17.8946C20.8995 18.0417 20.8168 18.1851 20.7271 18.324C20.0721 19.3387 18.9691 19.9755 16.7631 21.2491C14.5571 22.5228 13.4541 23.1596 12.2479 23.2195C12.0827 23.2277 11.9172 23.2277 11.752 23.2195C10.5458 23.1596 9.44283 22.5228 7.23682 21.2491C5.03081 19.9755 3.9278 19.3387 3.27285 18.324C3.18315 18.1851 3.1004 18.0417 3.02491 17.8946C2.47368 16.8201 2.47368 15.5464 2.47368 12.9991Z" stroke="black" stroke-width="1.5" stroke-linecap="round"/>
</svg>
