<svg width="24" height="25" viewBox="0 0 24 25" fill="none" xmlns="http://www.w3.org/2000/svg">
<path d="M10.9998 12.9991C10.9998 14.1037 10.1043 14.9991 8.99978 14.9991C7.89521 14.9991 6.99978 14.1037 6.99978 12.9991C6.99978 11.8946 7.89521 10.9991 8.99978 10.9991C10.1043 10.9991 10.9998 11.8946 10.9998 12.9991ZM10.9998 12.9991L16.8817 12.9991C16.9541 12.9991 17.0202 13.04 17.0526 13.1047V13.1047C17.3341 13.6678 17.3341 14.3305 17.0526 14.8936L16.9998 14.9991M13.9998 14.9991L14.0526 14.8936C14.3341 14.3305 14.3341 13.6678 14.0526 13.1047L13.9998 12.9991M21.9998 12.9991C21.9998 18.522 17.5226 22.9991 11.9998 22.9991C6.47693 22.9991 1.99978 18.522 1.99978 12.9991C1.99978 7.4763 6.47693 2.99915 11.9998 2.99915C17.5226 2.99915 21.9998 7.4763 21.9998 12.9991Z" stroke="black" stroke-width="1.5" stroke-linecap="round"/>
</svg>
