<svg width="24" height="25" viewBox="0 0 24 25" fill="none" xmlns="http://www.w3.org/2000/svg">
<path d="M5.06077 21.0443L5.50161 20.4375L5.06077 21.0443ZM3.95461 19.9381L4.56137 19.4973L3.95461 19.9381ZM20.0448 19.9381L19.438 19.4973L20.0448 19.9381ZM18.9386 21.0443L18.4978 20.4375L18.9386 21.0443ZM18.9386 4.95412L18.4978 5.56088L18.9386 4.95412ZM20.0448 6.06028L19.438 6.50112L20.0448 6.06028ZM5.06077 4.95412L5.50161 5.56088L5.06077 4.95412ZM3.95461 6.06028L4.56137 6.50112L3.95461 6.06028ZM10.9997 12.9992L10.9997 12.2492H10.9997V12.9992ZM16.3289 14.6638C16.1436 15.0343 16.2938 15.4848 16.6643 15.67C17.0348 15.8553 17.4853 15.7051 17.6705 15.3346L16.3289 14.6638ZM17.0525 14.8936L17.7233 15.229L17.7233 15.229L17.0525 14.8936ZM13.3289 14.6638C13.1436 15.0343 13.2938 15.4848 13.6643 15.67C14.0348 15.8553 14.4853 15.7051 14.6705 15.3346L13.3289 14.6638ZM14.0525 14.8936L14.7233 15.229L14.7233 15.229L14.0525 14.8936ZM14.0525 13.1048L14.7233 12.7694L14.7233 12.7694L14.0525 13.1048ZM14.6705 12.6638C14.4853 12.2933 14.0348 12.1431 13.6643 12.3284C13.2938 12.5136 13.1436 12.9641 13.3289 13.3346L14.6705 12.6638ZM10.8511 12.6278L10.1548 12.9064L10.1548 12.9064L10.8511 12.6278ZM10.8511 13.3706L11.5475 13.6491L11.5475 13.6491L10.8511 13.3706ZM10.4511 14.3706L9.75478 14.092L9.75478 14.092L10.4511 14.3706ZM10.4511 11.6278L11.1475 11.3493L11.1475 11.3493L10.4511 11.6278ZM16.8817 12.9992L16.8817 13.7492L16.8817 12.9992ZM11.9997 21.2492C10.1081 21.2492 8.74968 21.2482 7.69774 21.1342C6.65983 21.0217 6.00961 20.8066 5.50161 20.4375L4.61993 21.651C5.42625 22.2369 6.37063 22.4992 7.53617 22.6255C8.68767 22.7502 10.1415 22.7492 11.9997 22.7492V21.2492ZM2.2497 12.9992C2.2497 14.8574 2.24867 16.3112 2.37342 17.4627C2.4997 18.6283 2.76202 19.5726 3.34785 20.379L4.56137 19.4973C4.19229 18.9893 3.97715 18.3391 3.8647 17.3012C3.75072 16.2492 3.74969 14.8908 3.74969 12.9992H2.2497ZM5.50161 20.4375C5.1408 20.1754 4.82351 19.8581 4.56137 19.4973L3.34785 20.379C3.7025 20.8671 4.13178 21.2964 4.61993 21.651L5.50161 20.4375ZM20.2497 12.9992C20.2497 14.8908 20.2487 16.2492 20.1347 17.3012C20.0222 18.3391 19.8071 18.9893 19.438 19.4973L20.6515 20.379C21.2374 19.5726 21.4997 18.6283 21.626 17.4627C21.7507 16.3112 21.7497 14.8574 21.7497 12.9992H20.2497ZM11.9997 22.7492C13.8579 22.7492 15.3117 22.7502 16.4632 22.6255C17.6287 22.4992 18.5731 22.2369 19.3795 21.651L18.4978 20.4375C17.9898 20.8066 17.3396 21.0217 16.3016 21.1342C15.2497 21.2482 13.8913 21.2492 11.9997 21.2492V22.7492ZM19.438 19.4973C19.1759 19.8581 18.8586 20.1754 18.4978 20.4375L19.3795 21.651C19.8676 21.2964 20.2969 20.8671 20.6515 20.379L19.438 19.4973ZM11.9997 4.74921C13.8913 4.74921 15.2497 4.75024 16.3016 4.86421C17.3396 4.97666 17.9898 5.1918 18.4978 5.56088L19.3795 4.34736C18.5731 3.76153 17.6287 3.49921 16.4632 3.37293C15.3117 3.24818 13.8579 3.24921 11.9997 3.24921V4.74921ZM21.7497 12.9992C21.7497 11.141 21.7507 9.68718 21.626 8.53568C21.4997 7.37014 21.2374 6.42576 20.6515 5.61944L19.438 6.50112C19.8071 7.00912 20.0222 7.65934 20.1347 8.69725C20.2487 9.7492 20.2497 11.1076 20.2497 12.9992H21.7497ZM18.4978 5.56088C18.8586 5.82302 19.1759 6.14032 19.438 6.50112L20.6515 5.61944C20.2969 5.1313 19.8676 4.70202 19.3795 4.34736L18.4978 5.56088ZM11.9997 3.24921C10.1415 3.24921 8.68767 3.24818 7.53617 3.37293C6.37063 3.49921 5.42625 3.76153 4.61993 4.34736L5.50161 5.56088C6.00961 5.1918 6.65983 4.97666 7.69774 4.86421C8.74969 4.75024 10.1081 4.74921 11.9997 4.74921V3.24921ZM3.74969 12.9992C3.74969 11.1076 3.75072 9.7492 3.8647 8.69725C3.97715 7.65934 4.19229 7.00912 4.56137 6.50112L3.34785 5.61944C2.76202 6.42576 2.4997 7.37014 2.37342 8.53568C2.24867 9.68718 2.2497 11.141 2.2497 12.9992H3.74969ZM4.61993 4.34736C4.13178 4.70202 3.7025 5.1313 3.34785 5.61944L4.56137 6.50112C4.82351 6.14032 5.1408 5.82302 5.50161 5.56088L4.61993 4.34736ZM10.9997 13.7492L16.8817 13.7492L16.8817 12.2492L10.9997 12.2492L10.9997 13.7492ZM17.6705 15.3346L17.7233 15.229L16.3817 14.5582L16.3289 14.6638L17.6705 15.3346ZM17.7233 15.229C18.1104 14.4548 18.1104 13.5436 17.7233 12.7694L16.3817 13.4402C16.5576 13.7921 16.5576 14.2063 16.3817 14.5582L17.7233 15.229ZM14.6705 15.3346L14.7233 15.229L13.3817 14.5582L13.3289 14.6638L14.6705 15.3346ZM14.7233 12.7694L14.6705 12.6638L13.3289 13.3346L13.3817 13.4402L14.7233 12.7694ZM14.7233 15.229C15.1104 14.4548 15.1104 13.5436 14.7233 12.7694L13.3817 13.4402C13.5576 13.7921 13.5576 14.2063 13.3817 14.5582L14.7233 15.229ZM7.99969 11.7492H9.52266V10.2492H7.99969V11.7492ZM9.52266 14.2492H7.99969V15.7492H9.52266V14.2492ZM7.74969 13.9992V11.9992H6.24969V13.9992H7.74969ZM9.75478 11.9064L10.1548 12.9064L11.5475 12.3493L11.1475 11.3493L9.75478 11.9064ZM10.1548 13.0921L9.75478 14.092L11.1475 14.6491L11.5475 13.6491L10.1548 13.0921ZM7.99969 14.2492C7.86162 14.2492 7.74969 14.1373 7.74969 13.9992H6.24969C6.24969 14.9657 7.0332 15.7492 7.99969 15.7492V14.2492ZM9.52266 15.7492C10.2382 15.7492 10.8817 15.3135 11.1475 14.6491L9.75478 14.092C9.71681 14.187 9.62488 14.2492 9.52266 14.2492V15.7492ZM9.52266 11.7492C9.62489 11.7492 9.71681 11.8114 9.75478 11.9064L11.1475 11.3493C10.8817 10.6849 10.2382 10.2492 9.52266 10.2492V11.7492ZM7.99969 10.2492C7.03319 10.2492 6.24969 11.0327 6.24969 11.9992H7.74969C7.74969 11.8611 7.86162 11.7492 7.99969 11.7492V10.2492ZM10.1548 12.9064C10.1667 12.9362 10.1727 12.9676 10.1727 12.9992H11.6727C11.6727 12.7786 11.6309 12.5579 11.5475 12.3493L10.1548 12.9064ZM10.1727 12.9992C10.1727 13.0308 10.1667 13.0622 10.1548 13.0921L11.5475 13.6491C11.6309 13.4405 11.6727 13.2198 11.6727 12.9992H10.1727ZM10.9997 12.2492H10.9227V13.7492H10.9997V12.2492ZM16.8817 13.7492C16.6699 13.7492 16.4764 13.6296 16.3817 13.4402L17.7233 12.7694C17.5639 12.4506 17.2381 12.2492 16.8817 12.2492L16.8817 13.7492Z" fill="black"/>
</svg>
