<svg width="24" height="25" viewBox="0 0 24 25" fill="none" xmlns="http://www.w3.org/2000/svg">
<path d="M10.9997 12.9991L10.9997 12.2491H10.9997V12.9991ZM16.3288 14.6637C16.1436 15.0342 16.2938 15.4847 16.6642 15.67C17.0347 15.8552 17.4852 15.705 17.6705 15.3346L16.3288 14.6637ZM17.0524 14.8936L17.7233 15.229L17.7233 15.229L17.0524 14.8936ZM13.3288 14.6637C13.1436 15.0342 13.2938 15.4847 13.6642 15.67C14.0347 15.8552 14.4852 15.705 14.6705 15.3346L13.3288 14.6637ZM14.0524 14.8936L14.7233 15.229L14.7233 15.229L14.0524 14.8936ZM14.0524 13.1047L14.7233 12.7693L14.7233 12.7693L14.0524 13.1047ZM14.6705 12.6637C14.4852 12.2932 14.0347 12.1431 13.6642 12.3283C13.2938 12.5136 13.1436 12.9641 13.3288 13.3346L14.6705 12.6637ZM10.8511 12.6278L11.5475 12.3492L11.5475 12.3492L10.8511 12.6278ZM10.8511 13.3705L11.5475 13.6491L11.5475 13.6491L10.8511 13.3705ZM10.4511 14.3705L9.75475 14.092L9.75475 14.092L10.4511 14.3705ZM10.4511 11.6278L9.75475 11.9063L9.75475 11.9063L10.4511 11.6278ZM16.8816 12.9991L16.8816 13.7491L16.8816 12.9991ZM21.2497 12.9991C21.2497 18.1078 17.1083 22.2491 11.9997 22.2491V23.7491C17.9367 23.7491 22.7497 18.9362 22.7497 12.9991H21.2497ZM11.9997 22.2491C6.89103 22.2491 2.74967 18.1078 2.74967 12.9991H1.24967C1.24967 18.9362 6.0626 23.7491 11.9997 23.7491V22.2491ZM2.74967 12.9991C2.74967 7.89051 6.89103 3.74915 11.9997 3.74915V2.24915C6.0626 2.24915 1.24967 7.06208 1.24967 12.9991H2.74967ZM11.9997 3.74915C17.1083 3.74915 21.2497 7.89051 21.2497 12.9991H22.7497C22.7497 7.06208 17.9367 2.24915 11.9997 2.24915V3.74915ZM10.9997 13.7491L16.8816 13.7491L16.8816 12.2491L10.9997 12.2491L10.9997 13.7491ZM17.6705 15.3346L17.7233 15.229L16.3816 14.5582L16.3288 14.6637L17.6705 15.3346ZM17.7233 15.229C18.1104 14.4548 18.1104 13.5435 17.7233 12.7693L16.3816 13.4401C16.5576 13.792 16.5576 14.2062 16.3816 14.5582L17.7233 15.229ZM14.6705 15.3346L14.7233 15.229L13.3816 14.5582L13.3288 14.6637L14.6705 15.3346ZM14.7233 12.7693L14.6705 12.6637L13.3288 13.3346L13.3816 13.4401L14.7233 12.7693ZM14.7233 15.229C15.1104 14.4548 15.1104 13.5435 14.7233 12.7693L13.3816 13.4401C13.5576 13.792 13.5576 14.2062 13.3816 14.5582L14.7233 15.229ZM7.99966 11.7491H9.52263V10.2491H7.99966V11.7491ZM9.52263 14.2491H7.99967V15.7491H9.52263V14.2491ZM7.74966 13.9991V11.9991H6.24967V13.9991H7.74966ZM9.75475 11.9063L10.1548 12.9063L11.5475 12.3492L11.1475 11.3492L9.75475 11.9063ZM10.1548 13.092L9.75475 14.092L11.1475 14.6491L11.5475 13.6491L10.1548 13.092ZM7.99967 14.2491C7.86159 14.2491 7.74966 14.1372 7.74966 13.9991H6.24967C6.24967 14.9656 7.03317 15.7491 7.99967 15.7491V14.2491ZM9.52263 15.7491C10.2382 15.7491 10.8817 15.3135 11.1475 14.6491L9.75475 14.092C9.71678 14.1869 9.62486 14.2491 9.52263 14.2491V15.7491ZM9.52263 11.7491C9.62486 11.7491 9.71678 11.8114 9.75475 11.9063L11.1475 11.3492C10.8817 10.6848 10.2382 10.2491 9.52263 10.2491V11.7491ZM7.99966 10.2491C7.03317 10.2491 6.24967 11.0326 6.24967 11.9991H7.74966C7.74966 11.8611 7.86159 11.7491 7.99966 11.7491V10.2491ZM10.1547 12.9063C10.1667 12.9361 10.1726 12.9676 10.1726 12.9991H11.6726C11.6726 12.7785 11.6309 12.5578 11.5475 12.3492L10.1547 12.9063ZM10.1726 12.9991C10.1726 13.0307 10.1667 13.0622 10.1547 13.092L11.5475 13.6491C11.6309 13.4405 11.6726 13.2198 11.6726 12.9991H10.1726ZM10.9997 12.2491H10.9226V13.7491H10.9997V12.2491ZM16.8816 13.7491C16.6699 13.7491 16.4763 13.6295 16.3816 13.4401L17.7233 12.7693C17.5639 12.4505 17.238 12.2491 16.8816 12.2491L16.8816 13.7491Z" fill="black"/>
</svg>
