<svg width="24" height="24" viewBox="0 0 24 24" fill="none" xmlns="http://www.w3.org/2000/svg">
<path d="M9.24997 15.9996C9.24997 16.4138 9.58575 16.7496 9.99997 16.7496C10.4142 16.7496 10.75 16.4138 10.75 15.9996L9.24997 15.9996ZM10.75 7.99963C10.75 7.58542 10.4142 7.24963 9.99997 7.24963C9.58575 7.24963 9.24997 7.58542 9.24997 7.99963L10.75 7.99963ZM13.25 15.9996C13.25 16.4138 13.5858 16.7496 14 16.7496C14.4142 16.7496 14.75 16.4138 14.75 15.9996H13.25ZM14.75 7.99963C14.75 7.58542 14.4142 7.24963 14 7.24963C13.5858 7.24963 13.25 7.58542 13.25 7.99963H14.75ZM21.25 11.9996C21.25 17.1083 17.1086 21.2496 12 21.2496V22.7496C17.937 22.7496 22.75 17.9367 22.75 11.9996H21.25ZM12 21.2496C6.89133 21.2496 2.74997 17.1083 2.74997 11.9996H1.24997C1.24997 17.9367 6.06291 22.7496 12 22.7496V21.2496ZM2.74997 11.9996C2.74997 6.891 6.89133 2.74963 12 2.74963V1.24963C6.06291 1.24963 1.24997 6.06257 1.24997 11.9996H2.74997ZM12 2.74963C17.1086 2.74963 21.25 6.891 21.25 11.9996H22.75C22.75 6.06257 17.937 1.24963 12 1.24963V2.74963ZM10.75 15.9996L10.75 7.99963L9.24997 7.99963L9.24997 15.9996L10.75 15.9996ZM14.75 15.9996V7.99963H13.25V15.9996H14.75Z" fill="black"/>
</svg>
