<svg width="24" height="24" viewBox="0 0 24 24" fill="none" xmlns="http://www.w3.org/2000/svg">
<path d="M9.99906 15.9995L9.99906 7.99951M13.9991 15.9995V7.99951M2.47278 11.9995C2.47278 9.45222 2.47278 8.17858 3.02401 7.10405C3.0995 6.95689 3.18225 6.81357 3.27195 6.67461C3.9269 5.65997 5.02991 5.02315 7.23592 3.74951C9.44193 2.47587 10.5449 1.83905 11.7511 1.77916C11.9163 1.77096 12.0818 1.77096 12.247 1.77916C13.4532 1.83905 14.5562 2.47587 16.7622 3.74951C18.9682 5.02315 20.0712 5.65997 20.7262 6.67461C20.8159 6.81357 20.8986 6.95689 20.9741 7.10405C21.5253 8.17858 21.5253 9.45222 21.5253 11.9995C21.5253 14.5468 21.5253 15.8204 20.9741 16.895C20.8986 17.0421 20.8159 17.1854 20.7262 17.3244C20.0712 18.339 18.9682 18.9759 16.7622 20.2495C14.5562 21.5231 13.4532 22.16 12.247 22.2198C12.0818 22.228 11.9163 22.228 11.7511 22.2198C10.5449 22.16 9.44193 21.5231 7.23592 20.2495C5.02991 18.9759 3.9269 18.339 3.27195 17.3244C3.18225 17.1854 3.0995 17.0421 3.02401 16.895C2.47278 15.8204 2.47278 14.5468 2.47278 11.9995Z" stroke="black" stroke-width="1.5" stroke-linecap="round"/>
</svg>
