<svg width="24" height="24" viewBox="0 0 24 24" fill="none" xmlns="http://www.w3.org/2000/svg">
<path d="M7.2355 3.74951C9.44151 2.47587 10.5445 1.83905 11.7507 1.77916C11.9159 1.77096 12.0814 1.77096 12.2466 1.77916C13.4528 1.83905 14.5558 2.47587 16.7618 3.74951C18.9678 5.02315 20.0708 5.65997 20.7258 6.67461C20.8154 6.81357 20.8982 6.95689 20.9737 7.10405C21.5249 8.17858 21.5249 9.45222 21.5249 11.9995C21.5249 14.5468 21.5249 15.8204 20.9737 16.895C20.8982 17.0421 20.8154 17.1854 20.7258 17.3244C20.0708 18.339 18.9678 18.9759 16.7618 20.2495C14.5558 21.5231 13.4528 22.16 12.2466 22.2198C12.0814 22.228 11.9159 22.228 11.7507 22.2198C10.5445 22.16 9.44151 21.5231 7.2355 20.2495C5.0295 18.9759 3.92649 18.339 3.27153 17.3244C3.18184 17.1854 3.09909 17.0421 3.0236 16.895C2.47237 15.8204 2.47237 14.5468 2.47237 11.9995C2.47237 9.45222 2.47237 8.17858 3.0236 7.10405C3.09909 6.95689 3.18184 6.81357 3.27153 6.67461C3.92649 5.65997 5.0295 5.02315 7.2355 3.74951Z" stroke="black" stroke-width="1.5"/>
<path d="M7.99864 11.9995C7.99864 11.0695 7.99864 10.6045 8.10087 10.223C8.37827 9.18777 9.18691 8.37913 10.2222 8.10173C10.6037 7.99951 11.0687 7.99951 11.9986 7.99951C12.9286 7.99951 13.3936 7.99951 13.7751 8.10173C14.8104 8.37913 15.619 9.18777 15.8964 10.223C15.9986 10.6045 15.9986 11.0695 15.9986 11.9995C15.9986 12.9295 15.9986 13.3945 15.8964 13.776C15.619 14.8112 14.8104 15.6199 13.7751 15.8973C13.3936 15.9995 12.9286 15.9995 11.9986 15.9995C11.0687 15.9995 10.6037 15.9995 10.2222 15.8973C9.18691 15.6199 8.37827 14.8112 8.10087 13.776C7.99864 13.3945 7.99864 12.9295 7.99864 11.9995Z" stroke="black" stroke-width="1.5"/>
</svg>
