<svg width="24" height="24" viewBox="0 0 24 24" fill="none" xmlns="http://www.w3.org/2000/svg">
<g clip-path="url(#clip0_0_1)">
<path d="M12.347 9.92505C13.0158 10.5938 13.0158 11.6781 12.347 12.3469C11.6783 13.0157 10.5939 13.0157 9.92516 12.3469C9.25637 11.6781 9.25637 10.5938 9.92516 9.92505C10.5939 9.25627 11.6783 9.25627 12.347 9.92505Z" fill="black"/>
<path d="M6.46394 16.4323L6.0934 17.0844L6.0934 17.0844L6.46394 16.4323ZM4.1499 14.9221L3.62348 15.4563L4.1499 14.9221ZM2.78626 9.51627L3.53406 9.57366L2.78626 9.51627ZM2.7445 12.2792L3.48174 12.1414L2.7445 12.2792ZM14.613 18.0297L14.2134 17.395L14.613 18.0297ZM8.34178 17.4994L8.71232 16.8473L8.71232 16.8473L8.34178 17.4994ZM10.5041 18.585L10.2873 19.303L10.5041 18.585ZM17.4998 8.34133L18.1519 7.97079L18.1519 7.97079L17.4998 8.34133ZM18.5855 10.5036L19.3035 10.2868L18.5855 10.5036ZM18.0302 14.6126L17.3955 14.213L17.3955 14.213L18.0302 14.6126ZM9.51673 2.7858L9.57411 3.5336L9.51673 2.7858ZM12.2797 2.74405L12.1419 3.48128L12.2797 2.74405ZM16.4328 6.46349L15.7807 6.83403L15.7807 6.83403L16.4328 6.46349ZM14.9226 4.14945L15.4568 3.62302L14.9226 4.14945ZM5.95664 3.32576L6.25163 4.01532L6.25163 4.01532L5.95664 3.32576ZM3.32622 5.95618L4.01577 6.25117L4.01577 6.25117L3.32622 5.95618ZM12.9182 19.0428L13.4485 18.5125L13.4485 18.5125L12.9182 19.0428ZM5.00723 3.94604C4.71434 3.65315 4.23947 3.65315 3.94657 3.94604C3.65368 4.23893 3.65368 4.71381 3.94658 5.0067L5.00723 3.94604ZM9.3958 10.4559C9.68869 10.7488 10.1636 10.7488 10.4565 10.4559C10.7494 10.163 10.7494 9.68816 10.4565 9.39526L9.3958 10.4559ZM18.7526 12.6272L18.0096 12.5254L18.7526 12.6272ZM12.6275 18.7522L12.5258 18.0091L12.6275 18.7522ZM15.7807 6.83403L16.8478 8.71187L18.1519 7.97079L17.0848 6.09295L15.7807 6.83403ZM8.71232 16.8473L6.83448 15.7802L6.0934 17.0844L7.97124 18.1515L8.71232 16.8473ZM6.83448 15.7802C5.56682 15.0599 5.05733 14.7634 4.67633 14.3879L3.62348 15.4563C4.17847 16.0032 4.89968 16.406 6.0934 17.0844L6.83448 15.7802ZM2.03846 9.45889C1.93341 10.8279 1.86414 11.651 2.00727 12.417L3.48174 12.1414C3.38348 11.6156 3.42251 11.0274 3.53406 9.57366L2.03846 9.45889ZM4.67633 14.3879C4.05807 13.7786 3.64119 12.9947 3.48174 12.1414L2.00727 12.417C2.22299 13.5714 2.787 14.632 3.62348 15.4563L4.67633 14.3879ZM15.8792 15.8788C14.9714 16.7866 14.5998 17.1518 14.2134 17.395L15.0126 18.6644C15.5761 18.3097 16.0855 17.7938 16.9399 16.9394L15.8792 15.8788ZM7.97124 18.1515C9.02174 18.7484 9.64984 19.1105 10.2873 19.303L10.7208 17.867C10.2838 17.7351 9.82856 17.4816 8.71232 16.8473L7.97124 18.1515ZM16.8478 8.71187C17.4821 9.8281 17.7355 10.2834 17.8675 10.7204L19.3035 10.2868C19.111 9.64938 18.7489 9.02128 18.1519 7.97079L16.8478 8.71187ZM16.9399 16.9394C17.7943 16.0851 18.3101 15.5756 18.6649 15.0121L17.3955 14.213C17.1523 14.5993 16.7871 14.9709 15.8792 15.8788L16.9399 16.9394ZM9.57411 3.5336C11.0279 3.42205 11.6161 3.38303 12.1419 3.48128L12.4174 2.00681C11.6515 1.86368 10.8283 1.93296 9.45935 2.038L9.57411 3.5336ZM17.0848 6.09295C16.4065 4.89922 16.0037 4.17801 15.4568 3.62302L14.3884 4.67587C14.7638 5.05687 15.0603 5.56636 15.7807 6.83403L17.0848 6.09295ZM12.1419 3.48128C12.9951 3.64073 13.7791 4.05761 14.3884 4.67587L15.4568 3.62302C14.6325 2.78655 13.5718 2.22253 12.4174 2.00681L12.1419 3.48128ZM9.45935 2.038C7.65053 2.1768 6.56373 2.25031 5.66165 2.63621L6.25163 4.01532C6.86941 3.75103 7.64938 3.6813 9.57411 3.5336L9.45935 2.038ZM3.53406 9.57366C3.68175 7.64892 3.75149 6.86895 4.01577 6.25117L2.63667 5.66119C2.25077 6.56327 2.17726 7.65007 2.03846 9.45889L3.53406 9.57366ZM5.66165 2.63621C4.3018 3.21796 3.21841 4.30134 2.63667 5.66119L4.01577 6.25117C4.44576 5.24606 5.24652 4.4453 6.25163 4.01532L5.66165 2.63621ZM14.6243 19.6883L13.4485 18.5125L12.3879 19.5732L13.5636 20.7489L14.6243 19.6883ZM18.5129 13.4481L19.6887 14.6239L20.7493 13.5632L19.5736 12.3875L18.5129 13.4481ZM19.6887 19.6883C18.2902 21.0868 16.0228 21.0868 14.6243 19.6883L13.5636 20.7489C15.5479 22.7332 18.7651 22.7332 20.7493 20.7489L19.6887 19.6883ZM20.7493 20.7489C22.7336 18.7646 22.7336 15.5475 20.7493 13.5632L19.6887 14.6239C21.0872 16.0224 21.0872 18.2898 19.6887 19.6883L20.7493 20.7489ZM3.94658 5.0067L9.3958 10.4559L10.4565 9.39526L5.00723 3.94604L3.94658 5.0067ZM17.8675 10.7204C18.046 11.3117 18.0915 11.9272 18.0096 12.5254L19.4957 12.7289C19.6065 11.9197 19.545 11.0868 19.3035 10.2868L17.8675 10.7204ZM18.0096 12.5254C17.9283 13.1186 17.7218 13.6946 17.3955 14.213L18.6649 15.0121C19.1064 14.3109 19.3858 13.5314 19.4957 12.7289L18.0096 12.5254ZM19.5736 12.3875L19.283 12.0968L18.2223 13.1575L18.5129 13.4481L19.5736 12.3875ZM14.2134 17.395C13.6951 17.7214 13.119 17.9279 12.5258 18.0091L12.7293 19.4952C13.5318 19.3854 14.3113 19.1059 15.0126 18.6644L14.2134 17.395ZM12.5258 18.0091C11.9276 18.091 11.3121 18.0455 10.7208 17.867L10.2873 19.303C11.0872 19.5445 11.9201 19.6061 12.7293 19.4952L12.5258 18.0091ZM13.4485 18.5125L13.1579 18.2219L12.0972 19.2825L12.3879 19.5732L13.4485 18.5125Z" fill="black"/>
</g>
<defs>
<clipPath id="clip0_0_1">
<rect width="24" height="24" fill="black" transform="translate(-0.000244141 -0.000183105)"/>
</clipPath>
</defs>
</svg>
