<svg width="24" height="24" viewBox="0 0 24 24" fill="none" xmlns="http://www.w3.org/2000/svg">
<path d="M3.68085 10.8577L4.05585 10.2081L4.05585 10.2081L3.68085 10.8577ZM3.49012 10.742L3.05326 11.3516L3.05326 11.3516L3.49012 10.742ZM3.26907 9.32089L3.91859 9.69589L3.26907 9.32089ZM3.16174 9.51644L2.47859 9.20691L2.47859 9.20691L3.16174 9.51644ZM18.8575 18.3209L19.507 18.6959L18.8575 18.3209ZM18.7418 18.5116L19.3515 18.9485L19.3515 18.9485L18.7418 18.5116ZM17.3207 18.7327L17.6957 18.0831L17.6957 18.0831L17.3207 18.7327ZM17.5163 18.84L17.2068 19.5232L17.2068 19.5232L17.5163 18.84ZM15.9751 7.56344L15.6001 8.21296L15.6001 8.21296L15.9751 7.56344ZM17.3102 8.37319L17.747 7.76356L17.3102 8.37319ZM19.6089 16.9521L20.292 17.2616L20.292 17.2616L19.6089 16.9521ZM14.0265 6.43844L14.4015 5.78892L14.4015 5.78892L14.0265 6.43844ZM12.6577 5.68707L12.9672 5.00392L12.9672 5.00392L12.6577 5.68707ZM4.07882 7.98577L4.68846 8.42263L4.07882 7.98577ZM17.5001 2.67071L17.1251 3.32023L17.1251 3.32023L17.5001 2.67071ZM19.3302 9.50083L19.9797 9.87583L19.9797 9.87583L19.3302 9.50083ZM10.67 4.50083L11.3195 4.87583L11.3195 4.87583L10.67 4.50083ZM19.0244 10.0305L19.603 10.5077L19.6427 10.4596L19.6739 10.4055L19.0244 10.0305ZM10.5008 14.7952L10.8758 14.1456L10.8758 14.1456L10.5008 14.7952ZM5.85128 21.3484C5.64418 21.7071 5.76708 22.1658 6.1258 22.3729C6.48452 22.58 6.94321 22.4571 7.15032 22.0984L5.85128 21.3484ZM10.3327 5.08505L10.2724 5.83263L10.3327 5.08505ZM10.4698 14.7773L10.0948 15.4268L10.0948 15.4268L10.4698 14.7773ZM13.6515 7.08796L15.6001 8.21296L16.3501 6.91392L14.4015 5.78892L13.6515 7.08796ZM4.05585 10.2081C4.00339 10.1779 3.97217 10.1598 3.94883 10.1458C3.92669 10.1325 3.92349 10.1299 3.92698 10.1324L3.05326 11.3516C3.13069 11.4071 3.22077 11.4581 3.30585 11.5072L4.05585 10.2081ZM2.61955 8.94589C2.57044 9.03097 2.5179 9.12014 2.47859 9.20691L3.84488 9.82597C3.84311 9.82988 3.84456 9.82599 3.85709 9.8034C3.87029 9.77959 3.8883 9.74835 3.91859 9.69589L2.61955 8.94589ZM3.92698 10.1324C3.83003 10.0629 3.79566 9.9346 3.84488 9.82597L2.47859 9.20691C2.13403 9.96737 2.37463 10.8653 3.05326 11.3516L3.92698 10.1324ZM18.208 17.9459C18.1777 17.9984 18.1597 18.0296 18.1457 18.0529C18.1324 18.075 18.1297 18.0783 18.1322 18.0748L19.3515 18.9485C19.407 18.871 19.4579 18.781 19.507 18.6959L18.208 17.9459ZM16.9457 19.3822C17.0308 19.4313 17.12 19.4838 17.2068 19.5232L17.8258 18.1569C17.8297 18.1586 17.8259 18.1572 17.8033 18.1447C17.7795 18.1314 17.7482 18.1134 17.6957 18.0831L16.9457 19.3822ZM18.1322 18.0748C18.0627 18.1717 17.9345 18.2061 17.8258 18.1569L17.2068 19.5232C17.9672 19.8677 18.8652 19.6271 19.3515 18.9485L18.1322 18.0748ZM15.6001 8.21296C16.3193 8.62818 16.6313 8.80939 16.8733 8.98283L17.747 7.76356C17.43 7.53638 17.0383 7.31129 16.3501 6.91392L15.6001 8.21296ZM19.507 18.6959C19.9044 18.0076 20.1311 17.6168 20.292 17.2616L18.9257 16.6425C18.8029 16.9137 18.6232 17.2267 18.208 17.9459L19.507 18.6959ZM14.4015 5.78892C13.7132 5.39155 13.3225 5.16489 12.9672 5.00392L12.3482 6.37022C12.6194 6.49311 12.9323 6.67274 13.6515 7.08796L14.4015 5.78892ZM3.91859 9.69589C4.33381 8.97671 4.51502 8.66466 4.68846 8.42263L3.46919 7.54892C3.24201 7.86594 3.01693 8.25762 2.61955 8.94589L3.91859 9.69589ZM17.1251 3.32023C19.1578 4.49383 19.8543 7.09309 18.6807 9.12583L19.9797 9.87583C21.5675 7.12565 20.6253 3.60901 17.8751 2.02119L17.1251 3.32023ZM11.3195 4.87583C12.4931 2.84309 15.0923 2.14662 17.1251 3.32023L17.8751 2.02119C15.1249 0.433371 11.6083 1.37565 10.0204 4.12583L11.3195 4.87583ZM18.6807 9.12583L18.3749 9.65551L19.6739 10.4055L19.9797 9.87583L18.6807 9.12583ZM9.85128 14.4202L5.85128 21.3484L7.15032 22.0984L11.1503 15.1702L9.85128 14.4202ZM10.9822 5.46005L11.3195 4.87583L10.0204 4.12583L9.68314 4.71005L10.9822 5.46005ZM12.9672 5.00392C12.1348 4.62676 11.2643 4.4077 10.3929 4.33747L10.2724 5.83263C10.9741 5.88918 11.6757 6.06553 12.3482 6.37022L12.9672 5.00392ZM10.3929 4.33747C7.74425 4.124 5.09041 5.28651 3.46919 7.54892L4.68846 8.42263C5.99529 6.59895 8.135 5.66036 10.2724 5.83263L10.3929 4.33747ZM16.8733 8.98283C17.4703 9.41064 17.9718 9.92696 18.3706 10.5027L19.6037 9.64863C19.1084 8.93362 18.4861 8.29312 17.747 7.76356L16.8733 8.98283ZM18.3706 10.5027C19.5938 12.2687 19.8533 14.5955 18.9257 16.6425L20.292 17.2616C21.4427 14.7221 21.1195 11.8371 19.6037 9.64863L18.3706 10.5027ZM18.4458 9.55329L18.4086 9.59846L19.5657 10.5529L19.603 10.5077L18.4458 9.55329ZM17.6957 18.0831L10.8758 14.1456L10.1258 15.4447L16.9457 19.3822L17.6957 18.0831ZM10.8758 14.1456L10.8448 14.1277L10.0948 15.4268L10.1258 15.4447L10.8758 14.1456ZM10.8448 14.1277L4.05585 10.2081L3.30585 11.5072L10.0948 15.4268L10.8448 14.1277Z" fill="black"/>
</svg>
