<svg width="24" height="24" viewBox="0 0 24 24" fill="none" xmlns="http://www.w3.org/2000/svg">
<path d="M13.4213 9.27878C14.8722 10.1717 15.5976 10.6181 15.841 11.201C16.0534 11.7094 16.0534 12.2899 15.841 12.7983C15.5976 13.3812 14.8722 13.8276 13.4213 14.7205C11.9705 15.6134 11.2451 16.0598 10.6498 15.9931C10.1306 15.9349 9.65896 15.6447 9.3521 15.1944C9.00029 14.6783 9.00029 13.7854 9.00029 11.9996C9.00029 10.2139 9.00029 9.32098 9.3521 8.80482C9.65896 8.3546 10.1306 8.06432 10.6498 8.00615C11.2451 7.93946 11.9705 8.3859 13.4213 9.27878Z" stroke="black" stroke-width="1.5"/>
<path d="M3.00029 11.9996C3.00029 8.2499 3.00029 6.37503 3.9552 5.06071C4.2636 4.63623 4.63689 4.26295 5.06136 3.95455C6.37569 2.99963 8.25056 2.99963 12.0003 2.99963C15.75 2.99963 17.6249 2.99963 18.9392 3.95455C19.3637 4.26295 19.737 4.63623 20.0454 5.06071C21.0003 6.37503 21.0003 8.2499 21.0003 11.9996C21.0003 15.7494 21.0003 17.6242 20.0454 18.9386C19.737 19.363 19.3637 19.7363 18.9392 20.0447C17.6249 20.9996 15.75 20.9996 12.0003 20.9996C8.25056 20.9996 6.37569 20.9996 5.06136 20.0447C4.63689 19.7363 4.2636 19.363 3.9552 18.9386C3.00029 17.6242 3.00029 15.7494 3.00029 11.9996Z" stroke="black" stroke-width="1.5"/>
</svg>
