<svg width="24" height="24" viewBox="0 0 24 24" fill="none" xmlns="http://www.w3.org/2000/svg">
<path d="M9.35178 8.80482L9.97151 9.22722L9.35178 8.80482ZM13.421 9.27878L13.8141 8.64005L13.8141 8.64005L13.421 9.27878ZM10.6495 8.00615L10.566 7.26081L10.6495 8.00615ZM10.6495 15.9931L10.566 16.7384L10.6495 15.9931ZM9.35178 15.1944L8.73204 15.6168L8.73204 15.6168L9.35178 15.1944ZM15.8407 12.7983L15.1486 12.5092L15.1486 12.5092L15.8407 12.7983ZM15.8407 11.201L15.1486 11.49L15.8407 11.201ZM21.25 11.9996C21.25 17.1083 17.1086 21.2496 12 21.2496V22.7496C17.937 22.7496 22.75 17.9367 22.75 11.9996H21.25ZM12 21.2496C6.89133 21.2496 2.74997 17.1083 2.74997 11.9996H1.24997C1.24997 17.9367 6.06291 22.7496 12 22.7496V21.2496ZM2.74997 11.9996C2.74997 6.891 6.89133 2.74963 12 2.74963V1.24963C6.06291 1.24963 1.24997 6.06257 1.24997 11.9996H2.74997ZM12 2.74963C17.1086 2.74963 21.25 6.891 21.25 11.9996H22.75C22.75 6.06257 17.937 1.24963 12 1.24963V2.74963ZM9.74997 11.9996C9.74997 11.0929 9.75063 10.4616 9.79118 9.99043C9.83224 9.51338 9.90743 9.32124 9.97151 9.22722L8.73204 8.38241C8.44431 8.80456 8.3436 9.31694 8.29671 9.86181C8.2493 10.4126 8.24997 11.1206 8.24997 11.9996L9.74997 11.9996ZM13.8141 8.64005C13.1018 8.2017 12.522 7.84392 12.0453 7.60956C11.5738 7.37775 11.0828 7.20292 10.566 7.26081L10.733 8.75149C10.8115 8.74269 10.9809 8.75773 11.3836 8.95569C11.781 9.1511 12.2894 9.46298 13.0279 9.91751L13.8141 8.64005ZM9.97151 9.22722C10.1613 8.94881 10.4415 8.78415 10.733 8.75149L10.566 7.26081C9.81911 7.34449 9.156 7.76039 8.73204 8.38241L9.97151 9.22722ZM13.0279 14.0817C12.2894 14.5363 11.781 14.8482 11.3836 15.0436C10.9809 15.2415 10.8115 15.2566 10.733 15.2478L10.566 16.7384C11.0828 16.7963 11.5738 16.6215 12.0453 16.3897C12.522 16.1553 13.1018 15.7976 13.8141 15.3592L13.0279 14.0817ZM8.24997 11.9996C8.24997 12.8786 8.2493 13.5867 8.29671 14.1374C8.3436 14.6823 8.44431 15.1947 8.73204 15.6168L9.97151 14.772C9.90743 14.678 9.83224 14.4859 9.79118 14.0088C9.75063 13.5377 9.74997 12.9064 9.74997 11.9996L8.24997 11.9996ZM10.733 15.2478C10.4415 15.2151 10.1613 15.0505 9.97151 14.772L8.73204 15.6168C9.156 16.2389 9.81911 16.6548 10.566 16.7384L10.733 15.2478ZM13.8141 15.3592C14.5267 14.9206 15.1068 14.5646 15.5348 14.2422C15.9627 13.92 16.3336 13.5641 16.5328 13.0874L15.1486 12.5092C15.1043 12.6153 14.9908 12.7741 14.6324 13.044C14.2742 13.3139 13.7661 13.6274 13.0279 14.0817L13.8141 15.3592ZM13.0279 9.91751C13.7661 10.3718 14.2742 10.6854 14.6324 10.9552C14.9908 11.2252 15.1043 11.3839 15.1486 11.49L16.5328 10.9119C16.3336 10.4352 15.9627 10.0793 15.5348 9.75703C15.1068 9.4347 14.5267 9.07861 13.8141 8.64005L13.0279 9.91751ZM16.5328 13.0874C16.8224 12.394 16.8224 11.6053 16.5328 10.9119L15.1486 11.49C15.2837 11.8134 15.2837 12.1858 15.1486 12.5092L16.5328 13.0874Z" fill="black"/>
</svg>
