<svg width="24" height="24" viewBox="0 0 24 24" fill="none" xmlns="http://www.w3.org/2000/svg">
<path d="M7.23543 3.74945C9.44144 2.47581 10.5444 1.83899 11.7506 1.7791C11.9158 1.7709 12.0813 1.7709 12.2465 1.7791C13.4527 1.83899 14.5557 2.47581 16.7617 3.74945C18.9677 5.02309 20.0707 5.65991 20.7257 6.67455C20.8154 6.81351 20.8981 6.95683 20.9736 7.10399C21.5248 8.17852 21.5248 9.45216 21.5248 11.9994C21.5248 14.5467 21.5248 15.8204 20.9736 16.8949C20.8981 17.0421 20.8154 17.1854 20.7257 17.3243C20.0707 18.339 18.9677 18.9758 16.7617 20.2494C14.5557 21.5231 13.4527 22.1599 12.2465 22.2198C12.0813 22.228 11.9158 22.228 11.7506 22.2198C10.5444 22.1599 9.44144 21.5231 7.23543 20.2494C5.02942 18.9758 3.92641 18.339 3.27146 17.3243C3.18176 17.1854 3.09901 17.0421 3.02352 16.8949C2.47229 15.8204 2.47229 14.5467 2.47229 11.9994C2.47229 9.45216 2.47229 8.17852 3.02352 7.10399C3.09901 6.95683 3.18176 6.81351 3.27146 6.67455C3.92641 5.65991 5.02942 5.02309 7.23543 3.74945Z" stroke="black" stroke-width="1.5"/>
<path d="M13.4196 9.2786C14.8704 10.1715 15.5959 10.6179 15.8393 11.2008C16.0517 11.7092 16.0517 12.2897 15.8393 12.7981C15.5959 13.381 14.8704 13.8274 13.4196 14.7203C11.9688 15.6132 11.2434 16.0596 10.6481 15.9929C10.1289 15.9348 9.65724 15.6445 9.35038 15.1943C8.99857 14.6781 8.99857 13.7852 8.99857 11.9994C8.99857 10.2137 8.99857 9.32079 9.35038 8.80463C9.65724 8.35441 10.1289 8.06413 10.6481 8.00596C11.2434 7.93927 11.9688 8.38571 13.4196 9.2786Z" stroke="black" stroke-width="1.5"/>
</svg>
