<svg width="24" height="24" viewBox="0 0 24 24" fill="none" xmlns="http://www.w3.org/2000/svg">
<path d="M9.99972 8.9993C9.99972 9.55158 9.55201 9.9993 8.99972 9.9993C8.44744 9.9993 7.99973 9.55158 7.99973 8.9993C7.99973 8.44701 8.44744 7.9993 8.99972 7.9993C9.55201 7.9993 9.99972 8.44701 9.99972 8.9993Z" fill="black"/>
<path d="M15.9997 8.9993C15.9997 9.55158 15.552 9.9993 14.9997 9.9993C14.4474 9.9993 13.9997 9.55158 13.9997 8.9993C13.9997 8.44701 14.4474 7.9993 14.9997 7.9993C15.552 7.9993 15.9997 8.44701 15.9997 8.9993Z" fill="black"/>
<path d="M8.00012 15.9993H16.0001M22.0001 11.9993C22.0001 17.5222 17.523 21.9993 12.0001 21.9993C6.47727 21.9993 2.00012 17.5222 2.00012 11.9993C2.00012 6.47648 6.47727 1.99933 12.0001 1.99933C17.523 1.99933 22.0001 6.47648 22.0001 11.9993Z" stroke="black" stroke-width="1.5" stroke-linecap="round"/>
</svg>
