<svg width="24" height="24" viewBox="0 0 24 24" fill="none" xmlns="http://www.w3.org/2000/svg">
<path d="M17.447 16.7921L16.8366 16.3563L16.8366 16.3563L17.447 16.7921ZM11.0525 16.0811L10.6726 16.7278L10.6726 16.7278L11.0525 16.0811ZM15.4077 17.9901L15.4874 18.7358L15.4077 17.9901ZM15.4077 6.00966L15.4874 5.26391L15.4077 6.00966ZM17.447 7.20766L18.0574 6.77183L17.447 7.20766ZM7.2501 10.8019L7.9372 11.1025L7.2501 10.8019ZM7.2501 13.1979L6.563 13.4985L7.2501 13.1979ZM5.74983 5.99988C5.74983 5.58567 5.41405 5.24988 4.99983 5.24988C4.58562 5.24988 4.24983 5.58567 4.24983 5.99988L5.74983 5.99988ZM4.24983 17.9999C4.24983 18.4141 4.58562 18.7499 4.99983 18.7499C5.41405 18.7499 5.74983 18.4141 5.74983 17.9999L4.24983 17.9999ZM17.2498 11.9999C17.2498 13.3537 17.2491 14.318 17.1838 15.0428C17.118 15.772 16.9942 16.1355 16.8366 16.3563L18.0574 17.2279C18.4526 16.6744 18.6052 15.9811 18.6777 15.1775C18.7506 14.3694 18.7498 13.3247 18.7498 11.9999L17.2498 11.9999ZM10.6726 16.7278C11.7996 17.3899 12.6898 17.9137 13.4156 18.2543C14.1375 18.5931 14.8106 18.8082 15.4874 18.7358L15.3279 17.2443C15.0693 17.272 14.7048 17.2023 14.0528 16.8964C13.4049 16.5924 12.5852 16.1117 11.4324 15.4345L10.6726 16.7278ZM16.8366 16.3563C16.4773 16.8595 15.9281 17.1802 15.3279 17.2443L15.4874 18.7358C16.5191 18.6255 17.4523 18.0753 18.0574 17.2279L16.8366 16.3563ZM11.4324 8.56528C12.5852 7.88804 13.4049 7.40739 14.0528 7.10333C14.7048 6.79742 15.0693 6.72775 15.3279 6.7554L15.4874 5.26391C14.8106 5.19153 14.1375 5.40667 13.4156 5.74541C12.6898 6.08601 11.7996 6.60985 10.6726 7.27193L11.4324 8.56528ZM18.7498 11.9999C18.7498 10.6751 18.7506 9.63039 18.6777 8.82227C18.6052 8.01863 18.4526 7.32533 18.0574 6.77183L16.8366 7.64349C16.9942 7.86423 17.118 8.22772 17.1838 8.95697C17.2491 9.68173 17.2498 10.646 17.2498 11.9999L18.7498 11.9999ZM15.3279 6.7554C15.9281 6.81959 16.4773 7.14025 16.8366 7.64349L18.0574 6.77183C17.4523 5.92441 16.5191 5.37424 15.4874 5.26391L15.3279 6.7554ZM10.6726 7.27193C9.54545 7.93407 8.65461 8.45651 8.00201 8.92566C7.35173 9.39313 6.83649 9.87618 6.563 10.5012L7.9372 11.1025C8.04626 10.8533 8.29227 10.5644 8.87757 10.1436C9.46054 9.72451 10.2796 9.24246 11.4324 8.56528L10.6726 7.27193ZM11.4324 15.4345C10.2796 14.7573 9.46054 14.2752 8.87757 13.8561C8.29227 13.4354 8.04625 13.1465 7.9372 12.8972L6.563 13.4985C6.83649 14.1236 7.35173 14.6066 8.00201 15.0741C8.65461 15.5432 9.54545 16.0657 10.6726 16.7278L11.4324 15.4345ZM6.563 10.5012C6.14545 11.4555 6.14545 12.5443 6.563 13.4985L7.9372 12.8972C7.68738 12.3263 7.68738 11.6734 7.9372 11.1025L6.563 10.5012ZM4.24983 5.99988L4.24983 17.9999L5.74983 17.9999L5.74983 5.99988L4.24983 5.99988Z" fill="black"/>
</svg>
