<svg width="24" height="24" viewBox="0 0 24 24" fill="none" xmlns="http://www.w3.org/2000/svg">
<path d="M12.9996 13.7492C13.4138 13.7492 13.7496 13.4134 13.7496 12.9992C13.7496 12.585 13.4138 12.2492 12.9996 12.2492V13.7492ZM12.9996 21.7492C13.4138 21.7492 13.7496 21.4134 13.7496 20.9992C13.7496 20.585 13.4138 20.2492 12.9996 20.2492V21.7492ZM22.5584 13.4995C22.8346 13.1909 22.8085 12.7167 22.4998 12.4404C22.1912 12.1641 21.7171 12.1903 21.4408 12.4989L22.5584 13.4995ZM18.6304 16.7624L18.0716 16.2621L18.0716 16.2621L18.6304 16.7624ZM12.8688 16.7624L13.4275 16.2621L13.4275 16.2621L12.8688 16.7624ZM12.5584 15.2913C12.2821 14.9827 11.8079 14.9565 11.4993 15.2328C11.1907 15.5091 11.1645 15.9832 11.4408 16.2918L12.5584 15.2913ZM13.2496 5.9992C13.2496 7.79413 11.7945 9.2492 9.99958 9.2492V10.7492C12.6229 10.7492 14.7496 8.62256 14.7496 5.9992H13.2496ZM9.99958 9.2492C8.20466 9.2492 6.74959 7.79413 6.74959 5.9992H5.24959C5.24959 8.62256 7.37623 10.7492 9.99958 10.7492V9.2492ZM6.74959 5.9992C6.74959 4.20428 8.20466 2.74921 9.99958 2.74921V1.24921C7.37623 1.24921 5.24959 3.37585 5.24959 5.9992H6.74959ZM9.99958 2.74921C11.7945 2.74921 13.2496 4.20428 13.2496 5.9992H14.7496C14.7496 3.37585 12.6229 1.24921 9.99958 1.24921V2.74921ZM6.99959 13.7492H12.9996V12.2492H6.99959V13.7492ZM12.9996 20.2492H6.99959V21.7492H12.9996V20.2492ZM6.99959 20.2492C5.20466 20.2492 3.74959 18.7941 3.74959 16.9992H2.24959C2.24959 19.6226 4.37623 21.7492 6.99959 21.7492V20.2492ZM6.99959 12.2492C4.37623 12.2492 2.24959 14.3758 2.24959 16.9992H3.74959C3.74959 15.2043 5.20466 13.7492 6.99959 13.7492V12.2492ZM21.4408 12.4989L18.0716 16.2621L19.1892 17.2626L22.5584 13.4995L21.4408 12.4989ZM13.4275 16.2621L12.5584 15.2913L11.4408 16.2918L12.31 17.2626L13.4275 16.2621ZM18.0716 16.2621C17.3889 17.0246 16.9292 17.5355 16.5361 17.8659C16.1616 18.1806 15.9417 18.2492 15.7496 18.2492V19.7492C16.4357 19.7492 16.9886 19.445 17.5012 19.0141C17.9952 18.5989 18.5368 17.9913 19.1892 17.2626L18.0716 16.2621ZM12.31 17.2626C12.9624 17.9913 13.5039 18.5989 13.9979 19.0141C14.5106 19.445 15.0635 19.7492 15.7496 19.7492V18.2492C15.5575 18.2492 15.3375 18.1806 14.9631 17.8659C14.57 17.5355 14.1102 17.0246 13.4275 16.2621L12.31 17.2626Z" fill="black"/>
</svg>
