<svg width="24" height="24" viewBox="0 0 24 24" fill="none" xmlns="http://www.w3.org/2000/svg">
<path d="M15.25 5.9992C15.25 7.79413 13.7949 9.2492 12 9.2492V10.7492C14.6233 10.7492 16.75 8.62256 16.75 5.9992H15.25ZM12 9.2492C10.2051 9.2492 8.75 7.79413 8.75 5.9992H7.25C7.25 8.62256 9.37665 10.7492 12 10.7492V9.2492ZM8.75 5.9992C8.75 4.20428 10.2051 2.74921 12 2.74921V1.24921C9.37665 1.24921 7.25 3.37585 7.25 5.9992H8.75ZM12 2.74921C13.7949 2.74921 15.25 4.20428 15.25 5.9992H16.75C16.75 3.37585 14.6233 1.24921 12 1.24921V2.74921ZM9 13.7492H15V12.2492H9V13.7492ZM15 20.2492H9V21.7492H15V20.2492ZM9 20.2492C7.20507 20.2492 5.75 18.7941 5.75 16.9992H4.25C4.25 19.6226 6.37665 21.7492 9 21.7492V20.2492ZM18.25 16.9992C18.25 18.7941 16.7949 20.2492 15 20.2492V21.7492C17.6233 21.7492 19.75 19.6226 19.75 16.9992H18.25ZM15 13.7492C16.7949 13.7492 18.25 15.2043 18.25 16.9992H19.75C19.75 14.3758 17.6233 12.2492 15 12.2492V13.7492ZM9 12.2492C6.37665 12.2492 4.25 14.3758 4.25 16.9992H5.75C5.75 15.2043 7.20507 13.7492 9 13.7492V12.2492Z" fill="black"/>
</svg>
