<svg width="24" height="24" viewBox="0 0 24 24" fill="none" xmlns="http://www.w3.org/2000/svg">
<path d="M15.25 8.99908C15.25 10.794 13.795 12.2491 12 12.2491V13.7491C14.6234 13.7491 16.75 11.6224 16.75 8.99908H15.25ZM12 12.2491C10.2051 12.2491 8.75003 10.794 8.75003 8.99908H7.25003C7.25003 11.6224 9.37667 13.7491 12 13.7491V12.2491ZM8.75003 8.99908C8.75003 7.20416 10.2051 5.74908 12 5.74908V4.24908C9.37667 4.24908 7.25003 6.37573 7.25003 8.99908H8.75003ZM12 5.74908C13.795 5.74908 15.25 7.20416 15.25 8.99908H16.75C16.75 6.37573 14.6234 4.24908 12 4.24908V5.74908ZM9.00003 16.7491H15V15.2491H9.00003V16.7491ZM2.75003 11.9991C2.75003 6.89045 6.89139 2.74908 12 2.74908V1.24908C6.06297 1.24908 1.25003 6.06202 1.25003 11.9991H2.75003ZM12 2.74908C17.1087 2.74908 21.25 6.89045 21.25 11.9991H22.75C22.75 6.06202 17.9371 1.24908 12 1.24908V2.74908ZM21.25 11.9991C21.25 14.6224 20.159 16.9896 18.4039 18.6739L19.4425 19.7561C21.4801 17.8007 22.75 15.0475 22.75 11.9991H21.25ZM18.4039 18.6739C16.7412 20.2696 14.4858 21.2491 12 21.2491V22.7491C14.8882 22.7491 17.5117 21.6091 19.4425 19.7561L18.4039 18.6739ZM15 16.7491C16.5761 16.7491 17.8916 17.8717 18.1876 19.3612L19.6588 19.0688C19.226 16.8909 17.3056 15.2491 15 15.2491V16.7491ZM12 21.2491C9.51427 21.2491 7.25887 20.2696 5.59615 18.6739L4.55753 19.7561C6.48835 21.6091 9.11185 22.7491 12 22.7491V21.2491ZM5.59615 18.6739C3.84106 16.9896 2.75003 14.6224 2.75003 11.9991H1.25003C1.25003 15.0475 2.51992 17.8007 4.55753 19.7561L5.59615 18.6739ZM9.00003 15.2491C6.69448 15.2491 4.77406 16.8909 4.34123 19.0688L5.81246 19.3612C6.10849 17.8717 7.42399 16.7491 9.00003 16.7491V15.2491Z" fill="black"/>
</svg>
