<svg width="24" height="24" viewBox="0 0 24 24" fill="none" xmlns="http://www.w3.org/2000/svg">
<path d="M16.6518 14.5902C16.3589 14.2973 15.884 14.2973 15.5911 14.5902C15.2982 14.8831 15.2982 15.358 15.5911 15.6509L16.6518 14.5902ZM19.8337 19.8935C20.1266 20.1864 20.6015 20.1864 20.8944 19.8935C21.1873 19.6006 21.1873 19.1257 20.8944 18.8328L19.8337 19.8935ZM15.5911 18.8328C15.2982 19.1257 15.2982 19.6006 15.5911 19.8935C15.884 20.1864 16.3589 20.1864 16.6518 19.8935L15.5911 18.8328ZM20.8944 15.6509C21.1873 15.358 21.1873 14.8831 20.8944 14.5902C20.6015 14.2973 20.1266 14.2973 19.8337 14.5902L20.8944 15.6509ZM14.0001 13.7492C14.4143 13.7492 14.7501 13.4134 14.7501 12.9992C14.7501 12.585 14.4143 12.2492 14.0001 12.2492V13.7492ZM14.0001 21.7492C14.4143 21.7492 14.7501 21.4134 14.7501 20.9992C14.7501 20.585 14.4143 20.2492 14.0001 20.2492V21.7492ZM14.2501 5.9992C14.2501 7.79413 12.795 9.2492 11.0001 9.2492V10.7492C13.6234 10.7492 15.7501 8.62256 15.7501 5.9992H14.2501ZM11.0001 9.2492C9.20516 9.2492 7.75008 7.79413 7.75008 5.9992H6.25008C6.25008 8.62256 8.37673 10.7492 11.0001 10.7492V9.2492ZM7.75008 5.9992C7.75008 4.20428 9.20516 2.74921 11.0001 2.74921V1.24921C8.37673 1.24921 6.25008 3.37585 6.25008 5.9992H7.75008ZM11.0001 2.74921C12.795 2.74921 14.2501 4.20428 14.2501 5.9992H15.7501C15.7501 3.37585 13.6234 1.24921 11.0001 1.24921V2.74921ZM15.5911 15.6509L19.8337 19.8935L20.8944 18.8328L16.6518 14.5902L15.5911 15.6509ZM16.6518 19.8935L20.8944 15.6509L19.8337 14.5902L15.5911 18.8328L16.6518 19.8935ZM8.00008 13.7492H14.0001V12.2492H8.00008V13.7492ZM14.0001 20.2492H8.00008V21.7492H14.0001V20.2492ZM8.00008 20.2492C6.20516 20.2492 4.75008 18.7941 4.75008 16.9992H3.25008C3.25008 19.6226 5.37673 21.7492 8.00008 21.7492V20.2492ZM8.00008 12.2492C5.37673 12.2492 3.25008 14.3758 3.25008 16.9992H4.75008C4.75008 15.2043 6.20516 13.7492 8.00008 13.7492V12.2492Z" fill="black"/>
</svg>
