<svg width="24" height="24" viewBox="0 0 24 24" fill="none" xmlns="http://www.w3.org/2000/svg">
<path d="M16.0001 11.249C15.5859 11.249 15.2501 11.5848 15.2501 11.999C15.2501 12.4132 15.5859 12.749 16.0001 12.749V11.249ZM22.0001 12.749C22.4143 12.749 22.7501 12.4132 22.7501 11.999C22.7501 11.5848 22.4143 11.249 22.0001 11.249V12.749ZM12.2501 6.99902C12.2501 8.79395 10.795 10.249 9.00012 10.249V11.749C11.6235 11.749 13.7501 9.62237 13.7501 6.99902H12.2501ZM9.00012 10.249C7.20519 10.249 5.75012 8.79395 5.75012 6.99902H4.25012C4.25012 9.62237 6.37677 11.749 9.00012 11.749V10.249ZM5.75012 6.99902C5.75012 5.2041 7.20519 3.74902 9.00012 3.74902V2.24902C6.37677 2.24902 4.25012 4.37567 4.25012 6.99902H5.75012ZM9.00012 3.74902C10.795 3.74902 12.2501 5.2041 12.2501 6.99902H13.7501C13.7501 4.37567 11.6235 2.24902 9.00012 2.24902V3.74902ZM6.00012 14.749H12.0001V13.249H6.00012V14.749ZM12.0001 21.249H6.00012V22.749H12.0001V21.249ZM6.00012 21.249C4.2052 21.249 2.75012 19.7939 2.75012 17.999H1.25012C1.25012 20.6224 3.37677 22.749 6.00012 22.749V21.249ZM15.2501 17.999C15.2501 19.7939 13.795 21.249 12.0001 21.249V22.749C14.6235 22.749 16.7501 20.6224 16.7501 17.999H15.2501ZM12.0001 14.749C13.795 14.749 15.2501 16.2041 15.2501 17.999H16.7501C16.7501 15.3757 14.6235 13.249 12.0001 13.249V14.749ZM6.00012 13.249C3.37677 13.249 1.25012 15.3757 1.25012 17.999H2.75012C2.75012 16.2041 4.2052 14.749 6.00012 14.749V13.249ZM16.0001 12.749H22.0001V11.249H16.0001V12.749Z" fill="black"/>
</svg>
