<svg width="24" height="24" viewBox="0 0 24 24" fill="none" xmlns="http://www.w3.org/2000/svg">
<path d="M13.9999 13.7492C14.4141 13.7492 14.7499 13.4134 14.7499 12.9992C14.7499 12.585 14.4141 12.2492 13.9999 12.2492V13.7492ZM13.9999 21.7492C14.4141 21.7492 14.7499 21.4134 14.7499 20.9992C14.7499 20.585 14.4141 20.2492 13.9999 20.2492V21.7492ZM14.9999 16.2492C14.5857 16.2492 14.2499 16.585 14.2499 16.9992C14.2499 17.4134 14.5857 17.7492 14.9999 17.7492V16.2492ZM20.9999 17.7492C21.4141 17.7492 21.7499 17.4134 21.7499 16.9992C21.7499 16.585 21.4141 16.2492 20.9999 16.2492V17.7492ZM17.2499 19.9992C17.2499 20.4134 17.5857 20.7492 17.9999 20.7492C18.4141 20.7492 18.7499 20.4134 18.7499 19.9992H17.2499ZM18.7499 13.9992C18.7499 13.585 18.4141 13.2492 17.9999 13.2492C17.5857 13.2492 17.2499 13.585 17.2499 13.9992H18.7499ZM14.2499 5.9992C14.2499 7.79413 12.7948 9.2492 10.9999 9.2492V10.7492C13.6232 10.7492 15.7499 8.62256 15.7499 5.9992H14.2499ZM10.9999 9.2492C9.20495 9.2492 7.74988 7.79413 7.74988 5.9992H6.24988C6.24988 8.62256 8.37652 10.7492 10.9999 10.7492V9.2492ZM7.74988 5.9992C7.74988 4.20428 9.20495 2.74921 10.9999 2.74921V1.24921C8.37652 1.24921 6.24988 3.37585 6.24988 5.9992H7.74988ZM10.9999 2.74921C12.7948 2.74921 14.2499 4.20428 14.2499 5.9992H15.7499C15.7499 3.37585 13.6232 1.24921 10.9999 1.24921V2.74921ZM7.99988 13.7492H13.9999V12.2492H7.99988V13.7492ZM13.9999 20.2492H7.99988V21.7492H13.9999V20.2492ZM7.99988 20.2492C6.20495 20.2492 4.74988 18.7941 4.74988 16.9992H3.24988C3.24988 19.6226 5.37652 21.7492 7.99988 21.7492V20.2492ZM7.99988 12.2492C5.37652 12.2492 3.24988 14.3758 3.24988 16.9992H4.74988C4.74988 15.2043 6.20495 13.7492 7.99988 13.7492V12.2492ZM14.9999 17.7492H20.9999V16.2492H14.9999V17.7492ZM18.7499 19.9992V13.9992H17.2499V19.9992H18.7499Z" fill="black"/>
</svg>
