<svg width="24" height="24" viewBox="0 0 24 24" fill="none" xmlns="http://www.w3.org/2000/svg">
<path d="M16 10.2492C15.5857 10.2492 15.25 10.585 15.25 10.9992C15.25 11.4134 15.5857 11.7492 16 11.7492V10.2492ZM22 11.7492C22.4142 11.7492 22.75 11.4134 22.75 10.9992C22.75 10.585 22.4142 10.2492 22 10.2492V11.7492ZM18.25 13.9992C18.25 14.4134 18.5857 14.7492 19 14.7492C19.4142 14.7492 19.75 14.4134 19.75 13.9992H18.25ZM19.75 7.9992C19.75 7.58499 19.4142 7.2492 19 7.2492C18.5857 7.2492 18.25 7.58499 18.25 7.9992H19.75ZM12.25 5.9992C12.25 7.79413 10.7949 9.2492 8.99997 9.2492V10.7492C11.6233 10.7492 13.75 8.62256 13.75 5.9992H12.25ZM8.99997 9.2492C7.20504 9.2492 5.74997 7.79413 5.74997 5.9992H4.24997C4.24997 8.62256 6.37661 10.7492 8.99997 10.7492V9.2492ZM5.74997 5.9992C5.74997 4.20428 7.20504 2.74921 8.99997 2.74921V1.24921C6.37661 1.24921 4.24997 3.37585 4.24997 5.9992H5.74997ZM8.99997 2.74921C10.7949 2.74921 12.25 4.20428 12.25 5.9992H13.75C13.75 3.37585 11.6233 1.24921 8.99997 1.24921V2.74921ZM5.99997 13.7492H12V12.2492H5.99997V13.7492ZM12 20.2492H5.99997V21.7492H12V20.2492ZM5.99997 20.2492C4.20504 20.2492 2.74997 18.7941 2.74997 16.9992H1.24997C1.24997 19.6226 3.37662 21.7492 5.99997 21.7492V20.2492ZM15.25 16.9992C15.25 18.7941 13.7949 20.2492 12 20.2492V21.7492C14.6233 21.7492 16.75 19.6226 16.75 16.9992H15.25ZM12 13.7492C13.7949 13.7492 15.25 15.2043 15.25 16.9992H16.75C16.75 14.3758 14.6233 12.2492 12 12.2492V13.7492ZM5.99997 12.2492C3.37662 12.2492 1.24997 14.3758 1.24997 16.9992H2.74997C2.74997 15.2043 4.20504 13.7492 5.99997 13.7492V12.2492ZM16 11.7492H22V10.2492H16V11.7492ZM19.75 13.9992V10.9992H18.25V13.9992H19.75ZM19.75 10.9992V7.9992H18.25V10.9992H19.75Z" fill="black"/>
</svg>
