<svg width="24" height="24" viewBox="0 0 24 24" fill="none" xmlns="http://www.w3.org/2000/svg">
<path d="M3.02465 7.10369L3.69197 7.44602L3.02465 7.10369ZM3.27259 6.67425L3.90271 7.08099L3.90271 7.08099L3.27259 6.67425ZM7.23656 20.2491L6.86156 20.8987L7.23656 20.2491ZM3.27259 17.324L3.90271 16.9173L3.27259 17.324ZM3.02465 16.8946L3.69197 16.5523L3.02465 16.8946ZM16.7628 20.2491L17.1378 20.8987L16.7628 20.2491ZM12.2476 22.2195L12.2848 22.9686L12.2476 22.2195ZM11.7518 22.2195L11.7146 22.9686L11.7518 22.2195ZM20.9747 16.8946L20.3074 16.5523L20.9747 16.8946ZM20.7268 17.324L20.0967 16.9173L20.0967 16.9173L20.7268 17.324ZM20.7268 6.67425L20.0967 7.08099L20.0967 7.08099L20.7268 6.67425ZM20.9747 7.10369L20.3074 7.44602L20.9747 7.10369ZM12.2476 1.7788L12.2848 1.02972L12.2476 1.7788ZM11.7518 1.7788L11.7146 1.02972L11.7518 1.7788ZM18.8357 18.8619L18.1166 19.0748L18.1224 19.0943L18.1292 19.1136L18.8357 18.8619ZM5.15663 18.886L4.43615 18.6776L4.42645 18.7112L4.41991 18.7455L5.15663 18.886ZM5.13506 18.9991L4.72948 19.63L5.13506 18.9991ZM15.2497 8.99914C15.2497 10.7941 13.7946 12.2491 11.9997 12.2491V13.7491C14.623 13.7491 16.7497 11.6225 16.7497 8.99914H15.2497ZM11.9997 12.2491C10.2048 12.2491 8.7497 10.7941 8.7497 8.99914H7.2497C7.2497 11.6225 9.37634 13.7491 11.9997 13.7491V12.2491ZM8.7497 8.99914C8.7497 7.20421 10.2048 5.74914 11.9997 5.74914V4.24914C9.37634 4.24914 7.2497 6.37579 7.2497 8.99914H8.7497ZM11.9997 5.74914C13.7946 5.74914 15.2497 7.20421 15.2497 8.99914H16.7497C16.7497 6.37579 14.623 4.24914 11.9997 4.24914V5.74914ZM3.22342 11.9991C3.22342 10.7124 3.22411 9.796 3.28935 9.06588C3.35331 8.35006 3.47588 7.86723 3.69197 7.44602L2.35734 6.76136C2.02219 7.41467 1.86915 8.10592 1.7953 8.93238C1.72273 9.74453 1.72342 10.7386 1.72342 11.9991H3.22342ZM6.86156 3.09962C5.76994 3.72987 4.90867 4.22633 4.24161 4.69525C3.5628 5.17243 3.04068 5.6506 2.64246 6.2675L3.90271 7.08099C4.15946 6.68325 4.51631 6.33568 5.10425 5.92238C5.70393 5.50082 6.49717 5.04205 7.61156 4.39866L6.86156 3.09962ZM3.69197 7.44602C3.75613 7.32093 3.82647 7.19911 3.90271 7.08099L2.64246 6.2675C2.53931 6.4273 2.44415 6.59212 2.35734 6.76136L3.69197 7.44602ZM1.72342 11.9991C1.72342 13.2596 1.72273 14.2537 1.7953 15.0659C1.86915 15.8924 2.02219 16.5836 2.35734 17.2369L3.69197 16.5523C3.47588 16.131 3.35331 15.6482 3.28935 14.9324C3.22411 14.2023 3.22342 13.2859 3.22342 11.9991H1.72342ZM3.90271 16.9173C3.82647 16.7992 3.75613 16.6773 3.69197 16.5523L2.35734 17.2369C2.44415 17.4062 2.53931 17.571 2.64246 17.7308L3.90271 16.9173ZM16.3878 19.5996C15.2734 20.243 14.4795 20.7006 13.8146 21.0091C13.1627 21.3117 12.6833 21.4469 12.2104 21.4704L12.2848 22.9686C13.0182 22.9321 13.6933 22.7191 14.446 22.3698C15.1856 22.0266 16.0462 21.5289 17.1378 20.8987L16.3878 19.5996ZM6.86156 20.8987C7.95318 21.5289 8.81376 22.0266 9.55339 22.3698C10.306 22.7191 10.9812 22.9321 11.7146 22.9686L11.7889 21.4704C11.3161 21.4469 10.8367 21.3117 10.1848 21.0091C9.51987 20.7006 8.72595 20.243 7.61156 19.5996L6.86156 20.8987ZM12.2104 21.4704C12.07 21.4774 11.9294 21.4774 11.7889 21.4704L11.7146 22.9686C11.9045 22.978 12.0949 22.978 12.2848 22.9686L12.2104 21.4704ZM20.776 11.9991C20.776 13.2859 20.7753 14.2023 20.71 14.9324C20.6461 15.6482 20.5235 16.131 20.3074 16.5523L21.6421 17.2369C21.9772 16.5836 22.1302 15.8924 22.2041 15.0659C22.2767 14.2537 22.276 13.2596 22.276 11.9991H20.776ZM20.3074 16.5523C20.2433 16.6773 20.1729 16.7992 20.0967 16.9173L21.3569 17.7308C21.4601 17.571 21.5552 17.4062 21.6421 17.2369L20.3074 16.5523ZM16.3878 4.39866C17.5022 5.04205 18.2955 5.50082 18.8951 5.92238C19.4831 6.33568 19.8399 6.68325 20.0967 7.08099L21.3569 6.2675C20.9587 5.6506 20.4366 5.17243 19.7578 4.69525C19.0907 4.22633 18.2295 3.72987 17.1378 3.09962L16.3878 4.39866ZM22.276 11.9991C22.276 10.7386 22.2767 9.74453 22.2041 8.93238C22.1302 8.10592 21.9772 7.41467 21.6421 6.76136L20.3074 7.44602C20.5235 7.86723 20.6461 8.35006 20.71 9.06588C20.7753 9.796 20.776 10.7124 20.776 11.9991H22.276ZM20.0967 7.08099C20.1729 7.19911 20.2433 7.32093 20.3074 7.44602L21.6421 6.76136C21.5552 6.59212 21.4601 6.4273 21.3569 6.2675L20.0967 7.08099ZM17.1378 3.09962C16.0462 2.46938 15.1856 1.97172 14.446 1.62849C13.6933 1.27922 13.0182 1.06613 12.2848 1.02972L12.2104 2.52787C12.6833 2.55135 13.1627 2.68661 13.8146 2.98913C14.4795 3.29769 15.2734 3.75527 16.3878 4.39866L17.1378 3.09962ZM7.61156 4.39866C8.72595 3.75527 9.51987 3.29769 10.1848 2.98913C10.8367 2.68661 11.3161 2.55135 11.7889 2.52787L11.7146 1.02972C10.9812 1.06613 10.306 1.27922 9.55339 1.62849C8.81376 1.97172 7.95318 2.46938 6.86156 3.09962L7.61156 4.39866ZM12.2848 1.02972C12.0949 1.02029 11.9045 1.02029 11.7146 1.02972L11.7889 2.52787C11.9294 2.5209 12.07 2.5209 12.2104 2.52787L12.2848 1.02972ZM8.9997 16.7491H14.9997V15.2491H8.9997V16.7491ZM14.9997 16.7491C16.4725 16.7491 17.7183 17.7294 18.1166 19.0748L19.5549 18.6491C18.9732 16.684 17.155 15.2491 14.9997 15.2491V16.7491ZM17.1378 20.8987C17.9933 20.4047 18.7044 19.9944 19.2871 19.6189L18.4745 18.3581C17.9294 18.7094 17.2544 19.0993 16.3878 19.5996L17.1378 20.8987ZM19.2871 19.6189C20.2003 19.0304 20.8716 18.4826 21.3569 17.7308L20.0967 16.9173C19.7833 17.4027 19.323 17.8113 18.4745 18.3581L19.2871 19.6189ZM18.1292 19.1136L18.1743 19.2401L19.5873 18.7368L19.5422 18.6103L18.1292 19.1136ZM8.9997 15.2491C6.83397 15.2491 5.00858 16.6979 4.43615 18.6776L5.87712 19.0943C6.269 17.739 7.51973 16.7491 8.9997 16.7491V15.2491ZM7.61156 19.5996C6.75346 19.1042 6.08317 18.717 5.54064 18.3682L4.72948 19.63C5.30879 20.0024 6.01429 20.4095 6.86156 20.8987L7.61156 19.5996ZM5.54064 18.3682C4.68214 17.8163 4.21804 17.4058 3.90271 16.9173L2.64246 17.7308C3.13073 18.4872 3.80747 19.0372 4.72948 19.63L5.54064 18.3682ZM4.41991 18.7455L4.39834 18.8586L5.87178 19.1396L5.89335 19.0265L4.41991 18.7455Z" fill="black"/>
</svg>
