<svg width="24" height="24" viewBox="0 0 24 24" fill="none" xmlns="http://www.w3.org/2000/svg">
<path d="M17.6511 8.59019C17.3583 8.2973 16.8834 8.2973 16.5905 8.59019C16.2976 8.88309 16.2976 9.35796 16.5905 9.65085L17.6511 8.59019ZM20.8331 13.8935C21.126 14.1864 21.6009 14.1864 21.8938 13.8935C22.1867 13.6006 22.1867 13.1257 21.8938 12.8328L20.8331 13.8935ZM16.5905 12.8328C16.2976 13.1257 16.2976 13.6006 16.5905 13.8935C16.8834 14.1864 17.3583 14.1864 17.6511 13.8935L16.5905 12.8328ZM21.8938 9.65085C22.1867 9.35796 22.1867 8.88309 21.8938 8.59019C21.6009 8.2973 21.126 8.2973 20.8331 8.59019L21.8938 9.65085ZM12.2495 5.9992C12.2495 7.79413 10.7944 9.2492 8.99946 9.2492V10.7492C11.6228 10.7492 13.7495 8.62256 13.7495 5.9992H12.2495ZM8.99946 9.2492C7.20454 9.2492 5.74946 7.79413 5.74946 5.9992H4.24946C4.24946 8.62256 6.37611 10.7492 8.99946 10.7492V9.2492ZM5.74946 5.9992C5.74946 4.20428 7.20454 2.74921 8.99946 2.74921V1.24921C6.37611 1.24921 4.24946 3.37585 4.24946 5.9992H5.74946ZM8.99946 2.74921C10.7944 2.74921 12.2495 4.20428 12.2495 5.9992H13.7495C13.7495 3.37585 11.6228 1.24921 8.99946 1.24921V2.74921ZM5.99946 13.7492H11.9995V12.2492H5.99946V13.7492ZM11.9995 20.2492H5.99946V21.7492H11.9995V20.2492ZM5.99946 20.2492C4.20454 20.2492 2.74947 18.7941 2.74947 16.9992H1.24947C1.24947 19.6226 3.37611 21.7492 5.99946 21.7492V20.2492ZM15.2495 16.9992C15.2495 18.7941 13.7944 20.2492 11.9995 20.2492V21.7492C14.6228 21.7492 16.7495 19.6226 16.7495 16.9992H15.2495ZM11.9995 13.7492C13.7944 13.7492 15.2495 15.2043 15.2495 16.9992H16.7495C16.7495 14.3758 14.6228 12.2492 11.9995 12.2492V13.7492ZM5.99946 12.2492C3.37611 12.2492 1.24947 14.3758 1.24947 16.9992H2.74947C2.74947 15.2043 4.20454 13.7492 5.99946 13.7492V12.2492ZM16.5905 9.65085L20.8331 13.8935L21.8938 12.8328L17.6511 8.59019L16.5905 9.65085ZM17.6511 13.8935L21.8938 9.65085L20.8331 8.59019L16.5905 12.8328L17.6511 13.8935Z" fill="black"/>
</svg>
