<svg width="24" height="24" viewBox="0 0 24 24" fill="none" xmlns="http://www.w3.org/2000/svg">
<path d="M5.06077 20.044L4.61993 20.6508L5.06077 20.044ZM3.95461 18.9379L3.34785 19.3787L3.34785 19.3787L3.95461 18.9379ZM20.0448 18.9379L19.438 18.497L19.438 18.497L20.0448 18.9379ZM18.9386 20.044L18.4978 19.4373L18.4978 19.4373L18.9386 20.044ZM18.9386 3.95388L18.4978 4.56064L18.9386 3.95388ZM20.0448 5.06004L19.438 5.50087L20.0448 5.06004ZM5.06077 3.95388L5.50161 4.56064L5.06077 3.95388ZM3.95461 5.06004L4.56137 5.50087L3.95461 5.06004ZM5.00314 19.8315L4.25377 19.8006L4.25314 19.816V19.8315H5.00314ZM18.9902 19.7215L19.7398 19.6959L19.7393 19.683L19.7385 19.6702L18.9902 19.7215ZM15.2497 8.99896C15.2497 10.7939 13.7946 12.249 11.9997 12.249V13.749C14.623 13.749 16.7497 11.6223 16.7497 8.99896H15.2497ZM11.9997 12.249C10.2048 12.249 8.74969 10.7939 8.74969 8.99896H7.24969C7.24969 11.6223 9.37634 13.749 11.9997 13.749V12.249ZM8.74969 8.99896C8.74969 7.20404 10.2048 5.74896 11.9997 5.74896V4.24896C9.37634 4.24896 7.24969 6.37561 7.24969 8.99896H8.74969ZM11.9997 5.74896C13.7946 5.74896 15.2497 7.20404 15.2497 8.99896H16.7497C16.7497 6.37561 14.623 4.24896 11.9997 4.24896V5.74896ZM11.9997 20.249C10.1081 20.249 8.74968 20.2479 7.69774 20.134C6.65983 20.0215 6.00961 19.8064 5.50161 19.4373L4.61993 20.6508C5.42625 21.2366 6.37063 21.4989 7.53617 21.6252C8.68767 21.75 10.1415 21.749 11.9997 21.749V20.249ZM2.2497 11.999C2.2497 13.8571 2.24867 15.311 2.37342 16.4625C2.4997 17.628 2.76202 18.5724 3.34785 19.3787L4.56137 18.497C4.19229 17.989 3.97715 17.3388 3.8647 16.3009C3.75072 15.249 3.74969 13.8905 3.74969 11.999H2.2497ZM20.2497 11.999C20.2497 13.8905 20.2487 15.249 20.1347 16.3009C20.0222 17.3388 19.8071 17.989 19.438 18.497L20.6515 19.3787C21.2374 18.5724 21.4997 17.628 21.626 16.4625C21.7507 15.311 21.7497 13.8571 21.7497 11.999H20.2497ZM11.9997 21.749C13.8579 21.749 15.3117 21.75 16.4632 21.6252C17.6287 21.4989 18.5731 21.2366 19.3795 20.6508L18.4978 19.4373C17.9898 19.8064 17.3396 20.0215 16.3016 20.134C15.2497 20.2479 13.8913 20.249 11.9997 20.249V21.749ZM11.9997 3.74896C13.8913 3.74896 15.2497 3.74999 16.3016 3.86396C17.3396 3.97641 17.9898 4.19155 18.4978 4.56064L19.3795 3.34711C18.5731 2.76129 17.6287 2.49897 16.4632 2.37269C15.3117 2.24793 13.8579 2.24896 11.9997 2.24896V3.74896ZM21.7497 11.999C21.7497 10.1408 21.7507 8.68694 21.626 7.53544C21.4997 6.3699 21.2374 5.42552 20.6515 4.6192L19.438 5.50087C19.8071 6.00888 20.0222 6.65909 20.1347 7.69701C20.2487 8.74895 20.2497 10.1074 20.2497 11.999H21.7497ZM18.4978 4.56064C18.8586 4.82278 19.1759 5.14007 19.438 5.50087L20.6515 4.6192C20.2969 4.13105 19.8676 3.70177 19.3795 3.34711L18.4978 4.56064ZM11.9997 2.24896C10.1415 2.24896 8.68767 2.24793 7.53617 2.37269C6.37063 2.49897 5.42625 2.76129 4.61993 3.34711L5.50161 4.56064C6.00961 4.19155 6.65983 3.97641 7.69774 3.86396C8.74969 3.74999 10.1081 3.74896 11.9997 3.74896V2.24896ZM3.74969 11.999C3.74969 10.1074 3.75072 8.74895 3.8647 7.69701C3.97715 6.65909 4.19229 6.00888 4.56137 5.50087L3.34785 4.6192C2.76202 5.42552 2.4997 6.3699 2.37342 7.53544C2.24867 8.68694 2.2497 10.1408 2.2497 11.999H3.74969ZM4.61993 3.34711C4.13178 3.70177 3.7025 4.13105 3.34785 4.6192L4.56137 5.50087C4.82351 5.14007 5.1408 4.82278 5.50161 4.56064L4.61993 3.34711ZM8.99969 16.749H14.9997V15.249H8.99969V16.749ZM8.99969 15.249C6.44279 15.249 4.35806 17.2689 4.25377 19.8006L5.7525 19.8623C5.82382 18.1311 7.25054 16.749 8.99969 16.749V15.249ZM5.50161 19.4373C5.4852 19.4254 5.46887 19.4133 5.45262 19.4011L4.55365 20.6019C4.57561 20.6184 4.5977 20.6347 4.61993 20.6508L5.50161 19.4373ZM5.45262 19.4011C5.11204 19.1462 4.81158 18.8414 4.56137 18.497L3.34785 19.3787C3.68636 19.8447 4.09287 20.257 4.55365 20.6019L5.45262 19.4011ZM4.25314 19.8315V20.0015H5.75314V19.8315H4.25314ZM14.9997 16.749C16.7185 16.749 18.1262 18.0837 18.242 19.7727L19.7385 19.6702C19.5692 17.1998 17.5126 15.249 14.9997 15.249V16.749ZM19.438 18.497C19.1885 18.8404 18.8891 19.1444 18.5497 19.399L19.4497 20.599C19.9088 20.2546 20.314 19.8433 20.6515 19.3787L19.438 18.497ZM18.5497 19.399C18.5325 19.4119 18.5152 19.4246 18.4978 19.4373L19.3795 20.6508C19.403 20.6337 19.4264 20.6164 19.4497 20.599L18.5497 19.399ZM18.2406 19.7471L18.2501 20.0246L19.7493 19.9734L19.7398 19.6959L18.2406 19.7471Z" fill="black"/>
</svg>
