<svg width="24" height="24" viewBox="0 0 24 24" fill="none" xmlns="http://www.w3.org/2000/svg">
<path d="M14.9994 16.2492C14.5852 16.2492 14.2494 16.585 14.2494 16.9992C14.2494 17.4134 14.5852 17.7492 14.9994 17.7492V16.2492ZM20.9994 17.7492C21.4136 17.7492 21.7494 17.4134 21.7494 16.9992C21.7494 16.585 21.4136 16.2492 20.9994 16.2492V17.7492ZM13.9994 13.7492C14.4136 13.7492 14.7494 13.4134 14.7494 12.9992C14.7494 12.585 14.4136 12.2492 13.9994 12.2492V13.7492ZM13.9994 21.7492C14.4136 21.7492 14.7494 21.4134 14.7494 20.9992C14.7494 20.585 14.4136 20.2492 13.9994 20.2492V21.7492ZM14.2494 5.9992C14.2494 7.79413 12.7943 9.2492 10.9994 9.2492V10.7492C13.6227 10.7492 15.7494 8.62256 15.7494 5.9992H14.2494ZM10.9994 9.2492C9.20446 9.2492 7.74938 7.79413 7.74938 5.9992H6.24938C6.24938 8.62256 8.37603 10.7492 10.9994 10.7492V9.2492ZM7.74938 5.9992C7.74938 4.20428 9.20446 2.74921 10.9994 2.74921V1.24921C8.37603 1.24921 6.24938 3.37585 6.24938 5.9992H7.74938ZM10.9994 2.74921C12.7943 2.74921 14.2494 4.20428 14.2494 5.9992H15.7494C15.7494 3.37585 13.6227 1.24921 10.9994 1.24921V2.74921ZM14.9994 17.7492H20.9994V16.2492H14.9994V17.7492ZM7.99938 13.7492H13.9994V12.2492H7.99938V13.7492ZM13.9994 20.2492H7.99938V21.7492H13.9994V20.2492ZM7.99938 20.2492C6.20446 20.2492 4.74939 18.7941 4.74939 16.9992H3.24939C3.24939 19.6226 5.37603 21.7492 7.99938 21.7492V20.2492ZM7.99938 12.2492C5.37603 12.2492 3.24939 14.3758 3.24939 16.9992H4.74939C4.74939 15.2043 6.20446 13.7492 7.99938 13.7492V12.2492Z" fill="black"/>
</svg>
