<svg width="24" height="24" viewBox="0 0 24 24" fill="none" xmlns="http://www.w3.org/2000/svg">
<path d="M1.99893 11.9998L1.25647 12.1059L1.26371 12.1566L1.27779 12.2059L1.99893 11.9998ZM8.42222 5.41017L8.11762 6.09553L8.11762 6.09553L8.42222 5.41017ZM8.95321 5.64616L9.25781 4.9608L9.25781 4.9608L8.95321 5.64616ZM10.9606 6.41924L10.8049 7.15289L10.9606 6.41924ZM15.0446 5.64616L14.74 4.9608L14.74 4.9608L15.0446 5.64616ZM13.0372 6.41924L13.1929 7.15289L13.0372 6.41924ZM15.5589 17.5375L16.1898 17.1319L16.1898 17.1319L15.5589 17.5375ZM8.29362 17.7636L7.66273 17.3581L7.66273 17.3581L8.29362 17.7636ZM3.44113 17.0475L4.16227 16.8415L3.44113 17.0475ZM21.3895 16.266L20.647 16.1599L20.647 16.1599L21.3895 16.266ZM22.2226 10.4343L22.965 10.5403L22.965 10.5403L22.2226 10.4343ZM8.66798 17.1813L9.29887 17.5868L9.29887 17.5868L8.66798 17.1813ZM15.3299 17.1813L14.699 17.5868L14.699 17.5868L15.3299 17.1813ZM15.5756 5.41017L15.8802 6.09553L15.8802 6.09553L15.5756 5.41017ZM1.77528 10.4343L1.03282 10.5403L1.77528 10.4343ZM4.99893 10.2498C4.58472 10.2498 4.24893 10.5856 4.24893 10.9998C4.24893 11.414 4.58472 11.7498 4.99893 11.7498V10.2498ZM8.99893 11.7498C9.41314 11.7498 9.74893 11.414 9.74893 10.9998C9.74893 10.5856 9.41314 10.2498 8.99893 10.2498V11.7498ZM6.24893 12.9998C6.24893 13.414 6.58471 13.7498 6.99893 13.7498C7.41314 13.7498 7.74893 13.414 7.74893 12.9998H6.24893ZM7.74893 8.99982C7.74893 8.5856 7.41314 8.24982 6.99893 8.24982C6.58471 8.24982 6.24893 8.5856 6.24893 8.99982H7.74893ZM4.16227 16.8415L2.72007 11.7938L1.27779 12.2059L2.71999 17.2536L4.16227 16.8415ZM2.74139 11.8937L2.51774 10.3282L1.03282 10.5403L1.25647 12.1059L2.74139 11.8937ZM8.0371 16.7757L7.66273 17.3581L8.9245 18.1692L9.29887 17.5868L8.0371 16.7757ZM16.1898 17.1319L15.9608 16.7757L14.699 17.5868L14.928 17.9431L16.1898 17.1319ZM8.11762 6.09553L8.6486 6.33152L9.25781 4.9608L8.72683 4.72481L8.11762 6.09553ZM15.3493 6.33152L15.8802 6.09553L15.271 4.72481L14.74 4.9608L15.3493 6.33152ZM6.48855 5.74982C7.04978 5.74982 7.60476 5.86759 8.11762 6.09553L8.72683 4.72481C8.02218 4.41164 7.25966 4.24982 6.48855 4.24982V5.74982ZM8.6486 6.33152C9.61575 6.76136 10.1969 7.02382 10.8049 7.15289L11.1164 5.68559C10.6982 5.59682 10.2831 5.4165 9.25781 4.9608L8.6486 6.33152ZM14.74 4.9608C13.7147 5.4165 13.2996 5.59682 12.8815 5.68559L13.1929 7.15289C13.801 7.02382 14.3821 6.76136 15.3493 6.33152L14.74 4.9608ZM10.8049 7.15289C11.5921 7.32001 12.4057 7.32001 13.1929 7.15289L12.8815 5.68559C12.2996 5.80911 11.6983 5.80911 11.1164 5.68559L10.8049 7.15289ZM18.2373 18.2498C17.4091 18.2498 16.6376 17.8287 16.1898 17.1319L14.928 17.9431C15.6519 19.0691 16.8987 19.7498 18.2373 19.7498V18.2498ZM7.66273 17.3581C7.30544 17.9138 6.69006 18.2498 6.02935 18.2498V19.7498C7.20046 19.7498 8.29121 19.1543 8.9245 18.1692L7.66273 17.3581ZM2.71999 17.2536C3.14215 18.7311 4.49266 19.7498 6.02935 19.7498V18.2498C5.16238 18.2498 4.40045 17.6751 4.16227 16.8415L2.71999 17.2536ZM20.647 16.1599C20.4757 17.3591 19.4487 18.2498 18.2373 18.2498V19.7498C20.1952 19.7498 21.8551 18.3102 22.1319 16.372L20.647 16.1599ZM22.965 10.5403C23.4393 7.22024 20.8631 4.24982 17.5093 4.24982V5.74982C19.9503 5.74982 21.8253 7.91176 21.4801 10.3282L22.965 10.5403ZM9.29887 17.5868C10.5624 15.6214 13.4355 15.6214 14.699 17.5868L15.9608 16.7757C14.1068 13.8918 9.89107 13.8918 8.0371 16.7757L9.29887 17.5868ZM15.8802 6.09553C16.3931 5.86759 16.9481 5.74982 17.5093 5.74982V4.24982C16.7382 4.24982 15.9757 4.41164 15.271 4.72481L15.8802 6.09553ZM2.51774 10.3282C2.17254 7.91176 4.04758 5.74982 6.48855 5.74982V4.24982C3.13476 4.24982 0.558519 7.22024 1.03282 10.5403L2.51774 10.3282ZM7.74893 12.9998V8.99982H6.24893V12.9998H7.74893ZM21.4801 10.3282L20.647 16.1599L22.1319 16.372L22.965 10.5403L21.4801 10.3282ZM4.99893 11.7498H6.99893V10.2498H4.99893V11.7498ZM6.99893 11.7498H8.99893V10.2498H6.99893V11.7498Z" fill="black"/>
<path d="M17.9997 8.99969C17.9997 9.55198 17.5519 9.99969 16.9997 9.99969C16.4474 9.99969 15.9997 9.55198 15.9997 8.99969C15.9997 8.44741 16.4474 7.99969 16.9997 7.99969C17.5519 7.99969 17.9997 8.44741 17.9997 8.99969Z" fill="black"/>
<path d="M15.9997 10.9997C15.9997 11.552 15.5519 11.9997 14.9997 11.9997C14.4474 11.9997 13.9997 11.552 13.9997 10.9997C13.9997 10.4474 14.4474 9.99969 14.9997 9.99969C15.5519 9.99969 15.9997 10.4474 15.9997 10.9997Z" fill="black"/>
<path d="M19.9997 10.9997C19.9997 11.552 19.5519 11.9997 18.9997 11.9997C18.4474 11.9997 17.9997 11.552 17.9997 10.9997C17.9997 10.4474 18.4474 9.99969 18.9997 9.99969C19.5519 9.99969 19.9997 10.4474 19.9997 10.9997Z" fill="black"/>
<path d="M17.9997 12.9997C17.9997 13.552 17.5519 13.9997 16.9997 13.9997C16.4474 13.9997 15.9997 13.552 15.9997 12.9997C15.9997 12.4474 16.4474 11.9997 16.9997 11.9997C17.5519 11.9997 17.9997 12.4474 17.9997 12.9997Z" fill="black"/>
</svg>
