<svg width="24" height="24" viewBox="0 0 24 24" fill="none" xmlns="http://www.w3.org/2000/svg">
<g clip-path="url(#clip0_0_1)">
<path d="M17.9997 10.9997C17.9997 11.552 17.552 11.9997 16.9997 11.9997C16.4474 11.9997 15.9997 11.552 15.9997 10.9997C15.9997 10.4474 16.4474 9.99969 16.9997 9.99969C17.552 9.99969 17.9997 10.4474 17.9997 10.9997Z" fill="black"/>
<path d="M15.9997 12.9997C15.9997 13.552 15.552 13.9997 14.9997 13.9997C14.4474 13.9997 13.9997 13.552 13.9997 12.9997C13.9997 12.4474 14.4474 11.9997 14.9997 11.9997C15.552 11.9997 15.9997 12.4474 15.9997 12.9997Z" fill="black"/>
<path d="M19.9997 12.9997C19.9997 13.552 19.552 13.9997 18.9997 13.9997C18.4474 13.9997 17.9997 13.552 17.9997 12.9997C17.9997 12.4474 18.4474 11.9997 18.9997 11.9997C19.552 11.9997 19.9997 12.4474 19.9997 12.9997Z" fill="black"/>
<path d="M17.9997 14.9997C17.9997 15.552 17.552 15.9997 16.9997 15.9997C16.4474 15.9997 15.9997 15.552 15.9997 14.9997C15.9997 14.4474 16.4474 13.9997 16.9997 13.9997C17.552 13.9997 17.9997 14.4474 17.9997 14.9997Z" fill="black"/>
<path d="M1.99875 13.9996L1.25628 14.1056L1.26353 14.1563L1.2776 14.2056L1.99875 13.9996ZM8.42204 7.40992L8.72664 6.72457L8.72664 6.72457L8.42204 7.40992ZM8.95302 7.64592L8.64842 8.33128L8.64842 8.33128L8.95302 7.64592ZM10.9605 8.41899L10.8047 9.15264L10.9605 8.41899ZM15.0445 7.64592L14.7399 6.96056L14.7399 6.96056L15.0445 7.64592ZM13.037 8.41899L13.1928 9.15264L13.037 8.41899ZM15.5587 19.5373L14.9278 19.9428L14.9278 19.9428L15.5587 19.5373ZM8.29343 19.7634L8.92432 20.169L8.92432 20.169L8.29343 19.7634ZM3.44095 19.0473L2.7198 19.2533L2.7198 19.2533L3.44095 19.0473ZM21.3893 18.2657L20.6468 18.1597L20.6468 18.1597L21.3893 18.2657ZM22.2224 12.434L22.9649 12.5401L22.9649 12.5401L22.2224 12.434ZM8.6678 19.181L8.03692 18.7755L8.03692 18.7755L8.6678 19.181ZM15.3297 19.181L15.9606 18.7755L15.9606 18.7755L15.3297 19.181ZM15.5754 7.40993L15.88 8.09528L15.8801 8.09528L15.5754 7.40993ZM1.7751 12.434L1.03263 12.5401L1.7751 12.434ZM4.99875 12.2496C4.58453 12.2496 4.24875 12.5854 4.24875 12.9996C4.24875 13.4138 4.58453 13.7496 4.99875 13.7496V12.2496ZM8.99874 13.7496C9.41296 13.7496 9.74874 13.4138 9.74874 12.9996C9.74874 12.5854 9.41296 12.2496 8.99874 12.2496V13.7496ZM6.24875 14.9996C6.24875 15.4138 6.58453 15.7496 6.99874 15.7496C7.41296 15.7496 7.74874 15.4138 7.74874 14.9996H6.24875ZM7.74874 10.9996C7.74874 10.5854 7.41296 10.2496 6.99874 10.2496C6.58453 10.2496 6.24875 10.5854 6.24875 10.9996H7.74874ZM11.9987 7.99957L11.2647 7.84577L11.2623 7.85711L11.2603 7.86852L11.9987 7.99957ZM12.3714 6.22102L13.1055 6.37482L13.1055 6.37482L12.3714 6.22102ZM15.7565 3.66019L16.4607 3.91838L16.4607 3.91838L15.7565 3.66019ZM16.7029 3.25776C16.8455 2.86887 16.6458 2.43801 16.2569 2.29542C15.868 2.15282 15.4372 2.35249 15.2946 2.74138L16.7029 3.25776ZM4.16209 18.8412L2.71989 13.7935L1.2776 14.2056L2.7198 19.2533L4.16209 18.8412ZM2.74121 13.8935L2.51756 12.3279L1.03263 12.5401L1.25628 14.1056L2.74121 13.8935ZM8.03692 18.7755L7.66255 19.3578L8.92432 20.169L9.29869 19.5866L8.03692 18.7755ZM16.1896 19.1317L15.9606 18.7755L14.6988 19.5866L14.9278 19.9428L16.1896 19.1317ZM8.11744 8.09528L8.64842 8.33128L9.25763 6.96056L8.72664 6.72457L8.11744 8.09528ZM15.3491 8.33128L15.88 8.09528L15.2708 6.72457L14.7399 6.96056L15.3491 8.33128ZM6.48837 7.74957C7.0496 7.74957 7.60458 7.86735 8.11744 8.09528L8.72664 6.72457C8.022 6.41139 7.25947 6.24957 6.48837 6.24957V7.74957ZM8.64842 8.33128C9.61556 8.76112 10.1967 9.02357 10.8047 9.15264L11.1162 7.68534C10.698 7.59657 10.2829 7.41626 9.25763 6.96056L8.64842 8.33128ZM14.7399 6.96056C13.7145 7.41626 13.2994 7.59657 12.8813 7.68534L13.1928 9.15264C13.8008 9.02357 14.3819 8.76112 15.3491 8.33128L14.7399 6.96056ZM18.2371 20.2496C17.4089 20.2496 16.6375 19.8284 16.1896 19.1317L14.9278 19.9428C15.6517 21.0689 16.8985 21.7496 18.2371 21.7496V20.2496ZM7.66255 19.3578C7.30526 19.9136 6.68988 20.2496 6.02916 20.2496V21.7496C7.20028 21.7496 8.29103 21.1541 8.92432 20.169L7.66255 19.3578ZM2.7198 19.2533C3.14197 20.7309 4.49247 21.7496 6.02916 21.7496V20.2496C5.16219 20.2496 4.40026 19.6748 4.16209 18.8412L2.7198 19.2533ZM20.6468 18.1597C20.4755 19.3588 19.4485 20.2496 18.2371 20.2496V21.7496C20.195 21.7496 21.8549 20.3099 22.1318 18.3718L20.6468 18.1597ZM22.9649 12.5401C23.4392 9.22 20.8629 6.24957 17.5091 6.24957V7.74957C19.9501 7.74957 21.8251 9.91152 21.4799 12.3279L22.9649 12.5401ZM9.29869 19.5866C10.5622 17.6211 13.4353 17.6211 14.6988 19.5866L15.9606 18.7755C14.1066 15.8915 9.89089 15.8915 8.03692 18.7755L9.29869 19.5866ZM15.8801 8.09528C16.3929 7.86735 16.9479 7.74957 17.5091 7.74957V6.24957C16.738 6.24957 15.9755 6.41139 15.2708 6.72457L15.8801 8.09528ZM2.51756 12.3279C2.17235 9.91152 4.0474 7.74957 6.48837 7.74957V6.24957C3.13458 6.24957 0.558336 9.22 1.03263 12.5401L2.51756 12.3279ZM7.74874 14.9996V10.9996H6.24875V14.9996H7.74874ZM12.7328 8.15337L13.1055 6.37482L11.6373 6.06722L11.2647 7.84577L12.7328 8.15337ZM16.4607 3.91838L16.7029 3.25776L15.2946 2.74138L15.0524 3.40199L16.4607 3.91838ZM14.0991 5.56775C15.1544 5.56775 16.0974 4.9091 16.4607 3.91838L15.0524 3.40199C14.9057 3.80189 14.5251 4.06775 14.0991 4.06775V5.56775ZM13.1055 6.37482C13.204 5.90456 13.6187 5.56775 14.0991 5.56775V4.06775C12.9088 4.06775 11.8814 4.90217 11.6373 6.06722L13.1055 6.37482ZM21.4799 12.3279L20.6468 18.1597L22.1318 18.3718L22.9649 12.5401L21.4799 12.3279ZM4.99875 13.7496H6.99874V12.2496H4.99875V13.7496ZM6.99874 13.7496H8.99874V12.2496H6.99874V13.7496ZM10.8047 9.15264C11.163 9.22871 11.5268 9.27015 11.8911 9.27697L11.9192 7.77724C11.6499 7.7722 11.3811 7.74156 11.1162 7.68534L10.8047 9.15264ZM11.8911 9.27697C12.3271 9.28514 12.7638 9.2437 13.1928 9.15264L12.8813 7.68534C12.5643 7.75264 12.2415 7.78327 11.9192 7.77724L11.8911 9.27697ZM11.2603 7.86852L11.1667 8.39606L12.6436 8.65815L12.7372 8.13062L11.2603 7.86852Z" fill="black"/>
</g>
<defs>
<clipPath id="clip0_0_1">
<rect width="24" height="24" fill="black" transform="translate(-0.00012207 -0.000183105)"/>
</clipPath>
</defs>
</svg>
