<svg width="24" height="24" viewBox="0 0 24 24" fill="none" xmlns="http://www.w3.org/2000/svg">
<path d="M5.06116 21.0446L5.502 20.4379L5.06116 21.0446ZM3.95501 19.9385L4.56177 19.4977L3.95501 19.9385ZM20.0452 19.9385L19.4384 19.4977L20.0452 19.9385ZM18.939 21.0446L18.4982 20.4379L18.939 21.0446ZM18.939 4.95449L19.3798 4.34772L18.939 4.95449ZM20.0452 6.06064L19.4384 6.50148L20.0452 6.06064ZM5.06116 4.95449L5.502 5.56125L5.06116 4.95449ZM3.95501 6.06064L4.56177 6.50148L3.95501 6.06064ZM16.7501 1.99957C16.7501 1.58536 16.4143 1.24957 16.0001 1.24957C15.5859 1.24957 15.2501 1.58536 15.2501 1.99957H16.7501ZM14.0001 13.2496C13.5859 13.2496 13.2501 13.5854 13.2501 13.9996C13.2501 14.4138 13.5859 14.7496 14.0001 14.7496V13.2496ZM18.0001 14.7496C18.4143 14.7496 18.7501 14.4138 18.7501 13.9996C18.7501 13.5854 18.4143 13.2496 18.0001 13.2496V14.7496ZM14.0001 16.2496C13.5859 16.2496 13.2501 16.5854 13.2501 16.9996C13.2501 17.4138 13.5859 17.7496 14.0001 17.7496V16.2496ZM18.0001 17.7496C18.4143 17.7496 18.7501 17.4138 18.7501 16.9996C18.7501 16.5854 18.4143 16.2496 18.0001 16.2496V17.7496ZM3.0836 8.99957L2.33601 8.93957L3.0836 8.99957ZM16.0001 4.08308L15.9401 4.83068L16.0001 4.08308ZM12.0001 21.2496C10.1085 21.2496 8.75008 21.2485 7.69813 21.1346C6.66022 21.0221 6.01001 20.807 5.502 20.4379L4.62033 21.6514C5.42665 22.2372 6.37103 22.4996 7.53657 22.6258C8.68807 22.7506 10.1419 22.7496 12.0001 22.7496V21.2496ZM2.25009 12.9996C2.25009 14.8577 2.24906 16.3116 2.37382 17.4631C2.5001 18.6286 2.76242 19.573 3.34824 20.3793L4.56177 19.4977C4.19268 18.9896 3.97754 18.3394 3.86509 17.3015C3.75112 16.2496 3.75009 14.8911 3.75009 12.9996H2.25009ZM5.502 20.4379C5.1412 20.1757 4.82391 19.8585 4.56177 19.4977L3.34824 20.3793C3.7029 20.8675 4.13218 21.2968 4.62033 21.6514L5.502 20.4379ZM20.2501 12.9996C20.2501 14.8911 20.2491 16.2496 20.1351 17.3015C20.0226 18.3394 19.8075 18.9896 19.4384 19.4977L20.6519 20.3793C21.2378 19.573 21.5001 18.6286 21.6264 17.4631C21.7511 16.3116 21.7501 14.8577 21.7501 12.9996H20.2501ZM12.0001 22.7496C13.8582 22.7496 15.3121 22.7506 16.4636 22.6258C17.6291 22.4996 18.5735 22.2372 19.3798 21.6514L18.4982 20.4379C17.9902 20.807 17.34 21.0221 16.302 21.1346C15.2501 21.2485 13.8917 21.2496 12.0001 21.2496V22.7496ZM19.4384 19.4977C19.1763 19.8585 18.859 20.1757 18.4982 20.4379L19.3798 21.6514C19.868 21.2968 20.2973 20.8675 20.6519 20.3793L19.4384 19.4977ZM18.4982 5.56125C18.859 5.82339 19.1763 6.14068 19.4384 6.50148L20.6519 5.61981C20.2973 5.13166 19.868 4.70238 19.3798 4.34772L18.4982 5.56125ZM12.0001 3.24957C10.1419 3.24957 8.68807 3.24854 7.53657 3.3733C6.37103 3.49958 5.42665 3.7619 4.62033 4.34772L5.502 5.56125C6.01001 5.19216 6.66022 4.97702 7.69813 4.86457C8.75008 4.7506 10.1085 4.74957 12.0001 4.74957V3.24957ZM4.62033 4.34772C4.13218 4.70238 3.7029 5.13166 3.34824 5.61981L4.56177 6.50148C4.82391 6.14068 5.1412 5.82339 5.502 5.56125L4.62033 4.34772ZM16.7501 3.99957V1.99957H15.2501V3.99957H16.7501ZM14.0001 14.7496H18.0001V13.2496H14.0001V14.7496ZM14.0001 17.7496H18.0001V16.2496H14.0001V17.7496ZM10.2501 15.4996C10.2501 16.4661 9.46659 17.2496 8.50009 17.2496V18.7496C10.295 18.7496 11.7501 17.2945 11.7501 15.4996H10.2501ZM8.50009 17.2496C7.53359 17.2496 6.75009 16.4661 6.75009 15.4996H5.25009C5.25009 17.2945 6.70516 18.7496 8.50009 18.7496V17.2496ZM6.75009 15.4996C6.75009 14.5331 7.53359 13.7496 8.50009 13.7496V12.2496C6.70516 12.2496 5.25009 13.7046 5.25009 15.4996H6.75009ZM8.50009 13.7496C9.46659 13.7496 10.2501 14.5331 10.2501 15.4996H11.7501C11.7501 13.7046 10.295 12.2496 8.50009 12.2496V13.7496ZM3.75009 12.9996C3.75009 11.3235 3.75064 10.0633 3.8312 9.05957L2.33601 8.93957C2.24954 10.017 2.25009 11.3468 2.25009 12.9996H3.75009ZM3.8312 9.05957C3.93172 7.80707 4.15086 7.06705 4.56177 6.50148L3.34824 5.61981C2.69705 6.5161 2.44475 7.58465 2.33601 8.93957L3.8312 9.05957ZM12.0001 4.74957C13.6761 4.74957 14.9364 4.75012 15.9401 4.83068L16.0601 3.33549C14.9827 3.24902 13.6529 3.24957 12.0001 3.24957V4.74957ZM15.9401 4.83068C17.1926 4.9312 17.9326 5.15034 18.4982 5.56125L19.3798 4.34772C18.4836 3.69653 17.415 3.44423 16.0601 3.33549L15.9401 4.83068ZM15.2501 3.99957V4.08308H16.7501V3.99957H15.2501ZM20.9166 8.24957H3.0836V9.74957H20.9166V8.24957ZM21.7501 12.9996C21.7501 11.3468 21.7506 10.017 21.6642 8.93957L20.169 9.05957C20.2495 10.0633 20.2501 11.3235 20.2501 12.9996H21.7501ZM21.6642 8.93957C21.5554 7.58465 21.3031 6.5161 20.6519 5.61981L19.4384 6.50148C19.8493 7.06705 20.0685 7.80707 20.169 9.05957L21.6642 8.93957Z" fill="black"/>
</svg>
