<svg width="24" height="24" viewBox="0 0 24 24" fill="none" xmlns="http://www.w3.org/2000/svg">
<path d="M15.8862 12.4661C15.592 12.7577 15.5899 13.2325 15.8815 13.5267C16.1731 13.8209 16.6479 13.823 16.9421 13.5315L15.8862 12.4661ZM17.8246 11.6009L18.3525 12.1336L18.3525 12.1336L17.8246 11.6009ZM17.8246 6.39663L18.3525 5.86393L18.3525 5.86393L17.8246 6.39663ZM16.9421 4.46609C16.6479 4.17451 16.1731 4.17662 15.8815 4.47082C15.5899 4.76502 15.592 5.23989 15.8862 5.53147L16.9421 4.46609ZM19.5983 9.24944L20.3423 9.34427L20.3423 9.34427L19.5983 9.24944ZM19.5983 8.74811L20.3423 8.65328L20.3423 8.65328L19.5983 8.74811ZM18.0001 19.7488C18.4143 19.7488 18.7501 19.413 18.7501 18.9988C18.7501 18.5846 18.4143 18.2488 18.0001 18.2488V19.7488ZM16.9421 13.5315L18.3525 12.1336L17.2966 11.0682L15.8862 12.4661L16.9421 13.5315ZM18.3525 5.86393L16.9421 4.46609L15.8862 5.53147L17.2966 6.92932L18.3525 5.86393ZM18.3525 12.1336C18.9024 11.5887 19.3606 11.1361 19.6855 10.7315C20.0199 10.3151 20.2743 9.87747 20.3423 9.34427L18.8543 9.15461C18.8357 9.30077 18.7656 9.4815 18.516 9.79229C18.2569 10.1149 17.8715 10.4984 17.2966 11.0682L18.3525 12.1336ZM17.2966 6.92932C17.8715 7.4991 18.2569 7.88264 18.516 8.20526C18.7656 8.51606 18.8357 8.69678 18.8543 8.84294L20.3423 8.65328C20.2743 8.12009 20.0199 7.68244 19.6855 7.26602C19.3606 6.86143 18.9024 6.40889 18.3525 5.86393L17.2966 6.92932ZM19.0001 8.24878H10.0001V9.74878H19.0001V8.24878ZM10.0001 19.7488H18.0001V18.2488H10.0001V19.7488ZM4.25013 13.9988C4.25013 17.1744 6.82449 19.7488 10.0001 19.7488V18.2488C7.65292 18.2488 5.75013 16.346 5.75013 13.9988H4.25013ZM10.0001 8.24878C6.82449 8.24878 4.25013 10.8231 4.25013 13.9988H5.75013C5.75013 11.6516 7.65292 9.74878 10.0001 9.74878V8.24878ZM20.3423 9.34427C20.3569 9.22957 20.3642 9.11417 20.3642 8.99878L18.8642 8.99878C18.8642 9.05082 18.8609 9.10287 18.8543 9.15462L20.3423 9.34427ZM20.3642 8.99878C20.3642 8.88338 20.3569 8.76799 20.3423 8.65328L18.8543 8.84294C18.8609 8.89468 18.8642 8.94673 18.8642 8.99878L20.3642 8.99878ZM19.0001 9.74878H19.6142V8.24878H19.0001V9.74878Z" fill="black"/>
</svg>
