<svg width="24" height="24" viewBox="0 0 24 24" fill="none" xmlns="http://www.w3.org/2000/svg">
<g clip-path="url(#clip0_0_1)">
<path d="M2.74947 11.999C2.74947 11.5848 2.41368 11.249 1.99947 11.249C1.58525 11.249 1.24947 11.5848 1.24947 11.999H2.74947ZM21.2495 11.999C21.2495 12.4132 21.5852 12.749 21.9995 12.749C22.4137 12.749 22.7495 12.4132 22.7495 11.999H21.2495ZM4.39988 5.49902L4.93988 6.0195L4.95523 6.00358L4.96961 5.98678L4.39988 5.49902ZM19.599 18.499L20.1688 18.9868L20.178 18.9759L20.1869 18.9648L19.599 18.499ZM4.01215 1.00237C4.014 0.58816 3.67972 0.250879 3.26551 0.249031C2.8513 0.247183 2.51402 0.581468 2.51217 0.995677L4.01215 1.00237ZM3.2533 2.98473L2.50331 2.98139L2.50331 2.98139L3.2533 2.98473ZM6.9333 6.66473L6.93665 7.41473L6.93665 7.41473L6.9333 6.66473ZM8.92236 7.40587C9.33657 7.40402 9.67085 7.06674 9.669 6.65253C9.66716 6.23832 9.32988 5.90403 8.91567 5.90588L8.92236 7.40587ZM3.66185 5.90169L3.06872 6.36071L3.06872 6.36071L3.66185 5.90169ZM4.01635 6.25619L3.55732 6.84931L3.55733 6.84931L4.01635 6.25619ZM19.9063 22.9153C19.9045 23.3295 20.2388 23.6667 20.653 23.6686C21.0672 23.6704 21.4045 23.3362 21.4063 22.9219L19.9063 22.9153ZM20.6652 20.9329L21.4152 20.9362L21.4152 20.9362L20.6652 20.9329ZM16.9852 17.2529L16.9818 16.5029L16.9818 16.5029L16.9852 17.2529ZM14.9961 16.5118C14.5819 16.5136 14.2476 16.8509 14.2495 17.2651C14.2513 17.6793 14.5886 18.0136 15.0028 18.0117L14.9961 16.5118ZM20.2566 18.0159L20.8498 17.5569L20.8498 17.5569L20.2566 18.0159ZM19.9021 17.6614L20.3612 17.0683L20.3612 17.0683L19.9021 17.6614ZM3.82898 6.09133L3.29908 6.62208L3.82898 6.09133ZM11.9995 21.249C6.89083 21.249 2.74947 17.1076 2.74947 11.999H1.24947C1.24947 17.9361 6.0624 22.749 11.9995 22.749V21.249ZM11.9995 2.74902C17.1081 2.74902 21.2495 6.89039 21.2495 11.999H22.7495C22.7495 6.06196 17.9365 1.24902 11.9995 1.24902V2.74902ZM4.96961 5.98678C6.66728 4.00379 9.18644 2.74902 11.9995 2.74902V1.24902C8.72988 1.24902 5.80064 2.7096 3.83015 5.01126L4.96961 5.98678ZM19.0293 18.0113C17.3316 19.9942 14.8125 21.249 11.9995 21.249V22.749C15.269 22.749 18.1983 21.2884 20.1688 18.9868L19.0293 18.0113ZM2.51217 0.995677L2.50331 2.98139L4.00329 2.98808L4.01215 1.00237L2.51217 0.995677ZM6.93665 7.41473L8.92236 7.40587L8.91567 5.90588L6.92995 5.91474L6.93665 7.41473ZM2.50331 2.98139C2.49986 3.75554 2.49585 4.39952 2.55218 4.91537C2.61016 5.4463 2.73975 5.93563 3.06872 6.36071L4.25498 5.44267C4.1648 5.32615 4.08659 5.14878 4.04331 4.75253C3.99839 4.34119 3.99968 3.7975 4.00329 2.98808L2.50331 2.98139ZM6.92995 5.91474C6.12054 5.91835 5.57685 5.91964 5.16551 5.87472C4.76925 5.83145 4.59189 5.75323 4.47536 5.66306L3.55733 6.84931C3.98241 7.17828 4.47174 7.30788 5.00267 7.36586C5.51851 7.42219 6.1625 7.41818 6.93665 7.41473L6.92995 5.91474ZM21.4063 22.9219L21.4152 20.9362L19.9152 20.9295L19.9063 22.9153L21.4063 22.9219ZM16.9818 16.5029L14.9961 16.5118L15.0028 18.0117L16.9885 18.0029L16.9818 16.5029ZM21.4152 20.9362C21.4186 20.1621 21.4226 19.5181 21.3663 19.0023C21.3083 18.4713 21.1787 17.982 20.8498 17.5569L19.6635 18.4749C19.7537 18.5915 19.8319 18.7688 19.8752 19.1651C19.9201 19.5764 19.9188 20.1201 19.9152 20.9295L21.4152 20.9362ZM16.9885 18.0029C17.7979 17.9993 18.3416 17.998 18.753 18.0429C19.1492 18.0862 19.3266 18.1644 19.4431 18.2546L20.3612 17.0683C19.9361 16.7393 19.4467 16.6097 18.9158 16.5518C18.4 16.4954 17.756 16.4994 16.9818 16.5029L16.9885 18.0029ZM3.06872 6.36071C3.13994 6.45274 3.21689 6.54003 3.29908 6.62208L4.35888 5.56057C4.32182 5.52356 4.28711 5.48419 4.25498 5.44267L3.06872 6.36071ZM3.29908 6.62208C3.38023 6.7031 3.46647 6.779 3.55732 6.84931L4.47537 5.66306C4.43437 5.63134 4.39548 5.5971 4.35888 5.56057L3.29908 6.62208ZM3.85988 4.97854L3.28898 5.57084L4.36898 6.61181L4.93988 6.0195L3.85988 4.97854ZM20.8498 17.5569C20.788 17.4771 20.7219 17.4009 20.6519 17.3285L19.5743 18.3719C19.6058 18.4046 19.6356 18.439 19.6635 18.4749L20.8498 17.5569ZM20.6519 17.3285C20.5614 17.2351 20.4643 17.1481 20.3612 17.0683L19.4431 18.2546C19.4896 18.2906 19.5334 18.3298 19.5743 18.3719L20.6519 17.3285ZM20.1869 18.9648L20.7009 18.316L19.5252 17.3845L19.0112 18.0332L20.1869 18.9648Z" fill="black"/>
</g>
<defs>
<clipPath id="clip0_0_1">
<rect width="24" height="24" fill="black" transform="translate(-0.000244141 -0.000976562)"/>
</clipPath>
</defs>
</svg>
