<svg width="24" height="24" viewBox="0 0 24 24" fill="none" xmlns="http://www.w3.org/2000/svg">
<g clip-path="url(#clip0_0_1)">
<path d="M1.24978 11.999C1.24978 12.4132 1.58557 12.749 1.99978 12.749C2.41399 12.749 2.74978 12.4132 2.74978 11.999H1.24978ZM22.7498 11.999C22.7498 11.5848 22.414 11.249 21.9998 11.249C21.5856 11.249 21.2498 11.5848 21.2498 11.999H22.7498ZM4.96992 18.0113C4.70054 17.6966 4.22709 17.6599 3.91244 17.9293C3.59778 18.1987 3.56108 18.6721 3.83046 18.9868L4.96992 18.0113ZM19.0296 5.98678C19.299 6.30143 19.7725 6.33813 20.0871 6.06875C20.4018 5.79937 20.4385 5.32592 20.1691 5.01126L19.0296 5.98678ZM21.4058 0.995677C21.4039 0.581468 21.0666 0.247183 20.6524 0.249031C20.2382 0.250879 19.9039 0.58816 19.9058 1.00237L21.4058 0.995677ZM20.6646 2.98473L21.4146 2.98139L21.4146 2.98139L20.6646 2.98473ZM16.9846 6.66473L16.9813 7.41473L16.9813 7.41473L16.9846 6.66473ZM15.0023 5.90588C14.5881 5.90403 14.2508 6.23832 14.2489 6.65253C14.2471 7.06674 14.5814 7.40402 14.9956 7.40587L15.0023 5.90588ZM20.2561 5.90169L20.8492 6.36071L20.8492 6.36071L20.2561 5.90169ZM19.9016 6.25619L20.3606 6.84931L20.3606 6.84931L19.9016 6.25619ZM2.51163 22.9219C2.51348 23.3362 2.85076 23.6704 3.26497 23.6686C3.67918 23.6667 4.01346 23.3295 4.01161 22.9153L2.51163 22.9219ZM3.25276 20.9329L2.50277 20.9362L2.50277 20.9362L3.25276 20.9329ZM6.93276 17.2529L6.93611 16.5029L6.93611 16.5029L6.93276 17.2529ZM8.91513 18.0117C9.32934 18.0136 9.66662 17.6793 9.66847 17.2651C9.67031 16.8509 9.33603 16.5136 8.92182 16.5118L8.91513 18.0117ZM3.66131 18.0159L3.06818 17.5569L3.06818 17.5569L3.66131 18.0159ZM4.01581 17.6614L3.55679 17.0683L3.55679 17.0683L4.01581 17.6614ZM11.9998 1.24902C6.06272 1.24902 1.24978 6.06196 1.24978 11.999H2.74978C2.74978 6.89039 6.89114 2.74902 11.9998 2.74902V1.24902ZM11.9998 22.749C17.9368 22.749 22.7498 17.9361 22.7498 11.999H21.2498C21.2498 17.1076 17.1084 21.249 11.9998 21.249V22.749ZM3.83046 18.9868C5.80095 21.2884 8.73019 22.749 11.9998 22.749V21.249C9.18675 21.249 6.66759 19.9942 4.96992 18.0113L3.83046 18.9868ZM20.1691 5.01126C18.1986 2.7096 15.2694 1.24902 11.9998 1.24902V2.74902C14.8128 2.74902 17.332 4.00379 19.0296 5.98678L20.1691 5.01126ZM19.9058 1.00237L19.9146 2.98808L21.4146 2.98139L21.4058 0.995677L19.9058 1.00237ZM16.988 5.91474L15.0023 5.90588L14.9956 7.40587L16.9813 7.41473L16.988 5.91474ZM19.9146 2.98808C19.9183 3.7975 19.9195 4.34119 19.8746 4.75253C19.8314 5.14878 19.7531 5.32615 19.663 5.44267L20.8492 6.36071C21.1782 5.93563 21.3078 5.4463 21.3658 4.91537C21.4221 4.39952 21.4181 3.75554 21.4146 2.98139L19.9146 2.98808ZM16.9813 7.41473C17.7554 7.41818 18.3994 7.42219 18.9153 7.36586C19.4462 7.30788 19.9355 7.17828 20.3606 6.84931L19.4426 5.66306C19.3261 5.75323 19.1487 5.83145 18.7524 5.87472C18.3411 5.91964 17.7974 5.91835 16.988 5.91474L16.9813 7.41473ZM19.663 5.44267C19.5991 5.52517 19.5251 5.59921 19.4426 5.66306L20.3606 6.84931C20.5435 6.70777 20.7077 6.54361 20.8492 6.36071L19.663 5.44267ZM4.01161 22.9153L4.00276 20.9295L2.50277 20.9362L2.51163 22.9219L4.01161 22.9153ZM6.92941 18.0029L8.91513 18.0117L8.92182 16.5118L6.93611 16.5029L6.92941 18.0029ZM4.00276 20.9295C3.99914 20.1201 3.99785 19.5764 4.04277 19.1651C4.08605 18.7688 4.16426 18.5915 4.25444 18.4749L3.06818 17.5569C2.73921 17.982 2.60962 18.4713 2.55164 19.0023C2.49531 19.5181 2.49932 20.1621 2.50277 20.9362L4.00276 20.9295ZM6.93611 16.5029C6.16196 16.4994 5.51797 16.4954 5.00213 16.5518C4.4712 16.6097 3.98187 16.7393 3.55679 17.0683L4.47483 18.2546C4.59135 18.1644 4.76871 18.0862 5.16497 18.0429C5.57631 17.998 6.12 17.9993 6.92942 18.0029L6.93611 16.5029ZM4.25444 18.4749C4.31829 18.3924 4.39232 18.3184 4.47483 18.2546L3.55679 17.0683C3.37389 17.2098 3.20973 17.374 3.06818 17.5569L4.25444 18.4749Z" fill="black"/>
</g>
<defs>
<clipPath id="clip0_0_1">
<rect width="24" height="24" fill="black" transform="translate(-0.000244141 -0.000976562)"/>
</clipPath>
</defs>
</svg>
