<svg width="24" height="24" viewBox="0 0 24 24" fill="none" xmlns="http://www.w3.org/2000/svg">
<path d="M3.53097 15.7765C3.65897 16.1704 4.08208 16.386 4.47602 16.258C4.86996 16.13 5.08555 15.7069 4.95755 15.313L3.53097 15.7765ZM19.7548 15.5447L19.0415 15.313L19.0415 15.313L19.7548 15.5447ZM16.5446 18.7549L16.3129 18.0416L16.3129 18.0417L16.5446 18.7549ZM20.4681 8.22281C20.3401 7.82887 19.917 7.61329 19.5231 7.74129C19.1291 7.86928 18.9135 8.2924 19.0415 8.68634L20.4681 8.22281ZM7.45446 5.24438L7.22269 4.53109L7.22269 4.53109L7.45446 5.24438ZM4.24426 8.45458L3.53097 8.22282L3.53097 8.22282L4.24426 8.45458ZM15.7799 2.46933C15.487 2.17644 15.0121 2.17644 14.7192 2.46933C14.4263 2.76223 14.4263 3.2371 14.7192 3.52999L15.7799 2.46933ZM16.4752 4.22536L17.0056 3.69503L17.0056 3.69503L16.4752 4.22536ZM16.4083 5.70069L15.9282 5.12452L15.9282 5.12452L16.4083 5.70069ZM14.5194 6.2985C14.2012 6.56367 14.1582 7.03659 14.4234 7.3548C14.6885 7.67301 15.1615 7.716 15.4797 7.45083L14.5194 6.2985ZM9.52987 17.53C9.82276 17.2371 9.82276 16.7622 9.52987 16.4693C9.23698 16.1764 8.7621 16.1764 8.46921 16.4693L9.52987 17.53ZM7.77385 18.2254L8.30418 18.7557L8.30418 18.7557L7.77385 18.2254ZM7.84077 19.7007L7.36063 20.2768L7.84077 19.7007ZM8.7694 21.4508C9.08761 21.716 9.56053 21.673 9.82571 21.3548C10.0909 21.0366 10.0479 20.5637 9.72968 20.2985L8.7694 21.4508ZM7.49447 18.7677L6.75457 18.645L6.75457 18.645L7.49447 18.7677ZM12.9995 18.2497H10.9995V19.7497H12.9995V18.2497ZM3.24954 11.9997C3.24954 13.8026 3.24029 14.8819 3.53097 15.7765L4.95755 15.313C4.75879 14.7013 4.74954 13.9193 4.74954 11.9997H3.24954ZM19.2495 11.9997C19.2495 13.9193 19.2403 14.7013 19.0415 15.313L20.4681 15.7765C20.7588 14.8819 20.7495 13.8026 20.7495 11.9997H19.2495ZM12.9995 19.7497C14.8024 19.7497 15.8818 19.7589 16.7764 19.4682L16.3129 18.0417C15.7011 18.2404 14.9192 18.2497 12.9995 18.2497V19.7497ZM19.0415 15.313C18.6211 16.6068 17.6067 17.6212 16.3129 18.0416L16.7764 19.4682C18.5269 18.8995 19.8993 17.527 20.4681 15.7765L19.0415 15.313ZM20.7495 11.9997C20.7495 10.1968 20.7588 9.11743 20.4681 8.22281L19.0415 8.68634C19.2403 9.29805 19.2495 10.08 19.2495 11.9997H20.7495ZM10.9995 4.24966C9.19663 4.24966 8.11731 4.24041 7.22269 4.53109L7.68622 5.95767C8.29793 5.75892 9.07988 5.74966 10.9995 5.74966V4.24966ZM4.74954 11.9997C4.74954 10.08 4.75879 9.29805 4.95755 8.68634L3.53097 8.22282C3.24029 9.11743 3.24954 10.1968 3.24954 11.9997H4.74954ZM7.22269 4.53109C5.47218 5.09987 4.09974 6.4723 3.53097 8.22282L4.95755 8.68634C5.37795 7.39248 6.39236 6.37807 7.68622 5.95767L7.22269 4.53109ZM14.7192 3.52999L15.9449 4.75569L17.0056 3.69503L15.7799 2.46933L14.7192 3.52999ZM15.9282 5.12452L14.5194 6.2985L15.4797 7.45083L16.8884 6.27685L15.9282 5.12452ZM8.46921 16.4693L7.24352 17.695L8.30418 18.7557L9.52987 17.53L8.46921 16.4693ZM7.36063 20.2768L8.7694 21.4508L9.72968 20.2985L8.32091 19.1245L7.36063 20.2768ZM10.9995 5.74966H16.4995V4.24966H10.9995V5.74966ZM15.9449 4.75569C15.9984 4.80916 16.0223 4.87842 16.0176 4.94939L17.5142 5.04993C17.5466 4.56736 17.3791 4.0686 17.0056 3.69503L15.9449 4.75569ZM16.0176 4.94939C16.0131 5.01625 15.9834 5.07847 15.9282 5.12452L16.8884 6.27685C17.2727 5.95663 17.4834 5.50747 17.5142 5.04993L16.0176 4.94939ZM16.4995 5.74966H16.7659V4.24966H16.4995V5.74966ZM7.24352 17.695C6.97526 17.9633 6.81213 18.2978 6.75457 18.645L8.23437 18.8903C8.24246 18.8415 8.2647 18.7952 8.30418 18.7557L7.24352 17.695ZM6.75457 18.645C6.65728 19.2318 6.86186 19.8612 7.36063 20.2768L8.32091 19.1245C8.25052 19.0659 8.2199 18.9776 8.23437 18.8903L6.75457 18.645ZM10.9995 18.2497C9.11491 18.2497 8.32715 18.2411 7.71712 18.0515L7.27182 19.4839C8.15431 19.7582 9.22725 19.7497 10.9995 19.7497V18.2497Z" fill="black"/>
</svg>
