<svg width="24" height="24" viewBox="0 0 24 24" fill="none" xmlns="http://www.w3.org/2000/svg">
<path d="M3.53086 15.7767C3.65886 16.1706 4.08198 16.3862 4.47592 16.2582C4.86986 16.1302 5.08544 15.7071 4.95744 15.3131L3.53086 15.7767ZM7.45435 5.24453L7.22259 4.53124L7.45435 5.24453ZM4.24415 8.45473L4.95744 8.68649L4.24415 8.45473ZM11.2644 2.32956C10.9633 2.04515 10.4886 2.05871 10.2042 2.35985C9.91976 2.66099 9.93333 3.13567 10.2345 3.42008L11.2644 2.32956ZM11.5454 3.62657L11.0304 4.17183L11.0304 4.17183L11.5454 3.62657ZM19.468 7.76806C19.34 7.37412 18.9169 7.15853 18.5229 7.28653C18.129 7.41453 17.9134 7.83764 18.0414 8.23158L19.468 7.76806ZM15.5445 18.3002L15.3128 17.5869L15.3128 17.5869L15.5445 18.3002ZM18.7547 15.09L18.0414 14.8582L18.0414 14.8582L18.7547 15.09ZM11.7345 21.2152C12.0356 21.4996 12.5103 21.486 12.7947 21.1849C13.0791 20.8837 13.0655 20.409 12.7644 20.1246L11.7345 21.2152ZM11.4535 19.9181L11.9684 19.3729L11.9684 19.3729L11.4535 19.9181ZM11.9994 9.41403L12.7494 9.41403L12.7494 9.41403L11.9994 9.41403ZM11.2494 14.9998C11.2494 15.414 11.5852 15.7498 11.9994 15.7498C12.4136 15.7498 12.7494 15.414 12.7494 14.9998H11.2494ZM10.9994 8.99981L11.5298 9.53014L11.5298 9.53014L10.9994 8.99981ZM9.4691 9.46948C9.17621 9.76238 9.17621 10.2373 9.4691 10.5301C9.762 10.823 10.2369 10.823 10.5298 10.5301L9.4691 9.46948ZM3.24944 11.9998C3.24944 13.8027 3.24018 14.882 3.53086 15.7767L4.95744 15.3131C4.75869 14.7014 4.74944 13.9195 4.74944 11.9998H3.24944ZM10.9994 4.24982C9.19653 4.24982 8.1172 4.24056 7.22259 4.53124L7.68611 5.95783C8.29782 5.75907 9.07978 5.74982 10.9994 5.74982V4.24982ZM4.74944 11.9998C4.74944 10.0802 4.75869 9.2982 4.95744 8.68649L3.53086 8.22297C3.24018 9.11758 3.24944 10.1969 3.24944 11.9998H4.74944ZM7.22259 4.53124C5.47207 5.10002 4.09964 6.47245 3.53086 8.22297L4.95744 8.68649C5.37785 7.39263 6.39225 6.37823 7.68611 5.95783L7.22259 4.53124ZM10.2345 3.42008L11.0304 4.17183L12.0604 3.08131L11.2644 2.32956L10.2345 3.42008ZM10.9994 5.74982C12.3974 5.74982 13.0767 4.04119 12.0604 3.08131L11.0304 4.17183C11.0397 4.18061 11.043 4.18625 11.0439 4.18789C11.0449 4.18974 11.0454 4.19109 11.0457 4.19269C11.0465 4.19671 11.047 4.20729 11.0414 4.22134C11.0358 4.23539 11.0282 4.24274 11.0249 4.24514C11.0235 4.24609 11.0223 4.24676 11.0203 4.24741C11.0185 4.24798 11.0122 4.24982 10.9994 4.24982V5.74982ZM19.7494 11.5449C19.7494 9.742 19.7587 8.66267 19.468 7.76806L18.0414 8.23158C18.2402 8.84329 18.2494 9.62525 18.2494 11.5449H19.7494ZM11.9994 19.2949C13.8023 19.2949 14.8817 19.3042 15.7763 19.0135L15.3128 17.5869C14.701 17.7856 13.9191 17.7949 11.9994 17.7949V19.2949ZM18.2494 11.5449C18.2494 13.4645 18.2402 14.2465 18.0414 14.8582L19.468 15.3217C19.7587 14.4271 19.7494 13.3478 19.7494 11.5449H18.2494ZM15.7763 19.0135C17.5268 18.4447 18.8992 17.0723 19.468 15.3217L18.0414 14.8582C17.621 16.1521 16.6066 17.1665 15.3128 17.5869L15.7763 19.0135ZM12.7644 20.1246L11.9684 19.3729L10.9385 20.4634L11.7345 21.2152L12.7644 20.1246ZM11.9994 17.7949C10.6015 17.7949 9.92215 19.5035 10.9385 20.4634L11.9684 19.3729C11.9591 19.3641 11.9558 19.3585 11.9549 19.3568C11.9539 19.355 11.9535 19.3536 11.9532 19.352C11.9524 19.348 11.9519 19.3374 11.9575 19.3234C11.9631 19.3093 11.9707 19.302 11.974 19.2996C11.9753 19.2986 11.9766 19.298 11.9786 19.2973C11.9804 19.2967 11.9866 19.2949 11.9994 19.2949V17.7949ZM11.2494 9.41403V14.9998H12.7494V9.41403H11.2494ZM10.4691 8.46948L9.4691 9.46948L10.5298 10.5301L11.5298 9.53014L10.4691 8.46948ZM12.7494 9.41403C12.7494 8.22397 11.3106 7.62799 10.4691 8.46948L11.5298 9.53014C11.5114 9.54854 11.479 9.5676 11.4394 9.57446C11.4039 9.5806 11.3737 9.57523 11.3508 9.56574C11.3279 9.55625 11.3027 9.5387 11.282 9.50927C11.2589 9.47644 11.2494 9.44005 11.2494 9.41403L12.7494 9.41403Z" fill="black"/>
</svg>
