<svg width="24" height="24" viewBox="0 0 24 24" fill="none" xmlns="http://www.w3.org/2000/svg">
<path d="M4.61041 15.7507C4.72418 16.1008 5.10028 16.2925 5.45045 16.1787C5.80062 16.0649 5.99226 15.6888 5.87848 15.3386L4.61041 15.7507ZM8.45464 5.24429L8.24863 4.61025L8.24863 4.61025L8.45464 5.24429ZM5.24444 8.45449L4.61041 8.24847L4.61041 8.24847L5.24444 8.45449ZM12.4711 17.471C12.7315 17.2106 12.7315 16.7885 12.4711 16.5282C12.2108 16.2678 11.7887 16.2678 11.5283 16.5282L12.4711 17.471ZM10.774 18.2253L11.2454 18.6967L11.2454 18.6967L10.774 18.2253ZM10.841 19.7006L10.4142 20.2127L10.4142 20.2127L10.841 19.7006ZM11.8229 21.3867C12.1058 21.6224 12.5262 21.5842 12.7619 21.3014C12.9976 21.0185 12.9594 20.5981 12.6765 20.3624L11.8229 21.3867ZM13.7211 2.52817C13.4608 2.26782 13.0387 2.26782 12.7783 2.52817C12.518 2.78852 12.518 3.21063 12.7783 3.47098L13.7211 2.52817ZM14.4754 4.22527L14.9468 3.75386L14.9468 3.75386L14.4754 4.22527ZM14.4085 5.70059L13.9817 5.18845L13.9817 5.18845L14.4085 5.70059ZM12.5729 6.36242C12.2901 6.59813 12.2519 7.01851 12.4876 7.30136C12.7233 7.58421 13.1437 7.62243 13.4265 7.38672L12.5729 6.36242ZM12.9997 18.9996L12.9997 19.6662L12.9997 19.6662L12.9997 18.9996ZM20.3915 7.80131C20.282 7.44978 19.9083 7.25357 19.5567 7.36307C19.2052 7.47256 19.009 7.8463 19.1185 8.19783L20.3915 7.80131ZM16.5448 18.7443L16.7588 19.3757L16.7588 19.3757L16.5448 18.7443ZM19.755 15.3956L20.3915 15.5939L20.3915 15.5939L19.755 15.3956ZM11.9997 5.66624H13.9997V4.33291H11.9997V5.66624ZM4.33306 11.9996C4.33306 13.809 4.32483 14.8718 4.61041 15.7507L5.87848 15.3386C5.67462 14.7112 5.66639 13.9127 5.66639 11.9996H4.33306ZM11.9997 4.33291C10.1903 4.33291 9.12753 4.32468 8.24863 4.61025L8.66065 5.87833C9.28808 5.67446 10.0866 5.66624 11.9997 5.66624V4.33291ZM5.66639 11.9996C5.66639 10.0864 5.67462 9.28792 5.87848 8.6605L4.61041 8.24847C4.32483 9.12737 4.33306 10.1902 4.33306 11.9996H5.66639ZM8.24863 4.61025C6.52348 5.17079 5.17094 6.52333 4.61041 8.24847L5.87848 8.6605C6.30712 7.34127 7.34142 6.30697 8.66065 5.87833L8.24863 4.61025ZM11.5283 16.5282L10.3026 17.7539L11.2454 18.6967L12.4711 17.471L11.5283 16.5282ZM10.4142 20.2127L11.8229 21.3867L12.6765 20.3624L11.2677 19.1884L10.4142 20.2127ZM12.7783 3.47098L14.004 4.69667L14.9468 3.75386L13.7211 2.52817L12.7783 3.47098ZM13.9817 5.18845L12.5729 6.36242L13.4265 7.38672L14.8353 6.21274L13.9817 5.18845ZM12.9997 18.3329H10.9997V19.6662H12.9997V18.3329ZM20.6664 11.6976C20.6664 9.80601 20.674 8.70825 20.3915 7.80131L19.1185 8.19783C19.3254 8.86219 19.3331 9.70601 19.3331 11.6976L20.6664 11.6976ZM12.9997 19.6662C14.8072 19.6662 15.8754 19.6751 16.7588 19.3757L16.3308 18.1129C15.7079 18.324 14.9148 18.3329 12.9997 18.3329L12.9997 19.6662ZM19.3331 11.6976C19.3331 13.6892 19.3254 14.533 19.1185 15.1973L20.3915 15.5939C20.674 14.6869 20.6664 13.5892 20.6664 11.6976L19.3331 11.6976ZM16.7588 19.3757C18.4912 18.7885 19.8361 17.377 20.3915 15.5939L19.1185 15.1973C18.6847 16.5899 17.6428 17.6682 16.3308 18.1129L16.7588 19.3757ZM10.3026 17.7539C9.94683 18.1096 9.78734 18.5845 9.81823 19.0443L11.1486 18.9549C11.1423 18.861 11.1742 18.7679 11.2454 18.6967L10.3026 17.7539ZM9.81823 19.0443C9.8475 19.4801 10.0482 19.9078 10.4142 20.2127L11.2677 19.1884C11.1942 19.1272 11.1545 19.0434 11.1486 18.9549L9.81823 19.0443ZM10.9997 18.3329H10.4834V19.6662H10.9997V18.3329ZM14.004 4.69667C14.0753 4.76793 14.1072 4.86105 14.1009 4.95489L15.4312 5.04426C15.4621 4.58455 15.3026 4.10965 14.9468 3.75386L14.004 4.69667ZM14.1009 4.95489C14.0949 5.04344 14.0552 5.12717 13.9817 5.18845L14.8353 6.21274C15.2013 5.90775 15.4019 5.48008 15.4312 5.04426L14.1009 4.95489ZM13.9997 5.66624H14.7661V4.33291H13.9997V5.66624Z" fill="black"/>
</svg>
