<svg width="24" height="24" viewBox="0 0 24 24" fill="none" xmlns="http://www.w3.org/2000/svg">
<path d="M11.9996 9.41378L12.7496 9.41378L12.7496 9.41378L11.9996 9.41378ZM11.2496 14.9996C11.2496 15.4138 11.5854 15.7496 11.9996 15.7496C12.4138 15.7496 12.7496 15.4138 12.7496 14.9996H11.2496ZM10.9996 8.99957L11.5299 9.5299L11.5299 9.5299L10.9996 8.99957ZM9.46927 9.46924C9.17638 9.76213 9.17638 10.237 9.46927 10.5299C9.76216 10.8228 10.237 10.8228 10.5299 10.5299L9.46927 9.46924ZM9.13014 18.9828L9.10507 19.7324L9.10507 19.7324L9.13014 18.9828ZM3.53103 15.7764C3.65903 16.1704 4.08214 16.3859 4.47608 16.2579C4.87002 16.1299 5.08561 15.7068 4.95761 15.3129L3.53103 15.7764ZM19.7549 15.5447L19.0416 15.3129L19.0416 15.3129L19.7549 15.5447ZM16.5447 18.7548L16.3129 18.0416L16.3129 18.0416L16.5447 18.7548ZM20.4682 8.22272C20.3402 7.82878 19.9171 7.61319 19.5231 7.74119C19.1292 7.86919 18.9136 8.29231 19.0416 8.68625L20.4682 8.22272ZM7.45452 5.24429L7.22275 4.531L7.45452 5.24429ZM4.24432 8.45449L3.53103 8.22272L3.53103 8.22272L4.24432 8.45449ZM15.2496 3.99957L14.7811 4.58522L14.7811 4.58522L15.2496 3.99957ZM14.4681 2.41392C14.1447 2.15516 13.6727 2.20761 13.4139 2.53105C13.1552 2.8545 13.2076 3.32647 13.5311 3.58522L14.4681 2.41392ZM9.5035 21.562C9.81415 21.836 10.2881 21.8063 10.5621 21.4957C10.8361 21.185 10.8063 20.7111 10.4957 20.4371L9.5035 21.562ZM8.72706 19.8772L8.23096 20.4397L8.23096 20.4397L8.72706 19.8772ZM11.2496 9.41378V14.9996H12.7496V9.41378H11.2496ZM10.4693 8.46924L9.46927 9.46924L10.5299 10.5299L11.5299 9.5299L10.4693 8.46924ZM12.7496 9.41378C12.7496 8.22373 11.3108 7.62774 10.4693 8.46924L11.5299 9.5299C11.5115 9.5483 11.4791 9.56736 11.4396 9.57421C11.4041 9.58036 11.3739 9.57499 11.351 9.5655C11.3281 9.556 11.3029 9.53846 11.2822 9.50902C11.259 9.47619 11.2496 9.4398 11.2496 9.41378L12.7496 9.41378ZM12.9996 18.2496H10.9996V19.7496H12.9996V18.2496ZM10.9996 18.2496C10.2332 18.2496 9.64154 18.2495 9.15522 18.2332L9.10507 19.7324C9.62207 19.7497 10.2423 19.7496 10.9996 19.7496V18.2496ZM3.2496 11.9996C3.2496 13.8025 3.24035 14.8818 3.53103 15.7764L4.95761 15.3129C4.75886 14.7012 4.7496 13.9192 4.7496 11.9996H3.2496ZM19.2496 11.9996C19.2496 13.9192 19.2403 14.7012 19.0416 15.3129L20.4682 15.7764C20.7588 14.8818 20.7496 13.8025 20.7496 11.9996H19.2496ZM12.9996 19.7496C14.8025 19.7496 15.8818 19.7588 16.7764 19.4681L16.3129 18.0416C15.7012 18.2403 14.9193 18.2496 12.9996 18.2496V19.7496ZM19.0416 15.3129C18.6212 16.6068 17.6068 17.6212 16.3129 18.0416L16.7764 19.4681C18.527 18.8994 19.8994 17.5269 20.4682 15.7764L19.0416 15.3129ZM20.7496 11.9996C20.7496 10.1967 20.7588 9.11734 20.4682 8.22272L19.0416 8.68625C19.2403 9.29796 19.2496 10.0799 19.2496 11.9996H20.7496ZM10.9996 4.24957C9.19669 4.24957 8.11737 4.24032 7.22275 4.531L7.68628 5.95758C8.29799 5.75882 9.07995 5.74957 10.9996 5.74957V4.24957ZM4.7496 11.9996C4.7496 10.0799 4.75886 9.29796 4.95761 8.68625L3.53103 8.22272C3.24035 9.11734 3.2496 10.1967 3.2496 11.9996H4.7496ZM7.22275 4.531C5.47224 5.09977 4.09981 6.47221 3.53103 8.22272L4.95761 8.68625C5.37801 7.39239 6.39242 6.37798 7.68628 5.95758L7.22275 4.531ZM10.9996 5.74957H14.8988V4.24957H10.9996V5.74957ZM15.7181 3.41392L14.4681 2.41392L13.5311 3.58522L14.7811 4.58522L15.7181 3.41392ZM14.8988 5.74957C16.1386 5.74957 16.6862 4.18839 15.7181 3.41392L14.7811 4.58522C14.7567 4.56572 14.7299 4.52905 14.7178 4.48191C14.707 4.43987 14.7113 4.40333 14.721 4.37566C14.7307 4.34799 14.7502 4.3168 14.7848 4.2907C14.8237 4.26144 14.8676 4.24957 14.8988 4.24957V5.74957ZM10.4957 20.4371L9.22316 19.3147L8.23096 20.4397L9.5035 21.562L10.4957 20.4371ZM9.15522 18.2332C8.52224 18.212 8.14035 18.7046 7.99662 19.0177C7.85702 19.3219 7.71206 19.982 8.23096 20.4397L9.22316 19.3147C9.33517 19.4135 9.36143 19.5324 9.3645 19.5872C9.36719 19.6352 9.35602 19.6519 9.35991 19.6434C9.36327 19.6361 9.36242 19.6447 9.3396 19.6632C9.31613 19.6823 9.23539 19.7367 9.10507 19.7324L9.15522 18.2332Z" fill="black"/>
</svg>
