<svg width="24" height="24" viewBox="0 0 24 24" fill="none" xmlns="http://www.w3.org/2000/svg">
<path d="M11.9998 9.41388L12.7498 9.41388L12.7498 9.41388L11.9998 9.41388ZM11.2498 14.9997C11.2498 15.4139 11.5856 15.7497 11.9998 15.7497C12.414 15.7497 12.7498 15.4139 12.7498 14.9997H11.2498ZM10.9998 8.99966L11.5301 9.52999L11.5301 9.52999L10.9998 8.99966ZM9.46948 9.46933C9.17659 9.76223 9.17659 10.2371 9.46948 10.53C9.76238 10.8229 10.2373 10.8229 10.5301 10.53L9.46948 9.46933ZM7.49475 18.7677L6.75485 18.645L6.75485 18.645L7.49475 18.7677ZM3.53124 15.7765C3.65924 16.1704 4.08236 16.386 4.4763 16.258C4.87024 16.13 5.08583 15.7069 4.95783 15.313L3.53124 15.7765ZM19.7551 15.5447L19.0418 15.313L19.0418 15.313L19.7551 15.5447ZM16.5449 18.7549L16.3131 18.0416L16.3131 18.0417L16.5449 18.7549ZM20.4684 8.22281C20.3404 7.82887 19.9173 7.61329 19.5233 7.74129C19.1294 7.86928 18.9138 8.2924 19.0418 8.68634L20.4684 8.22281ZM7.45473 5.24438L7.22297 4.53109L7.22297 4.53109L7.45473 5.24438ZM4.24453 8.45458L3.53124 8.22282L3.53124 8.22282L4.24453 8.45458ZM15.7801 2.46933C15.4872 2.17644 15.0124 2.17644 14.7195 2.46933C14.4266 2.76223 14.4266 3.2371 14.7195 3.52999L15.7801 2.46933ZM16.4755 4.22536L15.9452 4.75569L15.9452 4.75569L16.4755 4.22536ZM16.4086 5.70069L15.9284 5.12452L15.9284 5.12452L16.4086 5.70069ZM14.5197 6.2985C14.2015 6.56367 14.1585 7.03659 14.4236 7.3548C14.6888 7.67301 15.1617 7.716 15.48 7.45083L14.5197 6.2985ZM9.53014 17.53C9.82304 17.2371 9.82304 16.7622 9.53014 16.4693C9.23725 16.1764 8.76238 16.1764 8.46948 16.4693L9.53014 17.53ZM7.77412 18.2254L8.30445 18.7557L8.30445 18.7557L7.77412 18.2254ZM7.84104 19.7007L8.32118 19.1245L8.32118 19.1245L7.84104 19.7007ZM8.76968 21.4508C9.08788 21.716 9.56081 21.673 9.82598 21.3548C10.0912 21.0366 10.0482 20.5637 9.72995 20.2985L8.76968 21.4508ZM11.2498 9.41388V14.9997H12.7498V9.41388H11.2498ZM10.4695 8.46933L9.46948 9.46933L10.5301 10.53L11.5301 9.52999L10.4695 8.46933ZM12.7498 9.41388C12.7498 8.22382 11.311 7.62783 10.4695 8.46933L11.5301 9.52999C11.5117 9.54839 11.4793 9.56745 11.4398 9.5743C11.4043 9.58045 11.3741 9.57508 11.3512 9.56559C11.3283 9.5561 11.3031 9.53855 11.2824 9.50912C11.2593 9.47628 11.2498 9.43989 11.2498 9.41388L12.7498 9.41388ZM12.9998 18.2497H10.9998V19.7497H12.9998V18.2497ZM10.9998 18.2497C9.11519 18.2497 8.32743 18.2411 7.7174 18.0515L7.2721 19.4839C8.15459 19.7582 9.22753 19.7497 10.9998 19.7497V18.2497ZM3.24982 11.9997C3.24982 13.8026 3.24056 14.8819 3.53124 15.7765L4.95783 15.313C4.75907 14.7013 4.74982 13.9193 4.74982 11.9997H3.24982ZM19.2498 11.9997C19.2498 13.9193 19.2406 14.7013 19.0418 15.313L20.4684 15.7765C20.7591 14.8819 20.7498 13.8026 20.7498 11.9997H19.2498ZM12.9998 19.7497C14.8027 19.7497 15.882 19.7589 16.7767 19.4682L16.3131 18.0417C15.7014 18.2404 14.9195 18.2497 12.9998 18.2497V19.7497ZM19.0418 15.313C18.6214 16.6068 17.607 17.6212 16.3131 18.0416L16.7767 19.4682C18.5272 18.8995 19.8996 17.527 20.4684 15.7765L19.0418 15.313ZM20.7498 11.9997C20.7498 10.1968 20.7591 9.11743 20.4684 8.22281L19.0418 8.68634C19.2406 9.29805 19.2498 10.08 19.2498 11.9997H20.7498ZM10.9998 4.24966C9.19691 4.24966 8.11758 4.24041 7.22297 4.53109L7.68649 5.95767C8.2982 5.75892 9.08016 5.74966 10.9998 5.74966V4.24966ZM4.74982 11.9997C4.74982 10.08 4.75907 9.29805 4.95783 8.68634L3.53124 8.22282C3.24056 9.11743 3.24982 10.1968 3.24982 11.9997H4.74982ZM7.22297 4.53109C5.47245 5.09987 4.10002 6.4723 3.53124 8.22282L4.95783 8.68634C5.37823 7.39248 6.39263 6.37807 7.68649 5.95767L7.22297 4.53109ZM14.7195 3.52999L15.9452 4.75569L17.0058 3.69503L15.7801 2.46933L14.7195 3.52999ZM15.9284 5.12452L14.5197 6.2985L15.48 7.45083L16.8887 6.27685L15.9284 5.12452ZM8.46948 16.4693L7.24379 17.695L8.30445 18.7557L9.53014 17.53L8.46948 16.4693ZM7.3609 20.2768L8.76968 21.4508L9.72995 20.2985L8.32118 19.1245L7.3609 20.2768ZM7.24379 17.695C6.97553 17.9633 6.81241 18.2978 6.75485 18.645L8.23465 18.8903C8.24274 18.8415 8.26499 18.7951 8.30445 18.7557L7.24379 17.695ZM6.75485 18.645C6.65756 19.2318 6.86214 19.8612 7.36091 20.2768L8.32118 19.1245C8.2508 19.0659 8.22018 18.9776 8.23465 18.8903L6.75485 18.645ZM10.9998 5.74966H16.4998V4.24966H10.9998V5.74966ZM15.9452 4.75569C15.9987 4.80916 16.0226 4.87842 16.0178 4.94939L17.5145 5.04993C17.5469 4.56736 17.3794 4.0686 17.0058 3.69503L15.9452 4.75569ZM16.0178 4.94939C16.0133 5.01625 15.9837 5.07847 15.9284 5.12452L16.8887 6.27685C17.273 5.95663 17.4837 5.50747 17.5145 5.04993L16.0178 4.94939ZM16.4998 5.74966H16.7661V4.24966H16.4998V5.74966Z" fill="black"/>
</svg>
