<svg width="24" height="24" viewBox="0 0 24 24" fill="none" xmlns="http://www.w3.org/2000/svg">
<path d="M4.24995 20.9996C4.24995 21.4138 4.58574 21.7496 4.99995 21.7496C5.41417 21.7496 5.74995 21.4138 5.74995 20.9996L4.24995 20.9996ZM18.2188 6.28667L17.7939 5.66864L17.7939 5.66864L18.2188 6.28667ZM17.9376 6.48002L18.3625 7.09805L18.3625 7.09805L17.9376 6.48002ZM17.9376 10.5192L18.3625 9.90121L18.3625 9.90121L17.9376 10.5192ZM18.2188 10.7126L17.7939 11.3306L17.7939 11.3306L18.2188 10.7126ZM5.74995 20.9996L5.74995 4.99963L4.24996 4.99963L4.24995 20.9996L5.74995 20.9996ZM6.99995 3.74963H17.1979V2.24963H6.99995V3.74963ZM17.1979 13.2496H4.99996V14.7496H17.1979V13.2496ZM17.7939 5.66864L17.5127 5.86199L18.3625 7.09805L18.6437 6.9047L17.7939 5.66864ZM17.5127 11.1373L17.7939 11.3306L18.6437 10.0946L18.3625 9.90121L17.5127 11.1373ZM17.7939 11.3306C18.0794 11.5269 18.25 11.8511 18.25 12.1976H19.7499C19.7499 11.3572 19.3362 10.5707 18.6437 10.0946L17.7939 11.3306ZM18.25 4.80169C18.25 5.14813 18.0794 5.47237 17.7939 5.66864L18.6437 6.9047C19.3362 6.4286 19.7499 5.64208 19.7499 4.80169H18.25ZM17.5127 5.86199C15.6627 7.13384 15.6627 9.86542 17.5127 11.1373L18.3625 9.90121C17.3794 9.22538 17.3794 7.77388 18.3625 7.09805L17.5127 5.86199ZM17.1979 14.7496C18.6074 14.7496 19.7499 13.607 19.7499 12.1976H18.25C18.25 12.7786 17.7789 13.2496 17.1979 13.2496V14.7496ZM17.1979 3.74963C17.7789 3.74963 18.25 4.22066 18.25 4.80169H19.7499C19.7499 3.39223 18.6074 2.24963 17.1979 2.24963V3.74963ZM5.74995 4.99963C5.74995 4.50703 5.75155 4.21302 5.77988 4.0023C5.79286 3.90574 5.80815 3.85738 5.81711 3.8356C5.81919 3.83055 5.82081 3.82724 5.82182 3.8253C5.82281 3.8234 5.82337 3.82255 5.82342 3.82247C5.82347 3.8224 5.82331 3.82264 5.82303 3.82298C5.82274 3.82333 5.82272 3.82331 5.82318 3.82286L4.76252 2.7622C4.4535 3.07122 4.34105 3.44695 4.29325 3.80243C4.24836 4.13633 4.24996 4.54943 4.24996 4.99963L5.74995 4.99963ZM6.99995 2.24963C6.54975 2.24963 6.13665 2.24804 5.80275 2.29293C5.44727 2.34073 5.07154 2.45317 4.76252 2.7622L5.82318 3.82286C5.82363 3.8224 5.82365 3.82242 5.82331 3.8227C5.82296 3.82299 5.82272 3.82314 5.82279 3.8231C5.82287 3.82305 5.82372 3.82249 5.82563 3.82149C5.82756 3.82048 5.83087 3.81887 5.83592 3.81679C5.8577 3.80783 5.90606 3.79254 6.00262 3.77956C6.21334 3.75123 6.50735 3.74963 6.99995 3.74963V2.24963Z" fill="black"/>
</svg>
