<svg width="24" height="24" viewBox="0 0 24 24" fill="none" xmlns="http://www.w3.org/2000/svg">
<path d="M5.06066 20.0441L5.5015 19.4373L5.06066 20.0441ZM3.9545 18.9379L4.56127 18.4971L3.9545 18.9379ZM20.0447 18.9379L19.4379 18.4971L20.0447 18.9379ZM18.9385 20.0441L18.4977 19.4373L18.9385 20.0441ZM18.9385 3.95394L18.4977 4.5607L18.9385 3.95394ZM20.0447 5.0601L19.4379 5.50094L20.0447 5.0601ZM5.06066 3.95394L5.5015 4.5607L5.06066 3.95394ZM3.9545 5.0601L4.56127 5.50094L3.9545 5.0601ZM7.99958 11.249C7.58537 11.249 7.24959 11.5848 7.24959 11.999C7.24959 12.4132 7.58537 12.749 7.99959 12.749L7.99958 11.249ZM15.1996 11.999L15.1996 11.249L15.1996 11.249L15.1996 11.999ZM13.3275 7.46633C13.0333 7.17475 12.5585 7.17687 12.2669 7.47106C11.9753 7.76526 11.9774 8.24013 12.2716 8.53171L13.3275 7.46633ZM14.21 9.39687L13.682 9.92956L13.682 9.92956L14.21 9.39687ZM14.21 14.6012L13.682 14.0685L13.682 14.0685L14.21 14.6012ZM12.2716 15.4663C11.9774 15.7579 11.9753 16.2328 12.2669 16.527C12.5585 16.8212 13.0333 16.8233 13.3275 16.5317L12.2716 15.4663ZM15.9837 11.7484L16.7277 11.6535L16.7277 11.6535L15.9837 11.7484ZM15.9837 12.2497L16.7277 12.3445L16.7277 12.3445L15.9837 12.2497ZM15.9996 11.999L16.7496 11.999L15.9996 11.999ZM11.9996 20.249C10.108 20.249 8.74958 20.248 7.69763 20.134C6.65972 20.0216 6.0095 19.8064 5.5015 19.4373L4.61982 20.6509C5.42615 21.2367 6.37053 21.499 7.53606 21.6253C8.68756 21.75 10.1414 21.749 11.9996 21.749V20.249ZM2.24959 11.999C2.24959 13.8572 2.24856 15.311 2.37332 16.4625C2.49959 17.6281 2.76191 18.5725 3.34774 19.3788L4.56127 18.4971C4.19218 17.9891 3.97704 17.3389 3.86459 16.301C3.75062 15.249 3.74959 13.8906 3.74959 11.999H2.24959ZM5.5015 19.4373C5.1407 19.1752 4.8234 18.8579 4.56127 18.4971L3.34774 19.3788C3.7024 19.8669 4.13168 20.2962 4.61982 20.6509L5.5015 19.4373ZM20.2496 11.999C20.2496 13.8906 20.2486 15.249 20.1346 16.301C20.0221 17.3389 19.807 17.9891 19.4379 18.4971L20.6514 19.3788C21.2373 18.5725 21.4996 17.6281 21.6259 16.4625C21.7506 15.311 21.7496 13.8572 21.7496 11.999H20.2496ZM11.9996 21.749C13.8577 21.749 15.3116 21.75 16.4631 21.6253C17.6286 21.499 18.573 21.2367 19.3793 20.6509L18.4977 19.4373C17.9897 19.8064 17.3394 20.0216 16.3015 20.134C15.2496 20.248 13.8912 20.249 11.9996 20.249V21.749ZM19.4379 18.4971C19.1758 18.8579 18.8585 19.1752 18.4977 19.4373L19.3793 20.6509C19.8675 20.2962 20.2968 19.8669 20.6514 19.3788L19.4379 18.4971ZM11.9996 3.74902C13.8912 3.74902 15.2496 3.75005 16.3015 3.86402C17.3394 3.97647 17.9897 4.19161 18.4977 4.5607L19.3793 3.34718C18.573 2.76135 17.6286 2.49903 16.4631 2.37275C15.3116 2.24799 13.8577 2.24902 11.9996 2.24902V3.74902ZM21.7496 11.999C21.7496 10.1409 21.7506 8.687 21.6259 7.5355C21.4996 6.36996 21.2373 5.42558 20.6514 4.61926L19.4379 5.50094C19.807 6.00894 20.0221 6.65916 20.1346 7.69707C20.2486 8.74901 20.2496 10.1074 20.2496 11.999H21.7496ZM18.4977 4.5607C18.8585 4.82284 19.1758 5.14013 19.4379 5.50094L20.6514 4.61926C20.2968 4.13111 19.8675 3.70183 19.3793 3.34718L18.4977 4.5607ZM11.9996 2.24902C10.1414 2.24902 8.68756 2.24799 7.53606 2.37275C6.37053 2.49903 5.42615 2.76135 4.61982 3.34718L5.5015 4.5607C6.0095 4.19161 6.65972 3.97647 7.69763 3.86402C8.74958 3.75005 10.108 3.74902 11.9996 3.74902V2.24902ZM3.74959 11.999C3.74959 10.1074 3.75062 8.74901 3.86459 7.69707C3.97704 6.65916 4.19218 6.00894 4.56127 5.50094L3.34774 4.61926C2.76191 5.42558 2.49959 6.36996 2.37332 7.5355C2.24856 8.687 2.24959 10.1409 2.24959 11.999H3.74959ZM4.61982 3.34718C4.13168 3.70183 3.7024 4.13111 3.34774 4.61926L4.56127 5.50094C4.8234 5.14013 5.1407 4.82284 5.5015 4.5607L4.61982 3.34718ZM7.99959 12.749L15.1996 12.749L15.1996 11.249L7.99958 11.249L7.99959 12.749ZM12.2716 8.53171L13.682 9.92956L14.7379 8.86418L13.3275 7.46633L12.2716 8.53171ZM13.682 14.0685L12.2716 15.4663L13.3275 16.5317L14.7379 15.1339L13.682 14.0685ZM13.682 9.92956C14.2569 10.4994 14.6423 10.8829 14.9014 11.2055C15.151 11.5163 15.2211 11.697 15.2397 11.8432L16.7277 11.6535C16.6597 11.1203 16.4053 10.6827 16.0709 10.2663C15.746 9.86167 15.2878 9.40914 14.7379 8.86418L13.682 9.92956ZM14.7379 15.1339C15.2878 14.5889 15.746 14.1364 16.0709 13.7318C16.4053 13.3154 16.6597 12.8777 16.7277 12.3445L15.2397 12.1549C15.2211 12.301 15.151 12.4817 14.9014 12.7925C14.6423 13.1152 14.2569 13.4987 13.682 14.0685L14.7379 15.1339ZM15.2397 11.8432C15.2463 11.8949 15.2496 11.947 15.2496 11.999L16.7496 11.999C16.7496 11.8836 16.7423 11.7682 16.7277 11.6535L15.2397 11.8432ZM15.2496 11.999C15.2496 12.0511 15.2463 12.1031 15.2397 12.1549L16.7277 12.3445C16.7423 12.2298 16.7496 12.1144 16.7496 11.999L15.2496 11.999ZM15.1996 12.749H15.9996V11.249H15.1996V12.749Z" fill="black"/>
</svg>
