<svg width="24" height="25" viewBox="0 0 24 25" fill="none" xmlns="http://www.w3.org/2000/svg">
<path d="M3.99954 12.249C3.58533 12.249 3.24954 12.5848 3.24954 12.999C3.24954 13.4132 3.58533 13.749 3.99954 13.749L3.99954 12.249ZM19.9995 13.749C20.4137 13.749 20.7495 13.4132 20.7495 12.999C20.7495 12.5848 20.4137 12.249 19.9995 12.249L19.9995 13.749ZM16.5275 7.46633C16.2333 7.17475 15.7584 7.17687 15.4668 7.47106C15.1753 7.76526 15.1774 8.24013 15.4716 8.53171L16.5275 7.46633ZM17.7625 9.74633L17.2345 10.279L17.2345 10.279L17.7625 9.74633ZM17.7625 16.2517L18.2905 16.7844L18.2905 16.7844L17.7625 16.2517ZM15.4716 17.4663C15.1774 17.7579 15.1753 18.2328 15.4668 18.527C15.7584 18.8212 16.2333 18.8233 16.5275 18.5317L15.4716 17.4663ZM19.9796 12.6857L20.7236 12.5909L20.7236 12.5909L19.9796 12.6857ZM19.9796 13.3124L20.7236 13.4072L20.7236 13.4072L19.9796 13.3124ZM3.99954 13.749L19.9995 13.749L19.9995 12.249L3.99954 12.249L3.99954 13.749ZM15.4716 8.53171L17.2345 10.279L18.2905 9.21364L16.5275 7.46633L15.4716 8.53171ZM17.2345 15.719L15.4716 17.4663L16.5275 18.5317L18.2905 16.7844L17.2345 15.719ZM17.2345 10.279C17.95 10.9882 18.4408 11.4762 18.7729 11.8897C19.0955 12.2914 19.2062 12.5494 19.2357 12.7805L20.7236 12.5909C20.6448 11.9727 20.3499 11.4578 19.9425 10.9505C19.5446 10.455 18.9809 9.89795 18.2905 9.21364L17.2345 10.279ZM18.2905 16.7844C18.9809 16.1001 19.5446 15.5431 19.9425 15.0476C20.3499 14.5402 20.6448 14.0253 20.7236 13.4072L19.2357 13.2175C19.2062 13.4486 19.0955 13.7066 18.7729 14.1083C18.4408 14.5218 17.95 15.0099 17.2345 15.719L18.2905 16.7844ZM19.2357 12.7805C19.2542 12.9256 19.2542 13.0724 19.2357 13.2175L20.7236 13.4072C20.7582 13.1362 20.7582 12.8619 20.7236 12.5909L19.2357 12.7805Z" fill="black"/>
</svg>
