<svg width="24" height="24" viewBox="0 0 24 24" fill="none" xmlns="http://www.w3.org/2000/svg">
<path d="M7.99977 11.2489C7.58556 11.2489 7.24978 11.5847 7.24978 11.9989C7.24978 12.4131 7.58556 12.7489 7.99978 12.7489L7.99977 11.2489ZM15.1998 11.9989L15.1998 11.2489L15.1998 11.2489L15.1998 11.9989ZM13.3277 7.46621C13.0335 7.17462 12.5587 7.17674 12.2671 7.47094C11.9755 7.76514 11.9776 8.24001 12.2718 8.53159L13.3277 7.46621ZM14.2101 9.39674L13.6822 9.92943L13.6822 9.92943L14.2101 9.39674ZM14.2101 14.601L13.6822 14.0684L13.6822 14.0684L14.2101 14.601ZM12.2718 15.4662C11.9776 15.7578 11.9755 16.2327 12.2671 16.5269C12.5587 16.8211 13.0335 16.8232 13.3277 16.5316L12.2718 15.4662ZM15.9839 11.7482L16.7278 11.6534L16.7278 11.6534L15.9839 11.7482ZM15.9839 12.2496L16.7278 12.3444L16.7278 12.3444L15.9839 12.2496ZM15.9998 11.9989L16.7498 11.9989L15.9998 11.9989ZM21.2498 11.9989C21.2498 17.1075 17.1084 21.2489 11.9998 21.2489V22.7489C17.9368 22.7489 22.7498 17.936 22.7498 11.9989H21.2498ZM11.9998 21.2489C6.89114 21.2489 2.74978 17.1075 2.74978 11.9989H1.24978C1.24978 17.936 6.06272 22.7489 11.9998 22.7489V21.2489ZM2.74978 11.9989C2.74978 6.89026 6.89114 2.7489 11.9998 2.7489V1.2489C6.06272 1.2489 1.24978 6.06184 1.24978 11.9989H2.74978ZM11.9998 2.7489C17.1084 2.7489 21.2498 6.89026 21.2498 11.9989H22.7498C22.7498 6.06184 17.9368 1.2489 11.9998 1.2489V2.7489ZM7.99978 12.7489L15.1998 12.7489L15.1998 11.2489L7.99977 11.2489L7.99978 12.7489ZM12.2718 8.53159L13.6822 9.92943L14.7381 8.86405L13.3277 7.46621L12.2718 8.53159ZM13.6822 14.0684L12.2718 15.4662L13.3277 16.5316L14.7381 15.1337L13.6822 14.0684ZM13.6822 9.92943C14.2571 10.4992 14.6424 10.8828 14.9015 11.2054C15.1511 11.5162 15.2213 11.6969 15.2399 11.8431L16.7278 11.6534C16.6599 11.1202 16.4055 10.6826 16.0711 10.2661C15.7462 9.86155 15.288 9.40902 14.7381 8.86405L13.6822 9.92943ZM14.7381 15.1337C15.288 14.5888 15.7462 14.1362 16.0711 13.7317C16.4055 13.3152 16.6599 12.8776 16.7278 12.3444L15.2399 12.1547C15.2213 12.3009 15.1511 12.4816 14.9015 12.7924C14.6424 13.115 14.2571 13.4986 13.6822 14.0684L14.7381 15.1337ZM15.2399 11.8431C15.2465 11.8948 15.2498 11.9469 15.2498 11.9989L16.7498 11.9989C16.7498 11.8835 16.7425 11.7681 16.7278 11.6534L15.2399 11.8431ZM15.2498 11.9989C15.2498 12.0509 15.2465 12.103 15.2399 12.1547L16.7278 12.3444C16.7425 12.2297 16.7498 12.1143 16.7498 11.9989L15.2498 11.9989ZM15.1998 12.7489H15.9998V11.2489H15.1998V12.7489Z" fill="black"/>
</svg>
