<svg width="24" height="25" viewBox="0 0 24 25" fill="none" xmlns="http://www.w3.org/2000/svg">
<path d="M2.99945 12.2489C2.58524 12.2489 2.24945 12.5847 2.24945 12.9989C2.24945 13.4132 2.58524 13.7489 2.99945 13.7489L2.99945 12.2489ZM13.9994 13.7489C14.4137 13.7489 14.7494 13.4132 14.7494 12.9989C14.7494 12.5847 14.4137 12.2489 13.9994 12.2489L13.9994 13.7489ZM13.9994 10.1343L13.2494 10.1343V10.1343H13.9994ZM17.2194 8.54949L17.6769 7.95518L17.6769 7.95518L17.2194 8.54949ZM17.2194 17.4484L17.6769 18.0427L17.6769 18.0427L17.2194 17.4484ZM13.9994 15.8636L14.7494 15.8636V15.8636H13.9994ZM20.9407 14.5838L20.4832 13.9894L20.4832 13.9894L20.9407 14.5838ZM20.9407 11.4141L20.4832 12.0084L20.4832 12.0084L20.9407 11.4141ZM2.99945 13.7489L13.9994 13.7489L13.9994 12.2489L2.99945 12.2489L2.99945 13.7489ZM20.4832 13.9894L16.7619 16.8541L17.6769 18.0427L21.3982 15.1781L20.4832 13.9894ZM14.7494 15.8636V10.1343H13.2494V15.8636H14.7494ZM16.7619 9.14379L20.4832 12.0084L21.3982 10.8198L17.6769 7.95518L16.7619 9.14379ZM14.7494 10.1343C14.7494 9.097 15.94 8.51104 16.7619 9.14379L17.6769 7.95518C15.8686 6.56314 13.2494 7.85224 13.2494 10.1343L14.7494 10.1343ZM16.7619 16.8541C15.94 17.4868 14.7494 16.9009 14.7494 15.8636L13.2494 15.8636C13.2494 18.1456 15.8686 19.4347 17.6769 18.0427L16.7619 16.8541ZM21.3982 15.1781C22.8282 14.0772 22.8282 11.9207 21.3982 10.8198L20.4832 12.0084C21.1332 12.5088 21.1332 13.4891 20.4832 13.9894L21.3982 15.1781Z" fill="black"/>
</svg>
