<svg width="24" height="24" viewBox="0 0 24 24" fill="none" xmlns="http://www.w3.org/2000/svg">
<path d="M5.06132 20.044L5.50216 19.4372L5.06132 20.044ZM3.95516 18.9378L4.56192 18.497L3.95516 18.9378ZM20.0453 18.9378L19.4386 18.497L20.0453 18.9378ZM18.9392 20.044L18.4983 19.4372L18.9392 20.044ZM18.9392 3.95382L18.4983 4.56058L18.9392 3.95382ZM20.0453 5.05997L19.4386 5.50081L20.0453 5.05997ZM5.06132 3.95382L5.50216 4.56058L5.06132 3.95382ZM3.95516 5.05997L4.56192 5.50081L3.95516 5.05997ZM10.5282 6.46621C10.234 6.17463 9.75913 6.17674 9.46755 6.47094C9.17597 6.76514 9.17809 7.24001 9.47228 7.53159L10.5282 6.46621ZM11.7632 8.74621L11.2353 9.2789L11.7632 8.74621ZM11.7632 15.2516L12.2912 15.7843L12.2912 15.7843L11.7632 15.2516ZM9.47228 16.4662C9.17809 16.7578 9.17597 17.2327 9.46755 17.5269C9.75913 17.8211 10.234 17.8232 10.5282 17.5316L9.47228 16.4662ZM13.9803 11.6856L14.7243 11.5907L14.7243 11.5907L13.9803 11.6856ZM13.9803 12.3122L14.7243 12.4071L14.7243 12.4071L13.9803 12.3122ZM12.0002 20.2489C10.1087 20.2489 8.75023 20.2479 7.69829 20.1339C6.66038 20.0214 6.01016 19.8063 5.50216 19.4372L4.62048 20.6507C5.4268 21.2366 6.37118 21.4989 7.53672 21.6252C8.68822 21.7499 10.1421 21.7489 12.0002 21.7489V20.2489ZM2.25024 11.9989C2.25024 13.8571 2.24921 15.3109 2.37397 16.4624C2.50025 17.628 2.76257 18.5723 3.3484 19.3787L4.56192 18.497C4.19283 17.989 3.9777 17.3388 3.86524 16.3009C3.75127 15.2489 3.75024 13.8905 3.75024 11.9989H2.25024ZM5.50216 19.4372C5.14135 19.1751 4.82406 18.8578 4.56192 18.497L3.3484 19.3787C3.70305 19.8668 4.13233 20.2961 4.62048 20.6507L5.50216 19.4372ZM20.2502 11.9989C20.2502 13.8905 20.2492 15.2489 20.1352 16.3009C20.0228 17.3388 19.8076 17.989 19.4386 18.497L20.6521 19.3787C21.2379 18.5723 21.5002 17.628 21.6265 16.4624C21.7513 15.3109 21.7502 13.8571 21.7502 11.9989H20.2502ZM12.0002 21.7489C13.8584 21.7489 15.3123 21.7499 16.4638 21.6252C17.6293 21.4989 18.5737 21.2366 19.38 20.6507L18.4983 19.4372C17.9903 19.8063 17.3401 20.0214 16.3022 20.1339C15.2502 20.2479 13.8918 20.2489 12.0002 20.2489V21.7489ZM19.4386 18.497C19.1764 18.8578 18.8591 19.1751 18.4983 19.4372L19.38 20.6507C19.8681 20.2961 20.2974 19.8668 20.6521 19.3787L19.4386 18.497ZM12.0002 3.7489C13.8918 3.7489 15.2502 3.74993 16.3022 3.8639C17.3401 3.97635 17.9903 4.19149 18.4983 4.56058L19.38 3.34705C18.5737 2.76123 17.6293 2.49891 16.4638 2.37263C15.3123 2.24787 13.8584 2.2489 12.0002 2.2489V3.7489ZM21.7502 11.9989C21.7502 10.1407 21.7513 8.68687 21.6265 7.53538C21.5002 6.36984 21.2379 5.42546 20.6521 4.61914L19.4386 5.50081C19.8076 6.00882 20.0228 6.65903 20.1352 7.69694C20.2492 8.74889 20.2502 10.1073 20.2502 11.9989H21.7502ZM18.4983 4.56058C18.8591 4.82272 19.1764 5.14001 19.4386 5.50081L20.6521 4.61914C20.2974 4.13099 19.8681 3.70171 19.38 3.34705L18.4983 4.56058ZM12.0002 2.2489C10.1421 2.2489 8.68822 2.24787 7.53672 2.37263C6.37118 2.49891 5.4268 2.76123 4.62048 3.34705L5.50216 4.56058C6.01016 4.19149 6.66038 3.97635 7.69829 3.8639C8.75023 3.74993 10.1087 3.7489 12.0002 3.7489V2.2489ZM3.75024 11.9989C3.75024 10.1073 3.75127 8.74889 3.86524 7.69694C3.9777 6.65903 4.19283 6.00882 4.56192 5.50081L3.3484 4.61914C2.76257 5.42546 2.50025 6.36984 2.37397 7.53537C2.24921 8.68687 2.25024 10.1407 2.25024 11.9989H3.75024ZM4.62048 3.34705C4.13233 3.70171 3.70305 4.13099 3.3484 4.61914L4.56192 5.50081C4.82406 5.14001 5.14135 4.82272 5.50216 4.56058L4.62048 3.34705ZM9.47228 7.53159L11.2353 9.2789L12.2912 8.21352L10.5282 6.46621L9.47228 7.53159ZM11.2353 14.7189L9.47228 16.4662L10.5282 17.5316L12.2912 15.7843L11.2353 14.7189ZM11.2353 9.2789C11.9507 9.98803 12.4415 10.4761 12.7736 10.8896C13.0962 11.2913 13.2069 11.5493 13.2364 11.7804L14.7243 11.5907C14.6455 10.9726 14.3506 10.4577 13.9432 9.95036C13.5453 9.45487 12.9816 8.89782 12.2912 8.21352L11.2353 9.2789ZM12.2912 15.7843C12.9816 15.1 13.5453 14.5429 13.9432 14.0474C14.3506 13.5401 14.6455 13.0252 14.7243 12.4071L13.2364 12.2174C13.2069 12.4485 13.0962 12.7065 12.7736 13.1082C12.4415 13.5217 11.9507 14.0098 11.2353 14.7189L12.2912 15.7843ZM13.2364 11.7804C13.2549 11.9255 13.2549 12.0723 13.2364 12.2174L14.7243 12.4071C14.7589 12.136 14.7589 11.8618 14.7243 11.5907L13.2364 11.7804Z" fill="black"/>
</svg>
