<svg width="24" height="24" viewBox="0 0 24 24" fill="none" xmlns="http://www.w3.org/2000/svg">
<path d="M22.75 11.999C22.75 11.5848 22.4142 11.249 22 11.249C21.5857 11.249 21.25 11.5848 21.25 11.999H22.75ZM18.0009 3.99902L17.5504 4.59864L17.5504 4.59864L18.0009 3.99902ZM20 5.99805L19.4003 6.44855L19.431 6.48931L19.4668 6.52555L20 5.99805ZM21.4068 0.995677C21.405 0.581468 21.0677 0.247183 20.6535 0.249031C20.2393 0.250879 19.905 0.58816 19.9068 1.00237L21.4068 0.995677ZM20.6657 2.98474L21.4157 2.98139L21.4157 2.98139L20.6657 2.98474ZM16.9857 6.66474L16.9823 7.41473L16.9823 7.41473L16.9857 6.66474ZM15.0033 5.90588C14.5891 5.90404 14.2518 6.23832 14.25 6.65253C14.2481 7.06674 14.5824 7.40402 14.9966 7.40587L15.0033 5.90588ZM20.2571 5.90169L20.8503 6.36071L20.8503 6.36071L20.2571 5.90169ZM19.9026 6.25619L20.3617 6.84932L20.3617 6.84931L19.9026 6.25619ZM20.0911 6.09019L20.6215 6.62052L20.0911 6.09019ZM21.25 11.999C21.25 17.1077 17.1086 21.249 12 21.249V22.749C17.937 22.749 22.75 17.9361 22.75 11.999H21.25ZM12 21.249C6.89133 21.249 2.74997 17.1077 2.74997 11.999H1.24997C1.24997 17.9361 6.06291 22.749 12 22.749V21.249ZM2.74997 11.999C2.74997 6.89039 6.89133 2.74902 12 2.74902V1.24902C6.06291 1.24902 1.24997 6.06196 1.24997 11.999H2.74997ZM12 2.74902C14.0836 2.74902 16.0044 3.43706 17.5504 4.59864L18.4514 3.3994C16.6545 2.04934 14.4196 1.24902 12 1.24902V2.74902ZM17.5504 4.59864C18.2508 5.12485 18.8741 5.74818 19.4003 6.44855L20.5996 5.54754C19.9885 4.73421 19.2648 4.01047 18.4514 3.3994L17.5504 4.59864ZM19.9068 1.00237L19.9157 2.98808L21.4157 2.98139L21.4068 0.995677L19.9068 1.00237ZM16.989 5.91474L15.0033 5.90588L14.9966 7.40587L16.9823 7.41473L16.989 5.91474ZM19.9157 2.98808C19.9193 3.7975 19.9206 4.34119 19.8757 4.75253C19.8324 5.14878 19.7542 5.32615 19.664 5.44267L20.8503 6.36071C21.1792 5.93563 21.3088 5.4463 21.3668 4.91537C21.4231 4.39953 21.4191 3.75554 21.4157 2.98139L19.9157 2.98808ZM16.9823 7.41473C17.7565 7.41818 18.4005 7.42219 18.9163 7.36586C19.4472 7.30788 19.9366 7.17828 20.3617 6.84932L19.4436 5.66306C19.3271 5.75324 19.1497 5.83145 18.7535 5.87472C18.3421 5.91964 17.7984 5.91835 16.989 5.91474L16.9823 7.41473ZM19.664 5.44267C19.6321 5.48392 19.5976 5.52306 19.5608 5.55986L20.6215 6.62052C20.7031 6.53893 20.7795 6.45216 20.8503 6.36071L19.664 5.44267ZM19.5608 5.55986C19.524 5.59666 19.4849 5.63114 19.4436 5.66306L20.3617 6.84931C20.4531 6.77855 20.5399 6.70212 20.6215 6.62052L19.5608 5.55986ZM19.4668 6.52555L19.558 6.6177L20.6243 5.56269L20.5331 5.47055L19.4668 6.52555Z" fill="black"/>
</svg>
