<svg width="24" height="24" viewBox="0 0 24 24" fill="none" xmlns="http://www.w3.org/2000/svg">
<path d="M2.74991 11.9991C2.74991 11.5849 2.41412 11.2491 1.99991 11.2491C1.5857 11.2491 1.24991 11.5849 1.24991 11.9991H2.74991ZM5.99893 3.99914L6.44944 4.59876L6.44944 4.59876L5.99893 3.99914ZM3.99991 5.99817L4.55474 6.50281L4.5784 6.47679L4.59953 6.44867L3.99991 5.99817ZM4.0126 1.00249C4.01444 0.588282 3.68016 0.251001 3.26595 0.249153C2.85174 0.247305 2.51446 0.58159 2.51261 0.995799L4.0126 1.00249ZM3.25374 2.98486L2.50375 2.98151L2.50375 2.98151L3.25374 2.98486ZM6.93374 6.66486L6.93709 7.41485L6.93709 7.41485L6.93374 6.66486ZM8.9228 7.40599C9.33701 7.40414 9.67129 7.06686 9.66945 6.65265C9.6676 6.23844 9.33032 5.90416 8.91611 5.90601L8.9228 7.40599ZM3.66229 5.90181L3.06916 6.36083L3.06916 6.36083L3.66229 5.90181ZM4.01679 6.25631L3.55777 6.84944L3.55777 6.84944L4.01679 6.25631ZM1.24991 11.9991C1.24991 17.9362 6.06284 22.7491 11.9999 22.7491V21.2491C6.89127 21.2491 2.74991 17.1078 2.74991 11.9991H1.24991ZM11.9999 22.7491C17.937 22.7491 22.7499 17.9362 22.7499 11.9991H21.2499C21.2499 17.1078 17.1085 21.2491 11.9999 21.2491V22.7491ZM22.7499 11.9991C22.7499 6.06208 17.937 1.24915 11.9999 1.24915V2.74914C17.1085 2.74914 21.2499 6.89051 21.2499 11.9991H22.7499ZM11.9999 1.24915C9.58024 1.24915 7.34534 2.04947 5.54843 3.39952L6.44944 4.59876C7.99549 3.43718 9.91627 2.74914 11.9999 2.74914V1.24915ZM5.54843 3.39952C4.7351 4.0106 4.01136 4.73433 3.40029 5.54766L4.59953 6.44867C5.12573 5.7483 5.74907 5.12497 6.44944 4.59876L5.54843 3.39952ZM2.51261 0.995799L2.50375 2.98151L4.00374 2.9882L4.0126 1.00249L2.51261 0.995799ZM6.93709 7.41485L8.9228 7.40599L8.91611 5.90601L6.9304 5.91486L6.93709 7.41485ZM2.50375 2.98151C2.5003 3.75566 2.49629 4.39965 2.55262 4.91549C2.6106 5.44642 2.7402 5.93575 3.06916 6.36083L4.25542 5.44279C4.16524 5.32627 4.08703 5.14891 4.04376 4.75265C3.99884 4.34131 4.00012 3.79762 4.00374 2.9882L2.50375 2.98151ZM6.9304 5.91486C6.12098 5.91848 5.57729 5.91977 5.16595 5.87485C4.7697 5.83157 4.59233 5.75336 4.47581 5.66318L3.55777 6.84944C3.98285 7.17841 4.47218 7.308 5.00311 7.36598C5.51895 7.42231 6.16294 7.4183 6.93709 7.41485L6.9304 5.91486ZM3.06916 6.36083C3.15825 6.47594 3.25629 6.58363 3.36233 6.68294L4.38765 5.58808C4.33983 5.54329 4.29561 5.49472 4.25542 5.44279L3.06916 6.36083ZM3.36233 6.68294C3.42477 6.74142 3.48999 6.79698 3.55777 6.84944L4.47581 5.66318C4.44523 5.63952 4.41581 5.61445 4.38765 5.58808L3.36233 6.68294ZM3.44508 5.49353L3.32016 5.63087L4.42982 6.64015L4.55474 6.50281L3.44508 5.49353Z" fill="black"/>
</svg>
