<svg width="24" height="24" viewBox="0 0 24 24" fill="none" xmlns="http://www.w3.org/2000/svg">
<path d="M6.99997 16.9993C7.66663 15.7136 9.59997 13.9993 12 13.9993C14.4 13.9993 16.3333 15.7136 17 16.9993M22 11.9993C22 17.5222 17.5228 21.9993 12 21.9993C6.47712 21.9993 1.99997 17.5222 1.99997 11.9993C1.99997 6.47648 6.47712 1.99933 12 1.99933C17.5228 1.99933 22 6.47648 22 11.9993Z" stroke="black" stroke-width="1.5" stroke-linecap="round"/>
<path d="M10.0001 7.99933C10.0001 8.55161 9.55241 8.99933 9.00012 8.99933C8.44784 8.99933 8.00012 8.55161 8.00012 7.99933C8.00012 7.44704 8.44784 6.99933 9.00012 6.99933C9.55241 6.99933 10.0001 7.44704 10.0001 7.99933Z" fill="black"/>
<path d="M16.0001 7.99933C16.0001 8.55161 15.5524 8.99933 15.0001 8.99933C14.4478 8.99933 14.0001 8.55161 14.0001 7.99933C14.0001 7.44704 14.4478 6.99933 15.0001 6.99933C15.5524 6.99933 16.0001 7.44704 16.0001 7.99933Z" fill="black"/>
</svg>
