<svg width="24" height="24" viewBox="0 0 24 24" fill="none" xmlns="http://www.w3.org/2000/svg">
<path d="M3.00009 14.9991L3.00009 15.9991C3.00009 18.7605 5.23867 20.9991 8.00009 20.9991H9.00009M9.00009 2.99908H8.00009C5.23867 2.99908 3.00009 5.23766 3.00009 7.99908V8.99908M21.0001 8.99908V7.99908C21.0001 5.23766 18.7615 2.99908 16.0001 2.99908L15.0001 2.99908M15.0001 20.9991H16.0001C18.7615 20.9991 21.0001 18.7605 21.0001 15.9991V14.9991M6.00009 7.99908C6.00009 9.10365 6.89552 9.99908 8.00009 9.99908C9.10466 9.99908 10.0001 9.10365 10.0001 7.99908C10.0001 6.89451 9.10466 5.99908 8.00009 5.99908C6.89552 5.99908 6.00009 6.89451 6.00009 7.99908ZM15.0001 7.99908C15.0001 8.55137 15.4478 8.99908 16.0001 8.99908C16.5524 8.99908 17.0001 8.55137 17.0001 7.99908C17.0001 7.4468 16.5524 6.99908 16.0001 6.99908C15.4478 6.99908 15.0001 7.4468 15.0001 7.99908ZM14.0001 15.9991C14.0001 17.1036 14.8955 17.9991 16.0001 17.9991C17.1047 17.9991 18.0001 17.1036 18.0001 15.9991C18.0001 14.8945 17.1047 13.9991 16.0001 13.9991C14.8955 13.9991 14.0001 14.8945 14.0001 15.9991Z" stroke="black" stroke-width="1.5" stroke-linecap="round"/>
</svg>
