<svg width="24" height="24" viewBox="0 0 24 24" fill="none" xmlns="http://www.w3.org/2000/svg">
<path d="M2.99992 15.9992L2.24992 15.9992L2.99992 15.9992ZM3.74992 14.9992C3.74992 14.585 3.41414 14.2492 2.99992 14.2492C2.58571 14.2492 2.24992 14.585 2.24992 14.9992L3.74992 14.9992ZM8.99992 21.7492C9.41414 21.7492 9.74992 21.4134 9.74992 20.9992C9.74992 20.585 9.41414 20.2492 8.99992 20.2492V21.7492ZM7.99992 20.9992L7.99992 20.2492H7.99992L7.99992 20.9992ZM8.99992 3.74921C9.41414 3.74921 9.74992 3.41342 9.74992 2.99921C9.74992 2.58499 9.41414 2.24921 8.99992 2.24921V3.74921ZM2.24992 8.9992C2.24992 9.41342 2.58571 9.7492 2.99992 9.7492C3.41414 9.7492 3.74992 9.41342 3.74992 8.9992H2.24992ZM20.9999 7.9992L20.2499 7.9992V7.9992H20.9999ZM20.2499 8.9992C20.2499 9.41342 20.5857 9.7492 20.9999 9.7492C21.4141 9.7492 21.7499 9.41342 21.7499 8.9992H20.2499ZM14.9999 2.24921C14.5857 2.24921 14.2499 2.58499 14.2499 2.99921C14.2499 3.41342 14.5857 3.74921 14.9999 3.74921L14.9999 2.24921ZM15.9999 2.99921L15.9999 2.24921L15.9999 2.99921ZM15.9999 20.9992L15.9999 20.2492H15.9999V20.9992ZM14.9999 20.2492C14.5857 20.2492 14.2499 20.585 14.2499 20.9992C14.2499 21.4134 14.5857 21.7492 14.9999 21.7492V20.2492ZM21.7499 14.9992C21.7499 14.585 21.4141 14.2492 20.9999 14.2492C20.5857 14.2492 20.2499 14.585 20.2499 14.9992H21.7499ZM20.9999 15.9992L21.7499 15.9992V15.9992H20.9999ZM11.9999 13.2492C11.3096 13.2492 10.7499 12.6896 10.7499 11.9992H9.24992C9.24992 13.518 10.4811 14.7492 11.9999 14.7492V13.2492ZM13.2499 11.9992C13.2499 12.6896 12.6903 13.2492 11.9999 13.2492V14.7492C13.5187 14.7492 14.7499 13.518 14.7499 11.9992H13.2499ZM11.9999 10.7492C12.6903 10.7492 13.2499 11.3088 13.2499 11.9992H14.7499C14.7499 10.4804 13.5187 9.2492 11.9999 9.2492V10.7492ZM11.9999 9.2492C10.4811 9.2492 9.24992 10.4804 9.24992 11.9992H10.7499C10.7499 11.3088 11.3096 10.7492 11.9999 10.7492V9.2492ZM3.74992 15.9992L3.74992 14.9992L2.24992 14.9992L2.24992 15.9992L3.74992 15.9992ZM8.99992 20.2492H7.99992V21.7492H8.99992V20.2492ZM2.24992 15.9992C2.24992 19.1748 4.82429 21.7492 7.99992 21.7492L7.99992 20.2492C5.65271 20.2492 3.74992 18.3464 3.74992 15.9992L2.24992 15.9992ZM7.99992 3.74921H8.99992V2.24921H7.99992V3.74921ZM3.74992 8.9992V7.9992H2.24992V8.9992H3.74992ZM7.99992 2.24921C4.82429 2.24921 2.24992 4.82357 2.24992 7.9992H3.74992C3.74992 5.652 5.65271 3.74921 7.99992 3.74921V2.24921ZM20.2499 7.9992V8.9992H21.7499V7.9992H20.2499ZM14.9999 3.74921L15.9999 3.74921L15.9999 2.24921L14.9999 2.24921L14.9999 3.74921ZM21.7499 7.9992C21.7499 4.82357 19.1756 2.24921 15.9999 2.24921L15.9999 3.74921C18.3471 3.74921 20.2499 5.652 20.2499 7.9992L21.7499 7.9992ZM15.9999 20.2492H14.9999V21.7492H15.9999V20.2492ZM20.2499 14.9992V15.9992H21.7499V14.9992H20.2499ZM15.9999 21.7492C19.1756 21.7492 21.7499 19.1748 21.7499 15.9992L20.2499 15.9992C20.2499 18.3464 18.3471 20.2492 15.9999 20.2492L15.9999 21.7492Z" fill="black"/>
</svg>
