<svg width="24" height="24" viewBox="0 0 24 24" fill="none" xmlns="http://www.w3.org/2000/svg">
<path d="M3.00024 14.9992L3.00024 15.9992C3.00024 18.7606 5.23882 20.9992 8.00024 20.9992H9.00024M9.00024 2.99921H8.00024C5.23882 2.99921 3.00024 5.23778 3.00024 7.9992V8.9992M21.0002 8.9992V7.9992C21.0002 5.23778 18.7617 2.99921 16.0002 2.99921L15.0002 2.99921M15.0002 20.9992H16.0002C18.7617 20.9992 21.0002 18.7606 21.0002 15.9992V14.9992M6.00024 7.9992C6.00024 9.10377 6.89567 9.9992 8.00024 9.9992C9.10481 9.9992 10.0002 9.10377 10.0002 7.9992C10.0002 6.89464 9.10481 5.99921 8.00024 5.99921C6.89567 5.99921 6.00024 6.89464 6.00024 7.9992ZM7.00024 15.9992C7.00024 16.5515 7.44796 16.9992 8.00024 16.9992C8.55253 16.9992 9.00024 16.5515 9.00024 15.9992C9.00024 15.4469 8.55253 14.9992 8.00024 14.9992C7.44796 14.9992 7.00024 15.4469 7.00024 15.9992ZM14.0002 15.9992C14.0002 17.1038 14.8957 17.9992 16.0002 17.9992C17.1048 17.9992 18.0002 17.1038 18.0002 15.9992C18.0002 14.8946 17.1048 13.9992 16.0002 13.9992C14.8957 13.9992 14.0002 14.8946 14.0002 15.9992Z" stroke="black" stroke-width="1.5" stroke-linecap="round"/>
</svg>
