<svg width="24" height="24" viewBox="0 0 24 24" fill="none" xmlns="http://www.w3.org/2000/svg">
<path d="M2.99946 15.9992L2.24946 15.9992L2.99946 15.9992ZM3.74946 14.9992C3.74946 14.585 3.41367 14.2492 2.99946 14.2492C2.58524 14.2492 2.24946 14.585 2.24946 14.9992L3.74946 14.9992ZM8.99946 21.7492C9.41367 21.7492 9.74946 21.4134 9.74946 20.9992C9.74946 20.585 9.41367 20.2492 8.99946 20.2492V21.7492ZM7.99946 20.9992L7.99946 20.2492H7.99946L7.99946 20.9992ZM8.99946 3.74921C9.41367 3.74921 9.74946 3.41342 9.74946 2.99921C9.74946 2.58499 9.41367 2.24921 8.99946 2.24921V3.74921ZM2.24946 8.9992C2.24946 9.41342 2.58525 9.7492 2.99946 9.7492C3.41367 9.7492 3.74946 9.41342 3.74946 8.9992H2.24946ZM20.9995 7.9992L20.2495 7.9992V7.9992H20.9995ZM20.2495 8.9992C20.2495 9.41342 20.5852 9.7492 20.9995 9.7492C21.4137 9.7492 21.7495 9.41342 21.7495 8.9992H20.2495ZM14.9995 2.24921C14.5852 2.24921 14.2495 2.58499 14.2495 2.99921C14.2495 3.41342 14.5852 3.74921 14.9995 3.74921L14.9995 2.24921ZM15.9995 2.99921L15.9995 2.24921L15.9995 2.99921ZM15.9995 20.9992L15.9995 20.2492H15.9995V20.9992ZM14.9995 20.2492C14.5852 20.2492 14.2495 20.585 14.2495 20.9992C14.2495 21.4134 14.5852 21.7492 14.9995 21.7492V20.2492ZM21.7495 14.9992C21.7495 14.585 21.4137 14.2492 20.9995 14.2492C20.5852 14.2492 20.2495 14.585 20.2495 14.9992H21.7495ZM20.9995 15.9992L21.7495 15.9992V15.9992H20.9995ZM11.9995 15.2492C10.2045 15.2492 8.74946 13.7941 8.74946 11.9992H7.24946C7.24946 14.6226 9.3761 16.7492 11.9995 16.7492V15.2492ZM15.2495 11.9992C15.2495 13.7941 13.7944 15.2492 11.9995 15.2492V16.7492C14.6228 16.7492 16.7495 14.6226 16.7495 11.9992H15.2495ZM11.9995 8.7492C13.7944 8.7492 15.2495 10.2043 15.2495 11.9992H16.7495C16.7495 9.37585 14.6228 7.24921 11.9995 7.24921V8.7492ZM11.9995 7.24921C9.3761 7.24921 7.24946 9.37585 7.24946 11.9992H8.74946C8.74946 10.2043 10.2045 8.7492 11.9995 8.7492V7.24921ZM3.74946 15.9992L3.74946 14.9992L2.24946 14.9992L2.24946 15.9992L3.74946 15.9992ZM8.99946 20.2492H7.99946V21.7492H8.99946V20.2492ZM2.24946 15.9992C2.24946 19.1748 4.82382 21.7492 7.99946 21.7492L7.99946 20.2492C5.65225 20.2492 3.74946 18.3464 3.74946 15.9992L2.24946 15.9992ZM7.99946 3.74921H8.99946V2.24921H7.99946V3.74921ZM3.74946 8.9992V7.9992H2.24946V8.9992H3.74946ZM7.99946 2.24921C4.82382 2.24921 2.24946 4.82357 2.24946 7.9992H3.74946C3.74946 5.652 5.65225 3.74921 7.99946 3.74921V2.24921ZM20.2495 7.9992V8.9992H21.7495V7.9992H20.2495ZM14.9995 3.74921L15.9995 3.74921L15.9995 2.24921L14.9995 2.24921L14.9995 3.74921ZM21.7495 7.9992C21.7495 4.82357 19.1751 2.24921 15.9995 2.24921L15.9995 3.74921C18.3467 3.74921 20.2495 5.652 20.2495 7.9992L21.7495 7.9992ZM15.9995 20.2492H14.9995V21.7492H15.9995V20.2492ZM20.2495 14.9992V15.9992H21.7495V14.9992H20.2495ZM15.9995 21.7492C19.1751 21.7492 21.7495 19.1748 21.7495 15.9992L20.2495 15.9992C20.2495 18.3464 18.3467 20.2492 15.9995 20.2492L15.9995 21.7492Z" fill="black"/>
</svg>
