<svg width="24" height="24" viewBox="0 0 24 24" fill="none" xmlns="http://www.w3.org/2000/svg">
<path d="M2.99945 15.9991L2.24945 15.9991L2.99945 15.9991ZM3.74945 14.9991C3.74945 14.5849 3.41366 14.2491 2.99945 14.2491C2.58524 14.2491 2.24945 14.5849 2.24945 14.9991L3.74945 14.9991ZM8.99945 21.7491C9.41366 21.7491 9.74945 21.4133 9.74945 20.9991C9.74945 20.5849 9.41366 20.2491 8.99945 20.2491V21.7491ZM7.99945 20.9991L7.99945 20.2491H7.99945L7.99945 20.9991ZM8.99945 3.74908C9.41366 3.74908 9.74945 3.4133 9.74945 2.99908C9.74945 2.58487 9.41366 2.24909 8.99945 2.24909V3.74908ZM2.24945 8.99908C2.24945 9.4133 2.58524 9.74908 2.99945 9.74908C3.41366 9.74908 3.74945 9.4133 3.74945 8.99908H2.24945ZM20.9994 7.99908L20.2494 7.99908V7.99908H20.9994ZM20.2494 8.99908C20.2494 9.4133 20.5852 9.74908 20.9994 9.74908C21.4137 9.74908 21.7494 9.4133 21.7494 8.99908H20.2494ZM14.9994 2.24908C14.5852 2.24908 14.2494 2.58487 14.2494 2.99908C14.2494 3.4133 14.5852 3.74908 14.9994 3.74908L14.9994 2.24908ZM15.9994 2.99908L15.9994 2.24908L15.9994 2.99908ZM15.9994 20.9991L15.9994 20.2491H15.9994V20.9991ZM14.9994 20.2491C14.5852 20.2491 14.2494 20.5849 14.2494 20.9991C14.2494 21.4133 14.5852 21.7491 14.9994 21.7491V20.2491ZM21.7494 14.9991C21.7494 14.5849 21.4137 14.2491 20.9994 14.2491C20.5852 14.2491 20.2494 14.5849 20.2494 14.9991H21.7494ZM20.9994 15.9991L21.7494 15.9991V15.9991H20.9994ZM3.74945 15.9991L3.74945 14.9991L2.24945 14.9991L2.24945 15.9991L3.74945 15.9991ZM8.99945 20.2491H7.99945V21.7491H8.99945V20.2491ZM2.24945 15.9991C2.24945 19.1747 4.82381 21.7491 7.99945 21.7491L7.99945 20.2491C5.65224 20.2491 3.74945 18.3463 3.74945 15.9991L2.24945 15.9991ZM7.99945 3.74908H8.99945V2.24909H7.99945V3.74908ZM3.74945 8.99908V7.99908H2.24945V8.99908H3.74945ZM7.99945 2.24909C4.82381 2.24909 2.24945 4.82345 2.24945 7.99908H3.74945C3.74945 5.65187 5.65224 3.74908 7.99945 3.74908V2.24909ZM20.2494 7.99908V8.99908H21.7494V7.99908H20.2494ZM14.9994 3.74908L15.9994 3.74908L15.9994 2.24908L14.9994 2.24908L14.9994 3.74908ZM21.7494 7.99908C21.7494 4.82345 19.1751 2.24908 15.9994 2.24908L15.9994 3.74908C18.3467 3.74908 20.2494 5.65187 20.2494 7.99908L21.7494 7.99908ZM15.9994 20.2491H14.9994V21.7491H15.9994V20.2491ZM20.2494 14.9991V15.9991H21.7494V14.9991H20.2494ZM15.9994 21.7491C19.1751 21.7491 21.7494 19.1747 21.7494 15.9991L20.2494 15.9991C20.2494 18.3463 18.3467 20.2491 15.9994 20.2491L15.9994 21.7491ZM7.99945 9.24908C7.50684 9.24908 7.21284 9.24749 7.00211 9.21916C6.90556 9.20618 6.85719 9.19088 6.83541 9.18192C6.83037 9.17985 6.82705 9.17823 6.82512 9.17722C6.82321 9.17622 6.82236 9.17567 6.82228 9.17562C6.82221 9.17557 6.82245 9.17573 6.8228 9.17601C6.82314 9.17629 6.82313 9.17632 6.82267 9.17586L5.76201 10.2365C6.07104 10.5455 6.44676 10.658 6.80224 10.7058C7.13615 10.7507 7.54925 10.7491 7.99945 10.7491V9.24908ZM5.24945 7.99908C5.24945 8.44928 5.24786 8.86238 5.29275 9.19629C5.34054 9.55177 5.45299 9.9275 5.76201 10.2365L6.82267 9.17586C6.82222 9.1754 6.82224 9.17539 6.82252 9.17573C6.8228 9.17608 6.82296 9.17632 6.82292 9.17625C6.82286 9.17617 6.82231 9.17532 6.82131 9.17341C6.8203 9.17148 6.81868 9.16816 6.81661 9.16312C6.80765 9.14134 6.79235 9.09298 6.77937 8.99642C6.75104 8.7857 6.74945 8.49169 6.74945 7.99908H5.24945ZM9.24945 7.99908C9.24945 8.49169 9.24786 8.7857 9.21952 8.99642C9.20654 9.09298 9.19125 9.14134 9.18229 9.16312C9.18021 9.16816 9.1786 9.17148 9.17759 9.17341C9.17659 9.17532 9.17604 9.17617 9.17598 9.17625C9.17594 9.17632 9.1761 9.17608 9.17638 9.17573C9.17666 9.17539 9.17668 9.1754 9.17623 9.17586L10.2369 10.2365C10.5459 9.9275 10.6584 9.55177 10.7061 9.19629C10.751 8.86238 10.7494 8.44928 10.7494 7.99908H9.24945ZM7.99945 10.7491C8.44965 10.7491 8.86275 10.7507 9.19666 10.7058C9.55214 10.658 9.92786 10.5455 10.2369 10.2365L9.17623 9.17586C9.17577 9.17632 9.17575 9.17629 9.1761 9.17601C9.17644 9.17573 9.17668 9.17557 9.17662 9.17562C9.17653 9.17567 9.17568 9.17622 9.17378 9.17722C9.17184 9.17823 9.16853 9.17985 9.16348 9.18192C9.1417 9.19088 9.09334 9.20618 8.99678 9.21916C8.78606 9.24749 8.49206 9.24908 7.99945 9.24908V10.7491ZM7.99945 6.74908C8.49206 6.74908 8.78606 6.75068 8.99678 6.77901C9.09334 6.79199 9.1417 6.80728 9.16348 6.81624C9.16853 6.81832 9.17184 6.81993 9.17378 6.82094C9.17568 6.82194 9.17653 6.8225 9.17662 6.82255C9.17668 6.82259 9.17644 6.82244 9.1761 6.82215C9.17575 6.82187 9.17577 6.82185 9.17623 6.82231L10.2369 5.76165C9.92786 5.45262 9.55214 5.34018 9.19666 5.29238C8.86275 5.24749 8.44965 5.24908 7.99945 5.24908V6.74908ZM10.7494 7.99908C10.7494 7.54888 10.751 7.13578 10.7061 6.80188C10.6584 6.4464 10.5459 6.07067 10.2369 5.76165L9.17623 6.82231C9.17668 6.82276 9.17666 6.82278 9.17638 6.82243C9.1761 6.82209 9.17594 6.82185 9.17598 6.82192C9.17604 6.822 9.17659 6.82285 9.17759 6.82475C9.1786 6.82669 9.18021 6.83 9.18229 6.83505C9.19125 6.85683 9.20654 6.90519 9.21952 7.00175C9.24786 7.21247 9.24945 7.50648 9.24945 7.99908H10.7494ZM7.99945 5.24908C7.54925 5.24908 7.13615 5.24749 6.80224 5.29238C6.44676 5.34018 6.07104 5.45262 5.76201 5.76165L6.82267 6.82231C6.82313 6.82185 6.82314 6.82187 6.8228 6.82215C6.82245 6.82244 6.82221 6.82259 6.82228 6.82255C6.82236 6.8225 6.82321 6.82194 6.82512 6.82094C6.82705 6.81993 6.83037 6.81832 6.83541 6.81624C6.85719 6.80728 6.90555 6.79199 7.00211 6.77901C7.21284 6.75068 7.50684 6.74908 7.99945 6.74908V5.24908ZM6.74945 7.99908C6.74945 7.50648 6.75104 7.21247 6.77937 7.00175C6.79235 6.90519 6.80765 6.85683 6.81661 6.83505C6.81868 6.83 6.8203 6.82669 6.82131 6.82475C6.82231 6.82285 6.82286 6.822 6.82292 6.82192C6.82296 6.82185 6.8228 6.82209 6.82252 6.82243C6.82224 6.82278 6.82222 6.82276 6.82267 6.82231L5.76201 5.76165C5.45299 6.07067 5.34054 6.4464 5.29275 6.80188C5.24786 7.13578 5.24945 7.54888 5.24945 7.99908H6.74945ZM7.99945 17.2491C7.50684 17.2491 7.21284 17.2475 7.00211 17.2192C6.90556 17.2062 6.85719 17.1909 6.83541 17.1819C6.83037 17.1798 6.82705 17.1782 6.82512 17.1772C6.82321 17.1762 6.82236 17.1757 6.82228 17.1756C6.82221 17.1756 6.82245 17.1757 6.8228 17.176C6.82314 17.1763 6.82313 17.1763 6.82267 17.1759L5.76201 18.2365C6.07104 18.5455 6.44676 18.658 6.80224 18.7058C7.13615 18.7507 7.54925 18.7491 7.99945 18.7491V17.2491ZM5.24945 15.9991C5.24945 16.4493 5.24786 16.8624 5.29275 17.1963C5.34054 17.5518 5.45299 17.9275 5.76201 18.2365L6.82267 17.1759C6.82222 17.1754 6.82224 17.1754 6.82252 17.1757C6.8228 17.1761 6.82296 17.1763 6.82292 17.1762C6.82286 17.1762 6.82231 17.1753 6.82131 17.1734C6.8203 17.1715 6.81868 17.1682 6.81661 17.1631C6.80765 17.1413 6.79235 17.093 6.77937 16.9964C6.75104 16.7857 6.74945 16.4917 6.74945 15.9991H5.24945ZM9.24945 15.9991C9.24945 16.4917 9.24786 16.7857 9.21952 16.9964C9.20654 17.093 9.19125 17.1413 9.18229 17.1631C9.18021 17.1682 9.1786 17.1715 9.17759 17.1734C9.17659 17.1753 9.17604 17.1762 9.17598 17.1762C9.17594 17.1763 9.1761 17.1761 9.17638 17.1757C9.17666 17.1754 9.17668 17.1754 9.17623 17.1759L10.2369 18.2365C10.5459 17.9275 10.6584 17.5518 10.7061 17.1963C10.751 16.8624 10.7494 16.4493 10.7494 15.9991H9.24945ZM7.99945 18.7491C8.44965 18.7491 8.86275 18.7507 9.19666 18.7058C9.55214 18.658 9.92786 18.5455 10.2369 18.2365L9.17623 17.1759C9.17577 17.1763 9.17575 17.1763 9.1761 17.176C9.17644 17.1757 9.17668 17.1756 9.17662 17.1756C9.17653 17.1757 9.17568 17.1762 9.17378 17.1772C9.17184 17.1782 9.16853 17.1798 9.16348 17.1819C9.1417 17.1909 9.09334 17.2062 8.99678 17.2192C8.78606 17.2475 8.49206 17.2491 7.99945 17.2491V18.7491ZM7.99945 14.7491C8.49206 14.7491 8.78606 14.7507 8.99678 14.779C9.09334 14.792 9.1417 14.8073 9.16348 14.8162C9.16853 14.8183 9.17184 14.8199 9.17378 14.8209C9.17568 14.8219 9.17653 14.8225 9.17662 14.8225C9.17668 14.8226 9.17644 14.8224 9.1761 14.8222C9.17575 14.8219 9.17577 14.8218 9.17623 14.8223L10.2369 13.7616C9.92786 13.4526 9.55214 13.3402 9.19666 13.2924C8.86275 13.2475 8.44965 13.2491 7.99945 13.2491V14.7491ZM10.7494 15.9991C10.7494 15.5489 10.751 15.1358 10.7061 14.8019C10.6584 14.4464 10.5459 14.0707 10.2369 13.7616L9.17623 14.8223C9.17668 14.8228 9.17666 14.8228 9.17638 14.8224C9.1761 14.8221 9.17594 14.8218 9.17598 14.8219C9.17604 14.822 9.17659 14.8228 9.17759 14.8248C9.1786 14.8267 9.18021 14.83 9.18229 14.835C9.19125 14.8568 9.20654 14.9052 9.21952 15.0017C9.24786 15.2125 9.24945 15.5065 9.24945 15.9991H10.7494ZM7.99945 13.2491C7.54925 13.2491 7.13615 13.2475 6.80224 13.2924C6.44676 13.3402 6.07104 13.4526 5.76201 13.7616L6.82267 14.8223C6.82313 14.8218 6.82314 14.8219 6.8228 14.8222C6.82245 14.8224 6.82221 14.8226 6.82228 14.8225C6.82236 14.8225 6.82321 14.8219 6.82512 14.8209C6.82705 14.8199 6.83037 14.8183 6.83541 14.8162C6.85719 14.8073 6.90556 14.792 7.00211 14.779C7.21284 14.7507 7.50684 14.7491 7.99945 14.7491V13.2491ZM6.74945 15.9991C6.74945 15.5065 6.75104 15.2125 6.77937 15.0017C6.79235 14.9052 6.80765 14.8568 6.81661 14.835C6.81868 14.83 6.8203 14.8267 6.82131 14.8248C6.82231 14.8228 6.82286 14.822 6.82292 14.8219C6.82296 14.8218 6.8228 14.8221 6.82252 14.8224C6.82224 14.8228 6.82222 14.8228 6.82267 14.8223L5.76201 13.7616C5.45299 14.0707 5.34054 14.4464 5.29275 14.8019C5.24786 15.1358 5.24945 15.5489 5.24945 15.9991H6.74945ZM15.9994 17.2491C15.5068 17.2491 15.2128 17.2475 15.0021 17.2192C14.9056 17.2062 14.8572 17.1909 14.8354 17.1819C14.8304 17.1798 14.8271 17.1782 14.8251 17.1772C14.8232 17.1762 14.8224 17.1757 14.8223 17.1756C14.8222 17.1756 14.8224 17.1757 14.8228 17.176C14.8231 17.1763 14.8231 17.1763 14.8227 17.1759L13.762 18.2365C14.071 18.5455 14.4468 18.658 14.8022 18.7058C15.1361 18.7507 15.5492 18.7491 15.9994 18.7491V17.2491ZM13.2494 15.9991C13.2494 16.4493 13.2479 16.8624 13.2927 17.1963C13.3405 17.5518 13.453 17.9275 13.762 18.2365L14.8227 17.1759C14.8222 17.1754 14.8222 17.1754 14.8225 17.1757C14.8228 17.1761 14.823 17.1763 14.8229 17.1762C14.8229 17.1762 14.8223 17.1753 14.8213 17.1734C14.8203 17.1715 14.8187 17.1682 14.8166 17.1631C14.8076 17.1413 14.7924 17.093 14.7794 16.9964C14.751 16.7857 14.7494 16.4917 14.7494 15.9991H13.2494ZM17.2494 15.9991C17.2494 16.4917 17.2479 16.7857 17.2195 16.9964C17.2065 17.093 17.1912 17.1413 17.1823 17.1631C17.1802 17.1682 17.1786 17.1715 17.1776 17.1734C17.1766 17.1753 17.176 17.1762 17.176 17.1762C17.1759 17.1763 17.1761 17.1761 17.1764 17.1757C17.1767 17.1754 17.1767 17.1754 17.1762 17.1759L18.2369 18.2365C18.5459 17.9275 18.6584 17.5518 18.7061 17.1963C18.751 16.8624 18.7494 16.4493 18.7494 15.9991H17.2494ZM15.9994 18.7491C16.4496 18.7491 16.8627 18.7507 17.1967 18.7058C17.5521 18.658 17.9279 18.5455 18.2369 18.2365L17.1762 17.1759C17.1758 17.1763 17.1757 17.1763 17.1761 17.176C17.1764 17.1757 17.1767 17.1756 17.1766 17.1756C17.1765 17.1757 17.1757 17.1762 17.1738 17.1772C17.1718 17.1782 17.1685 17.1798 17.1635 17.1819C17.1417 17.1909 17.0933 17.2062 16.9968 17.2192C16.7861 17.2475 16.4921 17.2491 15.9994 17.2491V18.7491ZM15.9994 14.7491C16.4921 14.7491 16.7861 14.7507 16.9968 14.779C17.0933 14.792 17.1417 14.8073 17.1635 14.8162C17.1685 14.8183 17.1718 14.8199 17.1738 14.8209C17.1757 14.8219 17.1765 14.8225 17.1766 14.8225C17.1767 14.8226 17.1764 14.8224 17.1761 14.8222C17.1757 14.8219 17.1758 14.8218 17.1762 14.8223L18.2369 13.7616C17.9279 13.4526 17.5521 13.3402 17.1967 13.2924C16.8627 13.2475 16.4496 13.2491 15.9994 13.2491V14.7491ZM18.7494 15.9991C18.7494 15.5489 18.751 15.1358 18.7061 14.8019C18.6584 14.4464 18.5459 14.0707 18.2369 13.7616L17.1762 14.8223C17.1767 14.8228 17.1767 14.8228 17.1764 14.8224C17.1761 14.8221 17.1759 14.8218 17.176 14.8219C17.176 14.822 17.1766 14.8228 17.1776 14.8248C17.1786 14.8267 17.1802 14.83 17.1823 14.835C17.1912 14.8568 17.2065 14.9052 17.2195 15.0017C17.2479 15.2125 17.2494 15.5065 17.2494 15.9991H18.7494ZM15.9994 13.2491C15.5492 13.2491 15.1361 13.2475 14.8022 13.2924C14.4468 13.3402 14.071 13.4526 13.762 13.7616L14.8227 14.8223C14.8231 14.8218 14.8231 14.8219 14.8228 14.8222C14.8224 14.8224 14.8222 14.8226 14.8223 14.8225C14.8224 14.8225 14.8232 14.8219 14.8251 14.8209C14.8271 14.8199 14.8304 14.8183 14.8354 14.8162C14.8572 14.8073 14.9056 14.792 15.0021 14.779C15.2128 14.7507 15.5068 14.7491 15.9994 14.7491V13.2491ZM14.7494 15.9991C14.7494 15.5065 14.751 15.2125 14.7794 15.0017C14.7924 14.9052 14.8076 14.8568 14.8166 14.835C14.8187 14.83 14.8203 14.8267 14.8213 14.8248C14.8223 14.8228 14.8229 14.822 14.8229 14.8219C14.823 14.8218 14.8228 14.8221 14.8225 14.8224C14.8222 14.8228 14.8222 14.8228 14.8227 14.8223L13.762 13.7616C13.453 14.0707 13.3405 14.4464 13.2927 14.8019C13.2479 15.1358 13.2494 15.5489 13.2494 15.9991H14.7494Z" fill="black"/>
</svg>
