<svg width="24" height="24" viewBox="0 0 24 24" fill="none" xmlns="http://www.w3.org/2000/svg">
<g clip-path="url(#clip0_0_1)">
<path d="M23.0001 12.7491C23.4144 12.7491 23.7501 12.4133 23.7501 11.9991C23.7501 11.5849 23.4144 11.2491 23.0001 11.2491V12.7491ZM1.00015 11.2491C0.585939 11.2491 0.250153 11.5849 0.250153 11.9991C0.250153 12.4133 0.585939 12.7491 1.00015 12.7491V11.2491ZM3.00015 15.9991L2.25015 15.9991L2.25015 15.9991L3.00015 15.9991ZM3.75015 14.9991C3.75015 14.5849 3.41437 14.2491 3.00015 14.2491C2.58594 14.2491 2.25015 14.5849 2.25015 14.9991H3.75015ZM9.00015 21.7491C9.41436 21.7491 9.75015 21.4133 9.75015 20.9991C9.75015 20.5849 9.41436 20.2491 9.00015 20.2491V21.7491ZM8.00015 20.9991L8.00015 20.2491H8.00015L8.00015 20.9991ZM9.00015 3.74908C9.41436 3.74908 9.75015 3.4133 9.75015 2.99908C9.75015 2.58487 9.41436 2.24909 9.00015 2.24909V3.74908ZM2.25015 8.99908C2.25015 9.4133 2.58594 9.74908 3.00015 9.74908C3.41437 9.74908 3.75015 9.4133 3.75015 8.99908H2.25015ZM21.0001 7.99908L20.2501 7.99908V7.99908H21.0001ZM20.2501 8.99908C20.2501 9.4133 20.5859 9.74908 21.0001 9.74908C21.4144 9.74908 21.7501 9.4133 21.7501 8.99908H20.2501ZM15.0001 2.24908C14.5859 2.24908 14.2501 2.58487 14.2501 2.99908C14.2501 3.4133 14.5859 3.74908 15.0001 3.74908L15.0001 2.24908ZM16.0001 2.99908L16.0001 2.24908L16.0001 2.99908ZM16.0001 20.9991L16.0001 20.2491H16.0001V20.9991ZM15.0001 20.2491C14.5859 20.2491 14.2501 20.5849 14.2501 20.9991C14.2501 21.4133 14.5859 21.7491 15.0001 21.7491V20.2491ZM21.7501 14.9991C21.7501 14.5849 21.4144 14.2491 21.0001 14.2491C20.5859 14.2491 20.2501 14.5849 20.2501 14.9991H21.7501ZM21.0001 15.9991L21.7501 15.9991V15.9991H21.0001ZM23.0001 11.2491H1.00015V12.7491H23.0001V11.2491ZM3.75015 15.9991V14.9991H2.25015V15.9991H3.75015ZM9.00015 20.2491H8.00015V21.7491H9.00015V20.2491ZM2.25015 15.9991C2.25015 19.1747 4.82451 21.7491 8.00015 21.7491L8.00015 20.2491C5.65294 20.2491 3.75015 18.3463 3.75015 15.9991L2.25015 15.9991ZM8.00015 3.74908H9.00015V2.24909H8.00015V3.74908ZM3.75015 8.99908V7.99908H2.25015V8.99908H3.75015ZM8.00015 2.24909C4.82451 2.24909 2.25015 4.82345 2.25015 7.99908H3.75015C3.75015 5.65187 5.65294 3.74908 8.00015 3.74908V2.24909ZM20.2501 7.99908V8.99908H21.7501V7.99908H20.2501ZM15.0001 3.74908L16.0001 3.74908L16.0001 2.24908L15.0001 2.24908L15.0001 3.74908ZM21.7501 7.99908C21.7501 4.82345 19.1758 2.24908 16.0001 2.24908L16.0001 3.74908C18.3474 3.74908 20.2501 5.65187 20.2501 7.99908L21.7501 7.99908ZM16.0001 20.2491H15.0001V21.7491H16.0001V20.2491ZM20.2501 14.9991V15.9991H21.7501V14.9991H20.2501ZM16.0001 21.7491C19.1758 21.7491 21.7501 19.1747 21.7501 15.9991L20.2501 15.9991C20.2501 18.3463 18.3474 20.2491 16.0001 20.2491L16.0001 21.7491Z" fill="black"/>
</g>
<defs>
<clipPath id="clip0_0_1">
<rect width="24" height="24" fill="black" transform="translate(-0.000366211 -0.000732422)"/>
</clipPath>
</defs>
</svg>
