<svg width="24" height="24" viewBox="0 0 24 24" fill="none" xmlns="http://www.w3.org/2000/svg">
<g clip-path="url(#clip0_0_1)">
<path d="M2.48962 13.999C2.52507 15.3022 2.6417 16.1466 3.02537 16.8945C3.10087 17.0417 3.18361 17.185 3.27331 17.324C3.92827 18.3386 5.03127 18.9754 7.23728 20.2491C8.40942 20.9258 9.27023 21.4228 10.0005 21.7489M21.5112 13.999C21.4758 15.3022 21.3591 16.1466 20.9755 16.8945C20.9 17.0417 20.8172 17.185 20.7275 17.324C20.0726 18.3386 18.9696 18.9754 16.7636 20.2491C15.5914 20.9258 14.7306 21.4228 14.0003 21.7489M21.5112 9.99911C21.4758 8.69591 21.3591 7.85153 20.9755 7.10361C20.9 6.95645 20.8172 6.81313 20.7275 6.67417C20.0726 5.65952 18.9696 5.0227 16.7636 3.74906C15.5914 3.07231 14.7306 2.57535 14.0003 2.24921M2.48962 9.99911C2.52507 8.69591 2.64169 7.85153 3.02537 7.10361C3.10087 6.95645 3.18361 6.81313 3.27331 6.67417C3.92827 5.65952 5.03127 5.0227 7.23728 3.74906C8.40946 3.07231 9.27022 2.57535 10.0005 2.24921M23.0003 13.9991H1.00032" stroke="black" stroke-width="1.5" stroke-linecap="round"/>
</g>
<defs>
<clipPath id="clip0_0_1">
<rect width="24" height="24" fill="black" transform="translate(0 -0.000732422)"/>
</clipPath>
</defs>
</svg>
