<svg width="24" height="24" viewBox="0 0 24 24" fill="none" xmlns="http://www.w3.org/2000/svg">
<path d="M2.99959 15.9992L2.24959 15.9992L2.99959 15.9992ZM3.74959 14.9992C3.74959 14.585 3.4138 14.2492 2.99959 14.2492C2.58537 14.2492 2.24959 14.585 2.24959 14.9992L3.74959 14.9992ZM8.99959 21.7492C9.4138 21.7492 9.74959 21.4134 9.74959 20.9992C9.74959 20.585 9.4138 20.2492 8.99959 20.2492V21.7492ZM7.99959 20.9992L7.99959 20.2492H7.99959L7.99959 20.9992ZM8.99959 3.74921C9.4138 3.74921 9.74959 3.41342 9.74959 2.99921C9.74959 2.58499 9.4138 2.24921 8.99959 2.24921V3.74921ZM2.24959 8.9992C2.24959 9.41342 2.58537 9.7492 2.99959 9.7492C3.4138 9.7492 3.74959 9.41342 3.74959 8.9992H2.24959ZM20.9996 7.9992L20.2496 7.9992V7.9992H20.9996ZM20.2496 8.9992C20.2496 9.41342 20.5854 9.7492 20.9996 9.7492C21.4138 9.7492 21.7496 9.41342 21.7496 8.9992H20.2496ZM14.9996 2.24921C14.5854 2.24921 14.2496 2.58499 14.2496 2.99921C14.2496 3.41342 14.5854 3.74921 14.9996 3.74921L14.9996 2.24921ZM15.9996 2.99921L15.9996 2.24921L15.9996 2.99921ZM15.9996 20.9992L15.9996 20.2492H15.9996V20.9992ZM14.9996 20.2492C14.5854 20.2492 14.2496 20.585 14.2496 20.9992C14.2496 21.4134 14.5854 21.7492 14.9996 21.7492V20.2492ZM21.7496 14.9992C21.7496 14.585 21.4138 14.2492 20.9996 14.2492C20.5854 14.2492 20.2496 14.585 20.2496 14.9992H21.7496ZM20.9996 15.9992L21.7496 15.9992V15.9992H20.9996ZM17.7994 13.722C18.1986 13.8326 18.6118 13.5986 18.7224 13.1994C18.8329 12.8002 18.599 12.387 18.1998 12.2764L17.7994 13.722ZM11.9996 11.9992L11.9996 11.2492L11.9996 11.9992ZM5.79939 12.2764C5.40021 12.387 5.16624 12.8002 5.2768 13.1994C5.38736 13.5986 5.8006 13.8326 6.19978 13.722L5.79939 12.2764ZM3.74959 15.9992L3.74959 14.9992L2.24959 14.9992L2.24959 15.9992L3.74959 15.9992ZM8.99959 20.2492H7.99959V21.7492H8.99959V20.2492ZM2.24959 15.9992C2.24959 19.1748 4.82395 21.7492 7.99959 21.7492L7.99959 20.2492C5.65238 20.2492 3.74959 18.3464 3.74959 15.9992L2.24959 15.9992ZM7.99959 3.74921H8.99959V2.24921H7.99959V3.74921ZM3.74959 8.9992V7.9992H2.24959V8.9992H3.74959ZM7.99959 2.24921C4.82395 2.24921 2.24959 4.82357 2.24959 7.9992H3.74959C3.74959 5.652 5.65238 3.74921 7.99959 3.74921V2.24921ZM20.2496 7.9992V8.9992H21.7496V7.9992H20.2496ZM14.9996 3.74921L15.9996 3.74921L15.9996 2.24921L14.9996 2.24921L14.9996 3.74921ZM21.7496 7.9992C21.7496 4.82357 19.1752 2.24921 15.9996 2.24921L15.9996 3.74921C18.3468 3.74921 20.2496 5.652 20.2496 7.9992L21.7496 7.9992ZM15.9996 20.2492H14.9996V21.7492H15.9996V20.2492ZM20.2496 14.9992V15.9992H21.7496V14.9992H20.2496ZM15.9996 21.7492C19.1752 21.7492 21.7496 19.1748 21.7496 15.9992L20.2496 15.9992C20.2496 18.3464 18.3468 20.2492 15.9996 20.2492L15.9996 21.7492ZM17.9996 12.9992C18.1998 12.2764 18.1997 12.2764 18.1996 12.2764C18.1996 12.2764 18.1995 12.2763 18.1994 12.2763C18.1992 12.2762 18.1989 12.2762 18.1986 12.2761C18.198 12.2759 18.1972 12.2757 18.1962 12.2754C18.1941 12.2749 18.1912 12.274 18.1874 12.273C18.1798 12.2709 18.1688 12.2679 18.1546 12.2641C18.1262 12.2564 18.0848 12.2452 18.0315 12.2312C17.9251 12.203 17.7713 12.1631 17.5796 12.1153C17.1966 12.0197 16.6608 11.8924 16.0485 11.7649C14.8379 11.513 13.2752 11.2492 11.9996 11.2492L11.9996 12.7492C13.1135 12.7492 14.5508 12.9854 15.7429 13.2335C16.3318 13.356 16.848 13.4787 17.2166 13.5707C17.4007 13.6166 17.5477 13.6548 17.648 13.6813C17.6982 13.6946 17.7367 13.7049 17.7623 13.7119C17.7751 13.7153 17.7847 13.718 17.7909 13.7197C17.794 13.7205 17.7963 13.7211 17.7977 13.7215C17.7984 13.7217 17.7989 13.7219 17.7992 13.7219C17.7994 13.722 17.7994 13.722 17.7995 13.722C17.7995 13.722 17.7995 13.722 17.7995 13.722C17.7994 13.722 17.7994 13.722 17.9996 12.9992ZM11.9996 11.2492C10.7239 11.2492 9.16129 11.513 7.9507 11.7649C7.33833 11.8924 6.80253 12.0197 6.41953 12.1153C6.22787 12.1631 6.07408 12.203 5.96763 12.2312C5.9144 12.2452 5.87297 12.2564 5.84455 12.2641C5.83033 12.2679 5.81936 12.2709 5.81179 12.273C5.808 12.274 5.80506 12.2749 5.80299 12.2754C5.80196 12.2757 5.80114 12.2759 5.80054 12.2761C5.80024 12.2762 5.79999 12.2762 5.7998 12.2763C5.7997 12.2763 5.7996 12.2764 5.79956 12.2764C5.79947 12.2764 5.79939 12.2764 5.99959 12.9992C6.19978 13.722 6.19973 13.722 6.1997 13.722C6.19971 13.722 6.19969 13.722 6.1997 13.722C6.19973 13.722 6.19982 13.722 6.19996 13.7219C6.20023 13.7219 6.20073 13.7217 6.20143 13.7215C6.20285 13.7211 6.20513 13.7205 6.20824 13.7197C6.21448 13.718 6.22408 13.7153 6.23689 13.7119C6.26252 13.7049 6.30099 13.6946 6.35115 13.6813C6.45148 13.6548 6.59842 13.6166 6.78259 13.5707C7.15121 13.4787 7.66738 13.356 8.25631 13.2335C9.44833 12.9854 10.8857 12.7492 11.9996 12.7492L11.9996 11.2492Z" fill="black"/>
</svg>
