<svg width="24" height="24" viewBox="0 0 24 24" fill="none" xmlns="http://www.w3.org/2000/svg">
<path d="M17.9997 12.7492C18.4139 12.7492 18.7497 12.4134 18.7497 11.9992C18.7497 11.585 18.4139 11.2492 17.9997 11.2492V12.7492ZM5.9997 11.2492C5.58549 11.2492 5.2497 11.585 5.2497 11.9992C5.2497 12.4134 5.58549 12.7492 5.9997 12.7492V11.2492ZM3.7497 14.9992C3.7497 14.585 3.41392 14.2492 2.9997 14.2492C2.58549 14.2492 2.2497 14.585 2.2497 14.9992H3.7497ZM8.9997 21.7492C9.41391 21.7492 9.7497 21.4134 9.7497 20.9992C9.7497 20.585 9.41391 20.2492 8.9997 20.2492V21.7492ZM8.9997 3.74921C9.41391 3.74921 9.7497 3.41342 9.7497 2.99921C9.7497 2.58499 9.41391 2.24921 8.9997 2.24921V3.74921ZM2.2497 8.9992C2.2497 9.41342 2.58549 9.7492 2.9997 9.7492C3.41392 9.7492 3.7497 9.41342 3.7497 8.9992H2.2497ZM20.2497 8.9992C20.2497 9.41342 20.5855 9.7492 20.9997 9.7492C21.4139 9.7492 21.7497 9.41342 21.7497 8.9992H20.2497ZM14.9997 2.24921C14.5855 2.24921 14.2497 2.58499 14.2497 2.99921C14.2497 3.41342 14.5855 3.74921 14.9997 3.74921V2.24921ZM15.9997 20.9992L15.9997 20.2492H15.9997V20.9992ZM14.9997 20.2492C14.5855 20.2492 14.2497 20.585 14.2497 20.9992C14.2497 21.4134 14.5855 21.7492 14.9997 21.7492V20.2492ZM21.7497 14.9992C21.7497 14.585 21.4139 14.2492 20.9997 14.2492C20.5855 14.2492 20.2497 14.585 20.2497 14.9992H21.7497ZM20.9997 15.9992L21.7497 15.9992V15.9992H20.9997ZM17.9997 11.2492H5.9997V12.7492H17.9997V11.2492ZM3.7497 15.9992V14.9992H2.2497V15.9992H3.7497ZM8.9997 20.2492H7.9997V21.7492H8.9997V20.2492ZM2.2497 15.9992C2.2497 19.1748 4.82407 21.7492 7.9997 21.7492V20.2492C5.65249 20.2492 3.7497 18.3464 3.7497 15.9992H2.2497ZM7.9997 3.74921H8.9997V2.24921H7.9997V3.74921ZM3.7497 8.9992V7.9992H2.2497V8.9992H3.7497ZM7.9997 2.24921C4.82406 2.24921 2.2497 4.82357 2.2497 7.9992H3.7497C3.7497 5.652 5.65249 3.74921 7.9997 3.74921V2.24921ZM20.2497 7.9992V8.9992H21.7497V7.9992H20.2497ZM14.9997 3.74921H15.9997V2.24921H14.9997V3.74921ZM21.7497 7.9992C21.7497 4.82357 19.1753 2.24921 15.9997 2.24921V3.74921C18.3469 3.74921 20.2497 5.652 20.2497 7.9992H21.7497ZM15.9997 20.2492H14.9997V21.7492H15.9997V20.2492ZM20.2497 14.9992V15.9992H21.7497V14.9992H20.2497ZM15.9997 21.7492C19.1753 21.7492 21.7497 19.1748 21.7497 15.9992L20.2497 15.9992C20.2497 18.3464 18.3469 20.2492 15.9997 20.2492L15.9997 21.7492Z" fill="black"/>
</svg>
