<svg width="24" height="24" viewBox="0 0 24 24" fill="none" xmlns="http://www.w3.org/2000/svg">
<path d="M2.99969 15.9991L2.2497 15.9991L2.99969 15.9991ZM3.74969 14.9991C3.74969 14.5849 3.41391 14.2491 2.99969 14.2491C2.58548 14.2491 2.2497 14.5849 2.2497 14.9991L3.74969 14.9991ZM8.99969 21.7491C9.41391 21.7491 9.74969 21.4134 9.74969 20.9991C9.74969 20.5849 9.41391 20.2491 8.99969 20.2491V21.7491ZM7.99969 20.9991L7.99969 20.2491H7.99969L7.99969 20.9991ZM8.99969 3.74915C9.41391 3.74915 9.74969 3.41336 9.74969 2.99915C9.74969 2.58493 9.41391 2.24915 8.99969 2.24915V3.74915ZM2.2497 8.99914C2.2497 9.41336 2.58548 9.74914 2.9997 9.74914C3.41391 9.74914 3.74969 9.41336 3.74969 8.99914H2.2497ZM20.9997 7.99914L20.2497 7.99914V7.99914H20.9997ZM20.2497 8.99914C20.2497 9.41336 20.5855 9.74914 20.9997 9.74914C21.4139 9.74914 21.7497 9.41336 21.7497 8.99914H20.2497ZM14.9997 2.24915C14.5855 2.24915 14.2497 2.58493 14.2497 2.99915C14.2497 3.41336 14.5855 3.74915 14.9997 3.74915L14.9997 2.24915ZM15.9997 2.99915L15.9997 2.24915L15.9997 2.99915ZM15.9997 20.9991L15.9997 20.2491H15.9997V20.9991ZM14.9997 20.2491C14.5855 20.2491 14.2497 20.5849 14.2497 20.9991C14.2497 21.4134 14.5855 21.7491 14.9997 21.7491V20.2491ZM21.7497 14.9991C21.7497 14.5849 21.4139 14.2491 20.9997 14.2491C20.5855 14.2491 20.2497 14.5849 20.2497 14.9991H21.7497ZM20.9997 15.9991L21.7497 15.9991V15.9991H20.9997ZM3.74969 15.9991L3.74969 14.9991L2.2497 14.9991L2.2497 15.9991L3.74969 15.9991ZM8.99969 20.2491H7.99969V21.7491H8.99969V20.2491ZM2.2497 15.9991C2.2497 19.1748 4.82406 21.7491 7.99969 21.7491L7.99969 20.2491C5.65248 20.2491 3.74969 18.3463 3.74969 15.9991L2.2497 15.9991ZM7.99969 3.74915H8.99969V2.24915H7.99969V3.74915ZM3.74969 8.99914V7.99914H2.2497V8.99914H3.74969ZM7.99969 2.24915C4.82406 2.24915 2.2497 4.82351 2.2497 7.99914H3.74969C3.74969 5.65193 5.65248 3.74915 7.99969 3.74915V2.24915ZM20.2497 7.99914V8.99914H21.7497V7.99914H20.2497ZM14.9997 3.74915L15.9997 3.74915L15.9997 2.24915L14.9997 2.24915L14.9997 3.74915ZM21.7497 7.99914C21.7497 4.82351 19.1753 2.24915 15.9997 2.24915L15.9997 3.74915C18.3469 3.74915 20.2497 5.65193 20.2497 7.99914L21.7497 7.99914ZM15.9997 20.2491H14.9997V21.7491H15.9997V20.2491ZM20.2497 14.9991V15.9991H21.7497V14.9991H20.2497ZM15.9997 21.7491C19.1753 21.7491 21.7497 19.1748 21.7497 15.9991L20.2497 15.9991C20.2497 18.3463 18.3469 20.2491 15.9997 20.2491L15.9997 21.7491ZM7.99969 9.24914C7.50709 9.24914 7.21308 9.24755 7.00236 9.21922C6.9058 9.20624 6.85744 9.19095 6.83566 9.18198C6.83061 9.17991 6.8273 9.17829 6.82536 9.17728C6.82346 9.17629 6.82261 9.17573 6.82253 9.17568C6.82246 9.17563 6.8227 9.17579 6.82304 9.17607C6.82339 9.17635 6.82337 9.17638 6.82292 9.17592L5.76226 10.2366C6.07128 10.5456 6.44701 10.658 6.80249 10.7058C7.13639 10.7507 7.54949 10.7491 7.99969 10.7491V9.24914ZM5.24969 7.99914C5.24969 8.44935 5.2481 8.86245 5.29299 9.19635C5.34079 9.55183 5.45323 9.92756 5.76226 10.2366L6.82292 9.17592C6.82246 9.17546 6.82248 9.17545 6.82276 9.17579C6.82305 9.17614 6.8232 9.17638 6.82316 9.17631C6.82311 9.17623 6.82255 9.17538 6.82155 9.17347C6.82054 9.17154 6.81893 9.16822 6.81685 9.16318C6.80789 9.1414 6.7926 9.09304 6.77962 8.99648C6.75129 8.78576 6.74969 8.49175 6.74969 7.99914H5.24969ZM9.24969 7.99914C9.24969 8.49175 9.2481 8.78576 9.21977 8.99648C9.20679 9.09304 9.19149 9.1414 9.18253 9.16318C9.18046 9.16822 9.17884 9.17154 9.17783 9.17347C9.17684 9.17538 9.17628 9.17623 9.17623 9.17631C9.17618 9.17638 9.17634 9.17614 9.17662 9.17579C9.1769 9.17545 9.17693 9.17546 9.17647 9.17592L10.2371 10.2366C10.5462 9.92756 10.6586 9.55183 10.7064 9.19635C10.7513 8.86245 10.7497 8.44935 10.7497 7.99914H9.24969ZM7.99969 10.7491C8.4499 10.7491 8.863 10.7507 9.1969 10.7058C9.55238 10.658 9.92811 10.5456 10.2371 10.2366L9.17647 9.17592C9.17601 9.17638 9.176 9.17635 9.17634 9.17607C9.17669 9.17579 9.17693 9.17563 9.17686 9.17568C9.17678 9.17573 9.17593 9.17629 9.17402 9.17728C9.17209 9.17829 9.16877 9.17991 9.16373 9.18198C9.14195 9.19095 9.09359 9.20624 8.99703 9.21922C8.78631 9.24755 8.4923 9.24914 7.99969 9.24914V10.7491ZM7.99969 6.74914C8.4923 6.74914 8.78631 6.75074 8.99703 6.77907C9.09359 6.79205 9.14195 6.80734 9.16373 6.8163C9.16877 6.81838 9.17209 6.81999 9.17402 6.821C9.17593 6.822 9.17678 6.82256 9.17686 6.82261C9.17693 6.82265 9.17669 6.8225 9.17634 6.82221C9.176 6.82193 9.17601 6.82191 9.17647 6.82237L10.2371 5.76171C9.92811 5.45268 9.55238 5.34024 9.1969 5.29244C8.863 5.24755 8.4499 5.24914 7.99969 5.24914V6.74914ZM10.7497 7.99914C10.7497 7.54894 10.7513 7.13584 10.7064 6.80194C10.6586 6.44646 10.5462 6.07073 10.2371 5.76171L9.17647 6.82237C9.17693 6.82282 9.1769 6.82284 9.17662 6.82249C9.17634 6.82215 9.17618 6.82191 9.17623 6.82198C9.17628 6.82206 9.17684 6.82291 9.17783 6.82482C9.17884 6.82675 9.18046 6.83006 9.18253 6.83511C9.19149 6.85689 9.20679 6.90525 9.21977 7.00181C9.2481 7.21253 9.24969 7.50654 9.24969 7.99914H10.7497ZM7.99969 5.24914C7.54949 5.24914 7.13639 5.24755 6.80249 5.29244C6.44701 5.34024 6.07128 5.45268 5.76226 5.76171L6.82292 6.82237C6.82337 6.82191 6.82339 6.82193 6.82304 6.82221C6.8227 6.8225 6.82246 6.82265 6.82253 6.82261C6.82261 6.82256 6.82346 6.822 6.82536 6.821C6.8273 6.82 6.83061 6.81838 6.83566 6.8163C6.85744 6.80734 6.9058 6.79205 7.00236 6.77907C7.21308 6.75074 7.50709 6.74914 7.99969 6.74914V5.24914ZM6.74969 7.99914C6.74969 7.50654 6.75129 7.21253 6.77962 7.00181C6.7926 6.90525 6.80789 6.85689 6.81685 6.83511C6.81893 6.83006 6.82054 6.82675 6.82155 6.82482C6.82255 6.82291 6.82311 6.82206 6.82316 6.82198C6.8232 6.82191 6.82305 6.82215 6.82276 6.82249C6.82248 6.82284 6.82246 6.82282 6.82292 6.82237L5.76226 5.76171C5.45323 6.07073 5.34079 6.44646 5.29299 6.80194C5.2481 7.13584 5.24969 7.54894 5.24969 7.99914H6.74969ZM15.9997 9.24914C15.5071 9.24914 15.2131 9.24755 15.0024 9.21922C14.9058 9.20624 14.8574 9.19095 14.8357 9.18198C14.8306 9.17991 14.8273 9.17829 14.8254 9.17728C14.8235 9.17629 14.8226 9.17573 14.8225 9.17568C14.8225 9.17563 14.8227 9.17579 14.823 9.17607C14.8234 9.17635 14.8234 9.17638 14.8229 9.17592L13.7623 10.2366C14.0713 10.5456 14.447 10.658 14.8025 10.7058C15.1364 10.7507 15.5495 10.7491 15.9997 10.7491V9.24914ZM13.2497 7.99914C13.2497 8.44935 13.2481 8.86245 13.293 9.19635C13.3408 9.55183 13.4532 9.92756 13.7623 10.2366L14.8229 9.17592C14.8225 9.17546 14.8225 9.17545 14.8228 9.17579C14.823 9.17614 14.8232 9.17638 14.8232 9.17631C14.8231 9.17623 14.8225 9.17538 14.8216 9.17347C14.8205 9.17154 14.8189 9.16822 14.8168 9.16318C14.8079 9.1414 14.7926 9.09304 14.7796 8.99648C14.7513 8.78576 14.7497 8.49175 14.7497 7.99914H13.2497ZM17.2497 7.99914C17.2497 8.49175 17.2481 8.78576 17.2198 8.99648C17.2068 9.09304 17.1915 9.1414 17.1825 9.16318C17.1805 9.16822 17.1788 9.17154 17.1778 9.17347C17.1768 9.17538 17.1763 9.17623 17.1762 9.17631C17.1762 9.17638 17.1763 9.17614 17.1766 9.17579C17.1769 9.17545 17.1769 9.17546 17.1765 9.17592L18.2371 10.2366C18.5461 9.92756 18.6586 9.55183 18.7064 9.19635C18.7513 8.86245 18.7497 8.44935 18.7497 7.99914H17.2497ZM15.9997 10.7491C16.4499 10.7491 16.863 10.7507 17.1969 10.7058C17.5524 10.658 17.9281 10.5456 18.2371 10.2366L17.1765 9.17592C17.176 9.17638 17.176 9.17635 17.1763 9.17607C17.1767 9.17579 17.1769 9.17563 17.1769 9.17568C17.1768 9.17573 17.1759 9.17629 17.174 9.17728C17.1721 9.17829 17.1688 9.17991 17.1637 9.18198C17.1419 9.19095 17.0936 9.20624 16.997 9.21922C16.7863 9.24755 16.4923 9.24914 15.9997 9.24914V10.7491ZM15.9997 6.74914C16.4923 6.74914 16.7863 6.75074 16.997 6.77907C17.0936 6.79205 17.1419 6.80734 17.1637 6.8163C17.1688 6.81838 17.1721 6.81999 17.174 6.821C17.1759 6.822 17.1768 6.82256 17.1769 6.82261C17.1769 6.82265 17.1767 6.8225 17.1763 6.82221C17.176 6.82193 17.176 6.82191 17.1765 6.82237L18.2371 5.76171C17.9281 5.45268 17.5524 5.34024 17.1969 5.29244C16.863 5.24755 16.4499 5.24914 15.9997 5.24914V6.74914ZM18.7497 7.99914C18.7497 7.54894 18.7513 7.13584 18.7064 6.80194C18.6586 6.44646 18.5461 6.07073 18.2371 5.76171L17.1765 6.82237C17.1769 6.82282 17.1769 6.82284 17.1766 6.82249C17.1763 6.82215 17.1762 6.82191 17.1762 6.82198C17.1763 6.82206 17.1768 6.82291 17.1778 6.82482C17.1788 6.82675 17.1805 6.83006 17.1825 6.83511C17.1915 6.85689 17.2068 6.90525 17.2198 7.00181C17.2481 7.21253 17.2497 7.50654 17.2497 7.99914H18.7497ZM15.9997 5.24914C15.5495 5.24914 15.1364 5.24755 14.8025 5.29244C14.447 5.34024 14.0713 5.45268 13.7623 5.76171L14.8229 6.82237C14.8234 6.82191 14.8234 6.82193 14.823 6.82221C14.8227 6.8225 14.8225 6.82265 14.8225 6.82261C14.8226 6.82256 14.8235 6.822 14.8254 6.821C14.8273 6.81999 14.8306 6.81838 14.8357 6.8163C14.8574 6.80734 14.9058 6.79205 15.0024 6.77907C15.2131 6.75074 15.5071 6.74914 15.9997 6.74914V5.24914ZM14.7497 7.99914C14.7497 7.50654 14.7513 7.21253 14.7796 7.00181C14.7926 6.90525 14.8079 6.85689 14.8168 6.83511C14.8189 6.83006 14.8205 6.82675 14.8216 6.82482C14.8225 6.82291 14.8231 6.82206 14.8232 6.82198C14.8232 6.82191 14.823 6.82215 14.8228 6.82249C14.8225 6.82284 14.8225 6.82282 14.8229 6.82237L13.7623 5.76171C13.4532 6.07073 13.3408 6.44646 13.293 6.80194C13.2481 7.13584 13.2497 7.54894 13.2497 7.99914H14.7497ZM15.9997 17.2491C15.5071 17.2491 15.2131 17.2475 15.0024 17.2192C14.9058 17.2062 14.8574 17.1909 14.8357 17.182C14.8306 17.1799 14.8273 17.1783 14.8254 17.1773C14.8235 17.1763 14.8226 17.1757 14.8225 17.1757C14.8225 17.1756 14.8227 17.1758 14.823 17.1761C14.8234 17.1763 14.8234 17.1764 14.8229 17.1759L13.7623 18.2366C14.0713 18.5456 14.447 18.658 14.8025 18.7058C15.1364 18.7507 15.5495 18.7491 15.9997 18.7491V17.2491ZM13.2497 15.9991C13.2497 16.4493 13.2481 16.8624 13.293 17.1963C13.3408 17.5518 13.4532 17.9276 13.7623 18.2366L14.8229 17.1759C14.8225 17.1755 14.8225 17.1754 14.8228 17.1758C14.823 17.1761 14.8232 17.1764 14.8232 17.1763C14.8231 17.1762 14.8225 17.1754 14.8216 17.1735C14.8205 17.1715 14.8189 17.1682 14.8168 17.1632C14.8079 17.1414 14.7926 17.093 14.7796 16.9965C14.7513 16.7858 14.7497 16.4917 14.7497 15.9991H13.2497ZM17.2497 15.9991C17.2497 16.4917 17.2481 16.7858 17.2198 16.9965C17.2068 17.093 17.1915 17.1414 17.1825 17.1632C17.1805 17.1682 17.1788 17.1715 17.1778 17.1735C17.1768 17.1754 17.1763 17.1762 17.1762 17.1763C17.1762 17.1764 17.1763 17.1761 17.1766 17.1758C17.1769 17.1754 17.1769 17.1755 17.1765 17.1759L18.2371 18.2366C18.5461 17.9276 18.6586 17.5518 18.7064 17.1963C18.7513 16.8624 18.7497 16.4493 18.7497 15.9991H17.2497ZM15.9997 18.7491C16.4499 18.7491 16.863 18.7507 17.1969 18.7058C17.5524 18.658 17.9281 18.5456 18.2371 18.2366L17.1765 17.1759C17.176 17.1764 17.176 17.1763 17.1763 17.1761C17.1767 17.1758 17.1769 17.1756 17.1769 17.1757C17.1768 17.1757 17.1759 17.1763 17.174 17.1773C17.1721 17.1783 17.1688 17.1799 17.1637 17.182C17.1419 17.1909 17.0936 17.2062 16.997 17.2192C16.7863 17.2475 16.4923 17.2491 15.9997 17.2491V18.7491ZM15.9997 14.7491C16.4923 14.7491 16.7863 14.7507 16.997 14.7791C17.0936 14.792 17.1419 14.8073 17.1637 14.8163C17.1688 14.8184 17.1721 14.82 17.174 14.821C17.1759 14.822 17.1768 14.8226 17.1769 14.8226C17.1769 14.8227 17.1767 14.8225 17.1763 14.8222C17.176 14.8219 17.176 14.8219 17.1765 14.8224L18.2371 13.7617C17.9281 13.4527 17.5524 13.3402 17.1969 13.2924C16.863 13.2475 16.4499 13.2491 15.9997 13.2491V14.7491ZM18.7497 15.9991C18.7497 15.5489 18.7513 15.1358 18.7064 14.8019C18.6586 14.4465 18.5461 14.0707 18.2371 13.7617L17.1765 14.8224C17.1769 14.8228 17.1769 14.8228 17.1766 14.8225C17.1763 14.8221 17.1762 14.8219 17.1762 14.822C17.1763 14.8221 17.1768 14.8229 17.1778 14.8248C17.1788 14.8267 17.1805 14.8301 17.1825 14.8351C17.1915 14.8569 17.2068 14.9052 17.2198 15.0018C17.2481 15.2125 17.2497 15.5065 17.2497 15.9991H18.7497ZM15.9997 13.2491C15.5495 13.2491 15.1364 13.2475 14.8025 13.2924C14.447 13.3402 14.0713 13.4527 13.7623 13.7617L14.8229 14.8224C14.8234 14.8219 14.8234 14.8219 14.823 14.8222C14.8227 14.8225 14.8225 14.8227 14.8225 14.8226C14.8226 14.8226 14.8235 14.822 14.8254 14.821C14.8273 14.82 14.8306 14.8184 14.8357 14.8163C14.8574 14.8073 14.9058 14.792 15.0024 14.7791C15.2131 14.7507 15.5071 14.7491 15.9997 14.7491V13.2491ZM14.7497 15.9991C14.7497 15.5065 14.7513 15.2125 14.7796 15.0018C14.7926 14.9052 14.8079 14.8569 14.8168 14.8351C14.8189 14.8301 14.8205 14.8267 14.8216 14.8248C14.8225 14.8229 14.8231 14.8221 14.8232 14.822C14.8232 14.8219 14.823 14.8221 14.8228 14.8225C14.8225 14.8228 14.8225 14.8228 14.8229 14.8224L13.7623 13.7617C13.4532 14.0707 13.3408 14.4465 13.293 14.8019C13.2481 15.1358 13.2497 15.5489 13.2497 15.9991H14.7497Z" fill="black"/>
</svg>
