<svg width="24" height="24" viewBox="0 0 24 24" fill="none" xmlns="http://www.w3.org/2000/svg">
<path d="M3.00027 15.9991L2.25027 15.9991L3.00027 15.9991ZM3.75027 14.9991C3.75027 14.5849 3.41449 14.2491 3.00027 14.2491C2.58606 14.2491 2.25027 14.5849 2.25027 14.9991L3.75027 14.9991ZM9.00027 21.7491C9.41449 21.7491 9.75027 21.4134 9.75027 20.9991C9.75027 20.5849 9.41449 20.2491 9.00027 20.2491V21.7491ZM8.00027 20.9991L8.00027 20.2491H8.00027L8.00027 20.9991ZM9.00027 3.74915C9.41449 3.74915 9.75027 3.41336 9.75027 2.99915C9.75027 2.58493 9.41449 2.24915 9.00027 2.24915V3.74915ZM2.25028 8.99914C2.25028 9.41336 2.58606 9.74914 3.00027 9.74914C3.41449 9.74914 3.75027 9.41336 3.75027 8.99914H2.25028ZM21.0003 7.99914L20.2503 7.99914V7.99914H21.0003ZM20.2503 8.99914C20.2503 9.41336 20.5861 9.74914 21.0003 9.74914C21.4145 9.74914 21.7503 9.41336 21.7503 8.99914H20.2503ZM15.0003 2.24915C14.5861 2.24915 14.2503 2.58493 14.2503 2.99915C14.2503 3.41336 14.5861 3.74915 15.0003 3.74915L15.0003 2.24915ZM16.0003 2.99915L16.0003 2.24915L16.0003 2.99915ZM16.0003 20.9991L16.0003 20.2491H16.0003V20.9991ZM15.0003 20.2491C14.5861 20.2491 14.2503 20.5849 14.2503 20.9991C14.2503 21.4134 14.5861 21.7491 15.0003 21.7491V20.2491ZM21.7503 14.9991C21.7503 14.5849 21.4145 14.2491 21.0003 14.2491C20.5861 14.2491 20.2503 14.5849 20.2503 14.9991H21.7503ZM21.0003 15.9991L21.7503 15.9991V15.9991H21.0003ZM18.2005 12.7219C18.5996 12.6114 18.8336 12.1981 18.7231 11.7989C18.6125 11.3998 18.1993 11.1658 17.8001 11.2764L18.2005 12.7219ZM12.0003 12.9991L12.0003 13.7491L12.0003 12.9991ZM6.20047 11.2764C5.80128 11.1658 5.38805 11.3998 5.27749 11.7989C5.16692 12.1981 5.4009 12.6114 5.80008 12.7219L6.20047 11.2764ZM3.75027 15.9991L3.75027 14.9991L2.25027 14.9991L2.25027 15.9991L3.75027 15.9991ZM9.00027 20.2491H8.00027V21.7491H9.00027V20.2491ZM2.25027 15.9991C2.25028 19.1748 4.82464 21.7491 8.00027 21.7491L8.00027 20.2491C5.65306 20.2491 3.75027 18.3463 3.75027 15.9991L2.25027 15.9991ZM8.00027 3.74915H9.00027V2.24915H8.00027V3.74915ZM3.75027 8.99914V7.99914H2.25028V8.99914H3.75027ZM8.00027 2.24915C4.82464 2.24915 2.25028 4.82351 2.25028 7.99914H3.75027C3.75027 5.65193 5.65306 3.74915 8.00027 3.74915V2.24915ZM20.2503 7.99914V8.99914H21.7503V7.99914H20.2503ZM15.0003 3.74915L16.0003 3.74915L16.0003 2.24915L15.0003 2.24915L15.0003 3.74915ZM21.7503 7.99914C21.7503 4.82351 19.1759 2.24915 16.0003 2.24915L16.0003 3.74915C18.3475 3.74915 20.2503 5.65193 20.2503 7.99914L21.7503 7.99914ZM16.0003 20.2491H15.0003V21.7491H16.0003V20.2491ZM20.2503 14.9991V15.9991H21.7503V14.9991H20.2503ZM16.0003 21.7491C19.1759 21.7491 21.7503 19.1748 21.7503 15.9991L20.2503 15.9991C20.2503 18.3463 18.3475 20.2491 16.0003 20.2491L16.0003 21.7491ZM18.0003 11.9991C17.8001 11.2764 17.8001 11.2763 17.8002 11.2763C17.8001 11.2763 17.8002 11.2763 17.8002 11.2763C17.8001 11.2763 17.8 11.2764 17.7999 11.2764C17.7996 11.2765 17.7991 11.2766 17.7984 11.2768C17.797 11.2772 17.7947 11.2778 17.7916 11.2787C17.7854 11.2804 17.7758 11.283 17.763 11.2865C17.7373 11.2934 17.6989 11.3038 17.6487 11.317C17.5484 11.3436 17.4014 11.3818 17.2173 11.4277C16.8486 11.5196 16.3325 11.6423 15.7435 11.7649C14.5515 12.0129 13.1142 12.2491 12.0003 12.2491L12.0003 13.7491C13.2759 13.7491 14.8386 13.4853 16.0492 13.2334C16.6615 13.106 17.1973 12.9786 17.5803 12.8831C17.772 12.8353 17.9258 12.7953 18.0322 12.7672C18.0855 12.7531 18.1269 12.742 18.1553 12.7343C18.1695 12.7304 18.1805 12.7274 18.1881 12.7253C18.1919 12.7243 18.1948 12.7235 18.1969 12.7229C18.1979 12.7226 18.1987 12.7224 18.1993 12.7222C18.1996 12.7222 18.1999 12.7221 18.2001 12.722C18.2002 12.722 18.2003 12.722 18.2003 12.722C18.2004 12.722 18.2005 12.7219 18.0003 11.9991ZM12.0003 12.2491C10.8864 12.2491 9.44902 12.0129 8.257 11.7649C7.66807 11.6423 7.1519 11.5196 6.78327 11.4277C6.59911 11.3818 6.45217 11.3436 6.35184 11.317C6.30168 11.3038 6.2632 11.2934 6.23757 11.2865C6.22476 11.283 6.21517 11.2804 6.20893 11.2787C6.20581 11.2778 6.20354 11.2772 6.20212 11.2768C6.20141 11.2766 6.20092 11.2765 6.20064 11.2764C6.2005 11.2764 6.20042 11.2763 6.20039 11.2763C6.20038 11.2763 6.2004 11.2763 6.20039 11.2763C6.20042 11.2763 6.20047 11.2764 6.00027 11.9991C5.80008 12.7219 5.80015 12.7219 5.80024 12.722C5.80029 12.722 5.80039 12.722 5.80049 12.722C5.80068 12.7221 5.80092 12.7222 5.80122 12.7222C5.80182 12.7224 5.80264 12.7226 5.80368 12.7229C5.80575 12.7235 5.80869 12.7243 5.81248 12.7253C5.82005 12.7274 5.83102 12.7304 5.84523 12.7343C5.87366 12.742 5.91508 12.7531 5.96832 12.7672C6.07476 12.7953 6.22856 12.8353 6.42021 12.8831C6.80322 12.9786 7.33901 13.106 7.95139 13.2334C9.16198 13.4853 10.7246 13.7491 12.0003 13.7491L12.0003 12.2491Z" fill="black"/>
</svg>
