<svg width="24" height="24" viewBox="0 0 24 24" fill="none" xmlns="http://www.w3.org/2000/svg">
<g clip-path="url(#clip0_0_1)">
<path d="M19.5302 17.47C19.2373 17.1771 18.7624 17.1771 18.4695 17.47C18.1766 17.7629 18.1766 18.2378 18.4695 18.5307L19.5302 17.47ZM22.4694 22.5306C22.7623 22.8235 23.2372 22.8235 23.5301 22.5306C23.823 22.2377 23.823 21.7628 23.5301 21.4699L22.4694 22.5306ZM9.33489 4.80256C9.74401 4.73777 10.0231 4.35358 9.95833 3.94447C9.89354 3.53536 9.50936 3.25623 9.10024 3.32103L9.33489 4.80256ZM4.32054 8.10074C4.25574 8.50985 4.53486 8.89403 4.94398 8.95883C5.35309 9.02363 5.73727 8.7445 5.80207 8.33539L4.32054 8.10074ZM18.4695 18.5307L22.4694 22.5306L23.5301 21.4699L19.5302 17.47L18.4695 18.5307ZM10.9998 18.2502C6.44343 18.2502 2.74978 14.5566 2.74978 10.0002H1.24978C1.24978 15.385 5.615 19.7502 10.9998 19.7502V18.2502ZM19.2498 10.0002C19.2498 14.5566 15.5561 18.2502 10.9998 18.2502V19.7502C16.3845 19.7502 20.7498 15.385 20.7498 10.0002H19.2498ZM10.9998 1.75024C15.5561 1.75024 19.2498 5.44389 19.2498 10.0002H20.7498C20.7498 4.61547 16.3845 0.250244 10.9998 0.250244V1.75024ZM10.9998 0.250244C5.615 0.250244 1.24978 4.61547 1.24978 10.0002H2.74978C2.74978 5.44389 6.44343 1.75024 10.9998 1.75024V0.250244ZM9.10024 3.32103C6.63986 3.71072 4.71022 5.64036 4.32054 8.10074L5.80207 8.33539C6.0901 6.51685 7.51635 5.09059 9.33489 4.80256L9.10024 3.32103Z" fill="black"/>
</g>
<defs>
<clipPath id="clip0_0_1">
<rect width="24" height="24" fill="black" transform="translate(-0.000244141 0.00012207)"/>
</clipPath>
</defs>
</svg>
