<svg width="24" height="24" viewBox="0 0 24 24" fill="none" xmlns="http://www.w3.org/2000/svg">
<g clip-path="url(#clip0_0_1)">
<path d="M19.5302 17.47C19.2373 17.1771 18.7624 17.1771 18.4695 17.47C18.1766 17.7629 18.1766 18.2378 18.4695 18.5307L19.5302 17.47ZM22.4694 22.5306C22.7623 22.8235 23.2372 22.8235 23.5301 22.5306C23.823 22.2377 23.823 21.7628 23.5301 21.4699L22.4694 22.5306ZM18.4695 18.5307L22.4694 22.5306L23.5301 21.4699L19.5302 17.47L18.4695 18.5307ZM10.9998 18.2502C6.44344 18.2502 2.74979 14.5566 2.74979 10.0002H1.24979C1.24979 15.385 5.61501 19.7502 10.9998 19.7502V18.2502ZM19.2498 10.0002C19.2498 14.5566 15.5561 18.2502 10.9998 18.2502V19.7502C16.3846 19.7502 20.7498 15.385 20.7498 10.0002H19.2498ZM10.9998 1.75024C15.5561 1.75024 19.2498 5.44389 19.2498 10.0002H20.7498C20.7498 4.61547 16.3846 0.250244 10.9998 0.250244V1.75024ZM10.9998 0.250244C5.61501 0.250244 1.24979 4.61547 1.24979 10.0002H2.74979C2.74979 5.44389 6.44344 1.75024 10.9998 1.75024V0.250244Z" fill="black"/>
</g>
<defs>
<clipPath id="clip0_0_1">
<rect width="24" height="24" fill="black" transform="translate(-0.000366211 0.00012207)"/>
</clipPath>
</defs>
</svg>
