<svg width="24" height="24" viewBox="0 0 24 24" fill="none" xmlns="http://www.w3.org/2000/svg">
<path d="M18.8896 15.9991L18.2321 15.6383L18.8896 15.9991ZM5.1116 15.9991L4.45409 16.3599L4.45409 16.3599L5.1116 15.9991ZM3.0258 8.20775L2.27676 8.24557L3.0258 8.20775ZM17.2556 18.2786L17.8226 18.7694L17.8226 18.7694L17.2556 18.2786ZM6.74562 18.2786L7.3127 17.7877L7.3127 17.7877L6.74562 18.2786ZM20.9835 7.63598L21.7329 7.66469L20.9835 7.63598ZM11.2504 15.9991C11.2504 16.4133 11.5862 16.7491 12.0004 16.7491C12.4147 16.7491 12.7504 16.4133 12.7504 15.9991H11.2504ZM20.234 7.60727C20.1549 9.67202 19.7523 12.8677 18.2321 15.6383L19.5471 16.3599C21.2304 13.2922 21.6502 9.82575 21.7329 7.66469L20.234 7.60727ZM18.2321 15.6383C17.8431 16.3471 17.3046 17.0759 16.6885 17.7877L17.8226 18.7694C18.4814 18.0083 19.0908 17.1914 19.5471 16.3599L18.2321 15.6383ZM7.3127 17.7877C6.69662 17.0759 6.15805 16.3471 5.76912 15.6383L4.45409 16.3599C4.91038 17.1914 5.51977 18.0083 6.17853 18.7694L7.3127 17.7877ZM5.76912 15.6383C4.29063 12.9439 3.8703 10.0607 3.77485 8.16994L2.27676 8.24557C2.37828 10.2566 2.82493 13.3909 4.45409 16.3599L5.76912 15.6383ZM5.17122 6.83242H5.48009V5.33242H5.17122V6.83242ZM18.2294 6.24908H18.8188V4.74908H18.2294V6.24908ZM15.7294 3.74908C15.7294 5.1298 16.8487 6.24908 18.2294 6.24908V4.74908C17.6771 4.74908 17.2294 4.30137 17.2294 3.74908H15.7294ZM5.48009 6.83242C7.02188 6.83242 8.27175 5.58254 8.27175 4.04075H6.77175C6.77175 4.75412 6.19345 5.33242 5.48009 5.33242V6.83242ZM9.56342 1.24908C8.02162 1.24908 6.77175 2.49896 6.77175 4.04075H8.27175C8.27175 3.32738 8.85005 2.74908 9.56342 2.74908V1.24908ZM3.77485 8.16994C3.73853 7.45057 4.33108 6.83242 5.17122 6.83242V5.33242C3.59517 5.33242 2.19125 6.55181 2.27676 8.24557L3.77485 8.16994ZM16.6885 17.7877C15.6784 18.9548 14.9963 19.7364 14.2993 20.247C13.6517 20.7214 12.9894 20.9598 12.0006 20.9598L12.0006 22.4598C13.2969 22.4598 14.2721 22.1264 15.1857 21.457C16.05 20.8239 16.8528 19.8898 17.8226 18.7694L16.6885 17.7877ZM6.17853 18.7694C7.14833 19.8898 7.95118 20.8239 8.81543 21.457C9.72911 22.1264 10.7043 22.4598 12.0006 22.4598L12.0006 20.9598C11.0118 20.9598 10.3494 20.7214 9.70189 20.247C9.00491 19.7364 8.32282 18.9548 7.3127 17.7877L6.17853 18.7694ZM14.7294 2.74908C15.2817 2.74908 15.7294 3.1968 15.7294 3.74908H17.2294C17.2294 2.36837 16.1101 1.24908 14.7294 1.24908V2.74908ZM21.7329 7.66469C21.7975 5.97907 20.4036 4.74908 18.8188 4.74908V6.24908C19.6564 6.24908 20.2622 6.87219 20.234 7.60727L21.7329 7.66469ZM9.56342 2.74908H14.7294V1.24908H9.56342V2.74908ZM11.2504 11.9991V15.9991H12.7504V11.9991H11.2504ZM9.25045 9.99908C9.25045 11.5179 10.4817 12.7491 12.0004 12.7491V11.2491C11.3101 11.2491 10.7504 10.6894 10.7504 9.99908H9.25045ZM12.0004 12.7491C13.5192 12.7491 14.7504 11.5179 14.7504 9.99908H13.2504C13.2504 10.6894 12.6908 11.2491 12.0004 11.2491V12.7491ZM14.7504 9.99908C14.7504 8.4803 13.5192 7.24908 12.0004 7.24908V8.74908C12.6908 8.74908 13.2504 9.30873 13.2504 9.99908H14.7504ZM12.0004 7.24908C10.4817 7.24908 9.25045 8.4803 9.25045 9.99908H10.7504C10.7504 9.30873 11.3101 8.74908 12.0004 8.74908V7.24908Z" fill="black"/>
</svg>
