<svg width="24" height="24" viewBox="0 0 24 24" fill="none" xmlns="http://www.w3.org/2000/svg">
<path d="M4.58847 7.77551L5.07258 7.90057L4.58847 7.77551ZM8.08828 4.48146L8.18246 4.97251L8.08828 4.48146ZM10.1529 13.1997L10.0119 12.72L10.1529 13.1997ZM11.2597 14.3065L10.78 14.1654L11.2597 14.3065ZM16.6839 19.8709L16.809 20.3551L16.809 20.3551L16.6839 19.8709ZM19.978 16.3711L20.469 16.4653L20.469 16.4653L19.978 16.3711ZM21.7326 7.22205L21.2415 7.12788L21.2415 7.12788L21.7326 7.22205ZM17.2373 2.72682L17.1432 2.23577L17.2373 2.72682ZM6.18227 17.57C5.98701 17.7653 5.98701 18.0819 6.18227 18.2771C6.37753 18.4724 6.69411 18.4724 6.88938 18.2771L6.18227 17.57ZM8.30359 16.8629C8.49885 16.6677 8.49885 16.3511 8.30359 16.1558C8.10833 15.9606 7.79174 15.9606 7.59648 16.1558L8.30359 16.8629ZM6.88938 21.1056C6.69411 21.3008 6.69411 21.6174 6.88938 21.8127C7.08464 22.0079 7.40122 22.0079 7.59648 21.8127L6.88938 21.1056ZM9.0107 20.3985C9.20596 20.2032 9.20596 19.8866 9.0107 19.6914C8.81543 19.4961 8.49885 19.4961 8.30359 19.6914L9.0107 20.3985ZM2.64674 16.8629C2.45147 17.0582 2.45147 17.3748 2.64674 17.57C2.842 17.7653 3.15858 17.7653 3.35384 17.57L2.64674 16.8629ZM4.76806 16.1558C4.96332 15.9606 4.96332 15.644 4.76806 15.4487C4.57279 15.2535 4.25621 15.2535 4.06095 15.4487L4.76806 16.1558ZM21.2415 7.12788L19.4869 16.2769L20.469 16.4653L22.2236 7.31623L21.2415 7.12788ZM8.18246 4.97251L17.3315 3.21787L17.1432 2.23577L7.99411 3.99041L8.18246 4.97251ZM5.07258 7.90057C5.45806 6.40835 6.67191 5.26221 8.18246 4.97251L7.99411 3.99041C6.10093 4.35349 4.58572 5.78708 4.10436 7.65046L5.07258 7.90057ZM10.0119 12.72C7.07001 13.5852 4.30229 10.8824 5.07258 7.90057L4.10436 7.65046C3.14318 11.3713 6.59435 14.7674 10.294 13.6794L10.0119 12.72ZM11.7394 14.4475C12.0501 13.391 11.0684 12.4093 10.0119 12.72L10.294 13.6794C10.5912 13.592 10.8674 13.8682 10.78 14.1654L11.7394 14.4475ZM16.5588 19.3868C13.577 20.1571 10.8742 17.3894 11.7394 14.4475L10.78 14.1654C9.69201 17.865 13.0881 21.3162 16.809 20.3551L16.5588 19.3868ZM19.4869 16.2769C19.1972 17.7875 18.0511 19.0014 16.5588 19.3868L16.809 20.3551C18.6723 19.8737 20.1059 18.3585 20.469 16.4653L19.4869 16.2769ZM22.2236 7.31623C22.8015 4.30317 20.1562 1.65791 17.1432 2.23577L17.3315 3.21787C19.6504 2.77314 21.6862 4.80898 21.2415 7.12788L22.2236 7.31623ZM6.88938 18.2771L8.30359 16.8629L7.59648 16.1558L6.18227 17.57L6.88938 18.2771ZM7.59648 21.8127L9.0107 20.3985L8.30359 19.6914L6.88938 21.1056L7.59648 21.8127ZM3.35384 17.57L4.76806 16.1558L4.06095 15.4487L2.64674 16.8629L3.35384 17.57Z" fill="black"/>
</svg>
