<svg width="24" height="24" viewBox="0 0 24 24" fill="none" xmlns="http://www.w3.org/2000/svg">
<path d="M3.44782 15.1989L3.87856 14.9451L3.44782 15.1989ZM3.59331 10.395L4.00713 10.6756L3.59331 10.395ZM11.218 15.0998L10.779 14.8603L11.218 15.0998ZM12.7831 15.0998L13.2221 14.8603L12.7831 15.0998ZM20.5533 15.199L20.1226 14.9451L20.5533 15.199ZM20.4078 10.3949L19.994 10.6756L19.994 10.6756L20.4078 10.3949ZM15.1792 2.68487L15.593 2.40424L15.593 2.40424L15.1792 2.68487ZM8.82194 2.68488L9.23576 2.96552L9.23576 2.96552L8.82194 2.68488ZM11.5006 20.9977C11.5006 21.2739 11.7244 21.4977 12.0006 21.4977C12.2767 21.4977 12.5006 21.2739 12.5006 20.9977H11.5006ZM12.5006 18.9977C12.5006 18.7216 12.2767 18.4977 12.0006 18.4977C11.7244 18.4977 11.5006 18.7216 11.5006 18.9977H12.5006ZM14.5006 22.9977C14.5006 23.2739 14.7244 23.4977 15.0006 23.4977C15.2767 23.4977 15.5006 23.2739 15.5006 22.9977H14.5006ZM15.5006 20.9977C15.5006 20.7216 15.2767 20.4977 15.0006 20.4977C14.7244 20.4977 14.5006 20.7216 14.5006 20.9977H15.5006ZM8.50058 22.9977C8.50058 23.2739 8.72444 23.4977 9.00058 23.4977C9.27673 23.4977 9.50058 23.2739 9.50058 22.9977L8.50058 22.9977ZM9.50058 20.9977C9.50058 20.7216 9.27673 20.4977 9.00058 20.4977C8.72444 20.4977 8.50058 20.7216 8.50058 20.9977L9.50058 20.9977ZM14.7654 2.96551L19.994 10.6756L20.8217 10.1143L15.593 2.40424L14.7654 2.96551ZM4.00713 10.6756L9.23576 2.96552L8.40813 2.40425L3.17949 10.1143L4.00713 10.6756ZM3.87856 14.9451C3.09598 13.6173 3.14386 11.9486 4.00713 10.6756L3.17949 10.1143C2.09755 11.7097 2.03984 13.7949 3.01707 15.4528L3.87856 14.9451ZM10.779 14.8603C9.31058 17.5523 5.44238 17.5982 3.87856 14.9451L3.01707 15.4528C4.96844 18.7635 9.8102 18.7246 11.6569 15.3392L10.779 14.8603ZM13.2221 14.8603C12.6947 13.8935 11.3064 13.8935 10.779 14.8603L11.6569 15.3392C11.8053 15.0672 12.1958 15.0672 12.3442 15.3392L13.2221 14.8603ZM20.1226 14.9451C18.5588 17.5982 14.6906 17.5523 13.2221 14.8603L12.3442 15.3392C14.1909 18.7246 19.0327 18.7635 20.9841 15.4528L20.1226 14.9451ZM19.994 10.6756C20.8573 11.9485 20.9052 13.6173 20.1226 14.9451L20.9841 15.4528C21.9613 13.7949 21.9036 11.7097 20.8217 10.1143L19.994 10.6756ZM15.593 2.40424C13.871 -0.134914 10.1301 -0.134907 8.40813 2.40425L9.23576 2.96552C10.561 1.01134 13.4401 1.01133 14.7654 2.96551L15.593 2.40424ZM12.5006 20.9977V18.9977H11.5006V20.9977H12.5006ZM15.5006 22.9977V20.9977H14.5006V22.9977H15.5006ZM9.50058 22.9977L9.50058 20.9977L8.50058 20.9977L8.50058 22.9977L9.50058 22.9977Z" fill="black"/>
</svg>
