<svg width="24" height="24" viewBox="0 0 24 24" fill="none" xmlns="http://www.w3.org/2000/svg">
<path d="M5.93276 5.38654L5.81119 5.87154L5.93276 5.38654ZM9.30732 3.43824L8.82651 3.30103L9.30732 3.43824ZM3.23925 10.0518L3.59849 9.70405L3.23925 10.0518ZM3.23925 13.9484L2.88002 13.6007L2.88002 13.6007L3.23925 13.9484ZM5.93276 18.6137L6.05433 19.0987L5.93276 18.6137ZM9.30732 20.562L8.82651 20.6992L9.30732 20.562ZM14.6943 20.562L15.1751 20.6992L14.6943 20.562ZM18.0689 18.6137L18.1905 18.1287L18.0689 18.6137ZM20.7624 13.9484L20.4032 14.2962L20.4032 14.2962L20.7624 13.9484ZM20.7624 10.0518L20.4032 9.70405L20.4032 9.70405L20.7624 10.0518ZM18.0689 5.38654L17.9473 4.90155L18.0689 5.38654ZM14.6943 3.43824L15.1751 3.30103L14.6943 3.43824ZM5.81119 5.87154C7.53923 6.30469 9.29923 5.28856 9.78812 3.57546L8.82651 3.30103C8.48572 4.49517 7.25889 5.20348 6.05433 4.90155L5.81119 5.87154ZM3.59849 9.70405C1.98828 8.04082 3.56569 5.30867 5.81119 5.87154L6.05433 4.90155C2.83297 4.09407 0.570043 8.01357 2.88002 10.3996L3.59849 9.70405ZM3.59849 14.2962C4.83763 13.0163 4.83763 10.984 3.59849 9.70405L2.88002 10.3996C3.74378 11.2918 3.74378 12.7084 2.88002 13.6007L3.59849 14.2962ZM5.81119 18.1287C3.56569 18.6916 1.98828 15.9594 3.59849 14.2962L2.88002 13.6007C0.570043 15.9867 2.83297 19.9062 6.05433 19.0987L5.81119 18.1287ZM9.78812 20.4248C9.29923 18.7117 7.53923 17.6956 5.81119 18.1287L6.05433 19.0987C7.25889 18.7968 8.48572 19.5051 8.82651 20.6992L9.78812 20.4248ZM14.2135 20.4248C13.5782 22.6509 10.4234 22.6509 9.78812 20.4248L8.82651 20.6992C9.7379 23.8928 14.2637 23.8928 15.1751 20.6992L14.2135 20.4248ZM18.1905 18.1287C16.4624 17.6956 14.7024 18.7117 14.2135 20.4248L15.1751 20.6992C15.5159 19.5051 16.7428 18.7968 17.9473 19.0987L18.1905 18.1287ZM20.4032 14.2962C22.0134 15.9594 20.436 18.6916 18.1905 18.1287L17.9473 19.0987C21.1687 19.9062 23.4316 15.9867 21.1216 13.6007L20.4032 14.2962ZM20.4032 9.70405C19.164 10.984 19.164 13.0163 20.4032 14.2962L21.1216 13.6007C20.2579 12.7084 20.2579 11.2918 21.1216 10.3996L20.4032 9.70405ZM18.1905 5.87154C20.436 5.30867 22.0134 8.04082 20.4032 9.70405L21.1216 10.3996C23.4316 8.01357 21.1687 4.09407 17.9473 4.90155L18.1905 5.87154ZM14.2135 3.57546C14.7024 5.28855 16.4624 6.30469 18.1905 5.87154L17.9473 4.90155C16.7428 5.20348 15.5159 4.49517 15.1751 3.30103L14.2135 3.57546ZM15.1751 3.30103C14.2637 0.107502 9.7379 0.107503 8.82651 3.30103L9.78812 3.57546C10.4234 1.34936 13.5782 1.34936 14.2135 3.57546L15.1751 3.30103ZM8.50083 12.0001C8.50083 13.9331 10.0678 15.5001 12.0008 15.5001V14.5001C10.6201 14.5001 9.50083 13.3808 9.50083 12.0001H8.50083ZM12.0008 15.5001C13.9338 15.5001 15.5008 13.9331 15.5008 12.0001H14.5008C14.5008 13.3808 13.3815 14.5001 12.0008 14.5001V15.5001ZM15.5008 12.0001C15.5008 10.0671 13.9338 8.50013 12.0008 8.50013V9.50013C13.3815 9.50013 14.5008 10.6194 14.5008 12.0001H15.5008ZM12.0008 8.50013C10.0678 8.50013 8.50083 10.0671 8.50083 12.0001H9.50083C9.50083 10.6194 10.6201 9.50013 12.0008 9.50013V8.50013Z" fill="black"/>
</svg>
