<svg width="24" height="24" viewBox="0 0 24 24" fill="none" xmlns="http://www.w3.org/2000/svg">
<path d="M14.7288 1.99908C15.6953 1.99908 16.4788 2.78259 16.4788 3.74908C16.4788 4.71558 17.2623 5.49908 18.2288 5.49908H18.8181C20.0294 5.49908 21.0292 6.42563 20.9829 7.63598C20.9019 9.74888 20.4907 13.08 18.8889 15.9991C18.4663 16.7693 17.8923 17.5421 17.2549 18.2786C15.275 20.5661 14.2851 21.7098 12 21.7098C9.71486 21.7098 8.7249 20.5661 6.74498 18.2786C6.10756 17.5421 5.53358 16.7693 5.11097 15.9991C3.55715 13.1674 3.12366 10.1586 3.02517 8.20775C2.96426 7.00119 3.96249 6.08242 5.17059 6.08242H5.47945C6.60703 6.08242 7.52112 5.16833 7.52112 4.04075C7.52112 2.91317 8.4352 1.99908 9.56279 1.99908H14.7288Z" stroke="black" stroke-width="1.5"/>
<path d="M10.6899 8.98224C11.1022 7.67136 12.8976 7.67136 13.3099 8.98224C13.4943 9.56848 14.0231 9.9654 14.6199 9.9654C15.9542 9.9654 16.509 11.7292 15.4295 12.5393C14.9467 12.9016 14.7447 13.5439 14.9291 14.1301C15.3414 15.441 13.889 16.5311 12.8095 15.7209C12.3268 15.3586 11.673 15.3586 11.1903 15.7209C10.1108 16.5311 8.65837 15.441 9.0707 14.1301C9.25509 13.5439 9.05309 12.9016 8.57033 12.5393C7.49084 11.7292 8.04562 9.9654 9.37994 9.9654C9.97666 9.9654 10.5055 9.56848 10.6899 8.98224Z" stroke="black" stroke-width="1.5"/>
</svg>
