<svg width="24" height="24" viewBox="0 0 24 24" fill="none" xmlns="http://www.w3.org/2000/svg">
<path d="M18.8889 15.9991L18.2314 15.6383L18.8889 15.9991ZM5.11094 15.9991L4.45342 16.3599L4.45342 16.3599L5.11094 15.9991ZM3.02514 8.20775L2.27609 8.24557L3.02514 8.20775ZM17.2549 18.2786L17.822 18.7694L17.822 18.7694L17.2549 18.2786ZM6.74495 18.2786L7.31204 17.7877L7.31204 17.7877L6.74495 18.2786ZM20.9828 7.63598L21.7323 7.66469L20.9828 7.63598ZM8.99987 11.2491C8.58566 11.2491 8.24987 11.5849 8.24987 11.9991C8.24987 12.4133 8.58566 12.7491 8.99987 12.7491V11.2491ZM14.9999 12.7491C15.4141 12.7491 15.7499 12.4133 15.7499 11.9991C15.7499 11.5849 15.4141 11.2491 14.9999 11.2491V12.7491ZM11.2499 14.9991C11.2499 15.4133 11.5857 15.7491 11.9999 15.7491C12.4141 15.7491 12.7499 15.4133 12.7499 14.9991H11.2499ZM12.7499 8.99908C12.7499 8.58487 12.4141 8.24908 11.9999 8.24908C11.5857 8.24908 11.2499 8.58487 11.2499 8.99908H12.7499ZM20.2334 7.60727C20.1543 9.67202 19.7517 12.8677 18.2314 15.6383L19.5464 16.3599C21.2297 13.2922 21.6495 9.82575 21.7323 7.66469L20.2334 7.60727ZM18.2314 15.6383C17.8425 16.3471 17.3039 17.0759 16.6878 17.7877L17.822 18.7694C18.4807 18.0083 19.0901 17.1914 19.5464 16.3599L18.2314 15.6383ZM7.31204 17.7877C6.69596 17.0759 6.15739 16.3471 5.76845 15.6383L4.45342 16.3599C4.90971 17.1914 5.51911 18.0083 6.17787 18.7694L7.31204 17.7877ZM5.76845 15.6383C4.28996 12.9439 3.86964 10.0607 3.77419 8.16994L2.27609 8.24557C2.37762 10.2566 2.82427 13.3909 4.45342 16.3599L5.76845 15.6383ZM5.17056 6.83242H5.47942V5.33242H5.17056V6.83242ZM18.2288 6.24908H18.8181V4.74908H18.2288V6.24908ZM15.7288 3.74908C15.7288 5.1298 16.848 6.24908 18.2288 6.24908V4.74908C17.6765 4.74908 17.2288 4.30137 17.2288 3.74908H15.7288ZM5.47942 6.83242C7.02122 6.83242 8.27109 5.58254 8.27109 4.04075H6.77109C6.77109 4.75412 6.19279 5.33242 5.47942 5.33242V6.83242ZM9.56275 1.24908C8.02096 1.24908 6.77109 2.49896 6.77109 4.04075H8.27109C8.27109 3.32738 8.84939 2.74908 9.56275 2.74908V1.24908ZM3.77419 8.16994C3.73787 7.45057 4.33042 6.83242 5.17056 6.83242V5.33242C3.5945 5.33242 2.19059 6.55181 2.27609 8.24557L3.77419 8.16994ZM16.6878 17.7877C15.6777 18.9548 14.9956 19.7364 14.2986 20.247C13.6511 20.7214 12.9887 20.9598 11.9999 20.9598L11.9999 22.4598C13.2962 22.4598 14.2714 22.1264 15.1851 21.457C16.0493 20.8239 16.8522 19.8898 17.822 18.7694L16.6878 17.7877ZM6.17787 18.7694C7.14767 19.8898 7.95052 20.8239 8.81476 21.457C9.72845 22.1264 10.7036 22.4598 11.9999 22.4598L11.9999 20.9598C11.0111 20.9598 10.3488 20.7214 9.70123 20.247C9.00424 19.7364 8.32216 18.9548 7.31204 17.7877L6.17787 18.7694ZM14.7288 2.74908C15.281 2.74908 15.7288 3.1968 15.7288 3.74908H17.2288C17.2288 2.36837 16.1095 1.24908 14.7288 1.24908V2.74908ZM21.7323 7.66469C21.7969 5.97907 20.4029 4.74908 18.8181 4.74908V6.24908C19.6558 6.24908 20.2615 6.87219 20.2334 7.60727L21.7323 7.66469ZM8.99987 12.7491H14.9999V11.2491H8.99987V12.7491ZM9.56275 2.74908H14.7288V1.24908H9.56275V2.74908ZM12.7499 14.9991V11.9991H11.2499V14.9991H12.7499ZM12.7499 11.9991V8.99908H11.2499V11.9991H12.7499Z" fill="black"/>
</svg>
