<svg width="24" height="24" viewBox="0 0 24 24" fill="none" xmlns="http://www.w3.org/2000/svg">
<path d="M18.8889 15.9991L18.2313 15.6383L18.8889 15.9991ZM5.11088 15.9991L4.45337 16.3599L4.45337 16.3599L5.11088 15.9991ZM3.02509 8.20775L2.27604 8.24557L3.02509 8.20775ZM17.2548 18.2786L17.8219 18.7694L17.8219 18.7694L17.2548 18.2786ZM6.7449 18.2786L7.31199 17.7877L7.31199 17.7877L6.7449 18.2786ZM20.9828 7.63598L21.7322 7.66469L20.9828 7.63598ZM10.6515 9.59007C10.3586 9.29718 9.88374 9.29718 9.59084 9.59007C9.29795 9.88297 9.29795 10.3578 9.59084 10.6507L10.6515 9.59007ZM13.8335 14.8934C14.1264 15.1863 14.6013 15.1863 14.8941 14.8934C15.187 14.6005 15.187 14.1256 14.8941 13.8327L13.8335 14.8934ZM9.59084 13.8327C9.29795 14.1256 9.29795 14.6005 9.59084 14.8934C9.88374 15.1863 10.3586 15.1863 10.6515 14.8934L9.59084 13.8327ZM14.8941 10.6507C15.187 10.3578 15.187 9.88297 14.8941 9.59007C14.6013 9.29718 14.1264 9.29718 13.8335 9.59007L14.8941 10.6507ZM12.2425 12.2417L11.7122 12.7721L11.7122 12.7721L12.2425 12.2417ZM20.2333 7.60727C20.1542 9.67202 19.7516 12.8677 18.2313 15.6383L19.5464 16.3599C21.2297 13.2922 21.6494 9.82575 21.7322 7.66469L20.2333 7.60727ZM18.2313 15.6383C17.8424 16.3471 17.3038 17.0759 16.6878 17.7877L17.8219 18.7694C18.4807 18.0083 19.0901 17.1914 19.5464 16.3599L18.2313 15.6383ZM7.31199 17.7877C6.6959 17.0759 6.15734 16.3471 5.7684 15.6383L4.45337 16.3599C4.90966 17.1914 5.51905 18.0083 6.17782 18.7694L7.31199 17.7877ZM5.7684 15.6383C4.28991 12.9439 3.86958 10.0607 3.77413 8.16994L2.27604 8.24557C2.37756 10.2566 2.82422 13.3909 4.45337 16.3599L5.7684 15.6383ZM5.1705 6.83242H5.47937V5.33242H5.1705V6.83242ZM18.2287 6.24908H18.8181V4.74908H18.2287V6.24908ZM15.7287 3.74908C15.7287 5.1298 16.848 6.24908 18.2287 6.24908V4.74908C17.6764 4.74908 17.2287 4.30137 17.2287 3.74908H15.7287ZM5.47937 6.83242C7.02116 6.83242 8.27103 5.58254 8.27103 4.04075H6.77104C6.77104 4.75412 6.19274 5.33242 5.47937 5.33242V6.83242ZM9.5627 1.24908C8.02091 1.24908 6.77104 2.49896 6.77104 4.04075H8.27103C8.27103 3.32738 8.84933 2.74908 9.5627 2.74908V1.24908ZM3.77413 8.16994C3.73782 7.45057 4.33037 6.83242 5.1705 6.83242V5.33242C3.59445 5.33242 2.19053 6.55181 2.27604 8.24557L3.77413 8.16994ZM16.6878 17.7877C15.6776 18.9548 14.9956 19.7364 14.2986 20.247C13.651 20.7214 12.9887 20.9598 11.9999 20.9598L11.9999 22.4598C13.2962 22.4598 14.2713 22.1264 15.185 21.457C16.0493 20.8239 16.8521 19.8898 17.8219 18.7694L16.6878 17.7877ZM6.17782 18.7694C7.14761 19.8898 7.95046 20.8239 8.81471 21.457C9.72839 22.1264 10.7036 22.4598 11.9999 22.4598L11.9999 20.9598C11.0111 20.9598 10.3487 20.7214 9.70117 20.247C9.00419 19.7364 8.3221 18.9548 7.31199 17.7877L6.17782 18.7694ZM14.7287 2.74908C15.281 2.74908 15.7287 3.1968 15.7287 3.74908H17.2287C17.2287 2.36837 16.1094 1.24908 14.7287 1.24908V2.74908ZM21.7322 7.66469C21.7968 5.97907 20.4029 4.74908 18.8181 4.74908V6.24908C19.6557 6.24908 20.2615 6.87219 20.2333 7.60727L21.7322 7.66469ZM10.6515 14.8934L14.8941 10.6507L13.8335 9.59007L9.59084 13.8327L10.6515 14.8934ZM9.5627 2.74908H14.7287V1.24908H9.5627V2.74908ZM9.59084 10.6507L11.7122 12.7721L12.7728 11.7114L10.6515 9.59007L9.59084 10.6507ZM11.7122 12.7721L13.8335 14.8934L14.8941 13.8327L12.7728 11.7114L11.7122 12.7721Z" fill="black"/>
</svg>
