<svg width="24" height="24" viewBox="0 0 24 24" fill="none" xmlns="http://www.w3.org/2000/svg">
<path d="M14.729 1.99908C15.6955 1.99908 16.479 2.78259 16.479 3.74908C16.479 4.71558 17.2625 5.49908 18.229 5.49908H18.8183C20.0296 5.49908 21.0294 6.42563 20.983 7.63598C20.9021 9.74888 20.4909 13.08 18.8891 15.9991C18.4665 16.7693 17.8925 17.5421 17.2551 18.2786C15.2752 20.5661 14.2852 21.7098 12.0001 21.7098C9.71504 21.7098 8.72508 20.5661 6.74517 18.2786C6.10775 17.5421 5.53377 16.7693 5.11115 15.9991C3.55733 13.1674 3.12384 10.1586 3.02535 8.20775C2.96444 7.00119 3.96267 6.08242 5.17077 6.08242H5.47964C6.60722 6.08242 7.5213 5.16833 7.5213 4.04075C7.5213 2.91317 8.43539 1.99908 9.56297 1.99908H14.729Z" stroke="black" stroke-width="1.5"/>
</svg>
