<svg width="24" height="24" viewBox="0 0 24 24" fill="none" xmlns="http://www.w3.org/2000/svg">
<path d="M18.889 15.9991L18.2315 15.6383L18.889 15.9991ZM5.11104 15.9991L4.45353 16.3599L4.45353 16.3599L5.11104 15.9991ZM3.02525 8.20775L2.2762 8.24557L3.02525 8.20775ZM17.255 18.2786L17.8221 18.7694L17.8221 18.7694L17.255 18.2786ZM6.74506 18.2786L7.31214 17.7877L7.31214 17.7877L6.74506 18.2786ZM20.9829 7.63598L21.7324 7.66469L20.9829 7.63598ZM15.584 10.4697C15.8439 10.1471 15.7931 9.67497 15.4705 9.41508C15.148 9.15519 14.6759 9.20597 14.416 9.52851L15.584 10.4697ZM12.9785 12.5079L12.3945 12.0373L12.3945 12.0373L12.9785 12.5079ZM9.52148 12.5079L8.93748 12.9784L8.93748 12.9784L9.52148 12.5079ZM9.58398 11.3901C9.32409 11.0675 8.85194 11.0168 8.52941 11.2767C8.20687 11.5365 8.15608 12.0087 8.41597 12.3312L9.58398 11.3901ZM20.2335 7.60727C20.1544 9.67202 19.7518 12.8677 18.2315 15.6383L19.5465 16.3599C21.2299 13.2922 21.6496 9.82575 21.7324 7.66469L20.2335 7.60727ZM18.2315 15.6383C17.8426 16.3471 17.304 17.0759 16.6879 17.7877L17.8221 18.7694C18.4808 18.0083 19.0902 17.1914 19.5465 16.3599L18.2315 15.6383ZM7.31214 17.7877C6.69606 17.0759 6.1575 16.3471 5.76856 15.6383L4.45353 16.3599C4.90982 17.1914 5.51921 18.0083 6.17798 18.7694L7.31214 17.7877ZM5.76856 15.6383C4.29007 12.9439 3.86974 10.0607 3.77429 8.16994L2.2762 8.24557C2.37772 10.2566 2.82438 13.3909 4.45353 16.3599L5.76856 15.6383ZM5.17066 6.83242H5.47953V5.33242H5.17066V6.83242ZM18.2289 6.24908H18.8182V4.74908H18.2289V6.24908ZM15.7289 3.74908C15.7289 5.1298 16.8482 6.24908 18.2289 6.24908V4.74908C17.6766 4.74908 17.2289 4.30137 17.2289 3.74908H15.7289ZM5.47953 6.83242C7.02132 6.83242 8.27119 5.58254 8.27119 4.04075H6.77119C6.77119 4.75412 6.1929 5.33242 5.47953 5.33242V6.83242ZM9.56286 1.24908C8.02107 1.24908 6.77119 2.49896 6.77119 4.04075H8.27119C8.27119 3.32738 8.84949 2.74908 9.56286 2.74908V1.24908ZM3.77429 8.16994C3.73797 7.45057 4.33053 6.83242 5.17066 6.83242V5.33242C3.59461 5.33242 2.19069 6.55181 2.2762 8.24557L3.77429 8.16994ZM16.6879 17.7877C15.6778 18.9548 14.9957 19.7364 14.2987 20.247C13.6512 20.7214 12.9888 20.9598 12 20.9598L12 22.4598C13.2963 22.4598 14.2715 22.1264 15.1852 21.457C16.0494 20.8239 16.8523 19.8898 17.8221 18.7694L16.6879 17.7877ZM6.17798 18.7694C7.14777 19.8898 7.95062 20.8239 8.81487 21.457C9.72855 22.1264 10.7037 22.4598 12 22.4598L12 20.9598C11.0112 20.9598 10.3489 20.7214 9.70133 20.247C9.00435 19.7364 8.32226 18.9548 7.31214 17.7877L6.17798 18.7694ZM14.7289 2.74908C15.2812 2.74908 15.7289 3.1968 15.7289 3.74908H17.2289C17.2289 2.36837 16.1096 1.24908 14.7289 1.24908V2.74908ZM21.7324 7.66469C21.797 5.97907 20.403 4.74908 18.8182 4.74908V6.24908C19.6559 6.24908 20.2616 6.87219 20.2335 7.60727L21.7324 7.66469ZM14.416 9.52851L12.3945 12.0373L13.5625 12.9784L15.584 10.4697L14.416 9.52851ZM10.1055 12.0373L9.58398 11.3901L8.41597 12.3312L8.93748 12.9784L10.1055 12.0373ZM12.3945 12.0373C11.9794 12.5524 11.7175 12.8746 11.4995 13.0781C11.3971 13.1738 11.3317 13.2164 11.2941 13.2352C11.2648 13.2498 11.2552 13.2491 11.25 13.2491V14.7491C11.7877 14.7491 12.1954 14.4807 12.5233 14.1744C12.8376 13.8809 13.1765 13.4575 13.5625 12.9784L12.3945 12.0373ZM8.93748 12.9784C9.32345 13.4575 9.66233 13.8809 9.97662 14.1744C10.3045 14.4807 10.7122 14.7491 11.25 14.7491V13.2491C11.2448 13.2491 11.2352 13.2498 11.2059 13.2352C11.1683 13.2164 11.1029 13.1738 11.0004 13.0781C10.7825 12.8746 10.5206 12.5524 10.1055 12.0373L8.93748 12.9784ZM9.56286 2.74908H14.7289V1.24908H9.56286V2.74908Z" fill="black"/>
</svg>
