<svg width="24" height="24" viewBox="0 0 24 24" fill="none" xmlns="http://www.w3.org/2000/svg">
<path d="M20.7792 13.8737L21.3884 14.3111L21.3884 14.3111L20.7792 13.8737ZM20.7792 10.1245L20.1699 10.5619L20.1699 10.5619L20.7792 10.1245ZM3.22052 13.8737L3.82978 13.4364L3.82978 13.4364L3.22052 13.8737ZM3.22052 10.1245L2.61126 9.68716L2.61126 9.68716L3.22052 10.1245ZM2.33676 11.9991L1.58676 11.9991L2.33676 11.9991ZM2.61126 14.3111C3.47947 15.5205 4.77148 17.1097 6.35158 18.4034C7.9231 19.6901 9.8589 20.7491 11.9999 20.7491V19.2491C10.3541 19.2491 8.74895 18.4277 7.30185 17.2428C5.86333 16.065 4.65905 14.5915 3.82978 13.4364L2.61126 14.3111ZM11.9999 20.7491C14.1408 20.7491 16.0766 19.6901 17.6481 18.4034C19.2282 17.1097 20.5202 15.5205 21.3884 14.3111L20.1699 13.4364C19.3407 14.5915 18.1364 16.065 16.6979 17.2428C15.2508 18.4277 13.6456 19.2491 11.9999 19.2491V20.7491ZM21.3884 9.68716C20.5202 8.47779 19.2282 6.88861 17.6481 5.59486C16.0766 4.30814 14.1408 3.24915 11.9999 3.24915V4.74915C13.6456 4.74915 15.2508 5.5706 16.6979 6.75546C18.1364 7.93328 19.3407 9.4068 20.1699 10.5619L21.3884 9.68716ZM11.9999 3.24915C9.85889 3.24915 7.9231 4.30814 6.35158 5.59486C4.77148 6.88861 3.47947 8.47779 2.61126 9.68716L3.82978 10.5619C4.65905 9.4068 5.86333 7.93328 7.30185 6.75546C8.74895 5.5706 10.3541 4.74915 11.9999 4.74915V3.24915ZM21.3884 14.3111C21.9428 13.5389 22.4129 12.9277 22.4129 11.9991L20.9129 11.9991C20.9129 12.3577 20.7939 12.5672 20.1699 13.4364L21.3884 14.3111ZM20.1699 10.5619C20.7939 11.4311 20.9129 11.6406 20.9129 11.9991L22.4129 11.9991C22.4129 11.0705 21.9428 10.4594 21.3884 9.68716L20.1699 10.5619ZM3.82978 13.4364C3.20581 12.5672 3.08676 12.3577 3.08676 11.9991L1.58676 11.9991C1.58676 12.9277 2.05688 13.5389 2.61126 14.3111L3.82978 13.4364ZM2.61126 9.68716C2.05688 10.4594 1.58676 11.0705 1.58676 11.9991L3.08676 11.9991C3.08676 11.6406 3.20581 11.4311 3.82978 10.5619L2.61126 9.68716ZM8.24985 11.9991C8.24985 14.0702 9.92878 15.7491 11.9999 15.7491V14.2491C10.7572 14.2491 9.74985 13.2418 9.74985 11.9991H8.24985ZM11.9999 15.7491C14.0709 15.7491 15.7498 14.0702 15.7498 11.9991H14.2498C14.2498 13.2418 13.2425 14.2491 11.9999 14.2491V15.7491ZM15.7498 11.9991C15.7498 9.92808 14.0709 8.24914 11.9999 8.24914V9.74914C13.2425 9.74914 14.2498 10.7565 14.2498 11.9991H15.7498ZM11.9999 8.24914C9.92878 8.24914 8.24985 9.92808 8.24985 11.9991H9.74985C9.74985 10.7565 10.7572 9.74914 11.9999 9.74914V8.24914Z" fill="black"/>
</svg>
