<svg width="24" height="24" viewBox="0 0 24 24" fill="none" xmlns="http://www.w3.org/2000/svg">
<path d="M5.00012 17.9997H5.3242C6.99597 17.9997 8.55712 17.1642 9.48445 15.7732L14.5158 8.22619C15.4431 6.8352 17.0043 5.99969 18.676 5.99969H19.0001H19.7664M5.00012 5.99969H5.3242C6.99597 5.99969 8.55712 6.8352 9.48445 8.22619L12.0001 11.9997L14.5158 15.7732C15.4431 17.1642 17.0043 17.9997 18.676 17.9997H19.0001H19.7664M18.2501 3.99969L19.4758 5.22539C19.6893 5.43891 19.785 5.72292 19.7664 5.99969M18.0001 7.87469L19.4089 6.70072C19.6286 6.51758 19.7488 6.26189 19.7664 5.99969M18.2501 15.9997L19.4758 17.2254C19.6893 17.4389 19.785 17.7229 19.7664 17.9997M18.0001 19.8747L19.4089 18.7007C19.6286 18.5176 19.7488 18.2619 19.7664 17.9997" stroke="black" stroke-width="1.5" stroke-linecap="round"/>
</svg>
