<svg width="24" height="24" viewBox="0 0 24 24" fill="none" xmlns="http://www.w3.org/2000/svg">
<path d="M5.00003 17.9997H5.32411C6.99588 17.9997 8.55703 17.1642 9.48436 15.7732L14.5157 8.22619C15.443 6.8352 17.0042 5.99969 18.6759 5.99969H19.7664M18.25 3.99969L19.4757 5.22539C19.6892 5.43891 19.7849 5.72292 19.7664 5.99969M18 7.87469L19.4088 6.70072C19.6286 6.51758 19.7487 6.26189 19.7664 5.99969M5.00003 5.99969H5.32411C6.99588 5.99969 8.55703 6.8352 9.48436 8.22619M14.5157 15.7732C15.443 17.1642 17.0042 17.9997 18.6759 17.9997H19.7664M18.25 15.9997L19.4757 17.2254C19.6892 17.4389 19.7849 17.7229 19.7664 17.9997M18 19.8747L19.4088 18.7007C19.6286 18.5176 19.7487 18.2619 19.7664 17.9997" stroke="black" stroke-width="1.5" stroke-linecap="round"/>
</svg>
