<svg width="24" height="24" viewBox="0 0 24 24" fill="none" xmlns="http://www.w3.org/2000/svg">
<g clip-path="url(#clip0_0_1)">
<path d="M8.45467 18.7554L8.68643 18.0421L8.45467 18.7554ZM5.24447 15.5452L5.95776 15.3134L5.24447 15.5452ZM18.755 15.5452L18.0417 15.3134L18.755 15.5452ZM15.5448 18.7554L15.3131 18.0421L15.5448 18.7554ZM15.5448 5.24484L15.3131 5.95813L15.5448 5.24484ZM18.755 8.45503L18.0417 8.6868L18.755 8.45503ZM8.45467 5.24484L8.68643 5.95813L8.45467 5.24484ZM5.24447 8.45503L5.95776 8.6868L5.24447 8.45503ZM5.99975 12.7501C6.41397 12.7501 6.74975 12.4143 6.74975 12.0001C6.74975 11.5859 6.41397 11.2501 5.99975 11.2501V12.7501ZM0.999756 11.2501C0.585542 11.2501 0.249756 11.5859 0.249756 12.0001C0.249756 12.4143 0.585542 12.7501 0.999756 12.7501V11.2501ZM11.2498 6.00012C11.2498 6.41433 11.5855 6.75012 11.9998 6.75012C12.414 6.75012 12.7498 6.41433 12.7498 6.00012H11.2498ZM12.7498 1.00012C12.7498 0.585909 12.414 0.250122 11.9998 0.250122C11.5855 0.250122 11.2498 0.585909 11.2498 1.00012H12.7498ZM11.2498 23.0001C11.2498 23.4143 11.5855 23.7501 11.9998 23.7501C12.414 23.7501 12.7498 23.4143 12.7498 23.0001H11.2498ZM12.7498 18.0001C12.7498 17.5859 12.414 17.2501 11.9998 17.2501C11.5855 17.2501 11.2498 17.5859 11.2498 18.0001H12.7498ZM22.9997 12.7501C23.414 12.7501 23.7497 12.4143 23.7497 12.0001C23.7497 11.5859 23.414 11.2501 22.9997 11.2501V12.7501ZM17.9997 11.2501C17.5855 11.2501 17.2498 11.5859 17.2498 12.0001C17.2498 12.4143 17.5855 12.7501 17.9997 12.7501V11.2501ZM11.9998 18.2501C10.0801 18.2501 9.29814 18.2409 8.68643 18.0421L8.22291 19.4687C9.11752 19.7594 10.1968 19.7501 11.9998 19.7501V18.2501ZM4.24975 12.0001C4.24975 13.803 4.2405 14.8823 4.53118 15.777L5.95776 15.3134C5.75901 14.7017 5.74975 13.9198 5.74975 12.0001H4.24975ZM8.68643 18.0421C7.39257 17.6217 6.37816 16.6073 5.95776 15.3134L4.53118 15.777C5.09996 17.5275 6.47239 18.8999 8.22291 19.4687L8.68643 18.0421ZM18.2497 12.0001C18.2497 13.9198 18.2405 14.7017 18.0417 15.3134L19.4683 15.777C19.759 14.8823 19.7497 13.803 19.7497 12.0001H18.2497ZM11.9998 19.7501C13.8027 19.7501 14.882 19.7594 15.7766 19.4687L15.3131 18.0421C14.7014 18.2409 13.9194 18.2501 11.9998 18.2501V19.7501ZM18.0417 15.3134C17.6213 16.6073 16.6069 17.6217 15.3131 18.0421L15.7766 19.4687C17.5271 18.8999 18.8995 17.5275 19.4683 15.777L18.0417 15.3134ZM11.9998 5.75012C13.9194 5.75012 14.7014 5.75937 15.3131 5.95813L15.7766 4.53155C14.882 4.24087 13.8027 4.25012 11.9998 4.25012V5.75012ZM19.7497 12.0001C19.7497 10.1972 19.759 9.11789 19.4683 8.22327L18.0417 8.6868C18.2405 9.29851 18.2497 10.0805 18.2497 12.0001H19.7497ZM15.3131 5.95813C16.6069 6.37853 17.6213 7.39294 18.0417 8.6868L19.4683 8.22327C18.8995 6.47275 17.5271 5.10032 15.7766 4.53155L15.3131 5.95813ZM11.9998 4.25012C10.1968 4.25012 9.11752 4.24087 8.22291 4.53155L8.68643 5.95813C9.29814 5.75937 10.0801 5.75012 11.9998 5.75012V4.25012ZM5.74975 12.0001C5.74975 10.0805 5.75901 9.29851 5.95776 8.6868L4.53118 8.22327C4.2405 9.11789 4.24975 10.1972 4.24975 12.0001H5.74975ZM8.22291 4.53155C6.47239 5.10032 5.09996 6.47275 4.53118 8.22327L5.95776 8.6868C6.37816 7.39294 7.39257 6.37853 8.68643 5.95813L8.22291 4.53155ZM5.99975 11.2501H0.999756V12.7501H5.99975V11.2501ZM12.7498 6.00012V1.00012H11.2498V6.00012H12.7498ZM12.7498 23.0001V18.0001H11.2498V23.0001H12.7498ZM22.9997 11.2501H17.9997V12.7501H22.9997V11.2501Z" fill="black"/>
<path d="M10.25 12C10.25 12.9668 11.0337 13.7505 12.0005 13.7505C12.9672 13.7505 13.7509 12.9668 13.7509 12C13.7509 11.0332 12.9672 10.2495 12.0005 10.2495C11.0337 10.2495 10.25 11.0332 10.25 12Z" stroke="black" stroke-width="1.5"/>
</g>
<defs>
<clipPath id="clip0_0_1">
<rect width="24" height="24" fill="black" transform="translate(-0.000244141 -0.000488281)"/>
</clipPath>
</defs>
</svg>
