<svg width="24" height="24" viewBox="0 0 24 24" fill="none" xmlns="http://www.w3.org/2000/svg">
<g clip-path="url(#clip0_0_1)">
<path d="M8.45433 18.7554L8.6861 18.0421L8.45433 18.7554ZM5.24414 15.5452L5.95743 15.3134L5.24414 15.5452ZM18.7547 15.5452L18.0414 15.3134L18.7547 15.5452ZM15.5445 18.7554L15.3127 18.0421L15.5445 18.7554ZM15.5445 5.24484L15.3127 5.95813L15.5445 5.24484ZM18.7547 8.45503L18.0414 8.6868L18.7547 8.45503ZM8.45433 5.24484L8.6861 5.95813L8.45433 5.24484ZM5.24414 8.45503L5.95743 8.6868L5.24414 8.45503ZM0.99942 11.2501C0.585207 11.2501 0.24942 11.5859 0.24942 12.0001C0.24942 12.4143 0.585207 12.7501 0.99942 12.7501V11.2501ZM12.7494 1.00012C12.7494 0.585909 12.4136 0.250122 11.9994 0.250122C11.5852 0.250122 11.2494 0.585909 11.2494 1.00012H12.7494ZM11.2494 23.0001C11.2494 23.4143 11.5852 23.7501 11.9994 23.7501C12.4136 23.7501 12.7494 23.4143 12.7494 23.0001H11.2494ZM22.9994 12.7501C23.4136 12.7501 23.7494 12.4143 23.7494 12.0001C23.7494 11.5859 23.4136 11.2501 22.9994 11.2501V12.7501ZM11.9994 18.2501C10.0798 18.2501 9.29781 18.2409 8.6861 18.0421L8.22257 19.4687C9.11718 19.7594 10.1965 19.7501 11.9994 19.7501V18.2501ZM4.24942 12.0001C4.24942 13.803 4.24017 14.8823 4.53084 15.777L5.95743 15.3134C5.75867 14.7017 5.74942 13.9198 5.74942 12.0001H4.24942ZM8.6861 18.0421C7.39223 17.6217 6.37783 16.6073 5.95743 15.3134L4.53084 15.777C5.09962 17.5275 6.47205 18.8999 8.22257 19.4687L8.6861 18.0421ZM18.2494 12.0001C18.2494 13.9198 18.2402 14.7017 18.0414 15.3134L19.468 15.777C19.7587 14.8823 19.7494 13.803 19.7494 12.0001H18.2494ZM11.9994 19.7501C13.8023 19.7501 14.8816 19.7594 15.7763 19.4687L15.3127 18.0421C14.701 18.2409 13.9191 18.2501 11.9994 18.2501V19.7501ZM18.0414 15.3134C17.621 16.6073 16.6066 17.6217 15.3127 18.0421L15.7763 19.4687C17.5268 18.8999 18.8992 17.5275 19.468 15.777L18.0414 15.3134ZM11.9994 5.75012C13.9191 5.75012 14.701 5.75937 15.3127 5.95813L15.7763 4.53155C14.8816 4.24087 13.8023 4.25012 11.9994 4.25012V5.75012ZM19.7494 12.0001C19.7494 10.1972 19.7587 9.11789 19.468 8.22327L18.0414 8.6868C18.2402 9.29851 18.2494 10.0805 18.2494 12.0001H19.7494ZM15.3127 5.95813C16.6066 6.37853 17.621 7.39294 18.0414 8.6868L19.468 8.22327C18.8992 6.47275 17.5268 5.10032 15.7763 4.53155L15.3127 5.95813ZM11.9994 4.25012C10.1965 4.25012 9.11718 4.24087 8.22257 4.53155L8.6861 5.95813C9.29781 5.75937 10.0798 5.75012 11.9994 5.75012V4.25012ZM5.74942 12.0001C5.74942 10.0805 5.75867 9.29851 5.95743 8.6868L4.53084 8.22327C4.24017 9.11789 4.24942 10.1972 4.24942 12.0001H5.74942ZM8.22257 4.53155C6.47205 5.10032 5.09962 6.47275 4.53084 8.22327L5.95743 8.6868C6.37783 7.39294 7.39223 6.37853 8.6861 5.95813L8.22257 4.53155ZM4.99942 11.2501H0.99942V12.7501H4.99942V11.2501ZM12.7494 5.00012V1.00012H11.2494V5.00012H12.7494ZM12.7494 23.0001V19.0001H11.2494V23.0001H12.7494ZM22.9994 11.2501H18.9994V12.7501H22.9994V11.2501Z" fill="black"/>
<path d="M10.25 12C10.25 12.9668 11.0337 13.7505 12.0005 13.7505C12.9672 13.7505 13.7509 12.9668 13.7509 12C13.7509 11.0332 12.9672 10.2495 12.0005 10.2495C11.0337 10.2495 10.25 11.0332 10.25 12Z" stroke="black" stroke-width="1.5"/>
</g>
<defs>
<clipPath id="clip0_0_1">
<rect width="24" height="24" fill="black" transform="translate(0 -0.000488281)"/>
</clipPath>
</defs>
</svg>
