<svg width="24" height="24" viewBox="0 0 24 24" fill="none" xmlns="http://www.w3.org/2000/svg">
<path d="M4.92888 7.92814L5.45921 7.39781L5.45921 7.39781L4.92888 7.92814ZM2.99995 5.99921L2.46962 6.52954L2.46962 6.52954L2.99995 5.99921ZM11 20.2492C10.5857 20.2492 10.25 20.585 10.25 20.9992C10.25 21.4134 10.5857 21.7492 11 21.7492V20.2492ZM21.045 18.9381L20.4383 18.4973L20.4383 18.4973L21.045 18.9381ZM19.9389 20.0443L19.498 19.4375L19.498 19.4375L19.9389 20.0443ZM19.9389 3.95412L20.3797 3.34736L20.3797 3.34736L19.9389 3.95412ZM21.045 5.06028L20.4383 5.50112L20.4383 5.50112L21.045 5.06028ZM4.06103 3.95412L3.62019 3.34736L3.62019 3.34736L4.06103 3.95412ZM1.24995 11.9992C1.24995 12.4134 1.58574 12.7492 1.99995 12.7492C2.41417 12.7492 2.74995 12.4134 2.74995 11.9992H1.24995ZM2.95487 5.06028L2.34811 4.61944L2.34811 4.61944L2.95487 5.06028ZM0.999954 18.2492C0.585741 18.2492 0.249955 18.585 0.249955 18.9992C0.249955 19.4134 0.585741 19.7492 0.999954 19.7492V18.2492ZM6.99995 19.7492C7.41417 19.7492 7.74995 19.4134 7.74995 18.9992C7.74995 18.585 7.41417 18.2492 6.99995 18.2492V19.7492ZM0.999954 15.2492C0.585741 15.2492 0.249955 15.585 0.249955 15.9992C0.249955 16.4134 0.585741 16.7492 0.999954 16.7492V15.2492ZM3.99995 16.7492C4.41417 16.7492 4.74995 16.4134 4.74995 15.9992C4.74995 15.585 4.41417 15.2492 3.99995 15.2492V16.7492ZM2.62098 5.62023L1.94533 5.29467L2.62098 5.62023ZM5.45921 7.39781L3.65161 5.5902L2.59095 6.65086L4.39855 8.45847L5.45921 7.39781ZM20.3483 5.5902L18.5407 7.3978L19.6013 8.45846L21.409 6.65086L20.3483 5.5902ZM4.39855 8.45847C6.05023 10.1101 7.34121 11.4034 8.48283 12.2744C9.64176 13.1586 10.7345 13.6781 12 13.6781V12.1781C11.1943 12.1781 10.4182 11.8643 9.3927 11.0819C8.34989 10.2862 7.14087 9.07946 5.45921 7.39781L4.39855 8.45847ZM18.5407 7.3978C16.859 9.07946 15.65 10.2862 14.6072 11.0819C13.5817 11.8643 12.8056 12.1781 12 12.1781V13.6781C13.2654 13.6781 14.3581 13.1586 15.5171 12.2744C16.6587 11.4034 17.9497 10.1101 19.6013 8.45846L18.5407 7.3978ZM5.45921 7.39781L3.53028 5.46888L2.46962 6.52954L4.39855 8.45847L5.45921 7.39781ZM20.4696 5.46888L18.5407 7.3978L19.6013 8.45846L21.5303 6.52954L20.4696 5.46888ZM11 3.74921H13V2.24921H11V3.74921ZM13 20.2492H11V21.7492H13V20.2492ZM21.2499 11.9992C21.2499 13.8908 21.2489 15.2492 21.1349 16.3012C21.0225 17.3391 20.8074 17.9893 20.4383 18.4973L21.6518 19.379C22.2376 18.5726 22.4999 17.6283 22.6262 16.4627C22.751 15.3112 22.7499 13.8574 22.7499 11.9992H21.2499ZM13 21.7492C14.8581 21.7492 16.312 21.7502 17.4635 21.6255C18.629 21.4992 19.5734 21.2369 20.3797 20.651L19.498 19.4375C18.99 19.8066 18.3398 20.0217 17.3019 20.1342C16.25 20.2482 14.8915 20.2492 13 20.2492V21.7492ZM20.4383 18.4973C20.1761 18.8581 19.8588 19.1754 19.498 19.4375L20.3797 20.651C20.8679 20.2964 21.2971 19.8671 21.6518 19.379L20.4383 18.4973ZM13 3.74921C14.8915 3.74921 16.25 3.75024 17.3019 3.86421C18.3398 3.97666 18.99 4.1918 19.498 4.56088L20.3797 3.34736C19.5734 2.76153 18.629 2.49921 17.4635 2.37293C16.312 2.24818 14.8581 2.24921 13 2.24921V3.74921ZM19.498 4.56088C19.8588 4.82302 20.1761 5.14032 20.4383 5.50112L21.6518 4.61944C21.2971 4.1313 20.8679 3.70202 20.3797 3.34736L19.498 4.56088ZM11 2.24921C9.14179 2.24921 7.68793 2.24818 6.53643 2.37293C5.37089 2.49921 4.42651 2.76153 3.62019 3.34736L4.50187 4.56088C5.00987 4.1918 5.66009 3.97666 6.698 3.86421C7.74994 3.75024 9.10838 3.74921 11 3.74921V2.24921ZM3.62019 3.34736C3.13204 3.70202 2.70276 4.1313 2.34811 4.61944L3.56163 5.50112C3.82377 5.14032 4.14106 4.82302 4.50187 4.56088L3.62019 3.34736ZM0.999954 19.7492H6.99995V18.2492H0.999954V19.7492ZM0.999954 16.7492H3.99995V15.2492H0.999954V16.7492ZM2.74995 11.9992C2.74995 10.364 2.75044 9.12413 2.82545 8.13125C2.90033 7.14014 3.04583 6.4663 3.29663 5.9458L1.94533 5.29467C1.57511 6.06299 1.4101 6.95427 1.32971 8.01825C1.24947 9.08045 1.24995 10.3856 1.24995 11.9992H2.74995ZM3.29663 5.9458C3.37343 5.78643 3.46108 5.63952 3.56163 5.50112L2.34811 4.61944C2.1935 4.83224 2.06007 5.05655 1.94533 5.29467L3.29663 5.9458ZM3.53028 5.46888L3.15131 5.0899L2.09065 6.15056L2.46962 6.52954L3.53028 5.46888ZM22.7499 11.9992C22.7499 10.3856 22.7504 9.08045 22.6702 8.01825C22.5898 6.95427 22.4248 6.06299 22.0546 5.29467L20.7033 5.9458C20.9541 6.4663 21.0996 7.14014 21.1745 8.13125C21.2495 9.12413 21.2499 10.364 21.2499 11.9992H22.7499ZM22.0546 5.29467C21.9398 5.05655 21.8064 4.83224 21.6518 4.61944L20.4383 5.50112C20.5388 5.63952 20.6265 5.78643 20.7033 5.9458L22.0546 5.29467ZM21.5303 6.52954L21.9092 6.15056L20.8486 5.0899L20.4696 5.46888L21.5303 6.52954Z" fill="black"/>
</svg>
