<svg width="24" height="24" viewBox="0 0 24 24" fill="none" xmlns="http://www.w3.org/2000/svg">
<path d="M11.3698 19.2492C10.9556 19.2492 10.6198 19.585 10.6198 19.9992C10.6198 20.4134 10.9556 20.7492 11.3698 20.7492V19.2492ZM20.9179 10.8987L20.1751 11.0018L20.1751 11.0018L20.9179 10.8987ZM21.0927 16.8289L21.7906 17.1033L21.7906 17.1033L21.0927 16.8289ZM18.8919 19.3565L18.524 18.7029L18.524 18.7029L18.8919 19.3565ZM17.6897 4.45404L18.0023 3.77226L18.0023 3.77226L17.6897 4.45404ZM19.8214 6.31013L19.1891 6.71349L19.1891 6.71349L19.8214 6.31013ZM6.67406 4.45404L6.36152 3.77226L6.36152 3.77226L6.67406 4.45404ZM2.703 10.7955C2.64602 11.2058 2.93242 11.5845 3.3427 11.6415C3.75297 11.6985 4.13176 11.4121 4.18874 11.0018L2.703 10.7955ZM4.54237 6.31013L3.91007 5.90677L3.91007 5.90677L4.54237 6.31013ZM4.9895 7.736L5.51983 7.20567L5.5104 7.19624L5.50064 7.18715L4.9895 7.736ZM19.9898 6.87788L19.4594 6.34755L19.4594 6.34755L19.9898 6.87788ZM19.1316 7.736L18.6013 7.20567L18.6013 7.20567L19.1316 7.736ZM1.99978 17.2492C1.58557 17.2492 1.24978 17.585 1.24978 17.9992C1.24978 18.4134 1.58557 18.7492 1.99978 18.7492V17.2492ZM7.99978 18.7492C8.41399 18.7492 8.74978 18.4134 8.74978 17.9992C8.74978 17.585 8.41399 17.2492 7.99978 17.2492V18.7492ZM1.99978 14.2492C1.58557 14.2492 1.24978 14.585 1.24978 14.9992C1.24978 15.4134 1.58557 15.7492 1.99978 15.7492V14.2492ZM4.99978 15.7492C5.41399 15.7492 5.74978 15.4134 5.74978 14.9992C5.74978 14.585 5.41399 14.2492 4.99978 14.2492V15.7492ZM11.3698 4.74921H12.994V3.24921H11.3698V4.74921ZM12.994 19.2492H11.3698V20.7492H12.994V19.2492ZM20.1751 11.0018C20.395 12.5851 20.5527 13.7254 20.5997 14.6233C20.6464 15.5138 20.578 16.0882 20.3947 16.5544L21.7906 17.1033C22.0868 16.35 22.1492 15.5295 22.0977 14.5449C22.0465 13.5677 21.8771 12.3526 21.6608 10.7955L20.1751 11.0018ZM12.994 20.7492C14.5661 20.7492 15.7929 20.7498 16.7678 20.6661C17.7502 20.5817 18.5543 20.4071 19.2597 20.0101L18.524 18.7029C18.0874 18.9486 17.5279 19.0953 16.6395 19.1716C15.7437 19.2486 14.5925 19.2492 12.994 19.2492V20.7492ZM20.3947 16.5544C20.0369 17.4645 19.3762 18.2233 18.524 18.7029L19.2597 20.0101C20.4126 19.3612 21.3065 18.3345 21.7906 17.1033L20.3947 16.5544ZM12.994 4.74921C14.24 4.74921 15.1324 4.74972 15.8383 4.80386C16.535 4.85729 16.9936 4.95996 17.3772 5.13581L18.0023 3.77226C17.3937 3.49329 16.739 3.36854 15.9531 3.30826C15.1765 3.2487 14.2171 3.24921 12.994 3.24921V4.74921ZM17.3772 5.13581C18.1203 5.47649 18.7495 6.02427 19.1891 6.71349L20.4537 5.90677C19.8589 4.9743 19.0077 4.23318 18.0023 3.77226L17.3772 5.13581ZM11.3698 3.24921C10.1467 3.24921 9.18734 3.2487 8.41075 3.30826C7.62481 3.36854 6.97007 3.49329 6.36152 3.77226L6.98661 5.13581C7.37022 4.95996 7.82883 4.85729 8.52546 4.80386C9.23144 4.74972 10.1238 4.74921 11.3698 4.74921V3.24921ZM4.18874 11.0018C4.4565 9.07397 4.60764 8.02176 4.89805 7.26923L3.49865 6.72918C3.13016 7.68401 2.95936 8.94971 2.703 10.7955L4.18874 11.0018ZM4.89805 7.26923C4.97967 7.05773 5.07028 6.87712 5.17466 6.71349L3.91007 5.90677C3.74622 6.16361 3.61215 6.43507 3.49864 6.72918L4.89805 7.26923ZM6.36152 3.77226C5.35608 4.23318 4.50492 4.9743 3.91007 5.90677L5.17466 6.71349C5.61433 6.02427 6.24346 5.47649 6.98661 5.13581L6.36152 3.77226ZM5.50064 7.18715L4.70949 6.45036L3.68721 7.54805L4.47836 8.28485L5.50064 7.18715ZM19.4594 6.34755L18.6013 7.20567L19.662 8.26633L20.5201 7.40821L19.4594 6.34755ZM4.45917 8.26633C6.11084 9.91801 7.40182 11.2112 8.54345 12.0823C9.70238 12.9665 10.7951 13.486 12.0606 13.486V11.986C11.2549 11.986 10.4788 11.6722 9.45332 10.8897C8.41051 10.0941 7.20149 8.88733 5.51983 7.20567L4.45917 8.26633ZM18.6013 7.20567C16.9196 8.88733 15.7106 10.0941 14.6678 10.8897C13.6423 11.6722 12.8662 11.986 12.0606 11.986V13.486C13.326 13.486 14.4188 12.9665 15.5777 12.0823C16.7193 11.2112 18.0103 9.91801 19.662 8.26633L18.6013 7.20567ZM1.99978 18.7492H7.99978V17.2492H1.99978V18.7492ZM1.99978 15.7492H4.99978V14.2492H1.99978V15.7492ZM21.6608 10.7955C21.3837 8.80068 21.2076 7.47817 20.763 6.48335L19.3936 7.09534C19.7293 7.84674 19.8838 8.90457 20.1751 11.0018L21.6608 10.7955ZM20.763 6.48335C20.6727 6.2812 20.5707 6.09005 20.4537 5.90677L19.1891 6.71349C19.264 6.83086 19.3315 6.9565 19.3936 7.09534L20.763 6.48335ZM20.5201 7.40821L20.6086 7.31968L19.548 6.25901L19.4594 6.34755L20.5201 7.40821Z" fill="black"/>
</svg>
