<svg width="24" height="24" viewBox="0 0 24 24" fill="none" xmlns="http://www.w3.org/2000/svg">
<g clip-path="url(#clip0_0_1)">
<path d="M11.0002 16.0001C11.0002 16.5526 11.4481 17.0005 12.0006 17.0005C12.5532 17.0005 13.0011 16.5526 13.0011 16.0001C13.0011 15.4475 12.5532 14.9996 12.0006 14.9996C11.4481 14.9996 11.0002 15.4475 11.0002 16.0001Z" fill="black"/>
<path d="M5.06052 22.0445L5.50136 21.4377L5.06052 22.0445ZM3.95437 20.9383L4.56113 20.4975L3.95437 20.9383ZM20.0445 20.9383L19.4378 20.4975L20.0445 20.9383ZM18.9384 22.0445L18.4975 21.4377L18.9384 22.0445ZM18.9384 1.9543L18.4975 2.56107L18.9384 1.9543ZM20.0445 3.06046L19.4378 3.5013L20.0445 3.06046ZM5.06052 1.9543L5.50136 2.56107L5.06052 1.9543ZM3.95437 3.06046L4.56113 3.5013L3.95437 3.06046ZM20.2494 9.99939V13.9994H21.7494V9.99939H20.2494ZM3.74945 13.9994V9.99939H2.24945V13.9994H3.74945ZM11.9994 22.2494C10.1079 22.2494 8.74944 22.2484 7.69749 22.1344C6.65958 22.0219 6.00937 21.8068 5.50136 21.4377L4.61968 22.6512C5.42601 23.2371 6.37039 23.4994 7.53592 23.6257C8.68742 23.7504 10.1413 23.7494 11.9994 23.7494V22.2494ZM2.24945 13.9994C2.24945 15.8575 2.24842 17.3114 2.37318 18.4629C2.49946 19.6284 2.76177 20.5728 3.3476 21.3791L4.56113 20.4975C4.19204 19.9895 3.9769 19.3392 3.86445 18.3013C3.75048 17.2494 3.74945 15.891 3.74945 13.9994H2.24945ZM5.50136 21.4377C5.14056 21.1756 4.82327 20.8583 4.56113 20.4975L3.3476 21.3791C3.70226 21.8673 4.13154 22.2966 4.61968 22.6512L5.50136 21.4377ZM20.2494 13.9994C20.2494 15.891 20.2484 17.2494 20.1344 18.3013C20.022 19.3392 19.8069 19.9895 19.4378 20.4975L20.6513 21.3791C21.2371 20.5728 21.4994 19.6284 21.6257 18.4629C21.7505 17.3114 21.7494 15.8575 21.7494 13.9994H20.2494ZM11.9994 23.7494C13.8576 23.7494 15.3115 23.7504 16.463 23.6257C17.6285 23.4994 18.5729 23.2371 19.3792 22.6512L18.4975 21.4377C17.9895 21.8068 17.3393 22.0219 16.3014 22.1344C15.2495 22.2484 13.891 22.2494 11.9994 22.2494V23.7494ZM19.4378 20.4975C19.1756 20.8583 18.8583 21.1756 18.4975 21.4377L19.3792 22.6512C19.8674 22.2966 20.2966 21.8673 20.6513 21.3791L19.4378 20.4975ZM11.9994 1.74939C13.891 1.74939 15.2495 1.75042 16.3014 1.86439C17.3393 1.97684 17.9895 2.19198 18.4975 2.56107L19.3792 1.34754C18.5729 0.761714 17.6285 0.499396 16.463 0.373118C15.3115 0.24836 13.8576 0.24939 11.9994 0.24939V1.74939ZM21.7494 9.99939C21.7494 8.14123 21.7505 6.68736 21.6257 5.53586C21.4994 4.37033 21.2371 3.42595 20.6513 2.61962L19.4378 3.5013C19.8069 4.00931 20.022 4.65952 20.1344 5.69743C20.2484 6.74938 20.2494 8.10781 20.2494 9.99939H21.7494ZM18.4975 2.56107C18.8583 2.82321 19.1756 3.1405 19.4378 3.5013L20.6513 2.61962C20.2966 2.13148 19.8674 1.7022 19.3792 1.34754L18.4975 2.56107ZM11.9994 0.24939C10.1413 0.24939 8.68742 0.24836 7.53592 0.373118C6.37039 0.499396 5.42601 0.761714 4.61968 1.34754L5.50136 2.56107C6.00937 2.19198 6.65958 1.97684 7.69749 1.86439C8.74944 1.75042 10.1079 1.74939 11.9994 1.74939V0.24939ZM3.74945 9.99939C3.74945 8.10782 3.75048 6.74938 3.86445 5.69743C3.9769 4.65952 4.19204 4.00931 4.56113 3.5013L3.3476 2.61962C2.76177 3.42595 2.49946 4.37033 2.37318 5.53586C2.24842 6.68736 2.24945 8.14123 2.24945 9.99939H3.74945ZM4.61968 1.34754C4.13154 1.7022 3.70226 2.13148 3.3476 2.61962L4.56113 3.5013C4.82327 3.1405 5.14056 2.82321 5.50136 2.56107L4.61968 1.34754ZM8.24945 15.9994C8.24945 18.0705 9.92838 19.7494 11.9994 19.7494V18.2494C10.7568 18.2494 9.74945 17.242 9.74945 15.9994H8.24945ZM11.9994 19.7494C14.0705 19.7494 15.7494 18.0705 15.7494 15.9994H14.2494C14.2494 17.242 13.2421 18.2494 11.9994 18.2494V19.7494ZM15.7494 15.9994C15.7494 13.9283 14.0705 12.2494 11.9994 12.2494V13.7494C13.2421 13.7494 14.2494 14.7567 14.2494 15.9994H15.7494ZM11.9994 12.2494C9.92838 12.2494 8.24945 13.9283 8.24945 15.9994H9.74945C9.74945 14.7567 10.7568 13.7494 11.9994 13.7494V12.2494ZM9.24945 6.99939C9.24945 8.51817 10.4807 9.74939 11.9994 9.74939V8.24939C11.3091 8.24939 10.7494 7.68974 10.7494 6.99939H9.24945ZM11.9994 9.74939C13.5182 9.74939 14.7494 8.51817 14.7494 6.99939H13.2494C13.2494 7.68974 12.6898 8.24939 11.9994 8.24939V9.74939ZM14.7494 6.99939C14.7494 5.4806 13.5182 4.24939 11.9994 4.24939V5.74939C12.6898 5.74939 13.2494 6.30903 13.2494 6.99939H14.7494ZM11.9994 4.24939C10.4807 4.24939 9.24945 5.4806 9.24945 6.99939H10.7494C10.7494 6.30903 11.3091 5.74939 11.9994 5.74939V4.24939Z" fill="black"/>
</g>
<defs>
<clipPath id="clip0_0_1">
<rect width="24" height="24" fill="black" transform="translate(-0.000244141 -0.000610352)"/>
</clipPath>
</defs>
</svg>
