<svg width="24" height="24" viewBox="0 0 24 24" fill="none" xmlns="http://www.w3.org/2000/svg">
<g clip-path="url(#clip0_0_1)">
<path d="M8.99975 11.9996C8.99975 13.6565 10.3429 14.9996 11.9998 14.9996C13.6566 14.9996 14.9998 13.6565 14.9998 11.9996C14.9998 10.3428 13.6566 8.99963 11.9998 8.99963C10.3429 8.99963 8.99975 10.3428 8.99975 11.9996Z" fill="black"/>
<path d="M17.9998 4.99963C17.9998 4.44735 18.4475 3.99963 18.9997 3.99963C19.552 3.99963 19.9997 4.44735 19.9997 4.99963C19.9997 5.55192 19.552 5.99963 18.9997 5.99963C18.4475 5.99963 17.9998 5.55192 17.9998 4.99963Z" fill="black"/>
<path d="M17.9998 18.9996C17.9998 18.4473 18.4475 17.9996 18.9997 17.9996C19.552 17.9996 19.9997 18.4473 19.9997 18.9996C19.9997 19.5519 19.552 19.9996 18.9997 19.9996C18.4475 19.9996 17.9998 19.5519 17.9998 18.9996Z" fill="black"/>
<path d="M3.99976 4.99963C3.99976 4.44735 4.44747 3.99963 4.99976 3.99963C5.55204 3.99963 5.99976 4.44735 5.99976 4.99963C5.99976 5.55192 5.55204 5.99963 4.99976 5.99963C4.44747 5.99963 3.99976 5.55192 3.99976 4.99963Z" fill="black"/>
<path d="M3.99976 18.9996C3.99976 18.4473 4.44747 17.9996 4.99976 17.9996C5.55204 17.9996 5.99976 18.4473 5.99976 18.9996C5.99976 19.5519 5.55204 19.9996 4.99976 19.9996C4.44747 19.9996 3.99976 19.5519 3.99976 18.9996Z" fill="black"/>
<path d="M10.9994 1.74939H12.9994V0.24939H10.9994V1.74939ZM22.2494 10.9994V12.9994H23.7494V10.9994H22.2494ZM12.9994 22.2494H10.9994V23.7494H12.9994V22.2494ZM1.74942 12.9994V10.9994H0.24942V12.9994H1.74942ZM10.9994 22.2494C8.62119 22.2494 6.91297 22.2478 5.613 22.073C4.33459 21.9011 3.56387 21.5742 2.99422 21.0046L1.93356 22.0652C2.82837 22.9601 3.96839 23.3654 5.41312 23.5596C6.83628 23.751 8.6636 23.7494 10.9994 23.7494V22.2494ZM0.24942 12.9994C0.24942 15.3352 0.247828 17.1625 0.439167 18.5857C0.633406 20.0304 1.03875 21.1704 1.93356 22.0652L2.99422 21.0046C2.42456 20.4349 2.09767 19.6642 1.92579 18.3858C1.75101 17.0858 1.74942 15.3776 1.74942 12.9994H0.24942ZM22.2494 12.9994C22.2494 15.3776 22.2478 17.0858 22.073 18.3858C21.9012 19.6642 21.5743 20.4349 21.0046 21.0046L22.0653 22.0652C22.9601 21.1704 23.3654 20.0304 23.5597 18.5857C23.751 17.1625 23.7494 15.3352 23.7494 12.9994H22.2494ZM12.9994 23.7494C15.3352 23.7494 17.1625 23.751 18.5857 23.5596C20.0304 23.3654 21.1705 22.9601 22.0653 22.0652L21.0046 21.0046C20.435 21.5742 19.6642 21.9011 18.3858 22.073C17.0859 22.2478 15.3776 22.2494 12.9994 22.2494V23.7494ZM12.9994 1.74939C15.3776 1.74939 17.0859 1.75098 18.3858 1.92576C19.6642 2.09764 20.435 2.42453 21.0046 2.99419L22.0653 1.93353C21.1705 1.03872 20.0304 0.633376 18.5857 0.439136C17.1625 0.247797 15.3352 0.24939 12.9994 0.24939V1.74939ZM23.7494 10.9994C23.7494 8.66357 23.751 6.83625 23.5597 5.41309C23.3654 3.96836 22.9601 2.82833 22.0653 1.93353L21.0046 2.99419C21.5743 3.56384 21.9012 4.33456 22.073 5.61296C22.2478 6.91294 22.2494 8.62116 22.2494 10.9994H23.7494ZM10.9994 0.24939C8.6636 0.24939 6.83628 0.247797 5.41312 0.439136C3.96839 0.633376 2.82837 1.03872 1.93356 1.93353L2.99422 2.99419C3.56387 2.42453 4.33459 2.09764 5.61299 1.92576C6.91297 1.75098 8.62119 1.74939 10.9994 1.74939V0.24939ZM1.74942 10.9994C1.74942 8.62116 1.75101 6.91294 1.92579 5.61296C2.09767 4.33456 2.42456 3.56384 2.99422 2.99419L1.93356 1.93353C1.03875 2.82833 0.633406 3.96836 0.439167 5.41309C0.247828 6.83625 0.24942 8.66357 0.24942 10.9994H1.74942ZM5.24942 11.9994C5.24942 15.7273 8.2715 18.7494 11.9994 18.7494V17.2494C9.09992 17.2494 6.74942 14.8989 6.74942 11.9994H5.24942ZM11.9994 18.7494C15.7273 18.7494 18.7494 15.7273 18.7494 11.9994H17.2494C17.2494 14.8989 14.8989 17.2494 11.9994 17.2494V18.7494ZM18.7494 11.9994C18.7494 8.27146 15.7273 5.24939 11.9994 5.24939V6.74939C14.8989 6.74939 17.2494 9.09989 17.2494 11.9994H18.7494ZM11.9994 5.24939C8.2715 5.24939 5.24942 8.27146 5.24942 11.9994H6.74942C6.74942 9.09989 9.09992 6.74939 11.9994 6.74939V5.24939Z" fill="black"/>
</g>
<defs>
<clipPath id="clip0_0_1">
<rect width="24" height="24" fill="black" transform="translate(0 -0.000610352)"/>
</clipPath>
</defs>
</svg>
