<svg width="24" height="24" viewBox="0 0 24 24" fill="none" xmlns="http://www.w3.org/2000/svg">
<g clip-path="url(#clip0_0_1)">
<path d="M14.0004 7.88537C14.3231 8.83801 15.2486 9.483 16.2929 9.483M5.09823 7.01405C6.67027 7.01405 8.06352 6.00179 8.54931 4.5067C9.63556 1.16356 14.3652 1.16356 15.4515 4.5067C15.9372 6.00179 17.3305 7.01405 18.9025 7.01405C22.4177 7.01405 23.8793 11.5122 21.0354 13.5784C19.7636 14.5024 19.2314 16.1403 19.7172 17.6354C20.8035 20.9785 16.9771 23.7585 14.1333 21.6924C12.8615 20.7683 11.1393 20.7683 9.8675 21.6924C7.02366 23.7585 3.19729 20.9785 4.28354 17.6354C4.76933 16.1403 4.23716 14.5024 2.96535 13.5784C0.121507 11.5122 1.58305 7.01405 5.09823 7.01405Z" stroke="black" stroke-width="1.5" stroke-linecap="round"/>
</g>
<defs>
<clipPath id="clip0_0_1">
<rect width="24" height="24" fill="black" transform="translate(-0.000244141 -0.000610352)"/>
</clipPath>
</defs>
</svg>
