<svg width="24" height="24" viewBox="0 0 24 24" fill="none" xmlns="http://www.w3.org/2000/svg">
<path d="M16.7297 14.5448L17.0702 15.2131L17.0702 15.2131L16.7297 14.5448ZM14.5446 16.7299L15.2129 17.0704L15.2129 17.0704L14.5446 16.7299ZM11.9996 21.2499C6.89101 21.2499 2.74965 17.1085 2.74965 11.9999H1.24965C1.24965 17.9369 6.06259 22.7499 11.9996 22.7499V21.2499ZM2.74965 11.9999C2.74965 6.89124 6.89101 2.74988 11.9996 2.74988V1.24988C6.06259 1.24988 1.24965 6.06281 1.24965 11.9999H2.74965ZM11.9996 2.74988C17.1083 2.74988 21.2496 6.89124 21.2496 11.9999H22.7496C22.7496 6.06281 17.9367 1.24988 11.9996 1.24988V2.74988ZM16.3892 13.8766C15.3073 14.4279 14.4276 15.3075 13.8764 16.3894L15.2129 17.0704C15.6203 16.2707 16.2705 15.6206 17.0702 15.2131L16.3892 13.8766ZM21.7995 13.2499C20.4763 13.25 19.4337 13.2527 18.5909 13.3258C17.7394 13.3997 17.0316 13.5493 16.3892 13.8766L17.0702 15.2131C17.4716 15.0086 17.965 14.8858 18.7206 14.8202C19.4849 14.7539 20.4554 14.75 21.7997 14.7499L21.7995 13.2499ZM21.2496 11.9999C21.2496 12.6344 21.1859 13.2533 21.0646 13.8507L22.5346 14.1491C22.6757 13.454 22.7496 12.7352 22.7496 11.9999H21.2496ZM21.0646 13.8507C20.3291 17.4737 17.4735 20.3294 13.8505 21.0648L14.1489 22.5348C18.3623 21.6796 21.6793 18.3625 22.5346 14.1491L21.0646 13.8507ZM13.8505 21.0648C13.2531 21.1861 12.6342 21.2499 11.9996 21.2499V22.7499C12.735 22.7499 13.4538 22.6759 14.1489 22.5348L13.8505 21.0648ZM14.7497 21.7999C14.7498 20.4556 14.7537 19.4852 14.82 18.7208C14.8856 17.9652 15.0083 17.4718 15.2129 17.0704L13.8764 16.3894C13.549 17.0318 13.3995 17.7396 13.3256 18.5911C13.2525 19.4339 13.2498 20.4765 13.2497 21.7997L14.7497 21.7999Z" fill="black"/>
</svg>
