<svg width="24" height="24" viewBox="0 0 24 24" fill="none" xmlns="http://www.w3.org/2000/svg">
<path d="M10.2231 15.8974L10.4172 15.173L10.2231 15.8974ZM8.10176 13.7761L8.82621 13.582L8.10176 13.7761ZM15.8973 13.7761L15.1729 13.582L15.8973 13.7761ZM13.776 15.8974L13.5819 15.173L13.776 15.8974ZM13.776 8.10185L13.5819 8.8263L13.776 8.10185ZM15.8973 10.2232L15.1729 10.4173L15.8973 10.2232ZM10.2231 8.10185L10.4172 8.8263L10.2231 8.10185ZM8.10176 10.2232L8.82621 10.4173L8.10176 10.2232ZM21.2495 11.9996C21.2495 17.1083 17.1082 21.2496 11.9995 21.2496V22.7496C17.9366 22.7496 22.7495 17.9367 22.7495 11.9996H21.2495ZM11.9995 21.2496C6.89091 21.2496 2.74954 17.1083 2.74954 11.9996H1.24954C1.24954 17.9367 6.06248 22.7496 11.9995 22.7496V21.2496ZM2.74954 11.9996C2.74954 6.891 6.89091 2.74963 11.9995 2.74963V1.24963C6.06248 1.24963 1.24954 6.06257 1.24954 11.9996H2.74954ZM11.9995 2.74963C17.1082 2.74963 21.2495 6.891 21.2495 11.9996H22.7495C22.7495 6.06257 17.9366 1.24963 11.9995 1.24963V2.74963ZM11.9995 15.2496C11.0213 15.2496 10.6793 15.2432 10.4172 15.173L10.029 16.6218C10.5299 16.7561 11.1179 16.7496 11.9995 16.7496V15.2496ZM7.24954 11.9996C7.24954 12.8813 7.2431 13.4693 7.37732 13.9702L8.82621 13.582C8.75598 13.3199 8.74954 12.9779 8.74954 11.9996H7.24954ZM10.4172 15.173C9.64074 14.9649 9.03426 14.3584 8.82621 13.582L7.37732 13.9702C7.72407 15.2643 8.73487 16.2751 10.029 16.6218L10.4172 15.173ZM15.2495 11.9996C15.2495 12.9779 15.2431 13.3199 15.1729 13.582L16.6218 13.9702C16.756 13.4693 16.7495 12.8813 16.7495 11.9996H15.2495ZM11.9995 16.7496C12.8812 16.7496 13.4692 16.7561 13.9701 16.6218L13.5819 15.173C13.3198 15.2432 12.9778 15.2496 11.9995 15.2496V16.7496ZM15.1729 13.582C14.9648 14.3584 14.3583 14.9649 13.5819 15.173L13.9701 16.6218C15.2642 16.2751 16.275 15.2643 16.6218 13.9702L15.1729 13.582ZM11.9995 8.74963C12.9778 8.74963 13.3198 8.75607 13.5819 8.8263L13.9701 7.37741C13.4692 7.24319 12.8812 7.24963 11.9995 7.24963V8.74963ZM16.7495 11.9996C16.7495 11.1179 16.756 10.53 16.6218 10.0291L15.1729 10.4173C15.2431 10.6794 15.2495 11.0214 15.2495 11.9996H16.7495ZM13.5819 8.8263C14.3583 9.03435 14.9648 9.64083 15.1729 10.4173L16.6218 10.0291C16.275 8.73496 15.2642 7.72416 13.9701 7.37741L13.5819 8.8263ZM11.9995 7.24963C11.1179 7.24963 10.5299 7.24319 10.029 7.37741L10.4172 8.8263C10.6793 8.75607 11.0213 8.74963 11.9995 8.74963V7.24963ZM8.74954 11.9996C8.74954 11.0214 8.75598 10.6794 8.82621 10.4173L7.37732 10.0291C7.2431 10.53 7.24954 11.1179 7.24954 11.9996H8.74954ZM10.029 7.37741C8.73487 7.72416 7.72407 8.73496 7.37732 10.0291L8.82621 10.4173C9.03426 9.64083 9.64074 9.03435 10.4172 8.8263L10.029 7.37741Z" fill="black"/>
</svg>
