<svg width="24" height="24" viewBox="0 0 24 24" fill="none" xmlns="http://www.w3.org/2000/svg">
<path d="M2.99995 11.9996C2.99995 8.2499 2.99995 6.37503 3.95487 5.06071C4.26327 4.63623 4.63655 4.26295 5.06103 3.95455C6.37535 2.99963 8.25022 2.99963 12 2.99963C15.7497 2.99963 17.6245 2.99963 18.9389 3.95455C19.3633 4.26295 19.7366 4.63623 20.045 5.06071C20.9999 6.37503 20.9999 8.2499 20.9999 11.9996C20.9999 15.7494 20.9999 17.6242 20.045 18.9386C19.7366 19.363 19.3633 19.7363 18.9389 20.0447C17.6245 20.9996 15.7497 20.9996 12 20.9996C8.25022 20.9996 6.37535 20.9996 5.06103 20.0447C4.63655 19.7363 4.26327 19.363 3.95487 18.9386C2.99995 17.6242 2.99995 15.7494 2.99995 11.9996Z" stroke="black" stroke-width="1.5"/>
</svg>
