<svg width="24" height="24" viewBox="0 0 24 24" fill="none" xmlns="http://www.w3.org/2000/svg">
<g clip-path="url(#clip0_0_1)">
<path d="M12.7499 0.999756C12.7499 0.585542 12.4141 0.249756 11.9999 0.249756C11.5856 0.249756 11.2499 0.585542 11.2499 0.999756H12.7499ZM11.2499 2.99976C11.2499 3.41397 11.5856 3.74975 11.9999 3.74975C12.4141 3.74975 12.7499 3.41397 12.7499 2.99976H11.2499ZM12.7499 20.9997C12.7499 20.5855 12.4141 20.2497 11.9999 20.2497C11.5856 20.2497 11.2499 20.5855 11.2499 20.9997H12.7499ZM11.2499 22.9997C11.2499 23.414 11.5856 23.7497 11.9999 23.7497C12.4141 23.7497 12.7499 23.414 12.7499 22.9997H11.2499ZM22.9999 12.7498C23.4141 12.7498 23.7499 12.414 23.7499 11.9998C23.7499 11.5855 23.4141 11.2498 22.9999 11.2498V12.7498ZM20.9999 11.2498C20.5856 11.2498 20.2499 11.5855 20.2499 11.9998C20.2499 12.414 20.5856 12.7498 20.9999 12.7498V11.2498ZM2.99986 12.7498C3.41408 12.7498 3.74986 12.414 3.74986 11.9998C3.74986 11.5855 3.41408 11.2498 2.99986 11.2498V12.7498ZM0.999863 11.2498C0.585649 11.2498 0.249863 11.5855 0.249863 11.9998C0.249863 12.414 0.585649 12.7498 0.999863 12.7498V11.2498ZM20.3084 4.75191C20.6013 4.45902 20.6013 3.98414 20.3084 3.69125C20.0155 3.39836 19.5406 3.39836 19.2477 3.69125L20.3084 4.75191ZM17.8335 5.10546C17.5406 5.39836 17.5406 5.87323 17.8335 6.16612C18.1264 6.45902 18.6013 6.45902 18.8941 6.16612L17.8335 5.10546ZM6.16623 18.894C6.45912 18.6011 6.45912 18.1263 6.16623 17.8334C5.87334 17.5405 5.39846 17.5405 5.10557 17.8334L6.16623 18.894ZM3.69136 19.2476C3.39846 19.5405 3.39846 20.0154 3.69136 20.3083C3.98425 20.6011 4.45912 20.6011 4.75202 20.3083L3.69136 19.2476ZM19.2477 20.3083C19.5406 20.6011 20.0155 20.6011 20.3084 20.3083C20.6013 20.0154 20.6013 19.5405 20.3084 19.2476L19.2477 20.3083ZM18.8941 17.8334C18.6013 17.5405 18.1264 17.5405 17.8335 17.8334C17.5406 18.1263 17.5406 18.6011 17.8335 18.894L18.8941 17.8334ZM5.10557 6.16612C5.39846 6.45902 5.87334 6.45902 6.16623 6.16612C6.45912 5.87323 6.45912 5.39836 6.16623 5.10546L5.10557 6.16612ZM4.75202 3.69125C4.45912 3.39836 3.98425 3.39836 3.69136 3.69125C3.39846 3.98414 3.39846 4.45902 3.69136 4.75191L4.75202 3.69125ZM17.2499 11.9998C17.2499 14.8992 14.8994 17.2498 11.9999 17.2498V18.7497C15.7278 18.7497 18.7499 15.7277 18.7499 11.9998H17.2499ZM11.9999 17.2498C9.10036 17.2498 6.74986 14.8992 6.74986 11.9998H5.24986C5.24986 15.7277 8.27194 18.7497 11.9999 18.7497V17.2498ZM6.74986 11.9998C6.74986 9.10026 9.10036 6.74975 11.9999 6.74975V5.24975C8.27194 5.24975 5.24986 8.27183 5.24986 11.9998H6.74986ZM11.9999 6.74975C14.8994 6.74975 17.2499 9.10026 17.2499 11.9998H18.7499C18.7499 8.27183 15.7278 5.24975 11.9999 5.24975V6.74975ZM11.2499 0.999756V2.99976H12.7499V0.999756H11.2499ZM11.2499 20.9997V22.9997H12.7499V20.9997H11.2499ZM22.9999 11.2498H20.9999V12.7498H22.9999V11.2498ZM2.99986 11.2498H0.999863V12.7498H2.99986V11.2498ZM19.2477 3.69125L17.8335 5.10546L18.8941 6.16612L20.3084 4.75191L19.2477 3.69125ZM5.10557 17.8334L3.69136 19.2476L4.75202 20.3083L6.16623 18.894L5.10557 17.8334ZM20.3084 19.2476L18.8941 17.8334L17.8335 18.894L19.2477 20.3083L20.3084 19.2476ZM6.16623 5.10546L4.75202 3.69125L3.69136 4.75191L5.10557 6.16612L6.16623 5.10546Z" fill="black"/>
</g>
<defs>
<clipPath id="clip0_0_1">
<rect width="24" height="24" fill="black" transform="translate(-0.000244141)"/>
</clipPath>
</defs>
</svg>
