<svg width="24" height="24" viewBox="0 0 24 24" fill="none" xmlns="http://www.w3.org/2000/svg">
<path d="M7.75024 4.99902C7.75024 4.58481 7.41445 4.24902 7.00024 4.24902C6.58603 4.24902 6.25024 4.58481 6.25024 4.99902L7.75024 4.99902ZM7.00024 17.999L7.75024 17.999L7.75024 17.999L7.00024 17.999ZM3.58793 14.5331C3.33058 14.2085 2.85884 14.154 2.53427 14.4113C2.20971 14.6687 2.15521 15.1404 2.41256 15.465L3.58793 14.5331ZM4.39809 16.762L3.81041 17.228L3.81041 17.228L4.39809 16.762ZM9.60239 16.762L9.01471 16.296L9.01471 16.296L9.60239 16.762ZM11.5879 15.465C11.8453 15.1404 11.7908 14.6687 11.4662 14.4113C11.1416 14.154 10.6699 14.2085 10.4126 14.533L11.5879 15.465ZM6.74958 18.9791L6.63157 19.7198L6.63157 19.7198L6.74958 18.9791ZM7.25091 18.9791L7.36891 19.7198L7.36892 19.7198L7.25091 18.9791ZM16.2502 17.999C16.2502 18.4132 16.586 18.749 17.0002 18.749C17.4145 18.749 17.7502 18.4132 17.7502 17.999L16.2502 17.999ZM17.0002 4.99902L16.2502 4.99902V4.99902L17.0002 4.99902ZM12.4126 7.53305C12.1552 7.85762 12.2097 8.32936 12.5343 8.58671C12.8588 8.84405 13.3306 8.78956 13.5879 8.46499L12.4126 7.53305ZM14.3981 6.23605L13.8104 5.77008L13.8104 5.77008L14.3981 6.23605ZM19.6024 6.23605L20.1901 5.77008L19.6024 6.23605ZM20.4126 8.46499C20.6699 8.78956 21.1416 8.84405 21.4662 8.58671C21.7908 8.32936 21.8453 7.85762 21.5879 7.53305L20.4126 8.46499ZM16.7496 4.01891L16.6316 3.27825L16.6316 3.27826L16.7496 4.01891ZM17.2509 4.01891L17.3689 3.27826L17.3689 3.27826L17.2509 4.01891ZM6.25024 4.99902L6.25024 17.999L7.75024 17.999L7.75024 4.99902L6.25024 4.99902ZM2.41256 15.465L3.81041 17.228L4.98577 16.296L3.58793 14.5331L2.41256 15.465ZM10.1901 17.228L11.5879 15.465L10.4126 14.533L9.01471 16.296L10.1901 17.228ZM3.81041 17.228C4.3564 17.9166 4.80499 18.4842 5.20576 18.8865C5.60987 19.2922 6.0584 19.6285 6.63157 19.7198L6.86758 18.2385C6.7614 18.2216 6.59157 18.1522 6.26846 17.8279C5.94201 17.5002 5.55453 17.0133 4.98577 16.296L3.81041 17.228ZM9.01471 16.296C8.44595 17.0133 8.05847 17.5002 7.73203 17.8279C7.40892 18.1522 7.23909 18.2216 7.1329 18.2385L7.36892 19.7198C7.94209 19.6285 8.39062 19.2922 8.79473 18.8865C9.1955 18.4842 9.64408 17.9166 10.1901 17.228L9.01471 16.296ZM17.7502 17.999L17.7502 4.99902L16.2502 4.99902L16.2502 17.999L17.7502 17.999ZM13.5879 8.46499L14.9858 6.70202L13.8104 5.77008L12.4126 7.53305L13.5879 8.46499ZM19.0147 6.70202L20.4126 8.46499L21.5879 7.53305L20.1901 5.77008L19.0147 6.70202ZM14.9858 6.70202C15.5545 5.9847 15.942 5.49786 16.2685 5.17015C16.5916 4.8458 16.7614 4.77649 16.8676 4.75957L16.6316 3.27826C16.0584 3.36958 15.6099 3.70587 15.2058 4.11154C14.805 4.51386 14.3564 5.08147 13.8104 5.77008L14.9858 6.70202ZM20.1901 5.77008C19.6441 5.08147 19.1955 4.51386 18.7947 4.11154C18.3906 3.70587 17.9421 3.36958 17.3689 3.27826L17.1329 4.75957C17.2391 4.77649 17.4089 4.8458 17.732 5.17015C18.0585 5.49787 18.4459 5.9847 19.0147 6.70202L20.1901 5.77008ZM16.8676 4.75957C16.9119 4.75251 16.9562 4.74902 17.0002 4.74902L17.0002 3.24902C16.8769 3.24902 16.7537 3.2588 16.6316 3.27825L16.8676 4.75957ZM17.0002 4.74902C17.0443 4.74902 17.0886 4.75251 17.1329 4.75957L17.3689 3.27826C17.2468 3.2588 17.1236 3.24902 17.0002 3.24902L17.0002 4.74902ZM17.7502 4.99902V3.99902H16.2502V4.99902H17.7502ZM6.63157 19.7198C6.75368 19.7392 6.87686 19.749 7.00024 19.749L7.00024 18.249C6.95619 18.249 6.91192 18.2455 6.86758 18.2385L6.63157 19.7198ZM7.00024 19.749C7.12363 19.749 7.24681 19.7392 7.36891 19.7198L7.1329 18.2385C7.08856 18.2455 7.0443 18.249 7.00024 18.249L7.00024 19.749ZM6.25024 17.999V18.999H7.75024V17.999H6.25024Z" fill="black"/>
</svg>
