<svg width="24" height="24" viewBox="0 0 24 24" fill="none" xmlns="http://www.w3.org/2000/svg">
<path d="M9.41636 7.66552C9.41636 7.25131 9.08057 6.91552 8.66636 6.91552C8.25215 6.91552 7.91636 7.25131 7.91636 7.66552L9.41636 7.66552ZM8.66636 16.3322L9.41636 16.3322L9.41636 16.3322L8.66636 16.3322ZM6.58738 13.8662C6.33003 13.5417 5.85829 13.4872 5.53372 13.7445C5.20916 14.0019 5.15466 14.4736 5.41201 14.7982L6.58738 13.8662ZM6.93159 15.5075L7.51927 15.0415L7.51927 15.0415L6.93159 15.5075ZM10.4011 15.5075L10.9888 15.9735L10.9888 15.9735L10.4011 15.5075ZM11.9207 14.7982C12.1781 14.4736 12.1236 14.0019 11.799 13.7445C11.4744 13.4872 11.0027 13.5417 10.7453 13.8662L11.9207 14.7982ZM8.49925 16.9856L8.38124 17.7263L8.38125 17.7263L8.49925 16.9856ZM8.83347 16.9856L8.71546 16.2449L8.71546 16.2449L8.83347 16.9856ZM14.5831 16.3324C14.5831 16.7466 14.9189 17.0824 15.3331 17.0824C15.7473 17.0824 16.0831 16.7466 16.0831 16.3324H14.5831ZM12.0788 9.19972C11.8214 9.52429 11.8759 9.99602 12.2005 10.2534C12.525 10.5107 12.9968 10.4562 13.2541 10.1317L12.0788 9.19972ZM13.5983 8.49038L13.0107 8.02441L13.0107 8.02441L13.5983 8.49038ZM17.0679 8.49038L17.6556 8.02441L17.6556 8.02441L17.0679 8.49038ZM17.4121 10.1317C17.6694 10.4562 18.1412 10.5107 18.4657 10.2534C18.7903 9.99602 18.8448 9.52429 18.5875 9.19972L17.4121 10.1317ZM15.166 7.01228L15.048 6.27162L15.048 6.27162L15.166 7.01228ZM15.5002 7.01228L15.6182 6.27162L15.6182 6.27162L15.5002 7.01228ZM5.06077 20.0441L5.50161 19.4373L5.06077 20.0441ZM3.95461 18.9379L4.56137 18.4971L3.95461 18.9379ZM20.0448 18.9379L19.438 18.4971L20.0448 18.9379ZM18.9386 20.0441L18.4978 19.4373L18.9386 20.0441ZM18.9386 3.95394L18.4978 4.5607L18.9386 3.95394ZM20.0448 5.0601L19.438 5.50094L20.0448 5.0601ZM5.06077 3.95394L5.50161 4.5607L5.06077 3.95394ZM3.95461 5.0601L4.56137 5.50094L3.95461 5.0601ZM8.66636 16.9989L8.66636 17.7489L8.66636 16.9989ZM7.91636 7.66552L7.91636 16.3322L9.41636 16.3322L9.41636 7.66552L7.91636 7.66552ZM5.41201 14.7982L6.34391 15.9735L7.51927 15.0415L6.58738 13.8662L5.41201 14.7982ZM10.9888 15.9735L11.9207 14.7982L10.7453 13.8662L9.81344 15.0415L10.9888 15.9735ZM6.34391 15.9735C6.70411 16.4278 7.01335 16.8196 7.29292 17.1003C7.57583 17.3843 7.9213 17.653 8.38124 17.7263L8.61726 16.2449C8.61593 16.2447 8.61275 16.2442 8.60615 16.2416C8.59908 16.2388 8.5856 16.2327 8.56479 16.2197C8.52045 16.1921 8.45353 16.14 8.35562 16.0417C8.15038 15.8356 7.90224 15.5245 7.51927 15.0415L6.34391 15.9735ZM9.81345 15.0415C9.43048 15.5245 9.18234 15.8356 8.9771 16.0417C8.87919 16.14 8.81227 16.1921 8.76792 16.2197C8.74712 16.2327 8.73364 16.2388 8.72657 16.2416C8.71997 16.2442 8.71679 16.2447 8.71546 16.2449L8.95148 17.7263C9.41142 17.653 9.7569 17.3843 10.0398 17.1003C10.3194 16.8196 10.6286 16.4278 10.9888 15.9735L9.81345 15.0415ZM16.0831 16.3324V7.66569H14.5831V16.3324H16.0831ZM13.2541 10.1317L14.186 8.95635L13.0107 8.02441L12.0788 9.19972L13.2541 10.1317ZM16.4802 8.95635L17.4121 10.1317L18.5875 9.19972L17.6556 8.02441L16.4802 8.95635ZM14.186 8.95635C14.569 8.47335 14.8171 8.16225 15.0224 7.95621C15.1203 7.85793 15.1872 7.80582 15.2315 7.77815C15.2523 7.76517 15.2658 7.75907 15.2729 7.7563C15.2795 7.75371 15.2827 7.75315 15.284 7.75294L15.048 6.27162C14.588 6.34491 14.2426 6.6136 13.9597 6.8976C13.6801 7.17825 13.3709 7.57012 13.0107 8.02441L14.186 8.95635ZM17.6556 8.02441C17.2954 7.57012 16.9861 7.17824 16.7065 6.8976C16.4236 6.6136 16.0782 6.34491 15.6182 6.27162L15.3822 7.75294C15.3835 7.75315 15.3867 7.75371 15.3933 7.7563C15.4004 7.75907 15.4139 7.76517 15.4347 7.77815C15.479 7.80582 15.5459 7.85793 15.6438 7.95621C15.8491 8.16225 16.0972 8.47334 16.4802 8.95635L17.6556 8.02441ZM11.9997 20.249C10.1081 20.249 8.74968 20.248 7.69774 20.134C6.65983 20.0216 6.00961 19.8064 5.50161 19.4373L4.61993 20.6509C5.42625 21.2367 6.37063 21.499 7.53617 21.6253C8.68767 21.75 10.1415 21.749 11.9997 21.749V20.249ZM2.2497 11.999C2.2497 13.8572 2.24867 15.311 2.37342 16.4625C2.4997 17.6281 2.76202 18.5725 3.34785 19.3788L4.56137 18.4971C4.19229 17.9891 3.97715 17.3389 3.8647 16.301C3.75072 15.249 3.74969 13.8906 3.74969 11.999H2.2497ZM5.50161 19.4373C5.1408 19.1752 4.82351 18.8579 4.56137 18.4971L3.34785 19.3788C3.7025 19.8669 4.13178 20.2962 4.61993 20.6509L5.50161 19.4373ZM20.2497 11.999C20.2497 13.8906 20.2487 15.249 20.1347 16.301C20.0222 17.3389 19.8071 17.9891 19.438 18.4971L20.6515 19.3788C21.2374 18.5725 21.4997 17.6281 21.626 16.4625C21.7507 15.311 21.7497 13.8572 21.7497 11.999H20.2497ZM11.9997 21.749C13.8579 21.749 15.3117 21.75 16.4632 21.6253C17.6287 21.499 18.5731 21.2367 19.3795 20.6509L18.4978 19.4373C17.9898 19.8064 17.3396 20.0216 16.3016 20.134C15.2497 20.248 13.8913 20.249 11.9997 20.249V21.749ZM19.438 18.4971C19.1759 18.8579 18.8586 19.1752 18.4978 19.4373L19.3795 20.6509C19.8676 20.2962 20.2969 19.8669 20.6515 19.3788L19.438 18.4971ZM11.9997 3.74902C13.8913 3.74902 15.2497 3.75005 16.3016 3.86402C17.3396 3.97647 17.9898 4.19161 18.4978 4.5607L19.3795 3.34718C18.5731 2.76135 17.6287 2.49903 16.4632 2.37275C15.3117 2.24799 13.8579 2.24902 11.9997 2.24902V3.74902ZM21.7497 11.999C21.7497 10.1409 21.7507 8.687 21.626 7.5355C21.4997 6.36996 21.2374 5.42558 20.6515 4.61926L19.438 5.50094C19.8071 6.00894 20.0222 6.65916 20.1347 7.69707C20.2487 8.74901 20.2497 10.1074 20.2497 11.999H21.7497ZM18.4978 4.5607C18.8586 4.82284 19.1759 5.14013 19.438 5.50094L20.6515 4.61926C20.2969 4.13111 19.8676 3.70183 19.3795 3.34718L18.4978 4.5607ZM11.9997 2.24902C10.1415 2.24902 8.68767 2.24799 7.53617 2.37275C6.37063 2.49903 5.42625 2.76135 4.61993 3.34718L5.50161 4.5607C6.00961 4.19161 6.65983 3.97647 7.69774 3.86402C8.74969 3.75005 10.1081 3.74902 11.9997 3.74902V2.24902ZM3.74969 11.999C3.74969 10.1074 3.75072 8.74901 3.8647 7.69707C3.97715 6.65916 4.19229 6.00894 4.56137 5.50094L3.34785 4.61926C2.76202 5.42558 2.4997 6.36996 2.37342 7.5355C2.24867 8.687 2.2497 10.1409 2.2497 11.999H3.74969ZM4.61993 3.34718C4.13178 3.70183 3.7025 4.13111 3.34785 4.61926L4.56137 5.50094C4.82351 5.14013 5.1408 4.82284 5.50161 4.5607L4.61993 3.34718ZM15.284 7.75294C15.3006 7.75029 15.317 7.74902 15.3331 7.74902L15.3331 6.24902C15.2376 6.24902 15.1424 6.25659 15.048 6.27162L15.284 7.75294ZM15.3331 7.74902C15.3493 7.74902 15.3656 7.75029 15.3822 7.75294L15.6182 6.27162C15.5239 6.25659 15.4286 6.24902 15.3331 6.24902L15.3331 7.74902ZM16.0831 7.66569V6.99902H14.5831V7.66569H16.0831ZM8.38125 17.7263C8.47561 17.7413 8.57088 17.7489 8.66636 17.7489L8.66636 16.2489C8.65021 16.2489 8.63385 16.2476 8.61725 16.2449L8.38125 17.7263ZM8.66636 17.7489C8.76184 17.7489 8.85711 17.7413 8.95148 17.7263L8.71546 16.2449C8.69887 16.2476 8.68251 16.2489 8.66636 16.2489L8.66636 17.7489ZM7.91636 16.3322V16.9989H9.41636V16.3322H7.91636Z" fill="black"/>
</svg>
