<svg width="24" height="24" viewBox="0 0 24 24" fill="none" xmlns="http://www.w3.org/2000/svg">
<path d="M10.8721 2.87493C12.7551 2.28121 13.6965 1.98435 14.5169 2.00064C16.2321 2.0347 17.8101 2.94576 18.6972 4.41418C19.1215 5.11646 19.3352 6.08025 19.7625 8.00782C19.9284 8.75645 20.0114 9.13076 20.0374 9.50123C20.091 10.2681 19.9671 11.0371 19.6753 11.7483C19.5343 12.0919 19.338 12.4212 18.9453 13.0798L16.4872 17.2027C15.5958 18.6976 15.1502 19.4451 14.6008 19.9449C13.3851 21.0511 11.7034 21.4891 10.1025 21.1165C9.37913 20.9481 8.62546 20.513 7.11812 19.6427C5.61078 18.7725 4.85711 18.3373 4.34962 17.7951C3.22652 16.595 2.76497 14.9196 3.11504 13.3136C3.27323 12.588 3.69774 11.8283 4.54676 10.3088L6.88817 6.11862C7.26221 5.44924 7.44923 5.11455 7.67629 4.82067C8.14633 4.21233 8.75031 3.72056 9.4413 3.3836C9.7751 3.22082 10.1408 3.10552 10.8721 2.87493Z" stroke="black" stroke-width="1.5"/>
<path d="M11.9072 7.58269C11.4238 8.41993 11.7107 9.49051 12.5479 9.9739C13.3852 10.4573 14.4558 10.1704 14.9391 9.33317C15.4225 8.49593 15.1357 7.42535 14.2984 6.94196C13.4612 6.45858 12.3906 6.74544 11.9072 7.58269Z" stroke="black" stroke-width="1.5"/>
</svg>
