<svg width="24" height="24" viewBox="0 0 24 24" fill="none" xmlns="http://www.w3.org/2000/svg">
<path d="M5.06078 20.045L5.50161 19.4382L5.06078 20.045ZM3.95462 18.9388L4.56138 18.498L3.95462 18.9388ZM20.0448 18.9388L19.438 18.498L20.0448 18.9388ZM18.9386 20.045L18.4978 19.4382L18.9386 20.045ZM18.9386 3.95479L18.4978 4.56155L18.9386 3.95479ZM20.0448 5.06095L19.438 5.50179L20.0448 5.06095ZM5.06078 3.95479L5.50161 4.56155L5.06078 3.95479ZM3.95462 5.06095L4.56138 5.50179L3.95462 5.06095ZM17.5585 9.50015C17.8348 9.19154 17.8086 8.71739 17.5 8.4411C17.1914 8.16481 16.7172 8.191 16.4409 8.4996L17.5585 9.50015ZM13.6305 12.7631L13.0718 12.2628L13.0718 12.2628L13.6305 12.7631ZM7.86887 12.763L8.42765 12.2628L8.42764 12.2628L7.86887 12.763ZM7.55847 11.292C7.28218 10.9834 6.80803 10.9572 6.49943 11.2335C6.19083 11.5098 6.16463 11.9839 6.44093 12.2925L7.55847 11.292ZM11.9997 20.2499C10.1081 20.2499 8.74969 20.2488 7.69775 20.1349C6.65983 20.0224 6.00962 19.8073 5.50161 19.4382L4.61994 20.6517C5.42626 21.2375 6.37064 21.4999 7.53618 21.6261C8.68768 21.7509 10.1415 21.7499 11.9997 21.7499V20.2499ZM2.2497 11.9999C2.2497 13.858 2.24867 15.3119 2.37343 16.4634C2.49971 17.6289 2.76203 18.5733 3.34785 19.3796L4.56138 18.498C4.19229 17.99 3.97715 17.3397 3.8647 16.3018C3.75073 15.2499 3.7497 13.8914 3.7497 11.9999H2.2497ZM5.50161 19.4382C5.14081 19.1761 4.82352 18.8588 4.56138 18.498L3.34785 19.3796C3.70251 19.8678 4.13179 20.2971 4.61994 20.6517L5.50161 19.4382ZM20.2497 11.9999C20.2497 13.8914 20.2487 15.2499 20.1347 16.3018C20.0222 17.3397 19.8071 17.99 19.438 18.498L20.6515 19.3796C21.2374 18.5733 21.4997 17.6289 21.626 16.4634C21.7507 15.3119 21.7497 13.858 21.7497 11.9999H20.2497ZM11.9997 21.7499C13.8579 21.7499 15.3117 21.7509 16.4632 21.6261C17.6288 21.4999 18.5731 21.2375 19.3795 20.6517L18.4978 19.4382C17.9898 19.8073 17.3396 20.0224 16.3017 20.1349C15.2497 20.2488 13.8913 20.2499 11.9997 20.2499V21.7499ZM19.438 18.498C19.1759 18.8588 18.8586 19.1761 18.4978 19.4382L19.3795 20.6517C19.8676 20.2971 20.2969 19.8678 20.6515 19.3796L19.438 18.498ZM11.9997 3.74988C13.8913 3.74988 15.2497 3.75091 16.3017 3.86488C17.3396 3.97733 17.9898 4.19247 18.4978 4.56155L19.3795 3.34803C18.5731 2.7622 17.6288 2.49988 16.4632 2.37361C15.3117 2.24885 13.8579 2.24988 11.9997 2.24988V3.74988ZM21.7497 11.9999C21.7497 10.1417 21.7507 8.68785 21.626 7.53635C21.4997 6.37082 21.2374 5.42644 20.6515 4.62011L19.438 5.50179C19.8071 6.00979 20.0222 6.66001 20.1347 7.69792C20.2487 8.74987 20.2497 10.1083 20.2497 11.9999H21.7497ZM18.4978 4.56155C18.8586 4.82369 19.1759 5.14099 19.438 5.50179L20.6515 4.62011C20.2969 4.13197 19.8676 3.70269 19.3795 3.34803L18.4978 4.56155ZM11.9997 2.24988C10.1415 2.24988 8.68768 2.24885 7.53618 2.37361C6.37064 2.49988 5.42626 2.7622 4.61994 3.34803L5.50161 4.56155C6.00962 4.19247 6.65983 3.97733 7.69775 3.86488C8.74969 3.75091 10.1081 3.74988 11.9997 3.74988V2.24988ZM3.7497 11.9999C3.7497 10.1083 3.75073 8.74987 3.8647 7.69792C3.97715 6.66001 4.19229 6.00979 4.56138 5.50179L3.34785 4.62011C2.76203 5.42644 2.49971 6.37082 2.37343 7.53635C2.24867 8.68785 2.2497 10.1417 2.2497 11.9999H3.7497ZM4.61994 3.34803C4.13179 3.70269 3.70251 4.13197 3.34785 4.62011L4.56138 5.50179C4.82352 5.14099 5.14081 4.82369 5.50161 4.56155L4.61994 3.34803ZM16.4409 8.4996L13.0718 12.2628L14.1893 13.2633L17.5585 9.50015L16.4409 8.4996ZM8.42764 12.2628L7.55847 11.292L6.44093 12.2925L7.3101 13.2633L8.42764 12.2628ZM13.0718 12.2628C12.3891 13.0253 11.9293 13.5361 11.5362 13.8665C11.1618 14.1813 10.9418 14.2499 10.7497 14.2499V15.7499C11.4358 15.7499 11.9887 15.4457 12.5013 15.0148C12.9954 14.5996 13.5369 13.992 14.1893 13.2633L13.0718 12.2628ZM7.3101 13.2633C7.96248 13.992 8.50404 14.5996 8.99805 15.0148C9.51069 15.4457 10.0636 15.7499 10.7497 15.7499V14.2499C10.5576 14.2499 10.3376 14.1813 9.96318 13.8665C9.5701 13.5361 9.11034 13.0253 8.42765 12.2628L7.3101 13.2633Z" fill="black"/>
</svg>
