<svg width="24" height="24" viewBox="0 0 24 24" fill="none" xmlns="http://www.w3.org/2000/svg">
<path d="M12.7498 8.24902C12.7498 7.83481 12.414 7.49902 11.9998 7.49902C11.5856 7.49902 11.2498 7.83481 11.2498 8.24902H12.7498ZM9.45407 14.8558C9.16992 15.1572 9.18389 15.6319 9.48528 15.916C9.78666 16.2002 10.2613 16.1862 10.5455 15.8848L9.45407 14.8558ZM2.53126 2.66337C2.20781 2.92213 2.15537 3.3941 2.41413 3.71754C2.67288 4.04099 3.14485 4.09343 3.4683 3.83467L2.53126 2.66337ZM5.9683 1.83467C6.29174 1.57592 6.34419 1.10395 6.08543 0.780502C5.82667 0.457056 5.3547 0.404615 5.03126 0.663372L5.9683 1.83467ZM20.5312 3.83467C20.8547 4.09343 21.3267 4.04099 21.5854 3.71754C21.8442 3.3941 21.7917 2.92213 21.4683 2.66337L20.5312 3.83467ZM18.9683 0.663372C18.6448 0.404615 18.1729 0.457056 17.9141 0.780502C17.6554 1.10395 17.7078 1.57592 18.0312 1.83467L18.9683 0.663372ZM11.2498 8.24902V12.4549H12.7498V8.24902H11.2498ZM10.5455 15.8848L12.0007 14.3413L10.9093 13.3124L9.45407 14.8558L10.5455 15.8848ZM3.4683 3.83467L5.9683 1.83467L5.03126 0.663372L2.53126 2.66337L3.4683 3.83467ZM21.4683 2.66337L18.9683 0.663372L18.0312 1.83467L20.5312 3.83467L21.4683 2.66337ZM21.2498 12.249C21.2498 17.3576 17.1084 21.499 11.9998 21.499V22.999C17.9368 22.999 22.7498 18.1861 22.7498 12.249H21.2498ZM11.9998 21.499C6.89114 21.499 2.74978 17.3576 2.74978 12.249H1.24978C1.24978 18.1861 6.06272 22.999 11.9998 22.999V21.499ZM2.74978 12.249C2.74978 7.14039 6.89114 2.99902 11.9998 2.99902V1.49902C6.06272 1.49902 1.24978 6.31196 1.24978 12.249H2.74978ZM11.9998 2.99902C17.1084 2.99902 21.2498 7.14039 21.2498 12.249H22.7498C22.7498 6.31196 17.9368 1.49902 11.9998 1.49902V2.99902ZM11.2498 12.4549C11.2498 12.7737 11.128 13.0804 10.9093 13.3124L12.0007 14.3413C12.4818 13.831 12.7498 13.1562 12.7498 12.4549H11.2498Z" fill="black"/>
</svg>
