<svg width="24" height="24" viewBox="0 0 24 24" fill="none" xmlns="http://www.w3.org/2000/svg">
<path d="M12.7496 7.99902C12.7496 7.58481 12.4139 7.24902 11.9996 7.24902C11.5854 7.24902 11.2496 7.58481 11.2496 7.99902L12.7496 7.99902ZM8.99965 12.249C8.58543 12.249 8.24965 12.5848 8.24965 12.999C8.24965 13.4132 8.58543 13.749 8.99965 13.749V12.249ZM2.53113 2.66337C2.20768 2.92213 2.15524 3.3941 2.414 3.71754C2.67275 4.04099 3.14472 4.09343 3.46817 3.83467L2.53113 2.66337ZM5.96817 1.83467C6.29161 1.57592 6.34406 1.10395 6.0853 0.780502C5.82654 0.457056 5.35457 0.404615 5.03113 0.663372L5.96817 1.83467ZM20.5311 3.83467C20.8546 4.09343 21.3265 4.04099 21.5853 3.71754C21.844 3.3941 21.7916 2.92213 21.4682 2.66337L20.5311 3.83467ZM18.9682 0.663372C18.6447 0.404615 18.1727 0.457056 17.914 0.780502C17.6552 1.10395 17.7077 1.57592 18.0311 1.83467L18.9682 0.663372ZM11.9996 11.499L11.2496 11.499L11.9996 11.499ZM11.2496 7.99902L11.2496 11.499L12.7496 11.499L12.7496 7.99902L11.2496 7.99902ZM21.2496 11.999C21.2496 17.1077 17.1083 21.249 11.9996 21.249V22.749C17.9367 22.749 22.7496 17.9361 22.7496 11.999H21.2496ZM11.9996 21.249C6.89101 21.249 2.74965 17.1077 2.74965 11.999H1.24965C1.24965 17.9361 6.06259 22.749 11.9996 22.749V21.249ZM2.74965 11.999C2.74965 6.89039 6.89101 2.74902 11.9996 2.74902V1.24902C6.06259 1.24902 1.24965 6.06196 1.24965 11.999H2.74965ZM11.9996 2.74902C17.1083 2.74902 21.2496 6.89039 21.2496 11.999H22.7496C22.7496 6.06196 17.9367 1.24902 11.9996 1.24902V2.74902ZM3.46817 3.83467L5.96817 1.83467L5.03113 0.663372L2.53113 2.66337L3.46817 3.83467ZM21.4682 2.66337L18.9682 0.663372L18.0311 1.83467L20.5311 3.83467L21.4682 2.66337ZM8.99965 13.749H10.4996V12.249H8.99965V13.749ZM11.2496 11.499C11.2496 11.9132 10.9139 12.249 10.4996 12.249V13.749C11.7423 13.749 12.7496 12.7417 12.7496 11.499L11.2496 11.499Z" fill="black"/>
</svg>
