<svg width="24" height="24" viewBox="0 0 24 24" fill="none" xmlns="http://www.w3.org/2000/svg">
<path d="M12.75 7.99902C12.75 7.58481 12.4142 7.24902 12 7.24902C11.5857 7.24902 11.25 7.58481 11.25 7.99902L12.75 7.99902ZM14.2231 15.1485C14.5818 15.3556 15.0405 15.2327 15.2476 14.874C15.4547 14.5153 15.3318 14.0566 14.9731 13.8495L14.2231 15.1485ZM2.53144 2.66337C2.208 2.92213 2.15556 3.3941 2.41431 3.71754C2.67307 4.04099 3.14504 4.09343 3.46849 3.83467L2.53144 2.66337ZM5.96849 1.83467C6.29193 1.57592 6.34437 1.10395 6.08562 0.780502C5.82686 0.457056 5.35489 0.404615 5.03144 0.663372L5.96849 1.83467ZM20.5314 3.83467C20.8549 4.09343 21.3269 4.04099 21.5856 3.71754C21.8444 3.3941 21.7919 2.92213 21.4685 2.66337L20.5314 3.83467ZM18.9685 0.663372C18.645 0.404615 18.1731 0.457056 17.9143 0.780502C17.6555 1.10395 17.708 1.57592 18.0314 1.83467L18.9685 0.663372ZM12.2679 12.8443L12.9174 12.4693L12.2679 12.8443ZM11.25 7.99902L11.25 10.6896L12.75 10.6896L12.75 7.99902L11.25 7.99902ZM14.9731 13.8495L14.375 13.5042L13.625 14.8032L14.2231 15.1485L14.9731 13.8495ZM21.25 11.999C21.25 17.1077 17.1086 21.249 12 21.249V22.749C17.937 22.749 22.75 17.9361 22.75 11.999H21.25ZM12 21.249C6.89133 21.249 2.74997 17.1077 2.74997 11.999H1.24997C1.24997 17.9361 6.0629 22.749 12 22.749V21.249ZM2.74997 11.999C2.74997 6.89039 6.89133 2.74902 12 2.74902V1.24902C6.0629 1.24902 1.24997 6.06196 1.24997 11.999H2.74997ZM12 2.74902C17.1086 2.74902 21.25 6.89039 21.25 11.999H22.75C22.75 6.06196 17.937 1.24902 12 1.24902V2.74902ZM3.46849 3.83467L5.96849 1.83467L5.03144 0.663372L2.53144 2.66337L3.46849 3.83467ZM21.4685 2.66337L18.9685 0.663372L18.0314 1.83467L20.5314 3.83467L21.4685 2.66337ZM11.25 10.6896C11.25 11.2385 11.2491 11.7042 11.2871 12.0891C11.3266 12.4906 11.4125 12.8626 11.6184 13.2193L12.9174 12.4693C12.8554 12.3619 12.8073 12.2201 12.7798 11.942C12.7508 11.6474 12.75 11.2677 12.75 10.6896L11.25 10.6896ZM14.375 13.5042C13.8743 13.2151 13.5459 13.0246 13.3053 12.8521C13.0781 12.6893 12.9794 12.5767 12.9174 12.4693L11.6184 13.2193C11.8243 13.576 12.1037 13.8364 12.4315 14.0713C12.7459 14.2967 13.1496 14.5288 13.625 14.8032L14.375 13.5042Z" fill="black"/>
</svg>
