<svg width="24" height="24" viewBox="0 0 24 24" fill="none" xmlns="http://www.w3.org/2000/svg">
<path d="M12.7495 7.99902C12.7495 7.58481 12.4138 7.24902 11.9995 7.24902C11.5853 7.24902 11.2495 7.58481 11.2495 7.99902L12.7495 7.99902ZM14.9995 13.749C15.4137 13.749 15.7495 13.4132 15.7495 12.999C15.7495 12.5848 15.4137 12.249 14.9995 12.249V13.749ZM2.53102 2.66337C2.20757 2.92213 2.15513 3.3941 2.41389 3.71754C2.67265 4.04099 3.14462 4.09343 3.46806 3.83467L2.53102 2.66337ZM5.96806 1.83467C6.29151 1.57592 6.34395 1.10395 6.08519 0.780502C5.82643 0.457056 5.35447 0.404615 5.03102 0.663372L5.96806 1.83467ZM20.531 3.83467C20.8545 4.09343 21.3264 4.04099 21.5852 3.71754C21.8439 3.3941 21.7915 2.92213 21.4681 2.66337L20.531 3.83467ZM18.9681 0.663372C18.6446 0.404615 18.1726 0.457056 17.9139 0.780502C17.6551 1.10395 17.7076 1.57592 18.031 1.83467L18.9681 0.663372ZM11.9995 11.499L12.7495 11.499L11.9995 11.499ZM11.2495 7.99902L11.2495 11.499L12.7495 11.499L12.7495 7.99902L11.2495 7.99902ZM21.2495 11.999C21.2495 17.1077 17.1082 21.249 11.9995 21.249V22.749C17.9366 22.749 22.7495 17.9361 22.7495 11.999H21.2495ZM11.9995 21.249C6.89091 21.249 2.74954 17.1077 2.74954 11.999H1.24954C1.24954 17.9361 6.06248 22.749 11.9995 22.749V21.249ZM2.74954 11.999C2.74954 6.89039 6.89091 2.74902 11.9995 2.74902V1.24902C6.06248 1.24902 1.24954 6.06196 1.24954 11.999H2.74954ZM11.9995 2.74902C17.1082 2.74902 21.2495 6.89039 21.2495 11.999H22.7495C22.7495 6.06196 17.9366 1.24902 11.9995 1.24902V2.74902ZM3.46806 3.83467L5.96806 1.83467L5.03102 0.663372L2.53102 2.66337L3.46806 3.83467ZM21.4681 2.66337L18.9681 0.663372L18.031 1.83467L20.531 3.83467L21.4681 2.66337ZM13.4995 13.749H14.9995V12.249H13.4995V13.749ZM11.2495 11.499C11.2495 12.7417 12.2569 13.749 13.4995 13.749V12.249C13.0853 12.249 12.7495 11.9132 12.7495 11.499L11.2495 11.499Z" fill="black"/>
</svg>
