<svg width="24" height="24" viewBox="0 0 24 24" fill="none" xmlns="http://www.w3.org/2000/svg">
<path d="M12.7497 6.99902C12.7497 6.58481 12.4139 6.24902 11.9997 6.24902C11.5855 6.24902 11.2497 6.58481 11.2497 6.99902H12.7497ZM14.6513 10.5294C14.9442 10.2365 14.9442 9.76159 14.6513 9.46869C14.3584 9.1758 13.8836 9.1758 13.5907 9.46869L14.6513 10.5294ZM2.53115 2.66337C2.2077 2.92213 2.15526 3.3941 2.41402 3.71754C2.67277 4.04099 3.14474 4.09343 3.46819 3.83467L2.53115 2.66337ZM5.96819 1.83467C6.29163 1.57592 6.34407 1.10395 6.08532 0.780502C5.82656 0.457056 5.35459 0.404615 5.03114 0.663372L5.96819 1.83467ZM20.5311 3.83467C20.8546 4.09343 21.3266 4.04099 21.5853 3.71754C21.8441 3.3941 21.7916 2.92213 21.4682 2.66337L20.5311 3.83467ZM18.9682 0.663372C18.6447 0.404615 18.1728 0.457056 17.914 0.780502C17.6553 1.10395 17.7077 1.57592 18.0311 1.83467L18.9682 0.663372ZM12.0855 12.0346L11.5551 11.5042L12.0855 12.0346ZM11.2497 6.99902V11.999H12.7497V6.99902H11.2497ZM13.5907 9.46869L11.5551 11.5042L12.6158 12.5649L14.6513 10.5294L13.5907 9.46869ZM21.2497 11.999C21.2497 17.1077 17.1083 21.249 11.9997 21.249V22.749C17.9367 22.749 22.7497 17.9361 22.7497 11.999H21.2497ZM11.9997 21.249C6.89103 21.249 2.74967 17.1077 2.74967 11.999H1.24967C1.24967 17.9361 6.0626 22.749 11.9997 22.749V21.249ZM2.74967 11.999C2.74967 6.89039 6.89103 2.74902 11.9997 2.74902V1.24902C6.0626 1.24902 1.24967 6.06196 1.24967 11.999H2.74967ZM11.9997 2.74902C17.1083 2.74902 21.2497 6.89039 21.2497 11.999H22.7497C22.7497 6.06196 17.9367 1.24902 11.9997 1.24902V2.74902ZM3.46819 3.83467L5.96819 1.83467L5.03114 0.663372L2.53115 2.66337L3.46819 3.83467ZM21.4682 2.66337L18.9682 0.663372L18.0311 1.83467L20.5311 3.83467L21.4682 2.66337ZM11.5551 11.5042C11.9959 11.0634 12.7496 11.3756 12.7497 11.9989L11.2497 11.9991C11.2498 12.712 12.1117 13.069 12.6158 12.5649L11.5551 11.5042Z" fill="black"/>
</svg>
