<svg width="24" height="24" viewBox="0 0 24 24" fill="none" xmlns="http://www.w3.org/2000/svg">
<path d="M12.7498 7.99902C12.7498 7.58481 12.414 7.24902 11.9998 7.24902C11.5856 7.24902 11.2498 7.58481 11.2498 7.99902L12.7498 7.99902ZM10.5301 10.4687C10.2372 10.1758 9.76235 10.1758 9.46945 10.4687C9.17656 10.7616 9.17656 11.2365 9.46945 11.5294L10.5301 10.4687ZM2.53126 2.66337C2.20782 2.92213 2.15538 3.3941 2.41413 3.71754C2.67289 4.04099 3.14486 4.09343 3.46831 3.83467L2.53126 2.66337ZM5.96831 1.83467C6.29175 1.57592 6.34419 1.10395 6.08544 0.780502C5.82668 0.457056 5.35471 0.404615 5.03126 0.663372L5.96831 1.83467ZM20.5313 3.83467C20.8547 4.09343 21.3267 4.04099 21.5854 3.71754C21.8442 3.3941 21.7917 2.92213 21.4683 2.66337L20.5313 3.83467ZM18.9683 0.663372C18.6449 0.404615 18.1729 0.457056 17.9141 0.780502C17.6554 1.10395 17.7078 1.57592 18.0313 1.83467L18.9683 0.663372ZM11.2498 7.99902L11.2498 12.2919L12.7498 12.2919L12.7498 7.99902L11.2498 7.99902ZM9.46945 11.5294L10.9695 13.0294L12.0301 11.9687L10.5301 10.4687L9.46945 11.5294ZM21.2498 11.999C21.2498 17.1077 17.1084 21.249 11.9998 21.249V22.749C17.9368 22.749 22.7498 17.9361 22.7498 11.999H21.2498ZM11.9998 21.249C6.89115 21.249 2.74979 17.1077 2.74979 11.999H1.24979C1.24979 17.9361 6.06272 22.749 11.9998 22.749V21.249ZM2.74979 11.999C2.74979 6.89039 6.89115 2.74902 11.9998 2.74902V1.24902C6.06272 1.24902 1.24979 6.06196 1.24979 11.999H2.74979ZM11.9998 2.74902C17.1084 2.74902 21.2498 6.89039 21.2498 11.999H22.7498C22.7498 6.06196 17.9368 1.24902 11.9998 1.24902V2.74902ZM3.46831 3.83467L5.96831 1.83467L5.03126 0.663372L2.53126 2.66337L3.46831 3.83467ZM21.4683 2.66337L18.9683 0.663372L18.0313 1.83467L20.5313 3.83467L21.4683 2.66337ZM11.2498 12.2919C11.2498 11.8847 11.7421 11.6807 12.0301 11.9687L10.9695 13.0294C11.6264 13.6863 12.7498 13.221 12.7498 12.2919L11.2498 12.2919Z" fill="black"/>
</svg>
