<svg width="24" height="24" viewBox="0 0 24 24" fill="none" xmlns="http://www.w3.org/2000/svg">
<path d="M4.4697 21.4694C4.17681 21.7623 4.17681 22.2372 4.4697 22.5301C4.76259 22.823 5.23747 22.823 5.53036 22.5301L4.4697 21.4694ZM7.00003 19.9998L6.47614 19.463L6.4697 19.4694L7.00003 19.9998ZM17 19.9998L16.4547 20.5147L16.4621 20.5225L16.4697 20.5301L17 19.9998ZM18.4697 22.5301C18.7626 22.823 19.2375 22.823 19.5304 22.5301C19.8232 22.2372 19.8232 21.7623 19.5304 21.4694L18.4697 22.5301ZM4.73008 19.4548L5.07057 18.7865L5.07057 18.7865L4.73008 19.4548ZM2.545 17.2697L3.21325 16.9292L2.545 17.2697ZM21.4551 17.2697L20.7868 16.9292L21.4551 17.2697ZM19.27 19.4548L18.9295 18.7865L18.9295 18.7865L19.27 19.4548ZM14 3.99975L14 3.24976L14 3.24976L14 3.99975ZM19.27 4.54472L18.9295 5.21298L19.27 4.54472ZM21.4551 6.7298L20.7868 7.07029L21.4551 6.7298ZM10 3.99975L10 3.24976H10V3.99975ZM4.73008 4.54472L5.07057 5.21298L4.73008 4.54472ZM2.545 6.7298L3.21325 7.07029L2.545 6.7298ZM12 3.99976L12 4.74975L12 4.74975L12 3.99976ZM15.5304 1.53009C15.8232 1.23719 15.8232 0.762319 15.5304 0.469426C15.2375 0.176533 14.7626 0.176533 14.4697 0.469426L15.5304 1.53009ZM9.53036 0.469426C9.23746 0.176533 8.76259 0.176533 8.4697 0.469426C8.1768 0.762319 8.1768 1.23719 8.4697 1.53009L9.53036 0.469426ZM7.04635 19.9545L7.0899 19.2058L7.04635 19.9545ZM5.53036 22.5301L7.53036 20.5301L6.4697 19.4694L4.4697 21.4694L5.53036 22.5301ZM16.4697 20.5301L18.4697 22.5301L19.5304 21.4694L17.5304 19.4694L16.4697 20.5301ZM14 19.2498H10V20.7497H14V19.2498ZM1.25003 11.9998C1.25003 13.3875 1.24945 14.4734 1.32064 15.3448C1.39255 16.225 1.54141 16.9521 1.87674 17.6102L3.21325 16.9292C3.00362 16.5178 2.87999 16.01 2.81566 15.2227C2.75061 14.4265 2.75003 13.4123 2.75003 11.9998H1.25003ZM5.07057 18.7865C4.27088 18.3791 3.62071 17.7289 3.21325 16.9292L1.87674 17.6102C2.42801 18.6921 3.30765 19.5718 4.38958 20.123L5.07057 18.7865ZM21.25 11.9998C21.25 13.4123 21.2494 14.4265 21.1844 15.2227C21.1201 16.01 20.9964 16.5178 20.7868 16.9292L22.1233 17.6102C22.4586 16.9521 22.6075 16.225 22.6794 15.3448C22.7506 14.4734 22.75 13.3875 22.75 11.9998H21.25ZM20.7868 16.9292C20.3793 17.7289 19.7292 18.3791 18.9295 18.7865L19.6105 20.123C20.6924 19.5718 21.572 18.6921 22.1233 17.6102L20.7868 16.9292ZM14 4.74975C15.4125 4.74975 16.4268 4.75034 17.2229 4.81538C18.0103 4.87972 18.5181 5.00334 18.9295 5.21298L19.6105 3.87647C18.9523 3.54113 18.2252 3.39228 17.3451 3.32037C16.4737 3.24917 15.3878 3.24976 14 3.24976V4.74975ZM22.75 11.9998C22.75 10.612 22.7506 9.52607 22.6794 8.65469C22.6075 7.77455 22.4586 7.04744 22.1233 6.38931L20.7868 7.07029C20.9964 7.48172 21.1201 7.98946 21.1844 8.77684C21.2494 9.57297 21.25 10.5872 21.25 11.9998H22.75ZM18.9295 5.21298C19.7292 5.62044 20.3793 6.27061 20.7868 7.07029L22.1233 6.38931C21.572 5.30738 20.6924 4.42774 19.6105 3.87647L18.9295 5.21298ZM10 3.24976C8.61227 3.24976 7.52635 3.24917 6.65496 3.32037C5.77482 3.39228 5.04771 3.54113 4.38958 3.87647L5.07057 5.21298C5.482 5.00334 5.98973 4.87972 6.77711 4.81538C7.57325 4.75034 8.58752 4.74975 10 4.74975V3.24976ZM2.75003 11.9998C2.75003 10.5872 2.75061 9.57297 2.81566 8.77684C2.87999 7.98946 3.00362 7.48172 3.21325 7.07029L1.87674 6.38931C1.54141 7.04744 1.39255 7.77455 1.32064 8.65469C1.24945 9.52607 1.25003 10.612 1.25003 11.9998H2.75003ZM4.38958 3.87647C3.30765 4.42774 2.42801 5.30738 1.87674 6.38931L3.21325 7.07029C3.62071 6.27061 4.27088 5.62044 5.07057 5.21298L4.38958 3.87647ZM12.5304 4.53009L15.5304 1.53009L14.4697 0.469426L11.4697 3.46943L12.5304 4.53009ZM12.5304 3.46943L9.53036 0.469426L8.4697 1.53009L11.4697 4.53009L12.5304 3.46943ZM10 4.74975L12 4.74975L12 3.24976L10 3.24976L10 4.74975ZM12 4.74975L14 4.74975L14 3.24976L12 3.24976L12 4.74975ZM10 19.2498C8.77049 19.2498 7.84057 19.2495 7.0899 19.2058L7.00281 20.7033C7.80689 20.75 8.78694 20.7497 10 20.7497V19.2498ZM7.0899 19.2058C6.12091 19.1494 5.53575 19.0236 5.07057 18.7865L4.38958 20.123C5.13055 20.5006 5.96175 20.6427 7.00281 20.7033L7.0899 19.2058ZM7.52388 20.5365L7.5702 20.4913L6.5225 19.4178L6.47618 19.463L7.52388 20.5365ZM14 20.7497C15.2149 20.7497 16.196 20.75 17.0008 20.7031L16.9134 19.2056C16.1622 19.2495 15.2314 19.2498 14 19.2498V20.7497ZM17.0008 20.7031C18.0402 20.6424 18.8703 20.5002 19.6105 20.123L18.9295 18.7865C18.4648 19.0233 17.8805 19.1492 16.9134 19.2056L17.0008 20.7031ZM17.5453 19.4848L17.5024 19.4394L16.4118 20.4693L16.4547 20.5147L17.5453 19.4848Z" fill="black"/>
</svg>
