<svg width="24" height="24" viewBox="0 0 24 24" fill="none" xmlns="http://www.w3.org/2000/svg">
<path d="M4.99943 8.99866L4.99943 9.74866H4.99943V8.99866ZM5.99943 18.2487C5.58522 18.2487 5.24944 18.5844 5.24944 18.9987C5.24944 19.4129 5.58522 19.7487 5.99943 19.7487V18.2487ZM6.67143 13.5313C6.96562 13.8229 7.44049 13.8208 7.73208 13.5266C8.02366 13.2324 8.02154 12.7575 7.72734 12.466L6.67143 13.5313ZM5.78901 11.6008L5.26105 12.1335L5.26105 12.1335L5.78901 11.6008ZM5.78901 6.3965L5.26105 5.86381L5.26105 5.86381L5.78901 6.3965ZM7.72734 5.53135C8.02154 5.23976 8.02366 4.7649 7.73208 4.4707C7.44049 4.1765 6.96562 4.17438 6.67143 4.46597L7.72734 5.53135ZM4.0153 9.24932L3.27132 9.34415L3.27132 9.34415L4.0153 9.24932ZM4.0153 8.74799L3.27132 8.65316L3.27132 8.65316L4.0153 8.74799ZM4.99943 9.74866H13.9994V8.24866H4.99943V9.74866ZM13.9994 18.2487H5.99943V19.7487H13.9994V18.2487ZM18.2494 13.9987C18.2494 16.3459 16.3466 18.2487 13.9994 18.2487V19.7487C17.1751 19.7487 19.7494 17.1743 19.7494 13.9987H18.2494ZM13.9994 9.74866C16.3466 9.74866 18.2494 11.6514 18.2494 13.9987H19.7494C19.7494 10.823 17.1751 8.24866 13.9994 8.24866V9.74866ZM7.72734 12.466L6.31697 11.0681L5.26105 12.1335L6.67143 13.5313L7.72734 12.466ZM6.31697 6.92919L7.72734 5.53135L6.67143 4.46597L5.26105 5.86381L6.31697 6.92919ZM6.31697 11.0681C5.74207 10.4983 5.35671 10.1148 5.09761 9.79217C4.84802 9.48137 4.77791 9.30065 4.75928 9.15449L3.27132 9.34415C3.33928 9.87734 3.59365 10.315 3.92808 10.7314C4.253 11.136 4.7112 11.5885 5.26105 12.1335L6.31697 11.0681ZM5.26105 5.86381C4.71121 6.40877 4.253 6.86131 3.92808 7.2659C3.59365 7.68232 3.33928 8.11997 3.27132 8.65316L4.75928 8.84282C4.77791 8.69666 4.84802 8.51594 5.09761 8.20514C5.35671 7.88252 5.74207 7.49899 6.31697 6.92919L5.26105 5.86381ZM4.75928 9.15449C4.75268 9.10275 4.74939 9.0507 4.74939 8.99866L3.24939 8.99866C3.24939 9.11405 3.2567 9.22945 3.27132 9.34415L4.75928 9.15449ZM4.74939 8.99866C4.74939 8.94661 4.75268 8.89456 4.75928 8.84282L3.27132 8.65316C3.2567 8.76786 3.24939 8.88326 3.24939 8.99866L4.74939 8.99866ZM4.99944 8.24866L3.99939 8.24866L3.99938 9.74866L4.99943 9.74866L4.99944 8.24866Z" fill="black"/>
</svg>
