<svg width="24" height="25" viewBox="0 0 24 25" fill="none" xmlns="http://www.w3.org/2000/svg">
<path d="M6.4545 22.7544L6.68626 22.0411L6.4545 22.7544ZM3.24431 19.5442L3.9576 19.3125L3.24431 19.5442ZM20.7549 19.5442L20.0416 19.3125L20.7549 19.5442ZM17.5447 22.7544L17.3129 22.0411L17.5447 22.7544ZM17.5447 9.24386L17.3129 9.95715L17.5447 9.24386ZM20.7549 12.4541L20.0416 12.6858L20.7549 12.4541ZM6.4545 9.24386L6.68626 9.95715L6.4545 9.24386ZM3.24431 12.4541L3.9576 12.6858L3.24431 12.4541ZM14.5496 4.59876C14.8807 4.84757 15.3509 4.78081 15.5997 4.44965C15.8485 4.11849 15.7817 3.64833 15.4506 3.39953L14.5496 4.59876ZM9.99959 9.74914H13.9996V8.24914H9.99959V9.74914ZM13.9996 22.2491H9.99959V23.7491H13.9996V22.2491ZM9.99959 22.2491C8.07993 22.2491 7.29797 22.2399 6.68626 22.0411L6.22274 23.4677C7.11735 23.7584 8.19668 23.7491 9.99959 23.7491V22.2491ZM2.24959 15.9991C2.24959 17.802 2.24034 18.8814 2.53101 19.776L3.9576 19.3125C3.75884 18.7007 3.74959 17.9188 3.74959 15.9991H2.24959ZM6.68626 22.0411C5.3924 21.6207 4.378 20.6063 3.9576 19.3125L2.53101 19.776C3.09979 21.5265 4.47222 22.8989 6.22274 23.4677L6.68626 22.0411ZM20.2496 15.9991C20.2496 17.9188 20.2403 18.7007 20.0416 19.3125L21.4682 19.776C21.7588 18.8814 21.7496 17.802 21.7496 15.9991H20.2496ZM13.9996 23.7491C15.8025 23.7491 16.8818 23.7584 17.7764 23.4677L17.3129 22.0411C16.7012 22.2399 15.9192 22.2491 13.9996 22.2491V23.7491ZM20.0416 19.3125C19.6212 20.6063 18.6068 21.6207 17.3129 22.0411L17.7764 23.4677C19.5269 22.8989 20.8994 21.5265 21.4682 19.776L20.0416 19.3125ZM13.9996 9.74914C15.9192 9.74914 16.7012 9.7584 17.3129 9.95715L17.7764 8.53057C16.8818 8.23989 15.8025 8.24914 13.9996 8.24914V9.74914ZM21.7496 15.9991C21.7496 14.1962 21.7588 13.1169 21.4682 12.2223L20.0416 12.6858C20.2403 13.2975 20.2496 14.0795 20.2496 15.9991H21.7496ZM17.3129 9.95715C18.6068 10.3776 19.6212 11.392 20.0416 12.6858L21.4682 12.2223C20.8994 10.4718 19.5269 9.09935 17.7764 8.53057L17.3129 9.95715ZM3.74959 15.9991C3.74959 14.0795 3.75884 13.2975 3.9576 12.6858L2.53101 12.2223C2.24034 13.1169 2.24959 14.1962 2.24959 15.9991H3.74959ZM6.22274 8.53057C4.47222 9.09935 3.09979 10.4718 2.53101 12.2223L3.9576 12.6858C4.378 11.392 5.3924 10.3776 6.68626 9.95715L6.22274 8.53057ZM7.74959 8.99914V7.99914H6.24959V8.99914H7.74959ZM11.9996 2.24915C8.82395 2.24915 6.24959 4.82351 6.24959 7.99914H7.74959C7.74959 5.65193 9.65238 3.74915 11.9996 3.74915V2.24915ZM11.9996 3.74915C12.9574 3.74915 13.8393 4.06509 14.5496 4.59876L15.4506 3.39953C14.4894 2.67738 13.2934 2.24915 11.9996 2.24915V3.74915ZM9.24959 15.9991C9.24959 17.5179 10.4808 18.7491 11.9996 18.7491V17.2491C11.3092 17.2491 10.7496 16.6895 10.7496 15.9991H9.24959ZM11.9996 18.7491C13.5184 18.7491 14.7496 17.5179 14.7496 15.9991H13.2496C13.2496 16.6895 12.6899 17.2491 11.9996 17.2491V18.7491ZM14.7496 15.9991C14.7496 14.4804 13.5184 13.2491 11.9996 13.2491V14.7491C12.6899 14.7491 13.2496 15.3088 13.2496 15.9991H14.7496ZM11.9996 13.2491C10.4808 13.2491 9.24959 14.4804 9.24959 15.9991H10.7496C10.7496 15.3088 11.3092 14.7491 11.9996 14.7491V13.2491ZM9.99959 8.24914C8.58811 8.24914 7.62738 8.24653 6.87499 8.37328L7.12418 9.85244C7.72178 9.75176 8.52773 9.74914 9.99959 9.74914V8.24914ZM6.87499 8.37328C6.6473 8.41164 6.43216 8.46252 6.22274 8.53057L6.68626 9.95715C6.81644 9.91486 6.95893 9.88028 7.12418 9.85244L6.87499 8.37328ZM6.24959 8.99914V9.11286H7.74959V8.99914H6.24959Z" fill="black"/>
</svg>
