<svg width="24" height="24" viewBox="0 0 24 24" fill="none" xmlns="http://www.w3.org/2000/svg">
<path d="M6.45516 21.7544L6.68692 21.0411L6.45516 21.7544ZM3.24496 18.5442L3.95825 18.3124L3.24496 18.5442ZM20.7555 18.5442L20.0422 18.3124L20.7555 18.5442ZM17.5453 21.7544L17.3136 21.0411L17.5453 21.7544ZM17.5453 8.2438L17.3136 8.95709L17.5453 8.2438ZM20.7555 11.454L20.0422 11.6858L20.7555 11.454ZM6.45516 8.2438L6.68692 8.95709L6.45516 8.2438ZM3.24496 11.454L3.95825 11.6858L3.24496 11.454ZM14.5502 3.5987C14.8814 3.84751 15.3515 3.78075 15.6003 3.44959C15.8492 3.11843 15.7824 2.64827 15.4512 2.39946L14.5502 3.5987ZM11.2502 18.9991C11.2502 19.4133 11.586 19.7491 12.0002 19.7491C12.4145 19.7491 12.7502 19.4133 12.7502 18.9991H11.2502ZM10.0002 8.74908H14.0002V7.24908H10.0002V8.74908ZM14.0002 21.2491H10.0002V22.7491H14.0002V21.2491ZM10.0002 21.2491C8.08059 21.2491 7.29863 21.2398 6.68692 21.0411L6.2234 22.4677C7.11801 22.7583 8.19734 22.7491 10.0002 22.7491V21.2491ZM2.25024 14.9991C2.25024 16.802 2.24099 17.8813 2.53167 18.7759L3.95825 18.3124C3.7595 17.7007 3.75024 16.9187 3.75024 14.9991H2.25024ZM6.68692 21.0411C5.39306 20.6207 4.37865 19.6063 3.95825 18.3124L2.53167 18.7759C3.10045 20.5264 4.47288 21.8989 6.2234 22.4677L6.68692 21.0411ZM20.2502 14.9991C20.2502 16.9187 20.241 17.7007 20.0422 18.3124L21.4688 18.7759C21.7595 17.8813 21.7502 16.802 21.7502 14.9991H20.2502ZM14.0002 22.7491C15.8031 22.7491 16.8825 22.7583 17.7771 22.4677L17.3136 21.0411C16.7019 21.2398 15.9199 21.2491 14.0002 21.2491V22.7491ZM20.0422 18.3124C19.6218 19.6063 18.6074 20.6207 17.3136 21.0411L17.7771 22.4677C19.5276 21.8989 20.9 20.5264 21.4688 18.7759L20.0422 18.3124ZM14.0002 8.74908C15.9199 8.74908 16.7019 8.75833 17.3136 8.95709L17.7771 7.53051C16.8825 7.23983 15.8031 7.24908 14.0002 7.24908V8.74908ZM21.7502 14.9991C21.7502 13.1962 21.7595 12.1168 21.4688 11.2222L20.0422 11.6858C20.241 12.2975 20.2502 13.0794 20.2502 14.9991H21.7502ZM17.3136 8.95709C18.6074 9.37749 19.6218 10.3919 20.0422 11.6858L21.4688 11.2222C20.9 9.47171 19.5276 8.09928 17.7771 7.53051L17.3136 8.95709ZM3.75024 14.9991C3.75024 13.0794 3.7595 12.2975 3.95825 11.6858L2.53167 11.2222C2.24099 12.1168 2.25024 13.1962 2.25024 14.9991H3.75024ZM6.2234 7.53051C4.47288 8.09928 3.10045 9.47171 2.53167 11.2222L3.95825 11.6858C4.37865 10.3919 5.39306 9.37749 6.68692 8.95709L6.2234 7.53051ZM12.0002 1.24908C8.8246 1.24908 6.25024 3.82345 6.25024 6.99908H7.75024C7.75024 4.65187 9.65303 2.74908 12.0002 2.74908V1.24908ZM12.0002 2.74908C12.9581 2.74908 13.8399 3.06503 14.5502 3.5987L15.4512 2.39946C14.4901 1.67732 13.2941 1.24908 12.0002 1.24908V2.74908ZM10.0002 7.24908C8.58877 7.24908 7.62804 7.24647 6.87565 7.37322L7.12484 8.85238C7.72244 8.7517 8.52839 8.74908 10.0002 8.74908V7.24908ZM6.87565 7.37322C6.64796 7.41158 6.43282 7.46246 6.2234 7.53051L6.68692 8.95709C6.81709 8.9148 6.95959 8.88021 7.12484 8.85238L6.87565 7.37322ZM7.75024 8.1128V6.99908H6.25024V8.1128H7.75024ZM11.2502 14.9991V18.9991H12.7502V14.9991H11.2502ZM9.25024 12.9991C9.25024 14.5179 10.4815 15.7491 12.0002 15.7491V14.2491C11.3099 14.2491 10.7502 13.6894 10.7502 12.9991H9.25024ZM12.0002 15.7491C13.519 15.7491 14.7502 14.5179 14.7502 12.9991H13.2502C13.2502 13.6894 12.6906 14.2491 12.0002 14.2491V15.7491ZM14.7502 12.9991C14.7502 11.4803 13.519 10.2491 12.0002 10.2491V11.7491C12.6906 11.7491 13.2502 12.3087 13.2502 12.9991H14.7502ZM12.0002 10.2491C10.4815 10.2491 9.25024 11.4803 9.25024 12.9991H10.7502C10.7502 12.3087 11.3099 11.7491 12.0002 11.7491V10.2491Z" fill="black"/>
</svg>
