<svg width="24" height="25" viewBox="0 0 24 25" fill="none" xmlns="http://www.w3.org/2000/svg">
<path d="M6.45436 22.7544L6.68613 22.0411L6.45436 22.7544ZM3.24417 19.5442L3.95746 19.3125L3.24417 19.5442ZM20.7547 19.5442L20.0414 19.3125L20.7547 19.5442ZM17.5445 22.7544L17.3128 22.0411L17.5445 22.7544ZM17.5445 9.24386L17.3128 9.95715L17.5445 9.24386ZM20.7547 12.4541L20.0414 12.6858L20.7547 12.4541ZM6.45436 9.24386L6.68613 9.95715L6.45436 9.24386ZM3.24417 12.4541L3.95746 12.6858L3.24417 12.4541ZM14.5494 4.59876C14.8806 4.84757 15.3507 4.78081 15.5996 4.44965C15.8484 4.11849 15.7816 3.64833 15.4504 3.39953L14.5494 4.59876ZM12.7494 13.9991C12.7494 13.5849 12.4137 13.2491 11.9994 13.2491C11.5852 13.2491 11.2494 13.5849 11.2494 13.9991H12.7494ZM11.2494 17.9991C11.2494 18.4134 11.5852 18.7491 11.9994 18.7491C12.4137 18.7491 12.7494 18.4134 12.7494 17.9991H11.2494ZM9.99945 9.74914H13.9994V8.24914H9.99945V9.74914ZM13.9994 22.2491H9.99945V23.7491H13.9994V22.2491ZM9.99945 22.2491C8.07979 22.2491 7.29784 22.2399 6.68613 22.0411L6.2226 23.4677C7.11722 23.7584 8.19654 23.7491 9.99945 23.7491V22.2491ZM2.24945 15.9991C2.24945 17.802 2.2402 18.8814 2.53088 19.776L3.95746 19.3125C3.7587 18.7007 3.74945 17.9188 3.74945 15.9991H2.24945ZM6.68613 22.0411C5.39227 21.6207 4.37786 20.6063 3.95746 19.3125L2.53088 19.776C3.09965 21.5265 4.47208 22.8989 6.2226 23.4677L6.68613 22.0411ZM20.2494 15.9991C20.2494 17.9188 20.2402 18.7007 20.0414 19.3125L21.468 19.776C21.7587 18.8814 21.7494 17.802 21.7494 15.9991H20.2494ZM13.9994 23.7491C15.8024 23.7491 16.8817 23.7584 17.7763 23.4677L17.3128 22.0411C16.7011 22.2399 15.9191 22.2491 13.9994 22.2491V23.7491ZM20.0414 19.3125C19.621 20.6063 18.6066 21.6207 17.3128 22.0411L17.7763 23.4677C19.5268 22.8989 20.8992 21.5265 21.468 19.776L20.0414 19.3125ZM13.9994 9.74914C15.9191 9.74914 16.7011 9.7584 17.3128 9.95715L17.7763 8.53057C16.8817 8.23989 15.8024 8.24914 13.9994 8.24914V9.74914ZM21.7494 15.9991C21.7494 14.1962 21.7587 13.1169 21.468 12.2223L20.0414 12.6858C20.2402 13.2975 20.2494 14.0795 20.2494 15.9991H21.7494ZM17.3128 9.95715C18.6066 10.3776 19.621 11.392 20.0414 12.6858L21.468 12.2223C20.8992 10.4718 19.5268 9.09935 17.7763 8.53057L17.3128 9.95715ZM3.74945 15.9991C3.74945 14.0795 3.7587 13.2975 3.95746 12.6858L2.53088 12.2223C2.2402 13.1169 2.24945 14.1962 2.24945 15.9991H3.74945ZM6.2226 8.53057C4.47208 9.09935 3.09965 10.4718 2.53088 12.2223L3.95746 12.6858C4.37786 11.392 5.39227 10.3776 6.68613 9.95715L6.2226 8.53057ZM7.74945 8.99914V7.99914H6.24945V8.99914H7.74945ZM11.9994 2.24915C8.82381 2.24915 6.24945 4.82351 6.24945 7.99914H7.74945C7.74945 5.65193 9.65224 3.74915 11.9994 3.74915V2.24915ZM11.9994 3.74915C12.9573 3.74915 13.8391 4.06509 14.5494 4.59876L15.4504 3.39953C14.4893 2.67738 13.2933 2.24915 11.9994 2.24915V3.74915ZM11.2494 13.9991V17.9991H12.7494V13.9991H11.2494ZM9.99945 8.24914C8.58798 8.24914 7.62725 8.24653 6.87485 8.37328L7.12404 9.85244C7.72165 9.75176 8.5276 9.74914 9.99945 9.74914V8.24914ZM6.87485 8.37328C6.64716 8.41164 6.43202 8.46252 6.2226 8.53057L6.68613 9.95715C6.8163 9.91486 6.9588 9.88028 7.12404 9.85244L6.87485 8.37328ZM6.24945 8.99914V9.11286H7.74945V8.99914H6.24945Z" fill="black"/>
</svg>
