<svg width="24" height="24" viewBox="0 0 24 24" fill="none" xmlns="http://www.w3.org/2000/svg">
<path d="M11.2495 19.9991C11.2495 20.4134 11.5853 20.7491 11.9995 20.7491C12.4137 20.7491 12.7495 20.4134 12.7495 19.9991L11.2495 19.9991ZM12.7495 3.99915C12.7495 3.58493 12.4137 3.24915 11.9995 3.24915C11.5853 3.24915 11.2495 3.58493 11.2495 3.99915L12.7495 3.99915ZM6.46682 7.47119C6.17524 7.76538 6.17736 8.24025 6.47155 8.53183C6.76575 8.82342 7.24062 8.8213 7.5322 8.5271L6.46682 7.47119ZM8.74682 6.23618L8.21413 5.70822L8.74682 6.23618ZM15.2522 6.23618L14.7195 6.76413L14.7195 6.76413L15.2522 6.23618ZM16.4668 8.5271C16.7584 8.8213 17.2333 8.82342 17.5275 8.53184C17.8217 8.24025 17.8238 7.76538 17.5322 7.47119L16.4668 8.5271ZM11.6862 4.01904L11.5913 3.27505L11.5913 3.27505L11.6862 4.01904ZM12.3128 4.01904L12.4077 3.27505L12.4077 3.27505L12.3128 4.01904ZM12.7495 19.9991L12.7495 3.99915L11.2495 3.99915L11.2495 19.9991L12.7495 19.9991ZM7.5322 8.5271L9.27951 6.76413L8.21413 5.70822L6.46682 7.47119L7.5322 8.5271ZM14.7195 6.76413L16.4668 8.5271L17.5322 7.47119L15.7849 5.70822L14.7195 6.76413ZM9.27951 6.76413C9.98865 6.04864 10.4767 5.55784 10.8902 5.22574C11.2919 4.90314 11.5499 4.79247 11.781 4.76302L11.5913 3.27505C10.9732 3.35384 10.4583 3.64877 9.95097 4.0562C9.45548 4.45413 8.89844 5.01778 8.21413 5.70822L9.27951 6.76413ZM15.7849 5.70822C15.1006 5.01778 14.5435 4.45413 14.048 4.0562C13.5407 3.64877 13.0258 3.35384 12.4077 3.27505L12.218 4.76302C12.4491 4.79247 12.7071 4.90314 13.1088 5.22574C13.5223 5.55784 14.0104 6.04864 14.7195 6.76413L15.7849 5.70822ZM11.781 4.76302C11.9261 4.74452 12.0729 4.74452 12.218 4.76302L12.4077 3.27505C12.1366 3.24051 11.8624 3.24051 11.5913 3.27505L11.781 4.76302Z" fill="black"/>
</svg>
