<svg width="24" height="25" viewBox="0 0 24 25" fill="none" xmlns="http://www.w3.org/2000/svg">
<path d="M11.25 22.9988C11.25 23.413 11.5857 23.7488 12 23.7488C12.4142 23.7488 12.75 23.413 12.75 22.9988L11.25 22.9988ZM12.75 11.9988C12.75 11.5846 12.4142 11.2488 12 11.2488C11.5857 11.2488 11.25 11.5846 11.25 11.9988L12.75 11.9988ZM9.1353 11.9987L9.1353 12.7487L9.1353 11.9987ZM7.55049 8.77876L6.95619 8.32126L6.95619 8.32126L7.55049 8.77876ZM16.4494 8.77876L17.0437 8.32126L16.4494 8.77876ZM14.8646 11.9987L14.8646 11.2487L14.8646 11.9987ZM13.5848 5.05748L12.9905 5.51497L13.5848 5.05748ZM10.4151 5.05748L11.0094 5.51497L10.4151 5.05748ZM12.75 22.9988L12.75 11.9988L11.25 11.9988L11.25 22.9988L12.75 22.9988ZM12.9905 5.51497L15.8551 9.23625L17.0437 8.32126L14.1791 4.59998L12.9905 5.51497ZM14.8646 11.2487L9.1353 11.2487L9.1353 12.7487L14.8646 12.7487L14.8646 11.2487ZM8.1448 9.23625L11.0094 5.51497L9.82083 4.59998L6.95619 8.32126L8.1448 9.23625ZM9.1353 11.2487C8.09801 11.2487 7.51205 10.0582 8.1448 9.23625L6.95619 8.32126C5.56415 10.1296 6.85325 12.7487 9.1353 12.7487L9.1353 11.2487ZM15.8551 9.23625C16.4878 10.0582 15.9019 11.2487 14.8646 11.2487L14.8646 12.7487C17.1466 12.7487 18.4358 10.1296 17.0437 8.32126L15.8551 9.23625ZM14.1791 4.59998C13.0782 3.16996 10.9217 3.16996 9.82083 4.59998L11.0094 5.51497C11.5098 4.86496 12.4901 4.86496 12.9905 5.51497L14.1791 4.59998Z" fill="black"/>
</svg>
