<svg width="24" height="24" viewBox="0 0 24 24" fill="none" xmlns="http://www.w3.org/2000/svg">
<path d="M11.2501 15.9989C11.2501 16.4131 11.5859 16.7489 12.0001 16.7489C12.4143 16.7489 12.7501 16.4131 12.7501 15.9989H11.2501ZM7.46743 10.6709C7.17585 10.9651 7.17796 11.44 7.47216 11.7316C7.76636 12.0232 8.24123 12.0211 8.53281 11.7269L7.46743 10.6709ZM9.39797 9.78852L9.93066 10.3165L9.93066 10.3165L9.39797 9.78852ZM14.6023 9.78852L15.135 9.26056L15.135 9.26056L14.6023 9.78852ZM15.4674 11.7269C15.759 12.0211 16.2339 12.0232 16.5281 11.7316C16.8223 11.44 16.8244 10.9651 16.5328 10.6709L15.4674 11.7269ZM11.7495 8.01481L11.6546 7.27083L11.6546 7.27083L11.7495 8.01481ZM12.2508 8.01481L12.3456 7.27083L12.3456 7.27083L12.2508 8.01481ZM12.7501 8.01481C12.7501 7.6006 12.4143 7.26481 12.0001 7.26481C11.5859 7.26481 11.2501 7.6006 11.2501 8.01481H12.7501ZM21.2501 11.9989C21.2501 17.1075 17.1087 21.2489 12.0001 21.2489V22.7489C17.9372 22.7489 22.7501 17.936 22.7501 11.9989H21.2501ZM12.0001 21.2489C6.89149 21.2489 2.75012 17.1075 2.75012 11.9989H1.25012C1.25012 17.936 6.06306 22.7489 12.0001 22.7489V21.2489ZM2.75012 11.9989C2.75012 6.89026 6.89149 2.7489 12.0001 2.7489V1.2489C6.06306 1.2489 1.25012 6.06184 1.25012 11.9989H2.75012ZM12.0001 2.7489C17.1087 2.7489 21.2501 6.89026 21.2501 11.9989H22.7501C22.7501 6.06184 17.9372 1.2489 12.0001 1.2489V2.7489ZM12.7501 15.9989V8.7989H11.2501V15.9989H12.7501ZM8.53281 11.7269L9.93066 10.3165L8.86527 9.26056L7.46743 10.6709L8.53281 11.7269ZM14.0696 10.3165L15.4674 11.7269L16.5328 10.6709L15.135 9.26056L14.0696 10.3165ZM9.93066 10.3165C10.5004 9.74158 10.884 9.35622 11.2066 9.09713C11.5174 8.84753 11.6981 8.77742 11.8443 8.75879L11.6546 7.27083C11.1214 7.33879 10.6838 7.59316 10.2674 7.92759C9.86277 8.25251 9.41024 8.71072 8.86527 9.26056L9.93066 10.3165ZM15.135 9.26056C14.59 8.71072 14.1375 8.25251 13.7329 7.92759C13.3165 7.59316 12.8788 7.33879 12.3456 7.27083L12.156 8.75879C12.3021 8.77742 12.4828 8.84753 12.7936 9.09713C13.1163 9.35623 13.4998 9.74158 14.0696 10.3165L15.135 9.26056ZM11.8443 8.75879C11.9478 8.7456 12.0525 8.7456 12.156 8.75879L12.3456 7.27083C12.1162 7.24159 11.884 7.24159 11.6546 7.27083L11.8443 8.75879ZM12.7501 8.7989V8.01481H11.2501V8.7989H12.7501Z" fill="black"/>
</svg>
