<svg width="24" height="24" viewBox="0 0 24 24" fill="none" xmlns="http://www.w3.org/2000/svg">
<path d="M5.06052 20.0441L5.50136 19.4373L5.06052 20.0441ZM3.95437 18.9379L4.56113 18.4971L3.95437 18.9379ZM20.0445 18.9379L19.4378 18.4971L20.0445 18.9379ZM18.9384 20.0441L18.4975 19.4373L18.9384 20.0441ZM18.9384 3.95394L18.4975 4.5607L18.9384 3.95394ZM20.0445 5.0601L19.4378 5.50094L20.0445 5.0601ZM5.06052 3.95394L5.50136 4.5607L5.06052 3.95394ZM3.95437 5.0601L4.56113 5.50094L3.95437 5.0601ZM6.46676 13.4711C6.17517 13.7653 6.17729 14.2401 6.47149 14.5317C6.76569 14.8233 7.24056 14.8212 7.53214 14.527L6.46676 13.4711ZM8.74676 12.2361L9.27945 12.764L8.74676 12.2361ZM15.2521 12.2361L15.7848 11.7081L15.7848 11.7081L15.2521 12.2361ZM16.4668 14.527C16.7583 14.8212 17.2332 14.8233 17.5274 14.5317C17.8216 14.2401 17.8237 13.7653 17.5321 13.4711L16.4668 14.527ZM11.6861 10.0189L11.5913 9.27493L11.5913 9.27493L11.6861 10.0189ZM12.3128 10.0189L12.4076 9.27493L12.4076 9.27493L12.3128 10.0189ZM11.9994 20.249C10.1079 20.249 8.74944 20.248 7.69749 20.134C6.65958 20.0216 6.00937 19.8064 5.50136 19.4373L4.61968 20.6509C5.42601 21.2367 6.37039 21.499 7.53592 21.6253C8.68742 21.75 10.1413 21.749 11.9994 21.749V20.249ZM2.24945 11.999C2.24945 13.8572 2.24842 15.311 2.37318 16.4625C2.49946 17.6281 2.76177 18.5725 3.3476 19.3788L4.56113 18.4971C4.19204 17.9891 3.9769 17.3389 3.86445 16.301C3.75048 15.249 3.74945 13.8906 3.74945 11.999H2.24945ZM5.50136 19.4373C5.14056 19.1752 4.82327 18.8579 4.56113 18.4971L3.3476 19.3788C3.70226 19.8669 4.13154 20.2962 4.61968 20.6509L5.50136 19.4373ZM20.2494 11.999C20.2494 13.8906 20.2484 15.249 20.1344 16.301C20.022 17.3389 19.8069 17.9891 19.4378 18.4971L20.6513 19.3788C21.2371 18.5725 21.4994 17.6281 21.6257 16.4625C21.7505 15.311 21.7494 13.8572 21.7494 11.999H20.2494ZM11.9994 21.749C13.8576 21.749 15.3115 21.75 16.463 21.6253C17.6285 21.499 18.5729 21.2367 19.3792 20.6509L18.4975 19.4373C17.9895 19.8064 17.3393 20.0216 16.3014 20.134C15.2495 20.248 13.891 20.249 11.9994 20.249V21.749ZM19.4378 18.4971C19.1756 18.8579 18.8583 19.1752 18.4975 19.4373L19.3792 20.6509C19.8674 20.2962 20.2966 19.8669 20.6513 19.3788L19.4378 18.4971ZM11.9994 3.74902C13.891 3.74902 15.2495 3.75005 16.3014 3.86402C17.3393 3.97647 17.9895 4.19161 18.4975 4.5607L19.3792 3.34718C18.5729 2.76135 17.6285 2.49903 16.463 2.37275C15.3115 2.24799 13.8576 2.24902 11.9994 2.24902V3.74902ZM21.7494 11.999C21.7494 10.1409 21.7505 8.687 21.6257 7.5355C21.4994 6.36996 21.2371 5.42558 20.6513 4.61926L19.4378 5.50094C19.8069 6.00894 20.022 6.65916 20.1344 7.69707C20.2484 8.74901 20.2494 10.1074 20.2494 11.999H21.7494ZM18.4975 4.5607C18.8583 4.82284 19.1756 5.14013 19.4378 5.50094L20.6513 4.61926C20.2966 4.13111 19.8674 3.70183 19.3792 3.34718L18.4975 4.5607ZM11.9994 2.24902C10.1413 2.24902 8.68742 2.24799 7.53592 2.37275C6.37039 2.49903 5.42601 2.76135 4.61968 3.34718L5.50136 4.5607C6.00937 4.19161 6.65958 3.97647 7.69749 3.86402C8.74944 3.75005 10.1079 3.74902 11.9994 3.74902V2.24902ZM3.74945 11.999C3.74945 10.1074 3.75048 8.74901 3.86445 7.69707C3.9769 6.65916 4.19204 6.00894 4.56113 5.50094L3.3476 4.61926C2.76177 5.42558 2.49946 6.36996 2.37318 7.5355C2.24842 8.687 2.24945 10.1409 2.24945 11.999H3.74945ZM4.61968 3.34718C4.13154 3.70183 3.70226 4.13111 3.3476 4.61926L4.56113 5.50094C4.82327 5.14013 5.14056 4.82284 5.50136 4.5607L4.61968 3.34718ZM7.53214 14.527L9.27945 12.764L8.21407 11.7081L6.46676 13.4711L7.53214 14.527ZM14.7194 12.764L16.4668 14.527L17.5321 13.4711L15.7848 11.7081L14.7194 12.764ZM9.27945 12.764C9.98858 12.0485 10.4766 11.5577 10.8902 11.2256C11.2918 10.903 11.5499 10.7923 11.7809 10.7629L11.5913 9.27493C10.9732 9.35372 10.4582 9.64865 9.95091 10.0561C9.45541 10.454 8.89837 11.0177 8.21407 11.7081L9.27945 12.764ZM15.7848 11.7081C15.1005 11.0177 14.5435 10.454 14.048 10.0561C13.5407 9.64865 13.0257 9.35372 12.4076 9.27493L12.218 10.7629C12.449 10.7923 12.707 10.903 13.1087 11.2256C13.5223 11.5577 14.0103 12.0485 14.7194 12.764L15.7848 11.7081ZM11.7809 10.7629C11.926 10.7444 12.0729 10.7444 12.218 10.7629L12.4076 9.27493C12.1366 9.24039 11.8623 9.24039 11.5913 9.27493L11.7809 10.7629Z" fill="black"/>
</svg>
