<svg width="24" height="24" viewBox="0 0 24 24" fill="none" xmlns="http://www.w3.org/2000/svg">
<path d="M5.06053 20.0441L5.50137 19.4373L5.06053 20.0441ZM3.95437 18.9379L4.56114 18.4971L3.95437 18.9379ZM20.0445 18.9379L19.4378 18.4971L20.0445 18.9379ZM18.9384 20.0441L18.4975 19.4373L18.9384 20.0441ZM18.9384 3.95394L18.4975 4.5607L18.9384 3.95394ZM20.0445 5.0601L19.4378 5.50094L20.0445 5.0601ZM5.06053 3.95394L5.50137 4.5607L5.06053 3.95394ZM3.95437 5.0601L4.56114 5.50094L3.95437 5.0601ZM11.2495 15.999C11.2495 16.4132 11.5852 16.749 11.9995 16.749C12.4137 16.749 12.7495 16.4132 12.7495 15.999H11.2495ZM7.46677 10.6711C7.17518 10.9653 7.1773 11.4401 7.4715 11.7317C7.76569 12.0233 8.24056 12.0212 8.53215 11.727L7.46677 10.6711ZM9.3973 9.78865L9.92999 10.3166L9.92999 10.3166L9.3973 9.78865ZM14.6016 9.78865L15.1343 9.26069L15.1343 9.26069L14.6016 9.78865ZM15.4668 11.727C15.7583 12.0212 16.2332 12.0233 16.5274 11.7317C16.8216 11.4401 16.8237 10.9653 16.5321 10.6711L15.4668 11.727ZM11.7488 8.01493L11.654 7.27095L11.654 7.27095L11.7488 8.01493ZM12.2501 8.01493L12.345 7.27095L12.3449 7.27095L12.2501 8.01493ZM11.9995 7.99902L11.9995 7.24902L11.9995 7.99902ZM11.9995 20.249C10.1079 20.249 8.74945 20.248 7.6975 20.134C6.65959 20.0216 6.00937 19.8064 5.50137 19.4373L4.61969 20.6509C5.42602 21.2367 6.3704 21.499 7.53593 21.6253C8.68743 21.75 10.1413 21.749 11.9995 21.749V20.249ZM2.24946 11.999C2.24946 13.8572 2.24843 15.311 2.37319 16.4625C2.49946 17.6281 2.76178 18.5725 3.34761 19.3788L4.56114 18.4971C4.19205 17.9891 3.97691 17.3389 3.86446 16.301C3.75049 15.249 3.74946 13.8906 3.74946 11.999H2.24946ZM5.50137 19.4373C5.14057 19.1752 4.82327 18.8579 4.56114 18.4971L3.34761 19.3788C3.70227 19.8669 4.13155 20.2962 4.61969 20.6509L5.50137 19.4373ZM20.2495 11.999C20.2495 13.8906 20.2484 15.249 20.1345 16.301C20.022 17.3389 19.8069 17.9891 19.4378 18.4971L20.6513 19.3788C21.2371 18.5725 21.4994 17.6281 21.6257 16.4625C21.7505 15.311 21.7495 13.8572 21.7495 11.999H20.2495ZM11.9995 21.749C13.8576 21.749 15.3115 21.75 16.463 21.6253C17.6285 21.499 18.5729 21.2367 19.3792 20.6509L18.4975 19.4373C17.9895 19.8064 17.3393 20.0216 16.3014 20.134C15.2495 20.248 13.891 20.249 11.9995 20.249V21.749ZM19.4378 18.4971C19.1756 18.8579 18.8583 19.1752 18.4975 19.4373L19.3792 20.6509C19.8674 20.2962 20.2966 19.8669 20.6513 19.3788L19.4378 18.4971ZM11.9995 3.74902C13.891 3.74902 15.2495 3.75005 16.3014 3.86402C17.3393 3.97647 17.9895 4.19161 18.4975 4.5607L19.3792 3.34718C18.5729 2.76135 17.6285 2.49903 16.463 2.37275C15.3115 2.24799 13.8576 2.24902 11.9995 2.24902V3.74902ZM21.7495 11.999C21.7495 10.1409 21.7505 8.687 21.6257 7.5355C21.4994 6.36996 21.2371 5.42558 20.6513 4.61926L19.4378 5.50094C19.8069 6.00894 20.022 6.65916 20.1345 7.69707C20.2484 8.74901 20.2495 10.1074 20.2495 11.999H21.7495ZM18.4975 4.5607C18.8583 4.82284 19.1756 5.14013 19.4378 5.50094L20.6513 4.61926C20.2966 4.13111 19.8674 3.70183 19.3792 3.34718L18.4975 4.5607ZM11.9995 2.24902C10.1413 2.24902 8.68743 2.24799 7.53593 2.37275C6.3704 2.49903 5.42602 2.76135 4.61969 3.34718L5.50137 4.5607C6.00937 4.19161 6.65959 3.97647 7.6975 3.86402C8.74945 3.75005 10.1079 3.74902 11.9995 3.74902V2.24902ZM3.74946 11.999C3.74946 10.1074 3.75049 8.74901 3.86446 7.69707C3.97691 6.65916 4.19205 6.00894 4.56114 5.50094L3.34761 4.61926C2.76178 5.42558 2.49946 6.36996 2.37319 7.5355C2.24843 8.687 2.24946 10.1409 2.24946 11.999H3.74946ZM4.61969 3.34718C4.13155 3.70183 3.70227 4.13111 3.34761 4.61926L4.56114 5.50094C4.82327 5.14013 5.14057 4.82284 5.50137 4.5607L4.61969 3.34718ZM12.7495 15.999V8.79902H11.2495V15.999H12.7495ZM8.53215 11.727L9.92999 10.3166L8.86461 9.26069L7.46677 10.6711L8.53215 11.727ZM14.0689 10.3166L15.4668 11.727L16.5321 10.6711L15.1343 9.26069L14.0689 10.3166ZM9.92999 10.3166C10.4998 9.7417 10.8833 9.35635 11.2059 9.09725C11.5167 8.84765 11.6975 8.77754 11.8436 8.75891L11.654 7.27095C11.1208 7.33891 10.6831 7.59329 10.2667 7.92771C9.86211 8.25264 9.40957 8.71084 8.86461 9.26069L9.92999 10.3166ZM15.1343 9.26069C14.5893 8.71084 14.1368 8.25264 13.7322 7.92771C13.3158 7.59329 12.8781 7.33891 12.345 7.27095L12.1553 8.75891C12.3015 8.77754 12.4822 8.84765 12.793 9.09725C13.1156 9.35635 13.4991 9.7417 14.0689 10.3166L15.1343 9.26069ZM11.8436 8.75891C11.8954 8.75232 11.9474 8.74902 11.9995 8.74902L11.9995 7.24902C11.8841 7.24902 11.7687 7.25633 11.654 7.27095L11.8436 8.75891ZM11.9995 8.74902C12.0515 8.74902 12.1035 8.75232 12.1553 8.75891L12.3449 7.27095C12.2302 7.25633 12.1149 7.24902 11.9995 7.24902L11.9995 8.74902ZM12.7495 8.79902V7.99902H11.2495V8.79902H12.7495Z" fill="black"/>
</svg>
