<svg width="24" height="24" viewBox="0 0 24 24" fill="none" xmlns="http://www.w3.org/2000/svg">
<path d="M7.21775 20.9375L7.10042 21.6782L7.10042 21.6782L7.21775 20.9375ZM3.06148 16.7812L3.80225 16.6639L3.80225 16.6639L3.06148 16.7812ZM20.9384 16.7812L21.6791 16.8985L21.6791 16.8985L20.9384 16.7812ZM16.7821 20.9375L16.8994 21.6782L16.8994 21.6782L16.7821 20.9375ZM20.6 10.5486C20.3512 10.2174 19.881 10.1506 19.5498 10.3993C19.2187 10.6481 19.1518 11.1183 19.4006 11.4495L20.6 10.5486ZM4.59923 11.4495C4.848 11.1183 4.78118 10.6481 4.44999 10.3993C4.1188 10.1506 3.64865 10.2174 3.39988 10.5486L4.59923 11.4495ZM11.2499 16.999C11.2499 17.4132 11.5857 17.749 11.9999 17.749C12.4141 17.749 12.7499 17.4132 12.7499 16.999H11.2499ZM7.41224 6.53305C7.15489 6.85762 7.20938 7.32936 7.53395 7.58671C7.85852 7.84405 8.33026 7.78956 8.58761 7.46499L7.41224 6.53305ZM9.39777 5.23605L8.81009 4.77008L8.81009 4.77008L9.39777 5.23605ZM14.6021 5.23605L15.1898 4.77008L14.6021 5.23605ZM15.4122 7.46499C15.6696 7.78956 16.1413 7.84405 16.4659 7.58671C16.7905 7.32936 16.845 6.85762 16.5876 6.53305L15.4122 7.46499ZM11.7493 3.01891L11.6313 2.27825L11.6312 2.27826L11.7493 3.01891ZM12.2506 3.01891L12.3686 2.27826L12.3686 2.27826L12.2506 3.01891ZM20.2499 13.999V14.999H21.7499V13.999H20.2499ZM14.9999 20.249H8.99992V21.749H14.9999V20.249ZM3.74992 14.999V13.999H2.24992V14.999H3.74992ZM8.99992 20.249C8.04226 20.249 7.65074 20.2467 7.33507 20.1967L7.10042 21.6782C7.56208 21.7513 8.09958 21.749 8.99992 21.749V20.249ZM2.24992 14.999C2.24992 15.8994 2.2476 16.4369 2.32072 16.8985L3.80225 16.6639C3.75225 16.3482 3.74992 15.9567 3.74992 14.999H2.24992ZM7.33508 20.1967C5.51653 19.9087 4.09028 18.4824 3.80225 16.6639L2.32072 16.8985C2.7104 19.3589 4.64004 21.2885 7.10042 21.6782L7.33508 20.1967ZM20.2499 14.999C20.2499 15.9567 20.2476 16.3482 20.1976 16.6639L21.6791 16.8985C21.7522 16.4369 21.7499 15.8994 21.7499 14.999H20.2499ZM14.9999 21.749C15.9003 21.749 16.4378 21.7513 16.8994 21.6782L16.6648 20.1967C16.3491 20.2467 15.9576 20.249 14.9999 20.249V21.749ZM20.1976 16.6639C19.9096 18.4824 18.4833 19.9087 16.6648 20.1967L16.8994 21.6782C19.3598 21.2885 21.2894 19.3589 21.6791 16.8985L20.1976 16.6639ZM21.7499 13.999C21.7499 12.7054 21.3219 11.5097 20.6 10.5486L19.4006 11.4495C19.9341 12.1597 20.2499 13.0414 20.2499 13.999H21.7499ZM3.74992 13.999C3.74992 13.0414 4.06575 12.1597 4.59923 11.4495L3.39988 10.5486C2.67799 11.5097 2.24992 12.7054 2.24992 13.999H3.74992ZM12.7499 16.999V3.99902H11.2499V16.999H12.7499ZM8.58761 7.46499L9.98545 5.70202L8.81009 4.77008L7.41224 6.53305L8.58761 7.46499ZM14.0144 5.70202L15.4122 7.46499L16.5876 6.53305L15.1898 4.77008L14.0144 5.70202ZM9.98545 5.70202C10.5542 4.9847 10.9417 4.49786 11.2681 4.17015C11.5912 3.8458 11.7611 3.77649 11.8673 3.75957L11.6312 2.27826C11.0581 2.36958 10.6095 2.70587 10.2054 3.11154C9.80467 3.51386 9.35608 4.08147 8.81009 4.77008L9.98545 5.70202ZM15.1898 4.77008C14.6438 4.08147 14.1952 3.51386 13.7944 3.11154C13.3903 2.70587 12.9418 2.36958 12.3686 2.27826L12.1326 3.75957C12.2388 3.77649 12.4086 3.8458 12.7317 4.17015C13.0582 4.49787 13.4456 4.9847 14.0144 5.70202L15.1898 4.77008ZM11.8673 3.75957C11.9116 3.75251 11.9559 3.74902 11.9999 3.74902L11.9999 2.24902C11.8765 2.24902 11.7534 2.2588 11.6313 2.27825L11.8673 3.75957ZM11.9999 3.74902C12.044 3.74902 12.0882 3.75251 12.1326 3.75957L12.3686 2.27826C12.2465 2.2588 12.1233 2.24902 11.9999 2.24902L11.9999 3.74902ZM12.7499 3.99902V2.99902H11.2499V3.99902H12.7499Z" fill="black"/>
</svg>
