<svg width="24" height="24" viewBox="0 0 24 24" fill="none" xmlns="http://www.w3.org/2000/svg">
<path d="M8.79901 18.6736L8.25865 19.1937L8.25865 19.1937L8.79901 18.6736ZM8.79111 18.6654L8.25363 19.1885L8.25363 19.1885L8.79111 18.6654ZM8.08 18.3629L8.08414 17.6129L8.08 18.3629ZM15.9198 18.3629L15.9157 17.6129L15.9198 18.3629ZM15.2008 18.6736L14.6605 18.1535L14.6605 18.1535L15.2008 18.6736ZM15.2087 18.6654L15.7462 19.1885L15.2087 18.6654ZM14.8819 19.005L15.4222 19.5251L15.4222 19.5251L14.8819 19.005ZM9.11797 19.005L9.65834 18.4849L9.65834 18.4849L9.11797 19.005ZM11.9999 21.1151L11.9999 21.8651L11.9999 21.1151ZM3.00021 13.4168L2.25026 13.4249L3.00021 13.4168ZM7.94596 18.3625L7.93787 19.1125L7.94596 18.3625ZM20.9996 13.4168L21.7496 13.4249L20.9996 13.4168ZM16.0539 18.3625L16.062 19.1125L16.0539 18.3625ZM18.3962 2.61081L18.0367 3.26907L18.3962 2.61081ZM20.3883 4.60296L19.7301 4.9624L20.3883 4.60296ZM5.60368 2.61081L5.96311 3.26907L5.60368 2.61081ZM3.61153 4.60296L4.26979 4.9624L3.61153 4.60296ZM5.26965 17.5522L4.85961 18.1802L5.26965 17.5522ZM18.7302 17.5522L19.1402 18.1802L18.7302 17.5522ZM15.2499 7.9992C15.2499 9.79413 13.7948 11.2492 11.9999 11.2492V12.7492C14.6233 12.7492 16.7499 10.6226 16.7499 7.9992H15.2499ZM11.9999 11.2492C10.205 11.2492 8.74992 9.79413 8.74992 7.9992H7.24992C7.24992 10.6226 9.37657 12.7492 11.9999 12.7492V11.2492ZM8.74992 7.9992C8.74992 6.20428 10.205 4.74921 11.9999 4.74921V3.24921C9.37657 3.24921 7.24992 5.37585 7.24992 7.9992H8.74992ZM11.9999 4.74921C13.7948 4.74921 15.2499 6.20428 15.2499 7.9992H16.7499C16.7499 5.37585 14.6233 3.24921 11.9999 3.24921V4.74921ZM11.1817 2.74921H12.8181V1.24921H11.1817V2.74921ZM20.2499 10.181V13.2941H21.7499V10.181H20.2499ZM3.74992 13.2941V10.181H2.24992V13.2941H3.74992ZM14.6605 18.1535L14.3415 18.4849L15.4222 19.5251L15.7412 19.1937L14.6605 18.1535ZM9.65834 18.4849L9.33938 18.1535L8.25865 19.1937L8.57761 19.5251L9.65834 18.4849ZM9.33938 18.1535C9.33607 18.15 9.33233 18.1462 9.3286 18.1423L8.25363 19.1885C8.25352 19.1884 8.25364 19.1885 8.25444 19.1893C8.25535 19.1903 8.25652 19.1915 8.25865 19.1937L9.33938 18.1535ZM8.06863 19.1128C8.07165 19.1128 8.07334 19.1128 8.07463 19.1128C8.07576 19.1128 8.07597 19.1128 8.07585 19.1128L8.08414 17.6129C8.07882 17.6128 8.07353 17.6128 8.06863 17.6128V19.1128ZM9.3286 18.1423C9.00149 17.8062 8.55315 17.6155 8.08414 17.6129L8.07585 19.1128C8.14285 19.1132 8.2069 19.1405 8.25363 19.1885L9.3286 18.1423ZM15.9312 17.6128C15.9263 17.6128 15.921 17.6128 15.9157 17.6129L15.924 19.1128C15.9239 19.1128 15.9241 19.1128 15.9252 19.1128C15.9265 19.1128 15.9282 19.1128 15.9312 19.1128V17.6128ZM15.7412 19.1937C15.7456 19.1891 15.746 19.1887 15.7462 19.1885L14.6712 18.1423C14.6676 18.1461 14.664 18.1498 14.6605 18.1535L15.7412 19.1937ZM15.9157 17.6129C15.4467 17.6155 14.9984 17.8062 14.6712 18.1423L15.7462 19.1885C15.7929 19.1405 15.857 19.1132 15.924 19.1128L15.9157 17.6129ZM14.3415 18.4849C13.6495 19.2038 13.1825 19.6867 12.7871 19.9993C12.4088 20.2983 12.1883 20.3651 11.9999 20.3651L11.9999 21.8651C12.6624 21.8651 13.2059 21.5803 13.7173 21.176C14.2117 20.7852 14.7602 20.2129 15.4222 19.5251L14.3415 18.4849ZM8.57761 19.5251C9.23963 20.2129 9.78816 20.7852 10.2825 21.176C10.7939 21.5803 11.3374 21.8651 11.9999 21.8651L11.9999 20.3651C11.8115 20.3651 11.5911 20.2983 11.2127 19.9993C10.8173 19.6867 10.3503 19.2038 9.65834 18.4849L8.57761 19.5251ZM2.24992 13.2941C2.24992 13.356 2.24991 13.3928 2.25026 13.4249L3.75017 13.4087C3.74993 13.3868 3.74992 13.3599 3.74992 13.2941H2.24992ZM8.06863 17.6128C8.00285 17.6128 7.97596 17.6128 7.95406 17.6126L7.93787 19.1125C7.96992 19.1128 8.00682 19.1128 8.06863 19.1128V17.6128ZM20.2499 13.2941C20.2499 13.3599 20.2499 13.3868 20.2497 13.4087L21.7496 13.4249C21.7499 13.3928 21.7499 13.356 21.7499 13.2941H20.2499ZM15.9312 19.1128C15.993 19.1128 16.0299 19.1128 16.062 19.1125L16.0458 17.6126C16.0239 17.6128 15.997 17.6128 15.9312 17.6128V19.1128ZM12.8181 2.74921C14.3172 2.74921 15.3938 2.74986 16.2369 2.82286C17.0705 2.89503 17.6055 3.03363 18.0367 3.26907L18.7556 1.95255C18.0667 1.57639 17.2987 1.40918 16.3663 1.32845C15.4434 1.24855 14.2909 1.24921 12.8181 1.24921V2.74921ZM21.7499 10.181C21.7499 8.70818 21.7506 7.55569 21.6707 6.63283C21.5899 5.70038 21.4227 4.93241 21.0466 4.24352L19.7301 4.9624C19.9655 5.39358 20.1041 5.92864 20.1763 6.76221C20.2493 7.60537 20.2499 8.68188 20.2499 10.181H21.7499ZM18.0367 3.26907C18.7518 3.65954 19.3396 4.24731 19.7301 4.9624L21.0466 4.24352C20.5183 3.27606 19.7231 2.48083 18.7556 1.95255L18.0367 3.26907ZM11.1817 1.24921C9.7089 1.24921 8.55641 1.24855 7.63354 1.32845C6.7011 1.40918 5.93312 1.57639 5.24424 1.95255L5.96311 3.26907C6.3943 3.03363 6.92936 2.89503 7.76293 2.82286C8.60608 2.74986 9.68259 2.74921 11.1817 2.74921V1.24921ZM3.74992 10.181C3.74992 8.68187 3.75058 7.60536 3.82358 6.76221C3.89575 5.92864 4.03434 5.39358 4.26979 4.9624L2.95327 4.24352C2.57711 4.93241 2.4099 5.70038 2.32917 6.63283C2.24927 7.55569 2.24992 8.70818 2.24992 10.181H3.74992ZM5.24424 1.95255C4.27678 2.48083 3.48155 3.27606 2.95327 4.24352L4.26979 4.9624C4.66025 4.24731 5.24803 3.65954 5.96311 3.26907L5.24424 1.95255ZM8.99992 15.7492H14.9999V14.2492H8.99992V15.7492ZM8.99992 14.2492C6.98134 14.2492 5.25863 15.508 4.57048 17.2808L5.96883 17.8236C6.44049 16.6085 7.62078 15.7492 8.99992 15.7492V14.2492ZM2.25026 13.4249C2.27176 15.4175 3.30604 17.1658 4.85961 18.1802L5.6797 16.9243C4.5283 16.1724 3.76605 14.8802 3.75017 13.4087L2.25026 13.4249ZM4.85961 18.1802C5.74651 18.7593 6.80368 19.1003 7.93787 19.1125L7.95406 17.6126C7.11395 17.6035 6.33442 17.3518 5.6797 16.9243L4.85961 18.1802ZM14.9999 15.7492C16.3791 15.7492 17.5593 16.6085 18.031 17.8236L19.4294 17.2808C18.7412 15.508 17.0185 14.2492 14.9999 14.2492V15.7492ZM20.2497 13.4087C20.2338 14.8802 19.4715 16.1724 18.3201 16.9243L19.1402 18.1802C20.6938 17.1658 21.7281 15.4175 21.7496 13.4249L20.2497 13.4087ZM18.3201 16.9243C17.6654 17.3518 16.8859 17.6035 16.0458 17.6126L16.062 19.1125C17.1962 19.1003 18.2533 18.7593 19.1402 18.1802L18.3201 16.9243Z" fill="black"/>
</svg>
