<svg width="26" height="26" viewBox="0 0 26 26" fill="none" xmlns="http://www.w3.org/2000/svg">
<path d="M16.6467 8.4026L13.5544 1.37212C13.3362 0.87596 12.6638 0.875961 12.4456 1.37212L9.35334 8.4026C9.2644 8.60482 9.08167 8.74405 8.8708 8.77027L1.53942 9.68186C1.02203 9.74619 0.814244 10.4168 1.19677 10.7878L6.61704 16.0445C6.77294 16.1957 6.84274 16.421 6.80135 16.6394L5.36254 24.2333C5.261 24.7692 5.805 25.1837 6.25963 24.9168L12.7018 21.1351C12.8871 21.0263 13.1129 21.0263 13.2982 21.1351L19.7404 24.9168C20.195 25.1837 20.739 24.7692 20.6375 24.2333L19.1986 16.6394C19.1573 16.421 19.2271 16.1957 19.383 16.0445L24.8032 10.7878C25.1858 10.4168 24.978 9.74619 24.4606 9.68186L17.1292 8.77027C16.9183 8.74405 16.7356 8.60482 16.6467 8.4026Z" stroke="black" stroke-width="1.5" stroke-linecap="round" stroke-linejoin="round"/>
</svg>
