<svg width="24" height="24" viewBox="0 0 24 24" fill="none" xmlns="http://www.w3.org/2000/svg">
<g clip-path="url(#clip0_0_1)">
<path d="M16.0002 8.99923L12.5367 13.1555C11.8246 14.0099 11.4686 14.4372 11.0002 14.4372C10.5319 14.4372 10.1758 14.0099 9.4638 13.1555L8.00024 11.3992M5.59506 5.01821C7.14282 5.40617 8.7192 4.49605 9.15709 2.96167C9.9734 0.101318 14.0271 0.101318 14.8434 2.96167C15.2813 4.49605 16.8577 5.40617 18.4054 5.01821C21.2907 4.29498 23.3176 7.80557 21.2486 9.94269C20.1387 11.0891 20.1387 12.9094 21.2486 14.0558C23.3176 16.1929 21.2907 19.7035 18.4054 18.9802C16.8577 18.5923 15.2813 19.5024 14.8434 21.0368C14.0271 23.8971 9.9734 23.8971 9.15709 21.0368C8.7192 19.5024 7.14282 18.5923 5.59506 18.9802C2.70977 19.7035 0.682927 16.1929 2.75191 14.0558C3.86178 12.9094 3.86178 11.0891 2.75191 9.94269C0.682928 7.80557 2.70977 4.29498 5.59506 5.01821Z" stroke="black" stroke-width="1.5" stroke-linecap="round"/>
</g>
<defs>
<clipPath id="clip0_0_1">
<rect width="24" height="24" fill="black" transform="translate(-0.00012207 -0.000244141)"/>
</clipPath>
</defs>
</svg>
