<svg width="24" height="24" viewBox="0 0 24 24" fill="none" xmlns="http://www.w3.org/2000/svg">
<g clip-path="url(#clip0_0_1)">
<path d="M8.96598 3.24969C7.59426 3.24969 6.51882 3.24969 5.65448 3.32031C4.77434 3.39222 4.04723 3.54107 3.3891 3.87641C2.30716 4.42768 1.42753 5.30732 0.876255 6.38925C0.540921 7.04738 0.392065 7.77449 0.320154 8.65463C0.249534 9.51898 0.249538 10.5944 0.249542 11.9661V12.0333C0.249538 13.405 0.249534 14.4804 0.320154 15.3448C0.392065 16.2249 0.540921 16.952 0.876255 17.6101C0.899596 17.6559 0.923526 17.7014 0.948035 17.7465C1.17025 18.1552 1.71797 18.1911 2.04691 17.8621L2.10311 17.8059C2.33255 17.5765 2.36007 17.2183 2.21276 16.9292C2.00313 16.5177 1.8795 16.01 1.81517 15.2226C1.75013 14.4265 1.74954 13.4122 1.74954 11.9997C1.74954 10.5872 1.75013 9.57291 1.81517 8.77678C1.8795 7.9894 2.00313 7.48166 2.21276 7.07023C2.62023 6.27055 3.27039 5.62038 4.07008 5.21292C4.48151 5.00328 4.98924 4.87966 5.77662 4.81532C6.57276 4.75028 7.58703 4.74969 8.99954 4.74969C10.412 4.74969 11.4263 4.75028 12.2225 4.81532C13.0098 4.87966 13.5176 5.00328 13.929 5.21292C14.2181 5.36023 14.5763 5.3327 14.8058 5.10326L14.862 5.04706C15.1909 4.71813 15.155 4.1704 14.7463 3.94819C14.7012 3.92368 14.6558 3.89975 14.61 3.87641C13.9519 3.54107 13.2247 3.39222 12.3446 3.32031C11.4803 3.24969 10.4048 3.24969 9.0331 3.24969H8.96598Z" fill="black"/>
<path fill-rule="evenodd" clip-rule="evenodd" d="M17.0271 6.20928C16.8027 5.80506 16.2588 5.77153 15.9319 6.09843L15.9017 6.12861C15.6555 6.37486 15.6282 6.75995 15.7863 7.07023C15.9959 7.48166 16.1196 7.9894 16.1839 8.77678C16.249 9.57291 16.2495 10.5872 16.2495 11.9997C16.2495 13.4122 16.249 14.4265 16.1839 15.2226C16.1196 16.01 15.9959 16.5177 15.7863 16.9292C15.3789 17.7288 14.7287 18.379 13.929 18.7865C13.5176 18.9961 13.0098 19.1197 12.2225 19.1841C11.4263 19.2491 10.412 19.2497 8.99954 19.2497C7.58703 19.2497 6.57276 19.2491 5.77662 19.1841C4.98924 19.1197 4.48151 18.9961 4.07008 18.7865C3.75979 18.6284 3.3747 18.6556 3.12846 18.9019L3.09828 18.9321C2.77138 19.259 2.80491 19.8029 3.20913 20.0272C3.26847 20.0602 3.32846 20.0921 3.3891 20.123C4.04723 20.4583 4.77433 20.6072 5.65448 20.6791C6.51881 20.7497 7.59422 20.7497 8.96591 20.7497H9.03312C10.4048 20.7497 11.4803 20.7497 12.3446 20.6791C13.2247 20.6072 13.9519 20.4583 14.61 20.123C15.6919 19.5717 16.5716 18.6921 17.1228 17.6101C17.2051 17.4487 17.3972 17.3702 17.5633 17.4426C18.5939 17.8914 19.451 18.2526 20.1585 18.4445C20.9834 18.6682 21.7869 18.7143 22.5053 18.2443C23.2236 17.7743 23.5031 17.0195 23.6283 16.174C23.7496 15.3553 23.7496 14.2754 23.7495 12.9499V11.0495C23.7496 9.72395 23.7496 8.64405 23.6283 7.82536C23.5031 6.97988 23.2236 6.2251 22.5053 5.75507C21.7869 5.28504 20.9834 5.33114 20.1585 5.55492C19.451 5.74683 18.5939 6.10798 17.5633 6.55681C17.3972 6.62915 17.2051 6.55068 17.1228 6.38925C17.0919 6.32862 17.06 6.26862 17.0271 6.20928ZM17.6982 15.8648C17.6568 15.8467 17.6324 15.8034 17.6377 15.7586C17.6538 15.6244 17.6673 15.4865 17.6789 15.3448C17.7495 14.4804 17.7495 13.405 17.7495 12.0333V11.9661C17.7495 10.5944 17.7495 9.51896 17.6789 8.65463C17.6673 8.51284 17.6538 8.37501 17.6377 8.24081C17.6324 8.19595 17.6568 8.15272 17.6982 8.13463C18.9849 7.5724 19.8725 7.18672 20.5512 7.00259C21.2165 6.82212 21.4974 6.88814 21.684 7.01024C21.8706 7.13233 22.0435 7.36327 22.1445 8.04514C22.2476 8.74082 22.2495 9.70858 22.2495 11.1127V12.8867C22.2495 14.2908 22.2476 15.2586 22.1445 15.9542C22.0435 16.6361 21.8706 16.8671 21.684 16.9891C21.4974 17.1112 21.2165 17.1773 20.5512 16.9968C19.8725 16.8127 18.9849 16.427 17.6982 15.8648Z" fill="black"/>
<path d="M18.9703 3.99976L1.99974 20.9703M8.99984 8.99975H4.99984" stroke="black" stroke-width="1.5" stroke-linecap="round"/>
</g>
<defs>
<clipPath id="clip0_0_1">
<rect width="24" height="24" fill="black" transform="translate(0 -0.000183105)"/>
</clipPath>
</defs>
</svg>
