<svg width="24" height="24" viewBox="0 0 24 24" fill="none" xmlns="http://www.w3.org/2000/svg">
<g clip-path="url(#clip0_0_1)">
<path d="M3.7302 19.4548L4.07069 18.7865L3.7302 19.4548ZM1.54512 17.2697L2.21337 16.9292L1.54512 17.2697ZM16.4552 17.2697L15.7869 16.9292L15.7869 16.9292L16.4552 17.2697ZM14.2701 19.4548L13.9296 18.7865L14.2701 19.4548ZM14.2701 4.54472L13.9296 5.21298L14.2701 4.54472ZM16.4552 6.7298L15.7869 7.07029L16.4552 6.7298ZM3.7302 4.54472L4.07069 5.21298L3.7302 4.54472ZM1.54512 6.7298L2.21337 7.07029L1.54512 6.7298ZM9.00015 9.74975C9.41436 9.74975 9.75015 9.41397 9.75015 8.99975C9.75015 8.58554 9.41436 8.24975 9.00015 8.24975V9.74975ZM5.00015 8.24975C4.58594 8.24975 4.25015 8.58554 4.25015 8.99975C4.25015 9.41397 4.58594 9.74975 5.00015 9.74975V8.24975ZM23.0001 11.1128L23.7501 11.1128V11.1128L23.0001 11.1128ZM23.0001 12.8867L22.2501 12.8867V12.8867L23.0001 12.8867ZM17.0001 7.62151L16.6998 6.93426L16.6912 6.93802L16.6827 6.94199L17.0001 7.62151ZM17.3985 7.44744L17.6988 8.13469L17.6988 8.13469L17.3985 7.44744ZM17.3985 16.5521L17.6988 15.8648L17.6988 15.8648L17.3985 16.5521ZM17.0001 16.378L16.6811 17.0568L16.6904 17.0611L16.6998 17.0652L17.0001 16.378ZM22.0952 17.6168L22.5059 18.2444L22.5059 18.2444L22.0952 17.6168ZM22.0952 6.38271L22.5059 5.75513L22.5059 5.75513L22.0952 6.38271ZM16.7942 7.71769L16.0608 7.8742L16.7942 7.71769ZM9.00015 19.2497C7.58764 19.2497 6.57337 19.2492 5.77723 19.1841C4.98986 19.1198 4.48212 18.9962 4.07069 18.7865L3.38971 20.123C4.04784 20.4584 4.77495 20.6072 5.65509 20.6791C6.52647 20.7503 7.61239 20.7497 9.00015 20.7497V19.2497ZM0.250153 11.9998C0.250153 13.3875 0.24957 14.4734 0.320765 15.3448C0.392675 16.225 0.541531 16.9521 0.876865 17.6102L2.21337 16.9292C2.00374 16.5178 1.88011 16.01 1.81578 15.2227C1.75074 14.4265 1.75015 13.4123 1.75015 11.9998H0.250153ZM4.07069 18.7865C3.271 18.3791 2.62084 17.7289 2.21337 16.9292L0.876865 17.6102C1.42814 18.6921 2.30777 19.5718 3.38971 20.123L4.07069 18.7865ZM9.00015 20.7497C10.3879 20.7497 11.4738 20.7503 12.3452 20.6791C13.2254 20.6072 13.9525 20.4584 14.6106 20.123L13.9296 18.7865C13.5182 18.9962 13.0104 19.1198 12.2231 19.1841C11.4269 19.2492 10.4127 19.2497 9.00015 19.2497V20.7497ZM15.7869 16.9292C15.3795 17.7289 14.7293 18.3791 13.9296 18.7865L14.6106 20.123C15.6925 19.5718 16.5722 18.6921 17.1234 17.6102L15.7869 16.9292ZM9.00015 4.74976C10.4127 4.74976 11.4269 4.75034 12.2231 4.81539C13.0104 4.87972 13.5182 5.00334 13.9296 5.21298L14.6106 3.87647C13.9525 3.54113 13.2254 3.39228 12.3452 3.32037C11.4738 3.24917 10.3879 3.24976 9.00015 3.24976V4.74976ZM13.9296 5.21298C14.7293 5.62044 15.3795 6.27061 15.7869 7.07029L17.1234 6.38931C16.5722 5.30738 15.6925 4.42774 14.6106 3.87647L13.9296 5.21298ZM9.00015 3.24976C7.61239 3.24976 6.52647 3.24917 5.65509 3.32037C4.77495 3.39228 4.04784 3.54113 3.38971 3.87647L4.07069 5.21298C4.48212 5.00334 4.98986 4.87972 5.77723 4.81539C6.57337 4.75034 7.58764 4.74976 9.00015 4.74976V3.24976ZM1.75015 11.9998C1.75015 10.5872 1.75074 9.57297 1.81578 8.77684C1.88011 7.98946 2.00374 7.48172 2.21337 7.07029L0.876865 6.38931C0.541531 7.04744 0.392675 7.77455 0.320765 8.65469C0.24957 9.52608 0.250153 10.612 0.250153 11.9998H1.75015ZM3.38971 3.87647C2.30777 4.42774 1.42814 5.30738 0.876865 6.38931L2.21337 7.07029C2.62084 6.27061 3.271 5.62044 4.07069 5.21298L3.38971 3.87647ZM9.00015 8.24975H5.00015V9.74975H9.00015V8.24975ZM22.2501 11.1128V12.8867H23.7501V11.1128H22.2501ZM17.3004 8.30877L17.6988 8.13469L17.0982 6.76018L16.6998 6.93426L17.3004 8.30877ZM17.6988 15.8648L17.3004 15.6907L16.6998 17.0652L17.0982 17.2393L17.6988 15.8648ZM22.2501 12.8867C22.2501 14.2909 22.2482 15.2586 22.1451 15.9543C22.0441 16.6362 21.8712 16.8671 21.6846 16.9892L22.5059 18.2444C23.2242 17.7743 23.5037 17.0196 23.6289 16.1741C23.7521 15.3424 23.7501 14.2412 23.7501 12.8867L22.2501 12.8867ZM17.0982 17.2393C18.3394 17.7817 19.3477 18.2244 20.1591 18.4445C20.984 18.6683 21.7875 18.7144 22.5059 18.2444L21.6846 16.9892C21.498 17.1113 21.2171 17.1773 20.5518 16.9969C19.8731 16.8127 18.9855 16.427 17.6988 15.8648L17.0982 17.2393ZM23.7501 11.1128C23.7501 9.75831 23.7521 8.65709 23.6289 7.82542C23.5037 6.97994 23.2242 6.22516 22.5059 5.75513L21.6846 7.0103C21.8712 7.13239 22.0441 7.36333 22.1451 8.0452C22.2482 8.74088 22.2501 9.70864 22.2501 11.1128L23.7501 11.1128ZM17.6988 8.13469C18.9855 7.57246 19.8731 7.18678 20.5518 7.00265C21.2171 6.82218 21.498 6.8882 21.6846 7.0103L22.5059 5.75513C21.7875 5.2851 20.984 5.3312 20.1591 5.55498C19.3477 5.7751 18.3394 6.21784 17.0982 6.76018L17.6988 8.13469ZM17.7501 11.9998C17.7501 10.0134 17.7543 8.62298 17.5277 7.56119L16.0608 7.8742C16.246 8.74241 16.2501 9.93728 16.2501 11.9998H17.7501ZM17.5277 7.56119C17.4376 7.13871 17.3089 6.75332 17.1234 6.38931L15.7869 7.07029C15.9034 7.29896 15.9931 7.55699 16.0608 7.8742L17.5277 7.56119ZM16.6827 6.94199L16.4768 7.03817L17.1116 8.39722L17.3175 8.30104L16.6827 6.94199ZM16.2501 11.9998C16.2501 14.0618 16.246 15.2566 16.0609 16.1248L17.5279 16.4377C17.7543 15.376 17.7501 13.9857 17.7501 11.9998H16.2501ZM16.0609 16.1248C15.9932 16.4423 15.9035 16.7004 15.7869 16.9292L17.1234 17.6102C17.309 17.246 17.4377 16.8604 17.5279 16.4377L16.0609 16.1248ZM17.3192 15.6992L17.1134 15.6025L16.4753 16.96L16.6811 17.0568L17.3192 15.6992Z" fill="black"/>
</g>
<defs>
<clipPath id="clip0_0_1">
<rect width="24" height="24" fill="black" transform="translate(-0.000366211 -0.000183105)"/>
</clipPath>
</defs>
</svg>
