<svg width="24" height="24" viewBox="0 0 24 24" fill="none" xmlns="http://www.w3.org/2000/svg">
<g clip-path="url(#clip0_0_1)">
<path d="M16.7929 7.71077C17.0003 8.67651 17.0003 9.9705 17.0003 11.9998C17.0003 14.0284 17.0003 15.3223 16.7931 16.2879M16.7929 7.71077C16.7141 7.34384 16.6054 7.02429 16.4553 6.7298C15.976 5.78899 15.2111 5.02409 14.2703 4.54472C13.2007 3.99976 11.8006 3.99976 9.00031 3.99976C6.20005 3.99976 4.79992 3.99976 3.73036 4.54472C2.78955 5.02409 2.02465 5.78899 1.54528 6.7298C1.00031 7.79936 1.00031 9.19949 1.00031 11.9998C1.00031 14.8 1.00031 16.2001 1.54528 17.2697C2.02465 18.2105 2.78955 18.9754 3.73036 19.4548C4.79992 19.9997 6.20005 19.9997 9.00031 19.9997C11.8006 19.9997 13.2007 19.9997 14.2703 19.4548C15.2111 18.9754 15.976 18.2105 16.4553 17.2697C16.6055 16.975 16.7143 16.6552 16.7931 16.2879M16.7929 7.71077L17.0003 7.62151L17.3987 7.44744C19.9265 6.34287 21.1905 5.79059 22.0954 6.38271C23.0003 6.97484 23.0003 8.35416 23.0003 11.1128V12.8867C23.0003 15.6453 23.0003 17.0247 22.0954 17.6168C21.1905 18.2089 19.9265 17.6566 17.3987 16.5521L17.0003 16.378L16.7931 16.2879M6.00031 11.9998C6.00031 10.214 6.00031 9.3211 6.35212 8.80494C6.65899 8.35472 7.13065 8.06444 7.64986 8.00627C8.24512 7.93958 8.97053 8.38602 10.4214 9.27891C11.8722 10.1718 12.5976 10.6182 12.8411 11.2011C13.0534 11.7095 13.0534 12.29 12.8411 12.7984C12.5976 13.3813 11.8722 13.8277 10.4214 14.7206C8.97053 15.6135 8.24512 16.0599 7.64986 15.9932C7.13065 15.9351 6.65899 15.6448 6.35212 15.1946C6.00031 14.6784 6.00031 13.7855 6.00031 11.9998Z" stroke="black" stroke-width="1.5"/>
</g>
<defs>
<clipPath id="clip0_0_1">
<rect width="24" height="24" fill="black" transform="translate(0.000488281 -0.000183105)"/>
</clipPath>
</defs>
</svg>
