<svg width="24" height="24" viewBox="0 0 24 24" fill="none" xmlns="http://www.w3.org/2000/svg">
<path d="M11.2496 21.9998C11.2496 22.414 11.5854 22.7498 11.9996 22.7498C12.4139 22.7498 12.7496 22.414 12.7496 21.9998H11.2496ZM9.99965 21.2498C9.58543 21.2498 9.24965 21.5856 9.24965 21.9998C9.24965 22.414 9.58543 22.7498 9.99965 22.7498V21.2498ZM13.9996 22.7498C14.4139 22.7498 14.7496 22.414 14.7496 21.9998C14.7496 21.5856 14.4139 21.2498 13.9996 21.2498V22.7498ZM1.99965 11.2498C1.58544 11.2498 1.24965 11.5856 1.24965 11.9998C1.24965 12.414 1.58544 12.7498 1.99965 12.7498V11.2498ZM2.74965 9.99981C2.74965 9.5856 2.41386 9.24981 1.99965 9.24981C1.58544 9.24981 1.24965 9.5856 1.24965 9.99981L2.74965 9.99981ZM1.24965 13.9998C1.24965 14.414 1.58544 14.7498 1.99965 14.7498C2.41386 14.7498 2.74965 14.414 2.74965 13.9998L1.24965 13.9998ZM21.9996 12.7498C22.4139 12.7498 22.7496 12.414 22.7496 11.9998C22.7496 11.5856 22.4139 11.2498 21.9996 11.2498V12.7498ZM21.2496 13.9998C21.2496 14.414 21.5854 14.7498 21.9996 14.7498C22.4139 14.7498 22.7496 14.414 22.7496 13.9998H21.2496ZM22.7496 9.99981C22.7496 9.5856 22.4139 9.24981 21.9996 9.24981C21.5854 9.24981 21.2496 9.5856 21.2496 9.99981H22.7496ZM12.7496 1.99982C12.7496 1.5856 12.4139 1.24982 11.9996 1.24982C11.5854 1.24982 11.2496 1.5856 11.2496 1.99982H12.7496ZM9.99965 1.24982C9.58543 1.24982 9.24965 1.5856 9.24965 1.99982C9.24965 2.41403 9.58543 2.74982 9.99965 2.74982L9.99965 1.24982ZM13.9996 2.74982C14.4139 2.74982 14.7496 2.41403 14.7496 1.99982C14.7496 1.5856 14.4139 1.24982 13.9996 1.24982L13.9996 2.74982ZM15.9994 15.9998L16.5297 15.4695L16.5097 15.4494L16.4881 15.4309L15.9994 15.9998ZM19.1258 20.187C19.4187 20.4799 19.8936 20.4799 20.1865 20.187C20.4794 19.8941 20.4794 19.4193 20.1865 19.1264L19.1258 20.187ZM17.712 20.5405C17.4191 20.8334 17.4191 21.3083 17.712 21.6012C18.0048 21.8941 18.4797 21.8941 18.7726 21.6012L17.712 20.5405ZM21.601 18.7728C21.8939 18.4799 21.8939 18.005 21.601 17.7121C21.3081 17.4192 20.8333 17.4192 20.5404 17.7121L21.601 18.7728ZM7.9997 7.99965L7.46937 8.52998L7.48945 8.55006L7.511 8.56857L7.9997 7.99965ZM4.94441 3.8837C4.65152 3.59081 4.17665 3.59081 3.88375 3.8837C3.59086 4.1766 3.59086 4.65147 3.88375 4.94436L4.94441 3.8837ZM6.35863 3.53015C6.65152 3.23726 6.65152 2.76238 6.35863 2.46949C6.06573 2.1766 5.59086 2.1766 5.29797 2.46949L6.35863 3.53015ZM2.46954 5.29792C2.17665 5.59081 2.17665 6.06568 2.46954 6.35858C2.76243 6.65147 3.23731 6.65147 3.5302 6.35858L2.46954 5.29792ZM15.9999 7.9998L16.4883 8.56894L16.5072 8.55273L16.525 8.5353L15.9999 7.9998ZM20.1817 4.94952C20.4775 4.65951 20.4821 4.18465 20.1921 3.88891C19.9021 3.59316 19.4272 3.58851 19.1315 3.87852L20.1817 4.94952ZM18.7726 2.46949C18.4797 2.1766 18.0048 2.1766 17.712 2.46949C17.4191 2.76238 17.4191 3.23726 17.712 3.53015L18.7726 2.46949ZM20.5404 6.35858C20.8333 6.65147 21.3081 6.65147 21.601 6.35858C21.8939 6.06568 21.8939 5.59081 21.601 5.29792L20.5404 6.35858ZM7.99988 15.9998L7.51118 15.4309L7.48682 15.4518L7.46434 15.4748L7.99988 15.9998ZM3.87889 19.1316C3.5889 19.4274 3.59359 19.9022 3.88935 20.1922C4.18512 20.4822 4.65997 20.4775 4.94996 20.1818L3.87889 19.1316ZM5.29797 21.6012C5.59086 21.8941 6.06573 21.8941 6.35863 21.6012C6.65152 21.3083 6.65152 20.8334 6.35863 20.5405L5.29797 21.6012ZM3.5302 17.7121C3.23731 17.4192 2.76243 17.4192 2.46954 17.7121C2.17665 18.005 2.17665 18.4799 2.46954 18.7728L3.5302 17.7121ZM8.49965 8.4291L9.02468 8.96467L8.49965 8.4291ZM15.4996 8.4291L14.9746 8.96467L15.4996 8.4291ZM15.4996 15.5705L14.9746 15.035L15.4996 15.5705ZM8.49965 15.5705L9.02468 15.035L8.49965 15.5705ZM11.2496 16.9998V21.9998H12.7496V16.9998H11.2496ZM9.99965 22.7498H13.9996V21.2498H9.99965V22.7498ZM6.99965 11.2498H1.99965V12.7498H6.99965V11.2498ZM1.24965 9.99981L1.24965 13.9998L2.74965 13.9998L2.74965 9.99981L1.24965 9.99981ZM16.9996 12.7498H21.9996V11.2498H16.9996V12.7498ZM22.7496 13.9998V9.99981H21.2496V13.9998H22.7496ZM12.7496 6.99981V1.99982H11.2496V6.99981H12.7496ZM9.99965 2.74982L13.9996 2.74982L13.9996 1.24982L9.99965 1.24982L9.99965 2.74982ZM15.4691 16.5301L19.1258 20.187L20.1865 19.1264L16.5297 15.4695L15.4691 16.5301ZM18.7726 21.6012L21.601 18.7728L20.5404 17.7121L17.712 20.5405L18.7726 21.6012ZM8.53003 7.46932L4.94441 3.8837L3.88375 4.94436L7.46937 8.52998L8.53003 7.46932ZM5.29797 2.46949L2.46954 5.29792L3.5302 6.35858L6.35863 3.53015L5.29797 2.46949ZM16.525 8.5353L20.1817 4.94952L19.1315 3.87852L15.4748 7.4643L16.525 8.5353ZM17.712 3.53015L20.5404 6.35858L21.601 5.29792L18.7726 2.46949L17.712 3.53015ZM7.46434 15.4748L3.87889 19.1316L4.94996 20.1818L8.53541 16.5249L7.46434 15.4748ZM6.35863 20.5405L3.5302 17.7121L2.46954 18.7728L5.29797 21.6012L6.35863 20.5405ZM7.74965 11.9998C7.74965 10.8108 8.23696 9.73689 9.02468 8.96467L7.97461 7.89352C6.91097 8.93623 6.24965 10.3915 6.24965 11.9998H7.74965ZM9.02468 8.96467C9.79204 8.21241 10.8411 7.74981 11.9996 7.74981V6.24981C10.4328 6.24981 9.011 6.87753 7.97461 7.89352L9.02468 8.96467ZM7.511 8.56857L8.01095 8.99802L8.98834 7.86017L8.4884 7.43073L7.511 8.56857ZM11.9996 7.74981C13.1582 7.74981 14.2072 8.21241 14.9746 8.96467L16.0247 7.89352C14.9883 6.87753 13.5665 6.24981 11.9996 6.24981V7.74981ZM14.9746 8.96467C15.7623 9.73689 16.2496 10.8108 16.2496 11.9998H17.7496C17.7496 10.3915 17.0883 8.93623 16.0247 7.89352L14.9746 8.96467ZM15.5114 7.43066L15.0112 7.85995L15.9881 8.99824L16.4883 8.56894L15.5114 7.43066ZM16.2496 11.9998C16.2496 13.1889 15.7623 14.2627 14.9746 15.035L16.0247 16.1061C17.0883 15.0634 17.7496 13.6082 17.7496 11.9998H16.2496ZM14.9746 15.035C14.2072 15.7872 13.1582 16.2498 11.9996 16.2498V17.7498C13.5665 17.7498 14.9883 17.1221 16.0247 16.1061L14.9746 15.035ZM16.4881 15.4309L15.9883 15.0016L15.0109 16.1394L15.5107 16.5687L16.4881 15.4309ZM11.9996 16.2498C10.8411 16.2498 9.79204 15.7872 9.02468 15.035L7.97461 16.1061C9.011 17.1221 10.4328 17.7498 11.9996 17.7498V16.2498ZM9.02468 15.035C8.23696 14.2627 7.74965 13.1889 7.74965 11.9998H6.24965C6.24965 13.6082 6.91097 15.0634 7.97461 16.1061L9.02468 15.035ZM8.48857 16.5687L8.98834 16.1394L8.01095 15.0016L7.51118 15.4309L8.48857 16.5687Z" fill="black"/>
</svg>
