<svg width="24" height="24" viewBox="0 0 24 24" fill="none" xmlns="http://www.w3.org/2000/svg">
<path d="M12.749 7.99957C12.749 7.58535 12.4132 7.24957 11.999 7.24957C11.5848 7.24957 11.249 7.58535 11.249 7.99957H12.749ZM11.249 15.9996C11.249 16.4138 11.5848 16.7496 11.999 16.7496C12.4132 16.7496 12.749 16.4138 12.749 15.9996H11.249ZM15.749 8.99956C15.749 8.58535 15.4132 8.24957 14.999 8.24957C14.5848 8.24957 14.249 8.58535 14.249 8.99956H15.749ZM14.249 14.9996C14.249 15.4138 14.5848 15.7496 14.999 15.7496C15.4132 15.7496 15.749 15.4138 15.749 14.9996H14.249ZM18.749 10.9996C18.749 10.5854 18.4132 10.2496 17.999 10.2496C17.5848 10.2496 17.249 10.5854 17.249 10.9996H18.749ZM17.249 12.9996C17.249 13.4138 17.5848 13.7496 17.999 13.7496C18.4132 13.7496 18.749 13.4138 18.749 12.9996H17.249ZM9.74897 8.99956C9.74897 8.58535 9.41319 8.24957 8.99897 8.24957C8.58476 8.24957 8.24898 8.58535 8.24898 8.99956L9.74897 8.99956ZM8.24898 14.9996C8.24898 15.4138 8.58476 15.7496 8.99898 15.7496C9.41319 15.7496 9.74897 15.4138 9.74897 14.9996L8.24898 14.9996ZM6.74898 10.9996C6.74898 10.5854 6.41319 10.2496 5.99898 10.2496C5.58476 10.2496 5.24898 10.5854 5.24898 10.9996L6.74898 10.9996ZM5.24898 12.9996C5.24898 13.4138 5.58476 13.7496 5.99898 13.7496C6.41319 13.7496 6.74898 13.4138 6.74898 12.9996L5.24898 12.9996ZM20.974 16.895L20.3067 16.5527L20.974 16.895ZM20.7261 17.3245L21.3562 17.7312L21.3562 17.7312L20.7261 17.3245ZM20.7261 6.67467L21.3562 6.26793L20.7261 6.67467ZM20.974 7.10411L20.3067 7.44644L20.3067 7.44644L20.974 7.10411ZM11.751 1.77922L11.7138 1.03015L11.751 1.77922ZM12.2469 1.77922L12.2097 2.5283L12.2469 1.77922ZM3.02393 7.10411L3.69124 7.44645L3.02393 7.10411ZM3.27186 6.67467L2.64174 6.26793L2.64174 6.26793L3.27186 6.67467ZM3.27187 17.3245L2.64174 17.7312L3.27187 17.3245ZM3.02393 16.895L3.69124 16.5527L3.02393 16.895ZM11.751 22.2199L11.7882 21.4708L11.751 22.2199ZM12.2469 22.2199L12.2841 22.969L12.2469 22.2199ZM11.249 7.99957V15.9996H12.749V7.99957H11.249ZM14.249 8.99956V14.9996H15.749V8.99956H14.249ZM17.249 10.9996V12.9996H18.749V10.9996H17.249ZM8.24898 8.99956L8.24898 14.9996L9.74897 14.9996L9.74897 8.99956L8.24898 8.99956ZM5.24898 10.9996L5.24898 12.9996L6.74898 12.9996L6.74898 10.9996L5.24898 10.9996ZM20.7752 11.9996C20.7752 13.2864 20.7746 14.2027 20.7093 14.9328C20.6454 15.6486 20.5228 16.1315 20.3067 16.5527L21.6413 17.2373C21.9765 16.584 22.1295 15.8928 22.2034 15.0663C22.2759 14.2542 22.2752 13.2601 22.2752 11.9996L20.7752 11.9996ZM17.1371 20.8991C18.2287 20.2688 19.09 19.7724 19.7571 19.3035C20.4359 18.8263 20.958 18.3481 21.3562 17.7312L20.096 16.9177C19.8392 17.3155 19.4824 17.663 18.8944 18.0763C18.2947 18.4979 17.5015 18.9566 16.3871 19.6L17.1371 20.8991ZM20.3067 16.5527C20.2425 16.6778 20.1722 16.7996 20.096 16.9177L21.3562 17.7312C21.4594 17.5714 21.5545 17.4066 21.6413 17.2373L20.3067 16.5527ZM16.3871 4.39909C17.5015 5.04248 18.2947 5.50125 18.8944 5.92281C19.4824 6.33611 19.8392 6.68368 20.096 7.08142L21.3562 6.26793C20.958 5.65102 20.4359 5.17286 19.7571 4.69568C19.09 4.22675 18.2287 3.7303 17.1371 3.10005L16.3871 4.39909ZM22.2752 11.9996C22.2752 10.7391 22.2759 9.74496 22.2034 8.93281C22.1295 8.10635 21.9765 7.4151 21.6413 6.76178L20.3067 7.44644C20.5228 7.86766 20.6454 8.35049 20.7093 9.06631C20.7746 9.79643 20.7752 10.7128 20.7752 11.9996L22.2752 11.9996ZM20.096 7.08142C20.1722 7.19953 20.2425 7.32136 20.3067 7.44644L21.6413 6.76178C21.5545 6.59255 21.4594 6.42773 21.3562 6.26793L20.096 7.08142ZM7.61083 4.39909C8.72522 3.75569 9.51915 3.29812 10.1841 2.98955C10.836 2.68704 11.3154 2.55177 11.7882 2.5283L11.7138 1.03015C10.9805 1.06656 10.3053 1.27965 9.55266 1.62892C8.81303 1.97215 7.95245 2.4698 6.86083 3.10005L7.61083 4.39909ZM17.1371 3.10005C16.0455 2.4698 15.1849 1.97215 14.4453 1.62892C13.6926 1.27965 13.0175 1.06656 12.2841 1.03015L12.2097 2.5283C12.6825 2.55177 13.162 2.68704 13.8139 2.98955C14.4788 3.29811 15.2727 3.75569 16.3871 4.39909L17.1371 3.10005ZM11.7882 2.5283C11.9286 2.52133 12.0693 2.52133 12.2097 2.5283L12.2841 1.03015C12.0941 1.02071 11.9038 1.02071 11.7138 1.03015L11.7882 2.5283ZM3.2227 11.9996C3.2227 10.7128 3.22338 9.79643 3.28862 9.06631C3.35258 8.35049 3.47516 7.86766 3.69124 7.44645L2.35661 6.76178C2.02146 7.4151 1.86842 8.10635 1.79458 8.93281C1.72201 9.74496 1.7227 10.7391 1.7227 11.9996L3.2227 11.9996ZM6.86083 3.10005C5.76921 3.7303 4.90795 4.22676 4.24089 4.69568C3.56208 5.17286 3.03995 5.65102 2.64174 6.26793L3.90199 7.08142C4.15873 6.68368 4.51559 6.33611 5.10352 5.92281C5.70321 5.50125 6.49644 5.04248 7.61083 4.39909L6.86083 3.10005ZM3.69124 7.44645C3.75541 7.32136 3.82575 7.19953 3.90199 7.08142L2.64174 6.26793C2.53859 6.42773 2.44343 6.59255 2.35661 6.76178L3.69124 7.44645ZM7.61084 19.6C6.49644 18.9566 5.70321 18.4979 5.10352 18.0763C4.51559 17.663 4.15873 17.3155 3.90199 16.9177L2.64174 17.7312C3.03995 18.3481 3.56208 18.8263 4.24089 19.3035C4.90795 19.7724 5.76922 20.2688 6.86084 20.8991L7.61084 19.6ZM1.7227 11.9996C1.7227 13.2601 1.72201 14.2542 1.79458 15.0663C1.86842 15.8928 2.02147 16.584 2.35661 17.2373L3.69124 16.5527C3.47516 16.1315 3.35258 15.6486 3.28862 14.9328C3.22338 14.2027 3.2227 13.2864 3.2227 11.9996L1.7227 11.9996ZM3.90199 16.9177C3.82575 16.7996 3.75541 16.6778 3.69124 16.5527L2.35661 17.2373C2.44343 17.4066 2.53859 17.5714 2.64174 17.7312L3.90199 16.9177ZM6.86084 20.8991C7.95245 21.5293 8.81304 22.027 9.55266 22.3702C10.3053 22.7195 10.9805 22.9326 11.7138 22.969L11.7882 21.4708C11.3154 21.4474 10.836 21.3121 10.1841 21.0096C9.51915 20.701 8.72523 20.2434 7.61084 19.6L6.86084 20.8991ZM16.3871 19.6C15.2727 20.2434 14.4788 20.701 13.8139 21.0096C13.162 21.3121 12.6825 21.4474 12.2097 21.4708L12.2841 22.969C13.0175 22.9326 13.6926 22.7195 14.4453 22.3702C15.1849 22.027 16.0455 21.5293 17.1371 20.8991L16.3871 19.6ZM11.7138 22.969C11.9038 22.9784 12.0941 22.9784 12.2841 22.969L12.2097 21.4708C12.0693 21.4778 11.9286 21.4778 11.7882 21.4708L11.7138 22.969Z" fill="black"/>
</svg>
