<svg width="24" height="24" viewBox="0 0 24 24" fill="none" xmlns="http://www.w3.org/2000/svg">
<path d="M12.7501 7.99981C12.7501 7.5856 12.4143 7.24981 12.0001 7.24981C11.5859 7.24981 11.2501 7.5856 11.2501 7.99981H12.7501ZM11.2501 15.9998C11.2501 16.414 11.5859 16.7498 12.0001 16.7498C12.4143 16.7498 12.7501 16.414 12.7501 15.9998H11.2501ZM15.7501 8.99981C15.7501 8.5856 15.4143 8.24981 15.0001 8.24981C14.5859 8.24981 14.2501 8.5856 14.2501 8.99981H15.7501ZM14.2501 14.9998C14.2501 15.414 14.5859 15.7498 15.0001 15.7498C15.4143 15.7498 15.7501 15.414 15.7501 14.9998H14.2501ZM18.7501 10.9998C18.7501 10.5856 18.4143 10.2498 18.0001 10.2498C17.5859 10.2498 17.2501 10.5856 17.2501 10.9998H18.7501ZM17.2501 12.9998C17.2501 13.414 17.5859 13.7498 18.0001 13.7498C18.4143 13.7498 18.7501 13.414 18.7501 12.9998H17.2501ZM9.75012 8.99981C9.75012 8.5856 9.41433 8.24981 9.00012 8.24981C8.58591 8.24981 8.25012 8.5856 8.25012 8.99981L9.75012 8.99981ZM8.25012 14.9998C8.25012 15.414 8.58591 15.7498 9.00012 15.7498C9.41433 15.7498 9.75012 15.414 9.75012 14.9998L8.25012 14.9998ZM6.75012 10.9998C6.75012 10.5856 6.41433 10.2498 6.00012 10.2498C5.58591 10.2498 5.25012 10.5856 5.25012 10.9998H6.75012ZM5.25012 12.9998C5.25012 13.414 5.58591 13.7498 6.00012 13.7498C6.41433 13.7498 6.75012 13.414 6.75012 12.9998H5.25012ZM11.2501 7.99981V15.9998H12.7501V7.99981H11.2501ZM14.2501 8.99981V14.9998H15.7501V8.99981H14.2501ZM17.2501 10.9998V12.9998H18.7501V10.9998H17.2501ZM8.25012 8.99981L8.25012 14.9998L9.75012 14.9998L9.75012 8.99981L8.25012 8.99981ZM5.25012 10.9998V12.9998H6.75012V10.9998H5.25012ZM21.2501 11.9998C21.2501 17.1084 17.1087 21.2498 12.0001 21.2498V22.7498C17.9372 22.7498 22.7501 17.9369 22.7501 11.9998H21.2501ZM12.0001 21.2498C6.89149 21.2498 2.75012 17.1084 2.75012 11.9998H1.25012C1.25012 17.9369 6.06306 22.7498 12.0001 22.7498V21.2498ZM2.75012 11.9998C2.75012 6.89118 6.89149 2.74982 12.0001 2.74982V1.24982C6.06306 1.24982 1.25012 6.06275 1.25012 11.9998H2.75012ZM12.0001 2.74982C17.1087 2.74982 21.2501 6.89118 21.2501 11.9998H22.7501C22.7501 6.06275 17.9372 1.24982 12.0001 1.24982V2.74982Z" fill="black"/>
</svg>
