<svg width="24" height="24" viewBox="0 0 24 24" fill="none" xmlns="http://www.w3.org/2000/svg">
<path d="M12.7501 8.00043C12.7501 7.58622 12.4143 7.25043 12.0001 7.25043C11.5859 7.25043 11.2501 7.58622 11.2501 8.00043H12.7501ZM11.2501 16.0004C11.2501 16.4146 11.5859 16.7504 12.0001 16.7504C12.4143 16.7504 12.7501 16.4146 12.7501 16.0004H11.2501ZM15.7501 9.00043C15.7501 8.58622 15.4143 8.25043 15.0001 8.25043C14.5859 8.25043 14.2501 8.58622 14.2501 9.00043H15.7501ZM14.2501 15.0004C14.2501 15.4146 14.5859 15.7504 15.0001 15.7504C15.4143 15.7504 15.7501 15.4146 15.7501 15.0004H14.2501ZM18.7501 11.0004C18.7501 10.5862 18.4143 10.2504 18.0001 10.2504C17.5859 10.2504 17.2501 10.5862 17.2501 11.0004H18.7501ZM17.2501 13.0004C17.2501 13.4146 17.5859 13.7504 18.0001 13.7504C18.4143 13.7504 18.7501 13.4146 18.7501 13.0004H17.2501ZM9.75012 9.00043C9.75012 8.58622 9.41433 8.25043 9.00012 8.25043C8.58591 8.25043 8.25012 8.58622 8.25012 9.00043L9.75012 9.00043ZM8.25012 15.0004C8.25012 15.4146 8.58591 15.7504 9.00012 15.7504C9.41433 15.7504 9.75012 15.4146 9.75012 15.0004L8.25012 15.0004ZM6.75012 11.0004C6.75012 10.5862 6.41433 10.2504 6.00012 10.2504C5.58591 10.2504 5.25012 10.5862 5.25012 11.0004L6.75012 11.0004ZM5.25012 13.0004C5.25012 13.4146 5.58591 13.7504 6.00012 13.7504C6.41433 13.7504 6.75012 13.4146 6.75012 13.0004L5.25012 13.0004ZM16.8956 3.02538L17.2379 2.35807L17.2379 2.35807L16.8956 3.02538ZM17.325 3.27332L16.9183 3.90344L16.9183 3.90344L17.325 3.27332ZM6.67523 3.27332L6.26848 2.6432L6.67523 3.27332ZM7.10467 3.02538L6.76234 2.35807L6.76234 2.35807L7.10467 3.02538ZM1.77978 12.2484L2.52885 12.2112L1.77978 12.2484ZM1.77978 11.7525L1.0307 11.7153L1.77978 11.7525ZM7.10467 20.9755L6.76234 21.6428L6.76234 21.6428L7.10467 20.9755ZM6.67523 20.7275L7.08197 20.0974L7.08197 20.0974L6.67523 20.7275ZM17.325 20.7275L17.7318 21.3577L17.325 20.7275ZM16.8956 20.9755L17.2379 21.6428L17.2379 21.6428L16.8956 20.9755ZM22.2205 12.2484L22.9695 12.2856L22.2205 12.2484ZM22.2205 11.7525L21.4714 11.7897L22.2205 11.7525ZM11.2501 8.00043V16.0004H12.7501V8.00043H11.2501ZM14.2501 9.00043V15.0004H15.7501V9.00043H14.2501ZM17.2501 11.0004V13.0004H18.7501V11.0004H17.2501ZM8.25012 9.00043L8.25012 15.0004L9.75012 15.0004L9.75012 9.00043L8.25012 9.00043ZM5.25012 11.0004L5.25012 13.0004L6.75012 13.0004L6.75012 11.0004L5.25012 11.0004ZM12.0001 3.22415C13.2869 3.22415 14.2033 3.22484 14.9334 3.29008C15.6492 3.35404 16.132 3.47661 16.5532 3.6927L17.2379 2.35807C16.5846 2.02292 15.8933 1.86988 15.0669 1.79603C14.2547 1.72346 13.2606 1.72415 12.0001 1.72415L12.0001 3.22415ZM20.8996 6.86229C20.2694 5.77067 19.7729 4.9094 19.304 4.24234C18.8268 3.56353 18.3487 3.04141 17.7318 2.6432L16.9183 3.90344C17.316 4.16019 17.6636 4.51704 18.0769 5.10498C18.4984 5.70466 18.9572 6.4979 19.6006 7.61229L20.8996 6.86229ZM16.5532 3.6927C16.6783 3.75687 16.8001 3.8272 16.9183 3.90344L17.7318 2.6432C17.572 2.54004 17.4071 2.44488 17.2379 2.35807L16.5532 3.6927ZM4.39964 7.61229C5.04303 6.4979 5.5018 5.70466 5.92336 5.10498C6.33666 4.51704 6.68423 4.16019 7.08197 3.90344L6.26848 2.6432C5.65158 3.04141 5.17341 3.56353 4.69623 4.24234C4.22731 4.9094 3.73085 5.77067 3.1006 6.86229L4.39964 7.61229ZM12.0001 1.72415C10.7396 1.72415 9.74551 1.72346 8.93336 1.79603C8.10691 1.86988 7.41565 2.02292 6.76234 2.35807L7.447 3.6927C7.86822 3.47661 8.35105 3.35404 9.06686 3.29008C9.79698 3.22484 10.7133 3.22415 12.0001 3.22415L12.0001 1.72415ZM7.08197 3.90344C7.20009 3.8272 7.32191 3.75687 7.447 3.6927L6.76234 2.35807C6.5931 2.44488 6.42828 2.54004 6.26848 2.6432L7.08197 3.90344ZM4.39964 16.3886C3.75625 15.2742 3.29867 14.4803 2.99011 13.8153C2.68759 13.1634 2.55233 12.684 2.52885 12.2112L1.0307 12.2856C1.06711 13.0189 1.2802 13.6941 1.62947 14.4467C1.9727 15.1864 2.47036 16.0469 3.1006 17.1386L4.39964 16.3886ZM3.1006 6.86229C2.47036 7.95391 1.9727 8.81449 1.62947 9.55412C1.2802 10.3068 1.06711 10.9819 1.0307 11.7153L2.52885 11.7897C2.55233 11.3169 2.68759 10.8374 2.99011 10.1855C3.29867 9.52061 3.75625 8.72668 4.39964 7.61229L3.1006 6.86229ZM2.52885 12.2112C2.52188 12.0708 2.52188 11.9301 2.52885 11.7897L1.0307 11.7153C1.02127 11.9053 1.02127 12.0956 1.0307 12.2856L2.52885 12.2112ZM12.0001 20.7767C10.7133 20.7767 9.79698 20.776 9.06686 20.7108C8.35104 20.6468 7.86821 20.5242 7.447 20.3082L6.76234 21.6428C7.41565 21.9779 8.1069 22.131 8.93336 22.2048C9.74551 22.2774 10.7396 22.2767 12.0001 22.2767L12.0001 20.7767ZM3.1006 17.1386C3.73085 18.2302 4.22731 19.0915 4.69623 19.7585C5.17341 20.4373 5.65158 20.9594 6.26848 21.3577L7.08197 20.0974C6.68423 19.8407 6.33666 19.4838 5.92336 18.8959C5.5018 18.2962 5.04303 17.503 4.39964 16.3886L3.1006 17.1386ZM7.447 20.3082C7.32191 20.244 7.20009 20.1737 7.08197 20.0974L6.26848 21.3577C6.42828 21.4608 6.5931 21.556 6.76234 21.6428L7.447 20.3082ZM19.6006 16.3886C18.9572 17.503 18.4984 18.2962 18.0769 18.8959C17.6636 19.4838 17.316 19.8407 16.9183 20.0974L17.7318 21.3577C18.3487 20.9594 18.8268 20.4373 19.304 19.7585C19.7729 19.0915 20.2694 18.2302 20.8996 17.1386L19.6006 16.3886ZM12.0001 22.2767C13.2606 22.2767 14.2547 22.2774 15.0669 22.2048C15.8933 22.131 16.5846 21.9779 17.2379 21.6428L16.5532 20.3082C16.132 20.5242 15.6492 20.6468 14.9334 20.7108C14.2033 20.776 13.2869 20.7767 12.0001 20.7767L12.0001 22.2767ZM16.9183 20.0974C16.8001 20.1737 16.6783 20.244 16.5532 20.3082L17.2379 21.6428C17.4071 21.556 17.572 21.4608 17.7318 21.3577L16.9183 20.0974ZM20.8996 17.1386C21.5299 16.0469 22.0275 15.1864 22.3708 14.4467C22.72 13.6941 22.9331 13.0189 22.9695 12.2856L21.4714 12.2112C21.4479 12.684 21.3126 13.1634 21.0101 13.8153C20.7016 14.4803 20.244 15.2742 19.6006 16.3886L20.8996 17.1386ZM19.6006 7.61229C20.244 8.72668 20.7016 9.52061 21.0101 10.1855C21.3126 10.8374 21.4479 11.3169 21.4714 11.7897L22.9695 11.7153C22.9331 10.9819 22.72 10.3068 22.3708 9.55412C22.0275 8.81449 21.5299 7.95391 20.8996 6.86229L19.6006 7.61229ZM22.9695 12.2856C22.979 12.0956 22.979 11.9053 22.9695 11.7153L21.4714 11.7897C21.4784 11.9301 21.4784 12.0708 21.4714 12.2112L22.9695 12.2856Z" fill="black"/>
</svg>
