<svg width="24" height="24" viewBox="0 0 24 24" fill="none" xmlns="http://www.w3.org/2000/svg">
<path d="M12.7499 7.99957C12.7499 7.58536 12.4141 7.24957 11.9999 7.24957C11.5857 7.24957 11.2499 7.58536 11.2499 7.99957H12.7499ZM11.2499 15.9996C11.2499 16.4138 11.5857 16.7496 11.9999 16.7496C12.4141 16.7496 12.7499 16.4138 12.7499 15.9996H11.2499ZM15.7499 8.99957C15.7499 8.58536 15.4141 8.24957 14.9999 8.24957C14.5857 8.24957 14.2499 8.58536 14.2499 8.99957H15.7499ZM14.2499 14.9996C14.2499 15.4138 14.5857 15.7496 14.9999 15.7496C15.4141 15.7496 15.7499 15.4138 15.7499 14.9996H14.2499ZM18.7499 10.9996C18.7499 10.5854 18.4141 10.2496 17.9999 10.2496C17.5857 10.2496 17.2499 10.5854 17.2499 10.9996H18.7499ZM17.2499 12.9996C17.2499 13.4138 17.5857 13.7496 17.9999 13.7496C18.4141 13.7496 18.7499 13.4138 18.7499 12.9996H17.2499ZM9.74992 8.99957C9.74992 8.58536 9.41413 8.24957 8.99992 8.24957C8.58571 8.24957 8.24992 8.58536 8.24992 8.99957L9.74992 8.99957ZM8.24992 14.9996C8.24992 15.4138 8.58571 15.7496 8.99992 15.7496C9.41414 15.7496 9.74992 15.4138 9.74992 14.9996L8.24992 14.9996ZM6.74992 10.9996C6.74992 10.5854 6.41414 10.2496 5.99992 10.2496C5.58571 10.2496 5.24992 10.5854 5.24992 10.9996L6.74992 10.9996ZM5.24992 12.9996C5.24992 13.4138 5.58571 13.7496 5.99992 13.7496C6.41414 13.7496 6.74992 13.4138 6.74992 12.9996L5.24992 12.9996ZM5.061 20.0447L5.50184 19.4379L5.061 20.0447ZM3.95484 18.9385L4.5616 18.4977L3.95484 18.9385ZM20.045 18.9385L19.4382 18.4977L20.045 18.9385ZM18.9388 20.0447L18.498 19.4379L18.9388 20.0447ZM18.9388 3.95449L18.498 4.56125L18.9388 3.95449ZM20.045 5.06065L19.4382 5.50148L20.045 5.06065ZM5.061 3.95449L5.50184 4.56125L5.061 3.95449ZM3.95484 5.06065L4.5616 5.50148L3.95484 5.06065ZM11.2499 7.99957V15.9996H12.7499V7.99957H11.2499ZM14.2499 8.99957V14.9996H15.7499V8.99957H14.2499ZM17.2499 10.9996V12.9996H18.7499V10.9996H17.2499ZM8.24992 8.99957L8.24992 14.9996L9.74992 14.9996L9.74992 8.99957L8.24992 8.99957ZM5.24992 10.9996L5.24992 12.9996L6.74992 12.9996L6.74992 10.9996L5.24992 10.9996ZM11.9999 20.2496C10.1083 20.2496 8.74991 20.2485 7.69797 20.1346C6.66006 20.0221 6.00984 19.807 5.50184 19.4379L4.62016 20.6514C5.42648 21.2372 6.37086 21.4996 7.5364 21.6258C8.6879 21.7506 10.1418 21.7496 11.9999 21.7496V20.2496ZM2.24992 11.9996C2.24992 13.8577 2.24889 15.3116 2.37365 16.4631C2.49993 17.6286 2.76225 18.573 3.34808 19.3793L4.5616 18.4977C4.19251 17.9896 3.97737 17.3394 3.86492 16.3015C3.75095 15.2496 3.74992 13.8911 3.74992 11.9996H2.24992ZM5.50184 19.4379C5.14103 19.1758 4.82374 18.8585 4.5616 18.4977L3.34808 19.3793C3.70273 19.8675 4.13201 20.2968 4.62016 20.6514L5.50184 19.4379ZM20.2499 11.9996C20.2499 13.8911 20.2489 15.2496 20.1349 16.3015C20.0225 17.3394 19.8073 17.9896 19.4382 18.4977L20.6518 19.3793C21.2376 18.573 21.4999 17.6286 21.6262 16.4631C21.7509 15.3116 21.7499 13.8577 21.7499 11.9996H20.2499ZM11.9999 21.7496C13.8581 21.7496 15.3119 21.7506 16.4634 21.6258C17.629 21.4996 18.5734 21.2372 19.3797 20.6514L18.498 19.4379C17.99 19.807 17.3398 20.0221 16.3019 20.1346C15.2499 20.2485 13.8915 20.2496 11.9999 20.2496V21.7496ZM19.4382 18.4977C19.1761 18.8585 18.8588 19.1758 18.498 19.4379L19.3797 20.6514C19.8678 20.2968 20.2971 19.8675 20.6518 19.3793L19.4382 18.4977ZM11.9999 3.74957C13.8915 3.74957 15.2499 3.7506 16.3019 3.86457C17.3398 3.97702 17.99 4.19216 18.498 4.56125L19.3797 3.34772C18.5734 2.7619 17.629 2.49958 16.4634 2.3733C15.3119 2.24854 13.8581 2.24957 11.9999 2.24957V3.74957ZM21.7499 11.9996C21.7499 10.1414 21.7509 8.68755 21.6262 7.53605C21.4999 6.37051 21.2376 5.42613 20.6518 4.61981L19.4382 5.50148C19.8073 6.00949 20.0225 6.6597 20.1349 7.69762C20.2489 8.74956 20.2499 10.108 20.2499 11.9996H21.7499ZM18.498 4.56125C18.8588 4.82339 19.1761 5.14068 19.4382 5.50148L20.6518 4.61981C20.2971 4.13166 19.8678 3.70238 19.3797 3.34772L18.498 4.56125ZM11.9999 2.24957C10.1418 2.24957 8.6879 2.24854 7.5364 2.3733C6.37086 2.49958 5.42648 2.7619 4.62016 3.34772L5.50184 4.56125C6.00984 4.19216 6.66006 3.97702 7.69797 3.86457C8.74991 3.7506 10.1083 3.74957 11.9999 3.74957V2.24957ZM3.74992 11.9996C3.74992 10.108 3.75095 8.74956 3.86492 7.69762C3.97737 6.6597 4.19251 6.00949 4.5616 5.50148L3.34808 4.61981C2.76225 5.42613 2.49993 6.37051 2.37365 7.53605C2.24889 8.68755 2.24992 10.1414 2.24992 11.9996H3.74992ZM4.62016 3.34772C4.13201 3.70238 3.70273 4.13166 3.34808 4.61981L4.5616 5.50148C4.82374 5.14068 5.14103 4.82339 5.50184 4.56125L4.62016 3.34772Z" fill="black"/>
</svg>
