<svg width="24" height="24" viewBox="0 0 24 24" fill="none" xmlns="http://www.w3.org/2000/svg">
<path d="M5.99985 11.1575C5.99985 10.8939 5.99985 10.7622 6.01225 10.6513C6.11614 9.72286 6.84898 8.99002 7.77744 8.88613C7.8883 8.87373 8.02007 8.87373 8.28361 8.87373C8.53489 8.87373 8.66054 8.87373 8.78267 8.86775C9.77458 8.81921 10.7296 8.47638 11.5259 7.88298C11.6239 7.80992 11.7209 7.73001 11.9148 7.57019L12.9108 6.74932C15.333 4.75303 16.544 3.75488 17.5595 4.05085C17.761 4.1096 17.9521 4.19971 18.1256 4.31789C18.9998 4.91325 18.9998 6.48266 18.9998 9.62146V13.8403C18.9998 16.9791 18.9998 18.5485 18.1256 19.1439C17.9521 19.262 17.761 19.3521 17.5595 19.4109C16.544 19.7069 15.333 18.7087 12.9108 16.7124L11.9148 15.8915C11.7209 15.7317 11.6239 15.6518 11.5259 15.5788C10.7296 14.9854 9.77458 14.6425 8.78267 14.594C8.66054 14.588 8.53489 14.588 8.28361 14.588C8.02007 14.588 7.8883 14.588 7.77744 14.5756C6.84898 14.4717 6.11614 13.7389 6.01225 12.8104C5.99985 12.6996 5.99985 12.5678 5.99985 12.3043V11.1575Z" stroke="black" stroke-width="1.5"/>
</svg>
