<svg width="24" height="24" viewBox="0 0 24 24" fill="none" xmlns="http://www.w3.org/2000/svg">
<path d="M8.91488 15.8915L9.39188 15.3128L9.39188 15.3128L8.91488 15.8915ZM8.52596 15.5788L8.07782 16.1801L8.52596 15.5788ZM5.78274 14.594L5.74608 15.3431L5.78274 14.594ZM5.78274 8.86775L5.74608 8.11865L5.78274 8.86775ZM8.91488 7.57019L9.39189 8.14895L9.39189 8.14895L8.91488 7.57019ZM8.52596 7.88298L8.97411 8.48437L8.52596 7.88298ZM3.01233 12.8104L2.26698 12.8938L3.01233 12.8104ZM4.77752 14.5756L4.69412 15.321L4.77752 14.5756ZM15.1257 19.1439L14.7035 18.524L14.7035 18.524L15.1257 19.1439ZM9.91087 16.7124L9.43387 17.2912L9.43387 17.2912L9.91087 16.7124ZM14.5596 19.4109L14.3497 18.6908L14.5596 19.4109ZM15.1257 4.31789L15.5479 3.69799L15.1257 4.31789ZM9.91087 6.74932L9.43387 6.17055L9.43387 6.17055L9.91087 6.74932ZM14.5596 4.05085L14.3497 4.77089L14.5596 4.05085ZM3.01233 10.6513L2.26698 10.5679L3.01233 10.6513ZM4.77752 8.88613L4.69412 8.14078L4.77752 8.88613ZM20.3999 15.3309L19.8696 14.8005L19.8696 14.8005L20.3999 15.3309ZM19.4696 15.2005C19.1767 15.4934 19.1767 15.9683 19.4696 16.2612C19.7625 16.5541 20.2374 16.5541 20.5302 16.2612L19.4696 15.2005ZM20.5302 7.20054C20.2374 6.90765 19.7625 6.90765 19.4696 7.20054C19.1767 7.49344 19.1767 7.96831 19.4696 8.2612L20.5302 7.20054ZM20.3999 8.13087L19.8696 8.6612L19.8696 8.6612L20.3999 8.13087ZM20.5147 15.2154L21.0525 15.7381L21.0525 15.7381L20.5147 15.2154ZM20.5147 8.24633L21.0525 7.72365L21.0525 7.72365L20.5147 8.24633ZM15.2499 9.62146V13.8403H16.7499V9.62146H15.2499ZM3.74992 12.3043V11.1575H2.24992V12.3043H3.74992ZM9.39189 8.14895L10.3879 7.32808L9.43387 6.17055L8.43788 6.99143L9.39189 8.14895ZM10.3879 16.1337L9.39188 15.3128L8.43788 16.4703L9.43387 17.2912L10.3879 16.1337ZM9.39188 15.3128C9.20352 15.1575 9.09026 15.0639 8.97411 14.9774L8.07782 16.1801C8.15776 16.2397 8.23841 16.3059 8.43788 16.4703L9.39188 15.3128ZM5.28368 15.338C5.54216 15.338 5.64651 15.3382 5.74608 15.3431L5.8194 13.8449C5.67472 13.8378 5.52778 13.838 5.28368 13.838V15.338ZM8.97411 14.9774C8.05834 14.295 6.9601 13.9007 5.8194 13.8449L5.74608 15.3431C6.58921 15.3844 7.40095 15.6758 8.07782 16.1801L8.97411 14.9774ZM5.28368 9.62373C5.52778 9.62373 5.67472 9.62394 5.8194 9.61685L5.74608 8.11865C5.64651 8.12352 5.54216 8.12373 5.28368 8.12373V9.62373ZM8.43788 6.99143C8.23841 7.15582 8.15776 7.22203 8.07782 7.2816L8.97411 8.48437C9.09026 8.39782 9.20352 8.3042 9.39189 8.14895L8.43788 6.99143ZM5.8194 9.61685C6.9601 9.56103 8.05834 9.16678 8.97411 8.48437L8.07782 7.2816C7.40095 7.78599 6.58921 8.07739 5.74608 8.11865L5.8194 9.61685ZM2.24992 12.3043C2.24992 12.5475 2.24875 12.7309 2.26698 12.8938L3.75768 12.727C3.7511 12.6682 3.74992 12.5881 3.74992 12.3043H2.24992ZM5.28368 13.838C4.99988 13.838 4.91973 13.8368 4.86092 13.8303L4.69412 15.321C4.85702 15.3392 5.04041 15.338 5.28368 15.338V13.838ZM2.26698 12.8938C2.40983 14.1705 3.41748 15.1781 4.69412 15.321L4.86092 13.8303C4.28063 13.7653 3.82261 13.3073 3.75768 12.727L2.26698 12.8938ZM15.2499 13.8403C15.2499 15.4314 15.2484 16.5508 15.1466 17.3512C15.0429 18.1669 14.8589 18.4182 14.7035 18.524L15.5479 19.7638C16.2668 19.2742 16.5198 18.4431 16.6346 17.5405C16.7514 16.6226 16.7499 15.3879 16.7499 13.8403H15.2499ZM9.43387 17.2912C10.6282 18.2755 11.58 19.0619 12.3626 19.5556C13.1321 20.041 13.9344 20.3743 14.7694 20.1309L14.3497 18.6908C14.1693 18.7434 13.8583 18.7256 13.1629 18.2869C12.4805 17.8564 11.6158 17.1456 10.3879 16.1337L9.43387 17.2912ZM14.7035 18.524C14.5951 18.5978 14.4757 18.6541 14.3497 18.6908L14.7694 20.1309C15.0466 20.0501 15.3093 19.9262 15.5479 19.7638L14.7035 18.524ZM16.7499 9.62146C16.7499 8.07382 16.7514 6.8391 16.6346 5.92125C16.5198 5.01865 16.2668 4.18758 15.5479 3.69799L14.7035 4.93779C14.8589 5.04357 15.0429 5.29487 15.1466 6.11052C15.2484 6.91091 15.2499 8.0303 15.2499 9.62146H16.7499ZM10.3879 7.32808C11.6158 6.3161 12.4805 5.6053 13.1629 5.17481C13.8583 4.73612 14.1693 4.71831 14.3497 4.77089L14.7694 3.33081C13.9344 3.08743 13.1321 3.4207 12.3626 3.90616C11.58 4.39983 10.6282 5.18625 9.43387 6.17055L10.3879 7.32808ZM15.5479 3.69799C15.3093 3.5355 15.0466 3.41159 14.7694 3.33081L14.3497 4.77089C14.4757 4.80761 14.5951 4.86393 14.7035 4.93779L15.5479 3.69799ZM3.74992 11.1575C3.74992 10.8737 3.7511 10.7935 3.75768 10.7347L2.26698 10.5679C2.24875 10.7308 2.24992 10.9142 2.24992 11.1575H3.74992ZM5.28368 8.12373C5.04041 8.12373 4.85702 8.12256 4.69412 8.14078L4.86092 9.63148C4.91973 9.6249 4.99988 9.62373 5.28368 9.62373V8.12373ZM3.75768 10.7347C3.82261 10.1544 4.28063 9.69641 4.86092 9.63148L4.69412 8.14078C3.41748 8.28363 2.40983 9.29129 2.26698 10.5679L3.75768 10.7347ZM19.8696 14.8005L19.4696 15.2005L20.5302 16.2612L20.9302 15.8612L19.8696 14.8005ZM19.4696 8.2612L19.8696 8.6612L20.9302 7.60054L20.5302 7.20054L19.4696 8.2612ZM20.9302 15.8612C20.9883 15.8032 21.0229 15.7686 21.0525 15.7381L19.9768 14.6927C19.9565 14.7136 19.9313 14.7388 19.8696 14.8005L20.9302 15.8612ZM19.8696 8.6612C19.9313 8.7229 19.9565 8.74816 19.9768 8.76901L21.0525 7.72365C21.0229 7.69315 20.9883 7.65855 20.9302 7.60054L19.8696 8.6612ZM21.0525 15.7381C23.221 13.5066 23.221 9.9551 21.0525 7.72365L19.9768 8.76901C21.5795 10.4183 21.5795 13.0434 19.9768 14.6927L21.0525 15.7381Z" fill="black"/>
</svg>
