<svg width="24" height="24" viewBox="0 0 24 24" fill="none" xmlns="http://www.w3.org/2000/svg">
<g clip-path="url(#clip0_0_1)">
<path d="M6.91527 16.161L7.39227 15.5823L7.39227 15.5823L6.91527 16.161ZM6.52635 15.8482L6.07821 16.4496L6.07821 16.4496L6.52635 15.8482ZM3.78313 14.8635L3.74647 15.6126L3.78313 14.8635ZM3.78313 9.13722L3.74647 8.38812L3.78313 9.13722ZM6.91527 7.83966L7.39228 8.41842L7.39228 8.41842L6.91527 7.83966ZM6.52635 8.15245L6.9745 8.75384L6.52635 8.15245ZM1.01272 13.0799L0.267369 13.1633L1.01272 13.0799ZM2.77791 14.8451L2.69451 15.5904L2.77791 14.8451ZM13.1261 19.4133L12.7039 18.7934L13.1261 19.4133ZM7.91126 16.9819L7.43426 17.5607L7.43426 17.5607L7.91126 16.9819ZM12.56 19.6804L12.3501 18.9603L12.3501 18.9603L12.56 19.6804ZM13.1261 4.58736L13.5483 3.96746L13.1261 4.58736ZM7.91126 7.01879L7.43426 6.44002L7.43426 6.44002L7.91126 7.01879ZM12.56 4.32032L12.3501 5.04036L12.56 4.32032ZM1.01272 10.9208L0.267369 10.8374L1.01272 10.9208ZM2.77791 9.1556L2.69451 8.41025L2.77791 9.1556ZM18.652 9.59133C18.3591 9.29844 17.8842 9.29844 17.5913 9.59133C17.2984 9.88422 17.2984 10.3591 17.5913 10.652L18.652 9.59133ZM21.834 14.8946C22.1269 15.1875 22.6017 15.1875 22.8946 14.8946C23.1875 14.6017 23.1875 14.1269 22.8946 13.834L21.834 14.8946ZM17.5913 13.834C17.2984 14.1269 17.2984 14.6017 17.5913 14.8946C17.8842 15.1875 18.3591 15.1875 18.652 14.8946L17.5913 13.834ZM22.8946 10.652C23.1875 10.3591 23.1875 9.88422 22.8946 9.59133C22.6017 9.29844 22.1269 9.29844 21.834 9.59133L22.8946 10.652ZM13.2503 9.89093V14.1098H14.7503V9.89093H13.2503ZM1.75031 12.5737V11.427H0.250313V12.5737H1.75031ZM7.39228 8.41842L8.38827 7.59755L7.43426 6.44002L6.43827 7.2609L7.39228 8.41842ZM8.38827 16.4031L7.39227 15.5823L6.43827 16.7398L7.43426 17.5607L8.38827 16.4031ZM7.39227 15.5823C7.20391 15.427 7.09065 15.3334 6.9745 15.2468L6.07821 16.4496C6.15815 16.5092 6.2388 16.5754 6.43827 16.7398L7.39227 15.5823ZM3.28407 15.6075C3.54255 15.6075 3.6469 15.6077 3.74647 15.6126L3.81979 14.1144C3.67511 14.1073 3.52817 14.1075 3.28407 14.1075V15.6075ZM6.9745 15.2468C6.05873 14.5644 4.96049 14.1702 3.81979 14.1144L3.74647 15.6126C4.5896 15.6538 5.40134 15.9452 6.07821 16.4496L6.9745 15.2468ZM3.28407 9.8932C3.52817 9.8932 3.67511 9.89341 3.81979 9.88633L3.74647 8.38812C3.6469 8.39299 3.54255 8.3932 3.28407 8.3932V9.8932ZM6.43827 7.2609C6.2388 7.42529 6.15815 7.4915 6.07821 7.55107L6.9745 8.75384C7.09065 8.66729 7.20391 8.57367 7.39228 8.41842L6.43827 7.2609ZM3.81979 9.88633C4.96049 9.8305 6.05873 9.43625 6.9745 8.75384L6.07821 7.55107C5.40134 8.05546 4.5896 8.34686 3.74647 8.38812L3.81979 9.88633ZM0.250313 12.5737C0.250313 12.817 0.249141 13.0004 0.267369 13.1633L1.75807 12.9965C1.75149 12.9377 1.75031 12.8575 1.75031 12.5737H0.250313ZM3.28407 14.1075C3.00027 14.1075 2.92012 14.1063 2.86131 14.0997L2.69451 15.5904C2.85741 15.6087 3.0408 15.6075 3.28407 15.6075V14.1075ZM0.267369 13.1633C0.410218 14.4399 1.41787 15.4476 2.69451 15.5904L2.86131 14.0997C2.28102 14.0348 1.823 13.5768 1.75807 12.9965L0.267369 13.1633ZM13.2503 14.1098C13.2503 15.7009 13.2488 16.8203 13.147 17.6207C13.0433 18.4363 12.8592 18.6876 12.7039 18.7934L13.5483 20.0332C14.2672 19.5436 14.5202 18.7126 14.635 17.81C14.7518 16.8921 14.7503 15.6574 14.7503 14.1098H13.2503ZM7.43426 17.5607C8.62855 18.545 9.58042 19.3314 10.363 19.825C11.1325 20.3105 11.9348 20.6438 12.7698 20.4004L12.3501 18.9603C12.1697 19.0129 11.8587 18.9951 11.1633 18.5564C10.4809 18.1259 9.61614 17.4151 8.38827 16.4031L7.43426 17.5607ZM12.7039 18.7934C12.5955 18.8673 12.4761 18.9236 12.3501 18.9603L12.7698 20.4004C13.047 20.3196 13.3097 20.1957 13.5483 20.0332L12.7039 18.7934ZM14.7503 9.89093C14.7503 8.34329 14.7518 7.10857 14.635 6.19072C14.5202 5.28812 14.2672 4.45705 13.5483 3.96746L12.7039 5.20726C12.8592 5.31304 13.0433 5.56434 13.147 6.37999C13.2488 7.18038 13.2503 8.29977 13.2503 9.89093H14.7503ZM8.38827 7.59755C9.61614 6.58557 10.4809 5.87477 11.1633 5.44428C11.8587 5.00559 12.1697 4.98778 12.3501 5.04036L12.7698 3.60028C11.9348 3.3569 11.1325 3.69017 10.363 4.17563C9.58042 4.6693 8.62855 5.45572 7.43426 6.44002L8.38827 7.59755ZM13.5483 3.96746C13.3097 3.80497 13.047 3.68106 12.7698 3.60028L12.3501 5.04036C12.4761 5.07708 12.5955 5.1334 12.7039 5.20726L13.5483 3.96746ZM1.75031 11.427C1.75031 11.1431 1.75149 11.063 1.75807 11.0042L0.267369 10.8374C0.249141 11.0003 0.250313 11.1837 0.250313 11.427H1.75031ZM3.28407 8.3932C3.0408 8.3932 2.85741 8.39203 2.69451 8.41025L2.86131 9.90095C2.92012 9.89437 3.00026 9.8932 3.28407 9.8932V8.3932ZM1.75807 11.0042C1.823 10.4239 2.28102 9.96588 2.86131 9.90095L2.69451 8.41025C1.41787 8.5531 0.410219 9.56076 0.267369 10.8374L1.75807 11.0042ZM18.652 14.8946L22.8946 10.652L21.834 9.59133L17.5913 13.834L18.652 14.8946ZM17.5913 10.652L19.7127 12.7733L20.7733 11.7127L18.652 9.59133L17.5913 10.652ZM19.7127 12.7733L21.834 14.8946L22.8946 13.834L20.7733 11.7127L19.7127 12.7733Z" fill="black"/>
</g>
<defs>
<clipPath id="clip0_0_1">
<rect width="24" height="24" fill="black" transform="translate(0.000488281 -0.000610352)"/>
</clipPath>
</defs>
</svg>
