<svg width="24" height="24" viewBox="0 0 24 24" fill="none" xmlns="http://www.w3.org/2000/svg">
<g clip-path="url(#clip0_0_1)">
<path d="M17.6384 9.92311C17.4493 9.5856 17.4669 9.1533 17.7404 8.87974C18.0556 8.56452 18.5777 8.58485 18.8134 8.96328C20.1811 11.1599 19.9274 14.0765 18.0523 16.0061C18.0237 16.0356 17.9903 16.069 17.9357 16.1236L17.5301 16.5292C17.2372 16.8221 16.7623 16.8221 16.4694 16.5292C16.1765 16.2363 16.1765 15.7614 16.4694 15.4686L16.8694 15.0686C16.9311 15.0069 16.9563 14.9816 16.9766 14.9607C18.3153 13.5832 18.5358 11.525 17.6384 9.92311Z" fill="black"/>
<path d="M14.5301 9.9688C14.6707 9.82814 14.7498 9.63721 14.7497 9.43829C14.7489 8.10007 14.7396 7.0161 14.6345 6.18926C14.5197 5.28667 14.2666 4.45559 13.5477 3.966C13.3091 3.80351 13.0464 3.6796 12.7693 3.59883C11.9342 3.35544 11.1319 3.68871 10.3624 4.17417C9.58952 4.66174 8.65149 5.43486 7.47788 6.40214L6.43769 7.25944C6.23823 7.42383 6.15757 7.49004 6.07764 7.54961C5.40077 8.054 4.58902 8.3454 3.7459 8.38666C3.64633 8.39153 3.54198 8.39174 3.2835 8.39174L3.24192 8.39173C3.01911 8.39167 2.84743 8.39162 2.69394 8.4088C1.4173 8.55165 0.409646 9.5593 0.266796 10.8359C0.249621 10.9894 0.24967 11.1611 0.249733 11.3839V12.6138C0.24967 12.8367 0.249621 13.0083 0.266796 13.1618C0.409646 14.4385 1.4173 15.4461 2.69394 15.589C2.84743 15.6061 3.01911 15.6061 3.24193 15.606L3.2835 15.606C3.54198 15.606 3.64633 15.6062 3.7459 15.6111C4.58902 15.6524 5.40077 15.9438 6.07764 16.4482C6.15757 16.5077 6.23823 16.5739 6.43769 16.7383L6.63722 16.9028C6.93536 17.1485 7.37137 17.1275 7.64456 16.8543C7.95755 16.5413 7.93281 16.0268 7.59123 15.7452L7.37608 15.5679C7.197 15.4203 7.08683 15.3295 6.97392 15.2454C6.05816 14.563 4.95992 14.1687 3.81922 14.1129C3.67858 14.106 3.53581 14.106 3.30375 14.106H3.2835C2.99969 14.106 2.91954 14.1049 2.86074 14.0983C2.28045 14.0333 1.82242 13.5753 1.75749 12.995C1.75091 12.9362 1.74974 12.8561 1.74974 12.5723V11.4255C1.74974 11.1417 1.75091 11.0615 1.75749 11.0027C1.82242 10.4225 2.28045 9.96443 2.86074 9.89949C2.91954 9.89291 2.99969 9.89174 3.2835 9.89174H3.30376C3.5358 9.89175 3.67859 9.89175 3.81922 9.88487C4.95992 9.82904 6.05816 9.4348 6.97392 8.75238C7.08683 8.66825 7.197 8.57744 7.37608 8.42984L8.38769 7.59609C9.61557 6.58411 10.4803 5.87331 11.1627 5.44283C11.8581 5.00413 12.1691 4.98632 12.3495 5.0389C12.4755 5.07562 12.5949 5.13194 12.7033 5.2058C12.8587 5.31158 13.0427 5.56289 13.1465 6.37853C13.2483 7.17892 13.2497 8.29831 13.2497 9.88947C13.2497 10.3912 13.8564 10.6425 14.2112 10.2877L14.5301 9.9688Z" fill="black"/>
<path d="M13.2497 13.6811C13.2497 13.4822 13.3288 13.2914 13.4694 13.1508C13.9419 12.6783 14.7497 13.0129 14.7497 13.6811V14.1656C14.7498 15.6864 14.7498 16.902 14.6345 17.8085C14.5197 18.7111 14.2666 19.5422 13.5477 20.0318C13.3091 20.1943 13.0464 20.3182 12.7693 20.3989C11.9342 20.6423 11.1319 20.3091 10.3624 19.8236C9.95035 19.5637 9.49136 19.2226 8.97476 18.8141C8.62588 18.5383 8.60035 18.0199 8.91483 17.7054C9.18682 17.4334 9.61975 17.4119 9.92153 17.6504C10.4019 18.0301 10.8071 18.3306 11.1627 18.5549C11.8581 18.9936 12.1691 19.0114 12.3495 18.9589C12.4755 18.9221 12.5949 18.8658 12.7033 18.792C12.8587 18.6862 13.0427 18.4349 13.1465 17.6192C13.2483 16.8188 13.2497 15.6995 13.2497 14.1083V13.6811Z" fill="black"/>
<path d="M20.2493 7.34995C20.0031 7.05539 19.9971 6.62309 20.2685 6.35166L20.3035 6.31663C20.5985 6.02164 21.0843 6.01821 21.3555 6.33517C21.3707 6.35291 21.3856 6.37054 21.4003 6.3881C24.1146 9.63622 24.1146 14.3615 21.4003 17.6097C21.1495 17.9099 20.8293 18.23 20.2657 18.7936L19.5301 19.5292C19.2372 19.8221 18.7623 19.8221 18.4694 19.5292C18.1765 19.2363 18.1765 18.7614 18.4694 18.4686L19.1694 17.7686C19.7781 17.1598 20.047 16.8899 20.2493 16.6478C22.4983 13.9565 22.4983 10.0412 20.2493 7.34995Z" fill="black"/>
<path d="M3.5601 19.9997L19.56 3.99973" stroke="black" stroke-width="1.5" stroke-linecap="round"/>
</g>
<defs>
<clipPath id="clip0_0_1">
<rect width="24" height="24" fill="black" transform="translate(-0.000366211 -0.000610352)"/>
</clipPath>
</defs>
</svg>
