<svg width="24" height="24" viewBox="0 0 24 24" fill="none" xmlns="http://www.w3.org/2000/svg">
<g clip-path="url(#clip0_0_1)">
<path d="M6.91444 16.161L7.39144 15.5823L7.39144 15.5823L6.91444 16.161ZM6.52552 15.8482L6.07738 16.4496L6.52552 15.8482ZM3.7823 14.8635L3.74564 15.6126L3.7823 14.8635ZM3.7823 9.13722L3.74564 8.38812L3.7823 9.13722ZM6.91444 7.83966L7.39144 8.41842L7.39144 8.41842L6.91444 7.83966ZM6.52552 8.15245L6.97366 8.75384L6.97366 8.75384L6.52552 8.15245ZM1.01188 13.0799L0.266536 13.1633L1.01188 13.0799ZM2.77708 14.8451L2.69368 15.5904L2.77708 14.8451ZM13.1253 19.4133L12.7031 18.7934L12.7031 18.7934L13.1253 19.4133ZM7.91043 16.9819L7.43343 17.5607L7.43343 17.5607L7.91043 16.9819ZM12.5591 19.6804L12.3493 18.9603L12.5591 19.6804ZM13.1253 4.58736L13.5474 3.96746L13.1253 4.58736ZM7.91043 7.01879L7.43343 6.44002L7.43343 6.44002L7.91043 7.01879ZM12.5591 4.32032L12.3493 5.04036L12.3493 5.04036L12.5591 4.32032ZM1.01188 10.9208L0.266536 10.8374L1.01188 10.9208ZM2.77708 9.1556L2.69368 8.41025L2.77708 9.1556ZM16.9995 11.2503C16.5853 11.2503 16.2495 11.5861 16.2495 12.0003C16.2495 12.4146 16.5853 12.7503 16.9995 12.7503V11.2503ZM22.9995 12.7503C23.4137 12.7503 23.7495 12.4146 23.7495 12.0003C23.7495 11.5861 23.4137 11.2503 22.9995 11.2503V12.7503ZM19.2495 15.0003C19.2495 15.4146 19.5853 15.7503 19.9995 15.7503C20.4137 15.7503 20.7495 15.4146 20.7495 15.0003H19.2495ZM20.7495 9.00034C20.7495 8.58613 20.4137 8.25034 19.9995 8.25034C19.5853 8.25034 19.2495 8.58613 19.2495 9.00034H20.7495ZM13.2495 9.89093V14.1098H14.7495V9.89093H13.2495ZM1.74948 12.5737V11.427H0.249481V12.5737H1.74948ZM7.39144 8.41842L8.38743 7.59755L7.43343 6.44002L6.43744 7.2609L7.39144 8.41842ZM8.38743 16.4031L7.39144 15.5823L6.43743 16.7398L7.43343 17.5607L8.38743 16.4031ZM7.39144 15.5823C7.20307 15.427 7.08981 15.3334 6.97366 15.2468L6.07738 16.4496C6.15731 16.5092 6.23797 16.5754 6.43743 16.7398L7.39144 15.5823ZM3.28324 15.6075C3.54172 15.6075 3.64607 15.6077 3.74564 15.6126L3.81896 14.1144C3.67428 14.1073 3.52734 14.1075 3.28324 14.1075V15.6075ZM6.97366 15.2468C6.0579 14.5644 4.95966 14.1702 3.81896 14.1144L3.74564 15.6126C4.58876 15.6538 5.40051 15.9452 6.07738 16.4496L6.97366 15.2468ZM3.28324 9.8932C3.52734 9.8932 3.67428 9.89341 3.81896 9.88633L3.74564 8.38812C3.64607 8.39299 3.54172 8.3932 3.28324 8.3932V9.8932ZM6.43744 7.2609C6.23797 7.42529 6.15731 7.4915 6.07738 7.55107L6.97366 8.75384C7.08981 8.66729 7.20307 8.57367 7.39144 8.41842L6.43744 7.2609ZM3.81896 9.88633C4.95966 9.8305 6.0579 9.43625 6.97366 8.75384L6.07738 7.55107C5.40051 8.05546 4.58876 8.34686 3.74564 8.38812L3.81896 9.88633ZM0.249481 12.5737C0.249481 12.817 0.248308 13.0004 0.266536 13.1633L1.75723 12.9965C1.75065 12.9377 1.74948 12.8575 1.74948 12.5737H0.249481ZM3.28324 14.1075C2.99943 14.1075 2.91928 14.1063 2.86048 14.0997L2.69368 15.5904C2.85658 15.6087 3.03997 15.6075 3.28324 15.6075V14.1075ZM0.266536 13.1633C0.409386 14.4399 1.41704 15.4476 2.69368 15.5904L2.86048 14.0997C2.28019 14.0348 1.82216 13.5768 1.75723 12.9965L0.266536 13.1633ZM13.2495 14.1098C13.2495 15.7009 13.248 16.8203 13.1462 17.6207C13.0424 18.4363 12.8584 18.6876 12.7031 18.7934L13.5474 20.0332C14.2663 19.5436 14.5194 18.7126 14.6342 17.81C14.751 16.8921 14.7495 15.6574 14.7495 14.1098H13.2495ZM7.43343 17.5607C8.62772 18.545 9.57959 19.3314 10.3621 19.825C11.1317 20.3105 11.934 20.6438 12.769 20.4004L12.3493 18.9603C12.1688 19.0129 11.8579 18.9951 11.1625 18.5564C10.4801 18.1259 9.61531 17.4151 8.38743 16.4031L7.43343 17.5607ZM12.7031 18.7934C12.5946 18.8673 12.4752 18.9236 12.3493 18.9603L12.769 20.4004C13.0461 20.3196 13.3088 20.1957 13.5474 20.0332L12.7031 18.7934ZM14.7495 9.89093C14.7495 8.34329 14.751 7.10857 14.6342 6.19072C14.5194 5.28812 14.2663 4.45705 13.5474 3.96746L12.7031 5.20726C12.8584 5.31304 13.0424 5.56434 13.1462 6.37999C13.248 7.18038 13.2495 8.29977 13.2495 9.89093H14.7495ZM8.38743 7.59755C9.61531 6.58557 10.4801 5.87477 11.1625 5.44428C11.8579 5.00559 12.1688 4.98778 12.3493 5.04036L12.769 3.60028C11.934 3.3569 11.1317 3.69017 10.3621 4.17563C9.57959 4.6693 8.62772 5.45572 7.43343 6.44002L8.38743 7.59755ZM13.5474 3.96746C13.3088 3.80497 13.0461 3.68106 12.769 3.60028L12.3493 5.04036C12.4752 5.07708 12.5946 5.1334 12.7031 5.20726L13.5474 3.96746ZM1.74948 11.427C1.74948 11.1431 1.75065 11.063 1.75723 11.0042L0.266536 10.8374C0.248308 11.0003 0.249481 11.1837 0.249481 11.427H1.74948ZM3.28324 8.3932C3.03997 8.3932 2.85658 8.39203 2.69368 8.41025L2.86048 9.90095C2.91928 9.89437 2.99943 9.8932 3.28324 9.8932V8.3932ZM1.75723 11.0042C1.82216 10.4239 2.28019 9.96588 2.86048 9.90095L2.69368 8.41025C1.41704 8.5531 0.409386 9.56076 0.266536 10.8374L1.75723 11.0042ZM20.7495 15.0003V9.00034H19.2495V15.0003H20.7495ZM16.9995 12.7503H19.9995V11.2503H16.9995V12.7503ZM19.9995 12.7503H22.9995V11.2503H19.9995V12.7503Z" fill="black"/>
</g>
<defs>
<clipPath id="clip0_0_1">
<rect width="24" height="24" fill="black" transform="translate(0.000244141 -0.000610352)"/>
</clipPath>
</defs>
</svg>
