<svg width="24" height="24" viewBox="0 0 24 24" fill="none" xmlns="http://www.w3.org/2000/svg">
<g clip-path="url(#clip0_0_1)">
<path d="M6.91482 16.161L7.39182 15.5823L7.39182 15.5823L6.91482 16.161ZM6.5259 15.8482L6.07776 16.4496L6.5259 15.8482ZM3.78268 14.8635L3.74602 15.6126L3.78268 14.8635ZM3.78268 9.13722L3.74602 8.38812L3.78268 9.13722ZM6.91482 7.83966L7.39182 8.41842L7.39182 8.41842L6.91482 7.83966ZM6.5259 8.15245L6.97404 8.75384L6.97404 8.75384L6.5259 8.15245ZM1.01227 13.0799L0.266919 13.1633L1.01227 13.0799ZM2.77746 14.8451L2.69406 15.5904L2.77746 14.8451ZM13.1256 19.4133L12.7035 18.7934L12.7035 18.7934L13.1256 19.4133ZM7.91081 16.9819L7.43381 17.5607L7.43381 17.5607L7.91081 16.9819ZM12.5595 19.6804L12.3496 18.9603L12.5595 19.6804ZM13.1256 4.58736L13.5478 3.96746L13.1256 4.58736ZM7.91081 7.01879L7.43381 6.44002L7.43381 6.44002L7.91081 7.01879ZM12.5595 4.32032L12.3496 5.04036L12.3496 5.04036L12.5595 4.32032ZM1.01227 10.9208L0.266919 10.8374L1.01227 10.9208ZM2.77746 9.1556L2.69406 8.41025L2.77746 9.1556ZM16.9999 11.2503C16.5856 11.2503 16.2499 11.5861 16.2499 12.0003C16.2499 12.4146 16.5856 12.7503 16.9999 12.7503V11.2503ZM22.9999 12.7503C23.4141 12.7503 23.7499 12.4146 23.7499 12.0003C23.7499 11.5861 23.4141 11.2503 22.9999 11.2503V12.7503ZM13.2499 9.89093V14.1098H14.7499V9.89093H13.2499ZM1.74986 12.5737V11.427H0.249863V12.5737H1.74986ZM7.39182 8.41842L8.38782 7.59755L7.43381 6.44002L6.43782 7.2609L7.39182 8.41842ZM8.38781 16.4031L7.39182 15.5823L6.43782 16.7398L7.43381 17.5607L8.38781 16.4031ZM7.39182 15.5823C7.20346 15.427 7.0902 15.3334 6.97404 15.2468L6.07776 16.4496C6.1577 16.5092 6.23835 16.5754 6.43782 16.7398L7.39182 15.5823ZM3.28362 15.6075C3.5421 15.6075 3.64645 15.6077 3.74602 15.6126L3.81934 14.1144C3.67466 14.1073 3.52772 14.1075 3.28362 14.1075V15.6075ZM6.97404 15.2468C6.05828 14.5644 4.96004 14.1702 3.81934 14.1144L3.74602 15.6126C4.58915 15.6538 5.40089 15.9452 6.07776 16.4496L6.97404 15.2468ZM3.28362 9.8932C3.52772 9.8932 3.67466 9.89341 3.81934 9.88633L3.74602 8.38812C3.64645 8.39299 3.5421 8.3932 3.28362 8.3932V9.8932ZM6.43782 7.2609C6.23835 7.42529 6.1577 7.4915 6.07776 7.55107L6.97404 8.75384C7.0902 8.66729 7.20346 8.57367 7.39182 8.41842L6.43782 7.2609ZM3.81934 9.88633C4.96004 9.8305 6.05828 9.43625 6.97404 8.75384L6.07776 7.55107C5.40089 8.05546 4.58915 8.34686 3.74602 8.38812L3.81934 9.88633ZM0.249863 12.5737C0.249863 12.817 0.24869 13.0004 0.266919 13.1633L1.75761 12.9965C1.75103 12.9377 1.74986 12.8575 1.74986 12.5737H0.249863ZM3.28362 14.1075C2.99981 14.1075 2.91967 14.1063 2.86086 14.0997L2.69406 15.5904C2.85696 15.6087 3.04035 15.6075 3.28362 15.6075V14.1075ZM0.266919 13.1633C0.409768 14.4399 1.41742 15.4476 2.69406 15.5904L2.86086 14.0997C2.28057 14.0348 1.82255 13.5768 1.75761 12.9965L0.266919 13.1633ZM13.2499 14.1098C13.2499 15.7009 13.2484 16.8203 13.1466 17.6207C13.0428 18.4363 12.8588 18.6876 12.7035 18.7934L13.5478 20.0332C14.2667 19.5436 14.5198 18.7126 14.6346 17.81C14.7513 16.8921 14.7499 15.6574 14.7499 14.1098H13.2499ZM7.43381 17.5607C8.6281 18.545 9.57997 19.3314 10.3625 19.825C11.1321 20.3105 11.9343 20.6438 12.7694 20.4004L12.3496 18.9603C12.1692 19.0129 11.8582 18.9951 11.1628 18.5564C10.4804 18.1259 9.61569 17.4151 8.38781 16.4031L7.43381 17.5607ZM12.7035 18.7934C12.595 18.8673 12.4756 18.9236 12.3496 18.9603L12.7694 20.4004C13.0465 20.3196 13.3092 20.1957 13.5478 20.0332L12.7035 18.7934ZM14.7499 9.89093C14.7499 8.34329 14.7513 7.10857 14.6346 6.19072C14.5198 5.28812 14.2667 4.45705 13.5478 3.96746L12.7035 5.20726C12.8588 5.31304 13.0428 5.56434 13.1466 6.37999C13.2484 7.18038 13.2499 8.29977 13.2499 9.89093H14.7499ZM8.38782 7.59755C9.61569 6.58557 10.4804 5.87477 11.1628 5.44428C11.8582 5.00559 12.1692 4.98778 12.3496 5.04036L12.7694 3.60028C11.9343 3.3569 11.1321 3.69017 10.3625 4.17563C9.57997 4.6693 8.6281 5.45572 7.43381 6.44002L8.38782 7.59755ZM13.5478 3.96746C13.3092 3.80497 13.0465 3.68106 12.7694 3.60028L12.3496 5.04036C12.4756 5.07708 12.595 5.1334 12.7035 5.20726L13.5478 3.96746ZM1.74986 11.427C1.74986 11.1431 1.75103 11.063 1.75762 11.0042L0.266919 10.8374C0.24869 11.0003 0.249863 11.1837 0.249863 11.427H1.74986ZM3.28362 8.3932C3.04035 8.3932 2.85696 8.39203 2.69406 8.41025L2.86086 9.90095C2.91967 9.89437 2.99981 9.8932 3.28362 9.8932V8.3932ZM1.75762 11.0042C1.82255 10.4239 2.28057 9.96588 2.86086 9.90095L2.69406 8.41025C1.41742 8.5531 0.409768 9.56076 0.266919 10.8374L1.75762 11.0042ZM16.9999 12.7503H22.9999V11.2503H16.9999V12.7503Z" fill="black"/>
</g>
<defs>
<clipPath id="clip0_0_1">
<rect width="24" height="24" fill="black" transform="translate(-0.000244141 -0.000610352)"/>
</clipPath>
</defs>
</svg>
