<svg width="24" height="24" viewBox="0 0 24 24" fill="none" xmlns="http://www.w3.org/2000/svg">
<path d="M4.74983 19.9996L20.7497 3.99963" stroke="black" stroke-width="1.5" stroke-linecap="round"/>
<path d="M11.1379 7.59594C12.3658 6.58396 13.2306 5.87316 13.9129 5.44267C14.6084 5.00398 14.9193 4.98617 15.0997 5.03875C15.2257 5.07547 15.3451 5.13179 15.4536 5.20565C15.6089 5.31143 15.7929 5.56273 15.8967 6.37838C15.9491 6.79077 15.975 7.28785 15.9877 7.89052C16.0016 8.55374 16.8018 8.88613 17.2709 8.41705C17.413 8.27491 17.492 8.08125 17.4878 7.88028C17.4742 7.231 17.4455 6.66709 17.3847 6.18911C17.2699 5.28651 17.0168 4.45544 16.2979 3.96585C16.0593 3.80336 15.7966 3.67945 15.5195 3.59868C14.6844 3.35529 13.8822 3.68856 13.1126 4.17402C12.3398 4.66158 11.4017 5.43471 10.2281 6.40199L9.18792 7.25929C8.98846 7.42368 8.9078 7.48989 8.82786 7.54946C8.15099 8.05385 7.33925 8.34525 6.49613 8.38651C6.39656 8.39138 6.29221 8.39159 6.03373 8.39159L5.99215 8.39158C5.76934 8.39152 5.59765 8.39147 5.44416 8.40865C4.16753 8.5515 3.15987 9.55915 3.01703 10.8358C2.99985 10.9893 2.9999 11.161 2.99996 11.3838V12.6137C2.9999 12.8365 2.99985 13.0082 3.01703 13.1617C3.15987 14.4383 4.16753 15.446 5.44416 15.5888C5.59766 15.606 5.76934 15.6059 5.99216 15.6059L6.03373 15.6059C6.29221 15.6059 6.39656 15.6061 6.49613 15.611C7.33925 15.6522 8.15099 15.9436 8.82787 16.448C8.96131 16.5475 9.14699 16.541 9.26467 16.4233L9.76146 15.9265C9.95523 15.7327 9.94389 15.409 9.72415 15.2452C8.80838 14.5628 7.71015 14.1686 6.56945 14.1127C6.42881 14.1059 6.28604 14.1059 6.05397 14.1059H6.03373C5.74992 14.1059 5.66977 14.1047 5.61097 14.0981C5.03068 14.0332 4.57265 13.5752 4.50772 12.9949C4.50114 12.9361 4.49997 12.8559 4.49997 12.5721V11.4253C4.49997 11.1415 4.50114 11.0614 4.50772 11.0026C4.57265 10.4223 5.03068 9.96427 5.61097 9.89934C5.66977 9.89276 5.74992 9.89159 6.03373 9.89159H6.05399C6.28603 9.89159 6.42882 9.8916 6.56945 9.88472C7.71015 9.82889 8.80838 9.43464 9.72415 8.75223C9.83706 8.6681 9.94723 8.57729 10.1263 8.42969L11.1379 7.59594Z" fill="black"/>
<path d="M11.8121 16.956C11.5132 16.7112 11.0774 16.7319 10.8042 17.0051L10.2274 17.5818C10.2236 17.5857 10.2239 17.592 10.2281 17.5955C11.4017 18.5628 12.3398 19.3359 13.1126 19.8234C13.8822 20.3089 14.6844 20.6422 15.5195 20.3988C15.7966 20.318 16.0593 20.1941 16.2979 20.0316C17.0168 19.542 17.2699 18.711 17.3847 17.8084C17.5 16.9018 17.5 15.6863 17.5 14.1654V12.1199C17.5 11.4518 16.6921 11.1171 16.2196 11.5896C16.079 11.7303 16 11.921 16 12.1199V14.1081C16 15.6993 15.9985 16.8187 15.8967 17.6191C15.7929 18.4347 15.6089 18.686 15.4536 18.7918C15.3451 18.8657 15.2257 18.922 15.0997 18.9587C14.9193 19.0113 14.6084 18.9935 13.9129 18.5548C13.3628 18.2077 12.6941 17.6784 11.8121 16.956Z" fill="black"/>
</svg>
