<svg width="24" height="24" viewBox="0 0 24 24" fill="none" xmlns="http://www.w3.org/2000/svg">
<g clip-path="url(#clip0_0_1)">
<path d="M6.91528 15.8915L7.39228 15.3128L7.39228 15.3128L6.91528 15.8915ZM6.52636 15.5788L6.07822 16.1801L6.52636 15.5788ZM3.78314 14.594L3.74648 15.3431L3.78314 14.594ZM3.78314 8.86775L3.74648 8.11865L3.78314 8.86775ZM6.91528 7.57019L7.39228 8.14895L7.39228 8.14895L6.91528 7.57019ZM6.52636 7.88298L6.9745 8.48437L6.9745 8.48437L6.52636 7.88298ZM1.01272 12.8104L0.267376 12.8938L1.01272 12.8104ZM2.77792 14.5756L2.69452 15.321L2.77792 14.5756ZM13.1261 19.1439L12.7039 18.524L12.7039 18.524L13.1261 19.1439ZM7.91127 16.7124L7.43427 17.2912L7.43427 17.2912L7.91127 16.7124ZM12.56 19.4109L12.3501 18.6908L12.56 19.4109ZM13.1261 4.31789L13.5483 3.69799L13.1261 4.31789ZM7.91127 6.74932L7.43427 6.17055L7.43427 6.17055L7.91127 6.74932ZM12.56 4.05085L12.3501 4.77089L12.3501 4.77089L12.56 4.05085ZM1.01272 10.6513L0.267377 10.5679L1.01272 10.6513ZM2.77792 8.88613L2.69452 8.14078L2.77792 8.88613ZM17.4003 15.3309L16.87 14.8005L16.87 14.8005L17.4003 15.3309ZM16.47 15.2005C16.1771 15.4934 16.1771 15.9683 16.47 16.2612C16.7629 16.5541 17.2378 16.5541 17.5306 16.2612L16.47 15.2005ZM17.5306 7.20054C17.2378 6.90765 16.7629 6.90765 16.47 7.20054C16.1771 7.49344 16.1771 7.96831 16.47 8.2612L17.5306 7.20054ZM17.4003 8.13087L16.87 8.6612L16.87 8.6612L17.4003 8.13087ZM17.515 15.2154L18.0529 15.7381L18.0529 15.7381L17.515 15.2154ZM17.515 8.24633L18.0529 7.72365L18.0529 7.72365L17.515 8.24633ZM19.7003 18.0309L19.17 17.5005L19.17 17.5005L19.7003 18.0309ZM18.47 18.2005C18.1771 18.4934 18.1771 18.9683 18.47 19.2612C18.7629 19.5541 19.2378 19.5541 19.5306 19.2612L18.47 18.2005ZM19.5306 4.20054C19.2378 3.90765 18.7629 3.90765 18.47 4.20054C18.1771 4.49344 18.1771 4.96831 18.47 5.2612L19.5306 4.20054ZM19.7003 5.43087L19.17 5.9612L19.17 5.9612L19.7003 5.43087ZM20.8254 16.8607L20.2499 16.3798L20.2499 16.3798L20.8254 16.8607ZM20.8254 6.60101L20.2499 7.08193L20.2499 7.08193L20.8254 6.60101ZM13.2503 9.62146V13.8403H14.7503V9.62146H13.2503ZM1.75032 12.3043V11.1575H0.250321V12.3043H1.75032ZM7.39228 8.14895L8.38827 7.32808L7.43427 6.17055L6.43828 6.99143L7.39228 8.14895ZM8.38827 16.1337L7.39228 15.3128L6.43827 16.4703L7.43427 17.2912L8.38827 16.1337ZM7.39228 15.3128C7.20391 15.1575 7.09065 15.0639 6.9745 14.9774L6.07822 16.1801C6.15815 16.2397 6.23881 16.3059 6.43827 16.4703L7.39228 15.3128ZM3.28408 15.338C3.54256 15.338 3.64691 15.3382 3.74648 15.3431L3.8198 13.8449C3.67512 13.8378 3.52818 13.838 3.28408 13.838V15.338ZM6.9745 14.9774C6.05874 14.295 4.9605 13.9007 3.8198 13.8449L3.74648 15.3431C4.58961 15.3844 5.40135 15.6758 6.07822 16.1801L6.9745 14.9774ZM3.28408 9.62373C3.52818 9.62373 3.67512 9.62394 3.8198 9.61685L3.74648 8.11865C3.64691 8.12352 3.54256 8.12373 3.28408 8.12373V9.62373ZM6.43828 6.99143C6.23881 7.15582 6.15815 7.22203 6.07822 7.2816L6.9745 8.48437C7.09065 8.39782 7.20391 8.3042 7.39228 8.14895L6.43828 6.99143ZM3.8198 9.61685C4.9605 9.56103 6.05874 9.16678 6.9745 8.48437L6.07822 7.2816C5.40135 7.78599 4.5896 8.07739 3.74648 8.11865L3.8198 9.61685ZM0.250321 12.3043C0.250321 12.5475 0.249148 12.7309 0.267376 12.8938L1.75807 12.727C1.75149 12.6682 1.75032 12.5881 1.75032 12.3043H0.250321ZM3.28408 13.838C3.00027 13.838 2.92012 13.8368 2.86132 13.8303L2.69452 15.321C2.85742 15.3392 3.04081 15.338 3.28408 15.338V13.838ZM0.267376 12.8938C0.410226 14.1705 1.41788 15.1781 2.69452 15.321L2.86132 13.8303C2.28103 13.7653 1.823 13.3073 1.75807 12.727L0.267376 12.8938ZM13.2503 13.8403C13.2503 15.4314 13.2488 16.5508 13.147 17.3512C13.0433 18.1669 12.8592 18.4182 12.7039 18.524L13.5483 19.7638C14.2672 19.2742 14.5202 18.4431 14.635 17.5405C14.7518 16.6226 14.7503 15.3879 14.7503 13.8403H13.2503ZM7.43427 17.2912C8.62856 18.2755 9.58043 19.0619 10.363 19.5556C11.1325 20.041 11.9348 20.3743 12.7698 20.1309L12.3501 18.6908C12.1697 18.7434 11.8587 18.7256 11.1633 18.2869C10.4809 17.8564 9.61615 17.1456 8.38827 16.1337L7.43427 17.2912ZM12.7039 18.524C12.5955 18.5978 12.4761 18.6541 12.3501 18.6908L12.7698 20.1309C13.047 20.0501 13.3097 19.9262 13.5483 19.7638L12.7039 18.524ZM14.7503 9.62146C14.7503 8.07382 14.7518 6.8391 14.635 5.92125C14.5202 5.01865 14.2672 4.18758 13.5483 3.69799L12.7039 4.93779C12.8592 5.04357 13.0433 5.29487 13.147 6.11052C13.2488 6.91091 13.2503 8.0303 13.2503 9.62146H14.7503ZM8.38827 7.32808C9.61615 6.3161 10.4809 5.6053 11.1633 5.17481C11.8587 4.73612 12.1697 4.71831 12.3501 4.77089L12.7698 3.33081C11.9348 3.08743 11.1325 3.4207 10.363 3.90616C9.58043 4.39983 8.62856 5.18625 7.43427 6.17055L8.38827 7.32808ZM13.5483 3.69799C13.3097 3.5355 13.047 3.41159 12.7698 3.33081L12.3501 4.77089C12.4761 4.80761 12.5955 4.86393 12.7039 4.93779L13.5483 3.69799ZM1.75032 11.1575C1.75032 10.8737 1.75149 10.7935 1.75807 10.7347L0.267377 10.5679C0.249148 10.7308 0.250321 10.9142 0.250321 11.1575H1.75032ZM3.28408 8.12373C3.04081 8.12373 2.85742 8.12256 2.69452 8.14078L2.86132 9.63148C2.92012 9.6249 3.00027 9.62373 3.28408 9.62373V8.12373ZM1.75807 10.7347C1.823 10.1544 2.28103 9.69641 2.86132 9.63148L2.69452 8.14078C1.41788 8.28363 0.410226 9.29129 0.267377 10.5679L1.75807 10.7347ZM16.87 14.8005L16.47 15.2005L17.5306 16.2612L17.9306 15.8612L16.87 14.8005ZM16.47 8.2612L16.87 8.6612L17.9306 7.60054L17.5306 7.20054L16.47 8.2612ZM17.9306 15.8612C17.9887 15.8032 18.0233 15.7686 18.0529 15.7381L16.9772 14.6927C16.9569 14.7136 16.9317 14.7388 16.87 14.8005L17.9306 15.8612ZM16.87 8.6612C16.9317 8.7229 16.9569 8.74816 16.9772 8.76901L18.0529 7.72365C18.0233 7.69315 17.9887 7.65855 17.9306 7.60054L16.87 8.6612ZM18.0529 15.7381C20.2214 13.5066 20.2214 9.9551 18.0529 7.72365L16.9772 8.76901C18.5799 10.4183 18.5799 13.0434 16.9772 14.6927L18.0529 15.7381ZM19.17 17.5005L18.47 18.2005L19.5306 19.2612L20.2306 18.5612L19.17 17.5005ZM18.47 5.2612L19.17 5.9612L20.2306 4.90054L19.5306 4.20054L18.47 5.2612ZM20.2306 18.5612C20.8164 17.9754 21.1448 17.6481 21.4009 17.3417L20.2499 16.3798C20.0476 16.6219 19.7787 16.8918 19.17 17.5005L20.2306 18.5612ZM19.17 5.9612C19.7787 6.56991 20.0476 6.83987 20.2499 7.08193L21.4009 6.12009C21.1448 5.81363 20.8164 5.48631 20.2306 4.90054L19.17 5.9612ZM21.4009 17.3417C24.1152 14.0935 24.1152 9.36821 21.4009 6.12009L20.2499 7.08193C22.4989 9.77323 22.4988 13.6885 20.2499 16.3798L21.4009 17.3417Z" fill="black"/>
</g>
<defs>
<clipPath id="clip0_0_1">
<rect width="24" height="24" fill="black" transform="translate(0 -0.000610352)"/>
</clipPath>
</defs>
</svg>
