<svg width="24" height="24" viewBox="0 0 24 24" fill="none" xmlns="http://www.w3.org/2000/svg">
<path d="M5.06103 20.045L5.50187 19.4382L5.06103 20.045ZM3.95487 18.9388L4.56163 18.498L3.95487 18.9388ZM20.045 18.9388L19.4383 18.498L20.045 18.9388ZM18.9389 20.045L18.498 19.4382L18.9389 20.045ZM18.9389 3.95479L18.498 4.56155L18.9389 3.95479ZM20.045 5.06095L19.4383 5.50179L20.045 5.06095ZM5.06103 3.95479L5.50187 4.56155L5.06103 3.95479ZM3.95487 5.06095L4.56163 5.50179L3.95487 5.06095ZM12.75 6.99988C12.75 6.58566 12.4142 6.24988 12 6.24988C11.5857 6.24988 11.25 6.58566 11.25 6.99988H12.75ZM11.25 12.9999C11.25 13.4141 11.5857 13.7499 12 13.7499C12.4142 13.7499 12.75 13.4141 12.75 12.9999H11.25ZM12 20.2499C10.1084 20.2499 8.74994 20.2488 7.698 20.1349C6.66009 20.0224 6.00987 19.8073 5.50187 19.4382L4.62019 20.6517C5.42651 21.2375 6.37089 21.4999 7.53643 21.6261C8.68793 21.7509 10.1418 21.7499 12 21.7499V20.2499ZM2.24995 11.9999C2.24995 13.858 2.24893 15.3119 2.37368 16.4634C2.49996 17.6289 2.76228 18.5733 3.34811 19.3796L4.56163 18.498C4.19254 17.99 3.97741 17.3397 3.86495 16.3018C3.75098 15.2499 3.74995 13.8914 3.74995 11.9999H2.24995ZM5.50187 19.4382C5.14106 19.1761 4.82377 18.8588 4.56163 18.498L3.34811 19.3796C3.70276 19.8678 4.13204 20.2971 4.62019 20.6517L5.50187 19.4382ZM20.2499 11.9999C20.2499 13.8914 20.2489 15.2499 20.1349 16.3018C20.0225 17.3397 19.8074 17.99 19.4383 18.498L20.6518 19.3796C21.2376 18.5733 21.4999 17.6289 21.6262 16.4634C21.751 15.3119 21.7499 13.858 21.7499 11.9999H20.2499ZM12 21.7499C13.8581 21.7499 15.312 21.7509 16.4635 21.6261C17.629 21.4999 18.5734 21.2375 19.3797 20.6517L18.498 19.4382C17.99 19.8073 17.3398 20.0224 16.3019 20.1349C15.25 20.2488 13.8915 20.2499 12 20.2499V21.7499ZM19.4383 18.498C19.1761 18.8588 18.8588 19.1761 18.498 19.4382L19.3797 20.6517C19.8679 20.2971 20.2971 19.8678 20.6518 19.3796L19.4383 18.498ZM12 3.74988C13.8915 3.74988 15.25 3.75091 16.3019 3.86488C17.3398 3.97733 17.99 4.19247 18.498 4.56155L19.3797 3.34803C18.5734 2.7622 17.629 2.49988 16.4635 2.37361C15.312 2.24885 13.8581 2.24988 12 2.24988V3.74988ZM21.7499 11.9999C21.7499 10.1417 21.751 8.68785 21.6262 7.53635C21.4999 6.37082 21.2376 5.42644 20.6518 4.62011L19.4383 5.50179C19.8074 6.00979 20.0225 6.66001 20.1349 7.69792C20.2489 8.74987 20.2499 10.1083 20.2499 11.9999H21.7499ZM18.498 4.56155C18.8588 4.82369 19.1761 5.14099 19.4383 5.50179L20.6518 4.62011C20.2971 4.13197 19.8679 3.70269 19.3797 3.34803L18.498 4.56155ZM12 2.24988C10.1418 2.24988 8.68793 2.24885 7.53643 2.37361C6.37089 2.49988 5.42651 2.7622 4.62019 3.34803L5.50187 4.56155C6.00987 4.19247 6.66009 3.97733 7.698 3.86488C8.74994 3.75091 10.1084 3.74988 12 3.74988V2.24988ZM3.74995 11.9999C3.74995 10.1083 3.75098 8.74987 3.86495 7.69792C3.97741 6.66001 4.19254 6.00979 4.56163 5.50179L3.34811 4.62011C2.76228 5.42644 2.49996 6.37082 2.37368 7.53635C2.24893 8.68785 2.24995 10.1417 2.24995 11.9999H3.74995ZM4.62019 3.34803C4.13204 3.70269 3.70276 4.13197 3.34811 4.62011L4.56163 5.50179C4.82377 5.14099 5.14106 4.82369 5.50187 4.56155L4.62019 3.34803ZM11.25 6.99988V12.9999H12.75V6.99988H11.25Z" fill="black"/>
<path d="M13.0012 16C13.0012 16.5526 12.5533 17.0005 12.0007 17.0005C11.4482 17.0005 11.0002 16.5526 11.0002 16C11.0002 15.4474 11.4482 14.9995 12.0007 14.9995C12.5533 14.9995 13.0012 15.4474 13.0012 16Z" fill="black"/>
</svg>
