<svg width="24" height="24" viewBox="0 0 24 24" fill="none" xmlns="http://www.w3.org/2000/svg">
<g clip-path="url(#clip0_0_1)">
<path d="M5.73029 19.4537L6.07078 18.7854L6.07078 18.7854L5.73029 19.4537ZM3.54521 17.2686L4.21347 16.9281L3.54521 17.2686ZM18.4553 17.2686L19.1235 17.6091L18.4553 17.2686ZM16.2702 19.4537L15.9297 18.7854L16.2702 19.4537ZM16.2702 4.54362L16.6107 3.87537L16.2702 4.54362ZM18.4553 6.7287L17.787 7.0692L18.4553 6.7287ZM5.73029 4.54362L6.07078 5.21188L5.73029 4.54362ZM3.54521 6.7287L2.87696 6.38821L3.54521 6.7287ZM11.7502 7.99865C11.7502 7.58444 11.4145 7.24866 11.0002 7.24866C10.586 7.24866 10.2502 7.58444 10.2502 7.99865H11.7502ZM14.0002 13.7487C14.4145 13.7487 14.7502 13.4129 14.7502 12.9987C14.7502 12.5844 14.4145 12.2487 14.0002 12.2487V13.7487ZM20.2502 13.9987C20.2502 14.4129 20.586 14.7487 21.0002 14.7487C21.4145 14.7487 21.7502 14.4129 21.7502 13.9987H20.2502ZM21.7502 9.99865C21.7502 9.58444 21.4145 9.24865 21.0002 9.24865C20.586 9.24865 20.2502 9.58444 20.2502 9.99865H21.7502ZM5.11833 19.0846L5.55061 18.4717L5.55061 18.4717L5.11833 19.0846ZM16.8818 19.0848L16.4495 18.4719L16.4495 18.4719L16.8818 19.0848ZM11.0002 19.2487C9.58773 19.2487 8.57346 19.2481 7.77733 19.183C6.98995 19.1187 6.48221 18.9951 6.07078 18.7854L5.3898 20.1219C6.04793 20.4573 6.77504 20.6061 7.65518 20.678C8.52656 20.7492 9.61249 20.7487 11.0002 20.7487V19.2487ZM2.25024 11.9987C2.25024 13.3864 2.24966 14.4723 2.32086 15.3437C2.39277 16.2239 2.54162 16.951 2.87696 17.6091L4.21347 16.9281C4.00383 16.5167 3.88021 16.0089 3.81587 15.2216C3.75083 14.4254 3.75024 13.4112 3.75024 11.9987H2.25024ZM18.2502 11.9987C18.2502 13.4112 18.2497 14.4254 18.1846 15.2216C18.1203 16.0089 17.9966 16.5167 17.787 16.9281L19.1235 17.6091C19.4589 16.951 19.6077 16.2239 19.6796 15.3437C19.7508 14.4723 19.7502 13.3864 19.7502 11.9987H18.2502ZM11.0002 20.7487C12.388 20.7487 13.4739 20.7492 14.3453 20.678C15.2254 20.6061 15.9526 20.4573 16.6107 20.1219L15.9297 18.7854C15.5183 18.9951 15.0105 19.1187 14.2232 19.183C13.427 19.2481 12.4127 19.2487 11.0002 19.2487V20.7487ZM11.0002 4.74866C12.4127 4.74866 13.427 4.74924 14.2232 4.81429C15.0105 4.87862 15.5183 5.00224 15.9297 5.21188L16.6107 3.87537C15.9526 3.54003 15.2254 3.39118 14.3453 3.31927C13.4739 3.24807 12.388 3.24866 11.0002 3.24866V4.74866ZM19.7502 11.9987C19.7502 10.6109 19.7508 9.52498 19.6796 8.65359C19.6077 7.77345 19.4589 7.04634 19.1235 6.38821L17.787 7.0692C17.9966 7.48062 18.1203 7.98836 18.1846 8.77574C18.2497 9.57187 18.2502 10.5861 18.2502 11.9987H19.7502ZM11.0002 3.24866C9.61249 3.24866 8.52656 3.24807 7.65518 3.31927C6.77504 3.39118 6.04793 3.54003 5.3898 3.87537L6.07078 5.21188C6.48221 5.00224 6.98995 4.87862 7.77733 4.81429C8.57346 4.74924 9.58773 4.74866 11.0002 4.74866V3.24866ZM3.75024 11.9987C3.75024 10.5861 3.75083 9.57187 3.81587 8.77574C3.88021 7.98836 4.00383 7.48062 4.21347 7.0692L2.87696 6.38821C2.54162 7.04634 2.39277 7.77345 2.32086 8.65359C2.24966 9.52498 2.25024 10.6109 2.25024 11.9987H3.75024ZM10.0003 1.74866H12.0003V0.248658H10.0003V1.74866ZM10.0001 23.7486H12.0001V22.2486H10.0001V23.7486ZM10.2502 7.99865V11.4987H11.7502V7.99865H10.2502ZM21.7502 13.9987V9.99865H20.2502V13.9987H21.7502ZM12.5002 13.7487H14.0002V12.2487H12.5002V13.7487ZM12.0003 1.74866C14.0296 1.74866 15.7283 3.17163 16.1498 5.07485L17.6143 4.75051C17.044 2.17519 14.748 0.248658 12.0003 0.248658V1.74866ZM15.9297 5.21188C16.1111 5.30432 16.2849 5.40925 16.4498 5.52558L17.3143 4.29979C17.0912 4.14239 16.8561 4.00043 16.6107 3.87537L15.9297 5.21188ZM16.4498 5.52558C17.0119 5.92204 17.472 6.45093 17.787 7.0692L19.1235 6.38821C18.6973 5.55172 18.0748 4.83616 17.3143 4.29979L16.4498 5.52558ZM10.0003 0.248658C7.25268 0.248658 4.95677 2.17512 4.38636 4.75036L5.85087 5.07474C6.27241 3.17158 7.97108 1.74866 10.0003 1.74866V0.248658ZM5.3898 3.87537C5.14444 4.00038 4.90947 4.1423 4.68637 4.29963L5.55086 5.52546C5.71574 5.40918 5.88941 5.30429 6.07078 5.21188L5.3898 3.87537ZM4.68637 4.29963C3.92578 4.83603 3.30321 5.55164 2.87696 6.38821L4.21347 7.0692C4.52852 6.45088 4.98867 5.92194 5.55086 5.52546L4.68637 4.29963ZM10.0001 22.2486C7.97077 22.2486 6.27206 20.8256 5.85058 18.9224L4.38607 19.2467C4.95638 21.8221 7.25236 23.7486 10.0001 23.7486V22.2486ZM6.07078 18.7854C5.88932 18.693 5.71557 18.588 5.55061 18.4717L4.68604 19.6974C4.90924 19.8549 5.14432 19.9969 5.3898 20.1219L6.07078 18.7854ZM5.55061 18.4717C4.98853 18.0752 4.52847 17.5463 4.21347 16.9281L2.87696 17.6091C3.30315 18.4455 3.9256 19.1611 4.68604 19.6974L5.55061 18.4717ZM12.0001 23.7486C14.7477 23.7486 17.0436 21.8222 17.614 19.247L16.1495 18.9226C15.728 20.8258 14.0293 22.2486 12.0001 22.2486V23.7486ZM17.787 16.9281C17.4719 17.5465 17.0118 18.0754 16.4495 18.4719L17.314 19.6978C18.0746 19.1614 18.6972 18.4457 19.1235 17.6091L17.787 16.9281ZM16.4495 18.4719C16.2847 18.5882 16.111 18.693 15.9297 18.7854L16.6107 20.1219C16.856 19.9969 17.0909 19.8551 17.314 19.6978L16.4495 18.4719ZM10.2502 11.4987C10.2502 12.7413 11.2576 13.7487 12.5002 13.7487V12.2487C12.086 12.2487 11.7502 11.9129 11.7502 11.4987H10.2502Z" fill="black"/>
</g>
<defs>
<clipPath id="clip0_0_1">
<rect width="24" height="24" fill="black" transform="translate(0 -0.000732422)"/>
</clipPath>
</defs>
</svg>
