<svg width="24" height="24" viewBox="0 0 24 24" fill="none" xmlns="http://www.w3.org/2000/svg">
<path d="M5.72974 19.4539L6.07023 18.7857L5.72974 19.4539ZM3.54466 17.2688L4.21292 16.9284L3.54466 17.2688ZM18.4547 17.2688L17.7865 16.9284L18.4547 17.2688ZM16.2696 19.4539L15.9291 18.7857L16.2696 19.4539ZM16.2696 4.54387L15.9291 5.21212L16.2696 4.54387ZM18.4547 6.72895L17.7865 7.06944L18.4547 6.72895ZM5.72974 4.54387L6.07023 5.21212L5.72974 4.54387ZM3.54466 6.72895L4.21292 7.06944L3.54466 6.72895ZM20.9997 12.7489C21.4139 12.7489 21.7497 12.4131 21.7497 11.9989C21.7497 11.5847 21.4139 11.2489 20.9997 11.2489V12.7489ZM11.7497 7.9989C11.7497 7.58469 11.4139 7.2489 10.9997 7.2489C10.5855 7.2489 10.2497 7.58469 10.2497 7.9989H11.7497ZM13.9997 13.7489C14.4139 13.7489 14.7497 13.4131 14.7497 12.9989C14.7497 12.5847 14.4139 12.2489 13.9997 12.2489V13.7489ZM6.99969 1.2489C6.58548 1.2489 6.24969 1.58469 6.24969 1.9989C6.24969 2.41311 6.58548 2.7489 6.99969 2.7489V1.2489ZM14.9997 2.7489C15.4139 2.7489 15.7497 2.41311 15.7497 1.9989C15.7497 1.58469 15.4139 1.2489 14.9997 1.2489V2.7489ZM6.99969 21.2489C6.58548 21.2489 6.24969 21.5847 6.24969 21.9989C6.24969 22.4131 6.58548 22.7489 6.99969 22.7489V21.2489ZM14.9997 22.7489C15.4139 22.7489 15.7497 22.4131 15.7497 21.9989C15.7497 21.5847 15.4139 21.2489 14.9997 21.2489V22.7489ZM10.9997 19.2489C9.58719 19.2489 8.57291 19.2483 7.77678 19.1833C6.9894 19.1189 6.48166 18.9953 6.07023 18.7857L5.38925 20.1222C6.04738 20.4575 6.77449 20.6064 7.65463 20.6783C8.52601 20.7495 9.61194 20.7489 10.9997 20.7489V19.2489ZM2.2497 11.9989C2.2497 13.3867 2.24911 14.4726 2.32031 15.344C2.39222 16.2241 2.54107 16.9512 2.87641 17.6093L4.21292 16.9284C4.00328 16.5169 3.87966 16.0092 3.81532 15.2218C3.75028 14.4257 3.74969 13.4114 3.74969 11.9989H2.2497ZM6.07023 18.7857C5.27055 18.3782 4.62038 17.728 4.21292 16.9284L2.87641 17.6093C3.42768 18.6913 4.30732 19.5709 5.38925 20.1222L6.07023 18.7857ZM18.2497 11.9989C18.2497 13.4114 18.2491 14.4257 18.1841 15.2218C18.1197 16.0092 17.9961 16.5169 17.7865 16.9284L19.123 17.6093C19.4583 16.9512 19.6072 16.2241 19.6791 15.344C19.7503 14.4726 19.7497 13.3867 19.7497 11.9989H18.2497ZM10.9997 20.7489C12.3874 20.7489 13.4734 20.7495 14.3448 20.6783C15.2249 20.6064 15.952 20.4575 16.6101 20.1222L15.9291 18.7857C15.5177 18.9953 15.01 19.1189 14.2226 19.1833C13.4265 19.2483 12.4122 19.2489 10.9997 19.2489V20.7489ZM17.7865 16.9284C17.379 17.728 16.7288 18.3782 15.9291 18.7857L16.6101 20.1222C17.6921 19.5709 18.5717 18.6913 19.123 17.6093L17.7865 16.9284ZM10.9997 4.7489C12.4122 4.7489 13.4265 4.74948 14.2226 4.81453C15.01 4.87886 15.5177 5.00249 15.9291 5.21212L16.6101 3.87561C15.952 3.54028 15.2249 3.39142 14.3448 3.31951C13.4734 3.24832 12.3874 3.2489 10.9997 3.2489V4.7489ZM19.7497 11.9989C19.7497 10.6111 19.7503 9.52522 19.6791 8.65383C19.6072 7.77369 19.4583 7.04658 19.123 6.38845L17.7865 7.06944C17.9961 7.48087 18.1197 7.9886 18.1841 8.77598C18.2491 9.57212 18.2497 10.5864 18.2497 11.9989H19.7497ZM15.9291 5.21212C16.7288 5.61958 17.379 6.26975 17.7865 7.06944L19.123 6.38845C18.5717 5.30652 17.6921 4.42688 16.6101 3.87561L15.9291 5.21212ZM10.9997 3.2489C9.61194 3.2489 8.52601 3.24832 7.65463 3.31951C6.77449 3.39142 6.04738 3.54028 5.38925 3.87561L6.07023 5.21212C6.48166 5.00249 6.9894 4.87886 7.77678 4.81453C8.57291 4.74948 9.58719 4.7489 10.9997 4.7489V3.2489ZM3.74969 11.9989C3.74969 10.5864 3.75028 9.57212 3.81532 8.77598C3.87966 7.9886 4.00328 7.48087 4.21292 7.06944L2.87641 6.38845C2.54107 7.04658 2.39222 7.77369 2.32031 8.65383C2.24911 9.52522 2.2497 10.6111 2.2497 11.9989H3.74969ZM5.38925 3.87561C4.30732 4.42688 3.42768 5.30652 2.87641 6.38845L4.21292 7.06944C4.62038 6.26975 5.27055 5.61958 6.07023 5.21212L5.38925 3.87561ZM18.9997 12.7489H20.9997V11.2489H18.9997V12.7489ZM10.2497 7.9989V11.4989H11.7497V7.9989H10.2497ZM6.99969 2.7489H14.9997V1.2489H6.99969V2.7489ZM6.99969 22.7489H14.9997V21.2489H6.99969V22.7489ZM12.4997 13.7489H13.9997V12.2489H12.4997V13.7489ZM10.2497 11.4989C10.2497 12.7415 11.2571 13.7489 12.4997 13.7489V12.2489C12.0855 12.2489 11.7497 11.9131 11.7497 11.4989H10.2497Z" fill="black"/>
</svg>
