<svg width="24" height="24" viewBox="0 0 24 24" fill="none" xmlns="http://www.w3.org/2000/svg">
<path d="M7.99966 11.9989L7.24966 11.9989L7.99966 11.9989ZM15.9997 11.9989L16.7497 11.9989L15.9997 11.9989ZM11.9997 15.9989L11.9997 16.7489L11.9997 15.9989ZM11.9997 9.9989L11.9997 10.7489L11.9997 9.9989ZM14.0691 21.7845L14.2235 22.5184L14.0691 21.7845ZM9.93026 21.7845L9.77583 22.5184L9.93026 21.7845ZM2.73828 8.22009L2.04396 7.93651L2.04396 7.93651L2.73828 8.22009ZM2.21405 14.0683L1.48012 14.2227L2.21405 14.0683ZM9.93026 2.21328L9.77583 1.47936L9.93026 2.21328ZM14.0691 2.21328L14.2235 1.47936L14.0691 2.21328ZM21.1805 8.25617L20.9628 7.53846L20.9628 7.53846L21.1805 8.25617ZM2.81763 8.25581L3.03533 7.53811L2.81763 8.25581ZM20.5678 8.50621C21.0071 9.58289 21.2497 10.7616 21.2497 11.9989H22.7497C22.7497 10.564 22.4681 9.19297 21.9566 7.93945L20.5678 8.50621ZM21.2497 11.9989C21.2497 12.6562 21.1812 13.2967 21.0513 13.9139L22.5192 14.2227C22.6703 13.5046 22.7497 12.7606 22.7497 11.9989H21.2497ZM21.0513 13.9139C20.2999 17.4851 17.4858 20.2991 13.9146 21.0506L14.2235 22.5184C18.3766 21.6445 21.6453 18.3758 22.5192 14.2227L21.0513 13.9139ZM13.9146 21.0506C13.2974 21.1805 12.6569 21.2489 11.9997 21.2489V22.7489C12.7614 22.7489 13.5053 22.6696 14.2235 22.5184L13.9146 21.0506ZM11.9997 21.2489C11.3424 21.2489 10.7019 21.1805 10.0847 21.0506L9.77583 22.5184C10.494 22.6696 11.238 22.7489 11.9997 22.7489V21.2489ZM2.74967 11.9989C2.74967 10.7607 2.99256 9.58104 3.43259 8.50368L2.04396 7.93651C1.53165 9.19082 1.24967 10.5629 1.24967 11.9989H2.74967ZM10.0847 21.0506C6.51349 20.2991 3.69943 17.4851 2.94798 13.9139L1.48012 14.2227C2.35402 18.3758 5.62271 21.6445 9.77583 22.5184L10.0847 21.0506ZM2.94798 13.9139C2.8181 13.2966 2.74967 12.6562 2.74967 11.9989H1.24967C1.24967 12.7606 1.329 13.5046 1.48012 14.2227L2.94798 13.9139ZM3.43259 8.50368C4.57791 5.69954 7.06052 3.58356 10.0847 2.94721L9.77583 1.47936C6.25703 2.21978 3.37453 4.6788 2.04396 7.93651L3.43259 8.50368ZM10.0847 2.94721C10.7019 2.81734 11.3424 2.7489 11.9997 2.7489V1.2489C11.238 1.2489 10.494 1.32824 9.77583 1.47936L10.0847 2.94721ZM11.9997 2.7489C12.6569 2.7489 13.2974 2.81734 13.9146 2.94721L14.2235 1.47936C13.5053 1.32824 12.7614 1.2489 11.9997 1.2489V2.7489ZM13.9146 2.94721C16.9397 3.58375 19.4229 5.70082 20.5678 8.50621L21.9566 7.93945C20.6265 4.68028 17.7434 2.22001 14.2235 1.47936L13.9146 2.94721ZM13.3546 2.44127C13.6305 3.30602 14.6519 6.63195 15.0705 9.68775L16.5566 9.48416C16.1194 6.29238 15.0636 2.86298 14.7836 1.9853L13.3546 2.44127ZM15.0705 9.68775C15.1827 10.5067 15.2497 11.2932 15.2497 11.9989L16.7497 11.9989C16.7497 11.2045 16.6748 10.3465 16.5566 9.48416L15.0705 9.68775ZM20.9628 7.53846C19.8653 7.87133 17.804 8.45594 15.6774 8.84841L15.9497 10.3235C18.1553 9.91644 20.277 9.31395 21.3982 8.97389L20.9628 7.53846ZM15.6774 8.84841C14.3874 9.08649 13.0993 9.2489 11.9997 9.2489L11.9997 10.7489C13.2289 10.7489 14.6175 10.5694 15.9497 10.3235L15.6774 8.84841ZM15.2497 11.9989C15.2497 13.0444 15.1028 14.261 14.8833 15.4888L16.3599 15.7528C16.5871 14.4822 16.7497 13.1687 16.7497 11.9989L15.2497 11.9989ZM14.8833 15.4888C14.4021 18.18 13.5937 20.8069 13.3546 21.5565L14.7836 22.0125C15.029 21.2432 15.8612 18.5421 16.3599 15.7528L14.8833 15.4888ZM21.5573 13.3538C20.8077 13.593 18.1808 14.4014 15.4896 14.8825L15.7536 16.3591C18.5428 15.8604 21.244 15.0283 22.0133 14.7828L21.5573 13.3538ZM15.4896 14.8825C14.2618 15.1021 13.0451 15.2489 11.9997 15.2489L11.9997 16.7489C13.1695 16.7489 14.483 16.5863 15.7536 16.3591L15.4896 14.8825ZM11.9997 15.2489C10.9542 15.2489 9.73753 15.1021 8.50973 14.8825L8.24572 16.3591C9.51637 16.5863 10.8298 16.7489 11.9997 16.7489L11.9997 15.2489ZM8.50973 14.8825C5.81853 14.4014 3.19164 13.593 2.44203 13.3538L1.98607 14.7828C2.75535 15.0283 5.4565 15.8604 8.24572 16.3591L8.50973 14.8825ZM7.24966 11.9989C7.24966 13.1687 7.41225 14.4822 7.63944 15.7528L9.11602 15.4888C8.89649 14.261 8.74966 13.0444 8.74966 11.9989L7.24966 11.9989ZM7.63944 15.7528C8.13814 18.5421 8.97029 21.2432 9.21575 22.0125L10.6448 21.5565C10.4056 20.8069 9.5972 18.18 9.11602 15.4888L7.63944 15.7528ZM9.21575 1.9853C8.9357 2.86297 7.87996 6.29237 7.44271 9.48416L8.92883 9.68775C9.34745 6.63195 10.3688 3.30602 10.6448 2.44127L9.21575 1.9853ZM7.44271 9.48416C7.32458 10.3465 7.24966 11.2045 7.24966 11.9989L8.74966 11.9989C8.74966 11.2932 8.81664 10.5067 8.92883 9.68775L7.44271 9.48416ZM11.9997 9.2489C10.9 9.2489 9.6119 9.08649 8.32189 8.84841L8.04965 10.3235C9.38178 10.5694 10.7704 10.7489 11.9997 10.7489L11.9997 9.2489ZM8.32189 8.84841C6.19456 8.4558 4.13253 7.87091 3.03533 7.53811L2.59993 8.97352C3.72081 9.31352 5.84327 9.9163 8.04965 10.3235L8.32189 8.84841ZM20.9165 7.55721C20.9298 7.55032 20.9457 7.54366 20.9628 7.53846L21.3982 8.97389C21.4722 8.95145 21.5418 8.92271 21.6078 8.88844L20.9165 7.55721ZM2.34698 8.85993C2.4247 8.90746 2.50906 8.94596 2.59993 8.97352L3.03533 7.53811C3.07 7.54862 3.10196 7.56337 3.12957 7.58026L2.34698 8.85993Z" fill="black"/>
</svg>
