<svg width="24" height="24" viewBox="0 0 24 24" fill="none" xmlns="http://www.w3.org/2000/svg">
<g clip-path="url(#clip0_0_1)">
<path d="M15.9999 16.2003L15.5999 15.8003C13.6116 13.8121 10.3881 13.8121 8.39986 15.8003L7.99986 16.2003M18.9999 12.2003L18.2999 11.5003C14.8205 8.02095 9.17926 8.02095 5.69986 11.5003L4.99986 12.2003M22.9999 8.20035L21.8999 7.10035C16.4322 1.63273 7.56748 1.63273 2.09986 7.10034L0.999863 8.20034" stroke="black" stroke-width="1.5" stroke-linecap="round"/>
<path d="M13.0016 20.0002C13.0016 20.5528 12.5536 21.0007 12.0011 21.0007C11.4485 21.0007 11.0006 20.5528 11.0006 20.0002C11.0006 19.4477 11.4485 18.9998 12.0011 18.9998C12.5536 18.9998 13.0016 19.4477 13.0016 20.0002Z" fill="black"/>
</g>
<defs>
<clipPath id="clip0_0_1">
<rect width="24" height="24" fill="black" transform="translate(-0.000244141 -0.000488281)"/>
</clipPath>
</defs>
</svg>
