<svg width="24" height="24" viewBox="0 0 24 24" fill="none" xmlns="http://www.w3.org/2000/svg">
<path d="M19.3584 18.298C19.0655 18.0051 18.5907 18.0051 18.2978 18.298C18.0049 18.5909 18.0049 19.0657 18.2978 19.3586L19.3584 18.298ZM22.2977 23.3586C22.5905 23.6515 23.0654 23.6515 23.3583 23.3586C23.6512 23.0657 23.6512 22.5908 23.3583 22.2979L22.2977 23.3586ZM7.99967 10.2498C7.58545 10.2498 7.24967 10.5855 7.24967 10.9998C7.24967 11.414 7.58545 11.7498 7.99967 11.7498V10.2498ZM13.9997 11.7498C14.4139 11.7498 14.7497 11.414 14.7497 10.9998C14.7497 10.5855 14.4139 10.2498 13.9997 10.2498V11.7498ZM10.2497 13.9998C10.2497 14.414 10.5855 14.7497 10.9997 14.7497C11.4139 14.7497 11.7497 14.414 11.7497 13.9998H10.2497ZM11.7497 7.99975C11.7497 7.58554 11.4139 7.24975 10.9997 7.24975C10.5855 7.24975 10.2497 7.58554 10.2497 7.99975H11.7497ZM18.2978 19.3586L22.2977 23.3586L23.3583 22.2979L19.3584 18.298L18.2978 19.3586ZM7.99967 11.7498H13.9997V10.2498H7.99967V11.7498ZM11.7497 13.9998V7.99975H10.2497V13.9998H11.7497ZM10.9997 19.2497C6.44332 19.2497 2.74967 15.5561 2.74967 10.9998H1.24967C1.24967 16.3845 5.61489 20.7497 10.9997 20.7497V19.2497ZM19.2497 10.9998C19.2497 15.5561 15.556 19.2497 10.9997 19.2497V20.7497C16.3844 20.7497 20.7497 16.3845 20.7497 10.9998H19.2497ZM10.9997 2.74976C15.556 2.74976 19.2497 6.4434 19.2497 10.9998H20.7497C20.7497 5.61498 16.3844 1.24976 10.9997 1.24976V2.74976ZM10.9997 1.24976C5.61489 1.24976 1.24967 5.61498 1.24967 10.9998H2.74967C2.74967 6.4434 6.44332 2.74976 10.9997 2.74976V1.24976Z" fill="black"/>
</svg>
