<svg width="24" height="24" viewBox="0 0 24 24" fill="none" xmlns="http://www.w3.org/2000/svg">
<g clip-path="url(#clip0_0_1)">
<path d="M7.99996 9.25024C7.58575 9.25024 7.24996 9.58603 7.24996 10.0002C7.24996 10.4145 7.58575 10.7502 7.99996 10.7502V9.25024ZM14 10.7502C14.4142 10.7502 14.75 10.4145 14.75 10.0002C14.75 9.58603 14.4142 9.25024 14 9.25024V10.7502ZM19.5304 17.47C19.2375 17.1771 18.7626 17.1771 18.4697 17.47C18.1768 17.7629 18.1768 18.2378 18.4697 18.5307L19.5304 17.47ZM22.4696 22.5306C22.7625 22.8235 23.2373 22.8235 23.5302 22.5306C23.8231 22.2377 23.8231 21.7628 23.5303 21.4699L22.4696 22.5306ZM7.99996 10.7502H14V9.25024H7.99996V10.7502ZM18.4697 18.5307L22.4696 22.5306L23.5303 21.4699L19.5304 17.47L18.4697 18.5307ZM11 18.2502C6.44362 18.2502 2.74997 14.5566 2.74997 10.0002H1.24997C1.24997 15.385 5.61519 19.7502 11 19.7502V18.2502ZM19.25 10.0002C19.25 14.5566 15.5563 18.2502 11 18.2502V19.7502C16.3847 19.7502 20.75 15.385 20.75 10.0002H19.25ZM11 1.75024C15.5563 1.75024 19.25 5.44389 19.25 10.0002H20.75C20.75 4.61547 16.3847 0.250244 11 0.250244V1.75024ZM11 0.250244C5.61519 0.250244 1.24997 4.61547 1.24997 10.0002H2.74997C2.74997 5.44389 6.44362 1.75024 11 1.75024V0.250244Z" fill="black"/>
</g>
<defs>
<clipPath id="clip0_0_1">
<rect width="24" height="24" fill="black" transform="translate(0.000488281 0.00012207)"/>
</clipPath>
</defs>
</svg>
